%TF.GenerationSoftware,KiCad,Pcbnew,9.0.3*%
%TF.CreationDate,2025-07-24T19:54:10+08:00*%
%TF.ProjectId,Photon_Power_Zero_PCB_r1_02,50686f74-6f6e-45f5-906f-7765725f5a65,rev?*%
%TF.SameCoordinates,Original*%
%TF.FileFunction,Legend,Top*%
%TF.FilePolarity,Positive*%
%FSLAX46Y46*%
G04 Gerber Fmt 4.6, Leading zero omitted, Abs format (unit mm)*
G04 Created by KiCad (PCBNEW 9.0.3) date 2025-07-24 19:54:10*
%MOMM*%
%LPD*%
G01*
G04 APERTURE LIST*
%ADD10C,0.187500*%
%ADD11C,0.100000*%
%ADD12C,0.200000*%
%ADD13C,0.300000*%
%ADD14C,0.087500*%
%ADD15C,0.000000*%
%ADD16C,0.120000*%
%ADD17C,0.152400*%
%ADD18C,0.127000*%
G04 APERTURE END LIST*
D10*
X178874178Y-104193787D02*
X178874178Y-103836645D01*
X179088464Y-104265216D02*
X178338464Y-104015216D01*
X178338464Y-104015216D02*
X179088464Y-103765216D01*
X179017035Y-103086645D02*
X179052750Y-103122359D01*
X179052750Y-103122359D02*
X179088464Y-103229502D01*
X179088464Y-103229502D02*
X179088464Y-103300930D01*
X179088464Y-103300930D02*
X179052750Y-103408073D01*
X179052750Y-103408073D02*
X178981321Y-103479502D01*
X178981321Y-103479502D02*
X178909892Y-103515216D01*
X178909892Y-103515216D02*
X178767035Y-103550930D01*
X178767035Y-103550930D02*
X178659892Y-103550930D01*
X178659892Y-103550930D02*
X178517035Y-103515216D01*
X178517035Y-103515216D02*
X178445607Y-103479502D01*
X178445607Y-103479502D02*
X178374178Y-103408073D01*
X178374178Y-103408073D02*
X178338464Y-103300930D01*
X178338464Y-103300930D02*
X178338464Y-103229502D01*
X178338464Y-103229502D02*
X178374178Y-103122359D01*
X178374178Y-103122359D02*
X178409892Y-103086645D01*
X178338464Y-102872359D02*
X178338464Y-102443788D01*
X179088464Y-102658073D02*
X178338464Y-102658073D01*
D11*
X149209133Y-105567544D02*
X148509133Y-105567544D01*
X148509133Y-105567544D02*
X149209133Y-105167544D01*
X149209133Y-105167544D02*
X148509133Y-105167544D01*
X148509133Y-104934211D02*
X148509133Y-104534211D01*
X149209133Y-104734211D02*
X148509133Y-104734211D01*
X149142466Y-103900878D02*
X149175800Y-103934211D01*
X149175800Y-103934211D02*
X149209133Y-104034211D01*
X149209133Y-104034211D02*
X149209133Y-104100878D01*
X149209133Y-104100878D02*
X149175800Y-104200878D01*
X149175800Y-104200878D02*
X149109133Y-104267545D01*
X149109133Y-104267545D02*
X149042466Y-104300878D01*
X149042466Y-104300878D02*
X148909133Y-104334211D01*
X148909133Y-104334211D02*
X148809133Y-104334211D01*
X148809133Y-104334211D02*
X148675800Y-104300878D01*
X148675800Y-104300878D02*
X148609133Y-104267545D01*
X148609133Y-104267545D02*
X148542466Y-104200878D01*
X148542466Y-104200878D02*
X148509133Y-104100878D01*
X148509133Y-104100878D02*
X148509133Y-104034211D01*
X148509133Y-104034211D02*
X148542466Y-103934211D01*
X148542466Y-103934211D02*
X148575800Y-103900878D01*
X149209133Y-102700878D02*
X149209133Y-103100878D01*
X149209133Y-102900878D02*
X148509133Y-102900878D01*
X148509133Y-102900878D02*
X148609133Y-102967545D01*
X148609133Y-102967545D02*
X148675800Y-103034212D01*
X148675800Y-103034212D02*
X148709133Y-103100878D01*
X148509133Y-102267545D02*
X148509133Y-102200878D01*
X148509133Y-102200878D02*
X148542466Y-102134211D01*
X148542466Y-102134211D02*
X148575800Y-102100878D01*
X148575800Y-102100878D02*
X148642466Y-102067545D01*
X148642466Y-102067545D02*
X148775800Y-102034211D01*
X148775800Y-102034211D02*
X148942466Y-102034211D01*
X148942466Y-102034211D02*
X149075800Y-102067545D01*
X149075800Y-102067545D02*
X149142466Y-102100878D01*
X149142466Y-102100878D02*
X149175800Y-102134211D01*
X149175800Y-102134211D02*
X149209133Y-102200878D01*
X149209133Y-102200878D02*
X149209133Y-102267545D01*
X149209133Y-102267545D02*
X149175800Y-102334211D01*
X149175800Y-102334211D02*
X149142466Y-102367545D01*
X149142466Y-102367545D02*
X149075800Y-102400878D01*
X149075800Y-102400878D02*
X148942466Y-102434211D01*
X148942466Y-102434211D02*
X148775800Y-102434211D01*
X148775800Y-102434211D02*
X148642466Y-102400878D01*
X148642466Y-102400878D02*
X148575800Y-102367545D01*
X148575800Y-102367545D02*
X148542466Y-102334211D01*
X148542466Y-102334211D02*
X148509133Y-102267545D01*
X149209133Y-101734211D02*
X148509133Y-101734211D01*
X149209133Y-101334211D02*
X148809133Y-101634211D01*
X148509133Y-101334211D02*
X148909133Y-101734211D01*
D10*
X181937035Y-104459502D02*
X181972750Y-104495216D01*
X181972750Y-104495216D02*
X182008464Y-104602359D01*
X182008464Y-104602359D02*
X182008464Y-104673787D01*
X182008464Y-104673787D02*
X181972750Y-104780930D01*
X181972750Y-104780930D02*
X181901321Y-104852359D01*
X181901321Y-104852359D02*
X181829892Y-104888073D01*
X181829892Y-104888073D02*
X181687035Y-104923787D01*
X181687035Y-104923787D02*
X181579892Y-104923787D01*
X181579892Y-104923787D02*
X181437035Y-104888073D01*
X181437035Y-104888073D02*
X181365607Y-104852359D01*
X181365607Y-104852359D02*
X181294178Y-104780930D01*
X181294178Y-104780930D02*
X181258464Y-104673787D01*
X181258464Y-104673787D02*
X181258464Y-104602359D01*
X181258464Y-104602359D02*
X181294178Y-104495216D01*
X181294178Y-104495216D02*
X181329892Y-104459502D01*
X182008464Y-104138073D02*
X181258464Y-104138073D01*
X181615607Y-104138073D02*
X181615607Y-103709502D01*
X182008464Y-103709502D02*
X181258464Y-103709502D01*
X181294178Y-102959502D02*
X181258464Y-103030931D01*
X181258464Y-103030931D02*
X181258464Y-103138073D01*
X181258464Y-103138073D02*
X181294178Y-103245216D01*
X181294178Y-103245216D02*
X181365607Y-103316645D01*
X181365607Y-103316645D02*
X181437035Y-103352359D01*
X181437035Y-103352359D02*
X181579892Y-103388073D01*
X181579892Y-103388073D02*
X181687035Y-103388073D01*
X181687035Y-103388073D02*
X181829892Y-103352359D01*
X181829892Y-103352359D02*
X181901321Y-103316645D01*
X181901321Y-103316645D02*
X181972750Y-103245216D01*
X181972750Y-103245216D02*
X182008464Y-103138073D01*
X182008464Y-103138073D02*
X182008464Y-103066645D01*
X182008464Y-103066645D02*
X181972750Y-102959502D01*
X181972750Y-102959502D02*
X181937035Y-102923788D01*
X181937035Y-102923788D02*
X181687035Y-102923788D01*
X181687035Y-102923788D02*
X181687035Y-103066645D01*
D12*
X192326266Y-83570326D02*
X192326266Y-82808422D01*
X192707219Y-83189374D02*
X191945314Y-83189374D01*
X192326266Y-81570326D02*
X192326266Y-80808422D01*
X183062054Y-100039600D02*
X183204911Y-100087219D01*
X183204911Y-100087219D02*
X183443006Y-100087219D01*
X183443006Y-100087219D02*
X183538244Y-100039600D01*
X183538244Y-100039600D02*
X183585863Y-99991980D01*
X183585863Y-99991980D02*
X183633482Y-99896742D01*
X183633482Y-99896742D02*
X183633482Y-99801504D01*
X183633482Y-99801504D02*
X183585863Y-99706266D01*
X183585863Y-99706266D02*
X183538244Y-99658647D01*
X183538244Y-99658647D02*
X183443006Y-99611028D01*
X183443006Y-99611028D02*
X183252530Y-99563409D01*
X183252530Y-99563409D02*
X183157292Y-99515790D01*
X183157292Y-99515790D02*
X183109673Y-99468171D01*
X183109673Y-99468171D02*
X183062054Y-99372933D01*
X183062054Y-99372933D02*
X183062054Y-99277695D01*
X183062054Y-99277695D02*
X183109673Y-99182457D01*
X183109673Y-99182457D02*
X183157292Y-99134838D01*
X183157292Y-99134838D02*
X183252530Y-99087219D01*
X183252530Y-99087219D02*
X183490625Y-99087219D01*
X183490625Y-99087219D02*
X183633482Y-99134838D01*
X184204911Y-100087219D02*
X184109673Y-100039600D01*
X184109673Y-100039600D02*
X184062054Y-99991980D01*
X184062054Y-99991980D02*
X184014435Y-99896742D01*
X184014435Y-99896742D02*
X184014435Y-99611028D01*
X184014435Y-99611028D02*
X184062054Y-99515790D01*
X184062054Y-99515790D02*
X184109673Y-99468171D01*
X184109673Y-99468171D02*
X184204911Y-99420552D01*
X184204911Y-99420552D02*
X184347768Y-99420552D01*
X184347768Y-99420552D02*
X184443006Y-99468171D01*
X184443006Y-99468171D02*
X184490625Y-99515790D01*
X184490625Y-99515790D02*
X184538244Y-99611028D01*
X184538244Y-99611028D02*
X184538244Y-99896742D01*
X184538244Y-99896742D02*
X184490625Y-99991980D01*
X184490625Y-99991980D02*
X184443006Y-100039600D01*
X184443006Y-100039600D02*
X184347768Y-100087219D01*
X184347768Y-100087219D02*
X184204911Y-100087219D01*
X185109673Y-100087219D02*
X185014435Y-100039600D01*
X185014435Y-100039600D02*
X184966816Y-99944361D01*
X184966816Y-99944361D02*
X184966816Y-99087219D01*
X185919197Y-100087219D02*
X185919197Y-99563409D01*
X185919197Y-99563409D02*
X185871578Y-99468171D01*
X185871578Y-99468171D02*
X185776340Y-99420552D01*
X185776340Y-99420552D02*
X185585864Y-99420552D01*
X185585864Y-99420552D02*
X185490626Y-99468171D01*
X185919197Y-100039600D02*
X185823959Y-100087219D01*
X185823959Y-100087219D02*
X185585864Y-100087219D01*
X185585864Y-100087219D02*
X185490626Y-100039600D01*
X185490626Y-100039600D02*
X185443007Y-99944361D01*
X185443007Y-99944361D02*
X185443007Y-99849123D01*
X185443007Y-99849123D02*
X185490626Y-99753885D01*
X185490626Y-99753885D02*
X185585864Y-99706266D01*
X185585864Y-99706266D02*
X185823959Y-99706266D01*
X185823959Y-99706266D02*
X185919197Y-99658647D01*
X186395388Y-100087219D02*
X186395388Y-99420552D01*
X186395388Y-99611028D02*
X186443007Y-99515790D01*
X186443007Y-99515790D02*
X186490626Y-99468171D01*
X186490626Y-99468171D02*
X186585864Y-99420552D01*
X186585864Y-99420552D02*
X186681102Y-99420552D01*
X187776341Y-100087219D02*
X187776341Y-99087219D01*
X188252531Y-99420552D02*
X188252531Y-100087219D01*
X188252531Y-99515790D02*
X188300150Y-99468171D01*
X188300150Y-99468171D02*
X188395388Y-99420552D01*
X188395388Y-99420552D02*
X188538245Y-99420552D01*
X188538245Y-99420552D02*
X188633483Y-99468171D01*
X188633483Y-99468171D02*
X188681102Y-99563409D01*
X188681102Y-99563409D02*
X188681102Y-100087219D01*
X191017219Y-83570326D02*
X190017219Y-83570326D01*
X190017219Y-83570326D02*
X190731504Y-83236993D01*
X190731504Y-83236993D02*
X190017219Y-82903660D01*
X190017219Y-82903660D02*
X191017219Y-82903660D01*
X190731504Y-82475088D02*
X190731504Y-81998898D01*
X191017219Y-82570326D02*
X190017219Y-82236993D01*
X190017219Y-82236993D02*
X191017219Y-81903660D01*
X190017219Y-81665564D02*
X191017219Y-80998898D01*
X190017219Y-80998898D02*
X191017219Y-81665564D01*
X191017219Y-79332231D02*
X191017219Y-79903659D01*
X191017219Y-79617945D02*
X190017219Y-79617945D01*
X190017219Y-79617945D02*
X190160076Y-79713183D01*
X190160076Y-79713183D02*
X190255314Y-79808421D01*
X190255314Y-79808421D02*
X190302933Y-79903659D01*
X190112457Y-78951278D02*
X190064838Y-78903659D01*
X190064838Y-78903659D02*
X190017219Y-78808421D01*
X190017219Y-78808421D02*
X190017219Y-78570326D01*
X190017219Y-78570326D02*
X190064838Y-78475088D01*
X190064838Y-78475088D02*
X190112457Y-78427469D01*
X190112457Y-78427469D02*
X190207695Y-78379850D01*
X190207695Y-78379850D02*
X190302933Y-78379850D01*
X190302933Y-78379850D02*
X190445790Y-78427469D01*
X190445790Y-78427469D02*
X191017219Y-78998897D01*
X191017219Y-78998897D02*
X191017219Y-78379850D01*
X190017219Y-78094135D02*
X191017219Y-77760802D01*
X191017219Y-77760802D02*
X190017219Y-77427469D01*
D10*
X184898464Y-104858073D02*
X184148464Y-104858073D01*
X184148464Y-104858073D02*
X184148464Y-104572359D01*
X184148464Y-104572359D02*
X184184178Y-104500930D01*
X184184178Y-104500930D02*
X184219892Y-104465216D01*
X184219892Y-104465216D02*
X184291321Y-104429502D01*
X184291321Y-104429502D02*
X184398464Y-104429502D01*
X184398464Y-104429502D02*
X184469892Y-104465216D01*
X184469892Y-104465216D02*
X184505607Y-104500930D01*
X184505607Y-104500930D02*
X184541321Y-104572359D01*
X184541321Y-104572359D02*
X184541321Y-104858073D01*
X184184178Y-103715216D02*
X184148464Y-103786645D01*
X184148464Y-103786645D02*
X184148464Y-103893787D01*
X184148464Y-103893787D02*
X184184178Y-104000930D01*
X184184178Y-104000930D02*
X184255607Y-104072359D01*
X184255607Y-104072359D02*
X184327035Y-104108073D01*
X184327035Y-104108073D02*
X184469892Y-104143787D01*
X184469892Y-104143787D02*
X184577035Y-104143787D01*
X184577035Y-104143787D02*
X184719892Y-104108073D01*
X184719892Y-104108073D02*
X184791321Y-104072359D01*
X184791321Y-104072359D02*
X184862750Y-104000930D01*
X184862750Y-104000930D02*
X184898464Y-103893787D01*
X184898464Y-103893787D02*
X184898464Y-103822359D01*
X184898464Y-103822359D02*
X184862750Y-103715216D01*
X184862750Y-103715216D02*
X184827035Y-103679502D01*
X184827035Y-103679502D02*
X184577035Y-103679502D01*
X184577035Y-103679502D02*
X184577035Y-103822359D01*
X184898464Y-103358073D02*
X184148464Y-103358073D01*
X184148464Y-103358073D02*
X184148464Y-103179502D01*
X184148464Y-103179502D02*
X184184178Y-103072359D01*
X184184178Y-103072359D02*
X184255607Y-103000930D01*
X184255607Y-103000930D02*
X184327035Y-102965216D01*
X184327035Y-102965216D02*
X184469892Y-102929502D01*
X184469892Y-102929502D02*
X184577035Y-102929502D01*
X184577035Y-102929502D02*
X184719892Y-102965216D01*
X184719892Y-102965216D02*
X184791321Y-103000930D01*
X184791321Y-103000930D02*
X184862750Y-103072359D01*
X184862750Y-103072359D02*
X184898464Y-103179502D01*
X184898464Y-103179502D02*
X184898464Y-103358073D01*
D13*
X141707733Y-95436441D02*
X141707733Y-93912632D01*
D14*
X134747565Y-98929783D02*
X134414231Y-98929783D01*
X134414231Y-98929783D02*
X134414231Y-98229783D01*
X134980898Y-98929783D02*
X134980898Y-98463116D01*
X134980898Y-98229783D02*
X134947565Y-98263116D01*
X134947565Y-98263116D02*
X134980898Y-98296450D01*
X134980898Y-98296450D02*
X135014232Y-98263116D01*
X135014232Y-98263116D02*
X134980898Y-98229783D01*
X134980898Y-98229783D02*
X134980898Y-98296450D01*
X135314231Y-98663116D02*
X135847565Y-98663116D01*
X136180898Y-98929783D02*
X136180898Y-98229783D01*
X136614231Y-98929783D02*
X136547565Y-98896450D01*
X136547565Y-98896450D02*
X136514231Y-98863116D01*
X136514231Y-98863116D02*
X136480898Y-98796450D01*
X136480898Y-98796450D02*
X136480898Y-98596450D01*
X136480898Y-98596450D02*
X136514231Y-98529783D01*
X136514231Y-98529783D02*
X136547565Y-98496450D01*
X136547565Y-98496450D02*
X136614231Y-98463116D01*
X136614231Y-98463116D02*
X136714231Y-98463116D01*
X136714231Y-98463116D02*
X136780898Y-98496450D01*
X136780898Y-98496450D02*
X136814231Y-98529783D01*
X136814231Y-98529783D02*
X136847565Y-98596450D01*
X136847565Y-98596450D02*
X136847565Y-98796450D01*
X136847565Y-98796450D02*
X136814231Y-98863116D01*
X136814231Y-98863116D02*
X136780898Y-98896450D01*
X136780898Y-98896450D02*
X136714231Y-98929783D01*
X136714231Y-98929783D02*
X136614231Y-98929783D01*
X137147564Y-98463116D02*
X137147564Y-98929783D01*
X137147564Y-98529783D02*
X137180898Y-98496450D01*
X137180898Y-98496450D02*
X137247564Y-98463116D01*
X137247564Y-98463116D02*
X137347564Y-98463116D01*
X137347564Y-98463116D02*
X137414231Y-98496450D01*
X137414231Y-98496450D02*
X137447564Y-98563116D01*
X137447564Y-98563116D02*
X137447564Y-98929783D01*
X138514230Y-99196450D02*
X138480897Y-99163116D01*
X138480897Y-99163116D02*
X138414230Y-99063116D01*
X138414230Y-99063116D02*
X138380897Y-98996450D01*
X138380897Y-98996450D02*
X138347564Y-98896450D01*
X138347564Y-98896450D02*
X138314230Y-98729783D01*
X138314230Y-98729783D02*
X138314230Y-98596450D01*
X138314230Y-98596450D02*
X138347564Y-98429783D01*
X138347564Y-98429783D02*
X138380897Y-98329783D01*
X138380897Y-98329783D02*
X138414230Y-98263116D01*
X138414230Y-98263116D02*
X138480897Y-98163116D01*
X138480897Y-98163116D02*
X138514230Y-98129783D01*
X138714231Y-98229783D02*
X139147564Y-98229783D01*
X139147564Y-98229783D02*
X138914231Y-98496450D01*
X138914231Y-98496450D02*
X139014231Y-98496450D01*
X139014231Y-98496450D02*
X139080897Y-98529783D01*
X139080897Y-98529783D02*
X139114231Y-98563116D01*
X139114231Y-98563116D02*
X139147564Y-98629783D01*
X139147564Y-98629783D02*
X139147564Y-98796450D01*
X139147564Y-98796450D02*
X139114231Y-98863116D01*
X139114231Y-98863116D02*
X139080897Y-98896450D01*
X139080897Y-98896450D02*
X139014231Y-98929783D01*
X139014231Y-98929783D02*
X138814231Y-98929783D01*
X138814231Y-98929783D02*
X138747564Y-98896450D01*
X138747564Y-98896450D02*
X138714231Y-98863116D01*
X139447564Y-98863116D02*
X139480898Y-98896450D01*
X139480898Y-98896450D02*
X139447564Y-98929783D01*
X139447564Y-98929783D02*
X139414231Y-98896450D01*
X139414231Y-98896450D02*
X139447564Y-98863116D01*
X139447564Y-98863116D02*
X139447564Y-98929783D01*
X139714231Y-98229783D02*
X140180897Y-98229783D01*
X140180897Y-98229783D02*
X139880897Y-98929783D01*
X140380898Y-98463116D02*
X140547564Y-98929783D01*
X140547564Y-98929783D02*
X140714231Y-98463116D01*
X140914231Y-99196450D02*
X140947564Y-99163116D01*
X140947564Y-99163116D02*
X141014231Y-99063116D01*
X141014231Y-99063116D02*
X141047564Y-98996450D01*
X141047564Y-98996450D02*
X141080897Y-98896450D01*
X141080897Y-98896450D02*
X141114231Y-98729783D01*
X141114231Y-98729783D02*
X141114231Y-98596450D01*
X141114231Y-98596450D02*
X141080897Y-98429783D01*
X141080897Y-98429783D02*
X141047564Y-98329783D01*
X141047564Y-98329783D02*
X141014231Y-98263116D01*
X141014231Y-98263116D02*
X140947564Y-98163116D01*
X140947564Y-98163116D02*
X140914231Y-98129783D01*
D11*
X140419133Y-103467544D02*
X140419133Y-103067544D01*
X141119133Y-103267544D02*
X140419133Y-103267544D01*
X141119133Y-102834211D02*
X140419133Y-102834211D01*
X140752466Y-102834211D02*
X140752466Y-102434211D01*
X141119133Y-102434211D02*
X140419133Y-102434211D01*
X140752466Y-102100878D02*
X140752466Y-101867545D01*
X141119133Y-101767545D02*
X141119133Y-102100878D01*
X141119133Y-102100878D02*
X140419133Y-102100878D01*
X140419133Y-102100878D02*
X140419133Y-101767545D01*
X141119133Y-101067545D02*
X140785800Y-101300878D01*
X141119133Y-101467545D02*
X140419133Y-101467545D01*
X140419133Y-101467545D02*
X140419133Y-101200878D01*
X140419133Y-101200878D02*
X140452466Y-101134212D01*
X140452466Y-101134212D02*
X140485800Y-101100878D01*
X140485800Y-101100878D02*
X140552466Y-101067545D01*
X140552466Y-101067545D02*
X140652466Y-101067545D01*
X140652466Y-101067545D02*
X140719133Y-101100878D01*
X140719133Y-101100878D02*
X140752466Y-101134212D01*
X140752466Y-101134212D02*
X140785800Y-101200878D01*
X140785800Y-101200878D02*
X140785800Y-101467545D01*
X141119133Y-100767545D02*
X140419133Y-100767545D01*
X140419133Y-100767545D02*
X140919133Y-100534212D01*
X140919133Y-100534212D02*
X140419133Y-100300878D01*
X140419133Y-100300878D02*
X141119133Y-100300878D01*
D10*
X176178464Y-104218073D02*
X175428464Y-104218073D01*
X175428464Y-104218073D02*
X175428464Y-103932359D01*
X175428464Y-103932359D02*
X175464178Y-103860930D01*
X175464178Y-103860930D02*
X175499892Y-103825216D01*
X175499892Y-103825216D02*
X175571321Y-103789502D01*
X175571321Y-103789502D02*
X175678464Y-103789502D01*
X175678464Y-103789502D02*
X175749892Y-103825216D01*
X175749892Y-103825216D02*
X175785607Y-103860930D01*
X175785607Y-103860930D02*
X175821321Y-103932359D01*
X175821321Y-103932359D02*
X175821321Y-104218073D01*
X175428464Y-103539502D02*
X176178464Y-103360930D01*
X176178464Y-103360930D02*
X175642750Y-103218073D01*
X175642750Y-103218073D02*
X176178464Y-103075216D01*
X176178464Y-103075216D02*
X175428464Y-102896645D01*
X176178464Y-102182359D02*
X175821321Y-102432359D01*
X176178464Y-102610930D02*
X175428464Y-102610930D01*
X175428464Y-102610930D02*
X175428464Y-102325216D01*
X175428464Y-102325216D02*
X175464178Y-102253787D01*
X175464178Y-102253787D02*
X175499892Y-102218073D01*
X175499892Y-102218073D02*
X175571321Y-102182359D01*
X175571321Y-102182359D02*
X175678464Y-102182359D01*
X175678464Y-102182359D02*
X175749892Y-102218073D01*
X175749892Y-102218073D02*
X175785607Y-102253787D01*
X175785607Y-102253787D02*
X175821321Y-102325216D01*
X175821321Y-102325216D02*
X175821321Y-102610930D01*
D13*
X141709733Y-93259298D02*
X141709733Y-92192632D01*
X142243066Y-92725965D02*
X141176400Y-92725965D01*
D15*
%TO.C,G\u002A\u002A\u002A*%
G36*
X175591724Y-88929959D02*
G01*
X175628594Y-88929966D01*
X175662377Y-88929983D01*
X175693236Y-88930015D01*
X175721334Y-88930063D01*
X175746834Y-88930131D01*
X175769900Y-88930221D01*
X175790694Y-88930335D01*
X175809380Y-88930478D01*
X175826121Y-88930650D01*
X175841079Y-88930856D01*
X175854418Y-88931099D01*
X175866301Y-88931379D01*
X175876891Y-88931702D01*
X175886352Y-88932069D01*
X175894846Y-88932482D01*
X175902536Y-88932946D01*
X175909586Y-88933463D01*
X175916158Y-88934035D01*
X175922417Y-88934665D01*
X175928524Y-88935356D01*
X175931772Y-88935750D01*
X175958100Y-88940013D01*
X175981875Y-88946044D01*
X176003362Y-88953996D01*
X176022827Y-88964020D01*
X176040536Y-88976267D01*
X176056753Y-88990889D01*
X176071746Y-89008037D01*
X176081177Y-89020926D01*
X176094587Y-89043365D01*
X176105462Y-89067791D01*
X176113784Y-89094138D01*
X176119534Y-89122336D01*
X176122694Y-89152318D01*
X176123344Y-89177706D01*
X176123128Y-89187941D01*
X176122670Y-89198575D01*
X176122035Y-89208461D01*
X176121284Y-89216449D01*
X176121144Y-89217582D01*
X176116133Y-89246286D01*
X176108814Y-89272885D01*
X176099084Y-89297661D01*
X176086840Y-89320897D01*
X176079225Y-89332790D01*
X176071712Y-89342714D01*
X176062506Y-89353165D01*
X176052317Y-89363456D01*
X176041856Y-89372901D01*
X176031833Y-89380812D01*
X176024678Y-89385534D01*
X176010975Y-89392887D01*
X175996640Y-89399170D01*
X175981289Y-89404473D01*
X175964539Y-89408887D01*
X175946005Y-89412504D01*
X175925304Y-89415413D01*
X175902052Y-89417706D01*
X175883020Y-89419057D01*
X175877832Y-89419271D01*
X175869528Y-89419474D01*
X175858240Y-89419664D01*
X175844103Y-89419840D01*
X175827250Y-89420003D01*
X175807813Y-89420151D01*
X175785928Y-89420283D01*
X175761727Y-89420399D01*
X175735343Y-89420497D01*
X175706910Y-89420578D01*
X175676562Y-89420640D01*
X175644432Y-89420683D01*
X175610654Y-89420706D01*
X175591724Y-89420710D01*
X175327242Y-89420717D01*
X175327242Y-89367089D01*
X175327242Y-89313462D01*
X175621446Y-89313462D01*
X175659091Y-89313460D01*
X175693631Y-89313451D01*
X175725209Y-89313434D01*
X175753969Y-89313405D01*
X175780057Y-89313362D01*
X175803616Y-89313303D01*
X175824790Y-89313225D01*
X175843725Y-89313125D01*
X175860563Y-89313002D01*
X175875450Y-89312852D01*
X175888530Y-89312672D01*
X175899947Y-89312462D01*
X175909845Y-89312216D01*
X175918369Y-89311935D01*
X175925662Y-89311614D01*
X175931870Y-89311251D01*
X175937137Y-89310844D01*
X175941606Y-89310390D01*
X175945422Y-89309886D01*
X175948729Y-89309331D01*
X175951673Y-89308721D01*
X175954396Y-89308054D01*
X175956148Y-89307580D01*
X175970885Y-89301915D01*
X175985107Y-89293497D01*
X175998239Y-89282820D01*
X176009704Y-89270381D01*
X176018923Y-89256675D01*
X176021692Y-89251292D01*
X176029123Y-89232000D01*
X176034184Y-89210931D01*
X176036812Y-89188601D01*
X176036941Y-89165523D01*
X176034975Y-89145266D01*
X176033321Y-89134761D01*
X176031656Y-89126431D01*
X176029703Y-89119213D01*
X176027188Y-89112044D01*
X176024887Y-89106348D01*
X176016843Y-89090672D01*
X176006607Y-89076428D01*
X175994605Y-89064040D01*
X175981260Y-89053930D01*
X175966998Y-89046524D01*
X175963526Y-89045209D01*
X175960671Y-89044198D01*
X175958006Y-89043271D01*
X175955386Y-89042424D01*
X175952668Y-89041652D01*
X175949706Y-89040953D01*
X175946355Y-89040322D01*
X175942471Y-89039754D01*
X175937908Y-89039247D01*
X175932522Y-89038796D01*
X175926167Y-89038398D01*
X175918700Y-89038048D01*
X175909975Y-89037743D01*
X175899847Y-89037478D01*
X175888172Y-89037250D01*
X175874805Y-89037054D01*
X175859600Y-89036887D01*
X175842413Y-89036746D01*
X175823100Y-89036625D01*
X175801515Y-89036521D01*
X175777513Y-89036430D01*
X175750950Y-89036349D01*
X175721680Y-89036273D01*
X175689560Y-89036198D01*
X175654443Y-89036120D01*
X175625851Y-89036058D01*
X175327242Y-89035399D01*
X175327242Y-88982671D01*
X175327242Y-88929943D01*
X175591724Y-88929959D01*
G37*
G36*
X175754564Y-88277629D02*
G01*
X175762357Y-88277943D01*
X175799010Y-88280093D01*
X175832835Y-88283224D01*
X175864124Y-88287399D01*
X175893166Y-88292674D01*
X175920251Y-88299111D01*
X175945668Y-88306769D01*
X175969708Y-88315708D01*
X175990184Y-88324790D01*
X176016130Y-88338701D01*
X176039279Y-88354252D01*
X176059626Y-88371439D01*
X176077168Y-88390255D01*
X176091899Y-88410695D01*
X176103815Y-88432753D01*
X176112913Y-88456424D01*
X176119187Y-88481701D01*
X176121113Y-88493788D01*
X176122027Y-88502840D01*
X176122698Y-88513866D01*
X176123106Y-88525870D01*
X176123233Y-88537856D01*
X176123057Y-88548828D01*
X176122560Y-88557788D01*
X176122402Y-88559425D01*
X176118195Y-88584545D01*
X176111105Y-88609262D01*
X176101387Y-88632727D01*
X176099123Y-88637248D01*
X176086346Y-88658446D01*
X176070754Y-88678034D01*
X176052360Y-88696002D01*
X176031175Y-88712343D01*
X176007213Y-88727048D01*
X175980487Y-88740108D01*
X175951008Y-88751515D01*
X175918791Y-88761261D01*
X175913189Y-88762714D01*
X175884394Y-88769076D01*
X175853081Y-88774273D01*
X175819770Y-88778299D01*
X175784979Y-88781146D01*
X175749226Y-88782809D01*
X175738644Y-88782947D01*
X175713032Y-88783280D01*
X175676914Y-88782554D01*
X175641392Y-88780623D01*
X175606984Y-88777481D01*
X175574210Y-88773120D01*
X175543589Y-88767536D01*
X175543147Y-88767442D01*
X175510558Y-88759550D01*
X175480770Y-88750254D01*
X175453613Y-88739473D01*
X175428921Y-88727126D01*
X175406525Y-88713132D01*
X175386256Y-88697410D01*
X175374130Y-88686214D01*
X175357421Y-88667815D01*
X175343556Y-88648340D01*
X175332362Y-88627457D01*
X175323667Y-88604838D01*
X175317301Y-88580152D01*
X175316319Y-88575083D01*
X175314976Y-88565169D01*
X175314062Y-88552918D01*
X175313576Y-88539219D01*
X175313573Y-88538558D01*
X175397536Y-88538558D01*
X175400347Y-88556641D01*
X175406097Y-88574319D01*
X175408917Y-88580551D01*
X175417658Y-88594894D01*
X175429326Y-88608337D01*
X175443671Y-88620676D01*
X175460445Y-88631706D01*
X175479400Y-88641224D01*
X175486425Y-88644130D01*
X175506628Y-88651340D01*
X175528014Y-88657538D01*
X175550867Y-88662767D01*
X175575475Y-88667070D01*
X175602123Y-88670491D01*
X175631099Y-88673073D01*
X175662688Y-88674860D01*
X175695323Y-88675859D01*
X175738644Y-88676078D01*
X175779014Y-88674955D01*
X175816442Y-88672490D01*
X175850939Y-88668679D01*
X175882516Y-88663520D01*
X175911182Y-88657009D01*
X175936949Y-88649143D01*
X175959827Y-88639921D01*
X175979826Y-88629340D01*
X175996956Y-88617395D01*
X176011228Y-88604086D01*
X176022653Y-88589409D01*
X176023192Y-88588572D01*
X176029923Y-88576412D01*
X176034584Y-88563964D01*
X176037362Y-88550470D01*
X176038445Y-88535173D01*
X176038416Y-88526923D01*
X176038084Y-88517387D01*
X176037494Y-88510079D01*
X176036497Y-88503976D01*
X176034942Y-88498059D01*
X176033551Y-88493799D01*
X176026673Y-88477915D01*
X176017364Y-88463357D01*
X176005565Y-88450101D01*
X175991217Y-88438121D01*
X175974261Y-88427392D01*
X175954638Y-88417888D01*
X175932288Y-88409585D01*
X175907153Y-88402456D01*
X175879173Y-88396477D01*
X175848291Y-88391623D01*
X175814446Y-88387868D01*
X175780640Y-88385361D01*
X175767561Y-88384785D01*
X175752097Y-88384418D01*
X175734869Y-88384252D01*
X175716499Y-88384277D01*
X175697609Y-88384482D01*
X175678821Y-88384859D01*
X175660757Y-88385396D01*
X175644039Y-88386085D01*
X175629288Y-88386916D01*
X175617126Y-88387879D01*
X175616507Y-88387940D01*
X175583227Y-88391910D01*
X175552933Y-88396974D01*
X175525542Y-88403164D01*
X175500969Y-88410508D01*
X175479130Y-88419036D01*
X175459940Y-88428779D01*
X175443315Y-88439765D01*
X175429170Y-88452026D01*
X175425731Y-88455597D01*
X175414631Y-88469906D01*
X175406210Y-88485743D01*
X175400519Y-88502722D01*
X175397610Y-88520456D01*
X175397536Y-88538558D01*
X175313573Y-88538558D01*
X175313518Y-88524956D01*
X175313889Y-88511018D01*
X175314688Y-88498289D01*
X175315914Y-88487657D01*
X175316319Y-88485263D01*
X175322627Y-88459290D01*
X175331669Y-88435053D01*
X175343447Y-88412550D01*
X175357965Y-88391777D01*
X175375226Y-88372733D01*
X175395234Y-88355414D01*
X175417991Y-88339816D01*
X175443501Y-88325937D01*
X175471767Y-88313775D01*
X175502793Y-88303325D01*
X175526064Y-88297050D01*
X175559324Y-88289982D01*
X175595072Y-88284401D01*
X175632889Y-88280341D01*
X175672356Y-88277837D01*
X175713054Y-88276922D01*
X175754564Y-88277629D01*
G37*
G36*
X175738566Y-87631929D02*
G01*
X175767639Y-87632980D01*
X175804701Y-87635432D01*
X175838935Y-87638910D01*
X175870618Y-87643477D01*
X175900026Y-87649194D01*
X175927435Y-87656121D01*
X175953122Y-87664322D01*
X175977362Y-87673856D01*
X176000432Y-87684787D01*
X176000512Y-87684828D01*
X176025256Y-87699169D01*
X176047235Y-87715218D01*
X176066451Y-87732976D01*
X176082906Y-87752448D01*
X176096603Y-87773635D01*
X176107544Y-87796541D01*
X176115731Y-87821169D01*
X176118886Y-87834581D01*
X176120253Y-87843324D01*
X176121371Y-87854454D01*
X176122210Y-87867116D01*
X176122742Y-87880455D01*
X176122938Y-87893616D01*
X176122771Y-87905744D01*
X176122212Y-87915984D01*
X176121735Y-87920437D01*
X176116680Y-87946752D01*
X176108834Y-87971408D01*
X176098208Y-87994398D01*
X176084809Y-88015716D01*
X176068648Y-88035353D01*
X176049733Y-88053302D01*
X176028074Y-88069556D01*
X176003681Y-88084107D01*
X175976561Y-88096948D01*
X175946725Y-88108071D01*
X175914182Y-88117470D01*
X175878942Y-88125136D01*
X175862841Y-88127917D01*
X175829799Y-88132361D01*
X175794526Y-88135551D01*
X175757742Y-88137489D01*
X175720162Y-88138177D01*
X175718887Y-88138158D01*
X175682507Y-88137617D01*
X175645492Y-88135812D01*
X175609838Y-88132764D01*
X175576260Y-88128475D01*
X175566942Y-88126987D01*
X175531462Y-88119934D01*
X175498551Y-88111107D01*
X175468236Y-88100523D01*
X175440543Y-88088202D01*
X175415500Y-88074161D01*
X175393135Y-88058419D01*
X175373474Y-88040994D01*
X175356544Y-88021906D01*
X175342372Y-88001171D01*
X175330986Y-87978809D01*
X175324961Y-87963020D01*
X175320882Y-87949898D01*
X175317847Y-87937720D01*
X175315727Y-87925615D01*
X175314397Y-87912713D01*
X175313728Y-87898143D01*
X175313622Y-87888439D01*
X175397317Y-87888439D01*
X175399325Y-87906957D01*
X175404416Y-87924965D01*
X175408739Y-87934960D01*
X175417923Y-87950143D01*
X175429920Y-87964007D01*
X175444745Y-87976557D01*
X175462415Y-87987798D01*
X175482945Y-87997735D01*
X175506353Y-88006373D01*
X175532655Y-88013717D01*
X175561866Y-88019772D01*
X175594003Y-88024543D01*
X175629082Y-88028035D01*
X175667120Y-88030253D01*
X175708132Y-88031203D01*
X175718887Y-88031242D01*
X175760294Y-88030624D01*
X175798722Y-88028761D01*
X175834201Y-88025644D01*
X175866758Y-88021260D01*
X175896422Y-88015599D01*
X175923221Y-88008650D01*
X175947185Y-88000401D01*
X175968341Y-87990843D01*
X175986718Y-87979964D01*
X176002344Y-87967752D01*
X176015249Y-87954197D01*
X176025461Y-87939289D01*
X176033007Y-87923015D01*
X176037242Y-87908580D01*
X176038177Y-87901974D01*
X176038667Y-87893252D01*
X176038723Y-87883515D01*
X176038357Y-87873866D01*
X176037583Y-87865405D01*
X176036697Y-87860316D01*
X176031113Y-87842860D01*
X176023031Y-87826927D01*
X176012379Y-87812465D01*
X175999088Y-87799419D01*
X175983085Y-87787738D01*
X175964302Y-87777369D01*
X175942666Y-87768259D01*
X175918106Y-87760355D01*
X175894395Y-87754439D01*
X175873818Y-87750322D01*
X175852369Y-87746916D01*
X175829604Y-87744175D01*
X175805075Y-87742056D01*
X175778339Y-87740516D01*
X175748950Y-87739510D01*
X175740825Y-87739330D01*
X175697640Y-87739114D01*
X175657393Y-87740238D01*
X175620061Y-87742706D01*
X175585619Y-87746521D01*
X175554043Y-87751688D01*
X175525309Y-87758211D01*
X175499392Y-87766093D01*
X175476268Y-87775338D01*
X175456985Y-87785318D01*
X175445369Y-87793141D01*
X175434125Y-87802576D01*
X175423937Y-87812932D01*
X175415486Y-87823521D01*
X175409764Y-87833014D01*
X175402540Y-87851149D01*
X175398390Y-87869731D01*
X175397317Y-87888439D01*
X175313622Y-87888439D01*
X175313585Y-87885017D01*
X175313824Y-87868535D01*
X175314625Y-87854402D01*
X175316116Y-87841748D01*
X175318424Y-87829701D01*
X175321676Y-87817389D01*
X175324959Y-87807013D01*
X175334443Y-87783669D01*
X175346745Y-87761930D01*
X175361851Y-87741811D01*
X175379745Y-87723327D01*
X175400411Y-87706493D01*
X175423833Y-87691324D01*
X175449996Y-87677833D01*
X175469379Y-87669613D01*
X175495939Y-87660389D01*
X175525198Y-87652372D01*
X175556817Y-87645603D01*
X175590462Y-87640123D01*
X175625796Y-87635975D01*
X175662482Y-87633199D01*
X175700184Y-87631837D01*
X175738566Y-87631929D01*
G37*
G36*
X175745322Y-86987588D02*
G01*
X175765007Y-86988040D01*
X175783124Y-86988745D01*
X175798987Y-86989705D01*
X175805016Y-86990202D01*
X175844166Y-86994601D01*
X175880472Y-87000439D01*
X175914024Y-87007748D01*
X175944907Y-87016558D01*
X175973208Y-87026902D01*
X175999016Y-87038813D01*
X176022418Y-87052322D01*
X176043500Y-87067460D01*
X176062350Y-87084261D01*
X176062694Y-87084604D01*
X176079704Y-87103621D01*
X176093824Y-87123919D01*
X176105135Y-87145667D01*
X176113719Y-87169035D01*
X176119657Y-87194194D01*
X176121742Y-87208171D01*
X176122666Y-87218930D01*
X176123165Y-87231730D01*
X176123240Y-87245390D01*
X176122893Y-87258735D01*
X176122127Y-87270585D01*
X176121625Y-87275280D01*
X176116844Y-87301262D01*
X176109231Y-87325670D01*
X176098806Y-87348488D01*
X176085590Y-87369699D01*
X176069604Y-87389284D01*
X176050869Y-87407228D01*
X176029405Y-87423512D01*
X176005234Y-87438120D01*
X175978377Y-87451033D01*
X175948854Y-87462235D01*
X175916686Y-87471708D01*
X175881895Y-87479435D01*
X175873238Y-87481014D01*
X175837986Y-87486236D01*
X175800479Y-87490021D01*
X175761384Y-87492358D01*
X175725654Y-87493141D01*
X175721368Y-87493235D01*
X175681096Y-87492640D01*
X175641237Y-87490561D01*
X175602455Y-87486987D01*
X175593755Y-87485952D01*
X175557891Y-87480447D01*
X175524160Y-87473137D01*
X175492649Y-87464067D01*
X175463445Y-87453286D01*
X175436637Y-87440839D01*
X175412310Y-87426775D01*
X175390552Y-87411139D01*
X175371451Y-87393980D01*
X175355094Y-87375344D01*
X175341568Y-87355278D01*
X175337489Y-87347868D01*
X175327005Y-87324196D01*
X175319387Y-87299079D01*
X175314663Y-87272663D01*
X175312864Y-87245094D01*
X175313117Y-87230656D01*
X175397608Y-87230656D01*
X175397635Y-87249634D01*
X175399693Y-87263824D01*
X175404551Y-87280733D01*
X175411896Y-87296283D01*
X175421781Y-87310507D01*
X175434266Y-87323434D01*
X175449405Y-87335094D01*
X175467255Y-87345520D01*
X175487873Y-87354740D01*
X175511315Y-87362787D01*
X175537637Y-87369690D01*
X175566897Y-87375480D01*
X175599151Y-87380188D01*
X175618132Y-87382322D01*
X175627957Y-87383112D01*
X175640461Y-87383789D01*
X175655143Y-87384350D01*
X175671502Y-87384793D01*
X175689041Y-87385116D01*
X175707258Y-87385316D01*
X175725654Y-87385392D01*
X175743730Y-87385340D01*
X175760985Y-87385159D01*
X175776919Y-87384847D01*
X175791034Y-87384400D01*
X175802830Y-87383817D01*
X175810704Y-87383208D01*
X175842472Y-87379606D01*
X175871251Y-87375298D01*
X175897240Y-87370230D01*
X175920632Y-87364346D01*
X175941625Y-87357594D01*
X175960414Y-87349918D01*
X175977195Y-87341265D01*
X175988650Y-87334054D01*
X175999847Y-87325258D01*
X176010423Y-87314848D01*
X176019705Y-87303603D01*
X176027017Y-87292304D01*
X176030070Y-87286084D01*
X176035035Y-87271047D01*
X176038041Y-87254486D01*
X176038988Y-87237506D01*
X176037777Y-87221214D01*
X176036493Y-87214366D01*
X176031022Y-87197088D01*
X176022822Y-87181219D01*
X176011860Y-87166736D01*
X175998105Y-87153620D01*
X175981523Y-87141849D01*
X175962083Y-87131402D01*
X175939751Y-87122258D01*
X175914496Y-87114396D01*
X175886285Y-87107796D01*
X175865970Y-87104110D01*
X175838334Y-87100280D01*
X175808335Y-87097338D01*
X175776606Y-87095283D01*
X175743778Y-87094115D01*
X175710484Y-87093835D01*
X175677355Y-87094440D01*
X175645022Y-87095931D01*
X175614118Y-87098307D01*
X175585275Y-87101568D01*
X175566942Y-87104327D01*
X175537798Y-87110127D01*
X175511288Y-87117249D01*
X175487475Y-87125664D01*
X175466425Y-87135338D01*
X175448203Y-87146241D01*
X175432874Y-87158340D01*
X175420502Y-87171605D01*
X175415994Y-87177829D01*
X175406843Y-87194460D01*
X175400696Y-87212166D01*
X175397608Y-87230656D01*
X175313117Y-87230656D01*
X175313141Y-87229297D01*
X175315574Y-87202198D01*
X175320327Y-87177236D01*
X175327500Y-87154176D01*
X175337188Y-87132783D01*
X175349492Y-87112822D01*
X175364507Y-87094060D01*
X175373454Y-87084665D01*
X175392042Y-87068046D01*
X175412755Y-87053063D01*
X175435695Y-87039679D01*
X175460965Y-87027857D01*
X175488669Y-87017558D01*
X175518908Y-87008746D01*
X175551787Y-87001382D01*
X175587408Y-86995430D01*
X175625873Y-86990851D01*
X175632757Y-86990202D01*
X175647424Y-86989132D01*
X175664644Y-86988316D01*
X175683731Y-86987753D01*
X175703997Y-86987444D01*
X175724756Y-86987389D01*
X175745322Y-86987588D01*
G37*
G36*
X175763578Y-86342871D02*
G01*
X175800839Y-86345113D01*
X175836789Y-86348686D01*
X175870835Y-86353588D01*
X175896020Y-86358406D01*
X175928809Y-86366614D01*
X175959285Y-86376601D01*
X175987369Y-86388313D01*
X176012982Y-86401699D01*
X176036047Y-86416707D01*
X176056485Y-86433285D01*
X176074216Y-86451380D01*
X176089162Y-86470941D01*
X176101246Y-86491915D01*
X176103077Y-86495763D01*
X176109800Y-86511725D01*
X176114929Y-86527298D01*
X176118632Y-86543276D01*
X176121074Y-86560450D01*
X176122424Y-86579614D01*
X176122718Y-86589015D01*
X176122841Y-86599335D01*
X176122787Y-86609354D01*
X176122573Y-86618283D01*
X176122215Y-86625331D01*
X176121874Y-86628830D01*
X176120719Y-86636093D01*
X176119161Y-86644558D01*
X176117712Y-86651581D01*
X176110647Y-86676349D01*
X176100782Y-86699489D01*
X176088134Y-86720993D01*
X176072723Y-86740853D01*
X176054565Y-86759058D01*
X176033680Y-86775600D01*
X176010084Y-86790471D01*
X175983797Y-86803660D01*
X175954837Y-86815160D01*
X175923222Y-86824961D01*
X175888969Y-86833055D01*
X175852097Y-86839432D01*
X175812624Y-86844084D01*
X175770569Y-86847001D01*
X175725949Y-86848175D01*
X175721125Y-86848190D01*
X175718074Y-86848200D01*
X175672772Y-86847329D01*
X175630091Y-86844717D01*
X175590049Y-86840369D01*
X175552666Y-86834289D01*
X175517962Y-86826481D01*
X175485955Y-86816948D01*
X175456665Y-86805695D01*
X175430112Y-86792725D01*
X175420634Y-86787282D01*
X175405057Y-86777298D01*
X175391402Y-86767061D01*
X175378425Y-86755595D01*
X175371530Y-86748821D01*
X175361447Y-86738075D01*
X175353136Y-86727853D01*
X175345852Y-86717104D01*
X175338845Y-86704775D01*
X175335315Y-86697896D01*
X175325986Y-86675788D01*
X175319134Y-86652077D01*
X175314757Y-86627251D01*
X175312995Y-86603684D01*
X175397509Y-86603684D01*
X175398687Y-86613718D01*
X175402995Y-86631477D01*
X175410000Y-86647833D01*
X175419735Y-86662807D01*
X175432232Y-86676417D01*
X175447523Y-86688683D01*
X175465638Y-86699624D01*
X175486610Y-86709258D01*
X175510472Y-86717605D01*
X175537254Y-86724685D01*
X175566988Y-86730516D01*
X175599706Y-86735118D01*
X175600256Y-86735182D01*
X175627730Y-86737816D01*
X175657565Y-86739682D01*
X175688962Y-86740779D01*
X175721125Y-86741109D01*
X175753255Y-86740670D01*
X175784554Y-86739462D01*
X175814226Y-86737486D01*
X175837517Y-86735208D01*
X175870464Y-86730582D01*
X175900458Y-86724603D01*
X175927503Y-86717269D01*
X175951603Y-86708577D01*
X175972762Y-86698525D01*
X175990983Y-86687110D01*
X176006270Y-86674330D01*
X176018628Y-86660180D01*
X176028059Y-86644661D01*
X176034569Y-86627767D01*
X176038159Y-86609497D01*
X176038938Y-86596023D01*
X176038690Y-86587382D01*
X176037947Y-86578486D01*
X176036851Y-86570872D01*
X176036506Y-86569209D01*
X176031210Y-86552907D01*
X176023049Y-86537165D01*
X176012407Y-86522545D01*
X175999669Y-86509610D01*
X175991071Y-86502813D01*
X175976327Y-86493622D01*
X175958799Y-86485010D01*
X175938929Y-86477153D01*
X175917158Y-86470227D01*
X175895208Y-86464689D01*
X175877002Y-86460909D01*
X175859005Y-86457746D01*
X175840746Y-86455160D01*
X175821756Y-86453108D01*
X175801564Y-86451551D01*
X175779701Y-86450447D01*
X175755697Y-86449755D01*
X175729082Y-86449435D01*
X175719699Y-86449404D01*
X175693248Y-86449510D01*
X175669533Y-86449933D01*
X175648053Y-86450713D01*
X175628306Y-86451888D01*
X175609791Y-86453497D01*
X175592005Y-86455578D01*
X175574447Y-86458171D01*
X175556615Y-86461314D01*
X175550745Y-86462447D01*
X175526437Y-86468040D01*
X175503528Y-86474926D01*
X175482429Y-86482940D01*
X175463552Y-86491921D01*
X175447309Y-86501705D01*
X175442031Y-86505509D01*
X175427738Y-86518329D01*
X175416036Y-86532960D01*
X175407044Y-86549107D01*
X175400880Y-86566474D01*
X175397662Y-86584765D01*
X175397509Y-86603684D01*
X175312995Y-86603684D01*
X175312854Y-86601800D01*
X175313422Y-86576212D01*
X175316460Y-86550975D01*
X175321966Y-86526580D01*
X175329938Y-86503514D01*
X175336095Y-86490142D01*
X175348900Y-86468611D01*
X175364497Y-86448716D01*
X175382860Y-86430475D01*
X175403960Y-86413903D01*
X175427773Y-86399017D01*
X175454272Y-86385834D01*
X175483430Y-86374372D01*
X175515221Y-86364646D01*
X175545704Y-86357464D01*
X175578371Y-86351686D01*
X175613288Y-86347248D01*
X175649860Y-86344149D01*
X175687495Y-86342388D01*
X175725599Y-86341962D01*
X175763578Y-86342871D01*
G37*
G36*
X175914050Y-85051451D02*
G01*
X175937576Y-85053576D01*
X175959359Y-85057523D01*
X175983440Y-85064512D01*
X176005408Y-85073814D01*
X176025623Y-85085633D01*
X176044447Y-85100176D01*
X176058972Y-85114146D01*
X176074477Y-85132281D01*
X176087673Y-85151773D01*
X176098672Y-85172881D01*
X176107584Y-85195868D01*
X176114522Y-85220995D01*
X176119596Y-85248522D01*
X176121110Y-85260107D01*
X176122328Y-85274030D01*
X176123048Y-85289991D01*
X176123269Y-85306924D01*
X176122992Y-85323760D01*
X176122217Y-85339434D01*
X176121064Y-85351926D01*
X176118651Y-85369286D01*
X176115775Y-85384648D01*
X176112166Y-85399259D01*
X176107550Y-85414364D01*
X176107303Y-85415111D01*
X176097488Y-85440029D01*
X176085344Y-85462880D01*
X176070981Y-85483546D01*
X176054510Y-85501911D01*
X176036044Y-85517858D01*
X176015691Y-85531270D01*
X175993564Y-85542030D01*
X175982962Y-85546009D01*
X175960129Y-85552417D01*
X175935741Y-85556682D01*
X175910480Y-85558799D01*
X175898425Y-85558783D01*
X175885030Y-85558766D01*
X175860073Y-85556577D01*
X175836292Y-85552228D01*
X175818016Y-85547004D01*
X175795735Y-85537729D01*
X175775048Y-85525668D01*
X175756176Y-85510960D01*
X175746438Y-85501573D01*
X175731837Y-85484669D01*
X175719611Y-85466638D01*
X175709440Y-85446919D01*
X175701003Y-85424950D01*
X175698909Y-85418323D01*
X175693304Y-85399813D01*
X175688825Y-85413448D01*
X175679527Y-85437043D01*
X175667890Y-85458517D01*
X175654036Y-85477763D01*
X175638089Y-85494673D01*
X175620170Y-85509138D01*
X175600402Y-85521051D01*
X175578908Y-85530304D01*
X175555811Y-85536790D01*
X175546628Y-85538508D01*
X175536507Y-85539639D01*
X175525502Y-85540158D01*
X175524211Y-85540219D01*
X175510764Y-85540259D01*
X175497192Y-85539772D01*
X175484519Y-85538770D01*
X175476097Y-85537667D01*
X175452501Y-85532269D01*
X175430287Y-85524001D01*
X175409591Y-85512994D01*
X175390546Y-85499378D01*
X175373287Y-85483284D01*
X175357949Y-85464842D01*
X175344666Y-85444184D01*
X175333572Y-85421440D01*
X175324802Y-85396741D01*
X175322466Y-85388279D01*
X175319098Y-85373737D01*
X175316607Y-85359352D01*
X175314907Y-85344320D01*
X175313910Y-85327838D01*
X175313530Y-85309104D01*
X175313521Y-85305202D01*
X175313533Y-85304390D01*
X175396432Y-85304390D01*
X175396502Y-85318150D01*
X175396900Y-85329362D01*
X175397757Y-85338720D01*
X175399204Y-85346922D01*
X175401370Y-85354661D01*
X175404386Y-85362635D01*
X175408383Y-85371538D01*
X175409435Y-85373749D01*
X175418548Y-85389427D01*
X175429743Y-85402728D01*
X175443067Y-85413678D01*
X175458565Y-85422299D01*
X175476281Y-85428615D01*
X175496261Y-85432649D01*
X175518549Y-85434426D01*
X175525502Y-85434522D01*
X175546106Y-85433733D01*
X175564237Y-85431270D01*
X175580281Y-85426998D01*
X175594627Y-85420783D01*
X175607664Y-85412490D01*
X175619779Y-85401985D01*
X175619981Y-85401785D01*
X175631025Y-85388890D01*
X175639799Y-85374294D01*
X175646438Y-85357703D01*
X175651078Y-85338819D01*
X175652307Y-85331249D01*
X175653233Y-85320614D01*
X175653417Y-85307922D01*
X175653045Y-85297756D01*
X175738498Y-85297756D01*
X175738654Y-85311061D01*
X175739337Y-85324448D01*
X175740506Y-85336996D01*
X175742123Y-85347783D01*
X175743279Y-85352979D01*
X175750073Y-85373262D01*
X175759189Y-85391271D01*
X175770618Y-85406998D01*
X175784349Y-85420433D01*
X175800373Y-85431566D01*
X175818681Y-85440389D01*
X175839262Y-85446892D01*
X175842107Y-85447567D01*
X175854064Y-85449660D01*
X175868145Y-85451093D01*
X175883287Y-85451833D01*
X175898425Y-85451846D01*
X175912494Y-85451100D01*
X175921601Y-85450037D01*
X175942031Y-85445851D01*
X175960093Y-85439824D01*
X175976231Y-85431744D01*
X175990891Y-85421401D01*
X176000768Y-85412445D01*
X176013237Y-85398253D01*
X176023183Y-85382874D01*
X176030799Y-85365900D01*
X176036277Y-85346926D01*
X176039036Y-85331579D01*
X176039753Y-85323372D01*
X176040018Y-85312931D01*
X176039866Y-85301235D01*
X176039334Y-85289262D01*
X176038457Y-85277991D01*
X176037271Y-85268401D01*
X176036581Y-85264575D01*
X176030778Y-85243758D01*
X176022540Y-85225062D01*
X176011923Y-85208549D01*
X175998982Y-85194277D01*
X175983775Y-85182307D01*
X175966359Y-85172697D01*
X175946788Y-85165507D01*
X175941332Y-85164036D01*
X175926298Y-85161077D01*
X175909529Y-85159162D01*
X175891927Y-85158299D01*
X175874398Y-85158496D01*
X175857844Y-85159763D01*
X175843168Y-85162108D01*
X175839142Y-85163055D01*
X175818720Y-85169834D01*
X175800387Y-85179076D01*
X175784231Y-85190679D01*
X175770341Y-85204545D01*
X175758805Y-85220574D01*
X175749710Y-85238666D01*
X175743146Y-85258723D01*
X175739924Y-85275073D01*
X175738908Y-85285453D01*
X175738498Y-85297756D01*
X175653045Y-85297756D01*
X175652918Y-85294267D01*
X175651796Y-85280739D01*
X175650112Y-85268433D01*
X175648381Y-85260124D01*
X175642210Y-85241420D01*
X175633863Y-85225085D01*
X175623305Y-85211092D01*
X175610501Y-85199413D01*
X175595416Y-85190019D01*
X175578015Y-85182883D01*
X175558263Y-85177976D01*
X175544190Y-85175972D01*
X175524940Y-85175007D01*
X175505212Y-85175980D01*
X175486395Y-85178800D01*
X175480686Y-85180105D01*
X175462079Y-85186169D01*
X175445797Y-85194474D01*
X175431782Y-85205078D01*
X175419975Y-85218039D01*
X175410318Y-85233414D01*
X175402753Y-85251260D01*
X175399948Y-85260361D01*
X175398710Y-85265285D01*
X175397801Y-85270215D01*
X175397170Y-85275781D01*
X175396766Y-85282616D01*
X175396539Y-85291351D01*
X175396439Y-85302617D01*
X175396432Y-85304390D01*
X175313533Y-85304390D01*
X175313812Y-85285447D01*
X175314743Y-85268112D01*
X175316405Y-85252417D01*
X175318883Y-85237580D01*
X175322268Y-85222818D01*
X175323259Y-85219073D01*
X175331573Y-85193739D01*
X175342201Y-85170346D01*
X175355032Y-85149040D01*
X175369955Y-85129969D01*
X175386857Y-85113276D01*
X175405627Y-85099110D01*
X175422309Y-85089492D01*
X175432123Y-85085145D01*
X175443905Y-85080850D01*
X175456393Y-85077013D01*
X175468323Y-85074039D01*
X175473499Y-85073035D01*
X175500254Y-85069810D01*
X175525801Y-85069483D01*
X175550062Y-85072039D01*
X175572961Y-85077466D01*
X175594419Y-85085750D01*
X175614360Y-85096878D01*
X175615229Y-85097451D01*
X175633873Y-85111767D01*
X175650532Y-85128565D01*
X175665060Y-85147646D01*
X175677308Y-85168812D01*
X175687131Y-85191863D01*
X175688873Y-85196927D01*
X175693365Y-85210533D01*
X175697091Y-85197628D01*
X175705926Y-85171797D01*
X175716795Y-85148496D01*
X175729718Y-85127703D01*
X175744712Y-85109398D01*
X175761798Y-85093561D01*
X175780994Y-85080170D01*
X175802321Y-85069205D01*
X175822670Y-85061607D01*
X175843481Y-85056319D01*
X175866190Y-85052847D01*
X175889984Y-85051217D01*
X175914050Y-85051451D01*
G37*
G36*
X176107307Y-89517329D02*
G01*
X176107795Y-89518735D01*
X176108177Y-89521602D01*
X176108465Y-89526218D01*
X176108670Y-89532872D01*
X176108804Y-89541853D01*
X176108878Y-89553447D01*
X176108905Y-89567944D01*
X176108906Y-89571295D01*
X176108906Y-89626341D01*
X176007745Y-89654926D01*
X175906583Y-89683512D01*
X175906583Y-89820541D01*
X175906583Y-89957569D01*
X176001650Y-89983974D01*
X176018802Y-89988739D01*
X176035159Y-89993288D01*
X176050428Y-89997538D01*
X176064317Y-90001407D01*
X176076534Y-90004815D01*
X176086785Y-90007679D01*
X176094779Y-90009918D01*
X176100223Y-90011450D01*
X176102812Y-90012190D01*
X176108906Y-90014002D01*
X176108906Y-90068566D01*
X176108906Y-90123131D01*
X176105223Y-90122427D01*
X176103359Y-90121894D01*
X176098522Y-90120450D01*
X176090844Y-90118137D01*
X176080458Y-90114993D01*
X176067499Y-90111061D01*
X176052099Y-90106380D01*
X176034392Y-90100992D01*
X176014512Y-90094936D01*
X175992593Y-90088255D01*
X175968766Y-90080988D01*
X175943167Y-90073177D01*
X175915928Y-90064861D01*
X175887183Y-90056082D01*
X175857065Y-90046881D01*
X175825709Y-90037297D01*
X175817354Y-90034743D01*
X175793246Y-90027372D01*
X175759812Y-90017147D01*
X175725539Y-90006662D01*
X175714391Y-90003250D01*
X175327242Y-89884778D01*
X175327242Y-89820672D01*
X175424435Y-89820672D01*
X175426056Y-89821180D01*
X175430580Y-89822497D01*
X175437781Y-89824560D01*
X175447432Y-89827304D01*
X175459306Y-89830668D01*
X175473176Y-89834585D01*
X175488816Y-89838995D01*
X175505997Y-89843831D01*
X175524493Y-89849032D01*
X175544078Y-89854533D01*
X175564524Y-89860271D01*
X175585604Y-89866183D01*
X175607092Y-89872204D01*
X175628760Y-89878271D01*
X175650382Y-89884321D01*
X175671730Y-89890289D01*
X175692577Y-89896113D01*
X175712697Y-89901729D01*
X175731863Y-89907073D01*
X175749847Y-89912081D01*
X175766424Y-89916691D01*
X175781364Y-89920838D01*
X175794443Y-89924458D01*
X175805433Y-89927489D01*
X175814106Y-89929867D01*
X175816798Y-89930599D01*
X175817354Y-89930613D01*
X175817833Y-89930180D01*
X175818240Y-89929076D01*
X175818582Y-89927078D01*
X175818863Y-89923960D01*
X175819089Y-89919499D01*
X175819268Y-89913470D01*
X175819403Y-89905650D01*
X175819501Y-89895813D01*
X175819569Y-89883736D01*
X175819610Y-89869195D01*
X175819632Y-89851965D01*
X175819641Y-89831823D01*
X175819642Y-89820487D01*
X175819642Y-89709602D01*
X175815985Y-89710501D01*
X175811548Y-89711645D01*
X175804442Y-89713549D01*
X175794896Y-89716147D01*
X175783137Y-89719376D01*
X175769393Y-89723172D01*
X175753890Y-89727471D01*
X175736856Y-89732209D01*
X175718518Y-89737322D01*
X175699105Y-89742745D01*
X175678843Y-89748416D01*
X175657959Y-89754269D01*
X175636681Y-89760242D01*
X175615237Y-89766270D01*
X175593854Y-89772288D01*
X175572759Y-89778234D01*
X175552180Y-89784043D01*
X175532344Y-89789651D01*
X175513478Y-89794994D01*
X175495810Y-89800008D01*
X175479567Y-89804629D01*
X175464977Y-89808793D01*
X175452267Y-89812437D01*
X175441665Y-89815495D01*
X175433397Y-89817905D01*
X175427692Y-89819602D01*
X175424776Y-89820523D01*
X175424435Y-89820672D01*
X175327242Y-89820672D01*
X175327242Y-89820207D01*
X175327242Y-89755636D01*
X175332524Y-89754141D01*
X175334687Y-89753494D01*
X175339773Y-89751950D01*
X175347621Y-89749560D01*
X175358068Y-89746374D01*
X175370952Y-89742440D01*
X175386114Y-89737809D01*
X175403390Y-89732529D01*
X175422619Y-89726650D01*
X175443641Y-89720222D01*
X175466292Y-89713294D01*
X175490412Y-89705915D01*
X175515839Y-89698135D01*
X175542412Y-89690004D01*
X175569969Y-89681571D01*
X175598348Y-89672885D01*
X175627388Y-89663996D01*
X175656927Y-89654954D01*
X175686804Y-89645807D01*
X175716857Y-89636606D01*
X175746925Y-89627399D01*
X175776846Y-89618236D01*
X175806458Y-89609167D01*
X175835601Y-89600242D01*
X175864111Y-89591509D01*
X175891829Y-89583018D01*
X175918592Y-89574818D01*
X175944238Y-89566959D01*
X175968607Y-89559491D01*
X175991537Y-89552463D01*
X176012865Y-89545925D01*
X176032431Y-89539925D01*
X176050073Y-89534514D01*
X176065629Y-89529740D01*
X176078938Y-89525654D01*
X176089838Y-89522304D01*
X176098168Y-89519741D01*
X176103766Y-89518013D01*
X176106471Y-89517170D01*
X176106701Y-89517095D01*
X176107307Y-89517329D01*
G37*
G36*
X176063810Y-85699664D02*
G01*
X176108093Y-85700097D01*
X176108505Y-85915826D01*
X176108918Y-86131555D01*
X176064222Y-86131555D01*
X176019526Y-86131555D01*
X176019526Y-86049489D01*
X176019526Y-85967422D01*
X175721324Y-85967422D01*
X175690451Y-85967427D01*
X175660460Y-85967442D01*
X175631513Y-85967467D01*
X175603769Y-85967500D01*
X175577391Y-85967542D01*
X175552538Y-85967592D01*
X175529371Y-85967649D01*
X175508050Y-85967713D01*
X175488736Y-85967783D01*
X175471591Y-85967859D01*
X175456773Y-85967941D01*
X175444445Y-85968027D01*
X175434766Y-85968117D01*
X175427897Y-85968212D01*
X175423999Y-85968309D01*
X175423122Y-85968383D01*
X175423469Y-85970104D01*
X175424465Y-85974705D01*
X175426047Y-85981894D01*
X175428149Y-85991380D01*
X175430707Y-86002871D01*
X175433656Y-86016077D01*
X175436931Y-86030706D01*
X175440468Y-86046467D01*
X175442623Y-86056056D01*
X175446282Y-86072341D01*
X175449717Y-86087662D01*
X175452863Y-86101729D01*
X175455657Y-86114249D01*
X175458033Y-86124933D01*
X175459926Y-86133490D01*
X175461271Y-86139627D01*
X175462005Y-86143054D01*
X175462124Y-86143687D01*
X175460565Y-86143904D01*
X175456156Y-86144074D01*
X175449295Y-86144193D01*
X175440380Y-86144258D01*
X175429812Y-86144264D01*
X175417988Y-86144208D01*
X175413806Y-86144174D01*
X175365488Y-86143743D01*
X175346438Y-86057614D01*
X175327387Y-85971485D01*
X175327315Y-85916638D01*
X175327242Y-85861792D01*
X175673384Y-85861792D01*
X176019526Y-85861792D01*
X176019526Y-85780512D01*
X176019526Y-85699232D01*
X176063810Y-85699664D01*
G37*
G36*
X173848013Y-84866023D02*
G01*
X175090793Y-84866430D01*
X175091200Y-87560407D01*
X175091607Y-90254383D01*
X173848420Y-90254383D01*
X172605233Y-90254383D01*
X172605233Y-88038575D01*
X172605233Y-85822767D01*
X172714520Y-85823185D01*
X172823807Y-85823603D01*
X172824213Y-87929300D01*
X172824620Y-90034997D01*
X173847608Y-90034997D01*
X174870595Y-90034997D01*
X174870595Y-87560270D01*
X174870595Y-85085543D01*
X174298973Y-85084460D01*
X174248502Y-85084365D01*
X174195207Y-85084263D01*
X174139421Y-85084157D01*
X174081476Y-85084047D01*
X174021705Y-85083933D01*
X173960440Y-85083817D01*
X173898013Y-85083698D01*
X173834757Y-85083577D01*
X173771005Y-85083455D01*
X173707089Y-85083333D01*
X173643342Y-85083211D01*
X173580095Y-85083090D01*
X173517682Y-85082971D01*
X173456435Y-85082853D01*
X173396686Y-85082739D01*
X173338768Y-85082628D01*
X173283014Y-85082521D01*
X173229755Y-85082418D01*
X173179325Y-85082321D01*
X173166292Y-85082296D01*
X172605233Y-85081214D01*
X172605233Y-84973415D01*
X172605233Y-84865616D01*
X173848013Y-84866023D01*
G37*
G36*
X173889885Y-88810553D02*
G01*
X173909149Y-88810656D01*
X173927637Y-88810838D01*
X173944900Y-88811101D01*
X173960491Y-88811444D01*
X173973963Y-88811867D01*
X173984869Y-88812370D01*
X173988989Y-88812634D01*
X174038092Y-88816860D01*
X174084279Y-88822229D01*
X174127691Y-88828787D01*
X174168472Y-88836582D01*
X174206764Y-88845661D01*
X174242712Y-88856071D01*
X174276456Y-88867859D01*
X174308141Y-88881073D01*
X174337909Y-88895758D01*
X174365903Y-88911964D01*
X174392266Y-88929735D01*
X174417141Y-88949121D01*
X174425951Y-88956672D01*
X174433442Y-88963778D01*
X174442079Y-88972819D01*
X174451191Y-88983034D01*
X174460111Y-88993662D01*
X174468168Y-89003941D01*
X174471570Y-89008580D01*
X174488231Y-89034665D01*
X174502572Y-89062916D01*
X174514528Y-89093160D01*
X174524036Y-89125222D01*
X174531030Y-89158930D01*
X174533435Y-89175330D01*
X174534222Y-89183029D01*
X174534947Y-89193009D01*
X174535591Y-89204597D01*
X174536131Y-89217118D01*
X174536547Y-89229899D01*
X174536816Y-89242267D01*
X174536919Y-89253547D01*
X174536834Y-89263067D01*
X174536539Y-89270152D01*
X174536454Y-89271210D01*
X174533877Y-89295703D01*
X174530738Y-89317719D01*
X174526894Y-89338005D01*
X174522198Y-89357307D01*
X174516505Y-89376371D01*
X174515278Y-89380090D01*
X174503430Y-89410655D01*
X174488935Y-89439455D01*
X174471783Y-89466496D01*
X174451965Y-89491784D01*
X174429473Y-89515323D01*
X174404297Y-89537120D01*
X174376427Y-89557179D01*
X174345856Y-89575505D01*
X174312573Y-89592105D01*
X174276570Y-89606983D01*
X174237837Y-89620144D01*
X174196366Y-89631595D01*
X174152147Y-89641340D01*
X174105172Y-89649385D01*
X174055430Y-89655735D01*
X174042617Y-89657053D01*
X174010302Y-89659772D01*
X173975517Y-89661872D01*
X173938985Y-89663348D01*
X173901428Y-89664194D01*
X173863567Y-89664405D01*
X173860676Y-89664372D01*
X173826126Y-89663975D01*
X173789825Y-89662898D01*
X173755389Y-89661168D01*
X173732226Y-89659521D01*
X173680343Y-89654358D01*
X173631239Y-89647511D01*
X173584913Y-89638979D01*
X173541364Y-89628762D01*
X173500592Y-89616860D01*
X173462595Y-89603272D01*
X173427372Y-89587999D01*
X173394923Y-89571039D01*
X173365246Y-89552393D01*
X173342392Y-89535373D01*
X173334190Y-89528384D01*
X173324849Y-89519802D01*
X173314999Y-89510264D01*
X173305274Y-89500406D01*
X173296305Y-89490866D01*
X173288725Y-89482281D01*
X173284277Y-89476782D01*
X173267602Y-89452588D01*
X173252665Y-89426214D01*
X173239825Y-89398425D01*
X173229442Y-89369985D01*
X173222971Y-89346535D01*
X173217564Y-89318603D01*
X173213828Y-89288691D01*
X173211786Y-89257619D01*
X173211547Y-89234718D01*
X173352483Y-89234718D01*
X173352642Y-89249134D01*
X173353319Y-89262751D01*
X173354515Y-89274568D01*
X173355130Y-89278523D01*
X173360867Y-89302994D01*
X173369148Y-89325709D01*
X173380012Y-89346702D01*
X173393496Y-89366007D01*
X173409641Y-89383657D01*
X173428483Y-89399685D01*
X173450062Y-89414126D01*
X173474416Y-89427013D01*
X173501584Y-89438380D01*
X173531603Y-89448260D01*
X173556718Y-89454883D01*
X173586743Y-89461307D01*
X173619638Y-89466971D01*
X173655105Y-89471855D01*
X173692850Y-89475937D01*
X173732575Y-89479197D01*
X173773985Y-89481613D01*
X173816785Y-89483163D01*
X173860676Y-89483828D01*
X173905365Y-89483585D01*
X173945112Y-89482604D01*
X173988436Y-89480769D01*
X174028745Y-89478274D01*
X174066211Y-89475098D01*
X174101006Y-89471215D01*
X174133302Y-89466604D01*
X174163272Y-89461239D01*
X174191086Y-89455099D01*
X174216919Y-89448158D01*
X174232255Y-89443363D01*
X174261100Y-89432547D01*
X174287130Y-89420110D01*
X174310356Y-89406043D01*
X174330788Y-89390335D01*
X174348436Y-89372976D01*
X174363309Y-89353954D01*
X174375417Y-89333260D01*
X174384769Y-89310883D01*
X174391377Y-89286812D01*
X174394309Y-89269448D01*
X174395156Y-89260204D01*
X174395659Y-89248930D01*
X174395816Y-89236717D01*
X174395626Y-89224659D01*
X174395088Y-89213849D01*
X174394392Y-89206730D01*
X174389965Y-89182060D01*
X174383416Y-89159641D01*
X174374573Y-89139124D01*
X174363268Y-89120163D01*
X174349330Y-89102410D01*
X174337205Y-89089830D01*
X174321880Y-89076580D01*
X174304581Y-89064383D01*
X174285204Y-89053210D01*
X174263641Y-89043033D01*
X174239788Y-89033821D01*
X174213538Y-89025546D01*
X174184786Y-89018179D01*
X174153426Y-89011691D01*
X174119351Y-89006051D01*
X174082457Y-89001232D01*
X174042637Y-88997203D01*
X173999785Y-88993936D01*
X173986551Y-88993114D01*
X173975272Y-88992581D01*
X173961231Y-88992135D01*
X173944917Y-88991777D01*
X173926818Y-88991504D01*
X173907420Y-88991319D01*
X173887213Y-88991220D01*
X173866684Y-88991209D01*
X173846320Y-88991284D01*
X173826610Y-88991446D01*
X173808041Y-88991695D01*
X173791102Y-88992031D01*
X173776279Y-88992454D01*
X173764061Y-88992963D01*
X173761478Y-88993104D01*
X173718358Y-88996044D01*
X173678283Y-88999727D01*
X173641129Y-89004183D01*
X173606768Y-89009440D01*
X173575077Y-89015528D01*
X173545929Y-89022475D01*
X173519199Y-89030310D01*
X173494763Y-89039063D01*
X173472493Y-89048763D01*
X173452265Y-89059437D01*
X173438989Y-89067681D01*
X173428306Y-89075521D01*
X173416959Y-89085122D01*
X173405844Y-89095641D01*
X173395860Y-89106230D01*
X173388439Y-89115313D01*
X173377419Y-89132543D01*
X173368055Y-89152083D01*
X173360601Y-89173310D01*
X173355313Y-89195599D01*
X173355115Y-89196697D01*
X173353719Y-89207498D01*
X173352842Y-89220506D01*
X173352483Y-89234718D01*
X173211547Y-89234718D01*
X173211458Y-89226206D01*
X173212867Y-89195272D01*
X173216033Y-89165637D01*
X173217936Y-89153518D01*
X173225323Y-89119571D01*
X173235377Y-89087426D01*
X173248107Y-89057077D01*
X173263520Y-89028516D01*
X173281624Y-89001737D01*
X173302425Y-88976732D01*
X173325932Y-88953493D01*
X173352152Y-88932015D01*
X173381092Y-88912289D01*
X173412761Y-88894310D01*
X173447164Y-88878068D01*
X173484311Y-88863559D01*
X173524208Y-88850774D01*
X173543474Y-88845473D01*
X173570440Y-88838857D01*
X173598032Y-88832993D01*
X173626682Y-88827818D01*
X173656823Y-88823265D01*
X173688886Y-88819270D01*
X173723304Y-88815767D01*
X173760509Y-88812691D01*
X173761478Y-88812619D01*
X173770854Y-88812080D01*
X173783032Y-88811621D01*
X173797564Y-88811243D01*
X173814003Y-88810944D01*
X173831902Y-88810726D01*
X173850814Y-88810588D01*
X173870290Y-88810531D01*
X173889885Y-88810553D01*
G37*
G36*
X174188928Y-87770874D02*
G01*
X174223192Y-87773701D01*
X174256273Y-87778853D01*
X174276628Y-87783398D01*
X174307381Y-87792518D01*
X174335884Y-87803842D01*
X174362404Y-87817512D01*
X174387207Y-87833675D01*
X174410560Y-87852474D01*
X174420245Y-87861427D01*
X174441183Y-87883574D01*
X174459976Y-87907714D01*
X174476660Y-87933933D01*
X174491273Y-87962319D01*
X174503850Y-87992957D01*
X174514429Y-88025935D01*
X174523046Y-88061340D01*
X174529738Y-88099257D01*
X174533502Y-88129277D01*
X174534369Y-88139541D01*
X174535118Y-88152385D01*
X174535738Y-88167138D01*
X174536216Y-88183131D01*
X174536543Y-88199695D01*
X174536707Y-88216161D01*
X174536696Y-88231860D01*
X174536500Y-88246121D01*
X174536108Y-88258276D01*
X174535760Y-88264473D01*
X174530431Y-88317988D01*
X174521859Y-88371599D01*
X174510043Y-88425311D01*
X174494982Y-88479128D01*
X174476674Y-88533056D01*
X174469600Y-88551698D01*
X174460262Y-88575660D01*
X174367943Y-88575668D01*
X174350985Y-88575649D01*
X174335059Y-88575590D01*
X174320451Y-88575496D01*
X174307447Y-88575371D01*
X174296332Y-88575218D01*
X174287391Y-88575040D01*
X174280911Y-88574843D01*
X174277177Y-88574629D01*
X174276351Y-88574457D01*
X174277375Y-88572745D01*
X174279801Y-88568689D01*
X174283363Y-88562733D01*
X174287796Y-88555321D01*
X174292834Y-88546898D01*
X174293604Y-88545612D01*
X174300690Y-88533378D01*
X174308435Y-88519333D01*
X174316538Y-88504080D01*
X174324693Y-88488224D01*
X174332599Y-88472369D01*
X174339951Y-88457122D01*
X174346447Y-88443085D01*
X174351782Y-88430865D01*
X174354392Y-88424421D01*
X174367699Y-88387356D01*
X174378316Y-88351443D01*
X174386339Y-88316156D01*
X174391863Y-88280970D01*
X174394984Y-88245360D01*
X174395797Y-88208800D01*
X174395599Y-88197332D01*
X174393656Y-88163347D01*
X174389650Y-88131820D01*
X174383555Y-88102677D01*
X174375345Y-88075844D01*
X174364994Y-88051248D01*
X174352477Y-88028813D01*
X174337766Y-88008465D01*
X174324568Y-87993809D01*
X174306540Y-87977715D01*
X174286958Y-87964329D01*
X174265733Y-87953618D01*
X174242776Y-87945548D01*
X174217999Y-87940085D01*
X174191314Y-87937196D01*
X174173435Y-87936683D01*
X174149082Y-87937411D01*
X174127152Y-87939681D01*
X174107161Y-87943587D01*
X174088626Y-87949219D01*
X174072922Y-87955778D01*
X174055461Y-87965277D01*
X174039589Y-87976582D01*
X174025142Y-87989903D01*
X174011955Y-88005451D01*
X173999866Y-88023434D01*
X173988708Y-88044064D01*
X173978320Y-88067551D01*
X173971449Y-88085714D01*
X173969313Y-88091764D01*
X173967352Y-88097482D01*
X173965496Y-88103135D01*
X173963676Y-88108993D01*
X173961822Y-88115324D01*
X173959866Y-88122398D01*
X173957739Y-88130483D01*
X173955370Y-88139848D01*
X173952691Y-88150763D01*
X173949632Y-88163495D01*
X173946125Y-88178315D01*
X173942099Y-88195490D01*
X173937487Y-88215289D01*
X173932218Y-88237982D01*
X173932104Y-88238471D01*
X173927304Y-88258842D01*
X173922938Y-88276616D01*
X173918842Y-88292394D01*
X173914850Y-88306774D01*
X173910798Y-88320354D01*
X173906521Y-88333733D01*
X173902809Y-88344740D01*
X173889527Y-88380125D01*
X173875022Y-88412536D01*
X173859245Y-88442033D01*
X173842144Y-88468673D01*
X173823668Y-88492517D01*
X173803765Y-88513621D01*
X173782384Y-88532046D01*
X173759474Y-88547849D01*
X173734984Y-88561090D01*
X173708862Y-88571826D01*
X173702702Y-88573920D01*
X173683352Y-88579695D01*
X173664370Y-88584134D01*
X173645002Y-88587346D01*
X173624496Y-88589439D01*
X173602097Y-88590522D01*
X173585969Y-88590737D01*
X173549839Y-88589477D01*
X173515520Y-88585545D01*
X173482931Y-88578910D01*
X173451987Y-88569540D01*
X173422605Y-88557403D01*
X173394702Y-88542468D01*
X173368195Y-88524703D01*
X173343000Y-88504076D01*
X173333042Y-88494797D01*
X173309169Y-88469497D01*
X173287871Y-88442221D01*
X173269156Y-88412983D01*
X173253031Y-88381800D01*
X173239505Y-88348687D01*
X173228583Y-88313659D01*
X173220275Y-88276734D01*
X173216356Y-88252285D01*
X173212556Y-88214057D01*
X173211319Y-88174036D01*
X173212624Y-88132400D01*
X173216450Y-88089330D01*
X173222779Y-88045005D01*
X173231588Y-87999605D01*
X173242859Y-87953308D01*
X173254576Y-87912687D01*
X173257794Y-87902465D01*
X173261246Y-87891828D01*
X173264766Y-87881254D01*
X173268189Y-87871219D01*
X173271348Y-87862201D01*
X173274079Y-87854676D01*
X173276216Y-87849123D01*
X173277592Y-87846019D01*
X173277869Y-87845594D01*
X173279667Y-87845368D01*
X173284413Y-87845171D01*
X173291804Y-87845005D01*
X173301538Y-87844874D01*
X173313313Y-87844779D01*
X173326826Y-87844725D01*
X173341775Y-87844713D01*
X173357857Y-87844747D01*
X173366154Y-87844782D01*
X173453288Y-87845202D01*
X173443385Y-87861453D01*
X173420851Y-87901240D01*
X173401428Y-87941521D01*
X173385141Y-87982220D01*
X173372020Y-88023259D01*
X173362090Y-88064563D01*
X173355380Y-88106054D01*
X173355090Y-88108465D01*
X173353920Y-88121646D01*
X173353199Y-88136953D01*
X173352911Y-88153619D01*
X173353043Y-88170877D01*
X173353579Y-88187960D01*
X173354504Y-88204102D01*
X173355804Y-88218535D01*
X173357438Y-88230346D01*
X173363263Y-88258129D01*
X173370679Y-88283369D01*
X173379844Y-88306442D01*
X173390918Y-88327722D01*
X173404057Y-88347584D01*
X173410325Y-88355713D01*
X173426767Y-88373894D01*
X173444582Y-88389231D01*
X173463871Y-88401773D01*
X173484739Y-88411566D01*
X173507288Y-88418656D01*
X173531622Y-88423090D01*
X173557844Y-88424916D01*
X173563218Y-88424972D01*
X173588852Y-88423957D01*
X173612146Y-88420782D01*
X173633269Y-88415356D01*
X173652389Y-88407586D01*
X173669674Y-88397382D01*
X173685292Y-88384651D01*
X173699412Y-88369301D01*
X173712200Y-88351241D01*
X173718772Y-88340039D01*
X173725028Y-88327979D01*
X173731024Y-88314941D01*
X173736842Y-88300663D01*
X173742562Y-88284888D01*
X173748267Y-88267356D01*
X173754039Y-88247807D01*
X173759959Y-88225982D01*
X173766109Y-88201621D01*
X173772570Y-88174466D01*
X173776886Y-88155592D01*
X173783373Y-88127495D01*
X173789534Y-88102245D01*
X173795484Y-88079473D01*
X173801337Y-88058807D01*
X173807208Y-88039874D01*
X173813211Y-88022303D01*
X173819461Y-88005723D01*
X173826073Y-87989762D01*
X173832311Y-87975870D01*
X173848372Y-87944106D01*
X173865702Y-87915289D01*
X173884395Y-87889339D01*
X173904545Y-87866171D01*
X173926247Y-87845703D01*
X173949597Y-87827853D01*
X173974687Y-87812538D01*
X174001614Y-87799675D01*
X174030471Y-87789182D01*
X174053312Y-87782849D01*
X174085672Y-87776359D01*
X174119504Y-87772202D01*
X174154144Y-87770374D01*
X174188928Y-87770874D01*
G37*
G36*
X174513077Y-86805151D02*
G01*
X174513077Y-86892093D01*
X174208375Y-86892093D01*
X173903672Y-86892093D01*
X173903672Y-87128542D01*
X173903672Y-87364991D01*
X174208375Y-87364991D01*
X174513077Y-87364991D01*
X174513077Y-87451933D01*
X174513077Y-87538875D01*
X173873608Y-87538875D01*
X173234139Y-87538875D01*
X173234139Y-87451933D01*
X173234139Y-87364991D01*
X173495777Y-87364991D01*
X173757415Y-87364991D01*
X173757415Y-87128542D01*
X173757415Y-86892093D01*
X173495777Y-86892093D01*
X173234139Y-86892093D01*
X173234139Y-86805151D01*
X173234139Y-86718209D01*
X173873608Y-86718209D01*
X174513077Y-86718209D01*
X174513077Y-86805151D01*
G37*
G36*
X172288749Y-85254564D02*
G01*
X172290445Y-85254936D01*
X172295219Y-85255975D01*
X172302973Y-85257660D01*
X172313608Y-85259970D01*
X172327026Y-85262883D01*
X172343128Y-85266378D01*
X172361818Y-85270434D01*
X172382995Y-85275030D01*
X172406562Y-85280143D01*
X172432420Y-85285754D01*
X172460471Y-85291839D01*
X172490617Y-85298379D01*
X172522760Y-85305352D01*
X172556801Y-85312737D01*
X172592641Y-85320511D01*
X172630183Y-85328655D01*
X172669327Y-85337146D01*
X172709977Y-85345963D01*
X172752033Y-85355085D01*
X172795397Y-85364490D01*
X172839971Y-85374158D01*
X172885656Y-85384067D01*
X172932355Y-85394195D01*
X172979968Y-85404522D01*
X173028397Y-85415025D01*
X173077545Y-85425685D01*
X173127313Y-85436478D01*
X173177602Y-85447384D01*
X173228314Y-85458382D01*
X173279351Y-85469451D01*
X173330614Y-85480568D01*
X173382006Y-85491713D01*
X173433427Y-85502865D01*
X173484780Y-85514001D01*
X173535966Y-85525101D01*
X173586887Y-85536144D01*
X173637445Y-85547107D01*
X173687540Y-85557970D01*
X173737076Y-85568712D01*
X173785953Y-85579311D01*
X173834073Y-85589745D01*
X173881338Y-85599994D01*
X173927649Y-85610036D01*
X173972909Y-85619850D01*
X174017019Y-85629414D01*
X174059880Y-85638708D01*
X174101394Y-85647709D01*
X174141463Y-85656397D01*
X174179989Y-85664750D01*
X174216873Y-85672746D01*
X174252017Y-85680366D01*
X174285322Y-85687586D01*
X174316691Y-85694386D01*
X174346025Y-85700745D01*
X174373225Y-85706641D01*
X174398193Y-85712053D01*
X174420832Y-85716960D01*
X174441042Y-85721339D01*
X174458725Y-85725171D01*
X174473783Y-85728433D01*
X174486118Y-85731105D01*
X174495631Y-85733165D01*
X174502224Y-85734591D01*
X174505358Y-85735267D01*
X174513077Y-85736930D01*
X174513077Y-85818719D01*
X174513077Y-85900508D01*
X174498858Y-85903787D01*
X174495961Y-85904452D01*
X174490043Y-85905808D01*
X174481251Y-85907822D01*
X174469732Y-85910460D01*
X174455635Y-85913688D01*
X174439104Y-85917472D01*
X174420289Y-85921779D01*
X174399337Y-85926576D01*
X174376393Y-85931827D01*
X174351607Y-85937500D01*
X174325124Y-85943561D01*
X174297092Y-85949976D01*
X174267659Y-85956712D01*
X174236972Y-85963735D01*
X174205177Y-85971011D01*
X174172422Y-85978506D01*
X174138855Y-85986187D01*
X174120314Y-85990430D01*
X174086580Y-85998151D01*
X174053693Y-86005685D01*
X174021795Y-86012997D01*
X173991024Y-86020057D01*
X173961520Y-86026831D01*
X173933422Y-86033288D01*
X173906871Y-86039395D01*
X173882005Y-86045121D01*
X173858964Y-86050433D01*
X173837889Y-86055298D01*
X173818918Y-86059685D01*
X173802191Y-86063562D01*
X173787848Y-86066896D01*
X173776028Y-86069655D01*
X173766870Y-86071807D01*
X173760516Y-86073319D01*
X173757103Y-86074160D01*
X173756526Y-86074330D01*
X173758138Y-86074735D01*
X173762780Y-86075828D01*
X173770315Y-86077579D01*
X173780604Y-86079955D01*
X173793509Y-86082926D01*
X173808893Y-86086458D01*
X173826616Y-86090522D01*
X173846540Y-86095084D01*
X173868526Y-86100114D01*
X173892438Y-86105580D01*
X173918136Y-86111450D01*
X173945482Y-86117692D01*
X173974338Y-86124276D01*
X174004565Y-86131168D01*
X174036025Y-86138339D01*
X174068580Y-86145756D01*
X174102092Y-86153387D01*
X174131414Y-86160061D01*
X174165678Y-86167859D01*
X174199127Y-86175472D01*
X174231622Y-86182867D01*
X174263022Y-86190015D01*
X174293189Y-86196881D01*
X174321982Y-86203435D01*
X174349261Y-86209645D01*
X174374886Y-86215479D01*
X174398718Y-86220905D01*
X174420617Y-86225891D01*
X174440443Y-86230406D01*
X174458056Y-86234417D01*
X174473316Y-86237893D01*
X174486084Y-86240802D01*
X174496220Y-86243112D01*
X174503583Y-86244791D01*
X174508034Y-86245808D01*
X174509421Y-86246126D01*
X174513077Y-86246998D01*
X174513077Y-86328826D01*
X174513077Y-86410654D01*
X174506983Y-86411615D01*
X174503945Y-86412081D01*
X174497883Y-86412997D01*
X174488929Y-86414344D01*
X174477214Y-86416102D01*
X174462872Y-86418251D01*
X174446034Y-86420773D01*
X174426832Y-86423646D01*
X174405400Y-86426851D01*
X174381868Y-86430369D01*
X174356369Y-86434180D01*
X174329036Y-86438264D01*
X174300000Y-86442602D01*
X174269394Y-86447173D01*
X174237349Y-86451958D01*
X174203999Y-86456938D01*
X174169475Y-86462091D01*
X174133909Y-86467400D01*
X174097434Y-86472844D01*
X174060182Y-86478403D01*
X174022284Y-86484058D01*
X173983874Y-86489789D01*
X173945083Y-86495576D01*
X173906044Y-86501400D01*
X173866889Y-86507240D01*
X173827749Y-86513078D01*
X173788757Y-86518893D01*
X173750046Y-86524666D01*
X173711747Y-86530376D01*
X173673993Y-86536005D01*
X173636916Y-86541532D01*
X173600648Y-86546938D01*
X173565321Y-86552204D01*
X173531067Y-86557308D01*
X173498019Y-86562232D01*
X173466309Y-86566957D01*
X173436069Y-86571461D01*
X173407431Y-86575726D01*
X173380527Y-86579732D01*
X173355490Y-86583458D01*
X173332452Y-86586886D01*
X173311544Y-86589996D01*
X173292900Y-86592768D01*
X173276651Y-86595182D01*
X173262929Y-86597218D01*
X173251867Y-86598857D01*
X173243597Y-86600079D01*
X173238251Y-86600865D01*
X173235962Y-86601194D01*
X173235882Y-86601203D01*
X173235451Y-86599957D01*
X173235085Y-86596150D01*
X173234782Y-86589683D01*
X173234540Y-86580455D01*
X173234357Y-86568365D01*
X173234230Y-86553314D01*
X173234159Y-86535200D01*
X173234139Y-86516911D01*
X173234139Y-86432618D01*
X173241046Y-86431836D01*
X173250307Y-86430778D01*
X173262267Y-86429398D01*
X173276779Y-86427712D01*
X173293696Y-86425739D01*
X173312870Y-86423496D01*
X173334154Y-86421000D01*
X173357402Y-86418269D01*
X173382465Y-86415320D01*
X173409197Y-86412171D01*
X173437449Y-86408839D01*
X173467076Y-86405342D01*
X173497929Y-86401697D01*
X173529862Y-86397921D01*
X173562727Y-86394033D01*
X173596377Y-86390050D01*
X173630664Y-86385989D01*
X173665442Y-86381867D01*
X173700563Y-86377703D01*
X173735880Y-86373513D01*
X173771245Y-86369316D01*
X173806512Y-86365128D01*
X173841532Y-86360967D01*
X173876160Y-86356851D01*
X173910247Y-86352797D01*
X173943646Y-86348822D01*
X173976210Y-86344945D01*
X174007792Y-86341182D01*
X174038245Y-86337551D01*
X174067421Y-86334069D01*
X174095173Y-86330755D01*
X174121353Y-86327625D01*
X174145815Y-86324697D01*
X174168411Y-86321989D01*
X174188994Y-86319517D01*
X174207417Y-86317300D01*
X174223532Y-86315355D01*
X174237193Y-86313700D01*
X174248251Y-86312351D01*
X174256560Y-86311327D01*
X174261972Y-86310644D01*
X174264341Y-86310321D01*
X174264440Y-86310299D01*
X174262875Y-86309884D01*
X174258277Y-86308829D01*
X174250793Y-86307165D01*
X174240572Y-86304923D01*
X174227761Y-86302136D01*
X174212506Y-86298834D01*
X174194955Y-86295050D01*
X174175255Y-86290815D01*
X174153554Y-86286161D01*
X174130000Y-86281119D01*
X174104738Y-86275720D01*
X174077917Y-86269997D01*
X174049685Y-86263982D01*
X174020187Y-86257704D01*
X173989572Y-86251197D01*
X173957988Y-86244492D01*
X173932517Y-86239091D01*
X173900155Y-86232231D01*
X173868580Y-86225538D01*
X173837945Y-86219044D01*
X173808401Y-86212781D01*
X173780101Y-86206782D01*
X173753196Y-86201078D01*
X173727839Y-86195702D01*
X173704181Y-86190686D01*
X173682374Y-86186062D01*
X173662570Y-86181863D01*
X173644921Y-86178120D01*
X173629578Y-86174866D01*
X173616695Y-86172134D01*
X173606422Y-86169954D01*
X173598911Y-86168360D01*
X173594315Y-86167384D01*
X173592876Y-86167077D01*
X173585157Y-86165419D01*
X173585157Y-86074761D01*
X173585157Y-85984104D01*
X173592876Y-85982557D01*
X173598238Y-85981459D01*
X173606373Y-85979762D01*
X173617104Y-85977503D01*
X173630253Y-85974721D01*
X173645642Y-85971454D01*
X173663093Y-85967740D01*
X173682428Y-85963617D01*
X173703470Y-85959124D01*
X173726042Y-85954299D01*
X173749964Y-85949180D01*
X173775060Y-85943805D01*
X173801152Y-85938212D01*
X173828062Y-85932441D01*
X173855612Y-85926528D01*
X173883625Y-85920513D01*
X173911922Y-85914433D01*
X173940326Y-85908326D01*
X173968660Y-85902232D01*
X173996745Y-85896188D01*
X174024403Y-85890232D01*
X174051458Y-85884403D01*
X174077731Y-85878738D01*
X174103044Y-85873277D01*
X174127220Y-85868056D01*
X174150082Y-85863116D01*
X174171450Y-85858493D01*
X174191148Y-85854225D01*
X174208997Y-85850353D01*
X174224820Y-85846912D01*
X174238440Y-85843942D01*
X174249678Y-85841481D01*
X174258356Y-85839567D01*
X174264298Y-85838239D01*
X174267325Y-85837534D01*
X174267690Y-85837428D01*
X174266113Y-85837049D01*
X174261440Y-85836026D01*
X174253756Y-85834376D01*
X174243146Y-85832117D01*
X174229696Y-85829267D01*
X174213491Y-85825843D01*
X174194616Y-85821865D01*
X174173158Y-85817349D01*
X174149201Y-85812314D01*
X174122831Y-85806777D01*
X174094133Y-85800756D01*
X174063193Y-85794270D01*
X174030095Y-85787335D01*
X173994927Y-85779971D01*
X173957772Y-85772194D01*
X173918717Y-85764023D01*
X173877846Y-85755475D01*
X173835246Y-85746569D01*
X173791001Y-85737322D01*
X173745198Y-85727752D01*
X173697920Y-85717877D01*
X173649255Y-85707715D01*
X173599287Y-85697284D01*
X173548102Y-85686602D01*
X173495784Y-85675686D01*
X173442420Y-85664555D01*
X173388096Y-85653226D01*
X173332895Y-85641717D01*
X173278423Y-85630363D01*
X173222437Y-85618694D01*
X173167238Y-85607188D01*
X173112911Y-85595863D01*
X173059542Y-85584736D01*
X173007216Y-85573826D01*
X172956019Y-85563151D01*
X172906037Y-85552727D01*
X172857356Y-85542574D01*
X172810060Y-85532709D01*
X172764237Y-85523149D01*
X172719970Y-85513914D01*
X172677347Y-85505020D01*
X172636452Y-85496486D01*
X172597372Y-85488329D01*
X172560191Y-85480568D01*
X172524996Y-85473219D01*
X172491873Y-85466302D01*
X172460906Y-85459834D01*
X172432182Y-85453832D01*
X172405785Y-85448316D01*
X172381803Y-85443301D01*
X172360321Y-85438808D01*
X172341423Y-85434852D01*
X172325196Y-85431453D01*
X172311726Y-85428628D01*
X172301098Y-85426395D01*
X172293397Y-85424772D01*
X172288710Y-85423777D01*
X172287124Y-85423428D01*
X172286653Y-85422589D01*
X172286256Y-85420307D01*
X172285927Y-85416367D01*
X172285661Y-85410551D01*
X172285453Y-85402645D01*
X172285297Y-85392433D01*
X172285189Y-85379698D01*
X172285123Y-85364224D01*
X172285095Y-85345797D01*
X172285093Y-85338166D01*
X172285093Y-85253660D01*
X172288749Y-85254564D01*
G37*
G36*
X175730653Y-88461860D02*
G01*
X175744108Y-88466339D01*
X175756407Y-88473409D01*
X175767118Y-88482748D01*
X175775809Y-88494032D01*
X175782046Y-88506939D01*
X175783056Y-88509997D01*
X175784435Y-88516897D01*
X175785180Y-88525638D01*
X175785286Y-88535026D01*
X175784750Y-88543867D01*
X175783564Y-88550966D01*
X175783236Y-88552112D01*
X175777373Y-88565527D01*
X175769066Y-88577021D01*
X175758631Y-88586396D01*
X175746382Y-88593451D01*
X175732635Y-88597986D01*
X175717703Y-88599800D01*
X175708678Y-88599531D01*
X175695365Y-88596853D01*
X175682548Y-88591332D01*
X175670804Y-88583374D01*
X175660709Y-88573383D01*
X175652841Y-88561767D01*
X175651653Y-88559425D01*
X175649385Y-88554481D01*
X175647914Y-88550332D01*
X175647069Y-88546021D01*
X175646679Y-88540591D01*
X175646573Y-88533086D01*
X175646570Y-88530986D01*
X175646637Y-88522869D01*
X175646950Y-88517033D01*
X175647684Y-88512511D01*
X175649013Y-88508336D01*
X175651108Y-88503541D01*
X175651713Y-88502255D01*
X175659550Y-88489252D01*
X175669570Y-88478349D01*
X175681389Y-88469792D01*
X175694625Y-88463830D01*
X175708895Y-88460711D01*
X175716475Y-88460295D01*
X175730653Y-88461860D01*
G37*
G36*
X175727253Y-87816322D02*
G01*
X175740742Y-87819990D01*
X175753218Y-87826213D01*
X175764276Y-87834761D01*
X175773507Y-87845404D01*
X175780506Y-87857913D01*
X175783147Y-87865142D01*
X175784469Y-87871839D01*
X175785180Y-87880421D01*
X175785279Y-87889695D01*
X175784763Y-87898469D01*
X175783628Y-87905551D01*
X175783236Y-87906955D01*
X175777340Y-87920462D01*
X175768982Y-87932043D01*
X175758461Y-87941486D01*
X175746078Y-87948580D01*
X175732130Y-87953115D01*
X175716918Y-87954879D01*
X175715291Y-87954895D01*
X175700943Y-87953323D01*
X175687277Y-87948804D01*
X175674757Y-87941633D01*
X175663846Y-87932106D01*
X175655007Y-87920519D01*
X175651615Y-87914268D01*
X175649367Y-87909327D01*
X175647908Y-87905168D01*
X175647068Y-87900836D01*
X175646679Y-87895380D01*
X175646573Y-87887844D01*
X175646570Y-87885745D01*
X175646619Y-87877755D01*
X175646896Y-87872035D01*
X175647600Y-87867606D01*
X175648927Y-87863487D01*
X175651076Y-87858699D01*
X175652679Y-87855424D01*
X175660856Y-87842285D01*
X175671146Y-87831592D01*
X175683440Y-87823434D01*
X175697631Y-87817900D01*
X175698865Y-87817568D01*
X175713158Y-87815438D01*
X175727253Y-87816322D01*
G37*
G36*
X175726622Y-87171306D02*
G01*
X175739943Y-87174830D01*
X175752343Y-87180852D01*
X175763422Y-87189203D01*
X175772774Y-87199715D01*
X175779997Y-87212217D01*
X175782362Y-87218203D01*
X175784222Y-87226107D01*
X175785237Y-87235759D01*
X175785381Y-87245901D01*
X175784629Y-87255277D01*
X175783236Y-87261798D01*
X175778486Y-87272942D01*
X175771743Y-87283500D01*
X175763639Y-87292678D01*
X175754808Y-87299679D01*
X175751704Y-87301447D01*
X175738133Y-87306733D01*
X175723755Y-87309412D01*
X175709237Y-87309488D01*
X175695246Y-87306970D01*
X175682451Y-87301862D01*
X175680481Y-87300760D01*
X175671420Y-87294133D01*
X175662706Y-87285417D01*
X175655336Y-87275705D01*
X175651612Y-87269111D01*
X175649360Y-87264155D01*
X175647900Y-87259983D01*
X175647062Y-87255634D01*
X175646676Y-87250151D01*
X175646572Y-87242574D01*
X175646570Y-87240672D01*
X175646635Y-87232573D01*
X175646945Y-87226749D01*
X175647678Y-87222227D01*
X175649012Y-87218034D01*
X175651122Y-87213196D01*
X175651840Y-87211669D01*
X175658077Y-87201325D01*
X175666437Y-87191492D01*
X175676022Y-87183094D01*
X175685177Y-87177417D01*
X175698836Y-87172430D01*
X175712786Y-87170449D01*
X175726622Y-87171306D01*
G37*
G36*
X175735647Y-86528212D02*
G01*
X175745713Y-86531934D01*
X175756754Y-86538610D01*
X175766797Y-86547770D01*
X175775202Y-86558669D01*
X175781326Y-86570560D01*
X175782916Y-86575168D01*
X175784447Y-86582795D01*
X175785232Y-86592057D01*
X175785261Y-86601718D01*
X175784525Y-86610544D01*
X175783236Y-86616642D01*
X175777920Y-86629288D01*
X175770305Y-86640287D01*
X175765936Y-86645003D01*
X175755427Y-86653766D01*
X175743947Y-86659820D01*
X175731069Y-86663317D01*
X175716361Y-86664410D01*
X175711580Y-86664294D01*
X175703608Y-86663781D01*
X175697627Y-86662872D01*
X175692381Y-86661278D01*
X175686612Y-86658713D01*
X175686116Y-86658470D01*
X175673303Y-86650503D01*
X175662400Y-86640334D01*
X175653827Y-86628432D01*
X175648262Y-86616067D01*
X175646006Y-86605075D01*
X175645755Y-86592749D01*
X175647425Y-86580245D01*
X175650930Y-86568719D01*
X175651900Y-86566513D01*
X175659534Y-86553811D01*
X175669303Y-86543264D01*
X175680792Y-86535026D01*
X175693586Y-86529248D01*
X175707270Y-86526085D01*
X175721429Y-86525688D01*
X175735647Y-86528212D01*
G37*
D16*
%TO.C,R1*%
X140247500Y-90294724D02*
X140247500Y-89785276D01*
X141292500Y-90294724D02*
X141292500Y-89785276D01*
D17*
%TO.C,U1*%
X170916200Y-94308400D02*
X170916200Y-95299000D01*
X170916200Y-95299000D02*
X170916200Y-95908600D01*
X170916200Y-95908600D02*
X170916200Y-96899200D01*
X179653800Y-96899200D02*
X179653800Y-94308400D01*
X170916200Y-95299000D02*
G75*
G02*
X170916200Y-95908600I0J-304800D01*
G01*
D16*
%TO.C,D1*%
X185175000Y-101995000D02*
X185175000Y-104455000D01*
X186645000Y-101995000D02*
X185175000Y-101995000D01*
X186645000Y-104455000D02*
X186645000Y-101995000D01*
%TO.C,C1*%
X148517500Y-94274724D02*
X148517500Y-93765276D01*
X149562500Y-94274724D02*
X149562500Y-93765276D01*
%TO.C,R4*%
X152695276Y-87757500D02*
X153204724Y-87757500D01*
X152695276Y-88802500D02*
X153204724Y-88802500D01*
%TO.C,R1*%
X148817500Y-86094724D02*
X148817500Y-85585276D01*
X149862500Y-86094724D02*
X149862500Y-85585276D01*
D11*
%TO.C,U4*%
X142000000Y-90390000D02*
X142350000Y-90390000D01*
X142000000Y-90740000D02*
X142000000Y-90390000D01*
X142000000Y-92390000D02*
X142000000Y-92040000D01*
X142350000Y-92390000D02*
X142000000Y-92390000D01*
X144950000Y-89740000D02*
X144950000Y-90340000D01*
X144950000Y-90340000D02*
X145300000Y-90790000D01*
X144950000Y-92390000D02*
X145300000Y-92390000D01*
X145300000Y-92390000D02*
X145300000Y-92040000D01*
D18*
%TO.C,J3*%
X181400000Y-87270000D02*
X181400000Y-90470000D01*
X181400000Y-90470000D02*
X181950000Y-90470000D01*
X181950000Y-90470000D02*
X181950000Y-93920000D01*
X181950000Y-93920000D02*
X182450000Y-93920000D01*
X182450000Y-93920000D02*
X182450000Y-96270000D01*
X182450000Y-96270000D02*
X183500000Y-96270000D01*
X183500000Y-87270000D02*
X181400000Y-87270000D01*
X186700000Y-96270000D02*
X189600000Y-96270000D01*
X189600000Y-87270000D02*
X186700000Y-87270000D01*
X192800000Y-96270000D02*
X196200000Y-96270000D01*
X196200000Y-87270000D02*
X192800000Y-87270000D01*
X196200000Y-96270000D02*
X196200000Y-87270000D01*
D16*
%TO.C,R1*%
X150327500Y-86094724D02*
X150327500Y-85585276D01*
X151372500Y-86094724D02*
X151372500Y-85585276D01*
D12*
%TO.C,REF\u002A\u002A*%
X138340000Y-77580000D02*
X138340000Y-82660000D01*
X189140000Y-77580000D02*
X189140000Y-82660000D01*
X137330000Y-77055000D02*
G75*
G02*
X137130000Y-77055000I-100000J0D01*
G01*
X137130000Y-77055000D02*
G75*
G02*
X137330000Y-77055000I100000J0D01*
G01*
D16*
%TO.C,C1*%
X145717500Y-93954724D02*
X145717500Y-93445276D01*
X146762500Y-93954724D02*
X146762500Y-93445276D01*
D11*
%TO.C,L1*%
X140245000Y-85160000D02*
X139605000Y-85160000D01*
X140250000Y-87900000D02*
X139600000Y-87900000D01*
D18*
%TO.C,J1*%
X131940000Y-91390000D02*
X131940000Y-95790000D01*
X135540000Y-97540000D02*
X139540000Y-97540000D01*
X139540000Y-89640000D02*
X135540000Y-89640000D01*
X139540000Y-91690000D02*
X139540000Y-89640000D01*
X139540000Y-97540000D02*
X139540000Y-95490000D01*
D16*
%TO.C,D1*%
X176455000Y-101977500D02*
X176455000Y-104437500D01*
X177925000Y-101977500D02*
X176455000Y-101977500D01*
X177925000Y-104437500D02*
X177925000Y-101977500D01*
D11*
%TO.C,C3*%
X142600000Y-87240000D02*
X142600000Y-86590000D01*
X145340000Y-87235000D02*
X145340000Y-86595000D01*
X135945000Y-77460000D02*
X135305000Y-77460000D01*
X135950000Y-80200000D02*
X135300000Y-80200000D01*
D16*
%TO.C,REF\u002A\u002A*%
X193360000Y-79890000D02*
X194690000Y-79890000D01*
X193360000Y-81220000D02*
X193360000Y-79890000D01*
X193360000Y-82490000D02*
X193360000Y-85090000D01*
X193360000Y-82490000D02*
X196020000Y-82490000D01*
X193360000Y-85090000D02*
X196020000Y-85090000D01*
X196020000Y-82490000D02*
X196020000Y-85090000D01*
%TO.C,R4*%
X154867224Y-95457500D02*
X154357776Y-95457500D01*
X154867224Y-96502500D02*
X154357776Y-96502500D01*
%TO.C,D1*%
X182445000Y-101965000D02*
X182445000Y-104425000D01*
X183915000Y-101965000D02*
X182445000Y-101965000D01*
X183915000Y-104425000D02*
X183915000Y-101965000D01*
D11*
%TO.C,D2*%
X135575000Y-83710000D02*
X135575000Y-83360000D01*
X135575000Y-86010000D02*
X135575000Y-85760000D01*
X135825000Y-86010000D02*
X135575000Y-86010000D01*
X137525000Y-83710000D02*
X137525000Y-83360000D01*
X137525000Y-85710000D02*
X137525000Y-86010000D01*
X137525000Y-86010000D02*
X137300000Y-86010000D01*
D16*
%TO.C,C1*%
X169547500Y-99694724D02*
X169547500Y-99185276D01*
X170592500Y-99694724D02*
X170592500Y-99185276D01*
D18*
%TO.C,U2*%
X163487500Y-96770000D02*
X163487500Y-97770000D01*
X163487500Y-102770000D02*
X163487500Y-101770000D01*
X164487500Y-96770000D02*
X163487500Y-96770000D01*
X164487500Y-102770000D02*
X163487500Y-102770000D01*
X168987500Y-96770000D02*
X167187500Y-96770000D01*
X168987500Y-97670000D02*
X168987500Y-96770000D01*
X168987500Y-101870000D02*
X168987500Y-102770000D01*
X168987500Y-102770000D02*
X167187500Y-102770000D01*
D12*
X168059500Y-103175000D02*
G75*
G02*
X167859500Y-103175000I-100000J0D01*
G01*
X167859500Y-103175000D02*
G75*
G02*
X168059500Y-103175000I100000J0D01*
G01*
D16*
%TO.C,C1*%
X161917500Y-101054724D02*
X161917500Y-100545276D01*
X162962500Y-101054724D02*
X162962500Y-100545276D01*
%TO.C,R2*%
X176832776Y-100647500D02*
X177342224Y-100647500D01*
X176832776Y-101692500D02*
X177342224Y-101692500D01*
X183827776Y-100617500D02*
X184337224Y-100617500D01*
X183827776Y-101662500D02*
X184337224Y-101662500D01*
X187667224Y-100617500D02*
X187157776Y-100617500D01*
X187667224Y-101662500D02*
X187157776Y-101662500D01*
%TO.C,C1*%
X151497500Y-92474724D02*
X151497500Y-91965276D01*
X152542500Y-92474724D02*
X152542500Y-91965276D01*
D18*
%TO.C,U3*%
X147635000Y-88710000D02*
X147635000Y-89010000D01*
X147635000Y-88710000D02*
X147935000Y-88710000D01*
X147635000Y-91710000D02*
X147635000Y-91410000D01*
X147635000Y-91710000D02*
X147935000Y-91710000D01*
X150635000Y-88710000D02*
X150335000Y-88710000D01*
X150635000Y-88710000D02*
X150635000Y-89010000D01*
X150635000Y-91710000D02*
X150335000Y-91710000D01*
X150635000Y-91710000D02*
X150635000Y-91410000D01*
D12*
X150485000Y-88960000D02*
G75*
G02*
X150285000Y-88960000I-100000J0D01*
G01*
X150285000Y-88960000D02*
G75*
G02*
X150485000Y-88960000I100000J0D01*
G01*
D16*
%TO.C,R1*%
X152697776Y-89267500D02*
X153207224Y-89267500D01*
X152697776Y-90312500D02*
X153207224Y-90312500D01*
%TO.C,D1*%
X179405000Y-101942500D02*
X179405000Y-104402500D01*
X180875000Y-101942500D02*
X179405000Y-101942500D01*
X180875000Y-104402500D02*
X180875000Y-101942500D01*
D11*
%TO.C,U5*%
X131840000Y-82960000D02*
X131840000Y-83310000D01*
X132190000Y-82960000D02*
X131840000Y-82960000D01*
X132190000Y-85010000D02*
X131840000Y-84560000D01*
X132190000Y-85610000D02*
X132190000Y-85010000D01*
X134790000Y-82960000D02*
X135140000Y-82960000D01*
X135140000Y-82960000D02*
X135140000Y-83310000D01*
X135140000Y-84610000D02*
X135140000Y-84960000D01*
X135140000Y-84960000D02*
X134790000Y-84960000D01*
D16*
%TO.C,R1*%
X145384724Y-97837500D02*
X144875276Y-97837500D01*
X145384724Y-98882500D02*
X144875276Y-98882500D01*
%TO.C,R2*%
X180182776Y-100627500D02*
X180692224Y-100627500D01*
X180182776Y-101672500D02*
X180692224Y-101672500D01*
%TO.C,J2*%
X141829000Y-101084000D02*
X143629000Y-101084000D01*
X141829000Y-102534000D02*
X141829000Y-101084000D01*
X143099000Y-105354000D02*
X146529000Y-105354000D01*
X143629000Y-101084000D02*
X143629000Y-100094000D01*
X147799000Y-101084000D02*
X145999000Y-101084000D01*
X147799000Y-102534000D02*
X147799000Y-101084000D01*
%TD*%
M02*
