M48
; DRILL file {KiCad 7.0.10} date Wed Jan 17 09:49:47 2024
; FORMAT={-:-/ absolute / inch / decimal}
; #@! TF.CreationDate,2024-01-17T09:49:47+08:00
; #@! TF.GenerationSoftware,Kicad,Pcbnew,7.0.10
; #@! TF.FileFunction,NonPlated,1,2,NPTH
FMAT,2
INCH
; #@! TA.AperFunction,NonPlated,NPTH,ComponentDrill
T1C0.0382
; #@! TA.AperFunction,NonPlated,NPTH,ComponentDrill
T2C0.0669
; #@! TA.AperFunction,NonPlated,NPTH,ComponentDrill
T3C0.0701
; #@! TA.AperFunction,NonPlated,NPTH,ComponentDrill
T4C0.0709
; #@! TA.AperFunction,NonPlated,NPTH,ComponentDrill
T5C0.1083
%
G90
G05
T1
X7.0827Y-3.2551
X7.0827Y-3.3551
X7.0827Y-3.4551
X7.0827Y-3.5551
X7.0827Y-3.6551
X7.0827Y-3.7551
X7.0827Y-3.8551
X7.0827Y-3.9551
X7.0827Y-4.0551
X7.0827Y-4.1551
X7.0827Y-4.2551
X7.0827Y-4.3551
X7.0827Y-4.4551
X7.0827Y-4.5551
X7.0827Y-4.6551
X7.0827Y-4.7551
X7.0827Y-4.8551
X7.0827Y-4.9551
X7.0827Y-5.0551
X7.0827Y-5.1551
X7.1827Y-3.2551
X7.1827Y-3.3551
X7.1827Y-3.4551
X7.1827Y-3.5551
X7.1827Y-3.6551
X7.1827Y-3.7551
X7.1827Y-3.8551
X7.1827Y-3.9551
X7.1827Y-4.0551
X7.1827Y-4.1551
X7.1827Y-4.2551
X7.1827Y-4.3551
X7.1827Y-4.4551
X7.1827Y-4.5551
X7.1827Y-4.6551
X7.1827Y-4.7551
X7.1827Y-4.8551
X7.1827Y-4.9551
X7.1827Y-5.0551
X7.1827Y-5.1551
T2
X6.674Y-5.2862
T3
X7.1327Y-3.3051
X7.1327Y-5.1051
T4
X6.674Y-5.1091
T5
X6.2339Y-3.0701
X6.2339Y-5.3535
M30
