%TF.GenerationSoftware,KiCad,Pcbnew,9.0.3*%
%TF.CreationDate,2025-07-24T19:54:10+08:00*%
%TF.ProjectId,Photon_Power_Zero_PCB_r1_02,50686f74-6f6e-45f5-906f-7765725f5a65,rev?*%
%TF.SameCoordinates,Original*%
%TF.FileFunction,Copper,L2,Bot*%
%TF.FilePolarity,Positive*%
%FSLAX46Y46*%
G04 Gerber Fmt 4.6, Leading zero omitted, Abs format (unit mm)*
G04 Created by KiCad (PCBNEW 9.0.3) date 2025-07-24 19:54:10*
%MOMM*%
%LPD*%
G01*
G04 APERTURE LIST*
%TA.AperFunction,SMDPad,CuDef*%
%ADD10C,1.750000*%
%TD*%
%TA.AperFunction,ComponentPad*%
%ADD11R,1.700000X1.700000*%
%TD*%
%TA.AperFunction,ComponentPad*%
%ADD12O,1.700000X1.700000*%
%TD*%
%TA.AperFunction,ComponentPad*%
%ADD13C,0.400000*%
%TD*%
%TA.AperFunction,SMDPad,CuDef*%
%ADD14R,1.800000X1.800000*%
%TD*%
%TA.AperFunction,SMDPad,CuDef*%
%ADD15C,1.800000*%
%TD*%
%TA.AperFunction,ViaPad*%
%ADD16C,0.800000*%
%TD*%
%TA.AperFunction,ViaPad*%
%ADD17C,0.600000*%
%TD*%
%TA.AperFunction,Conductor*%
%ADD18C,0.250000*%
%TD*%
%TA.AperFunction,Conductor*%
%ADD19C,0.200000*%
%TD*%
%TA.AperFunction,Conductor*%
%ADD20C,0.600000*%
%TD*%
%TA.AperFunction,Conductor*%
%ADD21C,0.500000*%
%TD*%
%TA.AperFunction,Conductor*%
%ADD22C,0.400000*%
%TD*%
G04 APERTURE END LIST*
D10*
%TO.P,,1*%
%TO.N,N/C*%
X166890000Y-90560000D03*
%TD*%
%TO.P,,1*%
%TO.N,N/C*%
X164350000Y-93100000D03*
%TD*%
%TO.P,,1*%
%TO.N,N/C*%
X166890000Y-93100000D03*
%TD*%
%TO.P,,1*%
%TO.N,VccBattery*%
X139300000Y-92530000D03*
%TD*%
%TO.P,,1*%
%TO.N,N/C*%
X161810000Y-93100000D03*
%TD*%
%TO.P,,1*%
%TO.N,N/C*%
X164350000Y-90560000D03*
%TD*%
D11*
%TO.P,REF\u002A\u002A,*%
%TO.N,GND*%
X194690000Y-81220000D03*
D12*
%TO.N,VccSolar*%
X194690000Y-83760000D03*
%TD*%
D10*
%TO.P,,1*%
%TO.N,N/C*%
X161810000Y-90560000D03*
%TD*%
D13*
%TO.P,U3,18*%
%TO.N,GND*%
X149135000Y-90210000D03*
%TO.P,U3,19*%
X149715000Y-90790000D03*
%TO.P,U3,20*%
X148555000Y-90790000D03*
%TO.P,U3,21*%
X149715000Y-89630000D03*
%TO.P,U3,22*%
X148555000Y-89630000D03*
%TD*%
D10*
%TO.P,,1*%
%TO.N,5v2RPi*%
X136550000Y-84685000D03*
%TD*%
D14*
%TO.P,,1*%
%TO.N,GND*%
X139290000Y-94630000D03*
%TD*%
D10*
%TO.P,,1*%
%TO.N,VccSolar*%
X191260000Y-97500000D03*
%TD*%
D14*
%TO.P,REF\u002A\u002A,1*%
%TO.N,GND*%
X191210000Y-86070000D03*
%TD*%
%TO.P,REF\u002A\u002A,1*%
%TO.N,GND*%
X159270000Y-90560000D03*
%TD*%
D15*
%TO.P,REF\u002A\u002A,1*%
%TO.N,3v_to_ATtiny*%
X159280000Y-93110000D03*
%TD*%
D16*
%TO.N,*%
X146769500Y-90980000D03*
D17*
X171000000Y-102460000D03*
D16*
X184080000Y-78830000D03*
X173150000Y-96050000D03*
X142710000Y-93910000D03*
X179105000Y-91670000D03*
D17*
X146042500Y-96610000D03*
D16*
X184510000Y-102320000D03*
X176580000Y-96590000D03*
D17*
X150304878Y-87884878D03*
D16*
X172745000Y-91520000D03*
X181540000Y-102310000D03*
D17*
X151870000Y-84920000D03*
D16*
X146769500Y-91822027D03*
X175120000Y-96620000D03*
X177835000Y-91640000D03*
D17*
X189400000Y-78310000D03*
D16*
%TO.N,5v2RPi*%
X137540000Y-82090000D03*
D17*
%TO.N,GND*%
X178990000Y-77570000D03*
D16*
X149800000Y-95570000D03*
X170050000Y-101330000D03*
X156690000Y-96000000D03*
X176260000Y-104520000D03*
X154812000Y-89770000D03*
X179030000Y-104460000D03*
D17*
X168840000Y-82870000D03*
D16*
X154849500Y-88290000D03*
X152120000Y-94120000D03*
X145880000Y-84850000D03*
D17*
X153790000Y-77400000D03*
X144210000Y-99540000D03*
D16*
X137940000Y-95890000D03*
D17*
X151910000Y-86740000D03*
X161370000Y-101710000D03*
D16*
X150980000Y-82840000D03*
X183850000Y-87820000D03*
X133220498Y-78770000D03*
X132870000Y-84270000D03*
X143420000Y-77580000D03*
X189150000Y-86050000D03*
D17*
X161360000Y-77600000D03*
D16*
X170685000Y-93140000D03*
D17*
X173910000Y-77610000D03*
D16*
X146659500Y-95470000D03*
X143650000Y-90950000D03*
%TO.N,VccSolar*%
X191160000Y-95710000D03*
%TO.N,VccBattery*%
X138310000Y-91430000D03*
D17*
%TO.N,VccBQ*%
X159190000Y-96140000D03*
X156370000Y-93300000D03*
D16*
%TO.N,3v_to_ATtiny*%
X170070000Y-97320000D03*
%TD*%
D18*
%TO.N,*%
X150990000Y-97980000D02*
X182160000Y-97980000D01*
D19*
X172745000Y-91520000D02*
X168115000Y-86890000D01*
X177835000Y-91640000D02*
X177830000Y-91640000D01*
D18*
X147360000Y-92412527D02*
X147360000Y-95040000D01*
D19*
X164580000Y-87790000D02*
X161810000Y-90560000D01*
X177835000Y-88445000D02*
X177835000Y-91640000D01*
X146042500Y-96610000D02*
X146060000Y-96592500D01*
D18*
X146769500Y-91822027D02*
X147360000Y-92412527D01*
D19*
X178080000Y-92710000D02*
X172040000Y-92710000D01*
X172040000Y-92710000D02*
X168580000Y-89250000D01*
X153850000Y-86900000D02*
X151870000Y-84920000D01*
X151100000Y-102460000D02*
X171000000Y-102460000D01*
D18*
X150840000Y-98520000D02*
X179882500Y-98520000D01*
D19*
X189380000Y-78330000D02*
X189400000Y-78310000D01*
X167300000Y-96050000D02*
X164350000Y-93100000D01*
D18*
X147840000Y-92050500D02*
X147840000Y-94830000D01*
D19*
X168580000Y-89250000D02*
X165660000Y-89250000D01*
D18*
X181540000Y-100177500D02*
X181540000Y-102310000D01*
D19*
X168105000Y-86900000D02*
X153850000Y-86900000D01*
X142710000Y-94070000D02*
X151100000Y-102460000D01*
X146060000Y-96592500D02*
X146060000Y-90180000D01*
D18*
X147840000Y-94830000D02*
X150990000Y-97980000D01*
D19*
X179105000Y-91685000D02*
X178080000Y-92710000D01*
X173150000Y-96050000D02*
X167300000Y-96050000D01*
X179105000Y-91670000D02*
X179105000Y-91685000D01*
X179105000Y-91670000D02*
X179105000Y-91305000D01*
X189380000Y-83790000D02*
X189380000Y-78330000D01*
X184080000Y-78830000D02*
X181650000Y-81260000D01*
X148355122Y-87884878D02*
X150304878Y-87884878D01*
X175120000Y-96620000D02*
X165330000Y-96620000D01*
X172610000Y-92320000D02*
X168080000Y-87790000D01*
X181650000Y-84630000D02*
X177835000Y-88445000D01*
X168115000Y-86890000D02*
X168105000Y-86900000D01*
X142710000Y-93910000D02*
X142710000Y-94070000D01*
D18*
X147360000Y-95040000D02*
X150840000Y-98520000D01*
D19*
X168080000Y-87790000D02*
X164580000Y-87790000D01*
X165330000Y-96620000D02*
X161810000Y-93100000D01*
X164350000Y-90560000D02*
X165660000Y-89250000D01*
X177830000Y-91640000D02*
X177150000Y-92320000D01*
D18*
X146769500Y-90980000D02*
X147840000Y-92050500D01*
D19*
X177835000Y-91640000D02*
X177835000Y-91625000D01*
D18*
X179882500Y-98520000D02*
X181540000Y-100177500D01*
X184510000Y-100330000D02*
X184510000Y-102320000D01*
D19*
X146060000Y-90180000D02*
X148355122Y-87884878D01*
X177150000Y-92320000D02*
X172610000Y-92320000D01*
D18*
X182160000Y-97980000D02*
X184510000Y-100330000D01*
D19*
X181650000Y-81260000D02*
X181650000Y-84630000D01*
X176580000Y-96590000D02*
X189380000Y-83790000D01*
D20*
%TO.N,5v2RPi*%
X137540000Y-83695000D02*
X136550000Y-84685000D01*
X137540000Y-82090000D02*
X137540000Y-83695000D01*
D21*
%TO.N,GND*%
X189150000Y-86050000D02*
X191190000Y-86050000D01*
D18*
X159490000Y-90560000D02*
X160740000Y-91810000D01*
X159270000Y-90560000D02*
X159490000Y-90560000D01*
X149715000Y-90790000D02*
X149135000Y-90210000D01*
D19*
X139290000Y-94630000D02*
X139200000Y-94630000D01*
D18*
X148555000Y-89630000D02*
X149135000Y-90210000D01*
X169355000Y-91810000D02*
X170685000Y-93140000D01*
X160740000Y-91810000D02*
X169355000Y-91810000D01*
D21*
X191190000Y-86050000D02*
X191210000Y-86070000D01*
X139200000Y-94630000D02*
X137940000Y-95890000D01*
D18*
X149135000Y-90210000D02*
X149715000Y-89630000D01*
X149135000Y-90210000D02*
X148555000Y-90790000D01*
D20*
%TO.N,VccSolar*%
X191160000Y-97400000D02*
X191260000Y-97500000D01*
X191160000Y-95710000D02*
X191160000Y-97400000D01*
D21*
%TO.N,VccBattery*%
X138310000Y-91430000D02*
X139300000Y-92420000D01*
D19*
X139300000Y-92420000D02*
X139300000Y-92530000D01*
%TO.N,VccBQ*%
X159190000Y-96120000D02*
X159190000Y-96140000D01*
X156370000Y-93300000D02*
X159190000Y-96120000D01*
D22*
%TO.N,3v_to_ATtiny*%
X170070000Y-97320000D02*
X163490000Y-97320000D01*
X163490000Y-97320000D02*
X159280000Y-93110000D01*
%TD*%
%TA.AperFunction,Conductor*%
%TO.N,GND*%
G36*
X168346184Y-89889813D02*
G01*
X168386231Y-89916780D01*
X171659090Y-93189640D01*
X171659092Y-93189641D01*
X171666373Y-93196922D01*
X171805127Y-93277032D01*
X171824176Y-93282136D01*
X171959889Y-93318500D01*
X171959890Y-93318500D01*
X178160109Y-93318500D01*
X178160110Y-93318500D01*
X178160111Y-93318500D01*
X178295824Y-93282136D01*
X178314873Y-93277032D01*
X178453627Y-93196922D01*
X179035145Y-92615403D01*
X179097456Y-92581380D01*
X179124239Y-92578500D01*
X179194478Y-92578500D01*
X179194479Y-92578500D01*
X179370000Y-92543587D01*
X179460556Y-92506076D01*
X179531145Y-92498487D01*
X179594632Y-92530265D01*
X179630861Y-92591323D01*
X179628328Y-92662274D01*
X179597870Y-92711580D01*
X176664856Y-95644595D01*
X176602544Y-95678621D01*
X176575761Y-95681500D01*
X176490518Y-95681500D01*
X176359771Y-95707507D01*
X176315000Y-95716413D01*
X176314999Y-95716413D01*
X176314996Y-95716414D01*
X176206453Y-95761375D01*
X176171233Y-95775964D01*
X176149662Y-95784899D01*
X176000869Y-95884319D01*
X176000867Y-95884320D01*
X175924093Y-95961093D01*
X175861781Y-95995117D01*
X175790965Y-95990051D01*
X175745904Y-95961091D01*
X175699137Y-95914324D01*
X175699135Y-95914322D01*
X175550336Y-95814898D01*
X175421121Y-95761375D01*
X175385003Y-95746414D01*
X175385001Y-95746413D01*
X175385000Y-95746413D01*
X175296645Y-95728838D01*
X175209481Y-95711500D01*
X175209479Y-95711500D01*
X175030521Y-95711500D01*
X175030518Y-95711500D01*
X174908074Y-95735856D01*
X174855000Y-95746413D01*
X174854999Y-95746413D01*
X174854996Y-95746414D01*
X174689662Y-95814899D01*
X174540869Y-95914319D01*
X174540862Y-95914324D01*
X174480592Y-95974595D01*
X174453223Y-95989539D01*
X174426995Y-96006396D01*
X174420696Y-96007301D01*
X174418280Y-96008621D01*
X174391497Y-96011500D01*
X174172046Y-96011500D01*
X174103925Y-95991498D01*
X174057432Y-95937842D01*
X174048467Y-95910082D01*
X174047291Y-95904169D01*
X174023587Y-95785000D01*
X173955102Y-95619664D01*
X173855678Y-95470865D01*
X173729135Y-95344322D01*
X173580336Y-95244898D01*
X173463429Y-95196473D01*
X173415003Y-95176414D01*
X173415001Y-95176413D01*
X173415000Y-95176413D01*
X173326645Y-95158838D01*
X173239481Y-95141500D01*
X173239479Y-95141500D01*
X173060521Y-95141500D01*
X173060518Y-95141500D01*
X172929771Y-95167507D01*
X172885000Y-95176413D01*
X172884999Y-95176413D01*
X172884996Y-95176414D01*
X172719662Y-95244899D01*
X172570869Y-95344319D01*
X172570862Y-95344324D01*
X172510592Y-95404595D01*
X172448280Y-95438621D01*
X172421497Y-95441500D01*
X167604239Y-95441500D01*
X167536118Y-95421498D01*
X167515144Y-95404595D01*
X166809144Y-94698595D01*
X166775118Y-94636283D01*
X166780183Y-94565468D01*
X166822730Y-94508632D01*
X166889250Y-94483821D01*
X166898239Y-94483500D01*
X166998881Y-94483500D01*
X166998884Y-94483500D01*
X167213970Y-94449434D01*
X167421080Y-94382140D01*
X167615112Y-94283275D01*
X167791290Y-94155275D01*
X167945275Y-94001290D01*
X168073275Y-93825112D01*
X168172140Y-93631080D01*
X168239434Y-93423970D01*
X168273500Y-93208884D01*
X168273500Y-92991116D01*
X168239434Y-92776030D01*
X168172140Y-92568920D01*
X168073275Y-92374888D01*
X167945275Y-92198710D01*
X167945272Y-92198707D01*
X167945270Y-92198704D01*
X167791295Y-92044729D01*
X167791292Y-92044727D01*
X167791290Y-92044725D01*
X167636047Y-91931935D01*
X167592694Y-91875714D01*
X167586619Y-91804978D01*
X167619750Y-91742186D01*
X167636048Y-91728064D01*
X167791290Y-91615275D01*
X167945275Y-91461290D01*
X168073275Y-91285112D01*
X168172140Y-91091080D01*
X168239434Y-90883970D01*
X168273500Y-90668884D01*
X168273500Y-90451116D01*
X168239434Y-90236030D01*
X168177302Y-90044810D01*
X168175275Y-89973844D01*
X168211938Y-89913046D01*
X168275650Y-89881720D01*
X168346184Y-89889813D01*
G37*
%TD.AperFunction*%
%TA.AperFunction,Conductor*%
G36*
X163167814Y-91289750D02*
G01*
X163181934Y-91306046D01*
X163294725Y-91461290D01*
X163294727Y-91461292D01*
X163294729Y-91461295D01*
X163448704Y-91615270D01*
X163448707Y-91615272D01*
X163448710Y-91615275D01*
X163526036Y-91671455D01*
X163603951Y-91728064D01*
X163647305Y-91784286D01*
X163653380Y-91855022D01*
X163620249Y-91917814D01*
X163603951Y-91931936D01*
X163448707Y-92044727D01*
X163448704Y-92044729D01*
X163294729Y-92198704D01*
X163294727Y-92198707D01*
X163181936Y-92353951D01*
X163125714Y-92397305D01*
X163054978Y-92403380D01*
X162992186Y-92370249D01*
X162978064Y-92353951D01*
X162910438Y-92260872D01*
X162865275Y-92198710D01*
X162865272Y-92198707D01*
X162865270Y-92198704D01*
X162711295Y-92044729D01*
X162711292Y-92044727D01*
X162711290Y-92044725D01*
X162556047Y-91931935D01*
X162512694Y-91875714D01*
X162506619Y-91804978D01*
X162539750Y-91742186D01*
X162556048Y-91728064D01*
X162711290Y-91615275D01*
X162865275Y-91461290D01*
X162978064Y-91306047D01*
X163034286Y-91262694D01*
X163105022Y-91256619D01*
X163167814Y-91289750D01*
G37*
%TD.AperFunction*%
%TA.AperFunction,Conductor*%
G36*
X165637665Y-91257250D02*
G01*
X165645022Y-91256619D01*
X165670303Y-91269958D01*
X165696942Y-91280330D01*
X165704289Y-91287890D01*
X165707814Y-91289750D01*
X165721934Y-91306046D01*
X165834725Y-91461290D01*
X165834727Y-91461292D01*
X165834729Y-91461295D01*
X165988704Y-91615270D01*
X165988707Y-91615272D01*
X165988710Y-91615275D01*
X166066036Y-91671455D01*
X166143951Y-91728064D01*
X166187305Y-91784286D01*
X166193380Y-91855022D01*
X166160249Y-91917814D01*
X166143951Y-91931936D01*
X165988707Y-92044727D01*
X165988704Y-92044729D01*
X165834729Y-92198704D01*
X165834727Y-92198707D01*
X165721936Y-92353951D01*
X165665714Y-92397305D01*
X165594978Y-92403380D01*
X165532186Y-92370249D01*
X165518064Y-92353951D01*
X165450438Y-92260872D01*
X165405275Y-92198710D01*
X165405272Y-92198707D01*
X165405270Y-92198704D01*
X165251295Y-92044729D01*
X165251292Y-92044727D01*
X165251290Y-92044725D01*
X165096047Y-91931935D01*
X165052694Y-91875714D01*
X165046619Y-91804978D01*
X165079750Y-91742186D01*
X165096048Y-91728064D01*
X165251290Y-91615275D01*
X165405275Y-91461290D01*
X165518064Y-91306047D01*
X165540698Y-91288593D01*
X165561200Y-91268670D01*
X165568438Y-91267203D01*
X165574286Y-91262694D01*
X165602764Y-91260248D01*
X165630783Y-91254571D01*
X165637665Y-91257250D01*
G37*
%TD.AperFunction*%
%TA.AperFunction,Conductor*%
G36*
X160833315Y-91547098D02*
G01*
X160862025Y-91568591D01*
X160908704Y-91615270D01*
X160908707Y-91615272D01*
X160908710Y-91615275D01*
X160986036Y-91671455D01*
X161063951Y-91728064D01*
X161107305Y-91784286D01*
X161113380Y-91855022D01*
X161080249Y-91917814D01*
X161063951Y-91931936D01*
X160908707Y-92044727D01*
X160908704Y-92044729D01*
X160754729Y-92198704D01*
X160754727Y-92198707D01*
X160658754Y-92330803D01*
X160602532Y-92374157D01*
X160531796Y-92380232D01*
X160469004Y-92347101D01*
X160454882Y-92330803D01*
X160354341Y-92192421D01*
X160304341Y-92142421D01*
X160270315Y-92080109D01*
X160275380Y-92009294D01*
X160317927Y-91952458D01*
X160349404Y-91935270D01*
X160415965Y-91910444D01*
X160532904Y-91822904D01*
X160620444Y-91705965D01*
X160654874Y-91613654D01*
X160697421Y-91556818D01*
X160763941Y-91532007D01*
X160833315Y-91547098D01*
G37*
%TD.AperFunction*%
%TA.AperFunction,Conductor*%
G36*
X188664012Y-78671858D02*
G01*
X188686263Y-78697077D01*
X188750265Y-78792865D01*
X188771480Y-78860616D01*
X188771500Y-78862865D01*
X188771500Y-83485761D01*
X188751498Y-83553882D01*
X188734595Y-83574856D01*
X180146580Y-92162870D01*
X180084268Y-92196896D01*
X180013453Y-92191831D01*
X179956617Y-92149284D01*
X179931806Y-92082764D01*
X179941076Y-92025557D01*
X179978587Y-91935000D01*
X180013500Y-91759479D01*
X180013500Y-91580521D01*
X179978587Y-91405000D01*
X179910102Y-91239664D01*
X179810678Y-91090865D01*
X179684135Y-90964322D01*
X179535336Y-90864898D01*
X179535334Y-90864897D01*
X179530566Y-90862348D01*
X179500874Y-90840325D01*
X179478628Y-90818079D01*
X179478627Y-90818078D01*
X179478624Y-90818076D01*
X179339876Y-90737970D01*
X179339873Y-90737969D01*
X179339872Y-90737968D01*
X179339870Y-90737967D01*
X179339869Y-90737967D01*
X179273803Y-90720265D01*
X179185111Y-90696500D01*
X179024889Y-90696500D01*
X178956227Y-90714898D01*
X178870130Y-90737967D01*
X178870123Y-90737970D01*
X178731376Y-90818076D01*
X178731367Y-90818083D01*
X178709120Y-90840329D01*
X178688035Y-90857301D01*
X178678964Y-90863116D01*
X178674664Y-90864898D01*
X178638559Y-90889022D01*
X178637507Y-90889697D01*
X178604522Y-90899343D01*
X178571747Y-90909606D01*
X178570553Y-90909278D01*
X178569365Y-90909626D01*
X178536415Y-90899912D01*
X178503280Y-90890822D01*
X178502452Y-90889900D01*
X178501266Y-90889551D01*
X178478794Y-90863562D01*
X178455838Y-90838004D01*
X178455532Y-90836658D01*
X178454830Y-90835846D01*
X178453951Y-90829690D01*
X178443500Y-90783626D01*
X178443500Y-88749239D01*
X178463502Y-88681118D01*
X178480405Y-88660144D01*
X182136916Y-85003633D01*
X182136922Y-85003627D01*
X182195696Y-84901827D01*
X182217030Y-84864876D01*
X182217030Y-84864875D01*
X182217032Y-84864872D01*
X182258500Y-84710110D01*
X182258500Y-84549890D01*
X182258500Y-81977453D01*
X182278502Y-81909332D01*
X182332158Y-81862839D01*
X182402432Y-81852735D01*
X182447500Y-81868334D01*
X182564006Y-81935599D01*
X182712917Y-81975500D01*
X182712919Y-81975500D01*
X182867081Y-81975500D01*
X182867083Y-81975500D01*
X183015994Y-81935599D01*
X183149505Y-81858516D01*
X183258516Y-81749505D01*
X183335599Y-81615994D01*
X183375500Y-81467083D01*
X183375500Y-81312917D01*
X183335599Y-81164006D01*
X183258516Y-81030495D01*
X183258514Y-81030493D01*
X183258510Y-81030488D01*
X183149511Y-80921489D01*
X183149504Y-80921483D01*
X183101238Y-80893617D01*
X183052245Y-80842234D01*
X183038810Y-80772520D01*
X183065197Y-80706609D01*
X183075127Y-80695420D01*
X183995146Y-79775402D01*
X184057456Y-79741379D01*
X184084239Y-79738500D01*
X184169478Y-79738500D01*
X184169479Y-79738500D01*
X184345000Y-79703587D01*
X184510336Y-79635102D01*
X184659135Y-79535678D01*
X184785678Y-79409135D01*
X184815257Y-79364865D01*
X184869733Y-79319339D01*
X184940176Y-79310490D01*
X184983022Y-79325749D01*
X185048389Y-79363488D01*
X185104006Y-79395599D01*
X185252917Y-79435500D01*
X185252919Y-79435500D01*
X185407081Y-79435500D01*
X185407083Y-79435500D01*
X185555994Y-79395599D01*
X185636291Y-79349238D01*
X185705286Y-79332501D01*
X185772378Y-79355721D01*
X185816265Y-79411528D01*
X185823014Y-79482203D01*
X185804056Y-79528360D01*
X185722230Y-79650821D01*
X185647566Y-79831076D01*
X185647564Y-79831081D01*
X185609500Y-80022441D01*
X185609500Y-80217558D01*
X185630156Y-80321402D01*
X185647564Y-80408918D01*
X185722230Y-80589178D01*
X185793207Y-80695402D01*
X185804056Y-80711639D01*
X185825271Y-80779392D01*
X185806488Y-80847859D01*
X185753671Y-80895302D01*
X185683588Y-80906659D01*
X185636292Y-80890761D01*
X185561983Y-80847859D01*
X185555994Y-80844401D01*
X185407083Y-80804500D01*
X185252917Y-80804500D01*
X185153643Y-80831100D01*
X185104005Y-80844401D01*
X184970498Y-80921481D01*
X184970488Y-80921489D01*
X184861489Y-81030488D01*
X184861481Y-81030498D01*
X184784401Y-81164005D01*
X184781029Y-81176589D01*
X184752008Y-81284899D01*
X184744500Y-81312918D01*
X184744500Y-81467081D01*
X184744499Y-81467081D01*
X184784401Y-81615994D01*
X184861481Y-81749501D01*
X184861489Y-81749511D01*
X184970488Y-81858510D01*
X184970493Y-81858514D01*
X184970495Y-81858516D01*
X184970496Y-81858517D01*
X184970498Y-81858518D01*
X184987500Y-81868334D01*
X185104006Y-81935599D01*
X185252917Y-81975500D01*
X185252919Y-81975500D01*
X185407081Y-81975500D01*
X185407083Y-81975500D01*
X185555994Y-81935599D01*
X185689505Y-81858516D01*
X185798516Y-81749505D01*
X185875599Y-81615994D01*
X185915500Y-81467083D01*
X185915500Y-81312917D01*
X185875599Y-81164006D01*
X185829239Y-81083708D01*
X185812501Y-81014712D01*
X185835722Y-80947621D01*
X185891529Y-80903734D01*
X185962204Y-80896985D01*
X186008358Y-80915942D01*
X186130822Y-80997770D01*
X186311082Y-81072436D01*
X186502444Y-81110500D01*
X186502445Y-81110500D01*
X186697555Y-81110500D01*
X186697556Y-81110500D01*
X186888918Y-81072436D01*
X187069178Y-80997770D01*
X187191642Y-80915941D01*
X187259391Y-80894728D01*
X187327858Y-80913511D01*
X187375302Y-80966328D01*
X187386659Y-81036410D01*
X187370761Y-81083707D01*
X187324402Y-81164005D01*
X187324401Y-81164006D01*
X187292008Y-81284899D01*
X187284500Y-81312918D01*
X187284500Y-81467081D01*
X187284499Y-81467081D01*
X187324401Y-81615994D01*
X187401481Y-81749501D01*
X187401489Y-81749511D01*
X187510488Y-81858510D01*
X187510493Y-81858514D01*
X187510495Y-81858516D01*
X187510496Y-81858517D01*
X187510498Y-81858518D01*
X187527500Y-81868334D01*
X187644006Y-81935599D01*
X187792917Y-81975500D01*
X187792919Y-81975500D01*
X187947081Y-81975500D01*
X187947083Y-81975500D01*
X188095994Y-81935599D01*
X188229505Y-81858516D01*
X188338516Y-81749505D01*
X188415599Y-81615994D01*
X188455500Y-81467083D01*
X188455500Y-81312917D01*
X188415599Y-81164006D01*
X188338516Y-81030495D01*
X188338514Y-81030493D01*
X188338510Y-81030488D01*
X188229511Y-80921489D01*
X188229501Y-80921481D01*
X188095994Y-80844401D01*
X188087907Y-80842234D01*
X187947083Y-80804500D01*
X187792917Y-80804500D01*
X187652093Y-80842234D01*
X187644006Y-80844401D01*
X187563707Y-80890761D01*
X187494711Y-80907498D01*
X187427620Y-80884277D01*
X187383733Y-80828469D01*
X187376985Y-80757794D01*
X187395941Y-80711643D01*
X187477770Y-80589178D01*
X187552436Y-80408918D01*
X187590500Y-80217556D01*
X187590500Y-80022444D01*
X187552436Y-79831082D01*
X187477770Y-79650822D01*
X187395942Y-79528358D01*
X187374728Y-79460607D01*
X187393511Y-79392140D01*
X187446328Y-79344697D01*
X187516410Y-79333340D01*
X187563708Y-79349239D01*
X187590777Y-79364867D01*
X187644006Y-79395599D01*
X187792917Y-79435500D01*
X187792919Y-79435500D01*
X187947081Y-79435500D01*
X187947083Y-79435500D01*
X188095994Y-79395599D01*
X188229505Y-79318516D01*
X188338516Y-79209505D01*
X188415599Y-79075994D01*
X188455500Y-78927083D01*
X188455500Y-78772917D01*
X188455500Y-78767082D01*
X188475502Y-78698961D01*
X188529158Y-78652468D01*
X188599432Y-78642364D01*
X188664012Y-78671858D01*
G37*
%TD.AperFunction*%
%TA.AperFunction,Conductor*%
G36*
X193413301Y-76490673D02*
G01*
X193712752Y-76506366D01*
X193725868Y-76507744D01*
X194018793Y-76554139D01*
X194031693Y-76556881D01*
X194318162Y-76633640D01*
X194330703Y-76637715D01*
X194607576Y-76743997D01*
X194619608Y-76749353D01*
X194883873Y-76884003D01*
X194895289Y-76890595D01*
X195144017Y-77052121D01*
X195154686Y-77059873D01*
X195385160Y-77246507D01*
X195394961Y-77255332D01*
X195604667Y-77465038D01*
X195613492Y-77474839D01*
X195800126Y-77705313D01*
X195807878Y-77715982D01*
X195969404Y-77964710D01*
X195975999Y-77976132D01*
X196110642Y-78240383D01*
X196116006Y-78252432D01*
X196222283Y-78529294D01*
X196226359Y-78541837D01*
X196303118Y-78828306D01*
X196305860Y-78841206D01*
X196352255Y-79134131D01*
X196353633Y-79147247D01*
X196369327Y-79446697D01*
X196369500Y-79453292D01*
X196369500Y-103446707D01*
X196369327Y-103453302D01*
X196353633Y-103752752D01*
X196352255Y-103765868D01*
X196305860Y-104058793D01*
X196303118Y-104071693D01*
X196226359Y-104358162D01*
X196222283Y-104370705D01*
X196116006Y-104647567D01*
X196110642Y-104659616D01*
X195975999Y-104923867D01*
X195969404Y-104935289D01*
X195807878Y-105184017D01*
X195800126Y-105194686D01*
X195613492Y-105425160D01*
X195604667Y-105434961D01*
X195394961Y-105644667D01*
X195385160Y-105653492D01*
X195154686Y-105840126D01*
X195144017Y-105847878D01*
X194895289Y-106009404D01*
X194883867Y-106015999D01*
X194619616Y-106150642D01*
X194607567Y-106156006D01*
X194330705Y-106262283D01*
X194318162Y-106266359D01*
X194031693Y-106343118D01*
X194018793Y-106345860D01*
X193725868Y-106392255D01*
X193712752Y-106393633D01*
X193428048Y-106408554D01*
X193413300Y-106409327D01*
X193406707Y-106409500D01*
X134413293Y-106409500D01*
X134406699Y-106409327D01*
X134391068Y-106408507D01*
X134107247Y-106393633D01*
X134094131Y-106392255D01*
X133801206Y-106345860D01*
X133788306Y-106343118D01*
X133501837Y-106266359D01*
X133489294Y-106262283D01*
X133212432Y-106156006D01*
X133200383Y-106150642D01*
X132936132Y-106015999D01*
X132924710Y-106009404D01*
X132675982Y-105847878D01*
X132665313Y-105840126D01*
X132434839Y-105653492D01*
X132425038Y-105644667D01*
X132215332Y-105434961D01*
X132206507Y-105425160D01*
X132019873Y-105194686D01*
X132012121Y-105184017D01*
X131850595Y-104935289D01*
X131844000Y-104923867D01*
X131709353Y-104659608D01*
X131703997Y-104647576D01*
X131597715Y-104370703D01*
X131593640Y-104358162D01*
X131516881Y-104071693D01*
X131514139Y-104058793D01*
X131467744Y-103765868D01*
X131466366Y-103752751D01*
X131450673Y-103453301D01*
X131450500Y-103446707D01*
X131450500Y-102833876D01*
X133434500Y-102833876D01*
X133434500Y-103066124D01*
X133470831Y-103295514D01*
X133470832Y-103295518D01*
X133521026Y-103450000D01*
X133542600Y-103516396D01*
X133648039Y-103723331D01*
X133784551Y-103911224D01*
X133784553Y-103911226D01*
X133784555Y-103911229D01*
X133948770Y-104075444D01*
X133948773Y-104075446D01*
X133948776Y-104075449D01*
X134136669Y-104211961D01*
X134343604Y-104317400D01*
X134564486Y-104389169D01*
X134793876Y-104425500D01*
X134793878Y-104425500D01*
X135026122Y-104425500D01*
X135026124Y-104425500D01*
X135255514Y-104389169D01*
X135476396Y-104317400D01*
X135683331Y-104211961D01*
X135871224Y-104075449D01*
X136035449Y-103911224D01*
X136171961Y-103723331D01*
X136277400Y-103516396D01*
X136349169Y-103295514D01*
X136385500Y-103066124D01*
X136385500Y-102833876D01*
X136349169Y-102604486D01*
X136277400Y-102383604D01*
X136171961Y-102176669D01*
X136035449Y-101988776D01*
X136035446Y-101988773D01*
X136035444Y-101988770D01*
X135871229Y-101824555D01*
X135871226Y-101824553D01*
X135871224Y-101824551D01*
X135683331Y-101688039D01*
X135476396Y-101582600D01*
X135476393Y-101582599D01*
X135476391Y-101582598D01*
X135255518Y-101510832D01*
X135255516Y-101510831D01*
X135255514Y-101510831D01*
X135026124Y-101474500D01*
X134793876Y-101474500D01*
X134564486Y-101510831D01*
X134564484Y-101510831D01*
X134564481Y-101510832D01*
X134343608Y-101582598D01*
X134343602Y-101582601D01*
X134136665Y-101688041D01*
X133948773Y-101824553D01*
X133948770Y-101824555D01*
X133784555Y-101988770D01*
X133784553Y-101988773D01*
X133648041Y-102176665D01*
X133542601Y-102383602D01*
X133542598Y-102383608D01*
X133470832Y-102604481D01*
X133470831Y-102604484D01*
X133470831Y-102604486D01*
X133434500Y-102833876D01*
X131450500Y-102833876D01*
X131450500Y-95578597D01*
X137882000Y-95578597D01*
X137888505Y-95639093D01*
X137939555Y-95775964D01*
X137939555Y-95775965D01*
X138027095Y-95892904D01*
X138144034Y-95980444D01*
X138280906Y-96031494D01*
X138341402Y-96037999D01*
X138341415Y-96038000D01*
X139036000Y-96038000D01*
X139544000Y-96038000D01*
X140238585Y-96038000D01*
X140238597Y-96037999D01*
X140299093Y-96031494D01*
X140435964Y-95980444D01*
X140435965Y-95980444D01*
X140552904Y-95892904D01*
X140640444Y-95775965D01*
X140640444Y-95775964D01*
X140691494Y-95639093D01*
X140697999Y-95578597D01*
X140698000Y-95578585D01*
X140698000Y-94884000D01*
X139544000Y-94884000D01*
X139544000Y-96038000D01*
X139036000Y-96038000D01*
X139036000Y-94884000D01*
X137882000Y-94884000D01*
X137882000Y-95578597D01*
X131450500Y-95578597D01*
X131450500Y-91340518D01*
X137401500Y-91340518D01*
X137401500Y-91519481D01*
X137408896Y-91556664D01*
X137435716Y-91691498D01*
X137436414Y-91695003D01*
X137450109Y-91728064D01*
X137504898Y-91860336D01*
X137604322Y-92009135D01*
X137730865Y-92135678D01*
X137836146Y-92206024D01*
X137872552Y-92230350D01*
X137918080Y-92284827D01*
X137926999Y-92354824D01*
X137924313Y-92371785D01*
X137916500Y-92421116D01*
X137916500Y-92638884D01*
X137939581Y-92784611D01*
X137950567Y-92853975D01*
X138017858Y-93061075D01*
X138017860Y-93061080D01*
X138085128Y-93193100D01*
X138098232Y-93262874D01*
X138071532Y-93328659D01*
X138048373Y-93351167D01*
X138027095Y-93367096D01*
X137939555Y-93484034D01*
X137939555Y-93484035D01*
X137888505Y-93620906D01*
X137882000Y-93681402D01*
X137882000Y-94376000D01*
X140698000Y-94376000D01*
X140698000Y-93820518D01*
X141801500Y-93820518D01*
X141801500Y-93999481D01*
X141817005Y-94077428D01*
X141836413Y-94175000D01*
X141904898Y-94340336D01*
X142004322Y-94489135D01*
X142130865Y-94615678D01*
X142279664Y-94715102D01*
X142445000Y-94783587D01*
X142554859Y-94805438D01*
X142617768Y-94838345D01*
X142619373Y-94839922D01*
X150726366Y-102946916D01*
X150726371Y-102946920D01*
X150726373Y-102946922D01*
X150726374Y-102946923D01*
X150726376Y-102946924D01*
X150820512Y-103001273D01*
X150865128Y-103027032D01*
X151019889Y-103068500D01*
X151019890Y-103068500D01*
X151180110Y-103068500D01*
X170417202Y-103068500D01*
X170485323Y-103088502D01*
X170487159Y-103089705D01*
X170617032Y-103176483D01*
X170764169Y-103237430D01*
X170920370Y-103268500D01*
X170920371Y-103268500D01*
X171079629Y-103268500D01*
X171079630Y-103268500D01*
X171235831Y-103237430D01*
X171382968Y-103176483D01*
X171515389Y-103088003D01*
X171628003Y-102975389D01*
X171716483Y-102842968D01*
X171777430Y-102695831D01*
X171808500Y-102539630D01*
X171808500Y-102380370D01*
X171777430Y-102224169D01*
X171716483Y-102077032D01*
X171628003Y-101944611D01*
X171628001Y-101944609D01*
X171627996Y-101944603D01*
X171515396Y-101832003D01*
X171515390Y-101831998D01*
X171514642Y-101831498D01*
X171382968Y-101743517D01*
X171235831Y-101682570D01*
X171157730Y-101667035D01*
X171079632Y-101651500D01*
X171079630Y-101651500D01*
X170920370Y-101651500D01*
X170920367Y-101651500D01*
X170804147Y-101674618D01*
X170764169Y-101682570D01*
X170617032Y-101743517D01*
X170487202Y-101830265D01*
X170419451Y-101851480D01*
X170417202Y-101851500D01*
X151404239Y-101851500D01*
X151336118Y-101831498D01*
X151315144Y-101814595D01*
X146725771Y-97225222D01*
X146691745Y-97162910D01*
X146696810Y-97092095D01*
X146710099Y-97066128D01*
X146758983Y-96992968D01*
X146819930Y-96845831D01*
X146851000Y-96689630D01*
X146851000Y-96530370D01*
X146819930Y-96374169D01*
X146758983Y-96227032D01*
X146689733Y-96123392D01*
X146668520Y-96055640D01*
X146668500Y-96053392D01*
X146668500Y-95548594D01*
X146688502Y-95480473D01*
X146742158Y-95433980D01*
X146812432Y-95423876D01*
X146877012Y-95453370D01*
X146883595Y-95459499D01*
X150436167Y-99012071D01*
X150539925Y-99081400D01*
X150655215Y-99129155D01*
X150777606Y-99153500D01*
X150902394Y-99153500D01*
X179567906Y-99153500D01*
X179636027Y-99173502D01*
X179657001Y-99190405D01*
X180869595Y-100402999D01*
X180903621Y-100465311D01*
X180906500Y-100492094D01*
X180906500Y-101606497D01*
X180886498Y-101674618D01*
X180869595Y-101695592D01*
X180834324Y-101730862D01*
X180834319Y-101730869D01*
X180734899Y-101879662D01*
X180666414Y-102044996D01*
X180666413Y-102044999D01*
X180666413Y-102045000D01*
X180657507Y-102089771D01*
X180631500Y-102220518D01*
X180631500Y-102399481D01*
X180666414Y-102575003D01*
X180678627Y-102604486D01*
X180734898Y-102740336D01*
X180834322Y-102889135D01*
X180960865Y-103015678D01*
X181109664Y-103115102D01*
X181275000Y-103183587D01*
X181450521Y-103218500D01*
X181450522Y-103218500D01*
X181629478Y-103218500D01*
X181629479Y-103218500D01*
X181805000Y-103183587D01*
X181970336Y-103115102D01*
X182119135Y-103015678D01*
X182245678Y-102889135D01*
X182345102Y-102740336D01*
X182413587Y-102575000D01*
X182448500Y-102399479D01*
X182448500Y-102220521D01*
X182413587Y-102045000D01*
X182345102Y-101879664D01*
X182245678Y-101730865D01*
X182210405Y-101695592D01*
X182176379Y-101633280D01*
X182173500Y-101606497D01*
X182173500Y-100115107D01*
X182173499Y-100115103D01*
X182149155Y-99992715D01*
X182101400Y-99877425D01*
X182032071Y-99773667D01*
X181943833Y-99685429D01*
X181086999Y-98828595D01*
X181052973Y-98766283D01*
X181058038Y-98695468D01*
X181100585Y-98638632D01*
X181167105Y-98613821D01*
X181176094Y-98613500D01*
X181845406Y-98613500D01*
X181913527Y-98633502D01*
X181934501Y-98650405D01*
X183839595Y-100555499D01*
X183873621Y-100617811D01*
X183876500Y-100644594D01*
X183876500Y-101616497D01*
X183856498Y-101684618D01*
X183839595Y-101705592D01*
X183804324Y-101740862D01*
X183804319Y-101740869D01*
X183704899Y-101889662D01*
X183636414Y-102054996D01*
X183601500Y-102230518D01*
X183601500Y-102230521D01*
X183601500Y-102409479D01*
X183636413Y-102585000D01*
X183704898Y-102750336D01*
X183804322Y-102899135D01*
X183930865Y-103025678D01*
X184079664Y-103125102D01*
X184245000Y-103193587D01*
X184420521Y-103228500D01*
X184420522Y-103228500D01*
X184599478Y-103228500D01*
X184599479Y-103228500D01*
X184775000Y-103193587D01*
X184940336Y-103125102D01*
X185089135Y-103025678D01*
X185215678Y-102899135D01*
X185259283Y-102833876D01*
X191434500Y-102833876D01*
X191434500Y-103066124D01*
X191470831Y-103295514D01*
X191470832Y-103295518D01*
X191521026Y-103450000D01*
X191542600Y-103516396D01*
X191648039Y-103723331D01*
X191784551Y-103911224D01*
X191784553Y-103911226D01*
X191784555Y-103911229D01*
X191948770Y-104075444D01*
X191948773Y-104075446D01*
X191948776Y-104075449D01*
X192136669Y-104211961D01*
X192343604Y-104317400D01*
X192564486Y-104389169D01*
X192793876Y-104425500D01*
X192793878Y-104425500D01*
X193026122Y-104425500D01*
X193026124Y-104425500D01*
X193255514Y-104389169D01*
X193476396Y-104317400D01*
X193683331Y-104211961D01*
X193871224Y-104075449D01*
X194035449Y-103911224D01*
X194171961Y-103723331D01*
X194277400Y-103516396D01*
X194349169Y-103295514D01*
X194385500Y-103066124D01*
X194385500Y-102833876D01*
X194349169Y-102604486D01*
X194277400Y-102383604D01*
X194171961Y-102176669D01*
X194035449Y-101988776D01*
X194035446Y-101988773D01*
X194035444Y-101988770D01*
X193871229Y-101824555D01*
X193871226Y-101824553D01*
X193871224Y-101824551D01*
X193683331Y-101688039D01*
X193476396Y-101582600D01*
X193476393Y-101582599D01*
X193476391Y-101582598D01*
X193255518Y-101510832D01*
X193255516Y-101510831D01*
X193255514Y-101510831D01*
X193026124Y-101474500D01*
X192793876Y-101474500D01*
X192564486Y-101510831D01*
X192564484Y-101510831D01*
X192564481Y-101510832D01*
X192343608Y-101582598D01*
X192343602Y-101582601D01*
X192136665Y-101688041D01*
X191948773Y-101824553D01*
X191948770Y-101824555D01*
X191784555Y-101988770D01*
X191784553Y-101988773D01*
X191648041Y-102176665D01*
X191542601Y-102383602D01*
X191542598Y-102383608D01*
X191470832Y-102604481D01*
X191470831Y-102604484D01*
X191470831Y-102604486D01*
X191434500Y-102833876D01*
X185259283Y-102833876D01*
X185315102Y-102750336D01*
X185383587Y-102585000D01*
X185418500Y-102409479D01*
X185418500Y-102230521D01*
X185383587Y-102055000D01*
X185315102Y-101889664D01*
X185215678Y-101740865D01*
X185180405Y-101705592D01*
X185146379Y-101643280D01*
X185143500Y-101616497D01*
X185143500Y-100267607D01*
X185143499Y-100267603D01*
X185119155Y-100145215D01*
X185071400Y-100029925D01*
X185002071Y-99926167D01*
X184913833Y-99837929D01*
X182563833Y-97487929D01*
X182460075Y-97418600D01*
X182393723Y-97391116D01*
X189876500Y-97391116D01*
X189876500Y-97608884D01*
X189910566Y-97823970D01*
X189910567Y-97823975D01*
X189977858Y-98031075D01*
X189977860Y-98031080D01*
X190076725Y-98225112D01*
X190204725Y-98401290D01*
X190204727Y-98401292D01*
X190204729Y-98401295D01*
X190358704Y-98555270D01*
X190358707Y-98555272D01*
X190358710Y-98555275D01*
X190534888Y-98683275D01*
X190728920Y-98782140D01*
X190936030Y-98849434D01*
X191151116Y-98883500D01*
X191151119Y-98883500D01*
X191368881Y-98883500D01*
X191368884Y-98883500D01*
X191583970Y-98849434D01*
X191791080Y-98782140D01*
X191985112Y-98683275D01*
X192161290Y-98555275D01*
X192315275Y-98401290D01*
X192443275Y-98225112D01*
X192542140Y-98031080D01*
X192609434Y-97823970D01*
X192643500Y-97608884D01*
X192643500Y-97391116D01*
X192609434Y-97176030D01*
X192542140Y-96968920D01*
X192443275Y-96774888D01*
X192315275Y-96598710D01*
X192315272Y-96598707D01*
X192315270Y-96598704D01*
X192161295Y-96444729D01*
X192161292Y-96444727D01*
X192161290Y-96444725D01*
X192064179Y-96374170D01*
X192020439Y-96342391D01*
X192017043Y-96337987D01*
X192011988Y-96335679D01*
X191995601Y-96310181D01*
X191977085Y-96286169D01*
X191975811Y-96279387D01*
X191973604Y-96275953D01*
X191968500Y-96240455D01*
X191968500Y-96157196D01*
X191978091Y-96108977D01*
X191984042Y-96094611D01*
X192033587Y-95975000D01*
X192068500Y-95799479D01*
X192068500Y-95620521D01*
X192033587Y-95445000D01*
X191965102Y-95279664D01*
X191865678Y-95130865D01*
X191739135Y-95004322D01*
X191590336Y-94904898D01*
X191473429Y-94856473D01*
X191425003Y-94836414D01*
X191425001Y-94836413D01*
X191425000Y-94836413D01*
X191336645Y-94818838D01*
X191249481Y-94801500D01*
X191249479Y-94801500D01*
X191070521Y-94801500D01*
X191070518Y-94801500D01*
X190939771Y-94827507D01*
X190895000Y-94836413D01*
X190894999Y-94836413D01*
X190894996Y-94836414D01*
X190729662Y-94904899D01*
X190580869Y-95004319D01*
X190580862Y-95004324D01*
X190454324Y-95130862D01*
X190454319Y-95130869D01*
X190354899Y-95279662D01*
X190286414Y-95444996D01*
X190251500Y-95620518D01*
X190251500Y-95620521D01*
X190251500Y-95799479D01*
X190286413Y-95975000D01*
X190335128Y-96092608D01*
X190341909Y-96108977D01*
X190343562Y-96117288D01*
X190346396Y-96121698D01*
X190351500Y-96157196D01*
X190351500Y-96399744D01*
X190331498Y-96467865D01*
X190314595Y-96488839D01*
X190204729Y-96598704D01*
X190204727Y-96598707D01*
X190076727Y-96774884D01*
X189977861Y-96968918D01*
X189977858Y-96968924D01*
X189910567Y-97176024D01*
X189910566Y-97176029D01*
X189910566Y-97176030D01*
X189876500Y-97391116D01*
X182393723Y-97391116D01*
X182344785Y-97370845D01*
X182271086Y-97356185D01*
X182222396Y-97346500D01*
X182222394Y-97346500D01*
X177402896Y-97346500D01*
X177334775Y-97326498D01*
X177288282Y-97272842D01*
X177278178Y-97202568D01*
X177298131Y-97150498D01*
X177337154Y-97092095D01*
X177385102Y-97020336D01*
X177453587Y-96855000D01*
X177488500Y-96679479D01*
X177488500Y-96594239D01*
X177508502Y-96526118D01*
X177525405Y-96505144D01*
X182359094Y-91671455D01*
X185699500Y-91671455D01*
X185699500Y-91868544D01*
X185737949Y-92061835D01*
X185737950Y-92061838D01*
X185794643Y-92198707D01*
X185813368Y-92243914D01*
X185922861Y-92407782D01*
X186062218Y-92547139D01*
X186226086Y-92656632D01*
X186408165Y-92732051D01*
X186601459Y-92770500D01*
X186798541Y-92770500D01*
X186991835Y-92732051D01*
X187173914Y-92656632D01*
X187337782Y-92547139D01*
X187477139Y-92407782D01*
X187586632Y-92243914D01*
X187662051Y-92061835D01*
X187700500Y-91868541D01*
X187700500Y-91676381D01*
X190249500Y-91676381D01*
X190249500Y-91863618D01*
X190276413Y-91998918D01*
X190286027Y-92047251D01*
X190357678Y-92220231D01*
X190461698Y-92375908D01*
X190594092Y-92508302D01*
X190749769Y-92612322D01*
X190922749Y-92683973D01*
X191106384Y-92720500D01*
X191106385Y-92720500D01*
X191293615Y-92720500D01*
X191293616Y-92720500D01*
X191477251Y-92683973D01*
X191650231Y-92612322D01*
X191805908Y-92508302D01*
X191938302Y-92375908D01*
X192042322Y-92220231D01*
X192113973Y-92047251D01*
X192150500Y-91863616D01*
X192150500Y-91676384D01*
X192113973Y-91492749D01*
X192042322Y-91319769D01*
X191938302Y-91164092D01*
X191805908Y-91031698D01*
X191650231Y-90927678D01*
X191492511Y-90862348D01*
X191477256Y-90856029D01*
X191477251Y-90856027D01*
X191293618Y-90819500D01*
X191293616Y-90819500D01*
X191106384Y-90819500D01*
X191106381Y-90819500D01*
X190922748Y-90856027D01*
X190922743Y-90856029D01*
X190749769Y-90927678D01*
X190594096Y-91031695D01*
X190594089Y-91031700D01*
X190461700Y-91164089D01*
X190461695Y-91164096D01*
X190357678Y-91319769D01*
X190286029Y-91492743D01*
X190286027Y-91492748D01*
X190249500Y-91676381D01*
X187700500Y-91676381D01*
X187700500Y-91671459D01*
X187662051Y-91478165D01*
X187586632Y-91296086D01*
X187477139Y-91132218D01*
X187337782Y-90992861D01*
X187173914Y-90883368D01*
X187116856Y-90859734D01*
X186991838Y-90807950D01*
X186991835Y-90807949D01*
X186798544Y-90769500D01*
X186798541Y-90769500D01*
X186601459Y-90769500D01*
X186601455Y-90769500D01*
X186408164Y-90807949D01*
X186408161Y-90807950D01*
X186226085Y-90883368D01*
X186062222Y-90992858D01*
X186062215Y-90992863D01*
X185922863Y-91132215D01*
X185922858Y-91132222D01*
X185813368Y-91296085D01*
X185737950Y-91478161D01*
X185737949Y-91478164D01*
X185699500Y-91671455D01*
X182359094Y-91671455D01*
X182454375Y-91576174D01*
X187011953Y-87018597D01*
X189802000Y-87018597D01*
X189808505Y-87079093D01*
X189859555Y-87215964D01*
X189859555Y-87215965D01*
X189947095Y-87332904D01*
X190064034Y-87420444D01*
X190200906Y-87471494D01*
X190261402Y-87477999D01*
X190261415Y-87478000D01*
X190956000Y-87478000D01*
X191464000Y-87478000D01*
X192158585Y-87478000D01*
X192158597Y-87477999D01*
X192219093Y-87471494D01*
X192355964Y-87420444D01*
X192355965Y-87420444D01*
X192472904Y-87332904D01*
X192560444Y-87215965D01*
X192560444Y-87215964D01*
X192611494Y-87079093D01*
X192617999Y-87018597D01*
X192618000Y-87018585D01*
X192618000Y-86324000D01*
X191464000Y-86324000D01*
X191464000Y-87478000D01*
X190956000Y-87478000D01*
X190956000Y-86324000D01*
X189802000Y-86324000D01*
X189802000Y-87018597D01*
X187011953Y-87018597D01*
X187847836Y-86182714D01*
X188909148Y-85121402D01*
X189802000Y-85121402D01*
X189802000Y-85816000D01*
X190956000Y-85816000D01*
X191464000Y-85816000D01*
X192618000Y-85816000D01*
X192618000Y-85121414D01*
X192617999Y-85121402D01*
X192611494Y-85060906D01*
X192560444Y-84924035D01*
X192560444Y-84924034D01*
X192472904Y-84807095D01*
X192355965Y-84719555D01*
X192219093Y-84668505D01*
X192158597Y-84662000D01*
X191464000Y-84662000D01*
X191464000Y-85816000D01*
X190956000Y-85816000D01*
X190956000Y-84662000D01*
X190261402Y-84662000D01*
X190200906Y-84668505D01*
X190064035Y-84719555D01*
X190064034Y-84719555D01*
X189947095Y-84807095D01*
X189859555Y-84924034D01*
X189859555Y-84924035D01*
X189808505Y-85060906D01*
X189802000Y-85121402D01*
X188909148Y-85121402D01*
X189001610Y-85028940D01*
X189866916Y-84163633D01*
X189866922Y-84163627D01*
X189947032Y-84024872D01*
X189988500Y-83870110D01*
X189988500Y-83709889D01*
X189988500Y-83653084D01*
X193331500Y-83653084D01*
X193331500Y-83866916D01*
X193355984Y-84021500D01*
X193364952Y-84078121D01*
X193431026Y-84281478D01*
X193431028Y-84281483D01*
X193528106Y-84472009D01*
X193653794Y-84645004D01*
X193653796Y-84645006D01*
X193653798Y-84645009D01*
X193804990Y-84796201D01*
X193804993Y-84796203D01*
X193804996Y-84796206D01*
X193977991Y-84921894D01*
X194168517Y-85018972D01*
X194371878Y-85085047D01*
X194371879Y-85085047D01*
X194371884Y-85085049D01*
X194583084Y-85118500D01*
X194583087Y-85118500D01*
X194796913Y-85118500D01*
X194796916Y-85118500D01*
X195008116Y-85085049D01*
X195211483Y-85018972D01*
X195402009Y-84921894D01*
X195575004Y-84796206D01*
X195726206Y-84645004D01*
X195851894Y-84472009D01*
X195948972Y-84281483D01*
X196015049Y-84078116D01*
X196048500Y-83866916D01*
X196048500Y-83653084D01*
X196015049Y-83441884D01*
X195948972Y-83238517D01*
X195851894Y-83047991D01*
X195726206Y-82874996D01*
X195726203Y-82874993D01*
X195726201Y-82874990D01*
X195622840Y-82771629D01*
X195588814Y-82709317D01*
X195593879Y-82638502D01*
X195636426Y-82581666D01*
X195667903Y-82564478D01*
X195785965Y-82520444D01*
X195902904Y-82432904D01*
X195990444Y-82315965D01*
X195990444Y-82315964D01*
X196041494Y-82179093D01*
X196047999Y-82118597D01*
X196048000Y-82118585D01*
X196048000Y-81474000D01*
X195120703Y-81474000D01*
X195155925Y-81412993D01*
X195190000Y-81285826D01*
X195190000Y-81154174D01*
X195155925Y-81027007D01*
X195120703Y-80966000D01*
X196048000Y-80966000D01*
X196048000Y-80321414D01*
X196047999Y-80321402D01*
X196041494Y-80260906D01*
X195990444Y-80124035D01*
X195990444Y-80124034D01*
X195902904Y-80007095D01*
X195785965Y-79919555D01*
X195649093Y-79868505D01*
X195588597Y-79862000D01*
X194944000Y-79862000D01*
X194944000Y-80789297D01*
X194882993Y-80754075D01*
X194755826Y-80720000D01*
X194624174Y-80720000D01*
X194497007Y-80754075D01*
X194436000Y-80789297D01*
X194436000Y-79862000D01*
X193791402Y-79862000D01*
X193730906Y-79868505D01*
X193594035Y-79919555D01*
X193594034Y-79919555D01*
X193477095Y-80007095D01*
X193389555Y-80124034D01*
X193389555Y-80124035D01*
X193338505Y-80260906D01*
X193332000Y-80321402D01*
X193332000Y-80966000D01*
X194259297Y-80966000D01*
X194224075Y-81027007D01*
X194190000Y-81154174D01*
X194190000Y-81285826D01*
X194224075Y-81412993D01*
X194259297Y-81474000D01*
X193332000Y-81474000D01*
X193332000Y-82118597D01*
X193338505Y-82179093D01*
X193389555Y-82315964D01*
X193389555Y-82315965D01*
X193477095Y-82432904D01*
X193594034Y-82520444D01*
X193712096Y-82564478D01*
X193768932Y-82607024D01*
X193793743Y-82673545D01*
X193778652Y-82742919D01*
X193757160Y-82771629D01*
X193653794Y-82874995D01*
X193528108Y-83047987D01*
X193431029Y-83238515D01*
X193431026Y-83238521D01*
X193364952Y-83441878D01*
X193364951Y-83441883D01*
X193364951Y-83441884D01*
X193331500Y-83653084D01*
X189988500Y-83653084D01*
X189988500Y-78917082D01*
X190008502Y-78848961D01*
X190025406Y-78827985D01*
X190028003Y-78825389D01*
X190116483Y-78692968D01*
X190177430Y-78545831D01*
X190208500Y-78389630D01*
X190208500Y-78230370D01*
X190177430Y-78074169D01*
X190116483Y-77927032D01*
X190028003Y-77794611D01*
X190028001Y-77794609D01*
X190027996Y-77794603D01*
X189915396Y-77682003D01*
X189915390Y-77681998D01*
X189915389Y-77681997D01*
X189782968Y-77593517D01*
X189635831Y-77532570D01*
X189557730Y-77517035D01*
X189479632Y-77501500D01*
X189479630Y-77501500D01*
X189320370Y-77501500D01*
X189320367Y-77501500D01*
X189203219Y-77524802D01*
X189164169Y-77532570D01*
X189164167Y-77532571D01*
X189017032Y-77593517D01*
X188884609Y-77681998D01*
X188884603Y-77682003D01*
X188772003Y-77794603D01*
X188771998Y-77794609D01*
X188683517Y-77927032D01*
X188622571Y-78074167D01*
X188622570Y-78074170D01*
X188591500Y-78230367D01*
X188591500Y-78389635D01*
X188606193Y-78463499D01*
X188599865Y-78534213D01*
X188556310Y-78590280D01*
X188489358Y-78613899D01*
X188420264Y-78597572D01*
X188373495Y-78551080D01*
X188338518Y-78490498D01*
X188338510Y-78490488D01*
X188229511Y-78381489D01*
X188229501Y-78381481D01*
X188095994Y-78304401D01*
X187947083Y-78264500D01*
X187792917Y-78264500D01*
X187693643Y-78291100D01*
X187644005Y-78304401D01*
X187510498Y-78381481D01*
X187510488Y-78381489D01*
X187401489Y-78490488D01*
X187401481Y-78490498D01*
X187324401Y-78624005D01*
X187311579Y-78671858D01*
X187286064Y-78767082D01*
X187284500Y-78772918D01*
X187284500Y-78927081D01*
X187284499Y-78927081D01*
X187284500Y-78927083D01*
X187324401Y-79075994D01*
X187354722Y-79128511D01*
X187370761Y-79156292D01*
X187387498Y-79225287D01*
X187364277Y-79292379D01*
X187308470Y-79336266D01*
X187237795Y-79343014D01*
X187191639Y-79324056D01*
X187069178Y-79242230D01*
X186888918Y-79167564D01*
X186697558Y-79129500D01*
X186697556Y-79129500D01*
X186502444Y-79129500D01*
X186502441Y-79129500D01*
X186311081Y-79167564D01*
X186311076Y-79167566D01*
X186130821Y-79242230D01*
X186008360Y-79324056D01*
X185940607Y-79345271D01*
X185872140Y-79326488D01*
X185824697Y-79273670D01*
X185813340Y-79203588D01*
X185829239Y-79156291D01*
X185834461Y-79147247D01*
X185875599Y-79075994D01*
X185915500Y-78927083D01*
X185915500Y-78772917D01*
X185875599Y-78624006D01*
X185798516Y-78490495D01*
X185798514Y-78490493D01*
X185798510Y-78490488D01*
X185689511Y-78381489D01*
X185689501Y-78381481D01*
X185555994Y-78304401D01*
X185407083Y-78264500D01*
X185252917Y-78264500D01*
X185104006Y-78304401D01*
X185002308Y-78363116D01*
X184933313Y-78379853D01*
X184866221Y-78356632D01*
X184834544Y-78323998D01*
X184821449Y-78304401D01*
X184785678Y-78250865D01*
X184659135Y-78124322D01*
X184510336Y-78024898D01*
X184365031Y-77964710D01*
X184345003Y-77956414D01*
X184345001Y-77956413D01*
X184345000Y-77956413D01*
X184256645Y-77938838D01*
X184169481Y-77921500D01*
X184169479Y-77921500D01*
X183990521Y-77921500D01*
X183990518Y-77921500D01*
X183859771Y-77947507D01*
X183815000Y-77956413D01*
X183814999Y-77956413D01*
X183814996Y-77956414D01*
X183649662Y-78024899D01*
X183500869Y-78124319D01*
X183500862Y-78124324D01*
X183374324Y-78250862D01*
X183374318Y-78250869D01*
X183314320Y-78340663D01*
X183259843Y-78386191D01*
X183189399Y-78395038D01*
X183146555Y-78379780D01*
X183015994Y-78304401D01*
X182867083Y-78264500D01*
X182712917Y-78264500D01*
X182613643Y-78291100D01*
X182564005Y-78304401D01*
X182430498Y-78381481D01*
X182430488Y-78381489D01*
X182321489Y-78490488D01*
X182321481Y-78490498D01*
X182244401Y-78624005D01*
X182231579Y-78671858D01*
X182206064Y-78767082D01*
X182204500Y-78772918D01*
X182204500Y-78927081D01*
X182204499Y-78927081D01*
X182244401Y-79075994D01*
X182321481Y-79209501D01*
X182321489Y-79209511D01*
X182430488Y-79318510D01*
X182430492Y-79318513D01*
X182430495Y-79318516D01*
X182478759Y-79346381D01*
X182527752Y-79397763D01*
X182541189Y-79467476D01*
X182514802Y-79533387D01*
X182504854Y-79544595D01*
X181163083Y-80886366D01*
X181163075Y-80886376D01*
X181082967Y-81025127D01*
X181082968Y-81025128D01*
X181042384Y-81176589D01*
X181005432Y-81237212D01*
X180941571Y-81268233D01*
X180871077Y-81259805D01*
X180816330Y-81214602D01*
X180798970Y-81176589D01*
X180795599Y-81164006D01*
X180718516Y-81030495D01*
X180718514Y-81030493D01*
X180718510Y-81030488D01*
X180609511Y-80921489D01*
X180609501Y-80921481D01*
X180475994Y-80844401D01*
X180467907Y-80842234D01*
X180327083Y-80804500D01*
X180172917Y-80804500D01*
X180073643Y-80831100D01*
X180024005Y-80844401D01*
X179890498Y-80921481D01*
X179890488Y-80921489D01*
X179781489Y-81030488D01*
X179781481Y-81030498D01*
X179704401Y-81164005D01*
X179701029Y-81176589D01*
X179672008Y-81284899D01*
X179664500Y-81312918D01*
X179664500Y-81467081D01*
X179664499Y-81467081D01*
X179704401Y-81615994D01*
X179781481Y-81749501D01*
X179781489Y-81749511D01*
X179890488Y-81858510D01*
X179890493Y-81858514D01*
X179890495Y-81858516D01*
X179890496Y-81858517D01*
X179890498Y-81858518D01*
X179907500Y-81868334D01*
X180024006Y-81935599D01*
X180172917Y-81975500D01*
X180172919Y-81975500D01*
X180327081Y-81975500D01*
X180327083Y-81975500D01*
X180475994Y-81935599D01*
X180609505Y-81858516D01*
X180718516Y-81749505D01*
X180795599Y-81615994D01*
X180795599Y-81615991D01*
X180795601Y-81615989D01*
X180798761Y-81608362D01*
X180801791Y-81609617D01*
X180830727Y-81562126D01*
X180894581Y-81531092D01*
X180965078Y-81539507D01*
X181019833Y-81584699D01*
X181041464Y-81652320D01*
X181041500Y-81655343D01*
X181041500Y-84325760D01*
X181021498Y-84393881D01*
X181004595Y-84414855D01*
X177348083Y-88071366D01*
X177348075Y-88071376D01*
X177267970Y-88210122D01*
X177267967Y-88210129D01*
X177250071Y-88276921D01*
X177226500Y-88364890D01*
X177226500Y-90911497D01*
X177206498Y-90979618D01*
X177189595Y-91000592D01*
X177129324Y-91060862D01*
X177129319Y-91060869D01*
X177049341Y-91180566D01*
X177029898Y-91209664D01*
X177015716Y-91243902D01*
X176961414Y-91374996D01*
X176961413Y-91374999D01*
X176961413Y-91375000D01*
X176955446Y-91405000D01*
X176926500Y-91550518D01*
X176926500Y-91585500D01*
X176906498Y-91653621D01*
X176852842Y-91700114D01*
X176800500Y-91711500D01*
X173779500Y-91711500D01*
X173711379Y-91691498D01*
X173664886Y-91637842D01*
X173653500Y-91585500D01*
X173653500Y-91430522D01*
X173653499Y-91430518D01*
X173618587Y-91255000D01*
X173550102Y-91089664D01*
X173450678Y-90940865D01*
X173324135Y-90814322D01*
X173175336Y-90714898D01*
X173056174Y-90665539D01*
X173010003Y-90646414D01*
X173010001Y-90646413D01*
X173010000Y-90646413D01*
X172901836Y-90624898D01*
X172834481Y-90611500D01*
X172834479Y-90611500D01*
X172749239Y-90611500D01*
X172681118Y-90591498D01*
X172660144Y-90574595D01*
X168488633Y-86403083D01*
X168488623Y-86403075D01*
X168349877Y-86322970D01*
X168349875Y-86322969D01*
X168349873Y-86322968D01*
X168195110Y-86281500D01*
X168034890Y-86281500D01*
X168034887Y-86281500D01*
X168013589Y-86287207D01*
X167980980Y-86291500D01*
X154154239Y-86291500D01*
X154086118Y-86271498D01*
X154065144Y-86254595D01*
X152712376Y-84901827D01*
X152678350Y-84839515D01*
X152677892Y-84837314D01*
X152669715Y-84796206D01*
X152647430Y-84684169D01*
X152586483Y-84537032D01*
X152498003Y-84404611D01*
X152498001Y-84404609D01*
X152497996Y-84404603D01*
X152385396Y-84292003D01*
X152385390Y-84291998D01*
X152385389Y-84291997D01*
X152252968Y-84203517D01*
X152105831Y-84142570D01*
X152027730Y-84127035D01*
X151949632Y-84111500D01*
X151949630Y-84111500D01*
X151790370Y-84111500D01*
X151790367Y-84111500D01*
X151673219Y-84134802D01*
X151634169Y-84142570D01*
X151583334Y-84163627D01*
X151487032Y-84203517D01*
X151354609Y-84291998D01*
X151354603Y-84292003D01*
X151242003Y-84404603D01*
X151241998Y-84404609D01*
X151187683Y-84485898D01*
X151153517Y-84537032D01*
X151092570Y-84684169D01*
X151087410Y-84710110D01*
X151061500Y-84840367D01*
X151061500Y-84999632D01*
X151067330Y-85028940D01*
X151092570Y-85155831D01*
X151153517Y-85302968D01*
X151225108Y-85410112D01*
X151241998Y-85435390D01*
X151242003Y-85435396D01*
X151354603Y-85547996D01*
X151354609Y-85548001D01*
X151354611Y-85548003D01*
X151487032Y-85636483D01*
X151634169Y-85697430D01*
X151787314Y-85727892D01*
X151850223Y-85760800D01*
X151851827Y-85762376D01*
X153476366Y-87386916D01*
X153476370Y-87386919D01*
X153476373Y-87386922D01*
X153527384Y-87416373D01*
X153615128Y-87467032D01*
X153769889Y-87508500D01*
X153769890Y-87508500D01*
X153930110Y-87508500D01*
X163696761Y-87508500D01*
X163764882Y-87528502D01*
X163811375Y-87582158D01*
X163821479Y-87652432D01*
X163791985Y-87717012D01*
X163785871Y-87723579D01*
X162661108Y-88848342D01*
X162313038Y-89196412D01*
X162250726Y-89230437D01*
X162185007Y-89227149D01*
X162133970Y-89210566D01*
X161918884Y-89176500D01*
X161701116Y-89176500D01*
X161486030Y-89210566D01*
X161486024Y-89210567D01*
X161278924Y-89277858D01*
X161278918Y-89277861D01*
X161084884Y-89376727D01*
X160908708Y-89504725D01*
X160862025Y-89551409D01*
X160799712Y-89585434D01*
X160728896Y-89580368D01*
X160672061Y-89537821D01*
X160654874Y-89506345D01*
X160620444Y-89414034D01*
X160532904Y-89297095D01*
X160415965Y-89209555D01*
X160279093Y-89158505D01*
X160218597Y-89152000D01*
X159524000Y-89152000D01*
X159524000Y-90434000D01*
X159503998Y-90502121D01*
X159450342Y-90548614D01*
X159398000Y-90560000D01*
X159270000Y-90560000D01*
X159270000Y-90688000D01*
X159249998Y-90756121D01*
X159196342Y-90802614D01*
X159144000Y-90814000D01*
X157862000Y-90814000D01*
X157862000Y-91508597D01*
X157868505Y-91569093D01*
X157919555Y-91705964D01*
X157919555Y-91705965D01*
X158007095Y-91822904D01*
X158124034Y-91910444D01*
X158205162Y-91940703D01*
X158261998Y-91983250D01*
X158286809Y-92049770D01*
X158271718Y-92119144D01*
X158250226Y-92147854D01*
X158205657Y-92192423D01*
X158075345Y-92371781D01*
X157974693Y-92569322D01*
X157974690Y-92569328D01*
X157906183Y-92780170D01*
X157906182Y-92780175D01*
X157906182Y-92780176D01*
X157871500Y-92999149D01*
X157871500Y-93220851D01*
X157906182Y-93439824D01*
X157906183Y-93439829D01*
X157974690Y-93650671D01*
X157974692Y-93650676D01*
X157991146Y-93682968D01*
X158022279Y-93744070D01*
X158035383Y-93813847D01*
X158008683Y-93879632D01*
X157950655Y-93920538D01*
X157879724Y-93923578D01*
X157820917Y-93890368D01*
X157212376Y-93281827D01*
X157178350Y-93219515D01*
X157177892Y-93217314D01*
X157176215Y-93208884D01*
X157147430Y-93064169D01*
X157086483Y-92917032D01*
X156998003Y-92784611D01*
X156998001Y-92784609D01*
X156997996Y-92784603D01*
X156885396Y-92672003D01*
X156885390Y-92671998D01*
X156862393Y-92656632D01*
X156752968Y-92583517D01*
X156605831Y-92522570D01*
X156522914Y-92506077D01*
X156449632Y-92491500D01*
X156449630Y-92491500D01*
X156290370Y-92491500D01*
X156290367Y-92491500D01*
X156183548Y-92512748D01*
X156134169Y-92522570D01*
X156021287Y-92569328D01*
X155987032Y-92583517D01*
X155854609Y-92671998D01*
X155854603Y-92672003D01*
X155742003Y-92784603D01*
X155741998Y-92784609D01*
X155653517Y-92917032D01*
X155592571Y-93064167D01*
X155592570Y-93064170D01*
X155561500Y-93220367D01*
X155561500Y-93220370D01*
X155561500Y-93379630D01*
X155592570Y-93535831D01*
X155653517Y-93682968D01*
X155694344Y-93744070D01*
X155741998Y-93815390D01*
X155742003Y-93815396D01*
X155854603Y-93927996D01*
X155854609Y-93928001D01*
X155854611Y-93928003D01*
X155987032Y-94016483D01*
X156134169Y-94077430D01*
X156287314Y-94107892D01*
X156350223Y-94140800D01*
X156351827Y-94142376D01*
X158344595Y-96135144D01*
X158378621Y-96197456D01*
X158380348Y-96213527D01*
X158380894Y-96213474D01*
X158381500Y-96219632D01*
X158385642Y-96240455D01*
X158412570Y-96375831D01*
X158473517Y-96522968D01*
X158532672Y-96611500D01*
X158561998Y-96655390D01*
X158562003Y-96655396D01*
X158674603Y-96767996D01*
X158674609Y-96768001D01*
X158674611Y-96768003D01*
X158807032Y-96856483D01*
X158954169Y-96917430D01*
X159110370Y-96948500D01*
X159110371Y-96948500D01*
X159269629Y-96948500D01*
X159269630Y-96948500D01*
X159425831Y-96917430D01*
X159572968Y-96856483D01*
X159705389Y-96768003D01*
X159818003Y-96655389D01*
X159906483Y-96522968D01*
X159967430Y-96375831D01*
X159998500Y-96219630D01*
X159998500Y-96060370D01*
X159967430Y-95904169D01*
X159906483Y-95757032D01*
X159818003Y-95624611D01*
X159818001Y-95624609D01*
X159817996Y-95624603D01*
X159705396Y-95512003D01*
X159705390Y-95511998D01*
X159705389Y-95511997D01*
X159572968Y-95423517D01*
X159425831Y-95362570D01*
X159377973Y-95353050D01*
X159297651Y-95337073D01*
X159234741Y-95304165D01*
X159233138Y-95302589D01*
X158499631Y-94569082D01*
X158465605Y-94506770D01*
X158470670Y-94435955D01*
X158513217Y-94379119D01*
X158579737Y-94354308D01*
X158645925Y-94367719D01*
X158739324Y-94415308D01*
X158950176Y-94483818D01*
X159169149Y-94518500D01*
X159169152Y-94518500D01*
X159390848Y-94518500D01*
X159390851Y-94518500D01*
X159582696Y-94488114D01*
X159653102Y-94497213D01*
X159691497Y-94523468D01*
X162299434Y-97131405D01*
X162333460Y-97193717D01*
X162328395Y-97264532D01*
X162285848Y-97321368D01*
X162219328Y-97346179D01*
X162210339Y-97346500D01*
X151304595Y-97346500D01*
X151236474Y-97326498D01*
X151215500Y-97309595D01*
X148510405Y-94604500D01*
X148476379Y-94542188D01*
X148473500Y-94515405D01*
X148473500Y-91988107D01*
X148473499Y-91988103D01*
X148466409Y-91952458D01*
X148449155Y-91865715D01*
X148429333Y-91817860D01*
X148401401Y-91750425D01*
X148362951Y-91692881D01*
X148341737Y-91625131D01*
X148360520Y-91556664D01*
X148413337Y-91509220D01*
X148480068Y-91497488D01*
X148485266Y-91498000D01*
X148624731Y-91498000D01*
X148624734Y-91497999D01*
X148761516Y-91470791D01*
X148761522Y-91470789D01*
X148890359Y-91417423D01*
X148890365Y-91417421D01*
X148895887Y-91413729D01*
X149374111Y-91413729D01*
X149374111Y-91413730D01*
X149379638Y-91417423D01*
X149508477Y-91470789D01*
X149508483Y-91470791D01*
X149645265Y-91497999D01*
X149645269Y-91498000D01*
X149784731Y-91498000D01*
X149784734Y-91497999D01*
X149921516Y-91470791D01*
X149921522Y-91470789D01*
X150050359Y-91417423D01*
X150050365Y-91417421D01*
X150055888Y-91413729D01*
X149715001Y-91072842D01*
X149715000Y-91072842D01*
X149374111Y-91413729D01*
X148895887Y-91413729D01*
X148413579Y-90931422D01*
X148413579Y-90931421D01*
X148309066Y-90826908D01*
X148309061Y-90826904D01*
X148252266Y-90770109D01*
X148455000Y-90770109D01*
X148455000Y-90809891D01*
X148470224Y-90846645D01*
X148498355Y-90874776D01*
X148535109Y-90890000D01*
X148574891Y-90890000D01*
X148611645Y-90874776D01*
X148639776Y-90846645D01*
X148655000Y-90809891D01*
X148655000Y-90789999D01*
X148837842Y-90789999D01*
X149135000Y-91087157D01*
X149135001Y-91087157D01*
X149432157Y-90790001D01*
X149432157Y-90789999D01*
X149412267Y-90770109D01*
X149615000Y-90770109D01*
X149615000Y-90809891D01*
X149630224Y-90846645D01*
X149658355Y-90874776D01*
X149695109Y-90890000D01*
X149734891Y-90890000D01*
X149771645Y-90874776D01*
X149799776Y-90846645D01*
X149815000Y-90809891D01*
X149815000Y-90789999D01*
X149997842Y-90789999D01*
X149997842Y-90790001D01*
X150338729Y-91130888D01*
X150342421Y-91125365D01*
X150342423Y-91125359D01*
X150395789Y-90996522D01*
X150395791Y-90996516D01*
X150422999Y-90859734D01*
X150423000Y-90859730D01*
X150423000Y-90720269D01*
X150422999Y-90720265D01*
X150395791Y-90583483D01*
X150395789Y-90583477D01*
X150342423Y-90454638D01*
X150338729Y-90449111D01*
X149997842Y-90789999D01*
X149815000Y-90789999D01*
X149815000Y-90770109D01*
X149799776Y-90733355D01*
X149771645Y-90705224D01*
X149734891Y-90690000D01*
X149695109Y-90690000D01*
X149658355Y-90705224D01*
X149630224Y-90733355D01*
X149615000Y-90770109D01*
X149412267Y-90770109D01*
X149135000Y-90492842D01*
X149134999Y-90492842D01*
X148837842Y-90789999D01*
X148655000Y-90789999D01*
X148655000Y-90770109D01*
X148639776Y-90733355D01*
X148611645Y-90705224D01*
X148574891Y-90690000D01*
X148535109Y-90690000D01*
X148498355Y-90705224D01*
X148470224Y-90733355D01*
X148455000Y-90770109D01*
X148252266Y-90770109D01*
X147931269Y-90449111D01*
X147927580Y-90454633D01*
X147927577Y-90454637D01*
X147874210Y-90583478D01*
X147874206Y-90583490D01*
X147862586Y-90641905D01*
X147829678Y-90704814D01*
X147767982Y-90739944D01*
X147697087Y-90736143D01*
X147639502Y-90694616D01*
X147622599Y-90665539D01*
X147574602Y-90549664D01*
X147475178Y-90400865D01*
X147348635Y-90274322D01*
X147337146Y-90266645D01*
X147332746Y-90263705D01*
X147332738Y-90263700D01*
X147252369Y-90209999D01*
X148257842Y-90209999D01*
X148555000Y-90507157D01*
X148555001Y-90507157D01*
X148852157Y-90210001D01*
X148852157Y-90209999D01*
X148832267Y-90190109D01*
X149035000Y-90190109D01*
X149035000Y-90229891D01*
X149050224Y-90266645D01*
X149078355Y-90294776D01*
X149115109Y-90310000D01*
X149154891Y-90310000D01*
X149191645Y-90294776D01*
X149219776Y-90266645D01*
X149235000Y-90229891D01*
X149235000Y-90209999D01*
X149417842Y-90209999D01*
X149715000Y-90507157D01*
X149715001Y-90507157D01*
X150012157Y-90210001D01*
X150012157Y-90209999D01*
X149715000Y-89912842D01*
X149714999Y-89912842D01*
X149417842Y-90209999D01*
X149235000Y-90209999D01*
X149235000Y-90190109D01*
X149219776Y-90153355D01*
X149191645Y-90125224D01*
X149154891Y-90110000D01*
X149115109Y-90110000D01*
X149078355Y-90125224D01*
X149050224Y-90153355D01*
X149035000Y-90190109D01*
X148832267Y-90190109D01*
X148555000Y-89912842D01*
X148554999Y-89912842D01*
X148257842Y-90209999D01*
X147252369Y-90209999D01*
X147199836Y-90174898D01*
X147170607Y-90162791D01*
X147161814Y-90157318D01*
X147144797Y-90138244D01*
X147124893Y-90122205D01*
X147121564Y-90112204D01*
X147114549Y-90104341D01*
X147110545Y-90079096D01*
X147102473Y-90054841D01*
X147105079Y-90044628D01*
X147103429Y-90034220D01*
X147113710Y-90010815D01*
X147120032Y-89986050D01*
X147130522Y-89972546D01*
X147131984Y-89969219D01*
X147134301Y-89967681D01*
X147139298Y-89961250D01*
X147631905Y-89468643D01*
X147694217Y-89434617D01*
X147765032Y-89439682D01*
X147821868Y-89482229D01*
X147846679Y-89548749D01*
X147847000Y-89557738D01*
X147847000Y-89699734D01*
X147874208Y-89836516D01*
X147874210Y-89836521D01*
X147927578Y-89965364D01*
X147927580Y-89965368D01*
X147931269Y-89970888D01*
X148292049Y-89610109D01*
X148455000Y-89610109D01*
X148455000Y-89649891D01*
X148470224Y-89686645D01*
X148498355Y-89714776D01*
X148535109Y-89730000D01*
X148574891Y-89730000D01*
X148611645Y-89714776D01*
X148639776Y-89686645D01*
X148655000Y-89649891D01*
X148655000Y-89629999D01*
X148837842Y-89629999D01*
X149135000Y-89927157D01*
X149135001Y-89927157D01*
X149432157Y-89630001D01*
X149432157Y-89629999D01*
X149412267Y-89610109D01*
X149615000Y-89610109D01*
X149615000Y-89649891D01*
X149630224Y-89686645D01*
X149658355Y-89714776D01*
X149695109Y-89730000D01*
X149734891Y-89730000D01*
X149771645Y-89714776D01*
X149799776Y-89686645D01*
X149815000Y-89649891D01*
X149815000Y-89629999D01*
X149997842Y-89629999D01*
X149997842Y-89630001D01*
X150338729Y-89970888D01*
X150342421Y-89965365D01*
X150342423Y-89965359D01*
X150395789Y-89836522D01*
X150395791Y-89836516D01*
X150422999Y-89699734D01*
X150423000Y-89699730D01*
X150423000Y-89611402D01*
X157862000Y-89611402D01*
X157862000Y-90306000D01*
X159016000Y-90306000D01*
X159016000Y-89152000D01*
X158321402Y-89152000D01*
X158260906Y-89158505D01*
X158124035Y-89209555D01*
X158124034Y-89209555D01*
X158007095Y-89297095D01*
X157919555Y-89414034D01*
X157919555Y-89414035D01*
X157868505Y-89550906D01*
X157862000Y-89611402D01*
X150423000Y-89611402D01*
X150423000Y-89560269D01*
X150422999Y-89560265D01*
X150395791Y-89423483D01*
X150395789Y-89423477D01*
X150342423Y-89294638D01*
X150338729Y-89289111D01*
X149997842Y-89629999D01*
X149815000Y-89629999D01*
X149815000Y-89610109D01*
X149799776Y-89573355D01*
X149771645Y-89545224D01*
X149734891Y-89530000D01*
X149695109Y-89530000D01*
X149658355Y-89545224D01*
X149630224Y-89573355D01*
X149615000Y-89610109D01*
X149412267Y-89610109D01*
X149135000Y-89332842D01*
X149134999Y-89332842D01*
X148837842Y-89629999D01*
X148655000Y-89629999D01*
X148655000Y-89610109D01*
X148639776Y-89573355D01*
X148611645Y-89545224D01*
X148574891Y-89530000D01*
X148535109Y-89530000D01*
X148498355Y-89545224D01*
X148470224Y-89573355D01*
X148455000Y-89610109D01*
X148292049Y-89610109D01*
X148413444Y-89488714D01*
X148895888Y-89006269D01*
X149374111Y-89006269D01*
X149715000Y-89347157D01*
X149715001Y-89347157D01*
X150055888Y-89006269D01*
X150055888Y-89006268D01*
X150050368Y-89002580D01*
X150050364Y-89002578D01*
X149921521Y-88949210D01*
X149921516Y-88949208D01*
X149784734Y-88922000D01*
X149645265Y-88922000D01*
X149508483Y-88949208D01*
X149508478Y-88949210D01*
X149379637Y-89002577D01*
X149379633Y-89002580D01*
X149374111Y-89006269D01*
X148895888Y-89006269D01*
X148895888Y-89006268D01*
X148890368Y-89002580D01*
X148890364Y-89002578D01*
X148761521Y-88949210D01*
X148761516Y-88949208D01*
X148624734Y-88922000D01*
X148482739Y-88922000D01*
X148461151Y-88915661D01*
X148438707Y-88914056D01*
X148427750Y-88905854D01*
X148414618Y-88901998D01*
X148399882Y-88884992D01*
X148381871Y-88871509D01*
X148377088Y-88858686D01*
X148368125Y-88848342D01*
X148364922Y-88826069D01*
X148357060Y-88804989D01*
X148359968Y-88791616D01*
X148358021Y-88778068D01*
X148367368Y-88757601D01*
X148372151Y-88735615D01*
X148385636Y-88717601D01*
X148387515Y-88713488D01*
X148393644Y-88706905D01*
X148570266Y-88530283D01*
X148632578Y-88496257D01*
X148659361Y-88493378D01*
X149722080Y-88493378D01*
X149790201Y-88513380D01*
X149792037Y-88514583D01*
X149921910Y-88601361D01*
X150069047Y-88662308D01*
X150225248Y-88693378D01*
X150225249Y-88693378D01*
X150384507Y-88693378D01*
X150384508Y-88693378D01*
X150540709Y-88662308D01*
X150687846Y-88601361D01*
X150820267Y-88512881D01*
X150932881Y-88400267D01*
X151021361Y-88267846D01*
X151082308Y-88120709D01*
X151113378Y-87964508D01*
X151113378Y-87805248D01*
X151082308Y-87649047D01*
X151021361Y-87501910D01*
X150932881Y-87369489D01*
X150932879Y-87369487D01*
X150932874Y-87369481D01*
X150820274Y-87256881D01*
X150820268Y-87256876D01*
X150820267Y-87256875D01*
X150687846Y-87168395D01*
X150540709Y-87107448D01*
X150462608Y-87091913D01*
X150384510Y-87076378D01*
X150384508Y-87076378D01*
X150225248Y-87076378D01*
X150225245Y-87076378D01*
X150108097Y-87099680D01*
X150069047Y-87107448D01*
X149921910Y-87168395D01*
X149792080Y-87255143D01*
X149724329Y-87276358D01*
X149722080Y-87276378D01*
X148275011Y-87276378D01*
X148192077Y-87298600D01*
X148120252Y-87317845D01*
X148120245Y-87317848D01*
X147981498Y-87397953D01*
X147981488Y-87397961D01*
X145573083Y-89806366D01*
X145573075Y-89806376D01*
X145492967Y-89945127D01*
X145492968Y-89945128D01*
X145451547Y-90099716D01*
X145451500Y-90099890D01*
X145451500Y-95646761D01*
X145431498Y-95714882D01*
X145377842Y-95761375D01*
X145307568Y-95771479D01*
X145242988Y-95741985D01*
X145236405Y-95735856D01*
X143646467Y-94145918D01*
X143612441Y-94083606D01*
X143611983Y-94032240D01*
X143612911Y-94027576D01*
X143618500Y-93999479D01*
X143618500Y-93820521D01*
X143583587Y-93645000D01*
X143515102Y-93479664D01*
X143415678Y-93330865D01*
X143289135Y-93204322D01*
X143140336Y-93104898D01*
X143023429Y-93056473D01*
X142975003Y-93036414D01*
X142975001Y-93036413D01*
X142975000Y-93036413D01*
X142886645Y-93018838D01*
X142799481Y-93001500D01*
X142799479Y-93001500D01*
X142620521Y-93001500D01*
X142620518Y-93001500D01*
X142489771Y-93027507D01*
X142445000Y-93036413D01*
X142444999Y-93036413D01*
X142444996Y-93036414D01*
X142279662Y-93104899D01*
X142130869Y-93204319D01*
X142130862Y-93204324D01*
X142004324Y-93330862D01*
X142004319Y-93330869D01*
X141931515Y-93439829D01*
X141904898Y-93479664D01*
X141890716Y-93513902D01*
X141836414Y-93644996D01*
X141801500Y-93820518D01*
X140698000Y-93820518D01*
X140698000Y-93681414D01*
X140697999Y-93681402D01*
X140691494Y-93620906D01*
X140640444Y-93484035D01*
X140640444Y-93484034D01*
X140552906Y-93367099D01*
X140552901Y-93367094D01*
X140546105Y-93362006D01*
X140503559Y-93305170D01*
X140498496Y-93234354D01*
X140509348Y-93203940D01*
X140582140Y-93061080D01*
X140649434Y-92853970D01*
X140683500Y-92638884D01*
X140683500Y-92421116D01*
X140649434Y-92206030D01*
X140582140Y-91998920D01*
X140483275Y-91804888D01*
X140355275Y-91628710D01*
X140355272Y-91628707D01*
X140355270Y-91628704D01*
X140201295Y-91474729D01*
X140201292Y-91474727D01*
X140201290Y-91474725D01*
X140025112Y-91346725D01*
X139831080Y-91247860D01*
X139831077Y-91247859D01*
X139831075Y-91247858D01*
X139623975Y-91180567D01*
X139623971Y-91180566D01*
X139623970Y-91180566D01*
X139408884Y-91146500D01*
X139260114Y-91146500D01*
X139191993Y-91126498D01*
X139145500Y-91072842D01*
X139143705Y-91068718D01*
X139140451Y-91060862D01*
X139115102Y-90999664D01*
X139015678Y-90850865D01*
X138889135Y-90724322D01*
X138740336Y-90624898D01*
X138583660Y-90560000D01*
X138575003Y-90556414D01*
X138575001Y-90556413D01*
X138575000Y-90556413D01*
X138486645Y-90538838D01*
X138399481Y-90521500D01*
X138399479Y-90521500D01*
X138220521Y-90521500D01*
X138220518Y-90521500D01*
X138089771Y-90547507D01*
X138045000Y-90556413D01*
X138044999Y-90556413D01*
X138044996Y-90556414D01*
X137879662Y-90624899D01*
X137730869Y-90724319D01*
X137730862Y-90724324D01*
X137604324Y-90850862D01*
X137604319Y-90850869D01*
X137504899Y-90999662D01*
X137436414Y-91164996D01*
X137401500Y-91340518D01*
X131450500Y-91340518D01*
X131450500Y-84576116D01*
X135166500Y-84576116D01*
X135166500Y-84793884D01*
X135186775Y-84921894D01*
X135200567Y-85008975D01*
X135248284Y-85155832D01*
X135267860Y-85216080D01*
X135366725Y-85410112D01*
X135494725Y-85586290D01*
X135494727Y-85586292D01*
X135494729Y-85586295D01*
X135648704Y-85740270D01*
X135648707Y-85740272D01*
X135648710Y-85740275D01*
X135824888Y-85868275D01*
X136018920Y-85967140D01*
X136226030Y-86034434D01*
X136441116Y-86068500D01*
X136441119Y-86068500D01*
X136658881Y-86068500D01*
X136658884Y-86068500D01*
X136873970Y-86034434D01*
X137081080Y-85967140D01*
X137275112Y-85868275D01*
X137451290Y-85740275D01*
X137605275Y-85586290D01*
X137733275Y-85410112D01*
X137832140Y-85216080D01*
X137899434Y-85008970D01*
X137933500Y-84793884D01*
X137933500Y-84576116D01*
X137925600Y-84526240D01*
X137926312Y-84520727D01*
X137924370Y-84515519D01*
X137930813Y-84485898D01*
X137934699Y-84455830D01*
X137938592Y-84450135D01*
X137939461Y-84446145D01*
X137960951Y-84417438D01*
X138045012Y-84333377D01*
X138045022Y-84333370D01*
X138167996Y-84210396D01*
X138168003Y-84210389D01*
X138234078Y-84111500D01*
X138256483Y-84077969D01*
X138279873Y-84021500D01*
X138317430Y-83930831D01*
X138348500Y-83774630D01*
X138348500Y-82537196D01*
X138358091Y-82488977D01*
X138413587Y-82355000D01*
X138448500Y-82179479D01*
X138448500Y-82000521D01*
X138413587Y-81825000D01*
X138345102Y-81659664D01*
X138245678Y-81510865D01*
X138119135Y-81384322D01*
X137970336Y-81284898D01*
X137853429Y-81236473D01*
X137805003Y-81216414D01*
X137805001Y-81216413D01*
X137805000Y-81216413D01*
X137716645Y-81198838D01*
X137629481Y-81181500D01*
X137629479Y-81181500D01*
X137450521Y-81181500D01*
X137450518Y-81181500D01*
X137319771Y-81207507D01*
X137275000Y-81216413D01*
X137274999Y-81216413D01*
X137274996Y-81216414D01*
X137109662Y-81284899D01*
X136960869Y-81384319D01*
X136960862Y-81384324D01*
X136834324Y-81510862D01*
X136834319Y-81510869D01*
X136734899Y-81659662D01*
X136666414Y-81824996D01*
X136631500Y-82000518D01*
X136631500Y-82000521D01*
X136631500Y-82179479D01*
X136658648Y-82315964D01*
X136666414Y-82355003D01*
X136721909Y-82488977D01*
X136731500Y-82537196D01*
X136731500Y-83175500D01*
X136711498Y-83243621D01*
X136657842Y-83290114D01*
X136605500Y-83301500D01*
X136441116Y-83301500D01*
X136226030Y-83335566D01*
X136226024Y-83335567D01*
X136018924Y-83402858D01*
X136018918Y-83402861D01*
X135824884Y-83501727D01*
X135648707Y-83629727D01*
X135648704Y-83629729D01*
X135494729Y-83783704D01*
X135494727Y-83783707D01*
X135366727Y-83959884D01*
X135267861Y-84153918D01*
X135267858Y-84153924D01*
X135200567Y-84361024D01*
X135200566Y-84361029D01*
X135200566Y-84361030D01*
X135166500Y-84576116D01*
X131450500Y-84576116D01*
X131450500Y-79453292D01*
X131450673Y-79446698D01*
X131452642Y-79409133D01*
X131466366Y-79147245D01*
X131467744Y-79134131D01*
X131468478Y-79129500D01*
X131500537Y-78927081D01*
X139024499Y-78927081D01*
X139064401Y-79075994D01*
X139141481Y-79209501D01*
X139141489Y-79209511D01*
X139250488Y-79318510D01*
X139250493Y-79318514D01*
X139250495Y-79318516D01*
X139250496Y-79318517D01*
X139250498Y-79318518D01*
X139295842Y-79344697D01*
X139384006Y-79395599D01*
X139532917Y-79435500D01*
X139532919Y-79435500D01*
X139687081Y-79435500D01*
X139687083Y-79435500D01*
X139835994Y-79395599D01*
X139916291Y-79349238D01*
X139985286Y-79332501D01*
X140052378Y-79355721D01*
X140096265Y-79411528D01*
X140103014Y-79482203D01*
X140084056Y-79528360D01*
X140002230Y-79650821D01*
X139927566Y-79831076D01*
X139927564Y-79831081D01*
X139889500Y-80022441D01*
X139889500Y-80217558D01*
X139910156Y-80321402D01*
X139927564Y-80408918D01*
X140002230Y-80589178D01*
X140073207Y-80695402D01*
X140084056Y-80711639D01*
X140105271Y-80779392D01*
X140086488Y-80847859D01*
X140033671Y-80895302D01*
X139963588Y-80906659D01*
X139916292Y-80890761D01*
X139841983Y-80847859D01*
X139835994Y-80844401D01*
X139687083Y-80804500D01*
X139532917Y-80804500D01*
X139433643Y-80831100D01*
X139384005Y-80844401D01*
X139250498Y-80921481D01*
X139250488Y-80921489D01*
X139141489Y-81030488D01*
X139141481Y-81030498D01*
X139064401Y-81164005D01*
X139061029Y-81176589D01*
X139032008Y-81284899D01*
X139024500Y-81312918D01*
X139024500Y-81467081D01*
X139024499Y-81467081D01*
X139064401Y-81615994D01*
X139141481Y-81749501D01*
X139141489Y-81749511D01*
X139250488Y-81858510D01*
X139250493Y-81858514D01*
X139250495Y-81858516D01*
X139250496Y-81858517D01*
X139250498Y-81858518D01*
X139267500Y-81868334D01*
X139384006Y-81935599D01*
X139532917Y-81975500D01*
X139532919Y-81975500D01*
X139687081Y-81975500D01*
X139687083Y-81975500D01*
X139835994Y-81935599D01*
X139969505Y-81858516D01*
X140078516Y-81749505D01*
X140155599Y-81615994D01*
X140195500Y-81467083D01*
X140195500Y-81312917D01*
X140155599Y-81164006D01*
X140109239Y-81083708D01*
X140092501Y-81014712D01*
X140115722Y-80947621D01*
X140171529Y-80903734D01*
X140242204Y-80896985D01*
X140288358Y-80915942D01*
X140410822Y-80997770D01*
X140591082Y-81072436D01*
X140782444Y-81110500D01*
X140782445Y-81110500D01*
X140977555Y-81110500D01*
X140977556Y-81110500D01*
X141168918Y-81072436D01*
X141349178Y-80997770D01*
X141471642Y-80915941D01*
X141539391Y-80894728D01*
X141607858Y-80913511D01*
X141655302Y-80966328D01*
X141666659Y-81036410D01*
X141650761Y-81083707D01*
X141604402Y-81164005D01*
X141604401Y-81164006D01*
X141572008Y-81284899D01*
X141564500Y-81312918D01*
X141564500Y-81467081D01*
X141564499Y-81467081D01*
X141604401Y-81615994D01*
X141681481Y-81749501D01*
X141681489Y-81749511D01*
X141790488Y-81858510D01*
X141790493Y-81858514D01*
X141790495Y-81858516D01*
X141790496Y-81858517D01*
X141790498Y-81858518D01*
X141807500Y-81868334D01*
X141924006Y-81935599D01*
X142072917Y-81975500D01*
X142072919Y-81975500D01*
X142227081Y-81975500D01*
X142227083Y-81975500D01*
X142375994Y-81935599D01*
X142509505Y-81858516D01*
X142618516Y-81749505D01*
X142695599Y-81615994D01*
X142735500Y-81467083D01*
X142735500Y-81467081D01*
X144104499Y-81467081D01*
X144144401Y-81615994D01*
X144221481Y-81749501D01*
X144221489Y-81749511D01*
X144330488Y-81858510D01*
X144330493Y-81858514D01*
X144330495Y-81858516D01*
X144330496Y-81858517D01*
X144330498Y-81858518D01*
X144347500Y-81868334D01*
X144464006Y-81935599D01*
X144612917Y-81975500D01*
X144612919Y-81975500D01*
X144767081Y-81975500D01*
X144767083Y-81975500D01*
X144915994Y-81935599D01*
X145049505Y-81858516D01*
X145158516Y-81749505D01*
X145235599Y-81615994D01*
X145275500Y-81467083D01*
X145275500Y-81467081D01*
X146644499Y-81467081D01*
X146684401Y-81615994D01*
X146761481Y-81749501D01*
X146761489Y-81749511D01*
X146870488Y-81858510D01*
X146870493Y-81858514D01*
X146870495Y-81858516D01*
X146870496Y-81858517D01*
X146870498Y-81858518D01*
X146887500Y-81868334D01*
X147004006Y-81935599D01*
X147152917Y-81975500D01*
X147152919Y-81975500D01*
X147307081Y-81975500D01*
X147307083Y-81975500D01*
X147455994Y-81935599D01*
X147589505Y-81858516D01*
X147698516Y-81749505D01*
X147775599Y-81615994D01*
X147815500Y-81467083D01*
X147815500Y-81467081D01*
X149184499Y-81467081D01*
X149224401Y-81615994D01*
X149301481Y-81749501D01*
X149301489Y-81749511D01*
X149410488Y-81858510D01*
X149410493Y-81858514D01*
X149410495Y-81858516D01*
X149410496Y-81858517D01*
X149410498Y-81858518D01*
X149427500Y-81868334D01*
X149544006Y-81935599D01*
X149692917Y-81975500D01*
X149692919Y-81975500D01*
X149847081Y-81975500D01*
X149847083Y-81975500D01*
X149995994Y-81935599D01*
X150129505Y-81858516D01*
X150238516Y-81749505D01*
X150315599Y-81615994D01*
X150355500Y-81467083D01*
X150355500Y-81467081D01*
X151724499Y-81467081D01*
X151764401Y-81615994D01*
X151841481Y-81749501D01*
X151841489Y-81749511D01*
X151950488Y-81858510D01*
X151950493Y-81858514D01*
X151950495Y-81858516D01*
X151950496Y-81858517D01*
X151950498Y-81858518D01*
X151967500Y-81868334D01*
X152084006Y-81935599D01*
X152232917Y-81975500D01*
X152232919Y-81975500D01*
X152387081Y-81975500D01*
X152387083Y-81975500D01*
X152535994Y-81935599D01*
X152669505Y-81858516D01*
X152778516Y-81749505D01*
X152855599Y-81615994D01*
X152895500Y-81467083D01*
X152895500Y-81467081D01*
X154264499Y-81467081D01*
X154304401Y-81615994D01*
X154381481Y-81749501D01*
X154381489Y-81749511D01*
X154490488Y-81858510D01*
X154490493Y-81858514D01*
X154490495Y-81858516D01*
X154490496Y-81858517D01*
X154490498Y-81858518D01*
X154507500Y-81868334D01*
X154624006Y-81935599D01*
X154772917Y-81975500D01*
X154772919Y-81975500D01*
X154927081Y-81975500D01*
X154927083Y-81975500D01*
X155075994Y-81935599D01*
X155209505Y-81858516D01*
X155318516Y-81749505D01*
X155395599Y-81615994D01*
X155435500Y-81467083D01*
X155435500Y-81467081D01*
X156804499Y-81467081D01*
X156844401Y-81615994D01*
X156921481Y-81749501D01*
X156921489Y-81749511D01*
X157030488Y-81858510D01*
X157030493Y-81858514D01*
X157030495Y-81858516D01*
X157030496Y-81858517D01*
X157030498Y-81858518D01*
X157047500Y-81868334D01*
X157164006Y-81935599D01*
X157312917Y-81975500D01*
X157312919Y-81975500D01*
X157467081Y-81975500D01*
X157467083Y-81975500D01*
X157615994Y-81935599D01*
X157749505Y-81858516D01*
X157858516Y-81749505D01*
X157935599Y-81615994D01*
X157975500Y-81467083D01*
X157975500Y-81467081D01*
X159344499Y-81467081D01*
X159384401Y-81615994D01*
X159461481Y-81749501D01*
X159461489Y-81749511D01*
X159570488Y-81858510D01*
X159570493Y-81858514D01*
X159570495Y-81858516D01*
X159570496Y-81858517D01*
X159570498Y-81858518D01*
X159587500Y-81868334D01*
X159704006Y-81935599D01*
X159852917Y-81975500D01*
X159852919Y-81975500D01*
X160007081Y-81975500D01*
X160007083Y-81975500D01*
X160155994Y-81935599D01*
X160289505Y-81858516D01*
X160398516Y-81749505D01*
X160475599Y-81615994D01*
X160515500Y-81467083D01*
X160515500Y-81467081D01*
X161884499Y-81467081D01*
X161924401Y-81615994D01*
X162001481Y-81749501D01*
X162001489Y-81749511D01*
X162110488Y-81858510D01*
X162110493Y-81858514D01*
X162110495Y-81858516D01*
X162110496Y-81858517D01*
X162110498Y-81858518D01*
X162127500Y-81868334D01*
X162244006Y-81935599D01*
X162392917Y-81975500D01*
X162392919Y-81975500D01*
X162547081Y-81975500D01*
X162547083Y-81975500D01*
X162695994Y-81935599D01*
X162829505Y-81858516D01*
X162938516Y-81749505D01*
X163015599Y-81615994D01*
X163055500Y-81467083D01*
X163055500Y-81467081D01*
X164424499Y-81467081D01*
X164464401Y-81615994D01*
X164541481Y-81749501D01*
X164541489Y-81749511D01*
X164650488Y-81858510D01*
X164650493Y-81858514D01*
X164650495Y-81858516D01*
X164650496Y-81858517D01*
X164650498Y-81858518D01*
X164667500Y-81868334D01*
X164784006Y-81935599D01*
X164932917Y-81975500D01*
X164932919Y-81975500D01*
X165087081Y-81975500D01*
X165087083Y-81975500D01*
X165235994Y-81935599D01*
X165369505Y-81858516D01*
X165478516Y-81749505D01*
X165555599Y-81615994D01*
X165595500Y-81467083D01*
X165595500Y-81467081D01*
X166964499Y-81467081D01*
X167004401Y-81615994D01*
X167081481Y-81749501D01*
X167081489Y-81749511D01*
X167190488Y-81858510D01*
X167190493Y-81858514D01*
X167190495Y-81858516D01*
X167190496Y-81858517D01*
X167190498Y-81858518D01*
X167207500Y-81868334D01*
X167324006Y-81935599D01*
X167472917Y-81975500D01*
X167472919Y-81975500D01*
X167627081Y-81975500D01*
X167627083Y-81975500D01*
X167775994Y-81935599D01*
X167909505Y-81858516D01*
X168018516Y-81749505D01*
X168095599Y-81615994D01*
X168135500Y-81467083D01*
X168135500Y-81467081D01*
X169504499Y-81467081D01*
X169544401Y-81615994D01*
X169621481Y-81749501D01*
X169621489Y-81749511D01*
X169730488Y-81858510D01*
X169730493Y-81858514D01*
X169730495Y-81858516D01*
X169730496Y-81858517D01*
X169730498Y-81858518D01*
X169747500Y-81868334D01*
X169864006Y-81935599D01*
X170012917Y-81975500D01*
X170012919Y-81975500D01*
X170167081Y-81975500D01*
X170167083Y-81975500D01*
X170315994Y-81935599D01*
X170449505Y-81858516D01*
X170558516Y-81749505D01*
X170635599Y-81615994D01*
X170675500Y-81467083D01*
X170675500Y-81467081D01*
X172044499Y-81467081D01*
X172084401Y-81615994D01*
X172161481Y-81749501D01*
X172161489Y-81749511D01*
X172270488Y-81858510D01*
X172270493Y-81858514D01*
X172270495Y-81858516D01*
X172270496Y-81858517D01*
X172270498Y-81858518D01*
X172287500Y-81868334D01*
X172404006Y-81935599D01*
X172552917Y-81975500D01*
X172552919Y-81975500D01*
X172707081Y-81975500D01*
X172707083Y-81975500D01*
X172855994Y-81935599D01*
X172989505Y-81858516D01*
X173098516Y-81749505D01*
X173175599Y-81615994D01*
X173215500Y-81467083D01*
X173215500Y-81467081D01*
X174584499Y-81467081D01*
X174624401Y-81615994D01*
X174701481Y-81749501D01*
X174701489Y-81749511D01*
X174810488Y-81858510D01*
X174810493Y-81858514D01*
X174810495Y-81858516D01*
X174810496Y-81858517D01*
X174810498Y-81858518D01*
X174827500Y-81868334D01*
X174944006Y-81935599D01*
X175092917Y-81975500D01*
X175092919Y-81975500D01*
X175247081Y-81975500D01*
X175247083Y-81975500D01*
X175395994Y-81935599D01*
X175529505Y-81858516D01*
X175638516Y-81749505D01*
X175715599Y-81615994D01*
X175755500Y-81467083D01*
X175755500Y-81467081D01*
X177124499Y-81467081D01*
X177164401Y-81615994D01*
X177241481Y-81749501D01*
X177241489Y-81749511D01*
X177350488Y-81858510D01*
X177350493Y-81858514D01*
X177350495Y-81858516D01*
X177350496Y-81858517D01*
X177350498Y-81858518D01*
X177367500Y-81868334D01*
X177484006Y-81935599D01*
X177632917Y-81975500D01*
X177632919Y-81975500D01*
X177787081Y-81975500D01*
X177787083Y-81975500D01*
X177935994Y-81935599D01*
X178069505Y-81858516D01*
X178178516Y-81749505D01*
X178255599Y-81615994D01*
X178295500Y-81467083D01*
X178295500Y-81312917D01*
X178255599Y-81164006D01*
X178178516Y-81030495D01*
X178178514Y-81030493D01*
X178178510Y-81030488D01*
X178069511Y-80921489D01*
X178069501Y-80921481D01*
X177935994Y-80844401D01*
X177927907Y-80842234D01*
X177787083Y-80804500D01*
X177632917Y-80804500D01*
X177533643Y-80831100D01*
X177484005Y-80844401D01*
X177350498Y-80921481D01*
X177350488Y-80921489D01*
X177241489Y-81030488D01*
X177241481Y-81030498D01*
X177164401Y-81164005D01*
X177161029Y-81176589D01*
X177132008Y-81284899D01*
X177124500Y-81312918D01*
X177124500Y-81467081D01*
X177124499Y-81467081D01*
X175755500Y-81467081D01*
X175755500Y-81312917D01*
X175715599Y-81164006D01*
X175638516Y-81030495D01*
X175638514Y-81030493D01*
X175638510Y-81030488D01*
X175529511Y-80921489D01*
X175529501Y-80921481D01*
X175395994Y-80844401D01*
X175387907Y-80842234D01*
X175247083Y-80804500D01*
X175092917Y-80804500D01*
X174993643Y-80831100D01*
X174944005Y-80844401D01*
X174810498Y-80921481D01*
X174810488Y-80921489D01*
X174701489Y-81030488D01*
X174701481Y-81030498D01*
X174624401Y-81164005D01*
X174621029Y-81176589D01*
X174592008Y-81284899D01*
X174584500Y-81312918D01*
X174584500Y-81467081D01*
X174584499Y-81467081D01*
X173215500Y-81467081D01*
X173215500Y-81312917D01*
X173175599Y-81164006D01*
X173098516Y-81030495D01*
X173098514Y-81030493D01*
X173098510Y-81030488D01*
X172989511Y-80921489D01*
X172989501Y-80921481D01*
X172855994Y-80844401D01*
X172847907Y-80842234D01*
X172707083Y-80804500D01*
X172552917Y-80804500D01*
X172453643Y-80831100D01*
X172404005Y-80844401D01*
X172270498Y-80921481D01*
X172270488Y-80921489D01*
X172161489Y-81030488D01*
X172161481Y-81030498D01*
X172084401Y-81164005D01*
X172081029Y-81176589D01*
X172052008Y-81284899D01*
X172044500Y-81312918D01*
X172044500Y-81467081D01*
X172044499Y-81467081D01*
X170675500Y-81467081D01*
X170675500Y-81312917D01*
X170635599Y-81164006D01*
X170558516Y-81030495D01*
X170558514Y-81030493D01*
X170558510Y-81030488D01*
X170449511Y-80921489D01*
X170449501Y-80921481D01*
X170315994Y-80844401D01*
X170307907Y-80842234D01*
X170167083Y-80804500D01*
X170012917Y-80804500D01*
X169913643Y-80831100D01*
X169864005Y-80844401D01*
X169730498Y-80921481D01*
X169730488Y-80921489D01*
X169621489Y-81030488D01*
X169621481Y-81030498D01*
X169544401Y-81164005D01*
X169541029Y-81176589D01*
X169512008Y-81284899D01*
X169504500Y-81312918D01*
X169504500Y-81467081D01*
X169504499Y-81467081D01*
X168135500Y-81467081D01*
X168135500Y-81312917D01*
X168095599Y-81164006D01*
X168018516Y-81030495D01*
X168018514Y-81030493D01*
X168018510Y-81030488D01*
X167909511Y-80921489D01*
X167909501Y-80921481D01*
X167775994Y-80844401D01*
X167767907Y-80842234D01*
X167627083Y-80804500D01*
X167472917Y-80804500D01*
X167373643Y-80831100D01*
X167324005Y-80844401D01*
X167190498Y-80921481D01*
X167190488Y-80921489D01*
X167081489Y-81030488D01*
X167081481Y-81030498D01*
X167004401Y-81164005D01*
X167001029Y-81176589D01*
X166972008Y-81284899D01*
X166964500Y-81312918D01*
X166964500Y-81467081D01*
X166964499Y-81467081D01*
X165595500Y-81467081D01*
X165595500Y-81312917D01*
X165555599Y-81164006D01*
X165478516Y-81030495D01*
X165478514Y-81030493D01*
X165478510Y-81030488D01*
X165369511Y-80921489D01*
X165369501Y-80921481D01*
X165235994Y-80844401D01*
X165227907Y-80842234D01*
X165087083Y-80804500D01*
X164932917Y-80804500D01*
X164833643Y-80831100D01*
X164784005Y-80844401D01*
X164650498Y-80921481D01*
X164650488Y-80921489D01*
X164541489Y-81030488D01*
X164541481Y-81030498D01*
X164464401Y-81164005D01*
X164461029Y-81176589D01*
X164432008Y-81284899D01*
X164424500Y-81312918D01*
X164424500Y-81467081D01*
X164424499Y-81467081D01*
X163055500Y-81467081D01*
X163055500Y-81312917D01*
X163015599Y-81164006D01*
X162938516Y-81030495D01*
X162938514Y-81030493D01*
X162938510Y-81030488D01*
X162829511Y-80921489D01*
X162829501Y-80921481D01*
X162695994Y-80844401D01*
X162687907Y-80842234D01*
X162547083Y-80804500D01*
X162392917Y-80804500D01*
X162293643Y-80831100D01*
X162244005Y-80844401D01*
X162110498Y-80921481D01*
X162110488Y-80921489D01*
X162001489Y-81030488D01*
X162001481Y-81030498D01*
X161924401Y-81164005D01*
X161921029Y-81176589D01*
X161892008Y-81284899D01*
X161884500Y-81312918D01*
X161884500Y-81467081D01*
X161884499Y-81467081D01*
X160515500Y-81467081D01*
X160515500Y-81312917D01*
X160475599Y-81164006D01*
X160398516Y-81030495D01*
X160398514Y-81030493D01*
X160398510Y-81030488D01*
X160289511Y-80921489D01*
X160289501Y-80921481D01*
X160155994Y-80844401D01*
X160147907Y-80842234D01*
X160007083Y-80804500D01*
X159852917Y-80804500D01*
X159753643Y-80831100D01*
X159704005Y-80844401D01*
X159570498Y-80921481D01*
X159570488Y-80921489D01*
X159461489Y-81030488D01*
X159461481Y-81030498D01*
X159384401Y-81164005D01*
X159381029Y-81176589D01*
X159352008Y-81284899D01*
X159344500Y-81312918D01*
X159344500Y-81467081D01*
X159344499Y-81467081D01*
X157975500Y-81467081D01*
X157975500Y-81312917D01*
X157935599Y-81164006D01*
X157858516Y-81030495D01*
X157858514Y-81030493D01*
X157858510Y-81030488D01*
X157749511Y-80921489D01*
X157749501Y-80921481D01*
X157615994Y-80844401D01*
X157607907Y-80842234D01*
X157467083Y-80804500D01*
X157312917Y-80804500D01*
X157213643Y-80831100D01*
X157164005Y-80844401D01*
X157030498Y-80921481D01*
X157030488Y-80921489D01*
X156921489Y-81030488D01*
X156921481Y-81030498D01*
X156844401Y-81164005D01*
X156841029Y-81176589D01*
X156812008Y-81284899D01*
X156804500Y-81312918D01*
X156804500Y-81467081D01*
X156804499Y-81467081D01*
X155435500Y-81467081D01*
X155435500Y-81312917D01*
X155395599Y-81164006D01*
X155318516Y-81030495D01*
X155318514Y-81030493D01*
X155318510Y-81030488D01*
X155209511Y-80921489D01*
X155209501Y-80921481D01*
X155075994Y-80844401D01*
X155067907Y-80842234D01*
X154927083Y-80804500D01*
X154772917Y-80804500D01*
X154673643Y-80831100D01*
X154624005Y-80844401D01*
X154490498Y-80921481D01*
X154490488Y-80921489D01*
X154381489Y-81030488D01*
X154381481Y-81030498D01*
X154304401Y-81164005D01*
X154301029Y-81176589D01*
X154272008Y-81284899D01*
X154264500Y-81312918D01*
X154264500Y-81467081D01*
X154264499Y-81467081D01*
X152895500Y-81467081D01*
X152895500Y-81312917D01*
X152855599Y-81164006D01*
X152778516Y-81030495D01*
X152778514Y-81030493D01*
X152778510Y-81030488D01*
X152669511Y-80921489D01*
X152669501Y-80921481D01*
X152535994Y-80844401D01*
X152527907Y-80842234D01*
X152387083Y-80804500D01*
X152232917Y-80804500D01*
X152133643Y-80831100D01*
X152084005Y-80844401D01*
X151950498Y-80921481D01*
X151950488Y-80921489D01*
X151841489Y-81030488D01*
X151841481Y-81030498D01*
X151764401Y-81164005D01*
X151761029Y-81176589D01*
X151732008Y-81284899D01*
X151724500Y-81312918D01*
X151724500Y-81467081D01*
X151724499Y-81467081D01*
X150355500Y-81467081D01*
X150355500Y-81312917D01*
X150315599Y-81164006D01*
X150238516Y-81030495D01*
X150238514Y-81030493D01*
X150238510Y-81030488D01*
X150129511Y-80921489D01*
X150129501Y-80921481D01*
X149995994Y-80844401D01*
X149987907Y-80842234D01*
X149847083Y-80804500D01*
X149692917Y-80804500D01*
X149593643Y-80831100D01*
X149544005Y-80844401D01*
X149410498Y-80921481D01*
X149410488Y-80921489D01*
X149301489Y-81030488D01*
X149301481Y-81030498D01*
X149224401Y-81164005D01*
X149221029Y-81176589D01*
X149192008Y-81284899D01*
X149184500Y-81312918D01*
X149184500Y-81467081D01*
X149184499Y-81467081D01*
X147815500Y-81467081D01*
X147815500Y-81312917D01*
X147775599Y-81164006D01*
X147698516Y-81030495D01*
X147698514Y-81030493D01*
X147698510Y-81030488D01*
X147589511Y-80921489D01*
X147589501Y-80921481D01*
X147455994Y-80844401D01*
X147447907Y-80842234D01*
X147307083Y-80804500D01*
X147152917Y-80804500D01*
X147053643Y-80831100D01*
X147004005Y-80844401D01*
X146870498Y-80921481D01*
X146870488Y-80921489D01*
X146761489Y-81030488D01*
X146761481Y-81030498D01*
X146684401Y-81164005D01*
X146681029Y-81176589D01*
X146652008Y-81284899D01*
X146644500Y-81312918D01*
X146644500Y-81467081D01*
X146644499Y-81467081D01*
X145275500Y-81467081D01*
X145275500Y-81312917D01*
X145235599Y-81164006D01*
X145158516Y-81030495D01*
X145158514Y-81030493D01*
X145158510Y-81030488D01*
X145049511Y-80921489D01*
X145049501Y-80921481D01*
X144915994Y-80844401D01*
X144907907Y-80842234D01*
X144767083Y-80804500D01*
X144612917Y-80804500D01*
X144513643Y-80831100D01*
X144464005Y-80844401D01*
X144330498Y-80921481D01*
X144330488Y-80921489D01*
X144221489Y-81030488D01*
X144221481Y-81030498D01*
X144144401Y-81164005D01*
X144141029Y-81176589D01*
X144112008Y-81284899D01*
X144104500Y-81312918D01*
X144104500Y-81467081D01*
X144104499Y-81467081D01*
X142735500Y-81467081D01*
X142735500Y-81312917D01*
X142695599Y-81164006D01*
X142618516Y-81030495D01*
X142618514Y-81030493D01*
X142618510Y-81030488D01*
X142509511Y-80921489D01*
X142509501Y-80921481D01*
X142375994Y-80844401D01*
X142367907Y-80842234D01*
X142227083Y-80804500D01*
X142072917Y-80804500D01*
X141932093Y-80842234D01*
X141924006Y-80844401D01*
X141843707Y-80890761D01*
X141774711Y-80907498D01*
X141707620Y-80884277D01*
X141663733Y-80828469D01*
X141656985Y-80757794D01*
X141675941Y-80711643D01*
X141757770Y-80589178D01*
X141832436Y-80408918D01*
X141870500Y-80217556D01*
X141870500Y-80022444D01*
X141832436Y-79831082D01*
X141757770Y-79650822D01*
X141675942Y-79528358D01*
X141654728Y-79460607D01*
X141673511Y-79392140D01*
X141726328Y-79344697D01*
X141796410Y-79333340D01*
X141843708Y-79349239D01*
X141870777Y-79364867D01*
X141924006Y-79395599D01*
X142072917Y-79435500D01*
X142072919Y-79435500D01*
X142227081Y-79435500D01*
X142227083Y-79435500D01*
X142375994Y-79395599D01*
X142509505Y-79318516D01*
X142618516Y-79209505D01*
X142695599Y-79075994D01*
X142735500Y-78927083D01*
X142735500Y-78927081D01*
X144104499Y-78927081D01*
X144144401Y-79075994D01*
X144221481Y-79209501D01*
X144221489Y-79209511D01*
X144330488Y-79318510D01*
X144330493Y-79318514D01*
X144330495Y-79318516D01*
X144330496Y-79318517D01*
X144330498Y-79318518D01*
X144375842Y-79344697D01*
X144464006Y-79395599D01*
X144612917Y-79435500D01*
X144612919Y-79435500D01*
X144767081Y-79435500D01*
X144767083Y-79435500D01*
X144915994Y-79395599D01*
X145049505Y-79318516D01*
X145158516Y-79209505D01*
X145235599Y-79075994D01*
X145275500Y-78927083D01*
X145275500Y-78927081D01*
X146644499Y-78927081D01*
X146684401Y-79075994D01*
X146761481Y-79209501D01*
X146761489Y-79209511D01*
X146870488Y-79318510D01*
X146870493Y-79318514D01*
X146870495Y-79318516D01*
X146870496Y-79318517D01*
X146870498Y-79318518D01*
X146915842Y-79344697D01*
X147004006Y-79395599D01*
X147152917Y-79435500D01*
X147152919Y-79435500D01*
X147307081Y-79435500D01*
X147307083Y-79435500D01*
X147455994Y-79395599D01*
X147589505Y-79318516D01*
X147698516Y-79209505D01*
X147775599Y-79075994D01*
X147815500Y-78927083D01*
X147815500Y-78927081D01*
X149184499Y-78927081D01*
X149224401Y-79075994D01*
X149301481Y-79209501D01*
X149301489Y-79209511D01*
X149410488Y-79318510D01*
X149410493Y-79318514D01*
X149410495Y-79318516D01*
X149410496Y-79318517D01*
X149410498Y-79318518D01*
X149455842Y-79344697D01*
X149544006Y-79395599D01*
X149692917Y-79435500D01*
X149692919Y-79435500D01*
X149847081Y-79435500D01*
X149847083Y-79435500D01*
X149995994Y-79395599D01*
X150129505Y-79318516D01*
X150238516Y-79209505D01*
X150315599Y-79075994D01*
X150355500Y-78927083D01*
X150355500Y-78927081D01*
X151724499Y-78927081D01*
X151764401Y-79075994D01*
X151841481Y-79209501D01*
X151841489Y-79209511D01*
X151950488Y-79318510D01*
X151950493Y-79318514D01*
X151950495Y-79318516D01*
X151950496Y-79318517D01*
X151950498Y-79318518D01*
X151995842Y-79344697D01*
X152084006Y-79395599D01*
X152232917Y-79435500D01*
X152232919Y-79435500D01*
X152387081Y-79435500D01*
X152387083Y-79435500D01*
X152535994Y-79395599D01*
X152669505Y-79318516D01*
X152778516Y-79209505D01*
X152855599Y-79075994D01*
X152895500Y-78927083D01*
X152895500Y-78927081D01*
X154264499Y-78927081D01*
X154304401Y-79075994D01*
X154381481Y-79209501D01*
X154381489Y-79209511D01*
X154490488Y-79318510D01*
X154490493Y-79318514D01*
X154490495Y-79318516D01*
X154490496Y-79318517D01*
X154490498Y-79318518D01*
X154535842Y-79344697D01*
X154624006Y-79395599D01*
X154772917Y-79435500D01*
X154772919Y-79435500D01*
X154927081Y-79435500D01*
X154927083Y-79435500D01*
X155075994Y-79395599D01*
X155209505Y-79318516D01*
X155318516Y-79209505D01*
X155395599Y-79075994D01*
X155435500Y-78927083D01*
X155435500Y-78927081D01*
X156804499Y-78927081D01*
X156844401Y-79075994D01*
X156921481Y-79209501D01*
X156921489Y-79209511D01*
X157030488Y-79318510D01*
X157030493Y-79318514D01*
X157030495Y-79318516D01*
X157030496Y-79318517D01*
X157030498Y-79318518D01*
X157075842Y-79344697D01*
X157164006Y-79395599D01*
X157312917Y-79435500D01*
X157312919Y-79435500D01*
X157467081Y-79435500D01*
X157467083Y-79435500D01*
X157615994Y-79395599D01*
X157749505Y-79318516D01*
X157858516Y-79209505D01*
X157935599Y-79075994D01*
X157975500Y-78927083D01*
X157975500Y-78927081D01*
X159344499Y-78927081D01*
X159384401Y-79075994D01*
X159461481Y-79209501D01*
X159461489Y-79209511D01*
X159570488Y-79318510D01*
X159570493Y-79318514D01*
X159570495Y-79318516D01*
X159570496Y-79318517D01*
X159570498Y-79318518D01*
X159615842Y-79344697D01*
X159704006Y-79395599D01*
X159852917Y-79435500D01*
X159852919Y-79435500D01*
X160007081Y-79435500D01*
X160007083Y-79435500D01*
X160155994Y-79395599D01*
X160289505Y-79318516D01*
X160398516Y-79209505D01*
X160475599Y-79075994D01*
X160515500Y-78927083D01*
X160515500Y-78927081D01*
X161884499Y-78927081D01*
X161924401Y-79075994D01*
X162001481Y-79209501D01*
X162001489Y-79209511D01*
X162110488Y-79318510D01*
X162110493Y-79318514D01*
X162110495Y-79318516D01*
X162110496Y-79318517D01*
X162110498Y-79318518D01*
X162155842Y-79344697D01*
X162244006Y-79395599D01*
X162392917Y-79435500D01*
X162392919Y-79435500D01*
X162547081Y-79435500D01*
X162547083Y-79435500D01*
X162695994Y-79395599D01*
X162829505Y-79318516D01*
X162938516Y-79209505D01*
X163015599Y-79075994D01*
X163055500Y-78927083D01*
X163055500Y-78927081D01*
X164424499Y-78927081D01*
X164464401Y-79075994D01*
X164541481Y-79209501D01*
X164541489Y-79209511D01*
X164650488Y-79318510D01*
X164650493Y-79318514D01*
X164650495Y-79318516D01*
X164650496Y-79318517D01*
X164650498Y-79318518D01*
X164695842Y-79344697D01*
X164784006Y-79395599D01*
X164932917Y-79435500D01*
X164932919Y-79435500D01*
X165087081Y-79435500D01*
X165087083Y-79435500D01*
X165235994Y-79395599D01*
X165369505Y-79318516D01*
X165478516Y-79209505D01*
X165555599Y-79075994D01*
X165595500Y-78927083D01*
X165595500Y-78927081D01*
X166964499Y-78927081D01*
X167004401Y-79075994D01*
X167081481Y-79209501D01*
X167081489Y-79209511D01*
X167190488Y-79318510D01*
X167190493Y-79318514D01*
X167190495Y-79318516D01*
X167190496Y-79318517D01*
X167190498Y-79318518D01*
X167235842Y-79344697D01*
X167324006Y-79395599D01*
X167472917Y-79435500D01*
X167472919Y-79435500D01*
X167627081Y-79435500D01*
X167627083Y-79435500D01*
X167775994Y-79395599D01*
X167909505Y-79318516D01*
X168018516Y-79209505D01*
X168095599Y-79075994D01*
X168135500Y-78927083D01*
X168135500Y-78927081D01*
X169504499Y-78927081D01*
X169544401Y-79075994D01*
X169621481Y-79209501D01*
X169621489Y-79209511D01*
X169730488Y-79318510D01*
X169730493Y-79318514D01*
X169730495Y-79318516D01*
X169730496Y-79318517D01*
X169730498Y-79318518D01*
X169775842Y-79344697D01*
X169864006Y-79395599D01*
X170012917Y-79435500D01*
X170012919Y-79435500D01*
X170167081Y-79435500D01*
X170167083Y-79435500D01*
X170315994Y-79395599D01*
X170449505Y-79318516D01*
X170558516Y-79209505D01*
X170635599Y-79075994D01*
X170675500Y-78927083D01*
X170675500Y-78927081D01*
X172044499Y-78927081D01*
X172084401Y-79075994D01*
X172161481Y-79209501D01*
X172161489Y-79209511D01*
X172270488Y-79318510D01*
X172270493Y-79318514D01*
X172270495Y-79318516D01*
X172270496Y-79318517D01*
X172270498Y-79318518D01*
X172315842Y-79344697D01*
X172404006Y-79395599D01*
X172552917Y-79435500D01*
X172552919Y-79435500D01*
X172707081Y-79435500D01*
X172707083Y-79435500D01*
X172855994Y-79395599D01*
X172989505Y-79318516D01*
X173098516Y-79209505D01*
X173175599Y-79075994D01*
X173215500Y-78927083D01*
X173215500Y-78927081D01*
X174584499Y-78927081D01*
X174624401Y-79075994D01*
X174701481Y-79209501D01*
X174701489Y-79209511D01*
X174810488Y-79318510D01*
X174810493Y-79318514D01*
X174810495Y-79318516D01*
X174810496Y-79318517D01*
X174810498Y-79318518D01*
X174855842Y-79344697D01*
X174944006Y-79395599D01*
X175092917Y-79435500D01*
X175092919Y-79435500D01*
X175247081Y-79435500D01*
X175247083Y-79435500D01*
X175395994Y-79395599D01*
X175529505Y-79318516D01*
X175638516Y-79209505D01*
X175715599Y-79075994D01*
X175755500Y-78927083D01*
X175755500Y-78927081D01*
X177124499Y-78927081D01*
X177164401Y-79075994D01*
X177241481Y-79209501D01*
X177241489Y-79209511D01*
X177350488Y-79318510D01*
X177350493Y-79318514D01*
X177350495Y-79318516D01*
X177350496Y-79318517D01*
X177350498Y-79318518D01*
X177395842Y-79344697D01*
X177484006Y-79395599D01*
X177632917Y-79435500D01*
X177632919Y-79435500D01*
X177787081Y-79435500D01*
X177787083Y-79435500D01*
X177935994Y-79395599D01*
X178069505Y-79318516D01*
X178178516Y-79209505D01*
X178255599Y-79075994D01*
X178295500Y-78927083D01*
X178295500Y-78927081D01*
X179664499Y-78927081D01*
X179704401Y-79075994D01*
X179781481Y-79209501D01*
X179781489Y-79209511D01*
X179890488Y-79318510D01*
X179890493Y-79318514D01*
X179890495Y-79318516D01*
X179890496Y-79318517D01*
X179890498Y-79318518D01*
X179935842Y-79344697D01*
X180024006Y-79395599D01*
X180172917Y-79435500D01*
X180172919Y-79435500D01*
X180327081Y-79435500D01*
X180327083Y-79435500D01*
X180475994Y-79395599D01*
X180609505Y-79318516D01*
X180718516Y-79209505D01*
X180795599Y-79075994D01*
X180835500Y-78927083D01*
X180835500Y-78772917D01*
X180795599Y-78624006D01*
X180718516Y-78490495D01*
X180718514Y-78490493D01*
X180718510Y-78490488D01*
X180609511Y-78381489D01*
X180609501Y-78381481D01*
X180475994Y-78304401D01*
X180327083Y-78264500D01*
X180172917Y-78264500D01*
X180073643Y-78291100D01*
X180024005Y-78304401D01*
X179890498Y-78381481D01*
X179890488Y-78381489D01*
X179781489Y-78490488D01*
X179781481Y-78490498D01*
X179704401Y-78624005D01*
X179691579Y-78671858D01*
X179666064Y-78767082D01*
X179664500Y-78772918D01*
X179664500Y-78927081D01*
X179664499Y-78927081D01*
X178295500Y-78927081D01*
X178295500Y-78772917D01*
X178255599Y-78624006D01*
X178178516Y-78490495D01*
X178178514Y-78490493D01*
X178178510Y-78490488D01*
X178069511Y-78381489D01*
X178069501Y-78381481D01*
X177935994Y-78304401D01*
X177787083Y-78264500D01*
X177632917Y-78264500D01*
X177533643Y-78291100D01*
X177484005Y-78304401D01*
X177350498Y-78381481D01*
X177350488Y-78381489D01*
X177241489Y-78490488D01*
X177241481Y-78490498D01*
X177164401Y-78624005D01*
X177151579Y-78671858D01*
X177126064Y-78767082D01*
X177124500Y-78772918D01*
X177124500Y-78927081D01*
X177124499Y-78927081D01*
X175755500Y-78927081D01*
X175755500Y-78772917D01*
X175715599Y-78624006D01*
X175638516Y-78490495D01*
X175638514Y-78490493D01*
X175638510Y-78490488D01*
X175529511Y-78381489D01*
X175529501Y-78381481D01*
X175395994Y-78304401D01*
X175247083Y-78264500D01*
X175092917Y-78264500D01*
X174993643Y-78291100D01*
X174944005Y-78304401D01*
X174810498Y-78381481D01*
X174810488Y-78381489D01*
X174701489Y-78490488D01*
X174701481Y-78490498D01*
X174624401Y-78624005D01*
X174611579Y-78671858D01*
X174586064Y-78767082D01*
X174584500Y-78772918D01*
X174584500Y-78927081D01*
X174584499Y-78927081D01*
X173215500Y-78927081D01*
X173215500Y-78772917D01*
X173175599Y-78624006D01*
X173098516Y-78490495D01*
X173098514Y-78490493D01*
X173098510Y-78490488D01*
X172989511Y-78381489D01*
X172989501Y-78381481D01*
X172855994Y-78304401D01*
X172707083Y-78264500D01*
X172552917Y-78264500D01*
X172453643Y-78291100D01*
X172404005Y-78304401D01*
X172270498Y-78381481D01*
X172270488Y-78381489D01*
X172161489Y-78490488D01*
X172161481Y-78490498D01*
X172084401Y-78624005D01*
X172071579Y-78671858D01*
X172046064Y-78767082D01*
X172044500Y-78772918D01*
X172044500Y-78927081D01*
X172044499Y-78927081D01*
X170675500Y-78927081D01*
X170675500Y-78772917D01*
X170635599Y-78624006D01*
X170558516Y-78490495D01*
X170558514Y-78490493D01*
X170558510Y-78490488D01*
X170449511Y-78381489D01*
X170449501Y-78381481D01*
X170315994Y-78304401D01*
X170167083Y-78264500D01*
X170012917Y-78264500D01*
X169913643Y-78291100D01*
X169864005Y-78304401D01*
X169730498Y-78381481D01*
X169730488Y-78381489D01*
X169621489Y-78490488D01*
X169621481Y-78490498D01*
X169544401Y-78624005D01*
X169531579Y-78671858D01*
X169506064Y-78767082D01*
X169504500Y-78772918D01*
X169504500Y-78927081D01*
X169504499Y-78927081D01*
X168135500Y-78927081D01*
X168135500Y-78772917D01*
X168095599Y-78624006D01*
X168018516Y-78490495D01*
X168018514Y-78490493D01*
X168018510Y-78490488D01*
X167909511Y-78381489D01*
X167909501Y-78381481D01*
X167775994Y-78304401D01*
X167627083Y-78264500D01*
X167472917Y-78264500D01*
X167373643Y-78291100D01*
X167324005Y-78304401D01*
X167190498Y-78381481D01*
X167190488Y-78381489D01*
X167081489Y-78490488D01*
X167081481Y-78490498D01*
X167004401Y-78624005D01*
X166991579Y-78671858D01*
X166966064Y-78767082D01*
X166964500Y-78772918D01*
X166964500Y-78927081D01*
X166964499Y-78927081D01*
X165595500Y-78927081D01*
X165595500Y-78772917D01*
X165555599Y-78624006D01*
X165478516Y-78490495D01*
X165478514Y-78490493D01*
X165478510Y-78490488D01*
X165369511Y-78381489D01*
X165369501Y-78381481D01*
X165235994Y-78304401D01*
X165087083Y-78264500D01*
X164932917Y-78264500D01*
X164833643Y-78291100D01*
X164784005Y-78304401D01*
X164650498Y-78381481D01*
X164650488Y-78381489D01*
X164541489Y-78490488D01*
X164541481Y-78490498D01*
X164464401Y-78624005D01*
X164451579Y-78671858D01*
X164426064Y-78767082D01*
X164424500Y-78772918D01*
X164424500Y-78927081D01*
X164424499Y-78927081D01*
X163055500Y-78927081D01*
X163055500Y-78772917D01*
X163015599Y-78624006D01*
X162938516Y-78490495D01*
X162938514Y-78490493D01*
X162938510Y-78490488D01*
X162829511Y-78381489D01*
X162829501Y-78381481D01*
X162695994Y-78304401D01*
X162547083Y-78264500D01*
X162392917Y-78264500D01*
X162293643Y-78291100D01*
X162244005Y-78304401D01*
X162110498Y-78381481D01*
X162110488Y-78381489D01*
X162001489Y-78490488D01*
X162001481Y-78490498D01*
X161924401Y-78624005D01*
X161911579Y-78671858D01*
X161886064Y-78767082D01*
X161884500Y-78772918D01*
X161884500Y-78927081D01*
X161884499Y-78927081D01*
X160515500Y-78927081D01*
X160515500Y-78772917D01*
X160475599Y-78624006D01*
X160398516Y-78490495D01*
X160398514Y-78490493D01*
X160398510Y-78490488D01*
X160289511Y-78381489D01*
X160289501Y-78381481D01*
X160155994Y-78304401D01*
X160007083Y-78264500D01*
X159852917Y-78264500D01*
X159753643Y-78291100D01*
X159704005Y-78304401D01*
X159570498Y-78381481D01*
X159570488Y-78381489D01*
X159461489Y-78490488D01*
X159461481Y-78490498D01*
X159384401Y-78624005D01*
X159371579Y-78671858D01*
X159346064Y-78767082D01*
X159344500Y-78772918D01*
X159344500Y-78927081D01*
X159344499Y-78927081D01*
X157975500Y-78927081D01*
X157975500Y-78772917D01*
X157935599Y-78624006D01*
X157858516Y-78490495D01*
X157858514Y-78490493D01*
X157858510Y-78490488D01*
X157749511Y-78381489D01*
X157749501Y-78381481D01*
X157615994Y-78304401D01*
X157467083Y-78264500D01*
X157312917Y-78264500D01*
X157213643Y-78291100D01*
X157164005Y-78304401D01*
X157030498Y-78381481D01*
X157030488Y-78381489D01*
X156921489Y-78490488D01*
X156921481Y-78490498D01*
X156844401Y-78624005D01*
X156831579Y-78671858D01*
X156806064Y-78767082D01*
X156804500Y-78772918D01*
X156804500Y-78927081D01*
X156804499Y-78927081D01*
X155435500Y-78927081D01*
X155435500Y-78772917D01*
X155395599Y-78624006D01*
X155318516Y-78490495D01*
X155318514Y-78490493D01*
X155318510Y-78490488D01*
X155209511Y-78381489D01*
X155209501Y-78381481D01*
X155075994Y-78304401D01*
X154927083Y-78264500D01*
X154772917Y-78264500D01*
X154673643Y-78291100D01*
X154624005Y-78304401D01*
X154490498Y-78381481D01*
X154490488Y-78381489D01*
X154381489Y-78490488D01*
X154381481Y-78490498D01*
X154304401Y-78624005D01*
X154291579Y-78671858D01*
X154266064Y-78767082D01*
X154264500Y-78772918D01*
X154264500Y-78927081D01*
X154264499Y-78927081D01*
X152895500Y-78927081D01*
X152895500Y-78772917D01*
X152855599Y-78624006D01*
X152778516Y-78490495D01*
X152778514Y-78490493D01*
X152778510Y-78490488D01*
X152669511Y-78381489D01*
X152669501Y-78381481D01*
X152535994Y-78304401D01*
X152387083Y-78264500D01*
X152232917Y-78264500D01*
X152133643Y-78291100D01*
X152084005Y-78304401D01*
X151950498Y-78381481D01*
X151950488Y-78381489D01*
X151841489Y-78490488D01*
X151841481Y-78490498D01*
X151764401Y-78624005D01*
X151751579Y-78671858D01*
X151726064Y-78767082D01*
X151724500Y-78772918D01*
X151724500Y-78927081D01*
X151724499Y-78927081D01*
X150355500Y-78927081D01*
X150355500Y-78772917D01*
X150315599Y-78624006D01*
X150238516Y-78490495D01*
X150238514Y-78490493D01*
X150238510Y-78490488D01*
X150129511Y-78381489D01*
X150129501Y-78381481D01*
X149995994Y-78304401D01*
X149847083Y-78264500D01*
X149692917Y-78264500D01*
X149593643Y-78291100D01*
X149544005Y-78304401D01*
X149410498Y-78381481D01*
X149410488Y-78381489D01*
X149301489Y-78490488D01*
X149301481Y-78490498D01*
X149224401Y-78624005D01*
X149211579Y-78671858D01*
X149186064Y-78767082D01*
X149184500Y-78772918D01*
X149184500Y-78927081D01*
X149184499Y-78927081D01*
X147815500Y-78927081D01*
X147815500Y-78772917D01*
X147775599Y-78624006D01*
X147698516Y-78490495D01*
X147698514Y-78490493D01*
X147698510Y-78490488D01*
X147589511Y-78381489D01*
X147589501Y-78381481D01*
X147455994Y-78304401D01*
X147307083Y-78264500D01*
X147152917Y-78264500D01*
X147053643Y-78291100D01*
X147004005Y-78304401D01*
X146870498Y-78381481D01*
X146870488Y-78381489D01*
X146761489Y-78490488D01*
X146761481Y-78490498D01*
X146684401Y-78624005D01*
X146671579Y-78671858D01*
X146646064Y-78767082D01*
X146644500Y-78772918D01*
X146644500Y-78927081D01*
X146644499Y-78927081D01*
X145275500Y-78927081D01*
X145275500Y-78772917D01*
X145235599Y-78624006D01*
X145158516Y-78490495D01*
X145158514Y-78490493D01*
X145158510Y-78490488D01*
X145049511Y-78381489D01*
X145049501Y-78381481D01*
X144915994Y-78304401D01*
X144767083Y-78264500D01*
X144612917Y-78264500D01*
X144513643Y-78291100D01*
X144464005Y-78304401D01*
X144330498Y-78381481D01*
X144330488Y-78381489D01*
X144221489Y-78490488D01*
X144221481Y-78490498D01*
X144144401Y-78624005D01*
X144131579Y-78671858D01*
X144106064Y-78767082D01*
X144104500Y-78772918D01*
X144104500Y-78927081D01*
X144104499Y-78927081D01*
X142735500Y-78927081D01*
X142735500Y-78772917D01*
X142695599Y-78624006D01*
X142618516Y-78490495D01*
X142618514Y-78490493D01*
X142618510Y-78490488D01*
X142509511Y-78381489D01*
X142509501Y-78381481D01*
X142375994Y-78304401D01*
X142227083Y-78264500D01*
X142072917Y-78264500D01*
X141973643Y-78291100D01*
X141924005Y-78304401D01*
X141790498Y-78381481D01*
X141790488Y-78381489D01*
X141681489Y-78490488D01*
X141681481Y-78490498D01*
X141604401Y-78624005D01*
X141591579Y-78671858D01*
X141566064Y-78767082D01*
X141564500Y-78772918D01*
X141564500Y-78927081D01*
X141564499Y-78927081D01*
X141564500Y-78927083D01*
X141604401Y-79075994D01*
X141634722Y-79128511D01*
X141650761Y-79156292D01*
X141667498Y-79225287D01*
X141644277Y-79292379D01*
X141588470Y-79336266D01*
X141517795Y-79343014D01*
X141471639Y-79324056D01*
X141349178Y-79242230D01*
X141168918Y-79167564D01*
X140977558Y-79129500D01*
X140977556Y-79129500D01*
X140782444Y-79129500D01*
X140782441Y-79129500D01*
X140591081Y-79167564D01*
X140591076Y-79167566D01*
X140410821Y-79242230D01*
X140288360Y-79324056D01*
X140220607Y-79345271D01*
X140152140Y-79326488D01*
X140104697Y-79273670D01*
X140093340Y-79203588D01*
X140109239Y-79156291D01*
X140114461Y-79147247D01*
X140155599Y-79075994D01*
X140195500Y-78927083D01*
X140195500Y-78772917D01*
X140155599Y-78624006D01*
X140078516Y-78490495D01*
X140078514Y-78490493D01*
X140078510Y-78490488D01*
X139969511Y-78381489D01*
X139969501Y-78381481D01*
X139835994Y-78304401D01*
X139687083Y-78264500D01*
X139532917Y-78264500D01*
X139433643Y-78291100D01*
X139384005Y-78304401D01*
X139250498Y-78381481D01*
X139250488Y-78381489D01*
X139141489Y-78490488D01*
X139141481Y-78490498D01*
X139064401Y-78624005D01*
X139051579Y-78671858D01*
X139026064Y-78767082D01*
X139024500Y-78772918D01*
X139024500Y-78927081D01*
X139024499Y-78927081D01*
X131500537Y-78927081D01*
X131514139Y-78841202D01*
X131516881Y-78828306D01*
X131593642Y-78541830D01*
X131597716Y-78529294D01*
X131703999Y-78252416D01*
X131709349Y-78240398D01*
X131844008Y-77976117D01*
X131850589Y-77964719D01*
X132012125Y-77715975D01*
X132019865Y-77705323D01*
X132206516Y-77474827D01*
X132215322Y-77465048D01*
X132425048Y-77255322D01*
X132434827Y-77246516D01*
X132665323Y-77059865D01*
X132675975Y-77052125D01*
X132924719Y-76890589D01*
X132936117Y-76884008D01*
X133200398Y-76749349D01*
X133212416Y-76743999D01*
X133489301Y-76637713D01*
X133501830Y-76633642D01*
X133788310Y-76556880D01*
X133801202Y-76554139D01*
X134094134Y-76507743D01*
X134107245Y-76506366D01*
X134406699Y-76490673D01*
X134413293Y-76490500D01*
X134436929Y-76490500D01*
X193383071Y-76490500D01*
X193406707Y-76490500D01*
X193413301Y-76490673D01*
G37*
%TD.AperFunction*%
%TD*%
M02*
