%TF.GenerationSoftware,KiCad,Pcbnew,8.0.1*%
%TF.CreationDate,2024-04-10T20:13:31+08:00*%
%TF.ProjectId,Photon_Power_Zero_PCB_r1_01,50686f74-6f6e-45f5-906f-7765725f5a65,rev?*%
%TF.SameCoordinates,Original*%
%TF.FileFunction,Copper,L1,Top*%
%TF.FilePolarity,Positive*%
%FSLAX46Y46*%
G04 Gerber Fmt 4.6, Leading zero omitted, Abs format (unit mm)*
G04 Created by KiCad (PCBNEW 8.0.1) date 2024-04-10 20:13:31*
%MOMM*%
%LPD*%
G01*
G04 APERTURE LIST*
G04 Aperture macros list*
%AMRoundRect*
0 Rectangle with rounded corners*
0 $1 Rounding radius*
0 $2 $3 $4 $5 $6 $7 $8 $9 X,Y pos of 4 corners*
0 Add a 4 corners polygon primitive as box body*
4,1,4,$2,$3,$4,$5,$6,$7,$8,$9,$2,$3,0*
0 Add four circle primitives for the rounded corners*
1,1,$1+$1,$2,$3*
1,1,$1+$1,$4,$5*
1,1,$1+$1,$6,$7*
1,1,$1+$1,$8,$9*
0 Add four rect primitives between the rounded corners*
20,1,$1+$1,$2,$3,$4,$5,0*
20,1,$1+$1,$4,$5,$6,$7,0*
20,1,$1+$1,$6,$7,$8,$9,0*
20,1,$1+$1,$8,$9,$2,$3,0*%
G04 Aperture macros list end*
%TA.AperFunction,SMDPad,CuDef*%
%ADD10RoundRect,0.237500X0.237500X-0.250000X0.237500X0.250000X-0.237500X0.250000X-0.237500X-0.250000X0*%
%TD*%
%TA.AperFunction,SMDPad,CuDef*%
%ADD11C,1.000000*%
%TD*%
%TA.AperFunction,SMDPad,CuDef*%
%ADD12R,0.558800X1.981200*%
%TD*%
%TA.AperFunction,SMDPad,CuDef*%
%ADD13RoundRect,0.237500X-0.237500X0.287500X-0.237500X-0.287500X0.237500X-0.287500X0.237500X0.287500X0*%
%TD*%
%TA.AperFunction,SMDPad,CuDef*%
%ADD14RoundRect,0.237500X-0.250000X-0.237500X0.250000X-0.237500X0.250000X0.237500X-0.250000X0.237500X0*%
%TD*%
%TA.AperFunction,SMDPad,CuDef*%
%ADD15R,0.550000X1.000000*%
%TD*%
%TA.AperFunction,SMDPad,CuDef*%
%ADD16R,2.800000X2.400000*%
%TD*%
%TA.AperFunction,SMDPad,CuDef*%
%ADD17R,1.270000X1.680000*%
%TD*%
%TA.AperFunction,SMDPad,CuDef*%
%ADD18R,1.520000X3.050000*%
%TD*%
%TA.AperFunction,SMDPad,CuDef*%
%ADD19R,3.500000X1.000000*%
%TD*%
%TA.AperFunction,SMDPad,CuDef*%
%ADD20R,3.400000X1.500000*%
%TD*%
%TA.AperFunction,SMDPad,CuDef*%
%ADD21R,3.050000X1.520000*%
%TD*%
%TA.AperFunction,SMDPad,CuDef*%
%ADD22RoundRect,0.237500X0.250000X0.237500X-0.250000X0.237500X-0.250000X-0.237500X0.250000X-0.237500X0*%
%TD*%
%TA.AperFunction,SMDPad,CuDef*%
%ADD23R,0.950000X0.900000*%
%TD*%
%TA.AperFunction,SMDPad,CuDef*%
%ADD24R,1.300000X0.900000*%
%TD*%
%TA.AperFunction,SMDPad,CuDef*%
%ADD25R,1.475000X0.900000*%
%TD*%
%TA.AperFunction,SMDPad,CuDef*%
%ADD26R,3.125000X1.733000*%
%TD*%
%TA.AperFunction,ComponentPad*%
%ADD27C,0.400000*%
%TD*%
%TA.AperFunction,SMDPad,CuDef*%
%ADD28RoundRect,0.007800X-0.122200X0.422200X-0.122200X-0.422200X0.122200X-0.422200X0.122200X0.422200X0*%
%TD*%
%TA.AperFunction,SMDPad,CuDef*%
%ADD29RoundRect,0.007800X0.422200X0.122200X-0.422200X0.122200X-0.422200X-0.122200X0.422200X-0.122200X0*%
%TD*%
%TA.AperFunction,SMDPad,CuDef*%
%ADD30R,1.680000X1.680000*%
%TD*%
%TA.AperFunction,SMDPad,CuDef*%
%ADD31RoundRect,0.150000X-0.150000X-0.700000X0.150000X-0.700000X0.150000X0.700000X-0.150000X0.700000X0*%
%TD*%
%TA.AperFunction,SMDPad,CuDef*%
%ADD32RoundRect,0.250000X-0.250000X-1.100000X0.250000X-1.100000X0.250000X1.100000X-0.250000X1.100000X0*%
%TD*%
%TA.AperFunction,ViaPad*%
%ADD33C,0.800000*%
%TD*%
%TA.AperFunction,ViaPad*%
%ADD34C,0.600000*%
%TD*%
%TA.AperFunction,Conductor*%
%ADD35C,0.200000*%
%TD*%
%TA.AperFunction,Conductor*%
%ADD36C,0.700000*%
%TD*%
%TA.AperFunction,Conductor*%
%ADD37C,0.500000*%
%TD*%
%TA.AperFunction,Conductor*%
%ADD38C,0.250000*%
%TD*%
%TA.AperFunction,Conductor*%
%ADD39C,0.600000*%
%TD*%
%TA.AperFunction,Conductor*%
%ADD40C,0.400000*%
%TD*%
G04 APERTURE END LIST*
D10*
%TO.P,R1,1*%
%TO.N,N/C*%
X140770000Y-90952500D03*
%TO.P,R1,2*%
%TO.N,VccBQ*%
X140770000Y-89127500D03*
%TD*%
D11*
%TO.P,FID1,*%
%TO.N,*%
X133040000Y-99330000D03*
%TD*%
D12*
%TO.P,U1,GND*%
%TO.N,GND*%
X171475000Y-93140000D03*
%TO.P,U1,PA0*%
%TO.N,N/C*%
X172745000Y-93140000D03*
%TO.P,U1,PA1*%
X174015000Y-93140000D03*
%TO.P,U1,PA2*%
X175285000Y-93140000D03*
%TO.P,U1,PA3*%
X176555000Y-93140000D03*
%TO.P,U1,PA4*%
X177825000Y-93140000D03*
%TO.P,U1,PA5*%
X179095000Y-93140000D03*
%TO.P,U1,PA6*%
X179095000Y-98067600D03*
%TO.P,U1,PA7*%
X177825000Y-98067600D03*
%TO.P,U1,PB0*%
X172745000Y-98067600D03*
%TO.P,U1,PB1*%
X174015000Y-98067600D03*
%TO.P,U1,PB2*%
X176555000Y-98067600D03*
%TO.P,U1,PB3/RST*%
X175285000Y-98067600D03*
%TO.P,U1,VCC*%
%TO.N,3v_to_ATtiny*%
X171475000Y-98067600D03*
%TD*%
D13*
%TO.P,D1,1*%
%TO.N,N/C*%
X185910000Y-102780000D03*
%TO.P,D1,2*%
X185910000Y-104530000D03*
%TD*%
D11*
%TO.P,FID4,*%
%TO.N,*%
X194240000Y-78630000D03*
%TD*%
D10*
%TO.P,C1,1*%
%TO.N,GND*%
X149040000Y-94932500D03*
%TO.P,C1,2*%
%TO.N,VccBQ*%
X149040000Y-93107500D03*
%TD*%
D14*
%TO.P,R4,1*%
%TO.N,N/C*%
X152037500Y-88280000D03*
%TO.P,R4,2*%
%TO.N,GND*%
X153862500Y-88280000D03*
%TD*%
D10*
%TO.P,R1,1*%
%TO.N,VccBattery*%
X149340000Y-86752500D03*
%TO.P,R1,2*%
%TO.N,N/C*%
X149340000Y-84927500D03*
%TD*%
D15*
%TO.P,U4,EN*%
%TO.N,N/C*%
X142700000Y-92740000D03*
%TO.P,U4,FLG*%
X142700000Y-90040000D03*
%TO.P,U4,GND*%
%TO.N,GND*%
X143650000Y-90040000D03*
%TO.P,U4,IN*%
%TO.N,VccBQ*%
X144600000Y-92740000D03*
%TO.P,U4,OUT*%
%TO.N,N/C*%
X144600000Y-90040000D03*
%TD*%
D16*
%TO.P,J3,1A*%
%TO.N,VccSolar*%
X185100000Y-97470000D03*
%TO.P,J3,1B*%
X191200000Y-97470000D03*
%TO.P,J3,2*%
%TO.N,GND*%
X191200000Y-86070000D03*
%TO.P,J3,3*%
X185100000Y-86070000D03*
%TD*%
D11*
%TO.P,FID3,*%
%TO.N,*%
X139920000Y-104810000D03*
%TD*%
D10*
%TO.P,R1,1*%
%TO.N,GND*%
X150850000Y-86752500D03*
%TO.P,R1,2*%
%TO.N,N/C*%
X150850000Y-84927500D03*
%TD*%
D17*
%TO.P,REF\u002A\u002A,01*%
%TO.N,5v2RPi*%
X139610000Y-77400000D03*
%TO.P,REF\u002A\u002A,02*%
%TO.N,N/C*%
X139610000Y-82840000D03*
%TO.P,REF\u002A\u002A,03*%
X142150000Y-77400000D03*
%TO.P,REF\u002A\u002A,04*%
X142150000Y-82840000D03*
%TO.P,REF\u002A\u002A,06*%
X144690000Y-82840000D03*
%TO.P,REF\u002A\u002A,07*%
X147230000Y-77400000D03*
%TO.P,REF\u002A\u002A,08*%
X147230000Y-82840000D03*
%TO.P,REF\u002A\u002A,09*%
X149770000Y-77400000D03*
%TO.P,REF\u002A\u002A,11*%
X152310000Y-77400000D03*
%TO.P,REF\u002A\u002A,12*%
X152310000Y-82840000D03*
%TO.P,REF\u002A\u002A,14*%
X154850000Y-82840000D03*
%TO.P,REF\u002A\u002A,15*%
X157390000Y-77400000D03*
%TO.P,REF\u002A\u002A,16*%
X157390000Y-82840000D03*
%TO.P,REF\u002A\u002A,17*%
X159930000Y-77400000D03*
%TO.P,REF\u002A\u002A,18*%
X159930000Y-82840000D03*
%TO.P,REF\u002A\u002A,20*%
X162470000Y-82840000D03*
%TO.P,REF\u002A\u002A,21*%
X165010000Y-77400000D03*
%TO.P,REF\u002A\u002A,22*%
X165010000Y-82840000D03*
%TO.P,REF\u002A\u002A,23*%
X167550000Y-77400000D03*
%TO.P,REF\u002A\u002A,24*%
X167550000Y-82840000D03*
%TO.P,REF\u002A\u002A,25*%
X170090000Y-77400000D03*
%TO.P,REF\u002A\u002A,27*%
X172630000Y-77400000D03*
%TO.P,REF\u002A\u002A,28*%
X172630000Y-82840000D03*
%TO.P,REF\u002A\u002A,30*%
X175170000Y-82840000D03*
%TO.P,REF\u002A\u002A,31*%
X177710000Y-77400000D03*
%TO.P,REF\u002A\u002A,32*%
X177710000Y-82840000D03*
%TO.P,REF\u002A\u002A,34*%
X180250000Y-82840000D03*
%TO.P,REF\u002A\u002A,35*%
X182790000Y-77400000D03*
%TO.P,REF\u002A\u002A,36*%
X182790000Y-82840000D03*
%TO.P,REF\u002A\u002A,37*%
X185330000Y-77400000D03*
%TO.P,REF\u002A\u002A,38*%
X185330000Y-82840000D03*
%TO.P,REF\u002A\u002A,39*%
X187870000Y-77400000D03*
%TO.P,REF\u002A\u002A,GND*%
%TO.N,GND*%
X149770000Y-82840000D03*
X170090000Y-82840000D03*
X187870000Y-82840000D03*
X144690000Y-77400000D03*
X154850000Y-77400000D03*
X162470000Y-77400000D03*
X175170000Y-77400000D03*
X180250000Y-77400000D03*
%TD*%
D10*
%TO.P,C1,1*%
%TO.N,GND*%
X146240000Y-94612500D03*
%TO.P,C1,2*%
%TO.N,VccBQ*%
X146240000Y-92787500D03*
%TD*%
D18*
%TO.P,L1,1*%
%TO.N,N/C*%
X141070000Y-86520000D03*
%TO.P,L1,2*%
X138780000Y-86520000D03*
%TD*%
D11*
%TO.P,FID2,*%
%TO.N,*%
X133040000Y-87720000D03*
%TD*%
D19*
%TO.P,J1,1*%
%TO.N,VccBattery*%
X139190000Y-92590000D03*
%TO.P,J1,2*%
%TO.N,GND*%
X139190000Y-94590000D03*
D20*
%TO.P,J1,S1*%
%TO.N,N/C*%
X133440000Y-90240000D03*
%TO.P,J1,S2*%
X133440000Y-96940000D03*
%TD*%
D11*
%TO.P,FID7,*%
%TO.N,*%
X147200000Y-86360000D03*
%TD*%
D13*
%TO.P,D1,1*%
%TO.N,N/C*%
X177190000Y-102762500D03*
%TO.P,D1,2*%
%TO.N,GND*%
X177190000Y-104512500D03*
%TD*%
D21*
%TO.P,C3,1*%
%TO.N,N/C*%
X143980000Y-88060000D03*
%TO.P,C3,2*%
%TO.N,GND*%
X143980000Y-85770000D03*
%TD*%
D11*
%TO.P,FID5,*%
%TO.N,*%
X194760000Y-98950000D03*
%TD*%
D18*
%TO.P,C3,1*%
%TO.N,5v2RPi*%
X136770000Y-78820000D03*
%TO.P,C3,2*%
%TO.N,GND*%
X134480000Y-78820000D03*
%TD*%
D22*
%TO.P,R4,1*%
%TO.N,GND*%
X155525000Y-95980000D03*
%TO.P,R4,2*%
%TO.N,N/C*%
X153700000Y-95980000D03*
%TD*%
D13*
%TO.P,D1,1*%
%TO.N,N/C*%
X183180000Y-102750000D03*
%TO.P,D1,2*%
X183180000Y-104500000D03*
%TD*%
D23*
%TO.P,D2,A*%
%TO.N,N/C*%
X136550000Y-86260000D03*
%TO.P,D2,K*%
%TO.N,5v2RPi*%
X136550000Y-83110000D03*
%TD*%
D10*
%TO.P,C1,1*%
%TO.N,GND*%
X170070000Y-100352500D03*
%TO.P,C1,2*%
%TO.N,3v_to_ATtiny*%
X170070000Y-98527500D03*
%TD*%
D24*
%TO.P,U2,1*%
%TO.N,GND*%
X167887500Y-101270000D03*
D25*
%TO.P,U2,2*%
%TO.N,VccBQ*%
X167800000Y-99770000D03*
D26*
%TO.P,U2,2.1*%
X165500000Y-99770000D03*
D24*
%TO.P,U2,3*%
%TO.N,3v_to_ATtiny*%
X167887500Y-98270000D03*
%TD*%
D10*
%TO.P,C1,1*%
%TO.N,GND*%
X162440000Y-101712500D03*
%TO.P,C1,2*%
%TO.N,VccBQ*%
X162440000Y-99887500D03*
%TD*%
D14*
%TO.P,R2,1*%
%TO.N,N/C*%
X176175000Y-101170000D03*
%TO.P,R2,2*%
X178000000Y-101170000D03*
%TD*%
%TO.P,R2,1*%
%TO.N,N/C*%
X183170000Y-101140000D03*
%TO.P,R2,2*%
%TO.N,VccBQ*%
X184995000Y-101140000D03*
%TD*%
D22*
%TO.P,R2,1*%
%TO.N,N/C*%
X188325000Y-101140000D03*
%TO.P,R2,2*%
%TO.N,VccBQ*%
X186500000Y-101140000D03*
%TD*%
D10*
%TO.P,C1,1*%
%TO.N,GND*%
X152020000Y-93132500D03*
%TO.P,C1,2*%
%TO.N,VccSolar*%
X152020000Y-91307500D03*
%TD*%
D27*
%TO.P,U3,18*%
%TO.N,GND*%
X149135000Y-90210000D03*
%TO.P,U3,19*%
X149715000Y-90790000D03*
%TO.P,U3,20*%
X148555000Y-90790000D03*
%TO.P,U3,21*%
X149715000Y-89630000D03*
%TO.P,U3,22*%
X148555000Y-89630000D03*
D28*
%TO.P,U3,BATT*%
%TO.N,VccBattery*%
X149385000Y-88775000D03*
%TO.P,U3,Batt*%
X148885000Y-88775000D03*
%TO.P,U3,CE*%
%TO.N,GND*%
X148385000Y-88775000D03*
%TO.P,U3,CHG*%
%TO.N,N/C*%
X148385000Y-91645000D03*
D29*
%TO.P,U3,EN1*%
%TO.N,GND*%
X147700000Y-89960000D03*
%TO.P,U3,EN2*%
%TO.N,VccBQ*%
X147700000Y-89460000D03*
%TO.P,U3,GND*%
%TO.N,GND*%
X147700000Y-90960000D03*
D28*
%TO.P,U3,ILM*%
%TO.N,N/C*%
X149885000Y-91645000D03*
D29*
%TO.P,U3,IN*%
%TO.N,VccSolar*%
X150570000Y-90960000D03*
%TO.P,U3,ISET*%
%TO.N,N/C*%
X150570000Y-89460000D03*
D28*
%TO.P,U3,OUT*%
%TO.N,VccBQ*%
X149385000Y-91645000D03*
X148885000Y-91645000D03*
D29*
%TO.P,U3,PGOOD*%
%TO.N,N/C*%
X147700000Y-90460000D03*
%TO.P,U3,TD*%
X150570000Y-89960000D03*
%TO.P,U3,TMR*%
%TO.N,GND*%
X150570000Y-90460000D03*
D28*
%TO.P,U3,TS*%
%TO.N,N/C*%
X149885000Y-88775000D03*
D30*
%TO.P,U3,Thermal GND*%
%TO.N,GND*%
X149135000Y-90210000D03*
%TD*%
D11*
%TO.P,FID6,*%
%TO.N,*%
X188910000Y-104740000D03*
%TD*%
D14*
%TO.P,R1,1*%
%TO.N,N/C*%
X152040000Y-89790000D03*
%TO.P,R1,2*%
%TO.N,GND*%
X153865000Y-89790000D03*
%TD*%
D13*
%TO.P,D1,1*%
%TO.N,N/C*%
X180140000Y-102727500D03*
%TO.P,D1,2*%
%TO.N,GND*%
X180140000Y-104477500D03*
%TD*%
D15*
%TO.P,U5,GND*%
%TO.N,GND*%
X133490000Y-85310000D03*
%TO.P,U5,NC*%
%TO.N,N/C*%
X132540000Y-82610000D03*
X134440000Y-85310000D03*
%TO.P,U5,SW*%
X132540000Y-85310000D03*
%TO.P,U5,Vout*%
%TO.N,5v2RPi*%
X134440000Y-82610000D03*
%TD*%
D11*
%TO.P,FID7,*%
%TO.N,*%
X159160000Y-88430000D03*
%TD*%
D22*
%TO.P,R1,1*%
%TO.N,N/C*%
X146042500Y-98360000D03*
%TO.P,R1,2*%
%TO.N,GND*%
X144217500Y-98360000D03*
%TD*%
D14*
%TO.P,R2,1*%
%TO.N,N/C*%
X179525000Y-101150000D03*
%TO.P,R2,2*%
X181350000Y-101150000D03*
%TD*%
D31*
%TO.P,J2,1*%
%TO.N,GND*%
X144189000Y-100944000D03*
%TO.P,J2,2*%
%TO.N,N/C*%
X145439000Y-100944000D03*
D32*
%TO.P,J2,MP*%
X142339000Y-104144000D03*
X147289000Y-104144000D03*
%TD*%
D33*
%TO.N,*%
X146769500Y-90980000D03*
D34*
X171000000Y-102460000D03*
D33*
X184080000Y-78830000D03*
X173150000Y-96050000D03*
X142710000Y-93910000D03*
X179105000Y-91670000D03*
D34*
X146042500Y-96610000D03*
D33*
X184510000Y-102320000D03*
X176580000Y-96590000D03*
D34*
X150304878Y-87884878D03*
D33*
X172745000Y-91520000D03*
X181540000Y-102310000D03*
D34*
X151870000Y-84920000D03*
D33*
X146769500Y-91822027D03*
X175120000Y-96620000D03*
X177835000Y-91640000D03*
D34*
X189400000Y-78310000D03*
D33*
%TO.N,5v2RPi*%
X137540000Y-82090000D03*
D34*
%TO.N,GND*%
X178990000Y-77570000D03*
D33*
X149800000Y-95570000D03*
X170050000Y-101330000D03*
X156690000Y-96000000D03*
X176260000Y-104520000D03*
X154812000Y-89770000D03*
X179030000Y-104460000D03*
D34*
X168840000Y-82870000D03*
D33*
X154849500Y-88290000D03*
X152120000Y-94120000D03*
X145880000Y-84850000D03*
D34*
X153790000Y-77400000D03*
X144210000Y-99540000D03*
D33*
X137940000Y-95890000D03*
D34*
X151910000Y-86740000D03*
X161370000Y-101710000D03*
D33*
X150980000Y-82840000D03*
X183850000Y-87820000D03*
X133220498Y-78770000D03*
X132870000Y-84270000D03*
X143420000Y-77580000D03*
X189150000Y-86050000D03*
D34*
X161360000Y-77600000D03*
D33*
X170685000Y-93140000D03*
D34*
X173910000Y-77610000D03*
D33*
X146659500Y-95470000D03*
X143650000Y-90950000D03*
%TO.N,VccSolar*%
X191160000Y-95710000D03*
%TO.N,VccBattery*%
X138310000Y-91430000D03*
D34*
%TO.N,VccBQ*%
X159190000Y-96140000D03*
X156370000Y-93300000D03*
D33*
%TO.N,3v_to_ATtiny*%
X170070000Y-97320000D03*
%TD*%
D35*
%TO.N,*%
X150850000Y-84927500D02*
X151862500Y-84927500D01*
X181510000Y-85355000D02*
X181510000Y-78680000D01*
X177825000Y-100995000D02*
X178000000Y-101170000D01*
X175285000Y-96785000D02*
X175120000Y-96620000D01*
D36*
X144600000Y-90040000D02*
X144600000Y-88675000D01*
D37*
X143980000Y-88060000D02*
X142890000Y-88060000D01*
D35*
X171000000Y-102460000D02*
X172745000Y-100715000D01*
X141682500Y-90040000D02*
X142700000Y-90040000D01*
X179095000Y-98067600D02*
X179095000Y-96875000D01*
X176175000Y-101170000D02*
X176175000Y-101747500D01*
X146769500Y-90980000D02*
X146841726Y-90980000D01*
X146042500Y-96610000D02*
X146042500Y-98360000D01*
X182360000Y-83960000D02*
X182790000Y-83530000D01*
D37*
X144600000Y-88675000D02*
X143980000Y-88055000D01*
D35*
X187870000Y-77400000D02*
X188490000Y-77400000D01*
X175285000Y-93140000D02*
X175285000Y-91640000D01*
D36*
X142890000Y-88060000D02*
X141070000Y-86240000D01*
D35*
X146769500Y-91822027D02*
X146946527Y-91645000D01*
X181350000Y-101150000D02*
X180295000Y-102205000D01*
X176555000Y-91670000D02*
X176555000Y-91545000D01*
X179095000Y-98067600D02*
X179095000Y-100720000D01*
X179095000Y-91680000D02*
X179105000Y-91670000D01*
X179105000Y-90305000D02*
X179105000Y-91670000D01*
X175285000Y-91640000D02*
X175255000Y-91610000D01*
D38*
X184510000Y-103130000D02*
X185910000Y-104530000D01*
X181540000Y-102860000D02*
X183180000Y-104500000D01*
D35*
X149340000Y-84927500D02*
X150850000Y-84927500D01*
X183000000Y-84740000D02*
X184900000Y-82840000D01*
X176555000Y-91545000D02*
X182360000Y-85740000D01*
X176580000Y-98042600D02*
X176555000Y-98067600D01*
X142700000Y-93900000D02*
X142700000Y-92740000D01*
D38*
X184510000Y-102320000D02*
X184510000Y-103130000D01*
D35*
X146946527Y-91645000D02*
X148385000Y-91645000D01*
X177825000Y-98067600D02*
X177825000Y-100995000D01*
X178270000Y-96050000D02*
X173150000Y-96050000D01*
X140770000Y-90952500D02*
X141682500Y-90040000D01*
X150570000Y-89960000D02*
X151870000Y-89960000D01*
D39*
X132540000Y-85735000D02*
X132540000Y-85310000D01*
X138520000Y-86260000D02*
X138780000Y-86520000D01*
D35*
X151090000Y-94080000D02*
X152990000Y-95980000D01*
X172745000Y-93140000D02*
X172745000Y-91520000D01*
X186960000Y-102505000D02*
X186185000Y-102505000D01*
X151862500Y-84927500D02*
X151870000Y-84920000D01*
X179095000Y-100720000D02*
X179525000Y-101150000D01*
X184080000Y-78650000D02*
X185330000Y-77400000D01*
X184900000Y-82840000D02*
X185330000Y-82840000D01*
X184080000Y-78830000D02*
X184080000Y-78650000D01*
X183000000Y-86410000D02*
X179105000Y-90305000D01*
X176555000Y-93140000D02*
X176555000Y-91670000D01*
X183000000Y-84740000D02*
X183000000Y-86410000D01*
X176175000Y-101747500D02*
X177190000Y-102762500D01*
D39*
X136550000Y-86260000D02*
X133065000Y-86260000D01*
D35*
X150570000Y-89460000D02*
X150750000Y-89460000D01*
X177825000Y-93140000D02*
X177825000Y-91650000D01*
D38*
X174015000Y-91620000D02*
X180250000Y-85385000D01*
D35*
X182790000Y-83530000D02*
X182790000Y-82840000D01*
X180295000Y-102205000D02*
X180295000Y-102715000D01*
X150750000Y-89460000D02*
X151840000Y-88370000D01*
X177825000Y-91650000D02*
X177835000Y-91640000D01*
X179095000Y-93140000D02*
X179095000Y-91680000D01*
X150304878Y-88355122D02*
X149885000Y-88775000D01*
X151870000Y-89960000D02*
X152040000Y-89790000D01*
X151090000Y-92850000D02*
X151090000Y-94080000D01*
X146050000Y-98367500D02*
X146042500Y-98360000D01*
X186960000Y-102505000D02*
X188325000Y-101140000D01*
X149885000Y-91645000D02*
X151090000Y-92850000D01*
X176555000Y-91670000D02*
X176545000Y-91660000D01*
X172745000Y-100715000D02*
X172745000Y-98067600D01*
X176580000Y-96590000D02*
X176580000Y-98042600D01*
X175285000Y-98067600D02*
X175285000Y-96785000D01*
D39*
X133065000Y-86260000D02*
X132540000Y-85735000D01*
D35*
X152990000Y-95980000D02*
X153700000Y-95980000D01*
X182360000Y-85740000D02*
X182360000Y-83960000D01*
X146841726Y-90980000D02*
X147361726Y-90460000D01*
D38*
X180250000Y-85385000D02*
X180250000Y-82840000D01*
D35*
X175255000Y-91610000D02*
X181510000Y-85355000D01*
X186185000Y-102505000D02*
X185910000Y-102780000D01*
X150304878Y-87884878D02*
X150304878Y-88355122D01*
X147361726Y-90460000D02*
X147700000Y-90460000D01*
X142710000Y-93910000D02*
X142700000Y-93900000D01*
X181510000Y-78680000D02*
X182790000Y-77400000D01*
X179095000Y-96875000D02*
X178270000Y-96050000D01*
D38*
X181540000Y-102310000D02*
X181540000Y-102860000D01*
X174015000Y-93140000D02*
X174015000Y-91620000D01*
D39*
X136550000Y-86260000D02*
X138520000Y-86260000D01*
D35*
X146050000Y-100333000D02*
X146050000Y-98367500D01*
X188490000Y-77400000D02*
X189400000Y-78310000D01*
X146050000Y-100333000D02*
X145439000Y-100944000D01*
D37*
%TO.N,5v2RPi*%
X136550000Y-80900000D02*
X136770000Y-80680000D01*
D39*
X134840000Y-82610000D02*
X134440000Y-82610000D01*
X136550000Y-81620000D02*
X136550000Y-80900000D01*
X137540000Y-82090000D02*
X137060000Y-81610000D01*
X136770000Y-78820000D02*
X136770000Y-80680000D01*
X135775000Y-81675000D02*
X134840000Y-82610000D01*
X137040000Y-78550000D02*
X136770000Y-78820000D01*
X136550000Y-83110000D02*
X136550000Y-81620000D01*
X139190000Y-77400000D02*
X139610000Y-77400000D01*
D36*
X138040000Y-78550000D02*
X139190000Y-77400000D01*
X138040000Y-78550000D02*
X137040000Y-78550000D01*
X138040000Y-78550000D02*
X137780000Y-78550000D01*
D39*
X137060000Y-81610000D02*
X136560000Y-81610000D01*
X135775000Y-81675000D02*
X136770000Y-80680000D01*
D35*
%TO.N,GND*%
X144210000Y-100923000D02*
X144189000Y-100944000D01*
D38*
X149800000Y-95570000D02*
X149800000Y-95380000D01*
D35*
X180080000Y-77570000D02*
X180250000Y-77400000D01*
D38*
X148385000Y-90960000D02*
X148555000Y-90790000D01*
X179030000Y-104460000D02*
X180290000Y-104460000D01*
X133490000Y-85310000D02*
X133490000Y-84890000D01*
X148385000Y-88775000D02*
X148385000Y-89460000D01*
D39*
X161360000Y-77600000D02*
X162270000Y-77600000D01*
D35*
X154839500Y-88280000D02*
X154849500Y-88290000D01*
D38*
X176260000Y-104520000D02*
X177182500Y-104520000D01*
X149800000Y-95380000D02*
X149070000Y-94650000D01*
D35*
X162440000Y-101712500D02*
X161372500Y-101712500D01*
D38*
X152120000Y-93232500D02*
X152020000Y-93132500D01*
D35*
X134430000Y-78770000D02*
X134480000Y-78820000D01*
D40*
X169990000Y-101270000D02*
X170050000Y-101330000D01*
D35*
X143670000Y-90990000D02*
X143680000Y-90980000D01*
X146659500Y-95470000D02*
X146659500Y-95189500D01*
X153865000Y-89790000D02*
X154792000Y-89790000D01*
D37*
X189170000Y-86070000D02*
X189150000Y-86050000D01*
D35*
X144217500Y-99532500D02*
X144210000Y-99540000D01*
X143420000Y-77580000D02*
X144510000Y-77580000D01*
D38*
X148225000Y-89960000D02*
X147700000Y-89960000D01*
D35*
X144510000Y-77580000D02*
X144690000Y-77400000D01*
D37*
X139190000Y-94640000D02*
X137940000Y-95890000D01*
D38*
X133490000Y-84890000D02*
X132870000Y-84270000D01*
D35*
X146659500Y-95189500D02*
X146270000Y-94800000D01*
D40*
X144965000Y-85765000D02*
X143260000Y-85765000D01*
D35*
X168870000Y-82840000D02*
X168840000Y-82870000D01*
X150850000Y-86752500D02*
X151897500Y-86752500D01*
D39*
X185100000Y-86070000D02*
X187870000Y-83300000D01*
D35*
X154792000Y-89790000D02*
X154812000Y-89770000D01*
D40*
X145880000Y-84850000D02*
X144965000Y-85765000D01*
D35*
X153790000Y-77400000D02*
X154850000Y-77400000D01*
X153862500Y-88280000D02*
X154839500Y-88280000D01*
X161372500Y-101712500D02*
X161370000Y-101710000D01*
X173910000Y-77610000D02*
X174960000Y-77610000D01*
X139030000Y-94790000D02*
X139180000Y-94640000D01*
D37*
X170090000Y-82840000D02*
X168870000Y-82840000D01*
D35*
X155525000Y-95980000D02*
X156670000Y-95980000D01*
D39*
X185100000Y-86570000D02*
X183850000Y-87820000D01*
D35*
X174960000Y-77610000D02*
X175170000Y-77400000D01*
X151897500Y-86752500D02*
X151910000Y-86740000D01*
D38*
X147700000Y-90960000D02*
X148385000Y-90960000D01*
D35*
X139190000Y-94590000D02*
X139190000Y-94640000D01*
X150980000Y-82840000D02*
X149770000Y-82840000D01*
D38*
X148385000Y-89460000D02*
X148555000Y-89630000D01*
D40*
X167887500Y-101270000D02*
X169990000Y-101270000D01*
D35*
X144217500Y-98360000D02*
X144217500Y-99532500D01*
D38*
X177182500Y-104520000D02*
X177190000Y-104512500D01*
D37*
X170685000Y-93140000D02*
X171475000Y-93140000D01*
D39*
X187870000Y-83025000D02*
X187870000Y-83280000D01*
X190915000Y-86070000D02*
X187870000Y-83025000D01*
X185100000Y-86070000D02*
X185100000Y-86570000D01*
D35*
X178990000Y-77570000D02*
X180080000Y-77570000D01*
X162270000Y-77600000D02*
X162470000Y-77400000D01*
D38*
X148555000Y-89630000D02*
X148225000Y-89960000D01*
D37*
X191200000Y-86070000D02*
X190915000Y-86070000D01*
D35*
X156670000Y-95980000D02*
X156690000Y-96000000D01*
D38*
X148885000Y-89960000D02*
X149135000Y-90210000D01*
D40*
X133220498Y-78770000D02*
X134430000Y-78770000D01*
D38*
X152120000Y-94120000D02*
X152120000Y-93232500D01*
D40*
X170050000Y-101330000D02*
X170050000Y-100372500D01*
X170050000Y-100372500D02*
X170070000Y-100352500D01*
D35*
X144210000Y-99540000D02*
X144210000Y-100923000D01*
D38*
X150045000Y-90460000D02*
X149715000Y-90790000D01*
D37*
X143680000Y-90980000D02*
X143680000Y-90080000D01*
D39*
X187870000Y-83300000D02*
X187870000Y-83025000D01*
D38*
X150570000Y-90460000D02*
X150045000Y-90460000D01*
D37*
X191200000Y-86070000D02*
X189170000Y-86070000D01*
D39*
%TO.N,VccSolar*%
X185100000Y-97470000D02*
X191200000Y-97470000D01*
D35*
X150860000Y-91240000D02*
X150927500Y-91307500D01*
D39*
X191200000Y-95750000D02*
X191160000Y-95710000D01*
X182360000Y-94730000D02*
X185100000Y-97470000D01*
X191200000Y-97470000D02*
X191200000Y-95750000D01*
X155442500Y-94730000D02*
X182360000Y-94730000D01*
D35*
X150850000Y-91240000D02*
X150860000Y-91240000D01*
D39*
X152020000Y-91307500D02*
X155442500Y-94730000D01*
X150927500Y-91307500D02*
X152020000Y-91307500D01*
D37*
X150570000Y-90960000D02*
X150850000Y-91240000D01*
D35*
%TO.N,VccBattery*%
X149340000Y-86792500D02*
X149340000Y-87614000D01*
D37*
X148200000Y-87830000D02*
X144450000Y-91580000D01*
X148885000Y-88775000D02*
X148885000Y-88069000D01*
X139190000Y-92310000D02*
X138310000Y-91430000D01*
X142200000Y-91740000D02*
X144290000Y-91740000D01*
D35*
X140830000Y-92658604D02*
X140830000Y-92770000D01*
D37*
X144290000Y-91740000D02*
X144450000Y-91580000D01*
X149029000Y-88419000D02*
X149385000Y-88775000D01*
X139190000Y-92590000D02*
X141350000Y-92590000D01*
X148885000Y-88275000D02*
X149029000Y-88419000D01*
X148646000Y-87830000D02*
X148200000Y-87830000D01*
X148885000Y-88069000D02*
X148646000Y-87830000D01*
X148885000Y-88069000D02*
X148885000Y-88275000D01*
X139190000Y-92590000D02*
X139190000Y-92310000D01*
D35*
X149340000Y-87614000D02*
X148885000Y-88069000D01*
D37*
X141350000Y-92590000D02*
X142200000Y-91740000D01*
D38*
%TO.N,VccBQ*%
X148885000Y-92755000D02*
X149070000Y-92940000D01*
D40*
X144647500Y-92787500D02*
X144600000Y-92740000D01*
D35*
X146170000Y-92660000D02*
X146290000Y-92780000D01*
D38*
X148860000Y-92780000D02*
X148885000Y-92755000D01*
D35*
X147700000Y-89460000D02*
X147361726Y-89460000D01*
D37*
X148885000Y-91645000D02*
X148885000Y-92755000D01*
X146247500Y-92780000D02*
X146240000Y-92787500D01*
D39*
X148860000Y-92780000D02*
X146247500Y-92780000D01*
D37*
X165500000Y-99770000D02*
X167800000Y-99770000D01*
D40*
X164960000Y-99610000D02*
X166760000Y-99610000D01*
D39*
X146240000Y-92787500D02*
X144647500Y-92787500D01*
D40*
X155950000Y-99880000D02*
X149070000Y-93000000D01*
D35*
X147361726Y-89460000D02*
X146170000Y-90651726D01*
X146170000Y-90651726D02*
X146170000Y-92660000D01*
D40*
X155950000Y-99880000D02*
X163930000Y-99880000D01*
D37*
X148885000Y-91645000D02*
X149385000Y-91645000D01*
X149385000Y-92625000D02*
X149070000Y-92940000D01*
D38*
X162820000Y-99860000D02*
X163740000Y-99860000D01*
D40*
X149070000Y-93000000D02*
X149070000Y-92940000D01*
D37*
X149385000Y-91645000D02*
X149385000Y-92625000D01*
D38*
X162810000Y-99870000D02*
X162820000Y-99860000D01*
D35*
%TO.N,3v_to_ATtiny*%
X169950000Y-98270000D02*
X170010000Y-98330000D01*
D40*
X170070000Y-98527500D02*
X170070000Y-97320000D01*
X171015100Y-98527500D02*
X171475000Y-98067600D01*
X167887500Y-98270000D02*
X169812500Y-98270000D01*
X169812500Y-98270000D02*
X170070000Y-98527500D01*
X170070000Y-98527500D02*
X171015100Y-98527500D01*
%TD*%
%TA.AperFunction,Conductor*%
%TO.N,VccBQ*%
G36*
X146028621Y-76510502D02*
G01*
X146075114Y-76564158D01*
X146086500Y-76616500D01*
X146086500Y-78288649D01*
X146093009Y-78349196D01*
X146093011Y-78349204D01*
X146144110Y-78486202D01*
X146144112Y-78486207D01*
X146231738Y-78603261D01*
X146348792Y-78690887D01*
X146348794Y-78690888D01*
X146348796Y-78690889D01*
X146402857Y-78711053D01*
X146485795Y-78741988D01*
X146485803Y-78741990D01*
X146515484Y-78745180D01*
X146531967Y-78746952D01*
X146597559Y-78774119D01*
X146638051Y-78832436D01*
X146644500Y-78872230D01*
X146644500Y-78927081D01*
X146644499Y-78927081D01*
X146684401Y-79075994D01*
X146761481Y-79209501D01*
X146761489Y-79209511D01*
X146870488Y-79318510D01*
X146870493Y-79318514D01*
X146870495Y-79318516D01*
X146870496Y-79318517D01*
X146870498Y-79318518D01*
X146915842Y-79344697D01*
X147004006Y-79395599D01*
X147152917Y-79435500D01*
X147152919Y-79435500D01*
X147307081Y-79435500D01*
X147307083Y-79435500D01*
X147455994Y-79395599D01*
X147589505Y-79318516D01*
X147698516Y-79209505D01*
X147775599Y-79075994D01*
X147815500Y-78927083D01*
X147815500Y-78872230D01*
X147835502Y-78804109D01*
X147889158Y-78757616D01*
X147928032Y-78746952D01*
X147946790Y-78744935D01*
X147974196Y-78741990D01*
X147974199Y-78741989D01*
X147974201Y-78741989D01*
X147976459Y-78741147D01*
X147993045Y-78734960D01*
X148111204Y-78690889D01*
X148191367Y-78630880D01*
X148228261Y-78603261D01*
X148315887Y-78486207D01*
X148315887Y-78486206D01*
X148315889Y-78486204D01*
X148366989Y-78349201D01*
X148366989Y-78349199D01*
X148366990Y-78349196D01*
X148373499Y-78288649D01*
X148373500Y-78288632D01*
X148373500Y-76616500D01*
X148393502Y-76548379D01*
X148447158Y-76501886D01*
X148499500Y-76490500D01*
X148500500Y-76490500D01*
X148568621Y-76510502D01*
X148615114Y-76564158D01*
X148626500Y-76616500D01*
X148626500Y-78288649D01*
X148633009Y-78349196D01*
X148633011Y-78349204D01*
X148684110Y-78486202D01*
X148684112Y-78486207D01*
X148771738Y-78603261D01*
X148888792Y-78690887D01*
X148888794Y-78690888D01*
X148888796Y-78690889D01*
X148942857Y-78711053D01*
X149025795Y-78741988D01*
X149025803Y-78741990D01*
X149055484Y-78745180D01*
X149071967Y-78746952D01*
X149137559Y-78774119D01*
X149178051Y-78832436D01*
X149184500Y-78872230D01*
X149184500Y-78927081D01*
X149184499Y-78927081D01*
X149224401Y-79075994D01*
X149301481Y-79209501D01*
X149301489Y-79209511D01*
X149410488Y-79318510D01*
X149410493Y-79318514D01*
X149410495Y-79318516D01*
X149410496Y-79318517D01*
X149410498Y-79318518D01*
X149455842Y-79344697D01*
X149544006Y-79395599D01*
X149692917Y-79435500D01*
X149692919Y-79435500D01*
X149847081Y-79435500D01*
X149847083Y-79435500D01*
X149995994Y-79395599D01*
X150129505Y-79318516D01*
X150238516Y-79209505D01*
X150315599Y-79075994D01*
X150355500Y-78927083D01*
X150355500Y-78872230D01*
X150375502Y-78804109D01*
X150429158Y-78757616D01*
X150468032Y-78746952D01*
X150486790Y-78744935D01*
X150514196Y-78741990D01*
X150514199Y-78741989D01*
X150514201Y-78741989D01*
X150516459Y-78741147D01*
X150533045Y-78734960D01*
X150651204Y-78690889D01*
X150731367Y-78630880D01*
X150768261Y-78603261D01*
X150855887Y-78486207D01*
X150855887Y-78486206D01*
X150855889Y-78486204D01*
X150906989Y-78349201D01*
X150906989Y-78349199D01*
X150906990Y-78349196D01*
X150913499Y-78288649D01*
X150913500Y-78288632D01*
X150913500Y-76616500D01*
X150933502Y-76548379D01*
X150987158Y-76501886D01*
X151039500Y-76490500D01*
X151040500Y-76490500D01*
X151108621Y-76510502D01*
X151155114Y-76564158D01*
X151166500Y-76616500D01*
X151166500Y-78288649D01*
X151173009Y-78349196D01*
X151173011Y-78349204D01*
X151224110Y-78486202D01*
X151224112Y-78486207D01*
X151311738Y-78603261D01*
X151428792Y-78690887D01*
X151428794Y-78690888D01*
X151428796Y-78690889D01*
X151482857Y-78711053D01*
X151565795Y-78741988D01*
X151565803Y-78741990D01*
X151595484Y-78745180D01*
X151611967Y-78746952D01*
X151677559Y-78774119D01*
X151718051Y-78832436D01*
X151724500Y-78872230D01*
X151724500Y-78927081D01*
X151724499Y-78927081D01*
X151764401Y-79075994D01*
X151841481Y-79209501D01*
X151841489Y-79209511D01*
X151950488Y-79318510D01*
X151950493Y-79318514D01*
X151950495Y-79318516D01*
X151950496Y-79318517D01*
X151950498Y-79318518D01*
X151995842Y-79344697D01*
X152084006Y-79395599D01*
X152232917Y-79435500D01*
X152232919Y-79435500D01*
X152387081Y-79435500D01*
X152387083Y-79435500D01*
X152535994Y-79395599D01*
X152669505Y-79318516D01*
X152778516Y-79209505D01*
X152855599Y-79075994D01*
X152895500Y-78927083D01*
X152895500Y-78872230D01*
X152915502Y-78804109D01*
X152969158Y-78757616D01*
X153008032Y-78746952D01*
X153026790Y-78744935D01*
X153054196Y-78741990D01*
X153054199Y-78741989D01*
X153054201Y-78741989D01*
X153056459Y-78741147D01*
X153073045Y-78734960D01*
X153191204Y-78690889D01*
X153271367Y-78630880D01*
X153308261Y-78603261D01*
X153395887Y-78486207D01*
X153395887Y-78486206D01*
X153395889Y-78486204D01*
X153446989Y-78349201D01*
X153446989Y-78349198D01*
X153446990Y-78349195D01*
X153452087Y-78301781D01*
X153479255Y-78236188D01*
X153537572Y-78195696D01*
X153605408Y-78192407D01*
X153608947Y-78193214D01*
X153608953Y-78193217D01*
X153608959Y-78193217D01*
X153610809Y-78193640D01*
X153672770Y-78228302D01*
X153706154Y-78290960D01*
X153708044Y-78303010D01*
X153713010Y-78349197D01*
X153713011Y-78349204D01*
X153764110Y-78486202D01*
X153764112Y-78486207D01*
X153851738Y-78603261D01*
X153968792Y-78690887D01*
X153968794Y-78690888D01*
X153968796Y-78690889D01*
X154022857Y-78711053D01*
X154105795Y-78741988D01*
X154105803Y-78741990D01*
X154135484Y-78745180D01*
X154151967Y-78746952D01*
X154217559Y-78774119D01*
X154258051Y-78832436D01*
X154264500Y-78872230D01*
X154264500Y-78927081D01*
X154264499Y-78927081D01*
X154304401Y-79075994D01*
X154381481Y-79209501D01*
X154381489Y-79209511D01*
X154490488Y-79318510D01*
X154490493Y-79318514D01*
X154490495Y-79318516D01*
X154490496Y-79318517D01*
X154490498Y-79318518D01*
X154535842Y-79344697D01*
X154624006Y-79395599D01*
X154772917Y-79435500D01*
X154772919Y-79435500D01*
X154927081Y-79435500D01*
X154927083Y-79435500D01*
X155075994Y-79395599D01*
X155209505Y-79318516D01*
X155318516Y-79209505D01*
X155395599Y-79075994D01*
X155435500Y-78927083D01*
X155435500Y-78872230D01*
X155455502Y-78804109D01*
X155509158Y-78757616D01*
X155548032Y-78746952D01*
X155566790Y-78744935D01*
X155594196Y-78741990D01*
X155594199Y-78741989D01*
X155594201Y-78741989D01*
X155596459Y-78741147D01*
X155613045Y-78734960D01*
X155731204Y-78690889D01*
X155811367Y-78630880D01*
X155848261Y-78603261D01*
X155935887Y-78486207D01*
X155935887Y-78486206D01*
X155935889Y-78486204D01*
X155986989Y-78349201D01*
X155986989Y-78349199D01*
X155986990Y-78349196D01*
X155993499Y-78288649D01*
X155993500Y-78288632D01*
X155993500Y-76616500D01*
X156013502Y-76548379D01*
X156067158Y-76501886D01*
X156119500Y-76490500D01*
X156120500Y-76490500D01*
X156188621Y-76510502D01*
X156235114Y-76564158D01*
X156246500Y-76616500D01*
X156246500Y-78288649D01*
X156253009Y-78349196D01*
X156253011Y-78349204D01*
X156304110Y-78486202D01*
X156304112Y-78486207D01*
X156391738Y-78603261D01*
X156508792Y-78690887D01*
X156508794Y-78690888D01*
X156508796Y-78690889D01*
X156562857Y-78711053D01*
X156645795Y-78741988D01*
X156645803Y-78741990D01*
X156675484Y-78745180D01*
X156691967Y-78746952D01*
X156757559Y-78774119D01*
X156798051Y-78832436D01*
X156804500Y-78872230D01*
X156804500Y-78927081D01*
X156804499Y-78927081D01*
X156844401Y-79075994D01*
X156921481Y-79209501D01*
X156921489Y-79209511D01*
X157030488Y-79318510D01*
X157030493Y-79318514D01*
X157030495Y-79318516D01*
X157030496Y-79318517D01*
X157030498Y-79318518D01*
X157075842Y-79344697D01*
X157164006Y-79395599D01*
X157312917Y-79435500D01*
X157312919Y-79435500D01*
X157467081Y-79435500D01*
X157467083Y-79435500D01*
X157615994Y-79395599D01*
X157749505Y-79318516D01*
X157858516Y-79209505D01*
X157935599Y-79075994D01*
X157975500Y-78927083D01*
X157975500Y-78872230D01*
X157995502Y-78804109D01*
X158049158Y-78757616D01*
X158088032Y-78746952D01*
X158106790Y-78744935D01*
X158134196Y-78741990D01*
X158134199Y-78741989D01*
X158134201Y-78741989D01*
X158136459Y-78741147D01*
X158153045Y-78734960D01*
X158271204Y-78690889D01*
X158351367Y-78630880D01*
X158388261Y-78603261D01*
X158475887Y-78486207D01*
X158475887Y-78486206D01*
X158475889Y-78486204D01*
X158526989Y-78349201D01*
X158526989Y-78349199D01*
X158526990Y-78349196D01*
X158533499Y-78288649D01*
X158533500Y-78288632D01*
X158533500Y-76616500D01*
X158553502Y-76548379D01*
X158607158Y-76501886D01*
X158659500Y-76490500D01*
X158660500Y-76490500D01*
X158728621Y-76510502D01*
X158775114Y-76564158D01*
X158786500Y-76616500D01*
X158786500Y-78288649D01*
X158793009Y-78349196D01*
X158793011Y-78349204D01*
X158844110Y-78486202D01*
X158844112Y-78486207D01*
X158931738Y-78603261D01*
X159048792Y-78690887D01*
X159048794Y-78690888D01*
X159048796Y-78690889D01*
X159102857Y-78711053D01*
X159185795Y-78741988D01*
X159185803Y-78741990D01*
X159215484Y-78745180D01*
X159231967Y-78746952D01*
X159297559Y-78774119D01*
X159338051Y-78832436D01*
X159344500Y-78872230D01*
X159344500Y-78927081D01*
X159344499Y-78927081D01*
X159384401Y-79075994D01*
X159461481Y-79209501D01*
X159461489Y-79209511D01*
X159570488Y-79318510D01*
X159570493Y-79318514D01*
X159570495Y-79318516D01*
X159570496Y-79318517D01*
X159570498Y-79318518D01*
X159615842Y-79344697D01*
X159704006Y-79395599D01*
X159852917Y-79435500D01*
X159852919Y-79435500D01*
X160007081Y-79435500D01*
X160007083Y-79435500D01*
X160155994Y-79395599D01*
X160289505Y-79318516D01*
X160398516Y-79209505D01*
X160475599Y-79075994D01*
X160515500Y-78927083D01*
X160515500Y-78872230D01*
X160535502Y-78804109D01*
X160589158Y-78757616D01*
X160628032Y-78746952D01*
X160646790Y-78744935D01*
X160674196Y-78741990D01*
X160674199Y-78741989D01*
X160674201Y-78741989D01*
X160676459Y-78741147D01*
X160693045Y-78734960D01*
X160811204Y-78690889D01*
X160891367Y-78630880D01*
X160928261Y-78603261D01*
X160945620Y-78580072D01*
X161015889Y-78486204D01*
X161015890Y-78486202D01*
X161022249Y-78469154D01*
X161064794Y-78412317D01*
X161131314Y-78387505D01*
X161171766Y-78392904D01*
X161172055Y-78391643D01*
X161178951Y-78393217D01*
X161197938Y-78395355D01*
X161230385Y-78399011D01*
X161240841Y-78400636D01*
X161280370Y-78408500D01*
X161280373Y-78408500D01*
X161286441Y-78409707D01*
X161286176Y-78411036D01*
X161345570Y-78435014D01*
X161377847Y-78479352D01*
X161379790Y-78478292D01*
X161384108Y-78486200D01*
X161471738Y-78603261D01*
X161588792Y-78690887D01*
X161588794Y-78690888D01*
X161588796Y-78690889D01*
X161642857Y-78711053D01*
X161725795Y-78741988D01*
X161725803Y-78741990D01*
X161755484Y-78745180D01*
X161771967Y-78746952D01*
X161837559Y-78774119D01*
X161878051Y-78832436D01*
X161884500Y-78872230D01*
X161884500Y-78927081D01*
X161884499Y-78927081D01*
X161924401Y-79075994D01*
X162001481Y-79209501D01*
X162001489Y-79209511D01*
X162110488Y-79318510D01*
X162110493Y-79318514D01*
X162110495Y-79318516D01*
X162110496Y-79318517D01*
X162110498Y-79318518D01*
X162155842Y-79344697D01*
X162244006Y-79395599D01*
X162392917Y-79435500D01*
X162392919Y-79435500D01*
X162547081Y-79435500D01*
X162547083Y-79435500D01*
X162695994Y-79395599D01*
X162829505Y-79318516D01*
X162938516Y-79209505D01*
X163015599Y-79075994D01*
X163055500Y-78927083D01*
X163055500Y-78872230D01*
X163075502Y-78804109D01*
X163129158Y-78757616D01*
X163168032Y-78746952D01*
X163186790Y-78744935D01*
X163214196Y-78741990D01*
X163214199Y-78741989D01*
X163214201Y-78741989D01*
X163216459Y-78741147D01*
X163233045Y-78734960D01*
X163351204Y-78690889D01*
X163431367Y-78630880D01*
X163468261Y-78603261D01*
X163555887Y-78486207D01*
X163555887Y-78486206D01*
X163555889Y-78486204D01*
X163606989Y-78349201D01*
X163606989Y-78349199D01*
X163606990Y-78349196D01*
X163613499Y-78288649D01*
X163613500Y-78288632D01*
X163613500Y-76616500D01*
X163633502Y-76548379D01*
X163687158Y-76501886D01*
X163739500Y-76490500D01*
X163740500Y-76490500D01*
X163808621Y-76510502D01*
X163855114Y-76564158D01*
X163866500Y-76616500D01*
X163866500Y-78288649D01*
X163873009Y-78349196D01*
X163873011Y-78349204D01*
X163924110Y-78486202D01*
X163924112Y-78486207D01*
X164011738Y-78603261D01*
X164128792Y-78690887D01*
X164128794Y-78690888D01*
X164128796Y-78690889D01*
X164182857Y-78711053D01*
X164265795Y-78741988D01*
X164265803Y-78741990D01*
X164295484Y-78745180D01*
X164311967Y-78746952D01*
X164377559Y-78774119D01*
X164418051Y-78832436D01*
X164424500Y-78872230D01*
X164424500Y-78927081D01*
X164424499Y-78927081D01*
X164464401Y-79075994D01*
X164541481Y-79209501D01*
X164541489Y-79209511D01*
X164650488Y-79318510D01*
X164650493Y-79318514D01*
X164650495Y-79318516D01*
X164650496Y-79318517D01*
X164650498Y-79318518D01*
X164695842Y-79344697D01*
X164784006Y-79395599D01*
X164932917Y-79435500D01*
X164932919Y-79435500D01*
X165087081Y-79435500D01*
X165087083Y-79435500D01*
X165235994Y-79395599D01*
X165369505Y-79318516D01*
X165478516Y-79209505D01*
X165555599Y-79075994D01*
X165595500Y-78927083D01*
X165595500Y-78872230D01*
X165615502Y-78804109D01*
X165669158Y-78757616D01*
X165708032Y-78746952D01*
X165726790Y-78744935D01*
X165754196Y-78741990D01*
X165754199Y-78741989D01*
X165754201Y-78741989D01*
X165756459Y-78741147D01*
X165773045Y-78734960D01*
X165891204Y-78690889D01*
X165971367Y-78630880D01*
X166008261Y-78603261D01*
X166095887Y-78486207D01*
X166095887Y-78486206D01*
X166095889Y-78486204D01*
X166146989Y-78349201D01*
X166146989Y-78349199D01*
X166146990Y-78349196D01*
X166153499Y-78288649D01*
X166153500Y-78288632D01*
X166153500Y-76616500D01*
X166173502Y-76548379D01*
X166227158Y-76501886D01*
X166279500Y-76490500D01*
X166280500Y-76490500D01*
X166348621Y-76510502D01*
X166395114Y-76564158D01*
X166406500Y-76616500D01*
X166406500Y-78288649D01*
X166413009Y-78349196D01*
X166413011Y-78349204D01*
X166464110Y-78486202D01*
X166464112Y-78486207D01*
X166551738Y-78603261D01*
X166668792Y-78690887D01*
X166668794Y-78690888D01*
X166668796Y-78690889D01*
X166722857Y-78711053D01*
X166805795Y-78741988D01*
X166805803Y-78741990D01*
X166835484Y-78745180D01*
X166851967Y-78746952D01*
X166917559Y-78774119D01*
X166958051Y-78832436D01*
X166964500Y-78872230D01*
X166964500Y-78927081D01*
X166964499Y-78927081D01*
X167004401Y-79075994D01*
X167081481Y-79209501D01*
X167081489Y-79209511D01*
X167190488Y-79318510D01*
X167190493Y-79318514D01*
X167190495Y-79318516D01*
X167190496Y-79318517D01*
X167190498Y-79318518D01*
X167235842Y-79344697D01*
X167324006Y-79395599D01*
X167472917Y-79435500D01*
X167472919Y-79435500D01*
X167627081Y-79435500D01*
X167627083Y-79435500D01*
X167775994Y-79395599D01*
X167909505Y-79318516D01*
X168018516Y-79209505D01*
X168095599Y-79075994D01*
X168135500Y-78927083D01*
X168135500Y-78872230D01*
X168155502Y-78804109D01*
X168209158Y-78757616D01*
X168248032Y-78746952D01*
X168266790Y-78744935D01*
X168294196Y-78741990D01*
X168294199Y-78741989D01*
X168294201Y-78741989D01*
X168296459Y-78741147D01*
X168313045Y-78734960D01*
X168431204Y-78690889D01*
X168511367Y-78630880D01*
X168548261Y-78603261D01*
X168635887Y-78486207D01*
X168635887Y-78486206D01*
X168635889Y-78486204D01*
X168686989Y-78349201D01*
X168686989Y-78349199D01*
X168686990Y-78349196D01*
X168693499Y-78288649D01*
X168693500Y-78288632D01*
X168693500Y-76616500D01*
X168713502Y-76548379D01*
X168767158Y-76501886D01*
X168819500Y-76490500D01*
X168820500Y-76490500D01*
X168888621Y-76510502D01*
X168935114Y-76564158D01*
X168946500Y-76616500D01*
X168946500Y-78288649D01*
X168953009Y-78349196D01*
X168953011Y-78349204D01*
X169004110Y-78486202D01*
X169004112Y-78486207D01*
X169091738Y-78603261D01*
X169208792Y-78690887D01*
X169208794Y-78690888D01*
X169208796Y-78690889D01*
X169262857Y-78711053D01*
X169345795Y-78741988D01*
X169345803Y-78741990D01*
X169375484Y-78745180D01*
X169391967Y-78746952D01*
X169457559Y-78774119D01*
X169498051Y-78832436D01*
X169504500Y-78872230D01*
X169504500Y-78927081D01*
X169504499Y-78927081D01*
X169544401Y-79075994D01*
X169621481Y-79209501D01*
X169621489Y-79209511D01*
X169730488Y-79318510D01*
X169730493Y-79318514D01*
X169730495Y-79318516D01*
X169730496Y-79318517D01*
X169730498Y-79318518D01*
X169775842Y-79344697D01*
X169864006Y-79395599D01*
X170012917Y-79435500D01*
X170012919Y-79435500D01*
X170167081Y-79435500D01*
X170167083Y-79435500D01*
X170315994Y-79395599D01*
X170449505Y-79318516D01*
X170558516Y-79209505D01*
X170635599Y-79075994D01*
X170675500Y-78927083D01*
X170675500Y-78872230D01*
X170695502Y-78804109D01*
X170749158Y-78757616D01*
X170788032Y-78746952D01*
X170806790Y-78744935D01*
X170834196Y-78741990D01*
X170834199Y-78741989D01*
X170834201Y-78741989D01*
X170836459Y-78741147D01*
X170853045Y-78734960D01*
X170971204Y-78690889D01*
X171051367Y-78630880D01*
X171088261Y-78603261D01*
X171175887Y-78486207D01*
X171175887Y-78486206D01*
X171175889Y-78486204D01*
X171226989Y-78349201D01*
X171226989Y-78349199D01*
X171226990Y-78349196D01*
X171233499Y-78288649D01*
X171233500Y-78288632D01*
X171233500Y-76616500D01*
X171253502Y-76548379D01*
X171307158Y-76501886D01*
X171359500Y-76490500D01*
X171360500Y-76490500D01*
X171428621Y-76510502D01*
X171475114Y-76564158D01*
X171486500Y-76616500D01*
X171486500Y-78288649D01*
X171493009Y-78349196D01*
X171493011Y-78349204D01*
X171544110Y-78486202D01*
X171544112Y-78486207D01*
X171631738Y-78603261D01*
X171748792Y-78690887D01*
X171748794Y-78690888D01*
X171748796Y-78690889D01*
X171802857Y-78711053D01*
X171885795Y-78741988D01*
X171885803Y-78741990D01*
X171915484Y-78745180D01*
X171931967Y-78746952D01*
X171997559Y-78774119D01*
X172038051Y-78832436D01*
X172044500Y-78872230D01*
X172044500Y-78927081D01*
X172044499Y-78927081D01*
X172084401Y-79075994D01*
X172161481Y-79209501D01*
X172161489Y-79209511D01*
X172270488Y-79318510D01*
X172270493Y-79318514D01*
X172270495Y-79318516D01*
X172270496Y-79318517D01*
X172270498Y-79318518D01*
X172315842Y-79344697D01*
X172404006Y-79395599D01*
X172552917Y-79435500D01*
X172552919Y-79435500D01*
X172707081Y-79435500D01*
X172707083Y-79435500D01*
X172855994Y-79395599D01*
X172989505Y-79318516D01*
X173098516Y-79209505D01*
X173175599Y-79075994D01*
X173215500Y-78927083D01*
X173215500Y-78872230D01*
X173235502Y-78804109D01*
X173289158Y-78757616D01*
X173328032Y-78746952D01*
X173346790Y-78744935D01*
X173374196Y-78741990D01*
X173374199Y-78741989D01*
X173374201Y-78741989D01*
X173376459Y-78741147D01*
X173393045Y-78734960D01*
X173511204Y-78690889D01*
X173591367Y-78630880D01*
X173628261Y-78603261D01*
X173645620Y-78580072D01*
X173715889Y-78486204D01*
X173715891Y-78486196D01*
X173718759Y-78480947D01*
X173768958Y-78430742D01*
X173838331Y-78415647D01*
X173843436Y-78416116D01*
X173910000Y-78423616D01*
X173957699Y-78418241D01*
X174027630Y-78430488D01*
X174079839Y-78478600D01*
X174082397Y-78483065D01*
X174084112Y-78486206D01*
X174171738Y-78603261D01*
X174288792Y-78690887D01*
X174288794Y-78690888D01*
X174288796Y-78690889D01*
X174342857Y-78711053D01*
X174425795Y-78741988D01*
X174425803Y-78741990D01*
X174455484Y-78745180D01*
X174471967Y-78746952D01*
X174537559Y-78774119D01*
X174578051Y-78832436D01*
X174584500Y-78872230D01*
X174584500Y-78927081D01*
X174584499Y-78927081D01*
X174624401Y-79075994D01*
X174701481Y-79209501D01*
X174701489Y-79209511D01*
X174810488Y-79318510D01*
X174810493Y-79318514D01*
X174810495Y-79318516D01*
X174810496Y-79318517D01*
X174810498Y-79318518D01*
X174855842Y-79344697D01*
X174944006Y-79395599D01*
X175092917Y-79435500D01*
X175092919Y-79435500D01*
X175247081Y-79435500D01*
X175247083Y-79435500D01*
X175395994Y-79395599D01*
X175529505Y-79318516D01*
X175638516Y-79209505D01*
X175715599Y-79075994D01*
X175755500Y-78927083D01*
X175755500Y-78872230D01*
X175775502Y-78804109D01*
X175829158Y-78757616D01*
X175868032Y-78746952D01*
X175886790Y-78744935D01*
X175914196Y-78741990D01*
X175914199Y-78741989D01*
X175914201Y-78741989D01*
X175916459Y-78741147D01*
X175933045Y-78734960D01*
X176051204Y-78690889D01*
X176131367Y-78630880D01*
X176168261Y-78603261D01*
X176255887Y-78486207D01*
X176255887Y-78486206D01*
X176255889Y-78486204D01*
X176306989Y-78349201D01*
X176306989Y-78349199D01*
X176306990Y-78349196D01*
X176313499Y-78288649D01*
X176313500Y-78288632D01*
X176313500Y-76616500D01*
X176333502Y-76548379D01*
X176387158Y-76501886D01*
X176439500Y-76490500D01*
X176440500Y-76490500D01*
X176508621Y-76510502D01*
X176555114Y-76564158D01*
X176566500Y-76616500D01*
X176566500Y-78288649D01*
X176573009Y-78349196D01*
X176573011Y-78349204D01*
X176624110Y-78486202D01*
X176624112Y-78486207D01*
X176711738Y-78603261D01*
X176828792Y-78690887D01*
X176828794Y-78690888D01*
X176828796Y-78690889D01*
X176882857Y-78711053D01*
X176965795Y-78741988D01*
X176965803Y-78741990D01*
X176995484Y-78745180D01*
X177011967Y-78746952D01*
X177077559Y-78774119D01*
X177118051Y-78832436D01*
X177124500Y-78872230D01*
X177124500Y-78927081D01*
X177124499Y-78927081D01*
X177164401Y-79075994D01*
X177241481Y-79209501D01*
X177241489Y-79209511D01*
X177350488Y-79318510D01*
X177350493Y-79318514D01*
X177350495Y-79318516D01*
X177350496Y-79318517D01*
X177350498Y-79318518D01*
X177395842Y-79344697D01*
X177484006Y-79395599D01*
X177632917Y-79435500D01*
X177632919Y-79435500D01*
X177787081Y-79435500D01*
X177787083Y-79435500D01*
X177935994Y-79395599D01*
X178069505Y-79318516D01*
X178178516Y-79209505D01*
X178255599Y-79075994D01*
X178295500Y-78927083D01*
X178295500Y-78872230D01*
X178315502Y-78804109D01*
X178369158Y-78757616D01*
X178408032Y-78746952D01*
X178426790Y-78744935D01*
X178454196Y-78741990D01*
X178454199Y-78741989D01*
X178454201Y-78741989D01*
X178456459Y-78741147D01*
X178473045Y-78734960D01*
X178591204Y-78690889D01*
X178671367Y-78630880D01*
X178708261Y-78603261D01*
X178795887Y-78486207D01*
X178795887Y-78486206D01*
X178795889Y-78486204D01*
X178806052Y-78458955D01*
X178848597Y-78402121D01*
X178915117Y-78377309D01*
X178938202Y-78377779D01*
X178990000Y-78383616D01*
X179022593Y-78379943D01*
X179092522Y-78392192D01*
X179144731Y-78440304D01*
X179154753Y-78461115D01*
X179164111Y-78486203D01*
X179164112Y-78486206D01*
X179251738Y-78603261D01*
X179368792Y-78690887D01*
X179368794Y-78690888D01*
X179368796Y-78690889D01*
X179422857Y-78711053D01*
X179505795Y-78741988D01*
X179505803Y-78741990D01*
X179535484Y-78745180D01*
X179551967Y-78746952D01*
X179617559Y-78774119D01*
X179658051Y-78832436D01*
X179664500Y-78872230D01*
X179664500Y-78927081D01*
X179664499Y-78927081D01*
X179704401Y-79075994D01*
X179781481Y-79209501D01*
X179781489Y-79209511D01*
X179890488Y-79318510D01*
X179890493Y-79318514D01*
X179890495Y-79318516D01*
X179890496Y-79318517D01*
X179890498Y-79318518D01*
X179935842Y-79344697D01*
X180024006Y-79395599D01*
X180172917Y-79435500D01*
X180172919Y-79435500D01*
X180327081Y-79435500D01*
X180327083Y-79435500D01*
X180475994Y-79395599D01*
X180609505Y-79318516D01*
X180643656Y-79284365D01*
X180686405Y-79241617D01*
X180748717Y-79207591D01*
X180819532Y-79212656D01*
X180876368Y-79255203D01*
X180901179Y-79321723D01*
X180901500Y-79330712D01*
X180901500Y-80909288D01*
X180881498Y-80977409D01*
X180827842Y-81023902D01*
X180757568Y-81034006D01*
X180692988Y-81004512D01*
X180686405Y-80998383D01*
X180609511Y-80921489D01*
X180609501Y-80921481D01*
X180475994Y-80844401D01*
X180327083Y-80804500D01*
X180172917Y-80804500D01*
X180073643Y-80831100D01*
X180024005Y-80844401D01*
X179890498Y-80921481D01*
X179890488Y-80921489D01*
X179781489Y-81030488D01*
X179781481Y-81030498D01*
X179704401Y-81164005D01*
X179664500Y-81312918D01*
X179664500Y-81367769D01*
X179644498Y-81435890D01*
X179590842Y-81482383D01*
X179551968Y-81493047D01*
X179505803Y-81498009D01*
X179505795Y-81498011D01*
X179368797Y-81549110D01*
X179368792Y-81549112D01*
X179251738Y-81636738D01*
X179164112Y-81753792D01*
X179164110Y-81753797D01*
X179113011Y-81890795D01*
X179113009Y-81890803D01*
X179106500Y-81951350D01*
X179106500Y-83728649D01*
X179113009Y-83789196D01*
X179113011Y-83789204D01*
X179164110Y-83926202D01*
X179164112Y-83926207D01*
X179251738Y-84043261D01*
X179368792Y-84130887D01*
X179368794Y-84130888D01*
X179368796Y-84130889D01*
X179383990Y-84136556D01*
X179505795Y-84181988D01*
X179513474Y-84183803D01*
X179513058Y-84185560D01*
X179569548Y-84208951D01*
X179610047Y-84267263D01*
X179616500Y-84307070D01*
X179616500Y-85070405D01*
X179596498Y-85138526D01*
X179579595Y-85159500D01*
X173699710Y-91039385D01*
X173637398Y-91073411D01*
X173566583Y-91068346D01*
X173509747Y-91025799D01*
X173501496Y-91013291D01*
X173498318Y-91007787D01*
X173484040Y-90983056D01*
X173484038Y-90983054D01*
X173484034Y-90983048D01*
X173356255Y-90841135D01*
X173201752Y-90728882D01*
X173027288Y-90651206D01*
X172840487Y-90611500D01*
X172649513Y-90611500D01*
X172462711Y-90651206D01*
X172288247Y-90728882D01*
X172133744Y-90841135D01*
X172005965Y-90983048D01*
X172005958Y-90983058D01*
X171919358Y-91133054D01*
X171910473Y-91148444D01*
X171898754Y-91184512D01*
X171851457Y-91330072D01*
X171835543Y-91481497D01*
X171831505Y-91519920D01*
X171830806Y-91526567D01*
X171828152Y-91526288D01*
X171811494Y-91583021D01*
X171757838Y-91629514D01*
X171705496Y-91640900D01*
X171146950Y-91640900D01*
X171086403Y-91647409D01*
X171086395Y-91647411D01*
X170949397Y-91698510D01*
X170949392Y-91698512D01*
X170832338Y-91786138D01*
X170744712Y-91903192D01*
X170744710Y-91903197D01*
X170693611Y-92040195D01*
X170693609Y-92040203D01*
X170687100Y-92100750D01*
X170687100Y-92108723D01*
X170667098Y-92176844D01*
X170613442Y-92223337D01*
X170587298Y-92231969D01*
X170402715Y-92271204D01*
X170228247Y-92348882D01*
X170073744Y-92461135D01*
X169945965Y-92603048D01*
X169945958Y-92603058D01*
X169850476Y-92768438D01*
X169850473Y-92768444D01*
X169837406Y-92808659D01*
X169791457Y-92950072D01*
X169771496Y-93140000D01*
X169791457Y-93329927D01*
X169799509Y-93354707D01*
X169850473Y-93511556D01*
X169863651Y-93534381D01*
X169945958Y-93676941D01*
X169945961Y-93676945D01*
X169976795Y-93711190D01*
X170007512Y-93775198D01*
X169998747Y-93845652D01*
X169953284Y-93900182D01*
X169885556Y-93921477D01*
X169883158Y-93921500D01*
X155829582Y-93921500D01*
X155761461Y-93901498D01*
X155740487Y-93884595D01*
X153040404Y-91184512D01*
X153006378Y-91122200D01*
X153003499Y-91095417D01*
X153003499Y-91007787D01*
X152993062Y-90905619D01*
X152976629Y-90856027D01*
X152939724Y-90744654D01*
X152937285Y-90673703D01*
X152973593Y-90612693D01*
X153037122Y-90580998D01*
X153107702Y-90588680D01*
X153143158Y-90612405D01*
X153143396Y-90612105D01*
X153147180Y-90615096D01*
X153148425Y-90615930D01*
X153149147Y-90616652D01*
X153149153Y-90616657D01*
X153149154Y-90616658D01*
X153297580Y-90708209D01*
X153463119Y-90763062D01*
X153565287Y-90773500D01*
X154164712Y-90773499D01*
X154266881Y-90763062D01*
X154432420Y-90708209D01*
X154498085Y-90667705D01*
X154566562Y-90648968D01*
X154590429Y-90651700D01*
X154716509Y-90678500D01*
X154716513Y-90678500D01*
X154907487Y-90678500D01*
X155094288Y-90638794D01*
X155268752Y-90561118D01*
X155423253Y-90448866D01*
X155480686Y-90385080D01*
X155551034Y-90306951D01*
X155551035Y-90306949D01*
X155551040Y-90306944D01*
X155646527Y-90141556D01*
X155705542Y-89959928D01*
X155725504Y-89770000D01*
X155705542Y-89580072D01*
X155646527Y-89398444D01*
X155551040Y-89233056D01*
X155462870Y-89135133D01*
X155432154Y-89071127D01*
X155440918Y-89000674D01*
X155462869Y-88966515D01*
X155588540Y-88826944D01*
X155684027Y-88661556D01*
X155743042Y-88479928D01*
X155748289Y-88430003D01*
X158154659Y-88430003D01*
X158173974Y-88626124D01*
X158173974Y-88626126D01*
X158231186Y-88814728D01*
X158274186Y-88895174D01*
X158324090Y-88988538D01*
X158449117Y-89140883D01*
X158601462Y-89265910D01*
X158775273Y-89358814D01*
X158963868Y-89416024D01*
X158963872Y-89416024D01*
X158963874Y-89416025D01*
X159159997Y-89435341D01*
X159160000Y-89435341D01*
X159160003Y-89435341D01*
X159356124Y-89416025D01*
X159356126Y-89416025D01*
X159356127Y-89416024D01*
X159356132Y-89416024D01*
X159544727Y-89358814D01*
X159718538Y-89265910D01*
X159870883Y-89140883D01*
X159995910Y-88988538D01*
X160088814Y-88814727D01*
X160146024Y-88626132D01*
X160154087Y-88544266D01*
X160165341Y-88430003D01*
X160165341Y-88429996D01*
X160146025Y-88233875D01*
X160146025Y-88233873D01*
X160146024Y-88233870D01*
X160146024Y-88233868D01*
X160088814Y-88045273D01*
X159995910Y-87871462D01*
X159870883Y-87719117D01*
X159718538Y-87594090D01*
X159685918Y-87576654D01*
X159544728Y-87501186D01*
X159356125Y-87443974D01*
X159160003Y-87424659D01*
X159159997Y-87424659D01*
X158963875Y-87443974D01*
X158963873Y-87443974D01*
X158775271Y-87501186D01*
X158601461Y-87594090D01*
X158449117Y-87719117D01*
X158324090Y-87871461D01*
X158231186Y-88045271D01*
X158173974Y-88233873D01*
X158173974Y-88233875D01*
X158154659Y-88429996D01*
X158154659Y-88430003D01*
X155748289Y-88430003D01*
X155763004Y-88290000D01*
X155743042Y-88100072D01*
X155684027Y-87918444D01*
X155588540Y-87753056D01*
X155588538Y-87753054D01*
X155588534Y-87753048D01*
X155460755Y-87611135D01*
X155306252Y-87498882D01*
X155131788Y-87421206D01*
X154944987Y-87381500D01*
X154754013Y-87381500D01*
X154586123Y-87417186D01*
X154515332Y-87411784D01*
X154493781Y-87401181D01*
X154429920Y-87361791D01*
X154264381Y-87306938D01*
X154264379Y-87306937D01*
X154264377Y-87306937D01*
X154162221Y-87296500D01*
X153562787Y-87296500D01*
X153460619Y-87306937D01*
X153295079Y-87361791D01*
X153146653Y-87453342D01*
X153146647Y-87453347D01*
X153039095Y-87560900D01*
X152976783Y-87594926D01*
X152905968Y-87589861D01*
X152860905Y-87560900D01*
X152753352Y-87453347D01*
X152753346Y-87453342D01*
X152697833Y-87419101D01*
X152618816Y-87370362D01*
X152571340Y-87317578D01*
X152559937Y-87247503D01*
X152578276Y-87196089D01*
X152643043Y-87093015D01*
X152703217Y-86921047D01*
X152723616Y-86740000D01*
X152703217Y-86558953D01*
X152643043Y-86386985D01*
X152643041Y-86386982D01*
X152643041Y-86386981D01*
X152546112Y-86232720D01*
X152546111Y-86232718D01*
X152417281Y-86103888D01*
X152417279Y-86103887D01*
X152263018Y-86006958D01*
X152263015Y-86006957D01*
X152091046Y-85946782D01*
X152089246Y-85946372D01*
X152088199Y-85945786D01*
X152084368Y-85944446D01*
X152084602Y-85943774D01*
X152027283Y-85911715D01*
X151993894Y-85849059D01*
X151999680Y-85778299D01*
X152042803Y-85721899D01*
X152075663Y-85704603D01*
X152223015Y-85653043D01*
X152377281Y-85556111D01*
X152506111Y-85427281D01*
X152603043Y-85273015D01*
X152663217Y-85101047D01*
X152683616Y-84920000D01*
X152663217Y-84738953D01*
X152603043Y-84566985D01*
X152603041Y-84566982D01*
X152603041Y-84566981D01*
X152506112Y-84412720D01*
X152506111Y-84412718D01*
X152496988Y-84403595D01*
X152462962Y-84341283D01*
X152468027Y-84270468D01*
X152510574Y-84213632D01*
X152577094Y-84188821D01*
X152586083Y-84188500D01*
X152993632Y-84188500D01*
X152993638Y-84188500D01*
X152993645Y-84188499D01*
X152993649Y-84188499D01*
X153054196Y-84181990D01*
X153054199Y-84181989D01*
X153054201Y-84181989D01*
X153191204Y-84130889D01*
X153248054Y-84088332D01*
X153308261Y-84043261D01*
X153395887Y-83926207D01*
X153395887Y-83926206D01*
X153395889Y-83926204D01*
X153443868Y-83797568D01*
X153446988Y-83789204D01*
X153446990Y-83789196D01*
X153453499Y-83728649D01*
X153706500Y-83728649D01*
X153713009Y-83789196D01*
X153713011Y-83789204D01*
X153764110Y-83926202D01*
X153764112Y-83926207D01*
X153851738Y-84043261D01*
X153968792Y-84130887D01*
X153968794Y-84130888D01*
X153968796Y-84130889D01*
X153983990Y-84136556D01*
X154105795Y-84181988D01*
X154105803Y-84181990D01*
X154166350Y-84188499D01*
X154166355Y-84188499D01*
X154166362Y-84188500D01*
X154166368Y-84188500D01*
X155533632Y-84188500D01*
X155533638Y-84188500D01*
X155533645Y-84188499D01*
X155533649Y-84188499D01*
X155594196Y-84181990D01*
X155594199Y-84181989D01*
X155594201Y-84181989D01*
X155731204Y-84130889D01*
X155788054Y-84088332D01*
X155848261Y-84043261D01*
X155935887Y-83926207D01*
X155935887Y-83926206D01*
X155935889Y-83926204D01*
X155983868Y-83797568D01*
X155986988Y-83789204D01*
X155986990Y-83789196D01*
X155993499Y-83728649D01*
X156246500Y-83728649D01*
X156253009Y-83789196D01*
X156253011Y-83789204D01*
X156304110Y-83926202D01*
X156304112Y-83926207D01*
X156391738Y-84043261D01*
X156508792Y-84130887D01*
X156508794Y-84130888D01*
X156508796Y-84130889D01*
X156523990Y-84136556D01*
X156645795Y-84181988D01*
X156645803Y-84181990D01*
X156706350Y-84188499D01*
X156706355Y-84188499D01*
X156706362Y-84188500D01*
X156706368Y-84188500D01*
X158073632Y-84188500D01*
X158073638Y-84188500D01*
X158073645Y-84188499D01*
X158073649Y-84188499D01*
X158134196Y-84181990D01*
X158134199Y-84181989D01*
X158134201Y-84181989D01*
X158271204Y-84130889D01*
X158328054Y-84088332D01*
X158388261Y-84043261D01*
X158475887Y-83926207D01*
X158475887Y-83926206D01*
X158475889Y-83926204D01*
X158523868Y-83797568D01*
X158526988Y-83789204D01*
X158526990Y-83789196D01*
X158533499Y-83728649D01*
X158786500Y-83728649D01*
X158793009Y-83789196D01*
X158793011Y-83789204D01*
X158844110Y-83926202D01*
X158844112Y-83926207D01*
X158931738Y-84043261D01*
X159048792Y-84130887D01*
X159048794Y-84130888D01*
X159048796Y-84130889D01*
X159063990Y-84136556D01*
X159185795Y-84181988D01*
X159185803Y-84181990D01*
X159246350Y-84188499D01*
X159246355Y-84188499D01*
X159246362Y-84188500D01*
X159246368Y-84188500D01*
X160613632Y-84188500D01*
X160613638Y-84188500D01*
X160613645Y-84188499D01*
X160613649Y-84188499D01*
X160674196Y-84181990D01*
X160674199Y-84181989D01*
X160674201Y-84181989D01*
X160811204Y-84130889D01*
X160868054Y-84088332D01*
X160928261Y-84043261D01*
X161015887Y-83926207D01*
X161015887Y-83926206D01*
X161015889Y-83926204D01*
X161063868Y-83797568D01*
X161066988Y-83789204D01*
X161066990Y-83789196D01*
X161073499Y-83728649D01*
X161326500Y-83728649D01*
X161333009Y-83789196D01*
X161333011Y-83789204D01*
X161384110Y-83926202D01*
X161384112Y-83926207D01*
X161471738Y-84043261D01*
X161588792Y-84130887D01*
X161588794Y-84130888D01*
X161588796Y-84130889D01*
X161603990Y-84136556D01*
X161725795Y-84181988D01*
X161725803Y-84181990D01*
X161786350Y-84188499D01*
X161786355Y-84188499D01*
X161786362Y-84188500D01*
X161786368Y-84188500D01*
X163153632Y-84188500D01*
X163153638Y-84188500D01*
X163153645Y-84188499D01*
X163153649Y-84188499D01*
X163214196Y-84181990D01*
X163214199Y-84181989D01*
X163214201Y-84181989D01*
X163351204Y-84130889D01*
X163408054Y-84088332D01*
X163468261Y-84043261D01*
X163555887Y-83926207D01*
X163555887Y-83926206D01*
X163555889Y-83926204D01*
X163603868Y-83797568D01*
X163606988Y-83789204D01*
X163606990Y-83789196D01*
X163613499Y-83728649D01*
X163866500Y-83728649D01*
X163873009Y-83789196D01*
X163873011Y-83789204D01*
X163924110Y-83926202D01*
X163924112Y-83926207D01*
X164011738Y-84043261D01*
X164128792Y-84130887D01*
X164128794Y-84130888D01*
X164128796Y-84130889D01*
X164143990Y-84136556D01*
X164265795Y-84181988D01*
X164265803Y-84181990D01*
X164326350Y-84188499D01*
X164326355Y-84188499D01*
X164326362Y-84188500D01*
X164326368Y-84188500D01*
X165693632Y-84188500D01*
X165693638Y-84188500D01*
X165693645Y-84188499D01*
X165693649Y-84188499D01*
X165754196Y-84181990D01*
X165754199Y-84181989D01*
X165754201Y-84181989D01*
X165891204Y-84130889D01*
X165948054Y-84088332D01*
X166008261Y-84043261D01*
X166095887Y-83926207D01*
X166095887Y-83926206D01*
X166095889Y-83926204D01*
X166143868Y-83797568D01*
X166146988Y-83789204D01*
X166146990Y-83789196D01*
X166153499Y-83728649D01*
X166406500Y-83728649D01*
X166413009Y-83789196D01*
X166413011Y-83789204D01*
X166464110Y-83926202D01*
X166464112Y-83926207D01*
X166551738Y-84043261D01*
X166668792Y-84130887D01*
X166668794Y-84130888D01*
X166668796Y-84130889D01*
X166683990Y-84136556D01*
X166805795Y-84181988D01*
X166805803Y-84181990D01*
X166866350Y-84188499D01*
X166866355Y-84188499D01*
X166866362Y-84188500D01*
X166866368Y-84188500D01*
X168233632Y-84188500D01*
X168233638Y-84188500D01*
X168233645Y-84188499D01*
X168233649Y-84188499D01*
X168294196Y-84181990D01*
X168294199Y-84181989D01*
X168294201Y-84181989D01*
X168431204Y-84130889D01*
X168488054Y-84088332D01*
X168548261Y-84043261D01*
X168635887Y-83926207D01*
X168635887Y-83926206D01*
X168635889Y-83926204D01*
X168683868Y-83797568D01*
X168686988Y-83789204D01*
X168688803Y-83781526D01*
X168691327Y-83782122D01*
X168713644Y-83728201D01*
X168771949Y-83687693D01*
X168825882Y-83682025D01*
X168840000Y-83683616D01*
X168840001Y-83683615D01*
X168842533Y-83683901D01*
X168907986Y-83711406D01*
X168948178Y-83769930D01*
X168950697Y-83781643D01*
X168951197Y-83781526D01*
X168953011Y-83789204D01*
X169004110Y-83926202D01*
X169004112Y-83926207D01*
X169091738Y-84043261D01*
X169208792Y-84130887D01*
X169208794Y-84130888D01*
X169208796Y-84130889D01*
X169223990Y-84136556D01*
X169345795Y-84181988D01*
X169345803Y-84181990D01*
X169406350Y-84188499D01*
X169406355Y-84188499D01*
X169406362Y-84188500D01*
X169406368Y-84188500D01*
X170773632Y-84188500D01*
X170773638Y-84188500D01*
X170773645Y-84188499D01*
X170773649Y-84188499D01*
X170834196Y-84181990D01*
X170834199Y-84181989D01*
X170834201Y-84181989D01*
X170971204Y-84130889D01*
X171028054Y-84088332D01*
X171088261Y-84043261D01*
X171175887Y-83926207D01*
X171175887Y-83926206D01*
X171175889Y-83926204D01*
X171223868Y-83797568D01*
X171226988Y-83789204D01*
X171226990Y-83789196D01*
X171233499Y-83728649D01*
X171486500Y-83728649D01*
X171493009Y-83789196D01*
X171493011Y-83789204D01*
X171544110Y-83926202D01*
X171544112Y-83926207D01*
X171631738Y-84043261D01*
X171748792Y-84130887D01*
X171748794Y-84130888D01*
X171748796Y-84130889D01*
X171763990Y-84136556D01*
X171885795Y-84181988D01*
X171885803Y-84181990D01*
X171946350Y-84188499D01*
X171946355Y-84188499D01*
X171946362Y-84188500D01*
X171946368Y-84188500D01*
X173313632Y-84188500D01*
X173313638Y-84188500D01*
X173313645Y-84188499D01*
X173313649Y-84188499D01*
X173374196Y-84181990D01*
X173374199Y-84181989D01*
X173374201Y-84181989D01*
X173511204Y-84130889D01*
X173568054Y-84088332D01*
X173628261Y-84043261D01*
X173715887Y-83926207D01*
X173715887Y-83926206D01*
X173715889Y-83926204D01*
X173763868Y-83797568D01*
X173766988Y-83789204D01*
X173766990Y-83789196D01*
X173773499Y-83728649D01*
X174026500Y-83728649D01*
X174033009Y-83789196D01*
X174033011Y-83789204D01*
X174084110Y-83926202D01*
X174084112Y-83926207D01*
X174171738Y-84043261D01*
X174288792Y-84130887D01*
X174288794Y-84130888D01*
X174288796Y-84130889D01*
X174303990Y-84136556D01*
X174425795Y-84181988D01*
X174425803Y-84181990D01*
X174486350Y-84188499D01*
X174486355Y-84188499D01*
X174486362Y-84188500D01*
X174486368Y-84188500D01*
X175853632Y-84188500D01*
X175853638Y-84188500D01*
X175853645Y-84188499D01*
X175853649Y-84188499D01*
X175914196Y-84181990D01*
X175914199Y-84181989D01*
X175914201Y-84181989D01*
X176051204Y-84130889D01*
X176108054Y-84088332D01*
X176168261Y-84043261D01*
X176255887Y-83926207D01*
X176255887Y-83926206D01*
X176255889Y-83926204D01*
X176303868Y-83797568D01*
X176306988Y-83789204D01*
X176306990Y-83789196D01*
X176313499Y-83728649D01*
X176566500Y-83728649D01*
X176573009Y-83789196D01*
X176573011Y-83789204D01*
X176624110Y-83926202D01*
X176624112Y-83926207D01*
X176711738Y-84043261D01*
X176828792Y-84130887D01*
X176828794Y-84130888D01*
X176828796Y-84130889D01*
X176843990Y-84136556D01*
X176965795Y-84181988D01*
X176965803Y-84181990D01*
X177026350Y-84188499D01*
X177026355Y-84188499D01*
X177026362Y-84188500D01*
X177026368Y-84188500D01*
X178393632Y-84188500D01*
X178393638Y-84188500D01*
X178393645Y-84188499D01*
X178393649Y-84188499D01*
X178454196Y-84181990D01*
X178454199Y-84181989D01*
X178454201Y-84181989D01*
X178591204Y-84130889D01*
X178648054Y-84088332D01*
X178708261Y-84043261D01*
X178795887Y-83926207D01*
X178795887Y-83926206D01*
X178795889Y-83926204D01*
X178843868Y-83797568D01*
X178846988Y-83789204D01*
X178846990Y-83789196D01*
X178853499Y-83728649D01*
X178853500Y-83728632D01*
X178853500Y-81951367D01*
X178853499Y-81951350D01*
X178846990Y-81890803D01*
X178846988Y-81890795D01*
X178795889Y-81753797D01*
X178795887Y-81753792D01*
X178708261Y-81636738D01*
X178591207Y-81549112D01*
X178591202Y-81549110D01*
X178454204Y-81498011D01*
X178454196Y-81498009D01*
X178408032Y-81493047D01*
X178342440Y-81465878D01*
X178301948Y-81407561D01*
X178295500Y-81367769D01*
X178295500Y-81312918D01*
X178271817Y-81224532D01*
X178255599Y-81164006D01*
X178200513Y-81068595D01*
X178178518Y-81030498D01*
X178178510Y-81030488D01*
X178069511Y-80921489D01*
X178069501Y-80921481D01*
X177935994Y-80844401D01*
X177787083Y-80804500D01*
X177632917Y-80804500D01*
X177533643Y-80831100D01*
X177484005Y-80844401D01*
X177350498Y-80921481D01*
X177350488Y-80921489D01*
X177241489Y-81030488D01*
X177241481Y-81030498D01*
X177164401Y-81164005D01*
X177124500Y-81312918D01*
X177124500Y-81367769D01*
X177104498Y-81435890D01*
X177050842Y-81482383D01*
X177011968Y-81493047D01*
X176965803Y-81498009D01*
X176965795Y-81498011D01*
X176828797Y-81549110D01*
X176828792Y-81549112D01*
X176711738Y-81636738D01*
X176624112Y-81753792D01*
X176624110Y-81753797D01*
X176573011Y-81890795D01*
X176573009Y-81890803D01*
X176566500Y-81951350D01*
X176566500Y-83728649D01*
X176313499Y-83728649D01*
X176313500Y-83728632D01*
X176313500Y-81951367D01*
X176313499Y-81951350D01*
X176306990Y-81890803D01*
X176306988Y-81890795D01*
X176255889Y-81753797D01*
X176255887Y-81753792D01*
X176168261Y-81636738D01*
X176051207Y-81549112D01*
X176051202Y-81549110D01*
X175914204Y-81498011D01*
X175914196Y-81498009D01*
X175868032Y-81493047D01*
X175802440Y-81465878D01*
X175761948Y-81407561D01*
X175755500Y-81367769D01*
X175755500Y-81312918D01*
X175731817Y-81224532D01*
X175715599Y-81164006D01*
X175660513Y-81068595D01*
X175638518Y-81030498D01*
X175638510Y-81030488D01*
X175529511Y-80921489D01*
X175529501Y-80921481D01*
X175395994Y-80844401D01*
X175247083Y-80804500D01*
X175092917Y-80804500D01*
X174993643Y-80831100D01*
X174944005Y-80844401D01*
X174810498Y-80921481D01*
X174810488Y-80921489D01*
X174701489Y-81030488D01*
X174701481Y-81030498D01*
X174624401Y-81164005D01*
X174584500Y-81312918D01*
X174584500Y-81367769D01*
X174564498Y-81435890D01*
X174510842Y-81482383D01*
X174471968Y-81493047D01*
X174425803Y-81498009D01*
X174425795Y-81498011D01*
X174288797Y-81549110D01*
X174288792Y-81549112D01*
X174171738Y-81636738D01*
X174084112Y-81753792D01*
X174084110Y-81753797D01*
X174033011Y-81890795D01*
X174033009Y-81890803D01*
X174026500Y-81951350D01*
X174026500Y-83728649D01*
X173773499Y-83728649D01*
X173773500Y-83728632D01*
X173773500Y-81951367D01*
X173773499Y-81951350D01*
X173766990Y-81890803D01*
X173766988Y-81890795D01*
X173715889Y-81753797D01*
X173715887Y-81753792D01*
X173628261Y-81636738D01*
X173511207Y-81549112D01*
X173511202Y-81549110D01*
X173374204Y-81498011D01*
X173374196Y-81498009D01*
X173328032Y-81493047D01*
X173262440Y-81465878D01*
X173221948Y-81407561D01*
X173215500Y-81367769D01*
X173215500Y-81312918D01*
X173191817Y-81224532D01*
X173175599Y-81164006D01*
X173120513Y-81068595D01*
X173098518Y-81030498D01*
X173098510Y-81030488D01*
X172989511Y-80921489D01*
X172989501Y-80921481D01*
X172855994Y-80844401D01*
X172707083Y-80804500D01*
X172552917Y-80804500D01*
X172453643Y-80831100D01*
X172404005Y-80844401D01*
X172270498Y-80921481D01*
X172270488Y-80921489D01*
X172161489Y-81030488D01*
X172161481Y-81030498D01*
X172084401Y-81164005D01*
X172044500Y-81312918D01*
X172044500Y-81367769D01*
X172024498Y-81435890D01*
X171970842Y-81482383D01*
X171931968Y-81493047D01*
X171885803Y-81498009D01*
X171885795Y-81498011D01*
X171748797Y-81549110D01*
X171748792Y-81549112D01*
X171631738Y-81636738D01*
X171544112Y-81753792D01*
X171544110Y-81753797D01*
X171493011Y-81890795D01*
X171493009Y-81890803D01*
X171486500Y-81951350D01*
X171486500Y-83728649D01*
X171233499Y-83728649D01*
X171233500Y-83728632D01*
X171233500Y-81951367D01*
X171233499Y-81951350D01*
X171226990Y-81890803D01*
X171226988Y-81890795D01*
X171175889Y-81753797D01*
X171175887Y-81753792D01*
X171088261Y-81636738D01*
X170971207Y-81549112D01*
X170971202Y-81549110D01*
X170834204Y-81498011D01*
X170834196Y-81498009D01*
X170788032Y-81493047D01*
X170722440Y-81465878D01*
X170681948Y-81407561D01*
X170675500Y-81367769D01*
X170675500Y-81312918D01*
X170651817Y-81224532D01*
X170635599Y-81164006D01*
X170580513Y-81068595D01*
X170558518Y-81030498D01*
X170558510Y-81030488D01*
X170449511Y-80921489D01*
X170449501Y-80921481D01*
X170315994Y-80844401D01*
X170167083Y-80804500D01*
X170012917Y-80804500D01*
X169913643Y-80831100D01*
X169864005Y-80844401D01*
X169730498Y-80921481D01*
X169730488Y-80921489D01*
X169621489Y-81030488D01*
X169621481Y-81030498D01*
X169544401Y-81164005D01*
X169504500Y-81312918D01*
X169504500Y-81367769D01*
X169484498Y-81435890D01*
X169430842Y-81482383D01*
X169391968Y-81493047D01*
X169345803Y-81498009D01*
X169345795Y-81498011D01*
X169208797Y-81549110D01*
X169208792Y-81549112D01*
X169091738Y-81636738D01*
X169004112Y-81753792D01*
X169004110Y-81753797D01*
X168953011Y-81890795D01*
X168953010Y-81890802D01*
X168947173Y-81945095D01*
X168920004Y-82010687D01*
X168861686Y-82051178D01*
X168836000Y-82056834D01*
X168832254Y-82057256D01*
X168762322Y-82045005D01*
X168710115Y-81996892D01*
X168692871Y-81945514D01*
X168686990Y-81890804D01*
X168686988Y-81890795D01*
X168635889Y-81753797D01*
X168635887Y-81753792D01*
X168548261Y-81636738D01*
X168431207Y-81549112D01*
X168431202Y-81549110D01*
X168294204Y-81498011D01*
X168294196Y-81498009D01*
X168248032Y-81493047D01*
X168182440Y-81465878D01*
X168141948Y-81407561D01*
X168135500Y-81367769D01*
X168135500Y-81312918D01*
X168111817Y-81224532D01*
X168095599Y-81164006D01*
X168040513Y-81068595D01*
X168018518Y-81030498D01*
X168018510Y-81030488D01*
X167909511Y-80921489D01*
X167909501Y-80921481D01*
X167775994Y-80844401D01*
X167627083Y-80804500D01*
X167472917Y-80804500D01*
X167373643Y-80831100D01*
X167324005Y-80844401D01*
X167190498Y-80921481D01*
X167190488Y-80921489D01*
X167081489Y-81030488D01*
X167081481Y-81030498D01*
X167004401Y-81164005D01*
X166964500Y-81312918D01*
X166964500Y-81367769D01*
X166944498Y-81435890D01*
X166890842Y-81482383D01*
X166851968Y-81493047D01*
X166805803Y-81498009D01*
X166805795Y-81498011D01*
X166668797Y-81549110D01*
X166668792Y-81549112D01*
X166551738Y-81636738D01*
X166464112Y-81753792D01*
X166464110Y-81753797D01*
X166413011Y-81890795D01*
X166413009Y-81890803D01*
X166406500Y-81951350D01*
X166406500Y-83728649D01*
X166153499Y-83728649D01*
X166153500Y-83728632D01*
X166153500Y-81951367D01*
X166153499Y-81951350D01*
X166146990Y-81890803D01*
X166146988Y-81890795D01*
X166095889Y-81753797D01*
X166095887Y-81753792D01*
X166008261Y-81636738D01*
X165891207Y-81549112D01*
X165891202Y-81549110D01*
X165754204Y-81498011D01*
X165754196Y-81498009D01*
X165708032Y-81493047D01*
X165642440Y-81465878D01*
X165601948Y-81407561D01*
X165595500Y-81367769D01*
X165595500Y-81312918D01*
X165571817Y-81224532D01*
X165555599Y-81164006D01*
X165500513Y-81068595D01*
X165478518Y-81030498D01*
X165478510Y-81030488D01*
X165369511Y-80921489D01*
X165369501Y-80921481D01*
X165235994Y-80844401D01*
X165087083Y-80804500D01*
X164932917Y-80804500D01*
X164833643Y-80831100D01*
X164784005Y-80844401D01*
X164650498Y-80921481D01*
X164650488Y-80921489D01*
X164541489Y-81030488D01*
X164541481Y-81030498D01*
X164464401Y-81164005D01*
X164424500Y-81312918D01*
X164424500Y-81367769D01*
X164404498Y-81435890D01*
X164350842Y-81482383D01*
X164311968Y-81493047D01*
X164265803Y-81498009D01*
X164265795Y-81498011D01*
X164128797Y-81549110D01*
X164128792Y-81549112D01*
X164011738Y-81636738D01*
X163924112Y-81753792D01*
X163924110Y-81753797D01*
X163873011Y-81890795D01*
X163873009Y-81890803D01*
X163866500Y-81951350D01*
X163866500Y-83728649D01*
X163613499Y-83728649D01*
X163613500Y-83728632D01*
X163613500Y-81951367D01*
X163613499Y-81951350D01*
X163606990Y-81890803D01*
X163606988Y-81890795D01*
X163555889Y-81753797D01*
X163555887Y-81753792D01*
X163468261Y-81636738D01*
X163351207Y-81549112D01*
X163351202Y-81549110D01*
X163214204Y-81498011D01*
X163214196Y-81498009D01*
X163168032Y-81493047D01*
X163102440Y-81465878D01*
X163061948Y-81407561D01*
X163055500Y-81367769D01*
X163055500Y-81312918D01*
X163031817Y-81224532D01*
X163015599Y-81164006D01*
X162960513Y-81068595D01*
X162938518Y-81030498D01*
X162938510Y-81030488D01*
X162829511Y-80921489D01*
X162829501Y-80921481D01*
X162695994Y-80844401D01*
X162547083Y-80804500D01*
X162392917Y-80804500D01*
X162293643Y-80831100D01*
X162244005Y-80844401D01*
X162110498Y-80921481D01*
X162110488Y-80921489D01*
X162001489Y-81030488D01*
X162001481Y-81030498D01*
X161924401Y-81164005D01*
X161884500Y-81312918D01*
X161884500Y-81367769D01*
X161864498Y-81435890D01*
X161810842Y-81482383D01*
X161771968Y-81493047D01*
X161725803Y-81498009D01*
X161725795Y-81498011D01*
X161588797Y-81549110D01*
X161588792Y-81549112D01*
X161471738Y-81636738D01*
X161384112Y-81753792D01*
X161384110Y-81753797D01*
X161333011Y-81890795D01*
X161333009Y-81890803D01*
X161326500Y-81951350D01*
X161326500Y-83728649D01*
X161073499Y-83728649D01*
X161073500Y-83728632D01*
X161073500Y-81951367D01*
X161073499Y-81951350D01*
X161066990Y-81890803D01*
X161066988Y-81890795D01*
X161015889Y-81753797D01*
X161015887Y-81753792D01*
X160928261Y-81636738D01*
X160811207Y-81549112D01*
X160811202Y-81549110D01*
X160674204Y-81498011D01*
X160674196Y-81498009D01*
X160628032Y-81493047D01*
X160562440Y-81465878D01*
X160521948Y-81407561D01*
X160515500Y-81367769D01*
X160515500Y-81312918D01*
X160491817Y-81224532D01*
X160475599Y-81164006D01*
X160420513Y-81068595D01*
X160398518Y-81030498D01*
X160398510Y-81030488D01*
X160289511Y-80921489D01*
X160289501Y-80921481D01*
X160155994Y-80844401D01*
X160007083Y-80804500D01*
X159852917Y-80804500D01*
X159753643Y-80831100D01*
X159704005Y-80844401D01*
X159570498Y-80921481D01*
X159570488Y-80921489D01*
X159461489Y-81030488D01*
X159461481Y-81030498D01*
X159384401Y-81164005D01*
X159344500Y-81312918D01*
X159344500Y-81367769D01*
X159324498Y-81435890D01*
X159270842Y-81482383D01*
X159231968Y-81493047D01*
X159185803Y-81498009D01*
X159185795Y-81498011D01*
X159048797Y-81549110D01*
X159048792Y-81549112D01*
X158931738Y-81636738D01*
X158844112Y-81753792D01*
X158844110Y-81753797D01*
X158793011Y-81890795D01*
X158793009Y-81890803D01*
X158786500Y-81951350D01*
X158786500Y-83728649D01*
X158533499Y-83728649D01*
X158533500Y-83728632D01*
X158533500Y-81951367D01*
X158533499Y-81951350D01*
X158526990Y-81890803D01*
X158526988Y-81890795D01*
X158475889Y-81753797D01*
X158475887Y-81753792D01*
X158388261Y-81636738D01*
X158271207Y-81549112D01*
X158271202Y-81549110D01*
X158134204Y-81498011D01*
X158134196Y-81498009D01*
X158088032Y-81493047D01*
X158022440Y-81465878D01*
X157981948Y-81407561D01*
X157975500Y-81367769D01*
X157975500Y-81312918D01*
X157951817Y-81224532D01*
X157935599Y-81164006D01*
X157880513Y-81068595D01*
X157858518Y-81030498D01*
X157858510Y-81030488D01*
X157749511Y-80921489D01*
X157749501Y-80921481D01*
X157615994Y-80844401D01*
X157467083Y-80804500D01*
X157312917Y-80804500D01*
X157213643Y-80831100D01*
X157164005Y-80844401D01*
X157030498Y-80921481D01*
X157030488Y-80921489D01*
X156921489Y-81030488D01*
X156921481Y-81030498D01*
X156844401Y-81164005D01*
X156804500Y-81312918D01*
X156804500Y-81367769D01*
X156784498Y-81435890D01*
X156730842Y-81482383D01*
X156691968Y-81493047D01*
X156645803Y-81498009D01*
X156645795Y-81498011D01*
X156508797Y-81549110D01*
X156508792Y-81549112D01*
X156391738Y-81636738D01*
X156304112Y-81753792D01*
X156304110Y-81753797D01*
X156253011Y-81890795D01*
X156253009Y-81890803D01*
X156246500Y-81951350D01*
X156246500Y-83728649D01*
X155993499Y-83728649D01*
X155993500Y-83728632D01*
X155993500Y-81951367D01*
X155993499Y-81951350D01*
X155986990Y-81890803D01*
X155986988Y-81890795D01*
X155935889Y-81753797D01*
X155935887Y-81753792D01*
X155848261Y-81636738D01*
X155731207Y-81549112D01*
X155731202Y-81549110D01*
X155594204Y-81498011D01*
X155594196Y-81498009D01*
X155548032Y-81493047D01*
X155482440Y-81465878D01*
X155441948Y-81407561D01*
X155435500Y-81367769D01*
X155435500Y-81312918D01*
X155411817Y-81224532D01*
X155395599Y-81164006D01*
X155340513Y-81068595D01*
X155318518Y-81030498D01*
X155318510Y-81030488D01*
X155209511Y-80921489D01*
X155209501Y-80921481D01*
X155075994Y-80844401D01*
X154927083Y-80804500D01*
X154772917Y-80804500D01*
X154673643Y-80831100D01*
X154624005Y-80844401D01*
X154490498Y-80921481D01*
X154490488Y-80921489D01*
X154381489Y-81030488D01*
X154381481Y-81030498D01*
X154304401Y-81164005D01*
X154264500Y-81312918D01*
X154264500Y-81367769D01*
X154244498Y-81435890D01*
X154190842Y-81482383D01*
X154151968Y-81493047D01*
X154105803Y-81498009D01*
X154105795Y-81498011D01*
X153968797Y-81549110D01*
X153968792Y-81549112D01*
X153851738Y-81636738D01*
X153764112Y-81753792D01*
X153764110Y-81753797D01*
X153713011Y-81890795D01*
X153713009Y-81890803D01*
X153706500Y-81951350D01*
X153706500Y-83728649D01*
X153453499Y-83728649D01*
X153453500Y-83728632D01*
X153453500Y-81951367D01*
X153453499Y-81951350D01*
X153446990Y-81890803D01*
X153446988Y-81890795D01*
X153395889Y-81753797D01*
X153395887Y-81753792D01*
X153308261Y-81636738D01*
X153191207Y-81549112D01*
X153191202Y-81549110D01*
X153054204Y-81498011D01*
X153054196Y-81498009D01*
X153008032Y-81493047D01*
X152942440Y-81465878D01*
X152901948Y-81407561D01*
X152895500Y-81367769D01*
X152895500Y-81312918D01*
X152871817Y-81224532D01*
X152855599Y-81164006D01*
X152800513Y-81068595D01*
X152778518Y-81030498D01*
X152778510Y-81030488D01*
X152669511Y-80921489D01*
X152669501Y-80921481D01*
X152535994Y-80844401D01*
X152387083Y-80804500D01*
X152232917Y-80804500D01*
X152133643Y-80831100D01*
X152084005Y-80844401D01*
X151950498Y-80921481D01*
X151950488Y-80921489D01*
X151841489Y-81030488D01*
X151841481Y-81030498D01*
X151764401Y-81164005D01*
X151724500Y-81312918D01*
X151724500Y-81367769D01*
X151704498Y-81435890D01*
X151650842Y-81482383D01*
X151611968Y-81493047D01*
X151565803Y-81498009D01*
X151565795Y-81498011D01*
X151428797Y-81549110D01*
X151428792Y-81549112D01*
X151311738Y-81636738D01*
X151224112Y-81753792D01*
X151224110Y-81753797D01*
X151188402Y-81849533D01*
X151145855Y-81906369D01*
X151079335Y-81931179D01*
X151070347Y-81931500D01*
X151009653Y-81931500D01*
X150941532Y-81911498D01*
X150895039Y-81857842D01*
X150891598Y-81849533D01*
X150855889Y-81753797D01*
X150855887Y-81753792D01*
X150768261Y-81636738D01*
X150651207Y-81549112D01*
X150651202Y-81549110D01*
X150514204Y-81498011D01*
X150514196Y-81498009D01*
X150468032Y-81493047D01*
X150402440Y-81465878D01*
X150361948Y-81407561D01*
X150355500Y-81367769D01*
X150355500Y-81312918D01*
X150331817Y-81224532D01*
X150315599Y-81164006D01*
X150260513Y-81068595D01*
X150238518Y-81030498D01*
X150238510Y-81030488D01*
X150129511Y-80921489D01*
X150129501Y-80921481D01*
X149995994Y-80844401D01*
X149847083Y-80804500D01*
X149692917Y-80804500D01*
X149593643Y-80831100D01*
X149544005Y-80844401D01*
X149410498Y-80921481D01*
X149410488Y-80921489D01*
X149301489Y-81030488D01*
X149301481Y-81030498D01*
X149224401Y-81164005D01*
X149184500Y-81312918D01*
X149184500Y-81367769D01*
X149164498Y-81435890D01*
X149110842Y-81482383D01*
X149071968Y-81493047D01*
X149025803Y-81498009D01*
X149025795Y-81498011D01*
X148888797Y-81549110D01*
X148888792Y-81549112D01*
X148771738Y-81636738D01*
X148684112Y-81753792D01*
X148684110Y-81753797D01*
X148633011Y-81890795D01*
X148633009Y-81890803D01*
X148626500Y-81951350D01*
X148626500Y-83728649D01*
X148633009Y-83789196D01*
X148633011Y-83789204D01*
X148687260Y-83934647D01*
X148684378Y-83935721D01*
X148696199Y-83990100D01*
X148671377Y-84056616D01*
X148642095Y-84083375D01*
X148642418Y-84083784D01*
X148636704Y-84088302D01*
X148636682Y-84088323D01*
X148636665Y-84088332D01*
X148636657Y-84088339D01*
X148513343Y-84211652D01*
X148513342Y-84211653D01*
X148421791Y-84360080D01*
X148366937Y-84525622D01*
X148356500Y-84627778D01*
X148356500Y-85227212D01*
X148366937Y-85329380D01*
X148421791Y-85494920D01*
X148513342Y-85643346D01*
X148513347Y-85643352D01*
X148620900Y-85750905D01*
X148654926Y-85813217D01*
X148649861Y-85884032D01*
X148620900Y-85929095D01*
X148513347Y-86036647D01*
X148513342Y-86036653D01*
X148505110Y-86050000D01*
X148421791Y-86185080D01*
X148421790Y-86185081D01*
X148417939Y-86191326D01*
X148416742Y-86190587D01*
X148375088Y-86237882D01*
X148306808Y-86257334D01*
X148238851Y-86236783D01*
X148192793Y-86182754D01*
X148187250Y-86167913D01*
X148186024Y-86163873D01*
X148186024Y-86163868D01*
X148128814Y-85975273D01*
X148035910Y-85801462D01*
X147910883Y-85649117D01*
X147758538Y-85524090D01*
X147703965Y-85494920D01*
X147584728Y-85431186D01*
X147442844Y-85388146D01*
X147396132Y-85373976D01*
X147396131Y-85373975D01*
X147396125Y-85373974D01*
X147200003Y-85354659D01*
X147199997Y-85354659D01*
X147003875Y-85373974D01*
X147003870Y-85373975D01*
X146851527Y-85420188D01*
X146780534Y-85420821D01*
X146720467Y-85382972D01*
X146690399Y-85318657D01*
X146699876Y-85248295D01*
X146705826Y-85236625D01*
X146714527Y-85221556D01*
X146773542Y-85039928D01*
X146793504Y-84850000D01*
X146773542Y-84660072D01*
X146714527Y-84478444D01*
X146656247Y-84377500D01*
X146639509Y-84308505D01*
X146662729Y-84241413D01*
X146718536Y-84197526D01*
X146765366Y-84188500D01*
X147913632Y-84188500D01*
X147913638Y-84188500D01*
X147913645Y-84188499D01*
X147913649Y-84188499D01*
X147974196Y-84181990D01*
X147974199Y-84181989D01*
X147974201Y-84181989D01*
X148111204Y-84130889D01*
X148168054Y-84088332D01*
X148228261Y-84043261D01*
X148315887Y-83926207D01*
X148315887Y-83926206D01*
X148315889Y-83926204D01*
X148363868Y-83797568D01*
X148366988Y-83789204D01*
X148366990Y-83789196D01*
X148373499Y-83728649D01*
X148373500Y-83728632D01*
X148373500Y-81951367D01*
X148373499Y-81951350D01*
X148366990Y-81890803D01*
X148366988Y-81890795D01*
X148315889Y-81753797D01*
X148315887Y-81753792D01*
X148228261Y-81636738D01*
X148111207Y-81549112D01*
X148111202Y-81549110D01*
X147974204Y-81498011D01*
X147974196Y-81498009D01*
X147928032Y-81493047D01*
X147862440Y-81465878D01*
X147821948Y-81407561D01*
X147815500Y-81367769D01*
X147815500Y-81312918D01*
X147791817Y-81224532D01*
X147775599Y-81164006D01*
X147720513Y-81068595D01*
X147698518Y-81030498D01*
X147698510Y-81030488D01*
X147589511Y-80921489D01*
X147589501Y-80921481D01*
X147455994Y-80844401D01*
X147307083Y-80804500D01*
X147152917Y-80804500D01*
X147053643Y-80831100D01*
X147004005Y-80844401D01*
X146870498Y-80921481D01*
X146870488Y-80921489D01*
X146761489Y-81030488D01*
X146761481Y-81030498D01*
X146684401Y-81164005D01*
X146644500Y-81312918D01*
X146644500Y-81367769D01*
X146624498Y-81435890D01*
X146570842Y-81482383D01*
X146531968Y-81493047D01*
X146485803Y-81498009D01*
X146485795Y-81498011D01*
X146348797Y-81549110D01*
X146348792Y-81549112D01*
X146231738Y-81636738D01*
X146144112Y-81753792D01*
X146144110Y-81753797D01*
X146093011Y-81890795D01*
X146093009Y-81890803D01*
X146086500Y-81951350D01*
X146086500Y-83728649D01*
X146093853Y-83797039D01*
X146091801Y-83797259D01*
X146088579Y-83857416D01*
X146047055Y-83915003D01*
X145980988Y-83940998D01*
X145969755Y-83941500D01*
X145950245Y-83941500D01*
X145882124Y-83921498D01*
X145835631Y-83867842D01*
X145825527Y-83797568D01*
X145826826Y-83790719D01*
X145833499Y-83728649D01*
X145833500Y-83728632D01*
X145833500Y-81951367D01*
X145833499Y-81951350D01*
X145826990Y-81890803D01*
X145826988Y-81890795D01*
X145775889Y-81753797D01*
X145775887Y-81753792D01*
X145688261Y-81636738D01*
X145571207Y-81549112D01*
X145571202Y-81549110D01*
X145434204Y-81498011D01*
X145434196Y-81498009D01*
X145388032Y-81493047D01*
X145322440Y-81465878D01*
X145281948Y-81407561D01*
X145275500Y-81367769D01*
X145275500Y-81312918D01*
X145251817Y-81224532D01*
X145235599Y-81164006D01*
X145180513Y-81068595D01*
X145158518Y-81030498D01*
X145158510Y-81030488D01*
X145049511Y-80921489D01*
X145049501Y-80921481D01*
X144915994Y-80844401D01*
X144767083Y-80804500D01*
X144612917Y-80804500D01*
X144513643Y-80831100D01*
X144464005Y-80844401D01*
X144330498Y-80921481D01*
X144330488Y-80921489D01*
X144221489Y-81030488D01*
X144221481Y-81030498D01*
X144144401Y-81164005D01*
X144104500Y-81312918D01*
X144104500Y-81367769D01*
X144084498Y-81435890D01*
X144030842Y-81482383D01*
X143991968Y-81493047D01*
X143945803Y-81498009D01*
X143945795Y-81498011D01*
X143808797Y-81549110D01*
X143808792Y-81549112D01*
X143691738Y-81636738D01*
X143604112Y-81753792D01*
X143604110Y-81753797D01*
X143553011Y-81890795D01*
X143553009Y-81890803D01*
X143546500Y-81951350D01*
X143546500Y-83728649D01*
X143553009Y-83789196D01*
X143553011Y-83789204D01*
X143604110Y-83926202D01*
X143604112Y-83926207D01*
X143691738Y-84043261D01*
X143808792Y-84130887D01*
X143808794Y-84130888D01*
X143808796Y-84130889D01*
X143823990Y-84136556D01*
X143945795Y-84181988D01*
X143945803Y-84181990D01*
X144006350Y-84188499D01*
X144006355Y-84188499D01*
X144006362Y-84188500D01*
X144994634Y-84188500D01*
X145062755Y-84208502D01*
X145109248Y-84262158D01*
X145119352Y-84332432D01*
X145103752Y-84377500D01*
X145079729Y-84419112D01*
X145068535Y-84438500D01*
X145017153Y-84487493D01*
X144959416Y-84501500D01*
X142406350Y-84501500D01*
X142345803Y-84508009D01*
X142345795Y-84508011D01*
X142200353Y-84562260D01*
X142199223Y-84559232D01*
X142145363Y-84570929D01*
X142084281Y-84548133D01*
X142084118Y-84548432D01*
X142082035Y-84547294D01*
X142078890Y-84546121D01*
X142076207Y-84544113D01*
X142076202Y-84544110D01*
X141939204Y-84493011D01*
X141939196Y-84493009D01*
X141878649Y-84486500D01*
X141878638Y-84486500D01*
X140261362Y-84486500D01*
X140261350Y-84486500D01*
X140200803Y-84493009D01*
X140200795Y-84493011D01*
X140063797Y-84544110D01*
X140063792Y-84544113D01*
X140000509Y-84591486D01*
X139933988Y-84616297D01*
X139864614Y-84601205D01*
X139849491Y-84591486D01*
X139786207Y-84544113D01*
X139786202Y-84544110D01*
X139649204Y-84493011D01*
X139649196Y-84493009D01*
X139588649Y-84486500D01*
X139588638Y-84486500D01*
X137971362Y-84486500D01*
X137971350Y-84486500D01*
X137910803Y-84493009D01*
X137910795Y-84493011D01*
X137773797Y-84544110D01*
X137773792Y-84544112D01*
X137656738Y-84631738D01*
X137569112Y-84748792D01*
X137569110Y-84748797D01*
X137518011Y-84885795D01*
X137518009Y-84885803D01*
X137511500Y-84946350D01*
X137511500Y-85287278D01*
X137491498Y-85355399D01*
X137437842Y-85401892D01*
X137367568Y-85411996D01*
X137309991Y-85388146D01*
X137271207Y-85359112D01*
X137271202Y-85359110D01*
X137134204Y-85308011D01*
X137134196Y-85308009D01*
X137073649Y-85301500D01*
X137073638Y-85301500D01*
X136026362Y-85301500D01*
X136026350Y-85301500D01*
X135965803Y-85308009D01*
X135965795Y-85308011D01*
X135828797Y-85359110D01*
X135828792Y-85359112D01*
X135738951Y-85426368D01*
X135672431Y-85451179D01*
X135663442Y-85451500D01*
X135349500Y-85451500D01*
X135281379Y-85431498D01*
X135234886Y-85377842D01*
X135223500Y-85325500D01*
X135223500Y-84761367D01*
X135223499Y-84761350D01*
X135216990Y-84700803D01*
X135216988Y-84700795D01*
X135165889Y-84563797D01*
X135165887Y-84563792D01*
X135078261Y-84446738D01*
X134961207Y-84359112D01*
X134961202Y-84359110D01*
X134824204Y-84308011D01*
X134824196Y-84308009D01*
X134763649Y-84301500D01*
X134763638Y-84301500D01*
X134116362Y-84301500D01*
X134116350Y-84301500D01*
X134055804Y-84308009D01*
X134055797Y-84308011D01*
X134009031Y-84325454D01*
X133938215Y-84330518D01*
X133920969Y-84325454D01*
X133874198Y-84308010D01*
X133872273Y-84307555D01*
X133870934Y-84306792D01*
X133866817Y-84305257D01*
X133867065Y-84304589D01*
X133810580Y-84272420D01*
X133777677Y-84209508D01*
X133775948Y-84198115D01*
X133763542Y-84080072D01*
X133704527Y-83898444D01*
X133609040Y-83733056D01*
X133609038Y-83733054D01*
X133609034Y-83733048D01*
X133481255Y-83591135D01*
X133321410Y-83475001D01*
X133323005Y-83472804D01*
X133282318Y-83430113D01*
X133268898Y-83360397D01*
X133276268Y-83328376D01*
X133316989Y-83219201D01*
X133318198Y-83207961D01*
X133323499Y-83158649D01*
X133323500Y-83158632D01*
X133323500Y-82061367D01*
X133323499Y-82061350D01*
X133316990Y-82000803D01*
X133316988Y-82000795D01*
X133279419Y-81900072D01*
X133265889Y-81863796D01*
X133265888Y-81863794D01*
X133265887Y-81863792D01*
X133178261Y-81746738D01*
X133061207Y-81659112D01*
X133061202Y-81659110D01*
X132924204Y-81608011D01*
X132924196Y-81608009D01*
X132863649Y-81601500D01*
X132863638Y-81601500D01*
X132216362Y-81601500D01*
X132216350Y-81601500D01*
X132155803Y-81608009D01*
X132155795Y-81608011D01*
X132018797Y-81659110D01*
X132018792Y-81659112D01*
X131901738Y-81746738D01*
X131814112Y-81863792D01*
X131814110Y-81863797D01*
X131763011Y-82000795D01*
X131763009Y-82000803D01*
X131756500Y-82061350D01*
X131756500Y-83158649D01*
X131763009Y-83219196D01*
X131763011Y-83219204D01*
X131814110Y-83356202D01*
X131814112Y-83356207D01*
X131901738Y-83473261D01*
X132018792Y-83560887D01*
X132018794Y-83560887D01*
X132018796Y-83560889D01*
X132053311Y-83573762D01*
X132110145Y-83616308D01*
X132134956Y-83682828D01*
X132119865Y-83752202D01*
X132118396Y-83754817D01*
X132059161Y-83857416D01*
X132035473Y-83898444D01*
X132026454Y-83926202D01*
X131976457Y-84080072D01*
X131956496Y-84270001D01*
X131962243Y-84324689D01*
X131949470Y-84394527D01*
X131912448Y-84438720D01*
X131901740Y-84446736D01*
X131814112Y-84563792D01*
X131814110Y-84563797D01*
X131763011Y-84700795D01*
X131763009Y-84700803D01*
X131756500Y-84761350D01*
X131756500Y-85092275D01*
X131754079Y-85116856D01*
X131731500Y-85230364D01*
X131731500Y-85230370D01*
X131731500Y-85814630D01*
X131762570Y-85970831D01*
X131784664Y-86024169D01*
X131823516Y-86117968D01*
X131911997Y-86250389D01*
X131911999Y-86250391D01*
X132418441Y-86756833D01*
X132452467Y-86819145D01*
X132447402Y-86889960D01*
X132409281Y-86943326D01*
X132329117Y-87009116D01*
X132204090Y-87161461D01*
X132111186Y-87335271D01*
X132053974Y-87523873D01*
X132053974Y-87523875D01*
X132034659Y-87719996D01*
X132034659Y-87720003D01*
X132053974Y-87916124D01*
X132053974Y-87916126D01*
X132111186Y-88104728D01*
X132157600Y-88191561D01*
X132204090Y-88278538D01*
X132329117Y-88430883D01*
X132481462Y-88555910D01*
X132655273Y-88648814D01*
X132843868Y-88706024D01*
X132843872Y-88706024D01*
X132843874Y-88706025D01*
X133039997Y-88725341D01*
X133040000Y-88725341D01*
X133040003Y-88725341D01*
X133236124Y-88706025D01*
X133236126Y-88706025D01*
X133236127Y-88706024D01*
X133236132Y-88706024D01*
X133424727Y-88648814D01*
X133598538Y-88555910D01*
X133750883Y-88430883D01*
X133875910Y-88278538D01*
X133968814Y-88104727D01*
X134026024Y-87916132D01*
X134039296Y-87781379D01*
X134045341Y-87720003D01*
X134045341Y-87719996D01*
X134026025Y-87523875D01*
X134026025Y-87523873D01*
X134026024Y-87523870D01*
X134026024Y-87523868D01*
X133968814Y-87335273D01*
X133925316Y-87253895D01*
X133910845Y-87184390D01*
X133936249Y-87118094D01*
X133993462Y-87076056D01*
X134036439Y-87068500D01*
X135663442Y-87068500D01*
X135731563Y-87088502D01*
X135738951Y-87093632D01*
X135828792Y-87160887D01*
X135828794Y-87160888D01*
X135828796Y-87160889D01*
X135859481Y-87172334D01*
X135965795Y-87211988D01*
X135965803Y-87211990D01*
X136026350Y-87218499D01*
X136026355Y-87218499D01*
X136026362Y-87218500D01*
X136026368Y-87218500D01*
X137073632Y-87218500D01*
X137073638Y-87218500D01*
X137073645Y-87218499D01*
X137073649Y-87218499D01*
X137134196Y-87211990D01*
X137134199Y-87211989D01*
X137134201Y-87211989D01*
X137271204Y-87160889D01*
X137309991Y-87131853D01*
X137376509Y-87107042D01*
X137445884Y-87122133D01*
X137496087Y-87172334D01*
X137511500Y-87232721D01*
X137511500Y-88093649D01*
X137518009Y-88154196D01*
X137518011Y-88154204D01*
X137569110Y-88291202D01*
X137569112Y-88291207D01*
X137656738Y-88408261D01*
X137773792Y-88495887D01*
X137773794Y-88495888D01*
X137773796Y-88495889D01*
X137781778Y-88498866D01*
X137910795Y-88546988D01*
X137910803Y-88546990D01*
X137971350Y-88553499D01*
X137971355Y-88553499D01*
X137971362Y-88553500D01*
X137971368Y-88553500D01*
X139588632Y-88553500D01*
X139588638Y-88553500D01*
X139588645Y-88553499D01*
X139588649Y-88553499D01*
X139616454Y-88550509D01*
X139649201Y-88546989D01*
X139649204Y-88546987D01*
X139654737Y-88545681D01*
X139725632Y-88549477D01*
X139783221Y-88591000D01*
X139809218Y-88657065D01*
X139803325Y-88707933D01*
X139797432Y-88725716D01*
X139797430Y-88725726D01*
X139787000Y-88827815D01*
X139787000Y-88873500D01*
X141759725Y-88873500D01*
X141807220Y-88847565D01*
X141878035Y-88852629D01*
X141934872Y-88895174D01*
X141952060Y-88926652D01*
X141965579Y-88962898D01*
X142004111Y-89066204D01*
X142008092Y-89071522D01*
X142017773Y-89084454D01*
X142042583Y-89150974D01*
X142027491Y-89220348D01*
X142017772Y-89235471D01*
X141974112Y-89293792D01*
X141974111Y-89293795D01*
X141958734Y-89335022D01*
X141916187Y-89391857D01*
X141849666Y-89416667D01*
X141780292Y-89401575D01*
X141753477Y-89381500D01*
X139787000Y-89381500D01*
X139787000Y-89427184D01*
X139797430Y-89529273D01*
X139797431Y-89529276D01*
X139852248Y-89694707D01*
X139943737Y-89843033D01*
X139943742Y-89843039D01*
X140051254Y-89950551D01*
X140085280Y-90012863D01*
X140080215Y-90083678D01*
X140051254Y-90128741D01*
X139943347Y-90236647D01*
X139943342Y-90236653D01*
X139851791Y-90385080D01*
X139796937Y-90550622D01*
X139786500Y-90652778D01*
X139786500Y-91252212D01*
X139796938Y-91354381D01*
X139817312Y-91415868D01*
X139819752Y-91486823D01*
X139783443Y-91547833D01*
X139719914Y-91579528D01*
X139697707Y-91581500D01*
X139586371Y-91581500D01*
X139518250Y-91561498D01*
X139497276Y-91544595D01*
X139230125Y-91277444D01*
X139199387Y-91227285D01*
X139144528Y-91058447D01*
X139144527Y-91058445D01*
X139144527Y-91058444D01*
X139049040Y-90893056D01*
X139049038Y-90893054D01*
X139049034Y-90893048D01*
X138921255Y-90751135D01*
X138766752Y-90638882D01*
X138592288Y-90561206D01*
X138405487Y-90521500D01*
X138214513Y-90521500D01*
X138027711Y-90561206D01*
X137853247Y-90638882D01*
X137698744Y-90751135D01*
X137570965Y-90893048D01*
X137570958Y-90893058D01*
X137475476Y-91058438D01*
X137475473Y-91058445D01*
X137416457Y-91240072D01*
X137396496Y-91430001D01*
X137399792Y-91461368D01*
X137387018Y-91531206D01*
X137338515Y-91583052D01*
X137318516Y-91592591D01*
X137193795Y-91639111D01*
X137193792Y-91639112D01*
X137076738Y-91726738D01*
X136989112Y-91843792D01*
X136989110Y-91843797D01*
X136938011Y-91980795D01*
X136938009Y-91980803D01*
X136931500Y-92041350D01*
X136931500Y-93138649D01*
X136938009Y-93199196D01*
X136938011Y-93199204D01*
X136989110Y-93336202D01*
X136989112Y-93336207D01*
X137076737Y-93453259D01*
X137076738Y-93453259D01*
X137076739Y-93453261D01*
X137093166Y-93465558D01*
X137124657Y-93489132D01*
X137167203Y-93545968D01*
X137172267Y-93616784D01*
X137138242Y-93679096D01*
X137124657Y-93690868D01*
X137076737Y-93726740D01*
X136989112Y-93843792D01*
X136989110Y-93843797D01*
X136938011Y-93980795D01*
X136938009Y-93980803D01*
X136931500Y-94041350D01*
X136931500Y-95138649D01*
X136938009Y-95199196D01*
X136938011Y-95199204D01*
X136989110Y-95336202D01*
X136989110Y-95336203D01*
X137008651Y-95362307D01*
X137072389Y-95447451D01*
X137097200Y-95513970D01*
X137091354Y-95561895D01*
X137046457Y-95700071D01*
X137026496Y-95890000D01*
X137046457Y-96079927D01*
X137055235Y-96106941D01*
X137105473Y-96261556D01*
X137105476Y-96261561D01*
X137200958Y-96426941D01*
X137200965Y-96426951D01*
X137328744Y-96568864D01*
X137328747Y-96568866D01*
X137483248Y-96681118D01*
X137657712Y-96758794D01*
X137844513Y-96798500D01*
X138035487Y-96798500D01*
X138222288Y-96758794D01*
X138396752Y-96681118D01*
X138551253Y-96568866D01*
X138567765Y-96550528D01*
X138679034Y-96426951D01*
X138679035Y-96426949D01*
X138679040Y-96426944D01*
X138774527Y-96261556D01*
X138829388Y-96092712D01*
X138860123Y-96042556D01*
X139267277Y-95635404D01*
X139329589Y-95601379D01*
X139356372Y-95598500D01*
X140988632Y-95598500D01*
X140988638Y-95598500D01*
X140988645Y-95598499D01*
X140988649Y-95598499D01*
X141049196Y-95591990D01*
X141049199Y-95591989D01*
X141049201Y-95591989D01*
X141186204Y-95540889D01*
X141186930Y-95540346D01*
X141303261Y-95453261D01*
X141390887Y-95336207D01*
X141390887Y-95336206D01*
X141390889Y-95336204D01*
X141441989Y-95199201D01*
X141442071Y-95198445D01*
X141448499Y-95138649D01*
X141448500Y-95138632D01*
X141448500Y-94041367D01*
X141448499Y-94041350D01*
X141441990Y-93980803D01*
X141441988Y-93980795D01*
X141390889Y-93843797D01*
X141390887Y-93843792D01*
X141303261Y-93726738D01*
X141255343Y-93690868D01*
X141212796Y-93634033D01*
X141207731Y-93563217D01*
X141241756Y-93500905D01*
X141255343Y-93489132D01*
X141259575Y-93485964D01*
X141303261Y-93453261D01*
X141345223Y-93397206D01*
X141402058Y-93354660D01*
X141421509Y-93349136D01*
X141543928Y-93324785D01*
X141571247Y-93319351D01*
X141709284Y-93262174D01*
X141726923Y-93250388D01*
X141794673Y-93229173D01*
X141863140Y-93247955D01*
X141910584Y-93300771D01*
X141922202Y-93341681D01*
X141923010Y-93349197D01*
X141923011Y-93349200D01*
X141926491Y-93358532D01*
X141931552Y-93429348D01*
X141917553Y-93465558D01*
X141875474Y-93538441D01*
X141816457Y-93720072D01*
X141796496Y-93910000D01*
X141816457Y-94099927D01*
X141836012Y-94160108D01*
X141875473Y-94281556D01*
X141875476Y-94281561D01*
X141970958Y-94446941D01*
X141970965Y-94446951D01*
X142098744Y-94588864D01*
X142098747Y-94588866D01*
X142253248Y-94701118D01*
X142427712Y-94778794D01*
X142614513Y-94818500D01*
X142805487Y-94818500D01*
X142992288Y-94778794D01*
X143166752Y-94701118D01*
X143321253Y-94588866D01*
X143408873Y-94491554D01*
X143449034Y-94446951D01*
X143449035Y-94446949D01*
X143449040Y-94446944D01*
X143544527Y-94281556D01*
X143603542Y-94099928D01*
X143623504Y-93910000D01*
X143603542Y-93720072D01*
X143544527Y-93538444D01*
X143489875Y-93443785D01*
X143473138Y-93374792D01*
X143476375Y-93351798D01*
X143476990Y-93349195D01*
X143483499Y-93288649D01*
X143483500Y-93288632D01*
X143483500Y-92994000D01*
X143817000Y-92994000D01*
X143817000Y-93288597D01*
X143823505Y-93349093D01*
X143874555Y-93485964D01*
X143874555Y-93485965D01*
X143962095Y-93602904D01*
X144079034Y-93690444D01*
X144215906Y-93741494D01*
X144276402Y-93747999D01*
X144276415Y-93748000D01*
X144346000Y-93748000D01*
X144346000Y-92994000D01*
X143817000Y-92994000D01*
X143483500Y-92994000D01*
X143483500Y-92624500D01*
X143503502Y-92556379D01*
X143557158Y-92509886D01*
X143609500Y-92498500D01*
X144364706Y-92498500D01*
X144415376Y-92488420D01*
X144439958Y-92486000D01*
X145326309Y-92486000D01*
X145394430Y-92506002D01*
X145415404Y-92522905D01*
X145425999Y-92533500D01*
X146162187Y-92533500D01*
X146230308Y-92553502D01*
X146236241Y-92557559D01*
X146312748Y-92613145D01*
X146487212Y-92690821D01*
X146674013Y-92730527D01*
X146864987Y-92730527D01*
X147051788Y-92690821D01*
X147226252Y-92613145D01*
X147380753Y-92500893D01*
X147464589Y-92407784D01*
X147508534Y-92358978D01*
X147508534Y-92358977D01*
X147508540Y-92358971D01*
X147533061Y-92316498D01*
X147584444Y-92267506D01*
X147642180Y-92253500D01*
X147695960Y-92253500D01*
X147764081Y-92273502D01*
X147805789Y-92317746D01*
X147808530Y-92322622D01*
X147894287Y-92435712D01*
X147990013Y-92508302D01*
X148007377Y-92521469D01*
X148007378Y-92521469D01*
X148014889Y-92525692D01*
X148013690Y-92527823D01*
X148059649Y-92563578D01*
X148083221Y-92630547D01*
X148077002Y-92676832D01*
X148067432Y-92705713D01*
X148067431Y-92705720D01*
X148057000Y-92807815D01*
X148057000Y-92853500D01*
X150023001Y-92853500D01*
X150038881Y-92837620D01*
X150101193Y-92803594D01*
X150172008Y-92808659D01*
X150217071Y-92837620D01*
X150444595Y-93065144D01*
X150478621Y-93127456D01*
X150481500Y-93154239D01*
X150481500Y-93999890D01*
X150481500Y-94160110D01*
X150522968Y-94314873D01*
X150522969Y-94314875D01*
X150522970Y-94314877D01*
X150603075Y-94453623D01*
X150603083Y-94453633D01*
X152616366Y-96466916D01*
X152616371Y-96466920D01*
X152616373Y-96466922D01*
X152616374Y-96466923D01*
X152616376Y-96466924D01*
X152734149Y-96534920D01*
X152761183Y-96550528D01*
X152805423Y-96593499D01*
X152860840Y-96683344D01*
X152860847Y-96683352D01*
X152984147Y-96806652D01*
X152984153Y-96806657D01*
X152984154Y-96806658D01*
X153132580Y-96898209D01*
X153298119Y-96953062D01*
X153400287Y-96963500D01*
X153999712Y-96963499D01*
X154101881Y-96953062D01*
X154267420Y-96898209D01*
X154415846Y-96806658D01*
X154465422Y-96757082D01*
X154523405Y-96699100D01*
X154585717Y-96665074D01*
X154656532Y-96670139D01*
X154701595Y-96699100D01*
X154809147Y-96806652D01*
X154809153Y-96806657D01*
X154809154Y-96806658D01*
X154957580Y-96898209D01*
X155123119Y-96953062D01*
X155225287Y-96963500D01*
X155824712Y-96963499D01*
X155926881Y-96953062D01*
X156092420Y-96898209D01*
X156195673Y-96834521D01*
X156264149Y-96815784D01*
X156313063Y-96826654D01*
X156407712Y-96868794D01*
X156594513Y-96908500D01*
X156785487Y-96908500D01*
X156972288Y-96868794D01*
X157146752Y-96791118D01*
X157301253Y-96678866D01*
X157301255Y-96678864D01*
X157429034Y-96536951D01*
X157429035Y-96536949D01*
X157429040Y-96536944D01*
X157524527Y-96371556D01*
X157583542Y-96189928D01*
X157603504Y-96000000D01*
X157583542Y-95810072D01*
X157548892Y-95703433D01*
X157546865Y-95632470D01*
X157583527Y-95571672D01*
X157647239Y-95540346D01*
X157668726Y-95538500D01*
X172187520Y-95538500D01*
X172255641Y-95558502D01*
X172302134Y-95612158D01*
X172312238Y-95682432D01*
X172307354Y-95703428D01*
X172291055Y-95753595D01*
X172256457Y-95860072D01*
X172236496Y-96050000D01*
X172256457Y-96239927D01*
X172263485Y-96261556D01*
X172315473Y-96421556D01*
X172315475Y-96421560D01*
X172315477Y-96421564D01*
X172321144Y-96431379D01*
X172337883Y-96500374D01*
X172314663Y-96567466D01*
X172258857Y-96611354D01*
X172256062Y-96612435D01*
X172219396Y-96626111D01*
X172219394Y-96626112D01*
X172219392Y-96626113D01*
X172185509Y-96651478D01*
X172118989Y-96676289D01*
X172049615Y-96661198D01*
X172034491Y-96651478D01*
X172000607Y-96626112D01*
X172000602Y-96626110D01*
X171863604Y-96575011D01*
X171863596Y-96575009D01*
X171803049Y-96568500D01*
X171803038Y-96568500D01*
X171146962Y-96568500D01*
X171146950Y-96568500D01*
X171086403Y-96575009D01*
X171086395Y-96575011D01*
X170949397Y-96626110D01*
X170949393Y-96626112D01*
X170873271Y-96683096D01*
X170806751Y-96707906D01*
X170737377Y-96692814D01*
X170704127Y-96666537D01*
X170681255Y-96641135D01*
X170526752Y-96528882D01*
X170352288Y-96451206D01*
X170165487Y-96411500D01*
X169974513Y-96411500D01*
X169787711Y-96451206D01*
X169613247Y-96528882D01*
X169458744Y-96641135D01*
X169330965Y-96783048D01*
X169330958Y-96783058D01*
X169235476Y-96948438D01*
X169235473Y-96948444D01*
X169229184Y-96967799D01*
X169176457Y-97130072D01*
X169156496Y-97320000D01*
X169167199Y-97421843D01*
X169154426Y-97491681D01*
X169105924Y-97543527D01*
X169037091Y-97560921D01*
X168969781Y-97538339D01*
X168941023Y-97510523D01*
X168900761Y-97456739D01*
X168854146Y-97421843D01*
X168783707Y-97369112D01*
X168783702Y-97369110D01*
X168646704Y-97318011D01*
X168646696Y-97318009D01*
X168586149Y-97311500D01*
X168586138Y-97311500D01*
X167188862Y-97311500D01*
X167188850Y-97311500D01*
X167128303Y-97318009D01*
X167128295Y-97318011D01*
X166991297Y-97369110D01*
X166991292Y-97369112D01*
X166874238Y-97456738D01*
X166786612Y-97573792D01*
X166786610Y-97573797D01*
X166735511Y-97710795D01*
X166735509Y-97710803D01*
X166729000Y-97771350D01*
X166729000Y-98269500D01*
X166708998Y-98337621D01*
X166655342Y-98384114D01*
X166603000Y-98395500D01*
X165754000Y-98395500D01*
X165754000Y-99516000D01*
X167928000Y-99516000D01*
X167996121Y-99536002D01*
X168042614Y-99589658D01*
X168054000Y-99642000D01*
X168054000Y-99898000D01*
X168033998Y-99966121D01*
X167980342Y-100012614D01*
X167928000Y-100024000D01*
X165754000Y-100024000D01*
X165754000Y-101144500D01*
X166603000Y-101144500D01*
X166671121Y-101164502D01*
X166717614Y-101218158D01*
X166729000Y-101270500D01*
X166729000Y-101768649D01*
X166735509Y-101829196D01*
X166735511Y-101829204D01*
X166786610Y-101966202D01*
X166786612Y-101966207D01*
X166874238Y-102083261D01*
X166991292Y-102170887D01*
X166991294Y-102170888D01*
X166991296Y-102170889D01*
X167006793Y-102176669D01*
X167128295Y-102221988D01*
X167128303Y-102221990D01*
X167188850Y-102228499D01*
X167188855Y-102228499D01*
X167188862Y-102228500D01*
X167188868Y-102228500D01*
X168586132Y-102228500D01*
X168586138Y-102228500D01*
X168586145Y-102228499D01*
X168586149Y-102228499D01*
X168646696Y-102221990D01*
X168646699Y-102221989D01*
X168646701Y-102221989D01*
X168655214Y-102218814D01*
X168665545Y-102214960D01*
X168783704Y-102170889D01*
X168786956Y-102168455D01*
X168900761Y-102083261D01*
X168941387Y-102028991D01*
X168998222Y-101986444D01*
X169042255Y-101978500D01*
X169356655Y-101978500D01*
X169424776Y-101998502D01*
X169433355Y-102005053D01*
X169433405Y-102004985D01*
X169496468Y-102050803D01*
X169593248Y-102121118D01*
X169767712Y-102198794D01*
X169954513Y-102238500D01*
X170070347Y-102238500D01*
X170138468Y-102258502D01*
X170184961Y-102312158D01*
X170195554Y-102378606D01*
X170186384Y-102460000D01*
X170206783Y-102641047D01*
X170206783Y-102641049D01*
X170206784Y-102641050D01*
X170266957Y-102813015D01*
X170266958Y-102813018D01*
X170363887Y-102967279D01*
X170363888Y-102967281D01*
X170492718Y-103096111D01*
X170492720Y-103096112D01*
X170646981Y-103193041D01*
X170646982Y-103193041D01*
X170646985Y-103193043D01*
X170818953Y-103253217D01*
X171000000Y-103273616D01*
X171181047Y-103253217D01*
X171353015Y-103193043D01*
X171507281Y-103096111D01*
X171636111Y-102967281D01*
X171733043Y-102813015D01*
X171793217Y-102641047D01*
X171802719Y-102556702D01*
X171830221Y-102491251D01*
X171838813Y-102481734D01*
X173231922Y-101088627D01*
X173267043Y-101027795D01*
X173312031Y-100949875D01*
X173312032Y-100949872D01*
X173324021Y-100905127D01*
X173353500Y-100795111D01*
X173353500Y-99639876D01*
X173373502Y-99571755D01*
X173427158Y-99525262D01*
X173497432Y-99515158D01*
X173523525Y-99521818D01*
X173597309Y-99549339D01*
X173626398Y-99560189D01*
X173626403Y-99560190D01*
X173686950Y-99566699D01*
X173686955Y-99566699D01*
X173686962Y-99566700D01*
X173686968Y-99566700D01*
X174343032Y-99566700D01*
X174343038Y-99566700D01*
X174343045Y-99566699D01*
X174343049Y-99566699D01*
X174403596Y-99560190D01*
X174403599Y-99560189D01*
X174403601Y-99560189D01*
X174540604Y-99509089D01*
X174574491Y-99483720D01*
X174641011Y-99458910D01*
X174710385Y-99474001D01*
X174725507Y-99483720D01*
X174759396Y-99509089D01*
X174759397Y-99509089D01*
X174759398Y-99509090D01*
X174896395Y-99560188D01*
X174896403Y-99560190D01*
X174956950Y-99566699D01*
X174956955Y-99566699D01*
X174956962Y-99566700D01*
X174956968Y-99566700D01*
X175613032Y-99566700D01*
X175613038Y-99566700D01*
X175613045Y-99566699D01*
X175613049Y-99566699D01*
X175673596Y-99560190D01*
X175673599Y-99560189D01*
X175673601Y-99560189D01*
X175810604Y-99509089D01*
X175844491Y-99483720D01*
X175911011Y-99458910D01*
X175980385Y-99474001D01*
X175995507Y-99483720D01*
X176029396Y-99509089D01*
X176029397Y-99509089D01*
X176029398Y-99509090D01*
X176166395Y-99560188D01*
X176166403Y-99560190D01*
X176226950Y-99566699D01*
X176226955Y-99566699D01*
X176226962Y-99566700D01*
X176226968Y-99566700D01*
X176883032Y-99566700D01*
X176883038Y-99566700D01*
X176883045Y-99566699D01*
X176883049Y-99566699D01*
X176943596Y-99560190D01*
X176943601Y-99560189D01*
X176965918Y-99551865D01*
X177046469Y-99521820D01*
X177117282Y-99516755D01*
X177179594Y-99550779D01*
X177213620Y-99613091D01*
X177216500Y-99639876D01*
X177216500Y-100358805D01*
X177196498Y-100426926D01*
X177179595Y-100447900D01*
X177176595Y-100450900D01*
X177114283Y-100484926D01*
X177043468Y-100479861D01*
X176998405Y-100450900D01*
X176890852Y-100343347D01*
X176890846Y-100343342D01*
X176849778Y-100318011D01*
X176742420Y-100251791D01*
X176576881Y-100196938D01*
X176576879Y-100196937D01*
X176576877Y-100196937D01*
X176474721Y-100186500D01*
X175875287Y-100186500D01*
X175773119Y-100196937D01*
X175607579Y-100251791D01*
X175459153Y-100343342D01*
X175459147Y-100343347D01*
X175335847Y-100466647D01*
X175335842Y-100466653D01*
X175244291Y-100615080D01*
X175189437Y-100780622D01*
X175179000Y-100882778D01*
X175179000Y-101457212D01*
X175189437Y-101559380D01*
X175244291Y-101724920D01*
X175335842Y-101873346D01*
X175335847Y-101873352D01*
X175459147Y-101996652D01*
X175459153Y-101996657D01*
X175459154Y-101996658D01*
X175607580Y-102088209D01*
X175650391Y-102102394D01*
X175699854Y-102132903D01*
X176169596Y-102602645D01*
X176203620Y-102664956D01*
X176206500Y-102691739D01*
X176206500Y-103099712D01*
X176216937Y-103201880D01*
X176271791Y-103367420D01*
X176303824Y-103419353D01*
X176322561Y-103487833D01*
X176301302Y-103555572D01*
X176246794Y-103601063D01*
X176196583Y-103611500D01*
X176164513Y-103611500D01*
X175977711Y-103651206D01*
X175803247Y-103728882D01*
X175648744Y-103841135D01*
X175520965Y-103983048D01*
X175520958Y-103983058D01*
X175425476Y-104148438D01*
X175425473Y-104148444D01*
X175414745Y-104181461D01*
X175366457Y-104330072D01*
X175346496Y-104520000D01*
X175366457Y-104709927D01*
X175376229Y-104740000D01*
X175425473Y-104891556D01*
X175425476Y-104891561D01*
X175520958Y-105056941D01*
X175520965Y-105056951D01*
X175648744Y-105198864D01*
X175692772Y-105230852D01*
X175803248Y-105311118D01*
X175977712Y-105388794D01*
X176164513Y-105428500D01*
X176355483Y-105428500D01*
X176355487Y-105428500D01*
X176451097Y-105408177D01*
X176521885Y-105413579D01*
X176543435Y-105424181D01*
X176635080Y-105480709D01*
X176800619Y-105535562D01*
X176902787Y-105546000D01*
X177477212Y-105545999D01*
X177579381Y-105535562D01*
X177744920Y-105480709D01*
X177893346Y-105389158D01*
X178016658Y-105265846D01*
X178108209Y-105117420D01*
X178118366Y-105086764D01*
X178158776Y-105028396D01*
X178224332Y-105001138D01*
X178294217Y-105013649D01*
X178331606Y-105042087D01*
X178388181Y-105104919D01*
X178418747Y-105138866D01*
X178573248Y-105251118D01*
X178747712Y-105328794D01*
X178934513Y-105368500D01*
X179125487Y-105368500D01*
X179312288Y-105328794D01*
X179312296Y-105328790D01*
X179313567Y-105328378D01*
X179314350Y-105328355D01*
X179318747Y-105327421D01*
X179318917Y-105328224D01*
X179384535Y-105326345D01*
X179429070Y-105351914D01*
X179430896Y-105349605D01*
X179436653Y-105354157D01*
X179436654Y-105354158D01*
X179585080Y-105445709D01*
X179750619Y-105500562D01*
X179852787Y-105511000D01*
X180427212Y-105510999D01*
X180529381Y-105500562D01*
X180694920Y-105445709D01*
X180843346Y-105354158D01*
X180966658Y-105230846D01*
X181058209Y-105082420D01*
X181113062Y-104916881D01*
X181123500Y-104814713D01*
X181123499Y-104140288D01*
X181113062Y-104038119D01*
X181058209Y-103872580D01*
X180966658Y-103724154D01*
X180934098Y-103691594D01*
X180900074Y-103629285D01*
X180905138Y-103558469D01*
X180934098Y-103513405D01*
X180966658Y-103480846D01*
X180996797Y-103431982D01*
X181049582Y-103384506D01*
X181119657Y-103373103D01*
X181184773Y-103401395D01*
X181193132Y-103409036D01*
X182159595Y-104375499D01*
X182193621Y-104437811D01*
X182196500Y-104464594D01*
X182196500Y-104837212D01*
X182206937Y-104939380D01*
X182261791Y-105104920D01*
X182353342Y-105253346D01*
X182353347Y-105253352D01*
X182476647Y-105376652D01*
X182476653Y-105376657D01*
X182476654Y-105376658D01*
X182625080Y-105468209D01*
X182790619Y-105523062D01*
X182892787Y-105533500D01*
X183467212Y-105533499D01*
X183569381Y-105523062D01*
X183734920Y-105468209D01*
X183883346Y-105376658D01*
X184006658Y-105253346D01*
X184098209Y-105104920D01*
X184153062Y-104939381D01*
X184163500Y-104837213D01*
X184163499Y-104162788D01*
X184163282Y-104160668D01*
X184153062Y-104060619D01*
X184127361Y-103983058D01*
X184126188Y-103979519D01*
X184123749Y-103908566D01*
X184160057Y-103847556D01*
X184223586Y-103815860D01*
X184294166Y-103823543D01*
X184334889Y-103850793D01*
X184889595Y-104405499D01*
X184923621Y-104467811D01*
X184926500Y-104494594D01*
X184926500Y-104867212D01*
X184936937Y-104969380D01*
X184991791Y-105134920D01*
X185083342Y-105283346D01*
X185083347Y-105283352D01*
X185206647Y-105406652D01*
X185206653Y-105406657D01*
X185206654Y-105406658D01*
X185355080Y-105498209D01*
X185520619Y-105553062D01*
X185622787Y-105563500D01*
X186197212Y-105563499D01*
X186299381Y-105553062D01*
X186464920Y-105498209D01*
X186613346Y-105406658D01*
X186736658Y-105283346D01*
X186828209Y-105134920D01*
X186883062Y-104969381D01*
X186893500Y-104867213D01*
X186893500Y-104740003D01*
X187904659Y-104740003D01*
X187923974Y-104936124D01*
X187923974Y-104936126D01*
X187981186Y-105124728D01*
X188056616Y-105265846D01*
X188074090Y-105298538D01*
X188199117Y-105450883D01*
X188351462Y-105575910D01*
X188525273Y-105668814D01*
X188713868Y-105726024D01*
X188713872Y-105726024D01*
X188713874Y-105726025D01*
X188909997Y-105745341D01*
X188910000Y-105745341D01*
X188910003Y-105745341D01*
X189106124Y-105726025D01*
X189106126Y-105726025D01*
X189106127Y-105726024D01*
X189106132Y-105726024D01*
X189294727Y-105668814D01*
X189468538Y-105575910D01*
X189620883Y-105450883D01*
X189745910Y-105298538D01*
X189838814Y-105124727D01*
X189896024Y-104936132D01*
X189897920Y-104916881D01*
X189915341Y-104740003D01*
X189915341Y-104739996D01*
X189896025Y-104543875D01*
X189896025Y-104543873D01*
X189896024Y-104543870D01*
X189896024Y-104543868D01*
X189838814Y-104355273D01*
X189745910Y-104181462D01*
X189620883Y-104029117D01*
X189468538Y-103904090D01*
X189294728Y-103811186D01*
X189106125Y-103753974D01*
X188910003Y-103734659D01*
X188909997Y-103734659D01*
X188713875Y-103753974D01*
X188713873Y-103753974D01*
X188525271Y-103811186D01*
X188351461Y-103904090D01*
X188199117Y-104029117D01*
X188074090Y-104181461D01*
X187981186Y-104355271D01*
X187923974Y-104543873D01*
X187923974Y-104543875D01*
X187904659Y-104739996D01*
X187904659Y-104740003D01*
X186893500Y-104740003D01*
X186893499Y-104192788D01*
X186888968Y-104148438D01*
X186883062Y-104090619D01*
X186872516Y-104058793D01*
X186828209Y-103925080D01*
X186736658Y-103776654D01*
X186704098Y-103744094D01*
X186670074Y-103681785D01*
X186675138Y-103610969D01*
X186704098Y-103565905D01*
X186736658Y-103533346D01*
X186828209Y-103384920D01*
X186883062Y-103219381D01*
X186883063Y-103219370D01*
X186884400Y-103213127D01*
X186918217Y-103150702D01*
X186980416Y-103116469D01*
X187007609Y-103113500D01*
X187040109Y-103113500D01*
X187040110Y-103113500D01*
X187040111Y-103113500D01*
X187138216Y-103087213D01*
X187194873Y-103072032D01*
X187205106Y-103066124D01*
X191434500Y-103066124D01*
X191458773Y-103219380D01*
X191470832Y-103295518D01*
X191541627Y-103513403D01*
X191542600Y-103516396D01*
X191648039Y-103723331D01*
X191784551Y-103911224D01*
X191784553Y-103911226D01*
X191784555Y-103911229D01*
X191948770Y-104075444D01*
X191948773Y-104075446D01*
X191948776Y-104075449D01*
X192136669Y-104211961D01*
X192343604Y-104317400D01*
X192564486Y-104389169D01*
X192793876Y-104425500D01*
X192793878Y-104425500D01*
X193026122Y-104425500D01*
X193026124Y-104425500D01*
X193255514Y-104389169D01*
X193476396Y-104317400D01*
X193683331Y-104211961D01*
X193871224Y-104075449D01*
X194035449Y-103911224D01*
X194171961Y-103723331D01*
X194277400Y-103516396D01*
X194349169Y-103295514D01*
X194385500Y-103066124D01*
X194385500Y-102833876D01*
X194349169Y-102604486D01*
X194277400Y-102383604D01*
X194171961Y-102176669D01*
X194035449Y-101988776D01*
X194035446Y-101988773D01*
X194035444Y-101988770D01*
X193871229Y-101824555D01*
X193871226Y-101824553D01*
X193871224Y-101824551D01*
X193683331Y-101688039D01*
X193476396Y-101582600D01*
X193476393Y-101582599D01*
X193476391Y-101582598D01*
X193255518Y-101510832D01*
X193255516Y-101510831D01*
X193255514Y-101510831D01*
X193026124Y-101474500D01*
X192793876Y-101474500D01*
X192564486Y-101510831D01*
X192564484Y-101510831D01*
X192564481Y-101510832D01*
X192343608Y-101582598D01*
X192343602Y-101582601D01*
X192136665Y-101688041D01*
X191948773Y-101824553D01*
X191948770Y-101824555D01*
X191784555Y-101988770D01*
X191784553Y-101988773D01*
X191648041Y-102176665D01*
X191542601Y-102383602D01*
X191542598Y-102383608D01*
X191470832Y-102604481D01*
X191470831Y-102604484D01*
X191470831Y-102604486D01*
X191434500Y-102833876D01*
X191434500Y-103066124D01*
X187205106Y-103066124D01*
X187333627Y-102991922D01*
X188165144Y-102160403D01*
X188227457Y-102126379D01*
X188254240Y-102123499D01*
X188624712Y-102123499D01*
X188726881Y-102113062D01*
X188892420Y-102058209D01*
X189040846Y-101966658D01*
X189164158Y-101843346D01*
X189255709Y-101694920D01*
X189310562Y-101529381D01*
X189321000Y-101427213D01*
X189320999Y-100852788D01*
X189310562Y-100750619D01*
X189255709Y-100585080D01*
X189164158Y-100436654D01*
X189164157Y-100436653D01*
X189164152Y-100436647D01*
X189040852Y-100313347D01*
X189040846Y-100313342D01*
X188952441Y-100258813D01*
X188892420Y-100221791D01*
X188726881Y-100166938D01*
X188726879Y-100166937D01*
X188726877Y-100166937D01*
X188624721Y-100156500D01*
X188025287Y-100156500D01*
X187923119Y-100166937D01*
X187757579Y-100221791D01*
X187609153Y-100313342D01*
X187609147Y-100313347D01*
X187501241Y-100421254D01*
X187438929Y-100455280D01*
X187368114Y-100450215D01*
X187323051Y-100421254D01*
X187215539Y-100313742D01*
X187215533Y-100313737D01*
X187067207Y-100222248D01*
X186901776Y-100167431D01*
X186901773Y-100167430D01*
X186799684Y-100157000D01*
X186754000Y-100157000D01*
X186754000Y-101268000D01*
X186733998Y-101336121D01*
X186680342Y-101382614D01*
X186628000Y-101394000D01*
X184867000Y-101394000D01*
X184798879Y-101373998D01*
X184752386Y-101320342D01*
X184741000Y-101268000D01*
X184741000Y-100157000D01*
X185249000Y-100157000D01*
X185249000Y-100886000D01*
X186246000Y-100886000D01*
X186246000Y-100157000D01*
X186200315Y-100157000D01*
X186098226Y-100167430D01*
X186098223Y-100167431D01*
X185932790Y-100222249D01*
X185813646Y-100295738D01*
X185745167Y-100314475D01*
X185681354Y-100295738D01*
X185562209Y-100222249D01*
X185396776Y-100167431D01*
X185396773Y-100167430D01*
X185294684Y-100157000D01*
X185249000Y-100157000D01*
X184741000Y-100157000D01*
X184695315Y-100157000D01*
X184593226Y-100167430D01*
X184593223Y-100167431D01*
X184427792Y-100222248D01*
X184279466Y-100313737D01*
X184279460Y-100313742D01*
X184171949Y-100421254D01*
X184109637Y-100455280D01*
X184038822Y-100450215D01*
X183993759Y-100421254D01*
X183885852Y-100313347D01*
X183885846Y-100313342D01*
X183797441Y-100258813D01*
X183737420Y-100221791D01*
X183571881Y-100166938D01*
X183571879Y-100166937D01*
X183571877Y-100166937D01*
X183469721Y-100156500D01*
X182870287Y-100156500D01*
X182768119Y-100166937D01*
X182602579Y-100221791D01*
X182454153Y-100313342D01*
X182454147Y-100313347D01*
X182344095Y-100423400D01*
X182281783Y-100457426D01*
X182210968Y-100452361D01*
X182165905Y-100423400D01*
X182065852Y-100323347D01*
X182065846Y-100323342D01*
X182010612Y-100289273D01*
X181917420Y-100231791D01*
X181751881Y-100176938D01*
X181751879Y-100176937D01*
X181751877Y-100176937D01*
X181649721Y-100166500D01*
X181050287Y-100166500D01*
X180948119Y-100176937D01*
X180782579Y-100231791D01*
X180634153Y-100323342D01*
X180634147Y-100323347D01*
X180526595Y-100430900D01*
X180464283Y-100464926D01*
X180393468Y-100459861D01*
X180348405Y-100430900D01*
X180240852Y-100323347D01*
X180240846Y-100323342D01*
X180185612Y-100289273D01*
X180092420Y-100231791D01*
X179926881Y-100176938D01*
X179926879Y-100176937D01*
X179926877Y-100176937D01*
X179824725Y-100166500D01*
X179823088Y-100166417D01*
X179822749Y-100166298D01*
X179821521Y-100166173D01*
X179821551Y-100165879D01*
X179756074Y-100142974D01*
X179712371Y-100087022D01*
X179703500Y-100040580D01*
X179703500Y-99507812D01*
X179723502Y-99439691D01*
X179732334Y-99428731D01*
X179732260Y-99428676D01*
X179825287Y-99304407D01*
X179825287Y-99304406D01*
X179825289Y-99304404D01*
X179874689Y-99171960D01*
X179876388Y-99167404D01*
X179876390Y-99167396D01*
X179882899Y-99106849D01*
X179882900Y-99106832D01*
X179882900Y-97028367D01*
X179882899Y-97028350D01*
X179876390Y-96967803D01*
X179876388Y-96967795D01*
X179839461Y-96868793D01*
X179825289Y-96830796D01*
X179825288Y-96830794D01*
X179825287Y-96830792D01*
X179737661Y-96713738D01*
X179699908Y-96685477D01*
X179668990Y-96645647D01*
X179666162Y-96647280D01*
X179581923Y-96501375D01*
X179581915Y-96501365D01*
X178834145Y-95753595D01*
X178800119Y-95691283D01*
X178805184Y-95620468D01*
X178847731Y-95563632D01*
X178914251Y-95538821D01*
X178923240Y-95538500D01*
X181972918Y-95538500D01*
X182041039Y-95558502D01*
X182062013Y-95575405D01*
X183154595Y-96667987D01*
X183188621Y-96730299D01*
X183191500Y-96757082D01*
X183191500Y-98718649D01*
X183198009Y-98779196D01*
X183198011Y-98779204D01*
X183249110Y-98916202D01*
X183249112Y-98916207D01*
X183336738Y-99033261D01*
X183453792Y-99120887D01*
X183453794Y-99120888D01*
X183453796Y-99120889D01*
X183512875Y-99142924D01*
X183590795Y-99171988D01*
X183590803Y-99171990D01*
X183651350Y-99178499D01*
X183651355Y-99178499D01*
X183651362Y-99178500D01*
X183651368Y-99178500D01*
X186548632Y-99178500D01*
X186548638Y-99178500D01*
X186548645Y-99178499D01*
X186548649Y-99178499D01*
X186609196Y-99171990D01*
X186609199Y-99171989D01*
X186609201Y-99171989D01*
X186610199Y-99171617D01*
X186652790Y-99155731D01*
X186746204Y-99120889D01*
X186747248Y-99120108D01*
X186863261Y-99033261D01*
X186950887Y-98916207D01*
X186950887Y-98916206D01*
X186950889Y-98916204D01*
X187001989Y-98779201D01*
X187002822Y-98771461D01*
X187008499Y-98718649D01*
X187008500Y-98718632D01*
X187008500Y-98404500D01*
X187028502Y-98336379D01*
X187082158Y-98289886D01*
X187134500Y-98278500D01*
X189165500Y-98278500D01*
X189233621Y-98298502D01*
X189280114Y-98352158D01*
X189291500Y-98404500D01*
X189291500Y-98718649D01*
X189298009Y-98779196D01*
X189298011Y-98779204D01*
X189349110Y-98916202D01*
X189349112Y-98916207D01*
X189436738Y-99033261D01*
X189553792Y-99120887D01*
X189553794Y-99120888D01*
X189553796Y-99120889D01*
X189612875Y-99142924D01*
X189690795Y-99171988D01*
X189690803Y-99171990D01*
X189751350Y-99178499D01*
X189751355Y-99178499D01*
X189751362Y-99178500D01*
X189751368Y-99178500D01*
X192648632Y-99178500D01*
X192648638Y-99178500D01*
X192648645Y-99178499D01*
X192648649Y-99178499D01*
X192709196Y-99171990D01*
X192709199Y-99171989D01*
X192709201Y-99171989D01*
X192710199Y-99171617D01*
X192752790Y-99155731D01*
X192846204Y-99120889D01*
X192847248Y-99120108D01*
X192963261Y-99033261D01*
X193025587Y-98950003D01*
X193754659Y-98950003D01*
X193773974Y-99146124D01*
X193773974Y-99146126D01*
X193831186Y-99334728D01*
X193910825Y-99483721D01*
X193924090Y-99508538D01*
X194049117Y-99660883D01*
X194201462Y-99785910D01*
X194375273Y-99878814D01*
X194563868Y-99936024D01*
X194563872Y-99936024D01*
X194563874Y-99936025D01*
X194759997Y-99955341D01*
X194760000Y-99955341D01*
X194760003Y-99955341D01*
X194956124Y-99936025D01*
X194956126Y-99936025D01*
X194956127Y-99936024D01*
X194956132Y-99936024D01*
X195144727Y-99878814D01*
X195318538Y-99785910D01*
X195470883Y-99660883D01*
X195595910Y-99508538D01*
X195688814Y-99334727D01*
X195746024Y-99146132D01*
X195747231Y-99133875D01*
X195765341Y-98950003D01*
X195765341Y-98949996D01*
X195746025Y-98753875D01*
X195746025Y-98753873D01*
X195746024Y-98753870D01*
X195746024Y-98753868D01*
X195688814Y-98565273D01*
X195595910Y-98391462D01*
X195470883Y-98239117D01*
X195318538Y-98114090D01*
X195308037Y-98108477D01*
X195144728Y-98021186D01*
X194956125Y-97963974D01*
X194760003Y-97944659D01*
X194759997Y-97944659D01*
X194563875Y-97963974D01*
X194563873Y-97963974D01*
X194375271Y-98021186D01*
X194201461Y-98114090D01*
X194049117Y-98239117D01*
X193924090Y-98391461D01*
X193831186Y-98565271D01*
X193773974Y-98753873D01*
X193773974Y-98753875D01*
X193754659Y-98949996D01*
X193754659Y-98950003D01*
X193025587Y-98950003D01*
X193050887Y-98916207D01*
X193050887Y-98916206D01*
X193050889Y-98916204D01*
X193101989Y-98779201D01*
X193102822Y-98771461D01*
X193108499Y-98718649D01*
X193108500Y-98718632D01*
X193108500Y-96221367D01*
X193108499Y-96221350D01*
X193101990Y-96160803D01*
X193101988Y-96160795D01*
X193067328Y-96067871D01*
X193050889Y-96023796D01*
X193050888Y-96023794D01*
X193050887Y-96023792D01*
X192963261Y-95906738D01*
X192846207Y-95819112D01*
X192846202Y-95819110D01*
X192709204Y-95768011D01*
X192709196Y-95768009D01*
X192648649Y-95761500D01*
X192648638Y-95761500D01*
X192192368Y-95761500D01*
X192124247Y-95741498D01*
X192077754Y-95687842D01*
X192067058Y-95648670D01*
X192063220Y-95612158D01*
X192053542Y-95520072D01*
X191994527Y-95338444D01*
X191899040Y-95173056D01*
X191899038Y-95173054D01*
X191899034Y-95173048D01*
X191771255Y-95031135D01*
X191616752Y-94918882D01*
X191442288Y-94841206D01*
X191255487Y-94801500D01*
X191064513Y-94801500D01*
X190877711Y-94841206D01*
X190703247Y-94918882D01*
X190548744Y-95031135D01*
X190420965Y-95173048D01*
X190420958Y-95173058D01*
X190325476Y-95338438D01*
X190325473Y-95338445D01*
X190266457Y-95520072D01*
X190252942Y-95648670D01*
X190225929Y-95714327D01*
X190167708Y-95754957D01*
X190127632Y-95761500D01*
X189751350Y-95761500D01*
X189690803Y-95768009D01*
X189690795Y-95768011D01*
X189553797Y-95819110D01*
X189553792Y-95819112D01*
X189436738Y-95906738D01*
X189349112Y-96023792D01*
X189349110Y-96023797D01*
X189298011Y-96160795D01*
X189298009Y-96160803D01*
X189291500Y-96221350D01*
X189291500Y-96535500D01*
X189271498Y-96603621D01*
X189217842Y-96650114D01*
X189165500Y-96661500D01*
X187134500Y-96661500D01*
X187066379Y-96641498D01*
X187019886Y-96587842D01*
X187008500Y-96535500D01*
X187008500Y-96221367D01*
X187008499Y-96221350D01*
X187001990Y-96160803D01*
X187001988Y-96160795D01*
X186967328Y-96067871D01*
X186950889Y-96023796D01*
X186950888Y-96023794D01*
X186950887Y-96023792D01*
X186863261Y-95906738D01*
X186746207Y-95819112D01*
X186746202Y-95819110D01*
X186609204Y-95768011D01*
X186609196Y-95768009D01*
X186548649Y-95761500D01*
X186548638Y-95761500D01*
X184587082Y-95761500D01*
X184518961Y-95741498D01*
X184497987Y-95724595D01*
X182875391Y-94101999D01*
X182875389Y-94101997D01*
X182742968Y-94013516D01*
X182662320Y-93980111D01*
X182595834Y-93952571D01*
X182595832Y-93952570D01*
X182595831Y-93952570D01*
X182515041Y-93936500D01*
X182439632Y-93921500D01*
X182439630Y-93921500D01*
X180008900Y-93921500D01*
X179940779Y-93901498D01*
X179894286Y-93847842D01*
X179882900Y-93795500D01*
X179882900Y-92173397D01*
X179899782Y-92110396D01*
X179939524Y-92041561D01*
X179939523Y-92041561D01*
X179939527Y-92041556D01*
X179995742Y-91868544D01*
X185699500Y-91868544D01*
X185737949Y-92061835D01*
X185737950Y-92061838D01*
X185782407Y-92169166D01*
X185813368Y-92243914D01*
X185922861Y-92407782D01*
X186062218Y-92547139D01*
X186226086Y-92656632D01*
X186408165Y-92732051D01*
X186601459Y-92770500D01*
X186798541Y-92770500D01*
X186991835Y-92732051D01*
X187173914Y-92656632D01*
X187337782Y-92547139D01*
X187477139Y-92407782D01*
X187586632Y-92243914D01*
X187662051Y-92061835D01*
X187700500Y-91868541D01*
X187700500Y-91863618D01*
X190249500Y-91863618D01*
X190272808Y-91980795D01*
X190286027Y-92047251D01*
X190357678Y-92220231D01*
X190461698Y-92375908D01*
X190594092Y-92508302D01*
X190749769Y-92612322D01*
X190922749Y-92683973D01*
X191106384Y-92720500D01*
X191106385Y-92720500D01*
X191293615Y-92720500D01*
X191293616Y-92720500D01*
X191477251Y-92683973D01*
X191650231Y-92612322D01*
X191805908Y-92508302D01*
X191938302Y-92375908D01*
X192042322Y-92220231D01*
X192113973Y-92047251D01*
X192150500Y-91863616D01*
X192150500Y-91676384D01*
X192113973Y-91492749D01*
X192042322Y-91319769D01*
X191938302Y-91164092D01*
X191805908Y-91031698D01*
X191650231Y-90927678D01*
X191477251Y-90856027D01*
X191293618Y-90819500D01*
X191293616Y-90819500D01*
X191106384Y-90819500D01*
X191106381Y-90819500D01*
X190922748Y-90856027D01*
X190922743Y-90856029D01*
X190749769Y-90927678D01*
X190594096Y-91031695D01*
X190594089Y-91031700D01*
X190461700Y-91164089D01*
X190461695Y-91164096D01*
X190357678Y-91319769D01*
X190286029Y-91492743D01*
X190286027Y-91492748D01*
X190249500Y-91676381D01*
X190249500Y-91863618D01*
X187700500Y-91863618D01*
X187700500Y-91671459D01*
X187662051Y-91478165D01*
X187586632Y-91296086D01*
X187477139Y-91132218D01*
X187337782Y-90992861D01*
X187173914Y-90883368D01*
X186991838Y-90807950D01*
X186991835Y-90807949D01*
X186798544Y-90769500D01*
X186798541Y-90769500D01*
X186601459Y-90769500D01*
X186601455Y-90769500D01*
X186408164Y-90807949D01*
X186408161Y-90807950D01*
X186226085Y-90883368D01*
X186062222Y-90992858D01*
X186062215Y-90992863D01*
X185922863Y-91132215D01*
X185922858Y-91132222D01*
X185813368Y-91296085D01*
X185737950Y-91478161D01*
X185737949Y-91478164D01*
X185699500Y-91671455D01*
X185699500Y-91868544D01*
X179995742Y-91868544D01*
X179998542Y-91859928D01*
X180018504Y-91670000D01*
X179998542Y-91480072D01*
X179939527Y-91298444D01*
X179844040Y-91133056D01*
X179800119Y-91084277D01*
X179745863Y-91024019D01*
X179715146Y-90960012D01*
X179713500Y-90939709D01*
X179713500Y-90609239D01*
X179733502Y-90541118D01*
X179750405Y-90520144D01*
X181236799Y-89033750D01*
X182741973Y-87528575D01*
X182804283Y-87494551D01*
X182875098Y-87499616D01*
X182931934Y-87542163D01*
X182956745Y-87608683D01*
X182956376Y-87630842D01*
X182936496Y-87819999D01*
X182956457Y-88009927D01*
X182983657Y-88093638D01*
X183015473Y-88191556D01*
X183015474Y-88191557D01*
X183015476Y-88191561D01*
X183110958Y-88356941D01*
X183110965Y-88356951D01*
X183238744Y-88498864D01*
X183238747Y-88498866D01*
X183393248Y-88611118D01*
X183567712Y-88688794D01*
X183754513Y-88728500D01*
X183945487Y-88728500D01*
X184132288Y-88688794D01*
X184306752Y-88611118D01*
X184461253Y-88498866D01*
X184461255Y-88498864D01*
X184589034Y-88356951D01*
X184589035Y-88356949D01*
X184589040Y-88356944D01*
X184684527Y-88191556D01*
X184705353Y-88127458D01*
X184736088Y-88077302D01*
X184997988Y-87815404D01*
X185060300Y-87781379D01*
X185087083Y-87778500D01*
X186548632Y-87778500D01*
X186548638Y-87778500D01*
X186548645Y-87778499D01*
X186548649Y-87778499D01*
X186609196Y-87771990D01*
X186609199Y-87771989D01*
X186609201Y-87771989D01*
X186746204Y-87720889D01*
X186863261Y-87633261D01*
X186950889Y-87516204D01*
X187001989Y-87379201D01*
X187002951Y-87370261D01*
X187008499Y-87318649D01*
X187008500Y-87318632D01*
X187008500Y-85357082D01*
X187028502Y-85288961D01*
X187045405Y-85267987D01*
X187918405Y-84394987D01*
X187980717Y-84360961D01*
X188051532Y-84366026D01*
X188096595Y-84394987D01*
X188748526Y-85046918D01*
X188782552Y-85109230D01*
X188777487Y-85180045D01*
X188734940Y-85236881D01*
X188710685Y-85251118D01*
X188693247Y-85258882D01*
X188538744Y-85371135D01*
X188410965Y-85513048D01*
X188410958Y-85513058D01*
X188330138Y-85653043D01*
X188315473Y-85678444D01*
X188300999Y-85722986D01*
X188256457Y-85860072D01*
X188236496Y-86050000D01*
X188256457Y-86239927D01*
X188286526Y-86332470D01*
X188315473Y-86421556D01*
X188315476Y-86421561D01*
X188410958Y-86586941D01*
X188410965Y-86586951D01*
X188538744Y-86728864D01*
X188560571Y-86744722D01*
X188693248Y-86841118D01*
X188867712Y-86918794D01*
X189054513Y-86958500D01*
X189165500Y-86958500D01*
X189233621Y-86978502D01*
X189280114Y-87032158D01*
X189291500Y-87084500D01*
X189291500Y-87318649D01*
X189298009Y-87379196D01*
X189298011Y-87379204D01*
X189349110Y-87516202D01*
X189349112Y-87516207D01*
X189436738Y-87633261D01*
X189553792Y-87720887D01*
X189553794Y-87720888D01*
X189553796Y-87720889D01*
X189612875Y-87742924D01*
X189690795Y-87771988D01*
X189690803Y-87771990D01*
X189751350Y-87778499D01*
X189751355Y-87778499D01*
X189751362Y-87778500D01*
X189751368Y-87778500D01*
X192648632Y-87778500D01*
X192648638Y-87778500D01*
X192648645Y-87778499D01*
X192648649Y-87778499D01*
X192709196Y-87771990D01*
X192709199Y-87771989D01*
X192709201Y-87771989D01*
X192846204Y-87720889D01*
X192963261Y-87633261D01*
X193050889Y-87516204D01*
X193101989Y-87379201D01*
X193102951Y-87370261D01*
X193108499Y-87318649D01*
X193108500Y-87318632D01*
X193108500Y-84821367D01*
X193108499Y-84821350D01*
X193101990Y-84760803D01*
X193101988Y-84760795D01*
X193064419Y-84660072D01*
X193050889Y-84623796D01*
X193050888Y-84623794D01*
X193050887Y-84623792D01*
X192963261Y-84506738D01*
X192846207Y-84419112D01*
X192846202Y-84419110D01*
X192709204Y-84368011D01*
X192709196Y-84368009D01*
X192648649Y-84361500D01*
X192648638Y-84361500D01*
X190402082Y-84361500D01*
X190333961Y-84341498D01*
X190312987Y-84324595D01*
X189050405Y-83062013D01*
X189016379Y-82999701D01*
X189013500Y-82972918D01*
X189013500Y-81951367D01*
X189013499Y-81951350D01*
X189006990Y-81890803D01*
X189006988Y-81890795D01*
X188955889Y-81753797D01*
X188955887Y-81753792D01*
X188868261Y-81636738D01*
X188751207Y-81549112D01*
X188751202Y-81549110D01*
X188614204Y-81498011D01*
X188614196Y-81498009D01*
X188568032Y-81493047D01*
X188502440Y-81465878D01*
X188461948Y-81407561D01*
X188455500Y-81367769D01*
X188455500Y-81312918D01*
X188431817Y-81224532D01*
X188415599Y-81164006D01*
X188360513Y-81068595D01*
X188338518Y-81030498D01*
X188338510Y-81030488D01*
X188229511Y-80921489D01*
X188229501Y-80921481D01*
X188095994Y-80844401D01*
X187947083Y-80804500D01*
X187792917Y-80804500D01*
X187644006Y-80844401D01*
X187563707Y-80890761D01*
X187494711Y-80907498D01*
X187427620Y-80884277D01*
X187383733Y-80828469D01*
X187376985Y-80757794D01*
X187395941Y-80711643D01*
X187477770Y-80589178D01*
X187552436Y-80408918D01*
X187590500Y-80217556D01*
X187590500Y-80022444D01*
X187552436Y-79831082D01*
X187477770Y-79650822D01*
X187395942Y-79528358D01*
X187374728Y-79460607D01*
X187393511Y-79392140D01*
X187446328Y-79344697D01*
X187516410Y-79333340D01*
X187563708Y-79349239D01*
X187587567Y-79363014D01*
X187644006Y-79395599D01*
X187792917Y-79435500D01*
X187792919Y-79435500D01*
X187947081Y-79435500D01*
X187947083Y-79435500D01*
X188095994Y-79395599D01*
X188229505Y-79318516D01*
X188338516Y-79209505D01*
X188415599Y-79075994D01*
X188455500Y-78927083D01*
X188455500Y-78872230D01*
X188475502Y-78804109D01*
X188529158Y-78757616D01*
X188568032Y-78746952D01*
X188589792Y-78744613D01*
X188614195Y-78741990D01*
X188614197Y-78741989D01*
X188614201Y-78741989D01*
X188614204Y-78741987D01*
X188615627Y-78741652D01*
X188616772Y-78741713D01*
X188622041Y-78741147D01*
X188622132Y-78742000D01*
X188686522Y-78745450D01*
X188744109Y-78786973D01*
X188751295Y-78797238D01*
X188763889Y-78817281D01*
X188763892Y-78817285D01*
X188892718Y-78946111D01*
X188892720Y-78946112D01*
X189046981Y-79043041D01*
X189046982Y-79043041D01*
X189046985Y-79043043D01*
X189218953Y-79103217D01*
X189400000Y-79123616D01*
X189581047Y-79103217D01*
X189753015Y-79043043D01*
X189907281Y-78946111D01*
X190036111Y-78817281D01*
X190133043Y-78663015D01*
X190144594Y-78630003D01*
X193234659Y-78630003D01*
X193253974Y-78826124D01*
X193253974Y-78826126D01*
X193311186Y-79014728D01*
X193378980Y-79141561D01*
X193404090Y-79188538D01*
X193529117Y-79340883D01*
X193681462Y-79465910D01*
X193855273Y-79558814D01*
X194043868Y-79616024D01*
X194043872Y-79616024D01*
X194043874Y-79616025D01*
X194239997Y-79635341D01*
X194240000Y-79635341D01*
X194240003Y-79635341D01*
X194436124Y-79616025D01*
X194436126Y-79616025D01*
X194436127Y-79616024D01*
X194436132Y-79616024D01*
X194624727Y-79558814D01*
X194798538Y-79465910D01*
X194950883Y-79340883D01*
X195075910Y-79188538D01*
X195168814Y-79014727D01*
X195226024Y-78826132D01*
X195226025Y-78826124D01*
X195245341Y-78630003D01*
X195245341Y-78629996D01*
X195226025Y-78433875D01*
X195226025Y-78433873D01*
X195226024Y-78433870D01*
X195226024Y-78433868D01*
X195168814Y-78245273D01*
X195075910Y-78071462D01*
X194950883Y-77919117D01*
X194798538Y-77794090D01*
X194725185Y-77754882D01*
X194624728Y-77701186D01*
X194436125Y-77643974D01*
X194240003Y-77624659D01*
X194239997Y-77624659D01*
X194043875Y-77643974D01*
X194043873Y-77643974D01*
X193855271Y-77701186D01*
X193681461Y-77794090D01*
X193529117Y-77919117D01*
X193404090Y-78071461D01*
X193311186Y-78245271D01*
X193253974Y-78433873D01*
X193253974Y-78433875D01*
X193234659Y-78629996D01*
X193234659Y-78630003D01*
X190144594Y-78630003D01*
X190193217Y-78491047D01*
X190213616Y-78310000D01*
X190193217Y-78128953D01*
X190133043Y-77956985D01*
X190133041Y-77956982D01*
X190133041Y-77956981D01*
X190036112Y-77802720D01*
X190036111Y-77802718D01*
X189907281Y-77673888D01*
X189907279Y-77673887D01*
X189753018Y-77576958D01*
X189753015Y-77576957D01*
X189581050Y-77516784D01*
X189581049Y-77516783D01*
X189581047Y-77516783D01*
X189518122Y-77509692D01*
X189496701Y-77507279D01*
X189431248Y-77479774D01*
X189421715Y-77471166D01*
X189050405Y-77099856D01*
X189016379Y-77037544D01*
X189013500Y-77010761D01*
X189013500Y-76616500D01*
X189033502Y-76548379D01*
X189087158Y-76501886D01*
X189139500Y-76490500D01*
X193383071Y-76490500D01*
X193406707Y-76490500D01*
X193413301Y-76490673D01*
X193712752Y-76506366D01*
X193725868Y-76507744D01*
X194018793Y-76554139D01*
X194031693Y-76556881D01*
X194254194Y-76616500D01*
X194318162Y-76633640D01*
X194330703Y-76637715D01*
X194607576Y-76743997D01*
X194619608Y-76749353D01*
X194883873Y-76884003D01*
X194895288Y-76890594D01*
X194934867Y-76916297D01*
X195144017Y-77052121D01*
X195154685Y-77059872D01*
X195323217Y-77196347D01*
X195385160Y-77246507D01*
X195394961Y-77255332D01*
X195604667Y-77465038D01*
X195613492Y-77474839D01*
X195800126Y-77705313D01*
X195807878Y-77715982D01*
X195969404Y-77964710D01*
X195975999Y-77976132D01*
X196110642Y-78240383D01*
X196116006Y-78252432D01*
X196222283Y-78529294D01*
X196226359Y-78541837D01*
X196303118Y-78828306D01*
X196305860Y-78841206D01*
X196352255Y-79134131D01*
X196353633Y-79147247D01*
X196369327Y-79446697D01*
X196369500Y-79453292D01*
X196369500Y-103446707D01*
X196369327Y-103453302D01*
X196353633Y-103752752D01*
X196352255Y-103765868D01*
X196305860Y-104058793D01*
X196303118Y-104071693D01*
X196226359Y-104358162D01*
X196222283Y-104370705D01*
X196116006Y-104647567D01*
X196110642Y-104659616D01*
X195975999Y-104923867D01*
X195969404Y-104935289D01*
X195807878Y-105184017D01*
X195800126Y-105194686D01*
X195613492Y-105425160D01*
X195604667Y-105434961D01*
X195394961Y-105644667D01*
X195385160Y-105653492D01*
X195154686Y-105840126D01*
X195144017Y-105847878D01*
X194895289Y-106009404D01*
X194883867Y-106015999D01*
X194619616Y-106150642D01*
X194607567Y-106156006D01*
X194330705Y-106262283D01*
X194318162Y-106266359D01*
X194031693Y-106343118D01*
X194018793Y-106345860D01*
X193725868Y-106392255D01*
X193712752Y-106393633D01*
X193428048Y-106408554D01*
X193413300Y-106409327D01*
X193406707Y-106409500D01*
X134413293Y-106409500D01*
X134406699Y-106409327D01*
X134391068Y-106408507D01*
X134107247Y-106393633D01*
X134094131Y-106392255D01*
X133801206Y-106345860D01*
X133788306Y-106343118D01*
X133501837Y-106266359D01*
X133489294Y-106262283D01*
X133212432Y-106156006D01*
X133200383Y-106150642D01*
X132936132Y-106015999D01*
X132924710Y-106009404D01*
X132675982Y-105847878D01*
X132665313Y-105840126D01*
X132434839Y-105653492D01*
X132425038Y-105644667D01*
X132215332Y-105434961D01*
X132206507Y-105425160D01*
X132192754Y-105408177D01*
X132019872Y-105194685D01*
X132012121Y-105184017D01*
X131853250Y-104939377D01*
X131850594Y-104935288D01*
X131844000Y-104923867D01*
X131785983Y-104810003D01*
X138914659Y-104810003D01*
X138933974Y-105006124D01*
X138933974Y-105006126D01*
X138991186Y-105194728D01*
X139076403Y-105354157D01*
X139084090Y-105368538D01*
X139209117Y-105520883D01*
X139361462Y-105645910D01*
X139535273Y-105738814D01*
X139723868Y-105796024D01*
X139723872Y-105796024D01*
X139723874Y-105796025D01*
X139919997Y-105815341D01*
X139920000Y-105815341D01*
X139920003Y-105815341D01*
X140116124Y-105796025D01*
X140116126Y-105796025D01*
X140116127Y-105796024D01*
X140116132Y-105796024D01*
X140304727Y-105738814D01*
X140478538Y-105645910D01*
X140630883Y-105520883D01*
X140755910Y-105368538D01*
X140795461Y-105294544D01*
X141330500Y-105294544D01*
X141341112Y-105398425D01*
X141396885Y-105566738D01*
X141489970Y-105717652D01*
X141489975Y-105717658D01*
X141615341Y-105843024D01*
X141615347Y-105843029D01*
X141615348Y-105843030D01*
X141766262Y-105936115D01*
X141934574Y-105991887D01*
X142038455Y-106002500D01*
X142639544Y-106002499D01*
X142743426Y-105991887D01*
X142911738Y-105936115D01*
X143062652Y-105843030D01*
X143188030Y-105717652D01*
X143281115Y-105566738D01*
X143336887Y-105398426D01*
X143347500Y-105294545D01*
X143347500Y-105294544D01*
X146280500Y-105294544D01*
X146291112Y-105398425D01*
X146346885Y-105566738D01*
X146439970Y-105717652D01*
X146439975Y-105717658D01*
X146565341Y-105843024D01*
X146565347Y-105843029D01*
X146565348Y-105843030D01*
X146716262Y-105936115D01*
X146884574Y-105991887D01*
X146988455Y-106002500D01*
X147589544Y-106002499D01*
X147693426Y-105991887D01*
X147861738Y-105936115D01*
X148012652Y-105843030D01*
X148138030Y-105717652D01*
X148231115Y-105566738D01*
X148286887Y-105398426D01*
X148297500Y-105294545D01*
X148297499Y-102993456D01*
X148297342Y-102991924D01*
X148286887Y-102889574D01*
X148286886Y-102889572D01*
X148231115Y-102721262D01*
X148138030Y-102570348D01*
X148138029Y-102570347D01*
X148138024Y-102570341D01*
X148012658Y-102444975D01*
X148012652Y-102444970D01*
X147985700Y-102428346D01*
X147861738Y-102351885D01*
X147741848Y-102312158D01*
X147693427Y-102296113D01*
X147693420Y-102296112D01*
X147589553Y-102285500D01*
X146988455Y-102285500D01*
X146884574Y-102296112D01*
X146716261Y-102351885D01*
X146565347Y-102444970D01*
X146565341Y-102444975D01*
X146439975Y-102570341D01*
X146439970Y-102570347D01*
X146346885Y-102721262D01*
X146291113Y-102889572D01*
X146291112Y-102889579D01*
X146280500Y-102993446D01*
X146280500Y-105294544D01*
X143347500Y-105294544D01*
X143347499Y-102993456D01*
X143347342Y-102991924D01*
X143336887Y-102889574D01*
X143336886Y-102889572D01*
X143281115Y-102721262D01*
X143188030Y-102570348D01*
X143188029Y-102570347D01*
X143188024Y-102570341D01*
X143062658Y-102444975D01*
X143062652Y-102444970D01*
X143035700Y-102428346D01*
X142911738Y-102351885D01*
X142791848Y-102312158D01*
X142743427Y-102296113D01*
X142743420Y-102296112D01*
X142639553Y-102285500D01*
X142038455Y-102285500D01*
X141934574Y-102296112D01*
X141766261Y-102351885D01*
X141615347Y-102444970D01*
X141615341Y-102444975D01*
X141489975Y-102570341D01*
X141489970Y-102570347D01*
X141396885Y-102721262D01*
X141341113Y-102889572D01*
X141341112Y-102889579D01*
X141330500Y-102993446D01*
X141330500Y-105294544D01*
X140795461Y-105294544D01*
X140848814Y-105194727D01*
X140906024Y-105006132D01*
X140911367Y-104951881D01*
X140925341Y-104810003D01*
X140925341Y-104809996D01*
X140906025Y-104613875D01*
X140906025Y-104613873D01*
X140906024Y-104613870D01*
X140906024Y-104613868D01*
X140848814Y-104425273D01*
X140755910Y-104251462D01*
X140630883Y-104099117D01*
X140478538Y-103974090D01*
X140386845Y-103925079D01*
X140304728Y-103881186D01*
X140116125Y-103823974D01*
X139920003Y-103804659D01*
X139919997Y-103804659D01*
X139723875Y-103823974D01*
X139723873Y-103823974D01*
X139535271Y-103881186D01*
X139361461Y-103974090D01*
X139209117Y-104099117D01*
X139084090Y-104251461D01*
X138991186Y-104425271D01*
X138933974Y-104613873D01*
X138933974Y-104613875D01*
X138914659Y-104809996D01*
X138914659Y-104810003D01*
X131785983Y-104810003D01*
X131709353Y-104659608D01*
X131703997Y-104647576D01*
X131597715Y-104370703D01*
X131593640Y-104358162D01*
X131516881Y-104071693D01*
X131514139Y-104058793D01*
X131502142Y-103983048D01*
X131467743Y-103765867D01*
X131466366Y-103752751D01*
X131466046Y-103746654D01*
X131450673Y-103453301D01*
X131450500Y-103446707D01*
X131450500Y-103066124D01*
X133434500Y-103066124D01*
X133458773Y-103219380D01*
X133470832Y-103295518D01*
X133541627Y-103513403D01*
X133542600Y-103516396D01*
X133648039Y-103723331D01*
X133784551Y-103911224D01*
X133784553Y-103911226D01*
X133784555Y-103911229D01*
X133948770Y-104075444D01*
X133948773Y-104075446D01*
X133948776Y-104075449D01*
X134136669Y-104211961D01*
X134343604Y-104317400D01*
X134564486Y-104389169D01*
X134793876Y-104425500D01*
X134793878Y-104425500D01*
X135026122Y-104425500D01*
X135026124Y-104425500D01*
X135255514Y-104389169D01*
X135476396Y-104317400D01*
X135683331Y-104211961D01*
X135871224Y-104075449D01*
X136035449Y-103911224D01*
X136171961Y-103723331D01*
X136277400Y-103516396D01*
X136349169Y-103295514D01*
X136385500Y-103066124D01*
X136385500Y-102833876D01*
X136349169Y-102604486D01*
X136277400Y-102383604D01*
X136171961Y-102176669D01*
X136035449Y-101988776D01*
X136035446Y-101988773D01*
X136035444Y-101988770D01*
X135871229Y-101824555D01*
X135871226Y-101824553D01*
X135871224Y-101824551D01*
X135683331Y-101688039D01*
X135476396Y-101582600D01*
X135476393Y-101582599D01*
X135476391Y-101582598D01*
X135255518Y-101510832D01*
X135255516Y-101510831D01*
X135255514Y-101510831D01*
X135026124Y-101474500D01*
X134793876Y-101474500D01*
X134564486Y-101510831D01*
X134564484Y-101510831D01*
X134564481Y-101510832D01*
X134343608Y-101582598D01*
X134343602Y-101582601D01*
X134136665Y-101688041D01*
X133948773Y-101824553D01*
X133948770Y-101824555D01*
X133784555Y-101988770D01*
X133784553Y-101988773D01*
X133648041Y-102176665D01*
X133542601Y-102383602D01*
X133542598Y-102383608D01*
X133470832Y-102604481D01*
X133470831Y-102604484D01*
X133470831Y-102604486D01*
X133434500Y-102833876D01*
X133434500Y-103066124D01*
X131450500Y-103066124D01*
X131450500Y-98306215D01*
X131470502Y-98238094D01*
X131524158Y-98191601D01*
X131594432Y-98181497D01*
X131620526Y-98188157D01*
X131630799Y-98191989D01*
X131630803Y-98191989D01*
X131630805Y-98191990D01*
X131630803Y-98191990D01*
X131691350Y-98198499D01*
X131691355Y-98198499D01*
X131691362Y-98198500D01*
X131691368Y-98198500D01*
X132531452Y-98198500D01*
X132599573Y-98218502D01*
X132646066Y-98272158D01*
X132656170Y-98342432D01*
X132626676Y-98407012D01*
X132590848Y-98435622D01*
X132481461Y-98494090D01*
X132329117Y-98619117D01*
X132204090Y-98771461D01*
X132111186Y-98945271D01*
X132053974Y-99133873D01*
X132053974Y-99133875D01*
X132034659Y-99329996D01*
X132034659Y-99330003D01*
X132053974Y-99526124D01*
X132053974Y-99526126D01*
X132111186Y-99714728D01*
X132149234Y-99785910D01*
X132204090Y-99888538D01*
X132329117Y-100040883D01*
X132481462Y-100165910D01*
X132655273Y-100258814D01*
X132843868Y-100316024D01*
X132843872Y-100316024D01*
X132843874Y-100316025D01*
X133039997Y-100335341D01*
X133040000Y-100335341D01*
X133040003Y-100335341D01*
X133236124Y-100316025D01*
X133236126Y-100316025D01*
X133236127Y-100316024D01*
X133236132Y-100316024D01*
X133424727Y-100258814D01*
X133598538Y-100165910D01*
X133750883Y-100040883D01*
X133875910Y-99888538D01*
X133968814Y-99714727D01*
X134026024Y-99526132D01*
X134027284Y-99513342D01*
X134045341Y-99330003D01*
X134045341Y-99329996D01*
X134026025Y-99133875D01*
X134026025Y-99133873D01*
X134026024Y-99133870D01*
X134026024Y-99133868D01*
X133968814Y-98945273D01*
X133875910Y-98771462D01*
X133773940Y-98647212D01*
X143221500Y-98647212D01*
X143231937Y-98749380D01*
X143241817Y-98779196D01*
X143286791Y-98914920D01*
X143378342Y-99063346D01*
X143427462Y-99112466D01*
X143461486Y-99174776D01*
X143457295Y-99243175D01*
X143417683Y-99356382D01*
X143416783Y-99358953D01*
X143396384Y-99540000D01*
X143416783Y-99721047D01*
X143416783Y-99721049D01*
X143416784Y-99721050D01*
X143459303Y-99842563D01*
X143462922Y-99913467D01*
X143448829Y-99948315D01*
X143429853Y-99980402D01*
X143383438Y-100140167D01*
X143383437Y-100140171D01*
X143380500Y-100177488D01*
X143380500Y-101710511D01*
X143383437Y-101747828D01*
X143383437Y-101747829D01*
X143429856Y-101907605D01*
X143514544Y-102050803D01*
X143514549Y-102050810D01*
X143632189Y-102168450D01*
X143632196Y-102168455D01*
X143775394Y-102253143D01*
X143775397Y-102253143D01*
X143775399Y-102253145D01*
X143935169Y-102299562D01*
X143972488Y-102302499D01*
X143972489Y-102302500D01*
X143972498Y-102302500D01*
X144405511Y-102302500D01*
X144405511Y-102302499D01*
X144442831Y-102299562D01*
X144602601Y-102253145D01*
X144745807Y-102168453D01*
X144745807Y-102168452D01*
X144749860Y-102166056D01*
X144818677Y-102148596D01*
X144878140Y-102166056D01*
X144882192Y-102168452D01*
X144882193Y-102168453D01*
X145025399Y-102253145D01*
X145185169Y-102299562D01*
X145222488Y-102302499D01*
X145222489Y-102302500D01*
X145222498Y-102302500D01*
X145655511Y-102302500D01*
X145655511Y-102302499D01*
X145692831Y-102299562D01*
X145852601Y-102253145D01*
X145852603Y-102253143D01*
X145852605Y-102253143D01*
X145944505Y-102198793D01*
X145995807Y-102168453D01*
X146113453Y-102050807D01*
X146178982Y-101940004D01*
X146198143Y-101907605D01*
X146198143Y-101907603D01*
X146198145Y-101907601D01*
X146244562Y-101747831D01*
X146247499Y-101710511D01*
X146247500Y-101710511D01*
X146247500Y-101710000D01*
X160556384Y-101710000D01*
X160576783Y-101891047D01*
X160576783Y-101891049D01*
X160576784Y-101891050D01*
X160636957Y-102063015D01*
X160636958Y-102063018D01*
X160733887Y-102217279D01*
X160733888Y-102217281D01*
X160862718Y-102346111D01*
X160862720Y-102346112D01*
X161016981Y-102443041D01*
X161016982Y-102443041D01*
X161016985Y-102443043D01*
X161188953Y-102503217D01*
X161370000Y-102523616D01*
X161551047Y-102503217D01*
X161577927Y-102493810D01*
X161648830Y-102490190D01*
X161708639Y-102523644D01*
X161736647Y-102551652D01*
X161736653Y-102551657D01*
X161736654Y-102551658D01*
X161885080Y-102643209D01*
X162050619Y-102698062D01*
X162152787Y-102708500D01*
X162727212Y-102708499D01*
X162829381Y-102698062D01*
X162994920Y-102643209D01*
X163143346Y-102551658D01*
X163266658Y-102428346D01*
X163358209Y-102279920D01*
X163413062Y-102114381D01*
X163423500Y-102012213D01*
X163423499Y-101412788D01*
X163423367Y-101411500D01*
X163413062Y-101310619D01*
X163382424Y-101218158D01*
X163358209Y-101145080D01*
X163357851Y-101144500D01*
X163305378Y-101059428D01*
X163286640Y-100990949D01*
X163307899Y-100923210D01*
X163362406Y-100877718D01*
X163432855Y-100868917D01*
X163496879Y-100899600D01*
X163513486Y-100917771D01*
X163574597Y-100999405D01*
X163691534Y-101086944D01*
X163828406Y-101137994D01*
X163888902Y-101144499D01*
X163888915Y-101144500D01*
X165246000Y-101144500D01*
X165246000Y-100024000D01*
X163465999Y-100024000D01*
X163462467Y-100027531D01*
X163445998Y-100083621D01*
X163392342Y-100130114D01*
X163340000Y-100141500D01*
X161457000Y-100141500D01*
X161457000Y-100187184D01*
X161467430Y-100289273D01*
X161467431Y-100289276D01*
X161522248Y-100454707D01*
X161613737Y-100603033D01*
X161613742Y-100603039D01*
X161721253Y-100710550D01*
X161755279Y-100772862D01*
X161750214Y-100843677D01*
X161721258Y-100888735D01*
X161712348Y-100897646D01*
X161650038Y-100931675D01*
X161581635Y-100927486D01*
X161560012Y-100919920D01*
X161551047Y-100916783D01*
X161370000Y-100896384D01*
X161188953Y-100916783D01*
X161188950Y-100916783D01*
X161188949Y-100916784D01*
X161016984Y-100976957D01*
X161016981Y-100976958D01*
X160862720Y-101073887D01*
X160862718Y-101073888D01*
X160733888Y-101202718D01*
X160733887Y-101202720D01*
X160636958Y-101356981D01*
X160636957Y-101356984D01*
X160576808Y-101528882D01*
X160576783Y-101528953D01*
X160556384Y-101710000D01*
X146247500Y-101710000D01*
X146247500Y-101048239D01*
X146267502Y-100980118D01*
X146284400Y-100959148D01*
X146536921Y-100706628D01*
X146567838Y-100653078D01*
X146617032Y-100567872D01*
X146658500Y-100413111D01*
X146658500Y-99633500D01*
X161457000Y-99633500D01*
X162186000Y-99633500D01*
X162694000Y-99633500D01*
X163386501Y-99633500D01*
X163390032Y-99629968D01*
X163406502Y-99573879D01*
X163460158Y-99527386D01*
X163512500Y-99516000D01*
X165246000Y-99516000D01*
X165246000Y-98395500D01*
X163888902Y-98395500D01*
X163828406Y-98402005D01*
X163691535Y-98453055D01*
X163691534Y-98453055D01*
X163574595Y-98540595D01*
X163487055Y-98657534D01*
X163487055Y-98657535D01*
X163436005Y-98794406D01*
X163429500Y-98854902D01*
X163429500Y-99031013D01*
X163409498Y-99099134D01*
X163355842Y-99145627D01*
X163285568Y-99155731D01*
X163220988Y-99126237D01*
X163214405Y-99120108D01*
X163143039Y-99048742D01*
X163143033Y-99048737D01*
X162994707Y-98957248D01*
X162829276Y-98902431D01*
X162829273Y-98902430D01*
X162727184Y-98892000D01*
X162694000Y-98892000D01*
X162694000Y-99633500D01*
X162186000Y-99633500D01*
X162186000Y-98892000D01*
X162152815Y-98892000D01*
X162050726Y-98902430D01*
X162050723Y-98902431D01*
X161885292Y-98957248D01*
X161736966Y-99048737D01*
X161736960Y-99048742D01*
X161613742Y-99171960D01*
X161613737Y-99171966D01*
X161522248Y-99320292D01*
X161467431Y-99485723D01*
X161467430Y-99485726D01*
X161457000Y-99587815D01*
X161457000Y-99633500D01*
X146658500Y-99633500D01*
X146658500Y-99318566D01*
X146678502Y-99250445D01*
X146718352Y-99211326D01*
X146758346Y-99186658D01*
X146881658Y-99063346D01*
X146973209Y-98914920D01*
X147028062Y-98749381D01*
X147038500Y-98647213D01*
X147038499Y-98072788D01*
X147028062Y-97970619D01*
X146973209Y-97805080D01*
X146881658Y-97656654D01*
X146881657Y-97656653D01*
X146881652Y-97656647D01*
X146758346Y-97533341D01*
X146710852Y-97504046D01*
X146663374Y-97451260D01*
X146651000Y-97396806D01*
X146651000Y-97195993D01*
X146671002Y-97127872D01*
X146678499Y-97117421D01*
X146678604Y-97117287D01*
X146678611Y-97117281D01*
X146775543Y-96963015D01*
X146835717Y-96791047D01*
X146856116Y-96610000D01*
X146841074Y-96476505D01*
X146853323Y-96406578D01*
X146901435Y-96354370D01*
X146935545Y-96340943D01*
X146935510Y-96340834D01*
X146937310Y-96340249D01*
X146940090Y-96339154D01*
X146941788Y-96338794D01*
X147116252Y-96261118D01*
X147270753Y-96148866D01*
X147277510Y-96141362D01*
X147398534Y-96006951D01*
X147398535Y-96006949D01*
X147398540Y-96006944D01*
X147494027Y-95841556D01*
X147553042Y-95659928D01*
X147573004Y-95470000D01*
X147553042Y-95280072D01*
X147537491Y-95232212D01*
X148056500Y-95232212D01*
X148066937Y-95334380D01*
X148121791Y-95499920D01*
X148213342Y-95648346D01*
X148213347Y-95648352D01*
X148336647Y-95771652D01*
X148336653Y-95771657D01*
X148336654Y-95771658D01*
X148485080Y-95863209D01*
X148650619Y-95918062D01*
X148752787Y-95928500D01*
X148885189Y-95928499D01*
X148953309Y-95948501D01*
X148994307Y-95991498D01*
X149012955Y-96023797D01*
X149060958Y-96106941D01*
X149060965Y-96106951D01*
X149188744Y-96248864D01*
X149188747Y-96248866D01*
X149343248Y-96361118D01*
X149517712Y-96438794D01*
X149704513Y-96478500D01*
X149895487Y-96478500D01*
X150082288Y-96438794D01*
X150256752Y-96361118D01*
X150411253Y-96248866D01*
X150436018Y-96221362D01*
X150539034Y-96106951D01*
X150539035Y-96106949D01*
X150539040Y-96106944D01*
X150634527Y-95941556D01*
X150693542Y-95759928D01*
X150713504Y-95570000D01*
X150693542Y-95380072D01*
X150634527Y-95198444D01*
X150539040Y-95033056D01*
X150539038Y-95033054D01*
X150539034Y-95033048D01*
X150411255Y-94891135D01*
X150256752Y-94778882D01*
X150207159Y-94756802D01*
X150094700Y-94706732D01*
X150040605Y-94660753D01*
X150020602Y-94604430D01*
X150013062Y-94530620D01*
X150013062Y-94530619D01*
X149958209Y-94365080D01*
X149866658Y-94216654D01*
X149866657Y-94216653D01*
X149866652Y-94216647D01*
X149758746Y-94108741D01*
X149724720Y-94046429D01*
X149729785Y-93975614D01*
X149758746Y-93930551D01*
X149866257Y-93823039D01*
X149866262Y-93823033D01*
X149957751Y-93674707D01*
X150012568Y-93509276D01*
X150012569Y-93509273D01*
X150022999Y-93407184D01*
X150023000Y-93407184D01*
X150023000Y-93361500D01*
X148057000Y-93361500D01*
X148057000Y-93407184D01*
X148067430Y-93509273D01*
X148067431Y-93509276D01*
X148122248Y-93674707D01*
X148213737Y-93823033D01*
X148213742Y-93823039D01*
X148321254Y-93930551D01*
X148355280Y-93992863D01*
X148350215Y-94063678D01*
X148321254Y-94108741D01*
X148213347Y-94216647D01*
X148213342Y-94216653D01*
X148121791Y-94365080D01*
X148066937Y-94530622D01*
X148056500Y-94632778D01*
X148056500Y-95232212D01*
X147537491Y-95232212D01*
X147494027Y-95098444D01*
X147398540Y-94933056D01*
X147398538Y-94933054D01*
X147398534Y-94933048D01*
X147270755Y-94791135D01*
X147265848Y-94786717D01*
X147267755Y-94784598D01*
X147232054Y-94738237D01*
X147223499Y-94692601D01*
X147223499Y-94312787D01*
X147213062Y-94210619D01*
X147196325Y-94160110D01*
X147158209Y-94045080D01*
X147066658Y-93896654D01*
X147066657Y-93896653D01*
X147066652Y-93896647D01*
X146958746Y-93788741D01*
X146924720Y-93726429D01*
X146929785Y-93655614D01*
X146958746Y-93610551D01*
X147066257Y-93503039D01*
X147066262Y-93503033D01*
X147157751Y-93354707D01*
X147212568Y-93189276D01*
X147212569Y-93189273D01*
X147222999Y-93087184D01*
X147223000Y-93087184D01*
X147223000Y-93041500D01*
X145313691Y-93041500D01*
X145245570Y-93021498D01*
X145224596Y-93004595D01*
X145214001Y-92994000D01*
X144854000Y-92994000D01*
X144854000Y-93748000D01*
X144923585Y-93748000D01*
X144923597Y-93747999D01*
X144984093Y-93741494D01*
X145120964Y-93690444D01*
X145120965Y-93690444D01*
X145237904Y-93602904D01*
X145268794Y-93561640D01*
X145325629Y-93519093D01*
X145396445Y-93514028D01*
X145458757Y-93548053D01*
X145458757Y-93548054D01*
X145521254Y-93610551D01*
X145555280Y-93672863D01*
X145550215Y-93743678D01*
X145521254Y-93788741D01*
X145413347Y-93896647D01*
X145413342Y-93896653D01*
X145321791Y-94045080D01*
X145266937Y-94210622D01*
X145256500Y-94312778D01*
X145256500Y-94912212D01*
X145266937Y-95014380D01*
X145321791Y-95179920D01*
X145413342Y-95328346D01*
X145413347Y-95328352D01*
X145536647Y-95451652D01*
X145536653Y-95451657D01*
X145536654Y-95451658D01*
X145685080Y-95543209D01*
X145685081Y-95543209D01*
X145685084Y-95543211D01*
X145691732Y-95546311D01*
X145690424Y-95549115D01*
X145737335Y-95581575D01*
X145764610Y-95647123D01*
X145764663Y-95647620D01*
X145765956Y-95659923D01*
X145765957Y-95659927D01*
X145783396Y-95713599D01*
X145785423Y-95784567D01*
X145748761Y-95845365D01*
X145705185Y-95871462D01*
X145689484Y-95876956D01*
X145535220Y-95973887D01*
X145535218Y-95973888D01*
X145406388Y-96102718D01*
X145406387Y-96102720D01*
X145309458Y-96256981D01*
X145309457Y-96256984D01*
X145249984Y-96426951D01*
X145249283Y-96428953D01*
X145228884Y-96610000D01*
X145249283Y-96791047D01*
X145249283Y-96791049D01*
X145249284Y-96791050D01*
X145309457Y-96963015D01*
X145309458Y-96963018D01*
X145406383Y-97117273D01*
X145406501Y-97117421D01*
X145406547Y-97117534D01*
X145410153Y-97123273D01*
X145409148Y-97123904D01*
X145433344Y-97183148D01*
X145434000Y-97195993D01*
X145434000Y-97396806D01*
X145413998Y-97464927D01*
X145374148Y-97504046D01*
X145326653Y-97533341D01*
X145219095Y-97640900D01*
X145156783Y-97674926D01*
X145085968Y-97669861D01*
X145040905Y-97640900D01*
X144933352Y-97533347D01*
X144933346Y-97533342D01*
X144885850Y-97504046D01*
X144784920Y-97441791D01*
X144619381Y-97386938D01*
X144619379Y-97386937D01*
X144619377Y-97386937D01*
X144517221Y-97376500D01*
X143917787Y-97376500D01*
X143815619Y-97386937D01*
X143650079Y-97441791D01*
X143501653Y-97533342D01*
X143501647Y-97533347D01*
X143378347Y-97656647D01*
X143378342Y-97656653D01*
X143286791Y-97805080D01*
X143231937Y-97970622D01*
X143221500Y-98072778D01*
X143221500Y-98647212D01*
X133773940Y-98647212D01*
X133750883Y-98619117D01*
X133598538Y-98494090D01*
X133489151Y-98435621D01*
X133438504Y-98385870D01*
X133422794Y-98316633D01*
X133447010Y-98249894D01*
X133503464Y-98206842D01*
X133548548Y-98198500D01*
X135188632Y-98198500D01*
X135188638Y-98198500D01*
X135188645Y-98198499D01*
X135188649Y-98198499D01*
X135249196Y-98191990D01*
X135249199Y-98191989D01*
X135249201Y-98191989D01*
X135250242Y-98191601D01*
X135277331Y-98181497D01*
X135386204Y-98140889D01*
X135503261Y-98053261D01*
X135590889Y-97936204D01*
X135641989Y-97799201D01*
X135644984Y-97771350D01*
X135648499Y-97738649D01*
X135648500Y-97738632D01*
X135648500Y-96141367D01*
X135648499Y-96141350D01*
X135641990Y-96080803D01*
X135641988Y-96080795D01*
X135590889Y-95943797D01*
X135590887Y-95943792D01*
X135503261Y-95826738D01*
X135386207Y-95739112D01*
X135386202Y-95739110D01*
X135249204Y-95688011D01*
X135249196Y-95688009D01*
X135188649Y-95681500D01*
X135188638Y-95681500D01*
X131691362Y-95681500D01*
X131691350Y-95681500D01*
X131630803Y-95688009D01*
X131630800Y-95688010D01*
X131620530Y-95691841D01*
X131549714Y-95696904D01*
X131487402Y-95662877D01*
X131453379Y-95600564D01*
X131450500Y-95573784D01*
X131450500Y-91606215D01*
X131470502Y-91538094D01*
X131524158Y-91491601D01*
X131594432Y-91481497D01*
X131620526Y-91488157D01*
X131630799Y-91491989D01*
X131630803Y-91491989D01*
X131630805Y-91491990D01*
X131630803Y-91491990D01*
X131691350Y-91498499D01*
X131691355Y-91498499D01*
X131691362Y-91498500D01*
X131691368Y-91498500D01*
X135188632Y-91498500D01*
X135188638Y-91498500D01*
X135188645Y-91498499D01*
X135188649Y-91498499D01*
X135249196Y-91491990D01*
X135249199Y-91491989D01*
X135249201Y-91491989D01*
X135250242Y-91491601D01*
X135286275Y-91478161D01*
X135386204Y-91440889D01*
X135503261Y-91353261D01*
X135578906Y-91252212D01*
X135590887Y-91236207D01*
X135590887Y-91236206D01*
X135590889Y-91236204D01*
X135641989Y-91099201D01*
X135646371Y-91058447D01*
X135648499Y-91038649D01*
X135648500Y-91038632D01*
X135648500Y-89441367D01*
X135648499Y-89441350D01*
X135641990Y-89380803D01*
X135641988Y-89380795D01*
X135590889Y-89243797D01*
X135590887Y-89243792D01*
X135503261Y-89126738D01*
X135386207Y-89039112D01*
X135386202Y-89039110D01*
X135249204Y-88988011D01*
X135249196Y-88988009D01*
X135188649Y-88981500D01*
X135188638Y-88981500D01*
X131691362Y-88981500D01*
X131691350Y-88981500D01*
X131630803Y-88988009D01*
X131630800Y-88988010D01*
X131620530Y-88991841D01*
X131549714Y-88996904D01*
X131487402Y-88962877D01*
X131453379Y-88900564D01*
X131450500Y-88873784D01*
X131450500Y-79453292D01*
X131450673Y-79446698D01*
X131455767Y-79349499D01*
X131466366Y-79147245D01*
X131467744Y-79134131D01*
X131468478Y-79129500D01*
X131514139Y-78841202D01*
X131516881Y-78828306D01*
X131529931Y-78779602D01*
X131593642Y-78541830D01*
X131597716Y-78529294D01*
X131703999Y-78252416D01*
X131709349Y-78240398D01*
X131844008Y-77976117D01*
X131850589Y-77964719D01*
X132012125Y-77715975D01*
X132019865Y-77705323D01*
X132206516Y-77474827D01*
X132215322Y-77465048D01*
X132425048Y-77255322D01*
X132434827Y-77246516D01*
X132665323Y-77059865D01*
X132675975Y-77052125D01*
X132924719Y-76890589D01*
X132936117Y-76884008D01*
X133191083Y-76754096D01*
X133260857Y-76740993D01*
X133326641Y-76767693D01*
X133367548Y-76825720D01*
X133370589Y-76896652D01*
X133349152Y-76941872D01*
X133269112Y-77048793D01*
X133269110Y-77048797D01*
X133218011Y-77185795D01*
X133218009Y-77185803D01*
X133211500Y-77246350D01*
X133211500Y-77741082D01*
X133191498Y-77809203D01*
X133137842Y-77855696D01*
X133111698Y-77864328D01*
X132938213Y-77901204D01*
X132763745Y-77978882D01*
X132609242Y-78091135D01*
X132481463Y-78233048D01*
X132481456Y-78233058D01*
X132385974Y-78398438D01*
X132385971Y-78398444D01*
X132377792Y-78423616D01*
X132326955Y-78580072D01*
X132306994Y-78770000D01*
X132326955Y-78959927D01*
X132346984Y-79021568D01*
X132385971Y-79141556D01*
X132385974Y-79141561D01*
X132481456Y-79306941D01*
X132481463Y-79306951D01*
X132609242Y-79448864D01*
X132632704Y-79465910D01*
X132763746Y-79561118D01*
X132938210Y-79638794D01*
X133111697Y-79675670D01*
X133174170Y-79709399D01*
X133208492Y-79771548D01*
X133211500Y-79798917D01*
X133211500Y-80393649D01*
X133218009Y-80454196D01*
X133218011Y-80454204D01*
X133269110Y-80591202D01*
X133269112Y-80591207D01*
X133356738Y-80708261D01*
X133473792Y-80795887D01*
X133473794Y-80795888D01*
X133473796Y-80795889D01*
X133496883Y-80804500D01*
X133610795Y-80846988D01*
X133610803Y-80846990D01*
X133671350Y-80853499D01*
X133671355Y-80853499D01*
X133671362Y-80853500D01*
X133671368Y-80853500D01*
X135148918Y-80853500D01*
X135217039Y-80873502D01*
X135263532Y-80927158D01*
X135273636Y-80997432D01*
X135244142Y-81062012D01*
X135238013Y-81068595D01*
X134742013Y-81564595D01*
X134679701Y-81598621D01*
X134652918Y-81601500D01*
X134116350Y-81601500D01*
X134055803Y-81608009D01*
X134055795Y-81608011D01*
X133918797Y-81659110D01*
X133918792Y-81659112D01*
X133801738Y-81746738D01*
X133714112Y-81863792D01*
X133714110Y-81863797D01*
X133663011Y-82000795D01*
X133663009Y-82000803D01*
X133656500Y-82061350D01*
X133656500Y-82392275D01*
X133654079Y-82416856D01*
X133631500Y-82530364D01*
X133631500Y-82689632D01*
X133635329Y-82708882D01*
X133646468Y-82764882D01*
X133654079Y-82803141D01*
X133656500Y-82827723D01*
X133656500Y-83158649D01*
X133663009Y-83219196D01*
X133663011Y-83219204D01*
X133714110Y-83356202D01*
X133714112Y-83356207D01*
X133801738Y-83473261D01*
X133918792Y-83560887D01*
X133918794Y-83560888D01*
X133918796Y-83560889D01*
X133953307Y-83573761D01*
X134055795Y-83611988D01*
X134055803Y-83611990D01*
X134116350Y-83618499D01*
X134116355Y-83618499D01*
X134116362Y-83618500D01*
X134116368Y-83618500D01*
X134763632Y-83618500D01*
X134763638Y-83618500D01*
X134763645Y-83618499D01*
X134763649Y-83618499D01*
X134824196Y-83611990D01*
X134824199Y-83611989D01*
X134824201Y-83611989D01*
X134833202Y-83608632D01*
X134880112Y-83591135D01*
X134961204Y-83560889D01*
X135078261Y-83473261D01*
X135151768Y-83375066D01*
X135204421Y-83334166D01*
X135206586Y-83333268D01*
X135222968Y-83326484D01*
X135355389Y-83238003D01*
X135355400Y-83237991D01*
X135360168Y-83234080D01*
X135361937Y-83236235D01*
X135413717Y-83207961D01*
X135484532Y-83213026D01*
X135541368Y-83255573D01*
X135566179Y-83322093D01*
X135566500Y-83331082D01*
X135566500Y-83608649D01*
X135573009Y-83669196D01*
X135573011Y-83669204D01*
X135624110Y-83806202D01*
X135624112Y-83806207D01*
X135711738Y-83923261D01*
X135828792Y-84010887D01*
X135828794Y-84010888D01*
X135828796Y-84010889D01*
X135887875Y-84032924D01*
X135965795Y-84061988D01*
X135965803Y-84061990D01*
X136026350Y-84068499D01*
X136026355Y-84068499D01*
X136026362Y-84068500D01*
X136026368Y-84068500D01*
X137073632Y-84068500D01*
X137073638Y-84068500D01*
X137073645Y-84068499D01*
X137073649Y-84068499D01*
X137134196Y-84061990D01*
X137134199Y-84061989D01*
X137134201Y-84061989D01*
X137271204Y-84010889D01*
X137290342Y-83996563D01*
X137388261Y-83923261D01*
X137475887Y-83806207D01*
X137475887Y-83806206D01*
X137475889Y-83806204D01*
X137526989Y-83669201D01*
X137532676Y-83616308D01*
X137533499Y-83608649D01*
X137533500Y-83608632D01*
X137533500Y-83122211D01*
X137553502Y-83054090D01*
X137607158Y-83007597D01*
X137633303Y-82998964D01*
X137635486Y-82998500D01*
X137635487Y-82998500D01*
X137822288Y-82958794D01*
X137996752Y-82881118D01*
X138151253Y-82768866D01*
X138159401Y-82759817D01*
X138246864Y-82662680D01*
X138307310Y-82625440D01*
X138378293Y-82626792D01*
X138437278Y-82666305D01*
X138465536Y-82731436D01*
X138466500Y-82746990D01*
X138466500Y-83728649D01*
X138473009Y-83789196D01*
X138473011Y-83789204D01*
X138524110Y-83926202D01*
X138524112Y-83926207D01*
X138611738Y-84043261D01*
X138728792Y-84130887D01*
X138728794Y-84130888D01*
X138728796Y-84130889D01*
X138743990Y-84136556D01*
X138865795Y-84181988D01*
X138865803Y-84181990D01*
X138926350Y-84188499D01*
X138926355Y-84188499D01*
X138926362Y-84188500D01*
X138926368Y-84188500D01*
X140293632Y-84188500D01*
X140293638Y-84188500D01*
X140293645Y-84188499D01*
X140293649Y-84188499D01*
X140354196Y-84181990D01*
X140354199Y-84181989D01*
X140354201Y-84181989D01*
X140491204Y-84130889D01*
X140548054Y-84088332D01*
X140608261Y-84043261D01*
X140695887Y-83926207D01*
X140695887Y-83926206D01*
X140695889Y-83926204D01*
X140743868Y-83797568D01*
X140746988Y-83789204D01*
X140746990Y-83789196D01*
X140753499Y-83728649D01*
X140753500Y-83728632D01*
X140753500Y-81951367D01*
X140753499Y-81951350D01*
X140746990Y-81890803D01*
X140746988Y-81890795D01*
X140695889Y-81753797D01*
X140695887Y-81753792D01*
X140608261Y-81636738D01*
X140491207Y-81549112D01*
X140491202Y-81549110D01*
X140354204Y-81498011D01*
X140354196Y-81498009D01*
X140308032Y-81493047D01*
X140242440Y-81465878D01*
X140201948Y-81407561D01*
X140195500Y-81367769D01*
X140195500Y-81312918D01*
X140171817Y-81224532D01*
X140155599Y-81164006D01*
X140109239Y-81083708D01*
X140092501Y-81014712D01*
X140115722Y-80947621D01*
X140171529Y-80903734D01*
X140242204Y-80896985D01*
X140288358Y-80915942D01*
X140410822Y-80997770D01*
X140591082Y-81072436D01*
X140782444Y-81110500D01*
X140782445Y-81110500D01*
X140977555Y-81110500D01*
X140977556Y-81110500D01*
X141168918Y-81072436D01*
X141349178Y-80997770D01*
X141471642Y-80915941D01*
X141539391Y-80894728D01*
X141607858Y-80913511D01*
X141655302Y-80966328D01*
X141666659Y-81036410D01*
X141650761Y-81083707D01*
X141604402Y-81164005D01*
X141604401Y-81164006D01*
X141589631Y-81219130D01*
X141564500Y-81312918D01*
X141564500Y-81367769D01*
X141544498Y-81435890D01*
X141490842Y-81482383D01*
X141451968Y-81493047D01*
X141405803Y-81498009D01*
X141405795Y-81498011D01*
X141268797Y-81549110D01*
X141268792Y-81549112D01*
X141151738Y-81636738D01*
X141064112Y-81753792D01*
X141064110Y-81753797D01*
X141013011Y-81890795D01*
X141013009Y-81890803D01*
X141006500Y-81951350D01*
X141006500Y-83728649D01*
X141013009Y-83789196D01*
X141013011Y-83789204D01*
X141064110Y-83926202D01*
X141064112Y-83926207D01*
X141151738Y-84043261D01*
X141268792Y-84130887D01*
X141268794Y-84130888D01*
X141268796Y-84130889D01*
X141283990Y-84136556D01*
X141405795Y-84181988D01*
X141405803Y-84181990D01*
X141466350Y-84188499D01*
X141466355Y-84188499D01*
X141466362Y-84188500D01*
X141466368Y-84188500D01*
X142833632Y-84188500D01*
X142833638Y-84188500D01*
X142833645Y-84188499D01*
X142833649Y-84188499D01*
X142894196Y-84181990D01*
X142894199Y-84181989D01*
X142894201Y-84181989D01*
X143031204Y-84130889D01*
X143088054Y-84088332D01*
X143148261Y-84043261D01*
X143235887Y-83926207D01*
X143235887Y-83926206D01*
X143235889Y-83926204D01*
X143283868Y-83797568D01*
X143286988Y-83789204D01*
X143286990Y-83789196D01*
X143293499Y-83728649D01*
X143293500Y-83728632D01*
X143293500Y-81951367D01*
X143293499Y-81951350D01*
X143286990Y-81890803D01*
X143286988Y-81890795D01*
X143235889Y-81753797D01*
X143235887Y-81753792D01*
X143148261Y-81636738D01*
X143031207Y-81549112D01*
X143031202Y-81549110D01*
X142894204Y-81498011D01*
X142894196Y-81498009D01*
X142848032Y-81493047D01*
X142782440Y-81465878D01*
X142741948Y-81407561D01*
X142735500Y-81367769D01*
X142735500Y-81312918D01*
X142711817Y-81224532D01*
X142695599Y-81164006D01*
X142640513Y-81068595D01*
X142618518Y-81030498D01*
X142618510Y-81030488D01*
X142509511Y-80921489D01*
X142509501Y-80921481D01*
X142375994Y-80844401D01*
X142227083Y-80804500D01*
X142072917Y-80804500D01*
X141924006Y-80844401D01*
X141843707Y-80890761D01*
X141774711Y-80907498D01*
X141707620Y-80884277D01*
X141663733Y-80828469D01*
X141656985Y-80757794D01*
X141675941Y-80711643D01*
X141757770Y-80589178D01*
X141832436Y-80408918D01*
X141870500Y-80217556D01*
X141870500Y-80022444D01*
X141832436Y-79831082D01*
X141757770Y-79650822D01*
X141675942Y-79528358D01*
X141654728Y-79460607D01*
X141673511Y-79392140D01*
X141726328Y-79344697D01*
X141796410Y-79333340D01*
X141843708Y-79349239D01*
X141867567Y-79363014D01*
X141924006Y-79395599D01*
X142072917Y-79435500D01*
X142072919Y-79435500D01*
X142227081Y-79435500D01*
X142227083Y-79435500D01*
X142375994Y-79395599D01*
X142509505Y-79318516D01*
X142618516Y-79209505D01*
X142695599Y-79075994D01*
X142735500Y-78927083D01*
X142735500Y-78872230D01*
X142755502Y-78804109D01*
X142809158Y-78757616D01*
X142848032Y-78746952D01*
X142866790Y-78744935D01*
X142894196Y-78741990D01*
X142894199Y-78741989D01*
X142894201Y-78741989D01*
X142896459Y-78741147D01*
X142913045Y-78734960D01*
X143031204Y-78690889D01*
X143111367Y-78630880D01*
X143148261Y-78603261D01*
X143165620Y-78580072D01*
X143198299Y-78536417D01*
X143255134Y-78493871D01*
X143317800Y-78489239D01*
X143317951Y-78487810D01*
X143324513Y-78488500D01*
X143515487Y-78488500D01*
X143522049Y-78487810D01*
X143522201Y-78489262D01*
X143585402Y-78494072D01*
X143641700Y-78536417D01*
X143691738Y-78603261D01*
X143808792Y-78690887D01*
X143808794Y-78690888D01*
X143808796Y-78690889D01*
X143862857Y-78711053D01*
X143945795Y-78741988D01*
X143945803Y-78741990D01*
X143975484Y-78745180D01*
X143991967Y-78746952D01*
X144057559Y-78774119D01*
X144098051Y-78832436D01*
X144104500Y-78872230D01*
X144104500Y-78927081D01*
X144104499Y-78927081D01*
X144144401Y-79075994D01*
X144221481Y-79209501D01*
X144221489Y-79209511D01*
X144330488Y-79318510D01*
X144330493Y-79318514D01*
X144330495Y-79318516D01*
X144330496Y-79318517D01*
X144330498Y-79318518D01*
X144375842Y-79344697D01*
X144464006Y-79395599D01*
X144612917Y-79435500D01*
X144612919Y-79435500D01*
X144767081Y-79435500D01*
X144767083Y-79435500D01*
X144915994Y-79395599D01*
X145049505Y-79318516D01*
X145158516Y-79209505D01*
X145235599Y-79075994D01*
X145275500Y-78927083D01*
X145275500Y-78872230D01*
X145295502Y-78804109D01*
X145349158Y-78757616D01*
X145388032Y-78746952D01*
X145406790Y-78744935D01*
X145434196Y-78741990D01*
X145434199Y-78741989D01*
X145434201Y-78741989D01*
X145436459Y-78741147D01*
X145453045Y-78734960D01*
X145571204Y-78690889D01*
X145651367Y-78630880D01*
X145688261Y-78603261D01*
X145775887Y-78486207D01*
X145775887Y-78486206D01*
X145775889Y-78486204D01*
X145826989Y-78349201D01*
X145826989Y-78349199D01*
X145826990Y-78349196D01*
X145833499Y-78288649D01*
X145833500Y-78288632D01*
X145833500Y-76616500D01*
X145853502Y-76548379D01*
X145907158Y-76501886D01*
X145959500Y-76490500D01*
X145960500Y-76490500D01*
X146028621Y-76510502D01*
G37*
%TD.AperFunction*%
%TD*%
M02*
