M48
; DRILL file {KiCad 9.0.3} date 2025-07-24T19:54:12+0800
; FORMAT={-:-/ absolute / metric / decimal}
; #@! TF.CreationDate,2025-07-24T19:54:12+08:00
; #@! TF.GenerationSoftware,Kicad,Pcbnew,9.0.3
; #@! TF.FileFunction,NonPlated,1,2,NPTH
FMAT,2
METRIC
; #@! TA.AperFunction,NonPlated,NPTH,ComponentDrill
T1C0.970
; #@! TA.AperFunction,NonPlated,NPTH,ComponentDrill
T2C1.700
; #@! TA.AperFunction,NonPlated,NPTH,ComponentDrill
T3C1.780
; #@! TA.AperFunction,NonPlated,NPTH,ComponentDrill
T4C1.800
; #@! TA.AperFunction,NonPlated,NPTH,ComponentDrill
T5C2.750
%
G90
G05
T1
X139.61Y-78.85
X139.61Y-81.39
X142.15Y-78.85
X142.15Y-81.39
X144.69Y-78.85
X144.69Y-81.39
X147.23Y-78.85
X147.23Y-81.39
X149.77Y-78.85
X149.77Y-81.39
X152.31Y-78.85
X152.31Y-81.39
X154.85Y-78.85
X154.85Y-81.39
X157.39Y-78.85
X157.39Y-81.39
X159.93Y-78.85
X159.93Y-81.39
X162.47Y-78.85
X162.47Y-81.39
X165.01Y-78.85
X165.01Y-81.39
X167.55Y-78.85
X167.55Y-81.39
X170.09Y-78.85
X170.09Y-81.39
X172.63Y-78.85
X172.63Y-81.39
X175.17Y-78.85
X175.17Y-81.39
X177.71Y-78.85
X177.71Y-81.39
X180.25Y-78.85
X180.25Y-81.39
X182.79Y-78.85
X182.79Y-81.39
X185.33Y-78.85
X185.33Y-81.39
X187.87Y-78.85
X187.87Y-81.39
T2
X191.2Y-91.77
T3
X140.88Y-80.12
X186.6Y-80.12
T4
X186.7Y-91.77
T5
X134.91Y-102.95
X192.91Y-102.95
M30
