M48
; DRILL file {KiCad 7.0.10} date Wed Jan 17 09:49:47 2024
; FORMAT={-:-/ absolute / inch / decimal}
; #@! TF.CreationDate,2024-01-17T09:49:47+08:00
; #@! TF.GenerationSoftware,Kicad,Pcbnew,7.0.10
; #@! TF.FileFunction,Plated,1,2,PTH
FMAT,2
INCH
; #@! TA.AperFunction,Plated,PTH,ComponentDrill
T1C0.0079
; #@! TA.AperFunction,Plated,PTH,ViaDrill
T2C0.0118
; #@! TA.AperFunction,Plated,PTH,ViaDrill
T3C0.0157
%
G90
G05
T1
X6.7126Y-3.6073
X6.7126Y-3.653
X6.7354Y-3.6301
X6.7583Y-3.6073
X6.7583Y-3.653
T2
X6.2531Y-4.4909
X6.2827Y-4.1118
X6.3681Y-3.4362
X6.4835Y-3.5084
X6.502Y-4.026
X6.6138Y-3.915
X6.827Y-3.6762
X6.8713Y-3.7395
X6.9437Y-3.7378
X7.0244Y-4.4059
X7.2039Y-5.2154
X7.2315Y-4.6055
X7.2319Y-4.1114
X7.2331Y-4.8055
X7.2398Y-3.8134
T3
X6.172Y-4.698
X6.1744Y-4.8071
X6.2587Y-5.0228
X6.2591Y-4.9059
X6.2976Y-4.4535
X6.4555Y-4.4543
X6.4831Y-4.6531
X6.4843Y-4.7106
X6.5055Y-4.5756
X6.5075Y-3.9276
X6.5118Y-3.1894
X6.5189Y-5.2846
X6.5244Y-3.6563
X6.5283Y-3.5327
X6.5815Y-3.7476
X6.5898Y-3.3772
X6.6201Y-4.4785
X6.672Y-3.537
X6.678Y-4.81
X6.6791Y-4.76
X6.6839Y-4.5596
X6.6874Y-3.2039
X6.7051Y-3.537
X6.7063Y-3.4142
X6.7528Y-3.8536
X6.811Y-3.8551
X6.8295Y-4.9969
X6.8992Y-5.2055
X6.9465Y-3.502
X6.9693Y-2.9898
X7.0256Y-3.7028
X7.0551Y-3.1736
X7.1835Y-5.0059
X7.1858Y-3.0036
X7.2327Y-3.4051
M30
