M48
; DRILL file {KiCad 8.0.1} date 2024-04-10T20:13:35+0800
; FORMAT={-:-/ absolute / inch / decimal}
; #@! TF.CreationDate,2024-04-10T20:13:35+08:00
; #@! TF.GenerationSoftware,Kicad,Pcbnew,8.0.1
; #@! TF.FileFunction,Plated,1,2,PTH
FMAT,2
INCH
; #@! TA.AperFunction,Plated,PTH,ComponentDrill
T1C0.0079
; #@! TA.AperFunction,Plated,PTH,ViaDrill
T2C0.0118
; #@! TA.AperFunction,Plated,PTH,ViaDrill
T3C0.0157
%
G90
G05
T1
X5.8486Y-3.5287
X5.8486Y-3.5744
X5.8715Y-3.5516
X5.8943Y-3.5287
X5.8943Y-3.5744
T2
X5.6776Y-3.9189
X5.7497Y-3.8035
X5.9175Y-3.46
X5.9791Y-3.3433
X5.9807Y-3.415
X6.0547Y-3.0472
X6.1563Y-3.6732
X6.2673Y-3.785
X6.3528Y-3.0551
X6.3531Y-4.0043
X6.6472Y-3.2626
X6.7323Y-4.0339
X6.8469Y-3.0555
X7.0469Y-3.0539
X7.4567Y-3.0831
T3
X5.2311Y-3.3177
X5.2449Y-3.1012
X5.415Y-3.2319
X5.4307Y-3.7752
X5.4453Y-3.5996
X5.6185Y-3.6972
X5.6465Y-3.0543
X5.6555Y-3.5807
X5.7433Y-3.3406
X5.774Y-3.7587
X5.7783Y-3.5819
X5.7783Y-3.615
X5.8976Y-3.7626
X5.9441Y-3.2614
X5.989Y-3.7055
X6.095Y-3.5343
X6.0964Y-3.476
X6.1689Y-3.7795
X6.6949Y-3.9894
X6.6957Y-3.8315
X6.7199Y-3.6669
X6.801Y-3.6031
X6.8169Y-3.7815
X6.8945Y-3.8039
X6.9394Y-4.115
X6.952Y-3.8028
X7.0014Y-3.6079
X7.0484Y-4.1126
X7.0514Y-3.6091
X7.1472Y-4.028
X7.2382Y-3.4575
X7.2472Y-3.1035
X7.2642Y-4.0283
X7.4469Y-3.3878
X7.526Y-3.7681
M30
