M48
; DRILL file {KiCad 9.0.3} date 2025-07-24T19:54:12+0800
; FORMAT={-:-/ absolute / metric / decimal}
; #@! TF.CreationDate,2025-07-24T19:54:12+08:00
; #@! TF.GenerationSoftware,Kicad,Pcbnew,9.0.3
; #@! TF.FileFunction,Plated,1,2,PTH
FMAT,2
METRIC
; #@! TA.AperFunction,Plated,PTH,ComponentDrill
T1C0.200
; #@! TA.AperFunction,Plated,PTH,ViaDrill
T2C0.300
; #@! TA.AperFunction,Plated,PTH,ViaDrill
T3C0.400
; #@! TA.AperFunction,Plated,PTH,ComponentDrill
T4C1.000
%
G90
G05
T1
X148.555Y-89.63
X148.555Y-90.79
X149.135Y-90.21
X149.715Y-89.63
X149.715Y-90.79
T2
X144.21Y-99.54
X146.042Y-96.61
X150.305Y-87.885
X151.87Y-84.92
X151.91Y-86.74
X153.79Y-77.4
X156.37Y-93.3
X159.19Y-96.14
X161.36Y-77.6
X161.37Y-101.71
X168.84Y-82.87
X171.0Y-102.46
X173.91Y-77.61
X178.99Y-77.57
X189.4Y-78.31
T3
X132.87Y-84.27
X133.22Y-78.77
X137.54Y-82.09
X137.94Y-95.89
X138.31Y-91.43
X142.71Y-93.91
X143.42Y-77.58
X143.65Y-90.95
X145.88Y-84.85
X146.659Y-95.47
X146.769Y-90.98
X146.769Y-91.822
X149.8Y-95.57
X150.98Y-82.84
X152.12Y-94.12
X154.812Y-89.77
X154.85Y-88.29
X156.69Y-96.0
X170.05Y-101.33
X170.07Y-97.32
X170.685Y-93.14
X172.745Y-91.52
X173.15Y-96.05
X175.12Y-96.62
X176.26Y-104.52
X176.58Y-96.59
X177.835Y-91.64
X179.03Y-104.46
X179.105Y-91.67
X181.54Y-102.31
X183.85Y-87.82
X184.08Y-78.83
X184.51Y-102.32
X189.15Y-86.05
X191.16Y-95.71
T4
X194.69Y-81.22
X194.69Y-83.76
M30
