%TF.GenerationSoftware,KiCad,Pcbnew,8.0.1*%
%TF.CreationDate,2024-04-10T20:13:32+08:00*%
%TF.ProjectId,Photon_Power_Zero_PCB_r1_01,50686f74-6f6e-45f5-906f-7765725f5a65,rev?*%
%TF.SameCoordinates,Original*%
%TF.FileFunction,Soldermask,Top*%
%TF.FilePolarity,Negative*%
%FSLAX46Y46*%
G04 Gerber Fmt 4.6, Leading zero omitted, Abs format (unit mm)*
G04 Created by KiCad (PCBNEW 8.0.1) date 2024-04-10 20:13:32*
%MOMM*%
%LPD*%
G01*
G04 APERTURE LIST*
G04 Aperture macros list*
%AMRoundRect*
0 Rectangle with rounded corners*
0 $1 Rounding radius*
0 $2 $3 $4 $5 $6 $7 $8 $9 X,Y pos of 4 corners*
0 Add a 4 corners polygon primitive as box body*
4,1,4,$2,$3,$4,$5,$6,$7,$8,$9,$2,$3,0*
0 Add four circle primitives for the rounded corners*
1,1,$1+$1,$2,$3*
1,1,$1+$1,$4,$5*
1,1,$1+$1,$6,$7*
1,1,$1+$1,$8,$9*
0 Add four rect primitives between the rounded corners*
20,1,$1+$1,$2,$3,$4,$5,0*
20,1,$1+$1,$4,$5,$6,$7,0*
20,1,$1+$1,$6,$7,$8,$9,0*
20,1,$1+$1,$8,$9,$2,$3,0*%
G04 Aperture macros list end*
%ADD10C,0.300000*%
%ADD11C,0.200000*%
%ADD12C,0.000000*%
%ADD13RoundRect,0.237500X0.237500X-0.250000X0.237500X0.250000X-0.237500X0.250000X-0.237500X-0.250000X0*%
%ADD14C,2.000000*%
%ADD15R,0.558800X1.981200*%
%ADD16RoundRect,0.237500X-0.237500X0.287500X-0.237500X-0.287500X0.237500X-0.287500X0.237500X0.287500X0*%
%ADD17RoundRect,0.237500X-0.250000X-0.237500X0.250000X-0.237500X0.250000X0.237500X-0.250000X0.237500X0*%
%ADD18R,0.550000X1.000000*%
%ADD19C,1.700000*%
%ADD20C,1.800000*%
%ADD21R,2.800000X2.400000*%
%ADD22C,6.000000*%
%ADD23C,0.970000*%
%ADD24C,1.780000*%
%ADD25RoundRect,0.102000X0.635000X0.840000X-0.635000X0.840000X-0.635000X-0.840000X0.635000X-0.840000X0*%
%ADD26R,1.520000X3.050000*%
%ADD27R,3.500000X1.000000*%
%ADD28R,3.400000X1.500000*%
%ADD29R,3.050000X1.520000*%
%ADD30RoundRect,0.237500X0.250000X0.237500X-0.250000X0.237500X-0.250000X-0.237500X0.250000X-0.237500X0*%
%ADD31R,0.950000X0.900000*%
%ADD32R,1.300000X0.900000*%
%ADD33R,1.475000X0.900000*%
%ADD34R,3.125000X1.733000*%
%ADD35RoundRect,0.007800X-0.122200X0.422200X-0.122200X-0.422200X0.122200X-0.422200X0.122200X0.422200X0*%
%ADD36RoundRect,0.007800X0.422200X0.122200X-0.422200X0.122200X-0.422200X-0.122200X0.422200X-0.122200X0*%
%ADD37R,1.680000X1.680000*%
%ADD38RoundRect,0.150000X-0.150000X-0.700000X0.150000X-0.700000X0.150000X0.700000X-0.150000X0.700000X0*%
%ADD39RoundRect,0.250000X-0.250000X-1.100000X0.250000X-1.100000X0.250000X1.100000X-0.250000X1.100000X0*%
G04 APERTURE END LIST*
D10*
X171073971Y-88038346D02*
X168373971Y-88038346D01*
X168373971Y-88038346D02*
X168373971Y-86895489D01*
X168373971Y-86895489D02*
X168502542Y-86609774D01*
X168502542Y-86609774D02*
X168631114Y-86466917D01*
X168631114Y-86466917D02*
X168888257Y-86324060D01*
X168888257Y-86324060D02*
X169273971Y-86324060D01*
X169273971Y-86324060D02*
X169531114Y-86466917D01*
X169531114Y-86466917D02*
X169659685Y-86609774D01*
X169659685Y-86609774D02*
X169788257Y-86895489D01*
X169788257Y-86895489D02*
X169788257Y-88038346D01*
X171013971Y-90788346D02*
X168313971Y-90788346D01*
X168313971Y-90788346D02*
X168313971Y-89645489D01*
X168313971Y-89645489D02*
X168442542Y-89359774D01*
X168442542Y-89359774D02*
X168571114Y-89216917D01*
X168571114Y-89216917D02*
X168828257Y-89074060D01*
X168828257Y-89074060D02*
X169213971Y-89074060D01*
X169213971Y-89074060D02*
X169471114Y-89216917D01*
X169471114Y-89216917D02*
X169599685Y-89359774D01*
X169599685Y-89359774D02*
X169728257Y-89645489D01*
X169728257Y-89645489D02*
X169728257Y-90788346D01*
D11*
X170278885Y-89442707D02*
X170207457Y-89371279D01*
X170207457Y-89371279D02*
X170136028Y-89228422D01*
X170136028Y-89228422D02*
X170136028Y-88871279D01*
X170136028Y-88871279D02*
X170207457Y-88728422D01*
X170207457Y-88728422D02*
X170278885Y-88656993D01*
X170278885Y-88656993D02*
X170421742Y-88585564D01*
X170421742Y-88585564D02*
X170564600Y-88585564D01*
X170564600Y-88585564D02*
X170778885Y-88656993D01*
X170778885Y-88656993D02*
X171636028Y-89514136D01*
X171636028Y-89514136D02*
X171636028Y-88585564D01*
D12*
%TO.C,G\u002A\u002A\u002A*%
G36*
X152121113Y-97735578D02*
G01*
X152181984Y-97735830D01*
X152227261Y-97736511D01*
X152259404Y-97737835D01*
X152280873Y-97740015D01*
X152294131Y-97743266D01*
X152301638Y-97747800D01*
X152305855Y-97753833D01*
X152307983Y-97758623D01*
X152312585Y-97775128D01*
X152320106Y-97808614D01*
X152329887Y-97855858D01*
X152341271Y-97913637D01*
X152353600Y-97978729D01*
X152359747Y-98012102D01*
X152372179Y-98078955D01*
X152383874Y-98139473D01*
X152394203Y-98190583D01*
X152402535Y-98229208D01*
X152408240Y-98252274D01*
X152409935Y-98257056D01*
X152421240Y-98264813D01*
X152447933Y-98278525D01*
X152486321Y-98296610D01*
X152532711Y-98317482D01*
X152583409Y-98339559D01*
X152634722Y-98361258D01*
X152682957Y-98380993D01*
X152724420Y-98397183D01*
X152755419Y-98408242D01*
X152772259Y-98412589D01*
X152772704Y-98412601D01*
X152784392Y-98407004D01*
X152810468Y-98391270D01*
X152848483Y-98366984D01*
X152895987Y-98335731D01*
X152950528Y-98299097D01*
X152994668Y-98268983D01*
X153052798Y-98229368D01*
X153105630Y-98193939D01*
X153150737Y-98164276D01*
X153185688Y-98141964D01*
X153208055Y-98128585D01*
X153215125Y-98125364D01*
X153226135Y-98132437D01*
X153248756Y-98152019D01*
X153280563Y-98181653D01*
X153319130Y-98218884D01*
X153362032Y-98261255D01*
X153406844Y-98306310D01*
X153451141Y-98351594D01*
X153492499Y-98394649D01*
X153528491Y-98433021D01*
X153556693Y-98464252D01*
X153574680Y-98485887D01*
X153580132Y-98495039D01*
X153575427Y-98508066D01*
X153561011Y-98533869D01*
X153536434Y-98573137D01*
X153501246Y-98626564D01*
X153454996Y-98694839D01*
X153397236Y-98778655D01*
X153368740Y-98819657D01*
X153342293Y-98858927D01*
X153320950Y-98893089D01*
X153307144Y-98918083D01*
X153303153Y-98929019D01*
X153307033Y-98942077D01*
X153317642Y-98970244D01*
X153333433Y-99009858D01*
X153352860Y-99057252D01*
X153374375Y-99108764D01*
X153396432Y-99160729D01*
X153417484Y-99209483D01*
X153435985Y-99251361D01*
X153450387Y-99282700D01*
X153459145Y-99299836D01*
X153460466Y-99301686D01*
X153471643Y-99305000D01*
X153500134Y-99311422D01*
X153543072Y-99320365D01*
X153597592Y-99331240D01*
X153660825Y-99343460D01*
X153703562Y-99351531D01*
X153771424Y-99364351D01*
X153832962Y-99376196D01*
X153885168Y-99386468D01*
X153925031Y-99394571D01*
X153949543Y-99399907D01*
X153955640Y-99401537D01*
X153960146Y-99406540D01*
X153963638Y-99419116D01*
X153966231Y-99441437D01*
X153968043Y-99475670D01*
X153969190Y-99523987D01*
X153969788Y-99588556D01*
X153969954Y-99668252D01*
X153969859Y-99748495D01*
X153969466Y-99810592D01*
X153968616Y-99856914D01*
X153967150Y-99889829D01*
X153964907Y-99911709D01*
X153961728Y-99924924D01*
X153957454Y-99931844D01*
X153952002Y-99934817D01*
X153934223Y-99938945D01*
X153901942Y-99945443D01*
X153860874Y-99953178D01*
X153841723Y-99956642D01*
X153733199Y-99976349D01*
X153644330Y-99993233D01*
X153574472Y-100007432D01*
X153522977Y-100019085D01*
X153489201Y-100028331D01*
X153472497Y-100035310D01*
X153471143Y-100036452D01*
X153464419Y-100048919D01*
X153451793Y-100076852D01*
X153434733Y-100116629D01*
X153414703Y-100164623D01*
X153393170Y-100217210D01*
X153371600Y-100270767D01*
X153351459Y-100321667D01*
X153334214Y-100366286D01*
X153321329Y-100401001D01*
X153314272Y-100422186D01*
X153313384Y-100426485D01*
X153319254Y-100438309D01*
X153336377Y-100465784D01*
X153364065Y-100507880D01*
X153401626Y-100563566D01*
X153448371Y-100631811D01*
X153503608Y-100711587D01*
X153525376Y-100742839D01*
X153549504Y-100779420D01*
X153568204Y-100811564D01*
X153578758Y-100834408D01*
X153580132Y-100840678D01*
X153572939Y-100853748D01*
X153552389Y-100879223D01*
X153520024Y-100915403D01*
X153477385Y-100960588D01*
X153426015Y-101013076D01*
X153401608Y-101037487D01*
X153345876Y-101092729D01*
X153302681Y-101134961D01*
X153270116Y-101165745D01*
X153246274Y-101186643D01*
X153229248Y-101199216D01*
X153217130Y-101205026D01*
X153208013Y-101205633D01*
X153199990Y-101202599D01*
X153199953Y-101202579D01*
X153184731Y-101193174D01*
X153155551Y-101174041D01*
X153115322Y-101147132D01*
X153066955Y-101114397D01*
X153013362Y-101077786D01*
X152999586Y-101068323D01*
X152946040Y-101031910D01*
X152897740Y-100999837D01*
X152857384Y-100973832D01*
X152827666Y-100955623D01*
X152811283Y-100946937D01*
X152809407Y-100946446D01*
X152795214Y-100950928D01*
X152767518Y-100962988D01*
X152730920Y-100980548D01*
X152706042Y-100993148D01*
X152666919Y-101012416D01*
X152634435Y-101026668D01*
X152612911Y-101034102D01*
X152606888Y-101034454D01*
X152600631Y-101023806D01*
X152587856Y-100996896D01*
X152569776Y-100956466D01*
X152547607Y-100905260D01*
X152522561Y-100846019D01*
X152507911Y-100810794D01*
X152475310Y-100731990D01*
X152439051Y-100644415D01*
X152402010Y-100555010D01*
X152367063Y-100470718D01*
X152337226Y-100398816D01*
X152312884Y-100339577D01*
X152291500Y-100286357D01*
X152274263Y-100242210D01*
X152262360Y-100210189D01*
X152256979Y-100193347D01*
X152256788Y-100191983D01*
X152264620Y-100180120D01*
X152285340Y-100160673D01*
X152314788Y-100137468D01*
X152320903Y-100133037D01*
X152410036Y-100059581D01*
X152479769Y-99980140D01*
X152530570Y-99893867D01*
X152562902Y-99799914D01*
X152577232Y-99697431D01*
X152578091Y-99664136D01*
X152569529Y-99563771D01*
X152543054Y-99471590D01*
X152497838Y-99385548D01*
X152433052Y-99303598D01*
X152431245Y-99301659D01*
X152354547Y-99233850D01*
X152269019Y-99183235D01*
X152177185Y-99149918D01*
X152081566Y-99134003D01*
X151984685Y-99135595D01*
X151889064Y-99154797D01*
X151797225Y-99191713D01*
X151711690Y-99246447D01*
X151682621Y-99270809D01*
X151611228Y-99347713D01*
X151558367Y-99433395D01*
X151524186Y-99527522D01*
X151508833Y-99629763D01*
X151507919Y-99663061D01*
X151515233Y-99765552D01*
X151537934Y-99857441D01*
X151577158Y-99940865D01*
X151634040Y-100017956D01*
X151709718Y-100090849D01*
X151754355Y-100125940D01*
X151786699Y-100151487D01*
X151811436Y-100174012D01*
X151824702Y-100189872D01*
X151825932Y-100193450D01*
X151822129Y-100206049D01*
X151811326Y-100235290D01*
X151794429Y-100278883D01*
X151772345Y-100334536D01*
X151745981Y-100399961D01*
X151716244Y-100472867D01*
X151691242Y-100533573D01*
X151657885Y-100614284D01*
X151625655Y-100692374D01*
X151595745Y-100764941D01*
X151569351Y-100829084D01*
X151547665Y-100881902D01*
X151531884Y-100920492D01*
X151525513Y-100936188D01*
X151506110Y-100983574D01*
X151490691Y-101013817D01*
X151475041Y-101028583D01*
X151454948Y-101029536D01*
X151426196Y-101018342D01*
X151384572Y-100996666D01*
X151379417Y-100993920D01*
X151339965Y-100973617D01*
X151306491Y-100957648D01*
X151283608Y-100948150D01*
X151276882Y-100946446D01*
X151264925Y-100952012D01*
X151238659Y-100967620D01*
X151200649Y-100991633D01*
X151153454Y-101022417D01*
X151099639Y-101058336D01*
X151067972Y-101079807D01*
X151011973Y-101117778D01*
X150961600Y-101151542D01*
X150919324Y-101179476D01*
X150887616Y-101199954D01*
X150868947Y-101211354D01*
X150865094Y-101213167D01*
X150856105Y-101206230D01*
X150834697Y-101186736D01*
X150802937Y-101156657D01*
X150762890Y-101117966D01*
X150716623Y-101072636D01*
X150680211Y-101036591D01*
X150627470Y-100983399D01*
X150581813Y-100935847D01*
X150544958Y-100895826D01*
X150518620Y-100865225D01*
X150504517Y-100845934D01*
X150502588Y-100841028D01*
X150508274Y-100825502D01*
X150523733Y-100797511D01*
X150546564Y-100761108D01*
X150572719Y-100722672D01*
X150621477Y-100652989D01*
X150665452Y-100588976D01*
X150703344Y-100532608D01*
X150733853Y-100485863D01*
X150755678Y-100450718D01*
X150767521Y-100429147D01*
X150769308Y-100423780D01*
X150765504Y-100409465D01*
X150755087Y-100379973D01*
X150739551Y-100338973D01*
X150720392Y-100290135D01*
X150699102Y-100237128D01*
X150677177Y-100183623D01*
X150656110Y-100133289D01*
X150637395Y-100089797D01*
X150622528Y-100056815D01*
X150613001Y-100038014D01*
X150611196Y-100035454D01*
X150597702Y-100029830D01*
X150567041Y-100021437D01*
X150522272Y-100010970D01*
X150466450Y-99999125D01*
X150402633Y-99986596D01*
X150368309Y-99980225D01*
X150301630Y-99967750D01*
X150241396Y-99955842D01*
X150190663Y-99945158D01*
X150152486Y-99936354D01*
X150129918Y-99930085D01*
X150125415Y-99928085D01*
X150121230Y-99919970D01*
X150118116Y-99901826D01*
X150115998Y-99871686D01*
X150114801Y-99827581D01*
X150114450Y-99767545D01*
X150114868Y-99689608D01*
X150115157Y-99660172D01*
X150117895Y-99402545D01*
X150205092Y-99385062D01*
X150247003Y-99376816D01*
X150302841Y-99366052D01*
X150366352Y-99353965D01*
X150431285Y-99341749D01*
X150454900Y-99337346D01*
X150510422Y-99326596D01*
X150558823Y-99316418D01*
X150596504Y-99307632D01*
X150619866Y-99301059D01*
X150625627Y-99298407D01*
X150633370Y-99284977D01*
X150647013Y-99256349D01*
X150664982Y-99216282D01*
X150685700Y-99168534D01*
X150707594Y-99116864D01*
X150729087Y-99065030D01*
X150748606Y-99016792D01*
X150764575Y-98975907D01*
X150775419Y-98946136D01*
X150779562Y-98931235D01*
X150779567Y-98931044D01*
X150773956Y-98917723D01*
X150758224Y-98890218D01*
X150734015Y-98851149D01*
X150702977Y-98803137D01*
X150666756Y-98748804D01*
X150644869Y-98716660D01*
X150606186Y-98659799D01*
X150571386Y-98607750D01*
X150542192Y-98563156D01*
X150520322Y-98528666D01*
X150507496Y-98506924D01*
X150504922Y-98501365D01*
X150507174Y-98491009D01*
X150518644Y-98473268D01*
X150540495Y-98446813D01*
X150573894Y-98410315D01*
X150620005Y-98362445D01*
X150677979Y-98303889D01*
X150727784Y-98254523D01*
X150773267Y-98210391D01*
X150812303Y-98173476D01*
X150842771Y-98145762D01*
X150862550Y-98129231D01*
X150869053Y-98125364D01*
X150880760Y-98130978D01*
X150906787Y-98146744D01*
X150944649Y-98171046D01*
X150991858Y-98202271D01*
X151045928Y-98238802D01*
X151084591Y-98265331D01*
X151142122Y-98304771D01*
X151194665Y-98340275D01*
X151239675Y-98370167D01*
X151274610Y-98392768D01*
X151296925Y-98406402D01*
X151303476Y-98409666D01*
X151317521Y-98407269D01*
X151346629Y-98398224D01*
X151387027Y-98384018D01*
X151434944Y-98366140D01*
X151486609Y-98346078D01*
X151538251Y-98325323D01*
X151586096Y-98305362D01*
X151626375Y-98287684D01*
X151655315Y-98273778D01*
X151668841Y-98265445D01*
X151674031Y-98252428D01*
X151682180Y-98222107D01*
X151692634Y-98177373D01*
X151704741Y-98121118D01*
X151717848Y-98056235D01*
X151727937Y-98003669D01*
X151741088Y-97934435D01*
X151753270Y-97871827D01*
X151763906Y-97818694D01*
X151772418Y-97777881D01*
X151778230Y-97752236D01*
X151780484Y-97744642D01*
X151791873Y-97742147D01*
X151820949Y-97739913D01*
X151864881Y-97738039D01*
X151920840Y-97736623D01*
X151985996Y-97735763D01*
X152042185Y-97735542D01*
X152121113Y-97735578D01*
G37*
G36*
X161705852Y-88411960D02*
G01*
X161687812Y-88430000D01*
X161669772Y-88411960D01*
X161687812Y-88393920D01*
X161705852Y-88411960D01*
G37*
G36*
X167496981Y-87313806D02*
G01*
X167511940Y-87325228D01*
X167523879Y-87352711D01*
X167533223Y-87403162D01*
X167540397Y-87483493D01*
X167545823Y-87600612D01*
X167549928Y-87761429D01*
X167553134Y-87972854D01*
X167555867Y-88241796D01*
X167558550Y-88575165D01*
X167558885Y-88619418D01*
X167560853Y-88922735D01*
X167562062Y-89205635D01*
X167562524Y-89459419D01*
X167562249Y-89675386D01*
X167561247Y-89844838D01*
X167559529Y-89959074D01*
X167557249Y-90008480D01*
X167521926Y-90076113D01*
X167478579Y-90089659D01*
X167418226Y-90058565D01*
X167399910Y-90008480D01*
X167397521Y-89954572D01*
X167395840Y-89837208D01*
X167394876Y-89665086D01*
X167394640Y-89446908D01*
X167395141Y-89191373D01*
X167396390Y-88907179D01*
X167398273Y-88619418D01*
X167400978Y-88277928D01*
X167403683Y-88001687D01*
X167406811Y-87783785D01*
X167410786Y-87617311D01*
X167416033Y-87495358D01*
X167422977Y-87411014D01*
X167432040Y-87357372D01*
X167443649Y-87327520D01*
X167458226Y-87314550D01*
X167476197Y-87311552D01*
X167478579Y-87311534D01*
X167496981Y-87313806D01*
G37*
G36*
X156604149Y-87690369D02*
G01*
X156674774Y-88333000D01*
X156791390Y-88920846D01*
X156954329Y-89454998D01*
X157163922Y-89936549D01*
X157416126Y-90360256D01*
X157537588Y-90531797D01*
X157638530Y-90660536D01*
X157735790Y-90765407D01*
X157846204Y-90865345D01*
X157917618Y-90924246D01*
X158154240Y-91087030D01*
X158398529Y-91203607D01*
X158632251Y-91265636D01*
X158674793Y-91270642D01*
X158794538Y-91278040D01*
X158871243Y-91267221D01*
X158933371Y-91229673D01*
X158989972Y-91176409D01*
X159073070Y-91105391D01*
X159156601Y-91072290D01*
X159275123Y-91063822D01*
X159282972Y-91063807D01*
X159405232Y-91071582D01*
X159489982Y-91103268D01*
X159570061Y-91170499D01*
X159668214Y-91313680D01*
X159697015Y-91476547D01*
X159680315Y-91584590D01*
X159608650Y-91729491D01*
X159491337Y-91825669D01*
X159340606Y-91867502D01*
X159168683Y-91849366D01*
X159130784Y-91837324D01*
X159008022Y-91804528D01*
X158855797Y-91778160D01*
X158765369Y-91768565D01*
X158467774Y-91717959D01*
X158192888Y-91608707D01*
X157931802Y-91436215D01*
X157695008Y-91216534D01*
X157406884Y-90862233D01*
X157160171Y-90452357D01*
X156956443Y-89991497D01*
X156797275Y-89484245D01*
X156684240Y-88935191D01*
X156618912Y-88348926D01*
X156604429Y-88035399D01*
X156600727Y-87867160D01*
X156599043Y-87744261D01*
X156599381Y-87674144D01*
X156601748Y-87664247D01*
X156604149Y-87690369D01*
G37*
G36*
X158787362Y-85123139D02*
G01*
X158819488Y-85123514D01*
X159040930Y-85126663D01*
X159204702Y-85131305D01*
X159325292Y-85139490D01*
X159417187Y-85153272D01*
X159494874Y-85174703D01*
X159572841Y-85205834D01*
X159649318Y-85241063D01*
X159986021Y-85437664D01*
X160305912Y-85700771D01*
X160606000Y-86026064D01*
X160883294Y-86409225D01*
X161134803Y-86845936D01*
X161357535Y-87331878D01*
X161548501Y-87862734D01*
X161611952Y-88074757D01*
X161648338Y-88206515D01*
X161665155Y-88281455D01*
X161663569Y-88311873D01*
X161644750Y-88310069D01*
X161633693Y-88303722D01*
X161605509Y-88253863D01*
X161597613Y-88195483D01*
X161583994Y-88119932D01*
X161561534Y-88087244D01*
X161528403Y-88035070D01*
X161525454Y-88012563D01*
X161508328Y-87939814D01*
X161461081Y-87817370D01*
X161389906Y-87657891D01*
X161300999Y-87474035D01*
X161200554Y-87278464D01*
X161094767Y-87083835D01*
X160989832Y-86902808D01*
X160952892Y-86842500D01*
X160814954Y-86647749D01*
X160634583Y-86433200D01*
X160429126Y-86219468D01*
X160426024Y-86216453D01*
X160143117Y-85968216D01*
X159868443Y-85784741D01*
X159591002Y-85661241D01*
X159299791Y-85592930D01*
X158983812Y-85575019D01*
X158953570Y-85575722D01*
X158853184Y-85589952D01*
X158787324Y-85638741D01*
X158745912Y-85700294D01*
X158640715Y-85823015D01*
X158498863Y-85889023D01*
X158353622Y-85904432D01*
X158201531Y-85872552D01*
X158080824Y-85786850D01*
X158000898Y-85662231D01*
X157971151Y-85513601D01*
X158000979Y-85355865D01*
X158003649Y-85349324D01*
X158041846Y-85268968D01*
X158086832Y-85209552D01*
X158149285Y-85168122D01*
X158239886Y-85141721D01*
X158369313Y-85127394D01*
X158548245Y-85122186D01*
X158787362Y-85123139D01*
G37*
G36*
X162281563Y-85020818D02*
G01*
X162400342Y-85074762D01*
X162461811Y-85169017D01*
X162473806Y-85281495D01*
X162478080Y-85354480D01*
X162501787Y-85423674D01*
X162554072Y-85505464D01*
X162644082Y-85616237D01*
X162690583Y-85669915D01*
X162808934Y-85802567D01*
X162929192Y-85932911D01*
X163030178Y-86038110D01*
X163053707Y-86061505D01*
X163196005Y-86200539D01*
X163754893Y-86187784D01*
X164313781Y-86175028D01*
X164378441Y-86265227D01*
X164417774Y-86322597D01*
X164487408Y-86426502D01*
X164578186Y-86563063D01*
X164680949Y-86718399D01*
X164786541Y-86878631D01*
X164885804Y-87029879D01*
X164969581Y-87158263D01*
X165028714Y-87249903D01*
X165042899Y-87272334D01*
X165072807Y-87320208D01*
X165134180Y-87418458D01*
X165220255Y-87556256D01*
X165324269Y-87722777D01*
X165433609Y-87897827D01*
X165547963Y-88077619D01*
X165651608Y-88234417D01*
X165737814Y-88358528D01*
X165799852Y-88440258D01*
X165830795Y-88469902D01*
X165884203Y-88473036D01*
X165990363Y-88478111D01*
X166129927Y-88484220D01*
X166188735Y-88486667D01*
X166504431Y-88499609D01*
X166504431Y-87147901D01*
X166504531Y-86800267D01*
X166505071Y-86517990D01*
X166506412Y-86294268D01*
X166508915Y-86122299D01*
X166512941Y-85995280D01*
X166518850Y-85906410D01*
X166527003Y-85848886D01*
X166537762Y-85815907D01*
X166551487Y-85800670D01*
X166568538Y-85796372D01*
X166576138Y-85796193D01*
X166589571Y-85797447D01*
X166601234Y-85804421D01*
X166611271Y-85821932D01*
X166619827Y-85854798D01*
X166627049Y-85907836D01*
X166633080Y-85985863D01*
X166638065Y-86093698D01*
X166642151Y-86236157D01*
X166645481Y-86418059D01*
X166648200Y-86644220D01*
X166650455Y-86919458D01*
X166652389Y-87248591D01*
X166654147Y-87636436D01*
X166655876Y-88087811D01*
X166657317Y-88493139D01*
X166658695Y-88929658D01*
X166659711Y-89346408D01*
X166660367Y-89737574D01*
X166660669Y-90097344D01*
X166660622Y-90419905D01*
X166660228Y-90699442D01*
X166659493Y-90930144D01*
X166658421Y-91106196D01*
X166657016Y-91221786D01*
X166655283Y-91271100D01*
X166655260Y-91271264D01*
X166619521Y-91339132D01*
X166574081Y-91352443D01*
X166516686Y-91326979D01*
X166503563Y-91271264D01*
X166503408Y-91217102D01*
X166503357Y-91099624D01*
X166503405Y-90927672D01*
X166503547Y-90710088D01*
X166503776Y-90455716D01*
X166504088Y-90173397D01*
X166504413Y-89918281D01*
X166506131Y-88646477D01*
X166363540Y-88646477D01*
X166259531Y-88658172D01*
X166183030Y-88687090D01*
X166173273Y-88695064D01*
X166143567Y-88740978D01*
X166087873Y-88841430D01*
X166011652Y-88986011D01*
X165920364Y-89164312D01*
X165819470Y-89365926D01*
X165789977Y-89425675D01*
X165678699Y-89652291D01*
X165595975Y-89823678D01*
X165538474Y-89949342D01*
X165502865Y-90038787D01*
X165485821Y-90101518D01*
X165484009Y-90147040D01*
X165494102Y-90184859D01*
X165511218Y-90221378D01*
X165543893Y-90347076D01*
X165518905Y-90453297D01*
X165450087Y-90530309D01*
X165351273Y-90568381D01*
X165236298Y-90557782D01*
X165124389Y-90493498D01*
X165074421Y-90410182D01*
X165070345Y-90305164D01*
X165104530Y-90201422D01*
X165169344Y-90121930D01*
X165257156Y-90089666D01*
X165258521Y-90089659D01*
X165293032Y-90057359D01*
X165353588Y-89963639D01*
X165437500Y-89813271D01*
X165542079Y-89611027D01*
X165639748Y-89413168D01*
X165738345Y-89209110D01*
X165825734Y-89026579D01*
X165897137Y-88875696D01*
X165947772Y-88766586D01*
X165972857Y-88709370D01*
X165974650Y-88704038D01*
X165942958Y-88691952D01*
X165851146Y-88679819D01*
X165711245Y-88668686D01*
X165535284Y-88659600D01*
X165417874Y-88655579D01*
X164854470Y-88639759D01*
X164783539Y-88742337D01*
X164742792Y-88807644D01*
X164674716Y-88923799D01*
X164585332Y-89079946D01*
X164480661Y-89265225D01*
X164366723Y-89468779D01*
X164249540Y-89679750D01*
X164135132Y-89887279D01*
X164029519Y-90080509D01*
X163938724Y-90248582D01*
X163868765Y-90380639D01*
X163825665Y-90465824D01*
X163816505Y-90486305D01*
X163785950Y-90550550D01*
X163727039Y-90663064D01*
X163647436Y-90809591D01*
X163554806Y-90975873D01*
X163524951Y-91028659D01*
X163407710Y-91235515D01*
X163271161Y-91476934D01*
X163131325Y-91724561D01*
X163004225Y-91950044D01*
X162990281Y-91974815D01*
X162711086Y-92470909D01*
X162282674Y-92470909D01*
X162096991Y-92472165D01*
X161970170Y-92477168D01*
X161888939Y-92487772D01*
X161840023Y-92505833D01*
X161810152Y-92533203D01*
X161807116Y-92537342D01*
X161736268Y-92608487D01*
X161681406Y-92645452D01*
X161573039Y-92667244D01*
X161467163Y-92632544D01*
X161384505Y-92554675D01*
X161345792Y-92446962D01*
X161345056Y-92429238D01*
X161374671Y-92314147D01*
X161450498Y-92230972D01*
X161553014Y-92187867D01*
X161662695Y-92192988D01*
X161760017Y-92254489D01*
X161760956Y-92255520D01*
X161795883Y-92287283D01*
X161841379Y-92307692D01*
X161911895Y-92318657D01*
X162021880Y-92322088D01*
X162185787Y-92319898D01*
X162238392Y-92318659D01*
X162649541Y-92308551D01*
X163133805Y-91447800D01*
X163260945Y-91220681D01*
X163375603Y-91013684D01*
X163473208Y-90835237D01*
X163549190Y-90693768D01*
X163598979Y-90597702D01*
X163618004Y-90555467D01*
X163618068Y-90554831D01*
X163585997Y-90534869D01*
X163505648Y-90523566D01*
X163469938Y-90522614D01*
X163321149Y-90547453D01*
X163214613Y-90612812D01*
X163098424Y-90686423D01*
X162996280Y-90692969D01*
X162895746Y-90632511D01*
X162876797Y-90614452D01*
X162802653Y-90506631D01*
X162800430Y-90400835D01*
X162870130Y-90293250D01*
X162876797Y-90286457D01*
X162984309Y-90212389D01*
X163089841Y-90210094D01*
X163197727Y-90279591D01*
X163206433Y-90288097D01*
X163273824Y-90342308D01*
X163353144Y-90369512D01*
X163471507Y-90377953D01*
X163502449Y-90378116D01*
X163708267Y-90377936D01*
X164086160Y-89701624D01*
X164205475Y-89487836D01*
X164319548Y-89282982D01*
X164421259Y-89099881D01*
X164503490Y-88951352D01*
X164559123Y-88850213D01*
X164566923Y-88835895D01*
X164669794Y-88646477D01*
X163879482Y-88646477D01*
X163089170Y-88646477D01*
X162298292Y-89786804D01*
X162120619Y-90043537D01*
X161955160Y-90283687D01*
X161806626Y-90500335D01*
X161679729Y-90686564D01*
X161579178Y-90835456D01*
X161509687Y-90940092D01*
X161475966Y-90993555D01*
X161474190Y-90996927D01*
X161429423Y-91048600D01*
X161395886Y-91056245D01*
X161362492Y-91027780D01*
X161286843Y-90951211D01*
X161174468Y-90832505D01*
X161030893Y-90677632D01*
X160861645Y-90492559D01*
X160672252Y-90283256D01*
X160468240Y-90055691D01*
X160439881Y-90023897D01*
X160201346Y-89757042D01*
X160005606Y-89539992D01*
X159848092Y-89368115D01*
X159724232Y-89236778D01*
X159629457Y-89141349D01*
X159559195Y-89077197D01*
X159508876Y-89039688D01*
X159473930Y-89024192D01*
X159453839Y-89024570D01*
X159203181Y-89073687D01*
X158986040Y-89059857D01*
X158800091Y-88982763D01*
X158723144Y-88924878D01*
X158587206Y-88764608D01*
X158511965Y-88586059D01*
X158493140Y-88400861D01*
X158526451Y-88220642D01*
X158607620Y-88057035D01*
X158732366Y-87921669D01*
X158896411Y-87826174D01*
X159095475Y-87782181D01*
X159144204Y-87780568D01*
X159353059Y-87811886D01*
X159532670Y-87907905D01*
X159639082Y-88008940D01*
X159739708Y-88172785D01*
X159788225Y-88362702D01*
X159783413Y-88557716D01*
X159724055Y-88736854D01*
X159684979Y-88799078D01*
X159636269Y-88874157D01*
X159631383Y-88922820D01*
X159659416Y-88964917D01*
X159858637Y-89193041D01*
X160066248Y-89428049D01*
X160276549Y-89663732D01*
X160483843Y-89893882D01*
X160682430Y-90112291D01*
X160866613Y-90312753D01*
X161030693Y-90489057D01*
X161168971Y-90634998D01*
X161275748Y-90744367D01*
X161345328Y-90810956D01*
X161370815Y-90829290D01*
X161402636Y-90800574D01*
X161470477Y-90718676D01*
X161569617Y-90589970D01*
X161695332Y-90420829D01*
X161842900Y-90217627D01*
X162007598Y-89986738D01*
X162184703Y-89734535D01*
X162226306Y-89674744D01*
X163028280Y-88520199D01*
X163269055Y-88509530D01*
X163390256Y-88501941D01*
X163476743Y-88492289D01*
X163509829Y-88482663D01*
X163509829Y-88482643D01*
X163489941Y-88448911D01*
X163435610Y-88368417D01*
X163354840Y-88252758D01*
X163255633Y-88113527D01*
X163242291Y-88094984D01*
X163128845Y-87939586D01*
X163045230Y-87832997D01*
X162980354Y-87764596D01*
X162923127Y-87723759D01*
X162862459Y-87699862D01*
X162818357Y-87688917D01*
X162682545Y-87634040D01*
X162604641Y-87547180D01*
X162589808Y-87436699D01*
X162614892Y-87359298D01*
X162693877Y-87259600D01*
X162793090Y-87217357D01*
X162895986Y-87227936D01*
X162986021Y-87286704D01*
X163046651Y-87389030D01*
X163062752Y-87484696D01*
X163070543Y-87553204D01*
X163094519Y-87626729D01*
X163141177Y-87717351D01*
X163217012Y-87837151D01*
X163328523Y-87998209D01*
X163371067Y-88058005D01*
X163675464Y-88484119D01*
X164656993Y-88493719D01*
X164914659Y-88495657D01*
X165147032Y-88496286D01*
X165344851Y-88495673D01*
X165498857Y-88493882D01*
X165599790Y-88490981D01*
X165638391Y-88487033D01*
X165638522Y-88486763D01*
X165619709Y-88447572D01*
X165568534Y-88360694D01*
X165492895Y-88238322D01*
X165400691Y-88092654D01*
X165299818Y-87935885D01*
X165198174Y-87780210D01*
X165103658Y-87637825D01*
X165024167Y-87520927D01*
X164967600Y-87441710D01*
X164943092Y-87412879D01*
X164890365Y-87401222D01*
X164782679Y-87391817D01*
X164637224Y-87385816D01*
X164515902Y-87384246D01*
X164336992Y-87385897D01*
X164214237Y-87393027D01*
X164131700Y-87407977D01*
X164073446Y-87433090D01*
X164044021Y-87453616D01*
X163909581Y-87533214D01*
X163790210Y-87545143D01*
X163679645Y-87491353D01*
X163597997Y-87390350D01*
X163583902Y-87278828D01*
X163637361Y-87171631D01*
X163679645Y-87131716D01*
X163797586Y-87076492D01*
X163915436Y-87091988D01*
X164026113Y-87177105D01*
X164034338Y-87186760D01*
X164076230Y-87230277D01*
X164125204Y-87256445D01*
X164199395Y-87269391D01*
X164316941Y-87273239D01*
X164413173Y-87272919D01*
X164587542Y-87271062D01*
X164706919Y-87262805D01*
X164774206Y-87239062D01*
X164792306Y-87190747D01*
X164764119Y-87108774D01*
X164692548Y-86984057D01*
X164580495Y-86807511D01*
X164568042Y-86788014D01*
X164466663Y-86631142D01*
X164377322Y-86496538D01*
X164307895Y-86395795D01*
X164266256Y-86340509D01*
X164259723Y-86334055D01*
X164216530Y-86329044D01*
X164110768Y-86325615D01*
X163952011Y-86323814D01*
X163749831Y-86323689D01*
X163513803Y-86325285D01*
X163253500Y-86328649D01*
X163228268Y-86329055D01*
X162933508Y-86334069D01*
X162702248Y-86338834D01*
X162525835Y-86344121D01*
X162395618Y-86350704D01*
X162302942Y-86359354D01*
X162239158Y-86370845D01*
X162195611Y-86385948D01*
X162163650Y-86405436D01*
X162138806Y-86426316D01*
X162056654Y-86489863D01*
X161985322Y-86529467D01*
X161985041Y-86529567D01*
X161885210Y-86531030D01*
X161789739Y-86480338D01*
X161717135Y-86396008D01*
X161685902Y-86296557D01*
X161694264Y-86238595D01*
X161767037Y-86119353D01*
X161870747Y-86057887D01*
X161989724Y-86058251D01*
X162108301Y-86124500D01*
X162114278Y-86129929D01*
X162159794Y-86166859D01*
X162210889Y-86189766D01*
X162284098Y-86201197D01*
X162395956Y-86203700D01*
X162562999Y-86199821D01*
X162567131Y-86199692D01*
X162719638Y-86192138D01*
X162840935Y-86180823D01*
X162915845Y-86167482D01*
X162932556Y-86157895D01*
X162909957Y-86120441D01*
X162848478Y-86041177D01*
X162757600Y-85931851D01*
X162650610Y-85808516D01*
X162523025Y-85667508D01*
X162430378Y-85574726D01*
X162362705Y-85521908D01*
X162310044Y-85500794D01*
X162278759Y-85500204D01*
X162168342Y-85481763D01*
X162069674Y-85414063D01*
X162006094Y-85317235D01*
X161994488Y-85255000D01*
X162025704Y-85148230D01*
X162104387Y-85063388D01*
X162208087Y-85018786D01*
X162281563Y-85020818D01*
G37*
%TD*%
D13*
%TO.C,R1*%
X140770000Y-90952500D03*
X140770000Y-89127500D03*
%TD*%
D14*
%TO.C,FID1*%
X133040000Y-99330000D03*
%TD*%
D15*
%TO.C,U1*%
X171475000Y-93140000D03*
X172745000Y-93140000D03*
X174015000Y-93140000D03*
X175285000Y-93140000D03*
X176555000Y-93140000D03*
X177825000Y-93140000D03*
X179095000Y-93140000D03*
X179095000Y-98067600D03*
X177825000Y-98067600D03*
X172745000Y-98067600D03*
X174015000Y-98067600D03*
X176555000Y-98067600D03*
X175285000Y-98067600D03*
X171475000Y-98067600D03*
%TD*%
D16*
%TO.C,D1*%
X185910000Y-102780000D03*
X185910000Y-104530000D03*
%TD*%
D14*
%TO.C,FID4*%
X194240000Y-78630000D03*
%TD*%
D13*
%TO.C,C1*%
X149040000Y-94932500D03*
X149040000Y-93107500D03*
%TD*%
D17*
%TO.C,R4*%
X152037500Y-88280000D03*
X153862500Y-88280000D03*
%TD*%
D13*
%TO.C,R1*%
X149340000Y-86752500D03*
X149340000Y-84927500D03*
%TD*%
D18*
%TO.C,U4*%
X142700000Y-92740000D03*
X142700000Y-90040000D03*
X143650000Y-90040000D03*
X144600000Y-92740000D03*
X144600000Y-90040000D03*
%TD*%
D19*
%TO.C,J3*%
X191200000Y-91770000D03*
D20*
X186700000Y-91770000D03*
D21*
X185100000Y-97470000D03*
X191200000Y-97470000D03*
X191200000Y-86070000D03*
X185100000Y-86070000D03*
%TD*%
D14*
%TO.C,FID3*%
X139920000Y-104810000D03*
%TD*%
D13*
%TO.C,R1*%
X150850000Y-86752500D03*
X150850000Y-84927500D03*
%TD*%
D22*
%TO.C,REF\u002A\u002A*%
X134910000Y-102950000D03*
X192910000Y-102950000D03*
D23*
X139610000Y-81390000D03*
X142150000Y-81390000D03*
X144690000Y-81390000D03*
X147230000Y-81390000D03*
X149770000Y-81390000D03*
X152310000Y-81390000D03*
X154850000Y-81390000D03*
X157390000Y-81390000D03*
X159930000Y-81390000D03*
X162470000Y-81390000D03*
X165010000Y-81390000D03*
X167550000Y-81390000D03*
X170090000Y-81390000D03*
X172630000Y-81390000D03*
X175170000Y-81390000D03*
X177710000Y-81390000D03*
X180250000Y-81390000D03*
X182790000Y-81390000D03*
X185330000Y-81390000D03*
X187870000Y-81390000D03*
D24*
X140880000Y-80120000D03*
X186600000Y-80120000D03*
D23*
X139610000Y-78850000D03*
X142150000Y-78850000D03*
X144690000Y-78850000D03*
X147230000Y-78850000D03*
X149770000Y-78850000D03*
X152310000Y-78850000D03*
X154850000Y-78850000D03*
X157390000Y-78850000D03*
X159930000Y-78850000D03*
X162470000Y-78850000D03*
X165010000Y-78850000D03*
X167550000Y-78850000D03*
X170090000Y-78850000D03*
X172630000Y-78850000D03*
X175170000Y-78850000D03*
X177710000Y-78850000D03*
X180250000Y-78850000D03*
X182790000Y-78850000D03*
X185330000Y-78850000D03*
X187870000Y-78850000D03*
D25*
X139610000Y-77400000D03*
X139610000Y-82840000D03*
X142150000Y-77400000D03*
X142150000Y-82840000D03*
X144690000Y-82840000D03*
X147230000Y-77400000D03*
X147230000Y-82840000D03*
X149770000Y-77400000D03*
X152310000Y-77400000D03*
X152310000Y-82840000D03*
X154850000Y-82840000D03*
X157390000Y-77400000D03*
X157390000Y-82840000D03*
X159930000Y-77400000D03*
X159930000Y-82840000D03*
X162470000Y-82840000D03*
X165010000Y-77400000D03*
X165010000Y-82840000D03*
X167550000Y-77400000D03*
X167550000Y-82840000D03*
X170090000Y-77400000D03*
X172630000Y-77400000D03*
X172630000Y-82840000D03*
X175170000Y-82840000D03*
X177710000Y-77400000D03*
X177710000Y-82840000D03*
X180250000Y-82840000D03*
X182790000Y-77400000D03*
X182790000Y-82840000D03*
X185330000Y-77400000D03*
X185330000Y-82840000D03*
X187870000Y-77400000D03*
X149770000Y-82840000D03*
X170090000Y-82840000D03*
X187870000Y-82840000D03*
X144690000Y-77400000D03*
X154850000Y-77400000D03*
X162470000Y-77400000D03*
X175170000Y-77400000D03*
X180250000Y-77400000D03*
%TD*%
D13*
%TO.C,C1*%
X146240000Y-94612500D03*
X146240000Y-92787500D03*
%TD*%
D26*
%TO.C,L1*%
X141070000Y-86520000D03*
X138780000Y-86520000D03*
%TD*%
D14*
%TO.C,FID2*%
X133040000Y-87720000D03*
%TD*%
D27*
%TO.C,J1*%
X139190000Y-92590000D03*
X139190000Y-94590000D03*
D28*
X133440000Y-90240000D03*
X133440000Y-96940000D03*
%TD*%
D14*
%TO.C,FID7*%
X147200000Y-86360000D03*
%TD*%
D16*
%TO.C,D1*%
X177190000Y-102762500D03*
X177190000Y-104512500D03*
%TD*%
D29*
%TO.C,C3*%
X143980000Y-88060000D03*
X143980000Y-85770000D03*
%TD*%
D14*
%TO.C,FID5*%
X194760000Y-98950000D03*
%TD*%
D26*
%TO.C,C3*%
X136770000Y-78820000D03*
X134480000Y-78820000D03*
%TD*%
D30*
%TO.C,R4*%
X155525000Y-95980000D03*
X153700000Y-95980000D03*
%TD*%
D16*
%TO.C,D1*%
X183180000Y-102750000D03*
X183180000Y-104500000D03*
%TD*%
D31*
%TO.C,D2*%
X136550000Y-86260000D03*
X136550000Y-83110000D03*
%TD*%
D13*
%TO.C,C1*%
X170070000Y-100352500D03*
X170070000Y-98527500D03*
%TD*%
D32*
%TO.C,U2*%
X167887500Y-101270000D03*
D33*
X167800000Y-99770000D03*
D34*
X165500000Y-99770000D03*
D32*
X167887500Y-98270000D03*
%TD*%
D13*
%TO.C,C1*%
X162440000Y-101712500D03*
X162440000Y-99887500D03*
%TD*%
D17*
%TO.C,R2*%
X176175000Y-101170000D03*
X178000000Y-101170000D03*
%TD*%
%TO.C,R2*%
X183170000Y-101140000D03*
X184995000Y-101140000D03*
%TD*%
D30*
%TO.C,R2*%
X188325000Y-101140000D03*
X186500000Y-101140000D03*
%TD*%
D13*
%TO.C,C1*%
X152020000Y-93132500D03*
X152020000Y-91307500D03*
%TD*%
D35*
%TO.C,U3*%
X149385000Y-88775000D03*
X148885000Y-88775000D03*
X148385000Y-88775000D03*
X148385000Y-91645000D03*
D36*
X147700000Y-89960000D03*
X147700000Y-89460000D03*
X147700000Y-90960000D03*
D35*
X149885000Y-91645000D03*
D36*
X150570000Y-90960000D03*
X150570000Y-89460000D03*
D35*
X149385000Y-91645000D03*
X148885000Y-91645000D03*
D36*
X147700000Y-90460000D03*
X150570000Y-89960000D03*
X150570000Y-90460000D03*
D35*
X149885000Y-88775000D03*
D37*
X149135000Y-90210000D03*
%TD*%
D14*
%TO.C,FID6*%
X188910000Y-104740000D03*
%TD*%
D17*
%TO.C,R1*%
X152040000Y-89790000D03*
X153865000Y-89790000D03*
%TD*%
D16*
%TO.C,D1*%
X180140000Y-102727500D03*
X180140000Y-104477500D03*
%TD*%
D18*
%TO.C,U5*%
X133490000Y-85310000D03*
X132540000Y-82610000D03*
X134440000Y-85310000D03*
X132540000Y-85310000D03*
X134440000Y-82610000D03*
%TD*%
D14*
%TO.C,FID7*%
X159160000Y-88430000D03*
%TD*%
D30*
%TO.C,R1*%
X146042500Y-98360000D03*
X144217500Y-98360000D03*
%TD*%
D17*
%TO.C,R2*%
X179525000Y-101150000D03*
X181350000Y-101150000D03*
%TD*%
D38*
%TO.C,J2*%
X144189000Y-100944000D03*
X145439000Y-100944000D03*
D39*
X142339000Y-104144000D03*
X147289000Y-104144000D03*
%TD*%
M02*
