%TF.GenerationSoftware,KiCad,Pcbnew,8.0.0*%
%TF.CreationDate,2024-03-17T21:06:16+08:00*%
%TF.ProjectId,Photon_Power_Zero_PCB_r1,50686f74-6f6e-45f5-906f-7765725f5a65,rev?*%
%TF.SameCoordinates,Original*%
%TF.FileFunction,Copper,L1,Top*%
%TF.FilePolarity,Positive*%
%FSLAX46Y46*%
G04 Gerber Fmt 4.6, Leading zero omitted, Abs format (unit mm)*
G04 Created by KiCad (PCBNEW 8.0.0) date 2024-03-17 21:06:16*
%MOMM*%
%LPD*%
G01*
G04 APERTURE LIST*
G04 Aperture macros list*
%AMRoundRect*
0 Rectangle with rounded corners*
0 $1 Rounding radius*
0 $2 $3 $4 $5 $6 $7 $8 $9 X,Y pos of 4 corners*
0 Add a 4 corners polygon primitive as box body*
4,1,4,$2,$3,$4,$5,$6,$7,$8,$9,$2,$3,0*
0 Add four circle primitives for the rounded corners*
1,1,$1+$1,$2,$3*
1,1,$1+$1,$4,$5*
1,1,$1+$1,$6,$7*
1,1,$1+$1,$8,$9*
0 Add four rect primitives between the rounded corners*
20,1,$1+$1,$2,$3,$4,$5,0*
20,1,$1+$1,$4,$5,$6,$7,0*
20,1,$1+$1,$6,$7,$8,$9,0*
20,1,$1+$1,$8,$9,$2,$3,0*%
G04 Aperture macros list end*
%TA.AperFunction,SMDPad,CuDef*%
%ADD10RoundRect,0.237500X-0.250000X-0.237500X0.250000X-0.237500X0.250000X0.237500X-0.250000X0.237500X0*%
%TD*%
%TA.AperFunction,SMDPad,CuDef*%
%ADD11C,1.000000*%
%TD*%
%TA.AperFunction,SMDPad,CuDef*%
%ADD12R,1.981200X0.558800*%
%TD*%
%TA.AperFunction,SMDPad,CuDef*%
%ADD13RoundRect,0.237500X0.287500X0.237500X-0.287500X0.237500X-0.287500X-0.237500X0.287500X-0.237500X0*%
%TD*%
%TA.AperFunction,SMDPad,CuDef*%
%ADD14RoundRect,0.237500X-0.237500X0.250000X-0.237500X-0.250000X0.237500X-0.250000X0.237500X0.250000X0*%
%TD*%
%TA.AperFunction,SMDPad,CuDef*%
%ADD15R,1.000000X0.550000*%
%TD*%
%TA.AperFunction,SMDPad,CuDef*%
%ADD16R,2.400000X2.800000*%
%TD*%
%TA.AperFunction,SMDPad,CuDef*%
%ADD17R,1.680000X1.270000*%
%TD*%
%TA.AperFunction,SMDPad,CuDef*%
%ADD18R,3.050000X1.520000*%
%TD*%
%TA.AperFunction,SMDPad,CuDef*%
%ADD19R,1.000000X3.500000*%
%TD*%
%TA.AperFunction,SMDPad,CuDef*%
%ADD20R,1.500000X3.400000*%
%TD*%
%TA.AperFunction,SMDPad,CuDef*%
%ADD21R,1.520000X3.050000*%
%TD*%
%TA.AperFunction,SMDPad,CuDef*%
%ADD22RoundRect,0.237500X0.237500X-0.250000X0.237500X0.250000X-0.237500X0.250000X-0.237500X-0.250000X0*%
%TD*%
%TA.AperFunction,SMDPad,CuDef*%
%ADD23R,0.900000X0.950000*%
%TD*%
%TA.AperFunction,SMDPad,CuDef*%
%ADD24R,0.900000X1.300000*%
%TD*%
%TA.AperFunction,SMDPad,CuDef*%
%ADD25R,0.900000X1.475000*%
%TD*%
%TA.AperFunction,SMDPad,CuDef*%
%ADD26R,1.733000X3.125000*%
%TD*%
%TA.AperFunction,ComponentPad*%
%ADD27C,0.400000*%
%TD*%
%TA.AperFunction,SMDPad,CuDef*%
%ADD28RoundRect,0.007800X0.422200X0.122200X-0.422200X0.122200X-0.422200X-0.122200X0.422200X-0.122200X0*%
%TD*%
%TA.AperFunction,SMDPad,CuDef*%
%ADD29RoundRect,0.007800X0.122200X-0.422200X0.122200X0.422200X-0.122200X0.422200X-0.122200X-0.422200X0*%
%TD*%
%TA.AperFunction,SMDPad,CuDef*%
%ADD30R,1.680000X1.680000*%
%TD*%
%TA.AperFunction,SMDPad,CuDef*%
%ADD31RoundRect,0.150000X-0.700000X0.150000X-0.700000X-0.150000X0.700000X-0.150000X0.700000X0.150000X0*%
%TD*%
%TA.AperFunction,SMDPad,CuDef*%
%ADD32RoundRect,0.250000X-1.100000X0.250000X-1.100000X-0.250000X1.100000X-0.250000X1.100000X0.250000X0*%
%TD*%
%TA.AperFunction,ViaPad*%
%ADD33C,0.800000*%
%TD*%
%TA.AperFunction,ViaPad*%
%ADD34C,0.600000*%
%TD*%
%TA.AperFunction,Conductor*%
%ADD35C,0.200000*%
%TD*%
%TA.AperFunction,Conductor*%
%ADD36C,0.700000*%
%TD*%
%TA.AperFunction,Conductor*%
%ADD37C,0.500000*%
%TD*%
%TA.AperFunction,Conductor*%
%ADD38C,0.250000*%
%TD*%
%TA.AperFunction,Conductor*%
%ADD39C,0.600000*%
%TD*%
%TA.AperFunction,Conductor*%
%ADD40C,0.000000*%
%TD*%
%TA.AperFunction,Conductor*%
%ADD41C,0.400000*%
%TD*%
G04 APERTURE END LIST*
D10*
%TO.P,R1,1*%
%TO.N,N/C*%
X170337500Y-83840000D03*
%TO.P,R1,2*%
%TO.N,VccBQ*%
X172162500Y-83840000D03*
%TD*%
D11*
%TO.P,FID1,*%
%TO.N,*%
X161960000Y-76110000D03*
%TD*%
D12*
%TO.P,U1,GND*%
%TO.N,GND*%
X168150000Y-114545000D03*
%TO.P,U1,PA0*%
%TO.N,N/C*%
X168150000Y-115815000D03*
%TO.P,U1,PA1*%
X168150000Y-117085000D03*
%TO.P,U1,PA2*%
X168150000Y-118355000D03*
%TO.P,U1,PA3*%
X168150000Y-119625000D03*
%TO.P,U1,PA4*%
X168150000Y-120895000D03*
%TO.P,U1,PA5*%
X168150000Y-122165000D03*
%TO.P,U1,PA6*%
X163222400Y-122165000D03*
%TO.P,U1,PA7*%
X163222400Y-120895000D03*
%TO.P,U1,PB0*%
X163222400Y-115815000D03*
%TO.P,U1,PB1*%
X163222400Y-117085000D03*
%TO.P,U1,PB2*%
X163222400Y-119625000D03*
%TO.P,U1,PB3/RST*%
X163222400Y-118355000D03*
%TO.P,U1,VCC*%
%TO.N,3v_to_ATtiny*%
X163222400Y-114545000D03*
%TD*%
D13*
%TO.P,D1,1*%
%TO.N,N/C*%
X158510000Y-128980000D03*
%TO.P,D1,2*%
X156760000Y-128980000D03*
%TD*%
D11*
%TO.P,FID4,*%
%TO.N,*%
X182660000Y-137310000D03*
%TD*%
D10*
%TO.P,C1,1*%
%TO.N,GND*%
X166357500Y-92110000D03*
%TO.P,C1,2*%
%TO.N,VccBQ*%
X168182500Y-92110000D03*
%TD*%
D14*
%TO.P,R4,1*%
%TO.N,N/C*%
X173010000Y-95107500D03*
%TO.P,R4,2*%
%TO.N,GND*%
X173010000Y-96932500D03*
%TD*%
D10*
%TO.P,R1,1*%
%TO.N,VccBattery*%
X174537500Y-92410000D03*
%TO.P,R1,2*%
%TO.N,N/C*%
X176362500Y-92410000D03*
%TD*%
D15*
%TO.P,U4,EN*%
%TO.N,N/C*%
X168550000Y-85770000D03*
%TO.P,U4,FLG*%
X171250000Y-85770000D03*
%TO.P,U4,GND*%
%TO.N,GND*%
X171250000Y-86720000D03*
%TO.P,U4,IN*%
%TO.N,VccBQ*%
X168550000Y-87670000D03*
%TO.P,U4,OUT*%
%TO.N,N/C*%
X171250000Y-87670000D03*
%TD*%
D16*
%TO.P,J3,1A*%
%TO.N,VccSolar*%
X163820000Y-128170000D03*
%TO.P,J3,1B*%
X163820000Y-134270000D03*
%TO.P,J3,2*%
%TO.N,GND*%
X175220000Y-134270000D03*
%TO.P,J3,3*%
X175220000Y-128170000D03*
%TD*%
D11*
%TO.P,FID3,*%
%TO.N,*%
X156480000Y-82990000D03*
%TD*%
D10*
%TO.P,R1,1*%
%TO.N,GND*%
X174537500Y-93920000D03*
%TO.P,R1,2*%
%TO.N,N/C*%
X176362500Y-93920000D03*
%TD*%
D17*
%TO.P,REF\u002A\u002A,01*%
%TO.N,5v2RPi*%
X183890000Y-82680000D03*
%TO.P,REF\u002A\u002A,02*%
%TO.N,N/C*%
X178450000Y-82680000D03*
%TO.P,REF\u002A\u002A,03*%
X183890000Y-85220000D03*
%TO.P,REF\u002A\u002A,04*%
X178450000Y-85220000D03*
%TO.P,REF\u002A\u002A,06*%
X178450000Y-87760000D03*
%TO.P,REF\u002A\u002A,07*%
X183890000Y-90300000D03*
%TO.P,REF\u002A\u002A,08*%
X178450000Y-90300000D03*
%TO.P,REF\u002A\u002A,09*%
X183890000Y-92840000D03*
%TO.P,REF\u002A\u002A,11*%
X183890000Y-95380000D03*
%TO.P,REF\u002A\u002A,12*%
X178450000Y-95380000D03*
%TO.P,REF\u002A\u002A,14*%
X178450000Y-97920000D03*
%TO.P,REF\u002A\u002A,15*%
X183890000Y-100460000D03*
%TO.P,REF\u002A\u002A,16*%
X178450000Y-100460000D03*
%TO.P,REF\u002A\u002A,17*%
X183890000Y-103000000D03*
%TO.P,REF\u002A\u002A,18*%
X178450000Y-103000000D03*
%TO.P,REF\u002A\u002A,20*%
X178450000Y-105540000D03*
%TO.P,REF\u002A\u002A,21*%
X183890000Y-108080000D03*
%TO.P,REF\u002A\u002A,22*%
X178450000Y-108080000D03*
%TO.P,REF\u002A\u002A,23*%
X183890000Y-110620000D03*
%TO.P,REF\u002A\u002A,24*%
X178450000Y-110620000D03*
%TO.P,REF\u002A\u002A,25*%
X183890000Y-113160000D03*
%TO.P,REF\u002A\u002A,27*%
X183890000Y-115700000D03*
%TO.P,REF\u002A\u002A,28*%
X178450000Y-115700000D03*
%TO.P,REF\u002A\u002A,30*%
X178450000Y-118240000D03*
%TO.P,REF\u002A\u002A,31*%
X183890000Y-120780000D03*
%TO.P,REF\u002A\u002A,32*%
X178450000Y-120780000D03*
%TO.P,REF\u002A\u002A,34*%
X178450000Y-123320000D03*
%TO.P,REF\u002A\u002A,35*%
X183890000Y-125860000D03*
%TO.P,REF\u002A\u002A,36*%
X178450000Y-125860000D03*
%TO.P,REF\u002A\u002A,37*%
X183890000Y-128400000D03*
%TO.P,REF\u002A\u002A,38*%
X178450000Y-128400000D03*
%TO.P,REF\u002A\u002A,39*%
X183890000Y-130940000D03*
%TO.P,REF\u002A\u002A,GND*%
%TO.N,GND*%
X178450000Y-92840000D03*
X178450000Y-113160000D03*
X178450000Y-130940000D03*
X183890000Y-87760000D03*
X183890000Y-97920000D03*
X183890000Y-105540000D03*
X183890000Y-118240000D03*
X183890000Y-123320000D03*
%TD*%
D10*
%TO.P,C1,1*%
%TO.N,GND*%
X166677500Y-89310000D03*
%TO.P,C1,2*%
%TO.N,VccBQ*%
X168502500Y-89310000D03*
%TD*%
D18*
%TO.P,L1,1*%
%TO.N,N/C*%
X174770000Y-84140000D03*
%TO.P,L1,2*%
X174770000Y-81850000D03*
%TD*%
D11*
%TO.P,FID2,*%
%TO.N,*%
X173570000Y-76110000D03*
%TD*%
D19*
%TO.P,J1,1*%
%TO.N,VccBattery*%
X168700000Y-82260000D03*
%TO.P,J1,2*%
%TO.N,GND*%
X166700000Y-82260000D03*
D20*
%TO.P,J1,S1*%
%TO.N,N/C*%
X171050000Y-76510000D03*
%TO.P,J1,S2*%
X164350000Y-76510000D03*
%TD*%
D11*
%TO.P,FID7,*%
%TO.N,*%
X174930000Y-90270000D03*
%TD*%
D13*
%TO.P,D1,1*%
%TO.N,N/C*%
X158527500Y-120260000D03*
%TO.P,D1,2*%
%TO.N,GND*%
X156777500Y-120260000D03*
%TD*%
D21*
%TO.P,C3,1*%
%TO.N,N/C*%
X173230000Y-87050000D03*
%TO.P,C3,2*%
%TO.N,GND*%
X175520000Y-87050000D03*
%TD*%
D11*
%TO.P,FID5,*%
%TO.N,*%
X162340000Y-137830000D03*
%TD*%
D18*
%TO.P,C3,1*%
%TO.N,5v2RPi*%
X182470000Y-79840000D03*
%TO.P,C3,2*%
%TO.N,GND*%
X182470000Y-77550000D03*
%TD*%
D22*
%TO.P,R4,1*%
%TO.N,GND*%
X165310000Y-98595000D03*
%TO.P,R4,2*%
%TO.N,N/C*%
X165310000Y-96770000D03*
%TD*%
D13*
%TO.P,D1,1*%
%TO.N,N/C*%
X158540000Y-126250000D03*
%TO.P,D1,2*%
X156790000Y-126250000D03*
%TD*%
D23*
%TO.P,D2,A*%
%TO.N,N/C*%
X175030000Y-79620000D03*
%TO.P,D2,K*%
%TO.N,5v2RPi*%
X178180000Y-79620000D03*
%TD*%
D10*
%TO.P,C1,1*%
%TO.N,GND*%
X160937500Y-113140000D03*
%TO.P,C1,2*%
%TO.N,3v_to_ATtiny*%
X162762500Y-113140000D03*
%TD*%
D24*
%TO.P,U2,1*%
%TO.N,GND*%
X160020000Y-110957500D03*
D25*
%TO.P,U2,2*%
%TO.N,VccBQ*%
X161520000Y-110870000D03*
D26*
%TO.P,U2,2.1*%
X161520000Y-108570000D03*
D24*
%TO.P,U2,3*%
%TO.N,3v_to_ATtiny*%
X163020000Y-110957500D03*
%TD*%
D10*
%TO.P,C1,1*%
%TO.N,GND*%
X159577500Y-105510000D03*
%TO.P,C1,2*%
%TO.N,VccBQ*%
X161402500Y-105510000D03*
%TD*%
D14*
%TO.P,R2,1*%
%TO.N,N/C*%
X160120000Y-119245000D03*
%TO.P,R2,2*%
X160120000Y-121070000D03*
%TD*%
%TO.P,R2,1*%
%TO.N,N/C*%
X160150000Y-126240000D03*
%TO.P,R2,2*%
%TO.N,VccBQ*%
X160150000Y-128065000D03*
%TD*%
D22*
%TO.P,R2,1*%
%TO.N,N/C*%
X160150000Y-131395000D03*
%TO.P,R2,2*%
%TO.N,VccBQ*%
X160150000Y-129570000D03*
%TD*%
D10*
%TO.P,C1,1*%
%TO.N,GND*%
X168157500Y-95090000D03*
%TO.P,C1,2*%
%TO.N,VccSolar*%
X169982500Y-95090000D03*
%TD*%
D27*
%TO.P,U3,18*%
%TO.N,GND*%
X171080000Y-92205000D03*
%TO.P,U3,19*%
X170500000Y-92785000D03*
%TO.P,U3,20*%
X170500000Y-91625000D03*
%TO.P,U3,21*%
X171660000Y-92785000D03*
%TO.P,U3,22*%
X171660000Y-91625000D03*
D28*
%TO.P,U3,BATT*%
%TO.N,VccBattery*%
X172515000Y-92455000D03*
%TO.P,U3,Batt*%
X172515000Y-91955000D03*
%TO.P,U3,CE*%
%TO.N,GND*%
X172515000Y-91455000D03*
%TO.P,U3,CHG*%
%TO.N,N/C*%
X169645000Y-91455000D03*
D29*
%TO.P,U3,EN1*%
%TO.N,GND*%
X171330000Y-90770000D03*
%TO.P,U3,EN2*%
%TO.N,VccBQ*%
X171830000Y-90770000D03*
%TO.P,U3,GND*%
%TO.N,GND*%
X170330000Y-90770000D03*
D28*
%TO.P,U3,ILM*%
%TO.N,N/C*%
X169645000Y-92955000D03*
D29*
%TO.P,U3,IN*%
%TO.N,VccSolar*%
X170330000Y-93640000D03*
%TO.P,U3,ISET*%
%TO.N,N/C*%
X171830000Y-93640000D03*
D28*
%TO.P,U3,OUT*%
%TO.N,VccBQ*%
X169645000Y-92455000D03*
X169645000Y-91955000D03*
D29*
%TO.P,U3,PGOOD*%
%TO.N,N/C*%
X170830000Y-90770000D03*
%TO.P,U3,TD*%
X171330000Y-93640000D03*
%TO.P,U3,TMR*%
%TO.N,GND*%
X170830000Y-93640000D03*
D28*
%TO.P,U3,TS*%
%TO.N,N/C*%
X172515000Y-92955000D03*
D30*
%TO.P,U3,Thermal GND*%
%TO.N,GND*%
X171080000Y-92205000D03*
%TD*%
D11*
%TO.P,FID6,*%
%TO.N,*%
X156550000Y-131980000D03*
%TD*%
D14*
%TO.P,R1,1*%
%TO.N,N/C*%
X171500000Y-95120000D03*
%TO.P,R1,2*%
%TO.N,GND*%
X171500000Y-96945000D03*
%TD*%
D13*
%TO.P,D1,1*%
%TO.N,N/C*%
X158562500Y-123210000D03*
%TO.P,D1,2*%
%TO.N,GND*%
X156812500Y-123210000D03*
%TD*%
D15*
%TO.P,U5,GND*%
%TO.N,GND*%
X175980000Y-76560000D03*
%TO.P,U5,NC*%
%TO.N,N/C*%
X178680000Y-75610000D03*
X175980000Y-77510000D03*
%TO.P,U5,SW*%
X175980000Y-75610000D03*
%TO.P,U5,Vout*%
%TO.N,5v2RPi*%
X178680000Y-77510000D03*
%TD*%
D11*
%TO.P,FID7,*%
%TO.N,*%
X172860000Y-102230000D03*
%TD*%
D22*
%TO.P,R1,1*%
%TO.N,N/C*%
X162930000Y-89112500D03*
%TO.P,R1,2*%
%TO.N,GND*%
X162930000Y-87287500D03*
%TD*%
D14*
%TO.P,R2,1*%
%TO.N,N/C*%
X160140000Y-122595000D03*
%TO.P,R2,2*%
X160140000Y-124420000D03*
%TD*%
D31*
%TO.P,J2,1*%
%TO.N,GND*%
X160346000Y-87259000D03*
%TO.P,J2,2*%
%TO.N,N/C*%
X160346000Y-88509000D03*
D32*
%TO.P,J2,MP*%
X157146000Y-85409000D03*
X157146000Y-90359000D03*
%TD*%
D33*
%TO.N,*%
X170310000Y-89839500D03*
D34*
X158830000Y-114070000D03*
D33*
X182460000Y-127150000D03*
X165240000Y-116220000D03*
X167380000Y-85780000D03*
X169620000Y-122175000D03*
D34*
X164680000Y-89112500D03*
D33*
X158970000Y-127580000D03*
X164700000Y-119650000D03*
D34*
X173405122Y-93374878D03*
D33*
X169770000Y-115815000D03*
X158980000Y-124610000D03*
D34*
X176370000Y-94940000D03*
D33*
X169467973Y-89839500D03*
X164670000Y-118190000D03*
X169650000Y-120905000D03*
D34*
X182980000Y-132470000D03*
D33*
%TO.N,5v2RPi*%
X179200000Y-80610000D03*
D34*
%TO.N,GND*%
X183720000Y-122060000D03*
D33*
X165720000Y-92870000D03*
X159960000Y-113120000D03*
X165290000Y-99760000D03*
X156770000Y-119330000D03*
X171520000Y-97882000D03*
X156830000Y-122100000D03*
D34*
X178420000Y-111910000D03*
D33*
X173000000Y-97919500D03*
X167170000Y-95190000D03*
X176440000Y-88950000D03*
D34*
X183890000Y-96860000D03*
X161750000Y-87280000D03*
D33*
X165400000Y-81010000D03*
D34*
X174530000Y-94982500D03*
X159580000Y-104440000D03*
D33*
X178450000Y-94050000D03*
X173470000Y-126920000D03*
X182520000Y-76290498D03*
X177020000Y-75940000D03*
X183710000Y-86490000D03*
X175240000Y-132220000D03*
D34*
X183690000Y-104430000D03*
D33*
X168150000Y-113755000D03*
D34*
X183680000Y-116980000D03*
D33*
X165820000Y-89729500D03*
X170340000Y-86720000D03*
%TO.N,VccSolar*%
X165580000Y-134230000D03*
%TO.N,VccBattery*%
X169860000Y-81380000D03*
D34*
%TO.N,VccBQ*%
X165150000Y-102260000D03*
X167990000Y-99440000D03*
D33*
%TO.N,3v_to_ATtiny*%
X163970000Y-113140000D03*
%TD*%
D35*
%TO.N,*%
X176362500Y-93920000D02*
X176362500Y-94932500D01*
X175935000Y-124580000D02*
X182610000Y-124580000D01*
X160295000Y-120895000D02*
X160120000Y-121070000D01*
X164505000Y-118355000D02*
X164670000Y-118190000D01*
D36*
X171250000Y-87670000D02*
X172615000Y-87670000D01*
D35*
X171330000Y-94950000D02*
X171500000Y-95120000D01*
D37*
X173230000Y-87050000D02*
X173230000Y-85960000D01*
D35*
X158830000Y-114070000D02*
X160575000Y-115815000D01*
X171250000Y-84752500D02*
X171250000Y-85770000D01*
X163222400Y-122165000D02*
X164415000Y-122165000D01*
X160120000Y-119245000D02*
X159542500Y-119245000D01*
X170310000Y-89839500D02*
X170310000Y-89911726D01*
X164680000Y-89112500D02*
X162930000Y-89112500D01*
X177330000Y-125430000D02*
X177760000Y-125860000D01*
D37*
X172615000Y-87670000D02*
X173235000Y-87050000D01*
D35*
X183890000Y-130940000D02*
X183890000Y-131560000D01*
X168150000Y-118355000D02*
X169650000Y-118355000D01*
D36*
X173230000Y-85960000D02*
X175050000Y-84140000D01*
D35*
X169467973Y-89839500D02*
X169645000Y-90016527D01*
X160140000Y-124420000D02*
X159085000Y-123365000D01*
X169620000Y-119625000D02*
X169745000Y-119625000D01*
X163222400Y-122165000D02*
X160570000Y-122165000D01*
X169610000Y-122165000D02*
X169620000Y-122175000D01*
X170985000Y-122175000D02*
X169620000Y-122175000D01*
X169650000Y-118355000D02*
X169680000Y-118325000D01*
D38*
X158160000Y-127580000D02*
X156760000Y-128980000D01*
X158430000Y-124610000D02*
X156790000Y-126250000D01*
D35*
X176362500Y-92410000D02*
X176362500Y-93920000D01*
X176550000Y-126070000D02*
X178450000Y-127970000D01*
X169745000Y-119625000D02*
X175550000Y-125430000D01*
X163247400Y-119650000D02*
X163222400Y-119625000D01*
X167390000Y-85770000D02*
X168550000Y-85770000D01*
D38*
X158970000Y-127580000D02*
X158160000Y-127580000D01*
D35*
X169645000Y-90016527D02*
X169645000Y-91455000D01*
X163222400Y-120895000D02*
X160295000Y-120895000D01*
X165240000Y-121340000D02*
X165240000Y-116220000D01*
X170337500Y-83840000D02*
X171250000Y-84752500D01*
D39*
X175555000Y-75610000D02*
X175980000Y-75610000D01*
X175030000Y-81590000D02*
X174770000Y-81850000D01*
D35*
X167210000Y-94160000D02*
X165310000Y-96060000D01*
X168150000Y-115815000D02*
X169770000Y-115815000D01*
X158785000Y-130030000D02*
X158785000Y-129255000D01*
X176362500Y-94932500D02*
X176370000Y-94940000D01*
X160570000Y-122165000D02*
X160140000Y-122595000D01*
X182640000Y-127150000D02*
X183890000Y-128400000D01*
X178450000Y-127970000D02*
X178450000Y-128400000D01*
X182460000Y-127150000D02*
X182640000Y-127150000D01*
X174880000Y-126070000D02*
X170985000Y-122175000D01*
X168150000Y-119625000D02*
X169620000Y-119625000D01*
X176550000Y-126070000D02*
X174880000Y-126070000D01*
X159542500Y-119245000D02*
X158527500Y-120260000D01*
D39*
X175030000Y-79620000D02*
X175030000Y-76135000D01*
D35*
X171830000Y-93640000D02*
X171830000Y-93820000D01*
X168150000Y-120895000D02*
X169640000Y-120895000D01*
D38*
X169670000Y-117085000D02*
X175905000Y-123320000D01*
D35*
X177760000Y-125860000D02*
X178450000Y-125860000D01*
X171330000Y-94790000D02*
X171450000Y-94910000D01*
X171330000Y-93640000D02*
X171330000Y-94950000D01*
X159085000Y-123365000D02*
X158575000Y-123365000D01*
X171830000Y-93820000D02*
X172920000Y-94910000D01*
X169640000Y-120895000D02*
X169650000Y-120905000D01*
X168150000Y-122165000D02*
X169610000Y-122165000D01*
X172934878Y-93374878D02*
X172515000Y-92955000D01*
X168440000Y-94160000D02*
X167210000Y-94160000D01*
X162922500Y-89120000D02*
X162930000Y-89112500D01*
X158785000Y-130030000D02*
X160150000Y-131395000D01*
X169645000Y-92955000D02*
X168440000Y-94160000D01*
X169620000Y-119625000D02*
X169630000Y-119615000D01*
X160575000Y-115815000D02*
X163222400Y-115815000D01*
X164700000Y-119650000D02*
X163247400Y-119650000D01*
X163222400Y-118355000D02*
X164505000Y-118355000D01*
D39*
X175030000Y-76135000D02*
X175555000Y-75610000D01*
D35*
X171330000Y-94900000D02*
X171500000Y-95070000D01*
X165310000Y-96060000D02*
X165310000Y-96770000D01*
X175550000Y-125430000D02*
X177330000Y-125430000D01*
X170310000Y-89911726D02*
X170830000Y-90431726D01*
D38*
X175905000Y-123320000D02*
X178450000Y-123320000D01*
D35*
X169680000Y-118325000D02*
X175935000Y-124580000D01*
X158785000Y-129255000D02*
X158510000Y-128980000D01*
X173405122Y-93374878D02*
X172934878Y-93374878D01*
X170830000Y-90431726D02*
X170830000Y-90770000D01*
X171330000Y-93640000D02*
X171330000Y-94900000D01*
X167380000Y-85780000D02*
X167390000Y-85770000D01*
X182610000Y-124580000D02*
X183890000Y-125860000D01*
X164415000Y-122165000D02*
X165240000Y-121340000D01*
D38*
X158980000Y-124610000D02*
X158430000Y-124610000D01*
X168150000Y-117085000D02*
X169670000Y-117085000D01*
D39*
X175030000Y-79620000D02*
X175030000Y-81590000D01*
D35*
X160957000Y-89120000D02*
X162922500Y-89120000D01*
X183890000Y-131560000D02*
X182980000Y-132470000D01*
X160957000Y-89120000D02*
X160346000Y-88509000D01*
D40*
X171330000Y-94260000D02*
X171370000Y-94300000D01*
D37*
%TO.N,5v2RPi*%
X180390000Y-79620000D02*
X180610000Y-79840000D01*
D39*
X178680000Y-77910000D02*
X178680000Y-77510000D01*
X179670000Y-79620000D02*
X180390000Y-79620000D01*
X179200000Y-80610000D02*
X179680000Y-80130000D01*
X182470000Y-79840000D02*
X180610000Y-79840000D01*
X179615000Y-78845000D02*
X178680000Y-77910000D01*
X182740000Y-80110000D02*
X182470000Y-79840000D01*
X178180000Y-79620000D02*
X179670000Y-79620000D01*
X183890000Y-82260000D02*
X183890000Y-82680000D01*
D36*
X182740000Y-81110000D02*
X183890000Y-82260000D01*
X182740000Y-81110000D02*
X182740000Y-80110000D01*
X182740000Y-81110000D02*
X182740000Y-80850000D01*
D39*
X179680000Y-80130000D02*
X179680000Y-79630000D01*
X179615000Y-78845000D02*
X180610000Y-79840000D01*
D35*
%TO.N,GND*%
X160367000Y-87280000D02*
X160346000Y-87259000D01*
D38*
X165720000Y-92870000D02*
X165910000Y-92870000D01*
D35*
X183720000Y-123150000D02*
X183890000Y-123320000D01*
D38*
X170330000Y-91455000D02*
X170500000Y-91625000D01*
X156830000Y-122100000D02*
X156830000Y-123360000D01*
X175980000Y-76560000D02*
X176400000Y-76560000D01*
X172515000Y-91455000D02*
X171830000Y-91455000D01*
D39*
X183690000Y-104430000D02*
X183690000Y-105340000D01*
D35*
X173010000Y-97909500D02*
X173000000Y-97919500D01*
D38*
X156770000Y-119330000D02*
X156770000Y-120252500D01*
X165910000Y-92870000D02*
X166640000Y-92140000D01*
D35*
X159577500Y-105510000D02*
X159577500Y-104442500D01*
D38*
X168057500Y-95190000D02*
X168157500Y-95090000D01*
D35*
X182520000Y-77500000D02*
X182470000Y-77550000D01*
D41*
X160020000Y-113060000D02*
X159960000Y-113120000D01*
D35*
X170300000Y-86740000D02*
X170310000Y-86750000D01*
X174537500Y-93920000D02*
X174537500Y-94975000D01*
X165820000Y-89729500D02*
X166100500Y-89729500D01*
D37*
X175220000Y-132240000D02*
X175240000Y-132220000D01*
D35*
X161757500Y-87287500D02*
X161750000Y-87280000D01*
X171520000Y-97882000D02*
X171520000Y-96965000D01*
X183710000Y-86490000D02*
X183710000Y-87580000D01*
D38*
X171330000Y-91295000D02*
X171330000Y-90770000D01*
D35*
X183710000Y-87580000D02*
X183890000Y-87760000D01*
D37*
X166650000Y-82260000D02*
X165400000Y-81010000D01*
D38*
X176400000Y-76560000D02*
X177020000Y-75940000D01*
D35*
X166100500Y-89729500D02*
X166490000Y-89340000D01*
D41*
X175525000Y-88035000D02*
X175525000Y-86330000D01*
D35*
X178450000Y-111940000D02*
X178420000Y-111910000D01*
D40*
X174537500Y-94975000D02*
X174530000Y-94982500D01*
D39*
X175220000Y-128170000D02*
X177990000Y-130940000D01*
D41*
X176440000Y-88950000D02*
X175525000Y-88035000D01*
D35*
X183890000Y-96860000D02*
X183890000Y-97920000D01*
X173010000Y-96932500D02*
X173010000Y-97909500D01*
X159577500Y-104442500D02*
X159580000Y-104440000D01*
X183680000Y-116980000D02*
X183680000Y-118030000D01*
X166500000Y-82100000D02*
X166650000Y-82250000D01*
D37*
X178450000Y-113160000D02*
X178450000Y-111940000D01*
D35*
X165310000Y-98595000D02*
X165310000Y-99740000D01*
D39*
X174720000Y-128170000D02*
X173470000Y-126920000D01*
D35*
X171520000Y-96965000D02*
X171500000Y-96945000D01*
X183680000Y-118030000D02*
X183890000Y-118240000D01*
D38*
X170330000Y-90770000D02*
X170330000Y-91455000D01*
D35*
X166700000Y-82260000D02*
X166650000Y-82260000D01*
X178450000Y-94050000D02*
X178450000Y-92840000D01*
D38*
X171830000Y-91455000D02*
X171660000Y-91625000D01*
D41*
X160020000Y-110957500D02*
X160020000Y-113060000D01*
D35*
X162930000Y-87287500D02*
X161757500Y-87287500D01*
D38*
X156770000Y-120252500D02*
X156777500Y-120260000D01*
D37*
X168150000Y-113755000D02*
X168150000Y-114545000D01*
D39*
X178265000Y-130940000D02*
X178010000Y-130940000D01*
X175220000Y-133985000D02*
X178265000Y-130940000D01*
X175220000Y-128170000D02*
X174720000Y-128170000D01*
D35*
X183720000Y-122060000D02*
X183720000Y-123150000D01*
X183690000Y-105340000D02*
X183890000Y-105540000D01*
D38*
X171660000Y-91625000D02*
X171330000Y-91295000D01*
D37*
X175220000Y-134270000D02*
X175220000Y-133985000D01*
D35*
X165310000Y-99740000D02*
X165290000Y-99760000D01*
D38*
X171330000Y-91955000D02*
X171080000Y-92205000D01*
D41*
X182520000Y-76290498D02*
X182520000Y-77500000D01*
D38*
X167170000Y-95190000D02*
X168057500Y-95190000D01*
D41*
X159960000Y-113120000D02*
X160917500Y-113120000D01*
X160917500Y-113120000D02*
X160937500Y-113140000D01*
D35*
X161750000Y-87280000D02*
X160367000Y-87280000D01*
D38*
X170830000Y-93115000D02*
X170500000Y-92785000D01*
D37*
X170310000Y-86750000D02*
X171210000Y-86750000D01*
D39*
X177990000Y-130940000D02*
X178265000Y-130940000D01*
D38*
X170830000Y-93640000D02*
X170830000Y-93115000D01*
D37*
X175220000Y-134270000D02*
X175220000Y-132240000D01*
D39*
%TO.N,VccSolar*%
X163820000Y-128170000D02*
X163820000Y-134270000D01*
D35*
X170050000Y-93930000D02*
X169982500Y-93997500D01*
D39*
X165540000Y-134270000D02*
X165580000Y-134230000D01*
X166560000Y-125430000D02*
X163820000Y-128170000D01*
X163820000Y-134270000D02*
X165540000Y-134270000D01*
X166560000Y-98512500D02*
X166560000Y-125430000D01*
D35*
X170050000Y-93920000D02*
X170050000Y-93930000D01*
D39*
X169982500Y-95090000D02*
X166560000Y-98512500D01*
X169982500Y-93997500D02*
X169982500Y-95090000D01*
D37*
X170330000Y-93640000D02*
X170050000Y-93920000D01*
D35*
%TO.N,VccBattery*%
X174497500Y-92410000D02*
X173676000Y-92410000D01*
D37*
X173460000Y-91270000D02*
X169710000Y-87520000D01*
X172515000Y-91955000D02*
X173221000Y-91955000D01*
X168980000Y-82260000D02*
X169860000Y-81380000D01*
X169550000Y-85270000D02*
X169550000Y-87360000D01*
D35*
X168631396Y-83900000D02*
X168520000Y-83900000D01*
D37*
X169550000Y-87360000D02*
X169710000Y-87520000D01*
X172871000Y-92099000D02*
X172515000Y-92455000D01*
X168700000Y-82260000D02*
X168700000Y-84420000D01*
X173015000Y-91955000D02*
X172871000Y-92099000D01*
X173460000Y-91716000D02*
X173460000Y-91270000D01*
X173221000Y-91955000D02*
X173460000Y-91716000D01*
X173221000Y-91955000D02*
X173015000Y-91955000D01*
X168700000Y-82260000D02*
X168980000Y-82260000D01*
D35*
X173676000Y-92410000D02*
X173221000Y-91955000D01*
D37*
X168700000Y-84420000D02*
X169550000Y-85270000D01*
D38*
%TO.N,VccBQ*%
X168535000Y-91955000D02*
X168350000Y-92140000D01*
D41*
X168502500Y-87717500D02*
X168550000Y-87670000D01*
D35*
X168630000Y-89240000D02*
X168510000Y-89360000D01*
D38*
X168510000Y-91930000D02*
X168535000Y-91955000D01*
D35*
X171830000Y-90770000D02*
X171830000Y-90431726D01*
D37*
X169645000Y-91955000D02*
X168535000Y-91955000D01*
X168510000Y-89317500D02*
X168502500Y-89310000D01*
D39*
X168510000Y-91930000D02*
X168510000Y-89317500D01*
D37*
X161520000Y-108570000D02*
X161520000Y-110870000D01*
D41*
X161680000Y-108030000D02*
X161680000Y-109830000D01*
D39*
X168502500Y-89310000D02*
X168502500Y-87717500D01*
D41*
X161410000Y-99020000D02*
X168290000Y-92140000D01*
D35*
X171830000Y-90431726D02*
X170638274Y-89240000D01*
X170638274Y-89240000D02*
X168630000Y-89240000D01*
D41*
X161410000Y-99020000D02*
X161410000Y-107000000D01*
D37*
X169645000Y-91955000D02*
X169645000Y-92455000D01*
X168665000Y-92455000D02*
X168350000Y-92140000D01*
D38*
X161430000Y-105890000D02*
X161430000Y-106810000D01*
D41*
X168290000Y-92140000D02*
X168350000Y-92140000D01*
D37*
X169645000Y-92455000D02*
X168665000Y-92455000D01*
D38*
X161420000Y-105880000D02*
X161430000Y-105890000D01*
D35*
%TO.N,3v_to_ATtiny*%
X163020000Y-113020000D02*
X162960000Y-113080000D01*
D41*
X162762500Y-113140000D02*
X163970000Y-113140000D01*
X162762500Y-114085100D02*
X163222400Y-114545000D01*
X163020000Y-110957500D02*
X163020000Y-112882500D01*
X163020000Y-112882500D02*
X162762500Y-113140000D01*
X162762500Y-113140000D02*
X162762500Y-114085100D01*
%TD*%
%TA.AperFunction,Conductor*%
%TO.N,VccBQ*%
G36*
X163051906Y-74540502D02*
G01*
X163098399Y-74594158D01*
X163108503Y-74664432D01*
X163101842Y-74690526D01*
X163098442Y-74699643D01*
X163098009Y-74700804D01*
X163091500Y-74761350D01*
X163091500Y-75601451D01*
X163071498Y-75669572D01*
X163017842Y-75716065D01*
X162947568Y-75726169D01*
X162882988Y-75696675D01*
X162854378Y-75660847D01*
X162795909Y-75551461D01*
X162772113Y-75522466D01*
X162670883Y-75399117D01*
X162518538Y-75274090D01*
X162458730Y-75242122D01*
X162344728Y-75181186D01*
X162156125Y-75123974D01*
X161960003Y-75104659D01*
X161959997Y-75104659D01*
X161763875Y-75123974D01*
X161763873Y-75123974D01*
X161575271Y-75181186D01*
X161401461Y-75274090D01*
X161249117Y-75399117D01*
X161124090Y-75551461D01*
X161031186Y-75725271D01*
X160973974Y-75913873D01*
X160973974Y-75913875D01*
X160954659Y-76109996D01*
X160954659Y-76110003D01*
X160973974Y-76306124D01*
X160973974Y-76306126D01*
X161031186Y-76494728D01*
X161072402Y-76571837D01*
X161124090Y-76668538D01*
X161249117Y-76820883D01*
X161401462Y-76945910D01*
X161481689Y-76988792D01*
X161568137Y-77035000D01*
X161575273Y-77038814D01*
X161763868Y-77096024D01*
X161763872Y-77096024D01*
X161763874Y-77096025D01*
X161959997Y-77115341D01*
X161960000Y-77115341D01*
X161960003Y-77115341D01*
X162156124Y-77096025D01*
X162156126Y-77096025D01*
X162156127Y-77096024D01*
X162156132Y-77096024D01*
X162344727Y-77038814D01*
X162518538Y-76945910D01*
X162670883Y-76820883D01*
X162795910Y-76668538D01*
X162854378Y-76559151D01*
X162904130Y-76508504D01*
X162973367Y-76492794D01*
X163040106Y-76517010D01*
X163083158Y-76573464D01*
X163091500Y-76618548D01*
X163091500Y-78258649D01*
X163098009Y-78319196D01*
X163098011Y-78319204D01*
X163149110Y-78456202D01*
X163149112Y-78456207D01*
X163236738Y-78573261D01*
X163353792Y-78660887D01*
X163353794Y-78660888D01*
X163353796Y-78660889D01*
X163412875Y-78682924D01*
X163490795Y-78711988D01*
X163490803Y-78711990D01*
X163551350Y-78718499D01*
X163551355Y-78718499D01*
X163551362Y-78718500D01*
X163551368Y-78718500D01*
X165148632Y-78718500D01*
X165148638Y-78718500D01*
X165148645Y-78718499D01*
X165148649Y-78718499D01*
X165209196Y-78711990D01*
X165209199Y-78711989D01*
X165209201Y-78711989D01*
X165346204Y-78660889D01*
X165401507Y-78619490D01*
X165463261Y-78573261D01*
X165550887Y-78456207D01*
X165550887Y-78456206D01*
X165550889Y-78456204D01*
X165601989Y-78319201D01*
X165604753Y-78293499D01*
X165608499Y-78258649D01*
X165608500Y-78258632D01*
X165608500Y-74761367D01*
X165608499Y-74761350D01*
X165601990Y-74700804D01*
X165601989Y-74700802D01*
X165601989Y-74700799D01*
X165598159Y-74690532D01*
X165593094Y-74619720D01*
X165627117Y-74557407D01*
X165689429Y-74523380D01*
X165716215Y-74520500D01*
X169683785Y-74520500D01*
X169751906Y-74540502D01*
X169798399Y-74594158D01*
X169808503Y-74664432D01*
X169801842Y-74690526D01*
X169798442Y-74699643D01*
X169798009Y-74700804D01*
X169791500Y-74761350D01*
X169791500Y-78258649D01*
X169798009Y-78319196D01*
X169798011Y-78319204D01*
X169849110Y-78456202D01*
X169849112Y-78456207D01*
X169936738Y-78573261D01*
X170053792Y-78660887D01*
X170053794Y-78660888D01*
X170053796Y-78660889D01*
X170112875Y-78682924D01*
X170190795Y-78711988D01*
X170190803Y-78711990D01*
X170251350Y-78718499D01*
X170251355Y-78718499D01*
X170251362Y-78718500D01*
X170251368Y-78718500D01*
X171848632Y-78718500D01*
X171848638Y-78718500D01*
X171848645Y-78718499D01*
X171848649Y-78718499D01*
X171909196Y-78711990D01*
X171909199Y-78711989D01*
X171909201Y-78711989D01*
X172046204Y-78660889D01*
X172101507Y-78619490D01*
X172163261Y-78573261D01*
X172250887Y-78456207D01*
X172250887Y-78456206D01*
X172250889Y-78456204D01*
X172301989Y-78319201D01*
X172304753Y-78293499D01*
X172308499Y-78258649D01*
X172308500Y-78258632D01*
X172308500Y-74761367D01*
X172308499Y-74761350D01*
X172301990Y-74700804D01*
X172301989Y-74700802D01*
X172301989Y-74700799D01*
X172298159Y-74690532D01*
X172293094Y-74619720D01*
X172327117Y-74557407D01*
X172389429Y-74523380D01*
X172416215Y-74520500D01*
X181813071Y-74520500D01*
X181836707Y-74520500D01*
X181843301Y-74520673D01*
X182142752Y-74536366D01*
X182155867Y-74537743D01*
X182320353Y-74563796D01*
X182448793Y-74584139D01*
X182461693Y-74586881D01*
X182748162Y-74663640D01*
X182760703Y-74667715D01*
X183037576Y-74773997D01*
X183049608Y-74779353D01*
X183313873Y-74914003D01*
X183325289Y-74920595D01*
X183574017Y-75082121D01*
X183584686Y-75089873D01*
X183815160Y-75276507D01*
X183824961Y-75285332D01*
X184034667Y-75495038D01*
X184043492Y-75504839D01*
X184230126Y-75735313D01*
X184237878Y-75745982D01*
X184399404Y-75994710D01*
X184405999Y-76006132D01*
X184522270Y-76234327D01*
X184535902Y-76261080D01*
X184549006Y-76330857D01*
X184522306Y-76396641D01*
X184464279Y-76437548D01*
X184393347Y-76440589D01*
X184348126Y-76419151D01*
X184241207Y-76339112D01*
X184241202Y-76339110D01*
X184104204Y-76288011D01*
X184104196Y-76288009D01*
X184043649Y-76281500D01*
X184043638Y-76281500D01*
X183546010Y-76281500D01*
X183477889Y-76261498D01*
X183431396Y-76207842D01*
X183420700Y-76168671D01*
X183413542Y-76100570D01*
X183394899Y-76043194D01*
X183354527Y-75918942D01*
X183259040Y-75753554D01*
X183259038Y-75753552D01*
X183259034Y-75753546D01*
X183131255Y-75611633D01*
X182976752Y-75499380D01*
X182802288Y-75421704D01*
X182615487Y-75381998D01*
X182424513Y-75381998D01*
X182237711Y-75421704D01*
X182063247Y-75499380D01*
X181908744Y-75611633D01*
X181780965Y-75753546D01*
X181780958Y-75753556D01*
X181688398Y-75913875D01*
X181685473Y-75918942D01*
X181670999Y-75963484D01*
X181626457Y-76100570D01*
X181619300Y-76168671D01*
X181592287Y-76234327D01*
X181534065Y-76274957D01*
X181493990Y-76281500D01*
X180896350Y-76281500D01*
X180835803Y-76288009D01*
X180835795Y-76288011D01*
X180698797Y-76339110D01*
X180698792Y-76339112D01*
X180581738Y-76426738D01*
X180494112Y-76543792D01*
X180494110Y-76543797D01*
X180443011Y-76680795D01*
X180443009Y-76680803D01*
X180436500Y-76741350D01*
X180436500Y-78218918D01*
X180416498Y-78287039D01*
X180362842Y-78333532D01*
X180292568Y-78343636D01*
X180227988Y-78314142D01*
X180221405Y-78308013D01*
X179725405Y-77812013D01*
X179691379Y-77749701D01*
X179688500Y-77722918D01*
X179688500Y-77186367D01*
X179688499Y-77186350D01*
X179681990Y-77125803D01*
X179681988Y-77125795D01*
X179638133Y-77008218D01*
X179630889Y-76988796D01*
X179630888Y-76988794D01*
X179630887Y-76988792D01*
X179543261Y-76871738D01*
X179426207Y-76784112D01*
X179426202Y-76784110D01*
X179289204Y-76733011D01*
X179289196Y-76733009D01*
X179228649Y-76726500D01*
X179228638Y-76726500D01*
X178897725Y-76726500D01*
X178873144Y-76724079D01*
X178759635Y-76701500D01*
X178759630Y-76701500D01*
X178600370Y-76701500D01*
X178600364Y-76701500D01*
X178486856Y-76724079D01*
X178462275Y-76726500D01*
X178131350Y-76726500D01*
X178070803Y-76733009D01*
X178070795Y-76733011D01*
X177933797Y-76784110D01*
X177933792Y-76784112D01*
X177816738Y-76871738D01*
X177729112Y-76988792D01*
X177729110Y-76988797D01*
X177678011Y-77125795D01*
X177678009Y-77125803D01*
X177671500Y-77186350D01*
X177671500Y-77833649D01*
X177678009Y-77894196D01*
X177678011Y-77894204D01*
X177729110Y-78031202D01*
X177729112Y-78031207D01*
X177816738Y-78148261D01*
X177914933Y-78221769D01*
X177955832Y-78274418D01*
X177963515Y-78292967D01*
X177985265Y-78325518D01*
X178051997Y-78425389D01*
X178052003Y-78425395D01*
X178055920Y-78430168D01*
X178053764Y-78431937D01*
X178082039Y-78483717D01*
X178076974Y-78554532D01*
X178034427Y-78611368D01*
X177967907Y-78636179D01*
X177958918Y-78636500D01*
X177681350Y-78636500D01*
X177620803Y-78643009D01*
X177620795Y-78643011D01*
X177483797Y-78694110D01*
X177483792Y-78694112D01*
X177366738Y-78781738D01*
X177279112Y-78898792D01*
X177279110Y-78898797D01*
X177228011Y-79035795D01*
X177228009Y-79035803D01*
X177221500Y-79096350D01*
X177221500Y-80143649D01*
X177228009Y-80204196D01*
X177228011Y-80204204D01*
X177279110Y-80341202D01*
X177279112Y-80341207D01*
X177366738Y-80458261D01*
X177483792Y-80545887D01*
X177483794Y-80545888D01*
X177483796Y-80545889D01*
X177525645Y-80561498D01*
X177620795Y-80596988D01*
X177620803Y-80596990D01*
X177681350Y-80603499D01*
X177681355Y-80603499D01*
X177681362Y-80603500D01*
X178172361Y-80603500D01*
X178240482Y-80623502D01*
X178286975Y-80677158D01*
X178297671Y-80716329D01*
X178306457Y-80799927D01*
X178335299Y-80888691D01*
X178365473Y-80981556D01*
X178365474Y-80981557D01*
X178365476Y-80981561D01*
X178460958Y-81146941D01*
X178460965Y-81146951D01*
X178588744Y-81288864D01*
X178615859Y-81308564D01*
X178659213Y-81364786D01*
X178665289Y-81435522D01*
X178632157Y-81498314D01*
X178570337Y-81533225D01*
X178541798Y-81536500D01*
X177561350Y-81536500D01*
X177500803Y-81543009D01*
X177500795Y-81543011D01*
X177363797Y-81594110D01*
X177363792Y-81594112D01*
X177246738Y-81681738D01*
X177159112Y-81798792D01*
X177159110Y-81798797D01*
X177108011Y-81935795D01*
X177108009Y-81935803D01*
X177101501Y-81996347D01*
X177101500Y-81996367D01*
X177101500Y-83363649D01*
X177108009Y-83424196D01*
X177108011Y-83424204D01*
X177159110Y-83561202D01*
X177159112Y-83561207D01*
X177246738Y-83678261D01*
X177363792Y-83765887D01*
X177363794Y-83765888D01*
X177363796Y-83765889D01*
X177422875Y-83787924D01*
X177500795Y-83816988D01*
X177500803Y-83816990D01*
X177561350Y-83823499D01*
X177561355Y-83823499D01*
X177561362Y-83823500D01*
X177561368Y-83823500D01*
X179338632Y-83823500D01*
X179338638Y-83823500D01*
X179338645Y-83823499D01*
X179338649Y-83823499D01*
X179399196Y-83816990D01*
X179399199Y-83816989D01*
X179399201Y-83816989D01*
X179536204Y-83765889D01*
X179560501Y-83747701D01*
X179653261Y-83678261D01*
X179740887Y-83561207D01*
X179740887Y-83561206D01*
X179740889Y-83561204D01*
X179791989Y-83424201D01*
X179796953Y-83378032D01*
X179824122Y-83312440D01*
X179882439Y-83271948D01*
X179922231Y-83265500D01*
X179977081Y-83265500D01*
X179977083Y-83265500D01*
X180125994Y-83225599D01*
X180206291Y-83179238D01*
X180275286Y-83162501D01*
X180342378Y-83185721D01*
X180386265Y-83241528D01*
X180393014Y-83312203D01*
X180374056Y-83358360D01*
X180292230Y-83480821D01*
X180217566Y-83661076D01*
X180217564Y-83661081D01*
X180179500Y-83852441D01*
X180179500Y-84047558D01*
X180196717Y-84134111D01*
X180217564Y-84238918D01*
X180292230Y-84419178D01*
X180354245Y-84511990D01*
X180374056Y-84541639D01*
X180395271Y-84609392D01*
X180376488Y-84677859D01*
X180323671Y-84725302D01*
X180253588Y-84736659D01*
X180206292Y-84720761D01*
X180178511Y-84704722D01*
X180125994Y-84674401D01*
X179977083Y-84634500D01*
X179922231Y-84634500D01*
X179854110Y-84614498D01*
X179807617Y-84560842D01*
X179796953Y-84521968D01*
X179791990Y-84475803D01*
X179791988Y-84475795D01*
X179753744Y-84373261D01*
X179740889Y-84338796D01*
X179740888Y-84338794D01*
X179740887Y-84338792D01*
X179653261Y-84221738D01*
X179536207Y-84134112D01*
X179536202Y-84134110D01*
X179399204Y-84083011D01*
X179399196Y-84083009D01*
X179338649Y-84076500D01*
X179338638Y-84076500D01*
X177561362Y-84076500D01*
X177561350Y-84076500D01*
X177500803Y-84083009D01*
X177500795Y-84083011D01*
X177363797Y-84134110D01*
X177363792Y-84134112D01*
X177246738Y-84221738D01*
X177159112Y-84338792D01*
X177159110Y-84338797D01*
X177108011Y-84475795D01*
X177108009Y-84475803D01*
X177101500Y-84536350D01*
X177101500Y-85903649D01*
X177108009Y-85964196D01*
X177108011Y-85964204D01*
X177159110Y-86101202D01*
X177159112Y-86101207D01*
X177246738Y-86218261D01*
X177363792Y-86305887D01*
X177363794Y-86305888D01*
X177363796Y-86305889D01*
X177422875Y-86327924D01*
X177500795Y-86356988D01*
X177500803Y-86356990D01*
X177561350Y-86363499D01*
X177561355Y-86363499D01*
X177561362Y-86363500D01*
X177561368Y-86363500D01*
X179338632Y-86363500D01*
X179338638Y-86363500D01*
X179338645Y-86363499D01*
X179338649Y-86363499D01*
X179399196Y-86356990D01*
X179399199Y-86356989D01*
X179399201Y-86356989D01*
X179536204Y-86305889D01*
X179541484Y-86301937D01*
X179653261Y-86218261D01*
X179740887Y-86101207D01*
X179740887Y-86101206D01*
X179740889Y-86101204D01*
X179791989Y-85964201D01*
X179796953Y-85918032D01*
X179824122Y-85852440D01*
X179882439Y-85811948D01*
X179922231Y-85805500D01*
X179977081Y-85805500D01*
X179977083Y-85805500D01*
X180125994Y-85765599D01*
X180259505Y-85688516D01*
X180368516Y-85579505D01*
X180445599Y-85445994D01*
X180485500Y-85297083D01*
X180485500Y-85142917D01*
X180445599Y-84994006D01*
X180399239Y-84913708D01*
X180382501Y-84844712D01*
X180405722Y-84777621D01*
X180461529Y-84733734D01*
X180532204Y-84726985D01*
X180578358Y-84745942D01*
X180700822Y-84827770D01*
X180881082Y-84902436D01*
X181072444Y-84940500D01*
X181072445Y-84940500D01*
X181267555Y-84940500D01*
X181267556Y-84940500D01*
X181458918Y-84902436D01*
X181639178Y-84827770D01*
X181761642Y-84745941D01*
X181829391Y-84724728D01*
X181897858Y-84743511D01*
X181945302Y-84796328D01*
X181956659Y-84866410D01*
X181940761Y-84913707D01*
X181920594Y-84948638D01*
X181894401Y-84994006D01*
X181862629Y-85112582D01*
X181854500Y-85142918D01*
X181854500Y-85297081D01*
X181854499Y-85297081D01*
X181894401Y-85445994D01*
X181971481Y-85579501D01*
X181971489Y-85579511D01*
X182080488Y-85688510D01*
X182080493Y-85688514D01*
X182080495Y-85688516D01*
X182214006Y-85765599D01*
X182362917Y-85805500D01*
X182362919Y-85805500D01*
X182417769Y-85805500D01*
X182485890Y-85825502D01*
X182532383Y-85879158D01*
X182543047Y-85918032D01*
X182548009Y-85964196D01*
X182548011Y-85964204D01*
X182599110Y-86101202D01*
X182599112Y-86101207D01*
X182686737Y-86218259D01*
X182686738Y-86218259D01*
X182686739Y-86218261D01*
X182739856Y-86258024D01*
X182757688Y-86271373D01*
X182800234Y-86328209D01*
X182807488Y-86385411D01*
X182796496Y-86490000D01*
X182807488Y-86594589D01*
X182794715Y-86664428D01*
X182757688Y-86708627D01*
X182686737Y-86761740D01*
X182599112Y-86878792D01*
X182599110Y-86878797D01*
X182548011Y-87015795D01*
X182548009Y-87015803D01*
X182543047Y-87061968D01*
X182515878Y-87127560D01*
X182457561Y-87168052D01*
X182417769Y-87174500D01*
X182362917Y-87174500D01*
X182263643Y-87201100D01*
X182214005Y-87214401D01*
X182080498Y-87291481D01*
X182080488Y-87291489D01*
X181971489Y-87400488D01*
X181971481Y-87400498D01*
X181894401Y-87534005D01*
X181854500Y-87682918D01*
X181854500Y-87837081D01*
X181854499Y-87837081D01*
X181894401Y-87985994D01*
X181971481Y-88119501D01*
X181971489Y-88119511D01*
X182080488Y-88228510D01*
X182080493Y-88228514D01*
X182080495Y-88228516D01*
X182080496Y-88228517D01*
X182080498Y-88228518D01*
X182126659Y-88255169D01*
X182214006Y-88305599D01*
X182362917Y-88345500D01*
X182362919Y-88345500D01*
X182417769Y-88345500D01*
X182485890Y-88365502D01*
X182532383Y-88419158D01*
X182543047Y-88458032D01*
X182548009Y-88504196D01*
X182548011Y-88504204D01*
X182599110Y-88641202D01*
X182599112Y-88641207D01*
X182686738Y-88758261D01*
X182803792Y-88845887D01*
X182803794Y-88845888D01*
X182803796Y-88845889D01*
X182843522Y-88860706D01*
X182940795Y-88896988D01*
X182940803Y-88896990D01*
X183001350Y-88903499D01*
X183001355Y-88903499D01*
X183001362Y-88903500D01*
X183001368Y-88903500D01*
X184673500Y-88903500D01*
X184741621Y-88923502D01*
X184788114Y-88977158D01*
X184799500Y-89029500D01*
X184799500Y-89030500D01*
X184779498Y-89098621D01*
X184725842Y-89145114D01*
X184673500Y-89156500D01*
X183001350Y-89156500D01*
X182940803Y-89163009D01*
X182940795Y-89163011D01*
X182803797Y-89214110D01*
X182803792Y-89214112D01*
X182686738Y-89301738D01*
X182599112Y-89418792D01*
X182599110Y-89418797D01*
X182548011Y-89555795D01*
X182548009Y-89555803D01*
X182543047Y-89601968D01*
X182515878Y-89667560D01*
X182457561Y-89708052D01*
X182417769Y-89714500D01*
X182362917Y-89714500D01*
X182276282Y-89737714D01*
X182214005Y-89754401D01*
X182080498Y-89831481D01*
X182080488Y-89831489D01*
X181971489Y-89940488D01*
X181971481Y-89940498D01*
X181894401Y-90074005D01*
X181854500Y-90222918D01*
X181854500Y-90377081D01*
X181854499Y-90377081D01*
X181894401Y-90525994D01*
X181971481Y-90659501D01*
X181971489Y-90659511D01*
X182080488Y-90768510D01*
X182080493Y-90768514D01*
X182080495Y-90768516D01*
X182214006Y-90845599D01*
X182362917Y-90885500D01*
X182362919Y-90885500D01*
X182417769Y-90885500D01*
X182485890Y-90905502D01*
X182532383Y-90959158D01*
X182543047Y-90998032D01*
X182548009Y-91044196D01*
X182548011Y-91044204D01*
X182599110Y-91181202D01*
X182599112Y-91181207D01*
X182686738Y-91298261D01*
X182803792Y-91385887D01*
X182803794Y-91385888D01*
X182803796Y-91385889D01*
X182859450Y-91406647D01*
X182940795Y-91436988D01*
X182940803Y-91436990D01*
X183001350Y-91443499D01*
X183001355Y-91443499D01*
X183001362Y-91443500D01*
X183001368Y-91443500D01*
X184673500Y-91443500D01*
X184741621Y-91463502D01*
X184788114Y-91517158D01*
X184799500Y-91569500D01*
X184799500Y-91570500D01*
X184779498Y-91638621D01*
X184725842Y-91685114D01*
X184673500Y-91696500D01*
X183001350Y-91696500D01*
X182940803Y-91703009D01*
X182940795Y-91703011D01*
X182803797Y-91754110D01*
X182803792Y-91754112D01*
X182686738Y-91841738D01*
X182599112Y-91958792D01*
X182599110Y-91958797D01*
X182548011Y-92095795D01*
X182548009Y-92095803D01*
X182543047Y-92141968D01*
X182515878Y-92207560D01*
X182457561Y-92248052D01*
X182417769Y-92254500D01*
X182362917Y-92254500D01*
X182263643Y-92281100D01*
X182214005Y-92294401D01*
X182080498Y-92371481D01*
X182080488Y-92371489D01*
X181971489Y-92480488D01*
X181971481Y-92480498D01*
X181894401Y-92614005D01*
X181854500Y-92762918D01*
X181854500Y-92917081D01*
X181854499Y-92917081D01*
X181894401Y-93065994D01*
X181971481Y-93199501D01*
X181971489Y-93199511D01*
X182080488Y-93308510D01*
X182080493Y-93308514D01*
X182080495Y-93308516D01*
X182214006Y-93385599D01*
X182362917Y-93425500D01*
X182362919Y-93425500D01*
X182417769Y-93425500D01*
X182485890Y-93445502D01*
X182532383Y-93499158D01*
X182543047Y-93538032D01*
X182548009Y-93584196D01*
X182548011Y-93584204D01*
X182599110Y-93721202D01*
X182599112Y-93721207D01*
X182686738Y-93838261D01*
X182803792Y-93925887D01*
X182803794Y-93925888D01*
X182803796Y-93925889D01*
X182862875Y-93947924D01*
X182940795Y-93976988D01*
X182940803Y-93976990D01*
X183001350Y-93983499D01*
X183001355Y-93983499D01*
X183001362Y-93983500D01*
X183001368Y-93983500D01*
X184673500Y-93983500D01*
X184741621Y-94003502D01*
X184788114Y-94057158D01*
X184799500Y-94109500D01*
X184799500Y-94110500D01*
X184779498Y-94178621D01*
X184725842Y-94225114D01*
X184673500Y-94236500D01*
X183001350Y-94236500D01*
X182940803Y-94243009D01*
X182940795Y-94243011D01*
X182803797Y-94294110D01*
X182803792Y-94294112D01*
X182686738Y-94381738D01*
X182599112Y-94498792D01*
X182599110Y-94498797D01*
X182548011Y-94635795D01*
X182548009Y-94635803D01*
X182543047Y-94681968D01*
X182515878Y-94747560D01*
X182457561Y-94788052D01*
X182417769Y-94794500D01*
X182362917Y-94794500D01*
X182263643Y-94821100D01*
X182214005Y-94834401D01*
X182080498Y-94911481D01*
X182080488Y-94911489D01*
X181971489Y-95020488D01*
X181971481Y-95020498D01*
X181894401Y-95154005D01*
X181894401Y-95154006D01*
X181856496Y-95295470D01*
X181854500Y-95302918D01*
X181854500Y-95457081D01*
X181854499Y-95457081D01*
X181894401Y-95605994D01*
X181971481Y-95739501D01*
X181971489Y-95739511D01*
X182080488Y-95848510D01*
X182080493Y-95848514D01*
X182080495Y-95848516D01*
X182080496Y-95848517D01*
X182080498Y-95848518D01*
X182107044Y-95863844D01*
X182214006Y-95925599D01*
X182362917Y-95965500D01*
X182362919Y-95965500D01*
X182417769Y-95965500D01*
X182485890Y-95985502D01*
X182532383Y-96039158D01*
X182543047Y-96078032D01*
X182548009Y-96124196D01*
X182548011Y-96124204D01*
X182599110Y-96261202D01*
X182599112Y-96261207D01*
X182686738Y-96378261D01*
X182803792Y-96465887D01*
X182803794Y-96465888D01*
X182803796Y-96465889D01*
X182862875Y-96487924D01*
X182940795Y-96516988D01*
X182940803Y-96516990D01*
X182988219Y-96522087D01*
X183053811Y-96549255D01*
X183094303Y-96607572D01*
X183097592Y-96675408D01*
X183096359Y-96680809D01*
X183061697Y-96742770D01*
X182999039Y-96776154D01*
X182986989Y-96778044D01*
X182940802Y-96783010D01*
X182940795Y-96783011D01*
X182803797Y-96834110D01*
X182803792Y-96834112D01*
X182686738Y-96921738D01*
X182599112Y-97038792D01*
X182599110Y-97038797D01*
X182548011Y-97175795D01*
X182548009Y-97175803D01*
X182543047Y-97221968D01*
X182515878Y-97287560D01*
X182457561Y-97328052D01*
X182417769Y-97334500D01*
X182362917Y-97334500D01*
X182263643Y-97361100D01*
X182214005Y-97374401D01*
X182080498Y-97451481D01*
X182080488Y-97451489D01*
X181971489Y-97560488D01*
X181971481Y-97560498D01*
X181894401Y-97694005D01*
X181884871Y-97729571D01*
X181856407Y-97835802D01*
X181854500Y-97842918D01*
X181854500Y-97997081D01*
X181854499Y-97997081D01*
X181894401Y-98145994D01*
X181971481Y-98279501D01*
X181971489Y-98279511D01*
X182080488Y-98388510D01*
X182080493Y-98388514D01*
X182080495Y-98388516D01*
X182214006Y-98465599D01*
X182362917Y-98505500D01*
X182362919Y-98505500D01*
X182417769Y-98505500D01*
X182485890Y-98525502D01*
X182532383Y-98579158D01*
X182543047Y-98618032D01*
X182548009Y-98664196D01*
X182548011Y-98664204D01*
X182599110Y-98801202D01*
X182599112Y-98801207D01*
X182686738Y-98918261D01*
X182803792Y-99005887D01*
X182803794Y-99005888D01*
X182803796Y-99005889D01*
X182862875Y-99027924D01*
X182940795Y-99056988D01*
X182940803Y-99056990D01*
X183001350Y-99063499D01*
X183001355Y-99063499D01*
X183001362Y-99063500D01*
X183001368Y-99063500D01*
X184673500Y-99063500D01*
X184741621Y-99083502D01*
X184788114Y-99137158D01*
X184799500Y-99189500D01*
X184799500Y-99190500D01*
X184779498Y-99258621D01*
X184725842Y-99305114D01*
X184673500Y-99316500D01*
X183001350Y-99316500D01*
X182940803Y-99323009D01*
X182940795Y-99323011D01*
X182803797Y-99374110D01*
X182803792Y-99374112D01*
X182686738Y-99461738D01*
X182599112Y-99578792D01*
X182599110Y-99578797D01*
X182548011Y-99715795D01*
X182548009Y-99715803D01*
X182543047Y-99761968D01*
X182515878Y-99827560D01*
X182457561Y-99868052D01*
X182417769Y-99874500D01*
X182362917Y-99874500D01*
X182263643Y-99901100D01*
X182214005Y-99914401D01*
X182080498Y-99991481D01*
X182080488Y-99991489D01*
X181971489Y-100100488D01*
X181971481Y-100100498D01*
X181894401Y-100234005D01*
X181854500Y-100382918D01*
X181854500Y-100537081D01*
X181854499Y-100537081D01*
X181894401Y-100685994D01*
X181971481Y-100819501D01*
X181971489Y-100819511D01*
X182080488Y-100928510D01*
X182080493Y-100928514D01*
X182080495Y-100928516D01*
X182214006Y-101005599D01*
X182362917Y-101045500D01*
X182362919Y-101045500D01*
X182417769Y-101045500D01*
X182485890Y-101065502D01*
X182532383Y-101119158D01*
X182543047Y-101158032D01*
X182548009Y-101204196D01*
X182548011Y-101204204D01*
X182599110Y-101341202D01*
X182599112Y-101341207D01*
X182686738Y-101458261D01*
X182803792Y-101545887D01*
X182803794Y-101545888D01*
X182803796Y-101545889D01*
X182862875Y-101567924D01*
X182940795Y-101596988D01*
X182940803Y-101596990D01*
X183001350Y-101603499D01*
X183001355Y-101603499D01*
X183001362Y-101603500D01*
X183001368Y-101603500D01*
X184673500Y-101603500D01*
X184741621Y-101623502D01*
X184788114Y-101677158D01*
X184799500Y-101729500D01*
X184799500Y-101730500D01*
X184779498Y-101798621D01*
X184725842Y-101845114D01*
X184673500Y-101856500D01*
X183001350Y-101856500D01*
X182940803Y-101863009D01*
X182940795Y-101863011D01*
X182803797Y-101914110D01*
X182803792Y-101914112D01*
X182686738Y-102001738D01*
X182599112Y-102118792D01*
X182599110Y-102118797D01*
X182548011Y-102255795D01*
X182548009Y-102255803D01*
X182543047Y-102301968D01*
X182515878Y-102367560D01*
X182457561Y-102408052D01*
X182417769Y-102414500D01*
X182362917Y-102414500D01*
X182263643Y-102441100D01*
X182214005Y-102454401D01*
X182080498Y-102531481D01*
X182080488Y-102531489D01*
X181971489Y-102640488D01*
X181971481Y-102640498D01*
X181894401Y-102774005D01*
X181854500Y-102922918D01*
X181854500Y-103077081D01*
X181854499Y-103077081D01*
X181894401Y-103225994D01*
X181971481Y-103359501D01*
X181971489Y-103359511D01*
X182080488Y-103468510D01*
X182080493Y-103468514D01*
X182080495Y-103468516D01*
X182214006Y-103545599D01*
X182362917Y-103585500D01*
X182362919Y-103585500D01*
X182417769Y-103585500D01*
X182485890Y-103605502D01*
X182532383Y-103659158D01*
X182543047Y-103698032D01*
X182548009Y-103744196D01*
X182548011Y-103744204D01*
X182599110Y-103881202D01*
X182599112Y-103881207D01*
X182686738Y-103998261D01*
X182803792Y-104085887D01*
X182803794Y-104085887D01*
X182803796Y-104085889D01*
X182820848Y-104092249D01*
X182877683Y-104134795D01*
X182902494Y-104201315D01*
X182897100Y-104241758D01*
X182898359Y-104242046D01*
X182896782Y-104248954D01*
X182890986Y-104300391D01*
X182889358Y-104310862D01*
X182880292Y-104356441D01*
X182878967Y-104356177D01*
X182854967Y-104415592D01*
X182810649Y-104447850D01*
X182811708Y-104449790D01*
X182803799Y-104454108D01*
X182686738Y-104541738D01*
X182599112Y-104658792D01*
X182599110Y-104658797D01*
X182548011Y-104795795D01*
X182548009Y-104795803D01*
X182543047Y-104841968D01*
X182515878Y-104907560D01*
X182457561Y-104948052D01*
X182417769Y-104954500D01*
X182362917Y-104954500D01*
X182263643Y-104981100D01*
X182214005Y-104994401D01*
X182080498Y-105071481D01*
X182080488Y-105071489D01*
X181971489Y-105180488D01*
X181971481Y-105180498D01*
X181894401Y-105314005D01*
X181854500Y-105462918D01*
X181854500Y-105617081D01*
X181854499Y-105617081D01*
X181894401Y-105765994D01*
X181971481Y-105899501D01*
X181971489Y-105899511D01*
X182080488Y-106008510D01*
X182080493Y-106008514D01*
X182080495Y-106008516D01*
X182214006Y-106085599D01*
X182362917Y-106125500D01*
X182362919Y-106125500D01*
X182417769Y-106125500D01*
X182485890Y-106145502D01*
X182532383Y-106199158D01*
X182543047Y-106238032D01*
X182548009Y-106284196D01*
X182548011Y-106284204D01*
X182599110Y-106421202D01*
X182599112Y-106421207D01*
X182686738Y-106538261D01*
X182803792Y-106625887D01*
X182803794Y-106625888D01*
X182803796Y-106625889D01*
X182853948Y-106644595D01*
X182940795Y-106676988D01*
X182940803Y-106676990D01*
X183001350Y-106683499D01*
X183001355Y-106683499D01*
X183001362Y-106683500D01*
X183001368Y-106683500D01*
X184673500Y-106683500D01*
X184741621Y-106703502D01*
X184788114Y-106757158D01*
X184799500Y-106809500D01*
X184799500Y-106810500D01*
X184779498Y-106878621D01*
X184725842Y-106925114D01*
X184673500Y-106936500D01*
X183001350Y-106936500D01*
X182940803Y-106943009D01*
X182940795Y-106943011D01*
X182803797Y-106994110D01*
X182803792Y-106994112D01*
X182686738Y-107081738D01*
X182599112Y-107198792D01*
X182599110Y-107198797D01*
X182548011Y-107335795D01*
X182548009Y-107335803D01*
X182543047Y-107381968D01*
X182515878Y-107447560D01*
X182457561Y-107488052D01*
X182417769Y-107494500D01*
X182362917Y-107494500D01*
X182263643Y-107521100D01*
X182214005Y-107534401D01*
X182080498Y-107611481D01*
X182080488Y-107611489D01*
X181971489Y-107720488D01*
X181971481Y-107720498D01*
X181894401Y-107854005D01*
X181854500Y-108002918D01*
X181854500Y-108157081D01*
X181854499Y-108157081D01*
X181894401Y-108305994D01*
X181971481Y-108439501D01*
X181971489Y-108439511D01*
X182080488Y-108548510D01*
X182080493Y-108548514D01*
X182080495Y-108548516D01*
X182214006Y-108625599D01*
X182362917Y-108665500D01*
X182362919Y-108665500D01*
X182417769Y-108665500D01*
X182485890Y-108685502D01*
X182532383Y-108739158D01*
X182543047Y-108778032D01*
X182548009Y-108824196D01*
X182548011Y-108824204D01*
X182599110Y-108961202D01*
X182599112Y-108961207D01*
X182686738Y-109078261D01*
X182803792Y-109165887D01*
X182803794Y-109165888D01*
X182803796Y-109165889D01*
X182862875Y-109187924D01*
X182940795Y-109216988D01*
X182940803Y-109216990D01*
X183001350Y-109223499D01*
X183001355Y-109223499D01*
X183001362Y-109223500D01*
X183001368Y-109223500D01*
X184673500Y-109223500D01*
X184741621Y-109243502D01*
X184788114Y-109297158D01*
X184799500Y-109349500D01*
X184799500Y-109350500D01*
X184779498Y-109418621D01*
X184725842Y-109465114D01*
X184673500Y-109476500D01*
X183001350Y-109476500D01*
X182940803Y-109483009D01*
X182940795Y-109483011D01*
X182803797Y-109534110D01*
X182803792Y-109534112D01*
X182686738Y-109621738D01*
X182599112Y-109738792D01*
X182599110Y-109738797D01*
X182548011Y-109875795D01*
X182548009Y-109875803D01*
X182543047Y-109921968D01*
X182515878Y-109987560D01*
X182457561Y-110028052D01*
X182417769Y-110034500D01*
X182362917Y-110034500D01*
X182263643Y-110061100D01*
X182214005Y-110074401D01*
X182080498Y-110151481D01*
X182080488Y-110151489D01*
X181971489Y-110260488D01*
X181971481Y-110260498D01*
X181894401Y-110394005D01*
X181854500Y-110542918D01*
X181854500Y-110697081D01*
X181854499Y-110697081D01*
X181894401Y-110845994D01*
X181971481Y-110979501D01*
X181971489Y-110979511D01*
X182080488Y-111088510D01*
X182080493Y-111088514D01*
X182080495Y-111088516D01*
X182214006Y-111165599D01*
X182362917Y-111205500D01*
X182362919Y-111205500D01*
X182417769Y-111205500D01*
X182485890Y-111225502D01*
X182532383Y-111279158D01*
X182543047Y-111318032D01*
X182548009Y-111364196D01*
X182548011Y-111364204D01*
X182599110Y-111501202D01*
X182599112Y-111501207D01*
X182686738Y-111618261D01*
X182803792Y-111705887D01*
X182803794Y-111705888D01*
X182803796Y-111705889D01*
X182832784Y-111716701D01*
X182940795Y-111756988D01*
X182940803Y-111756990D01*
X183001350Y-111763499D01*
X183001355Y-111763499D01*
X183001362Y-111763500D01*
X183001368Y-111763500D01*
X184673500Y-111763500D01*
X184741621Y-111783502D01*
X184788114Y-111837158D01*
X184799500Y-111889500D01*
X184799500Y-111890500D01*
X184779498Y-111958621D01*
X184725842Y-112005114D01*
X184673500Y-112016500D01*
X183001350Y-112016500D01*
X182940803Y-112023009D01*
X182940795Y-112023011D01*
X182803797Y-112074110D01*
X182803792Y-112074112D01*
X182686738Y-112161738D01*
X182599112Y-112278792D01*
X182599110Y-112278797D01*
X182548011Y-112415795D01*
X182548009Y-112415803D01*
X182543047Y-112461968D01*
X182515878Y-112527560D01*
X182457561Y-112568052D01*
X182417769Y-112574500D01*
X182362917Y-112574500D01*
X182263643Y-112601100D01*
X182214005Y-112614401D01*
X182080498Y-112691481D01*
X182080488Y-112691489D01*
X181971489Y-112800488D01*
X181971481Y-112800498D01*
X181894401Y-112934005D01*
X181854500Y-113082918D01*
X181854500Y-113237081D01*
X181854499Y-113237081D01*
X181894401Y-113385994D01*
X181971481Y-113519501D01*
X181971489Y-113519511D01*
X182080488Y-113628510D01*
X182080493Y-113628514D01*
X182080495Y-113628516D01*
X182080496Y-113628517D01*
X182080498Y-113628518D01*
X182132297Y-113658424D01*
X182214006Y-113705599D01*
X182362917Y-113745500D01*
X182362919Y-113745500D01*
X182417769Y-113745500D01*
X182485890Y-113765502D01*
X182532383Y-113819158D01*
X182543047Y-113858032D01*
X182548009Y-113904196D01*
X182548011Y-113904204D01*
X182599110Y-114041202D01*
X182599112Y-114041207D01*
X182686738Y-114158261D01*
X182803792Y-114245887D01*
X182803794Y-114245888D01*
X182803796Y-114245889D01*
X182862875Y-114267924D01*
X182940795Y-114296988D01*
X182940803Y-114296990D01*
X183001350Y-114303499D01*
X183001355Y-114303499D01*
X183001362Y-114303500D01*
X183001368Y-114303500D01*
X184673500Y-114303500D01*
X184741621Y-114323502D01*
X184788114Y-114377158D01*
X184799500Y-114429500D01*
X184799500Y-114430500D01*
X184779498Y-114498621D01*
X184725842Y-114545114D01*
X184673500Y-114556500D01*
X183001350Y-114556500D01*
X182940803Y-114563009D01*
X182940795Y-114563011D01*
X182803797Y-114614110D01*
X182803792Y-114614112D01*
X182686738Y-114701738D01*
X182599112Y-114818792D01*
X182599110Y-114818797D01*
X182548011Y-114955795D01*
X182548009Y-114955803D01*
X182543047Y-115001968D01*
X182515878Y-115067560D01*
X182457561Y-115108052D01*
X182417769Y-115114500D01*
X182362917Y-115114500D01*
X182282179Y-115136134D01*
X182214005Y-115154401D01*
X182080498Y-115231481D01*
X182080488Y-115231489D01*
X181971489Y-115340488D01*
X181971481Y-115340498D01*
X181894401Y-115474005D01*
X181854500Y-115622918D01*
X181854500Y-115777081D01*
X181854499Y-115777081D01*
X181894401Y-115925994D01*
X181971481Y-116059501D01*
X181971489Y-116059511D01*
X182080488Y-116168510D01*
X182080493Y-116168514D01*
X182080495Y-116168516D01*
X182080496Y-116168517D01*
X182080498Y-116168518D01*
X182111741Y-116186556D01*
X182214006Y-116245599D01*
X182362917Y-116285500D01*
X182362919Y-116285500D01*
X182417769Y-116285500D01*
X182485890Y-116305502D01*
X182532383Y-116359158D01*
X182543047Y-116398032D01*
X182548009Y-116444196D01*
X182548011Y-116444204D01*
X182599110Y-116581202D01*
X182599112Y-116581207D01*
X182686738Y-116698261D01*
X182803789Y-116785884D01*
X182803796Y-116785889D01*
X182803802Y-116785891D01*
X182809049Y-116788756D01*
X182859255Y-116838954D01*
X182874353Y-116908327D01*
X182873881Y-116913455D01*
X182866384Y-116980000D01*
X182871758Y-117027702D01*
X182859508Y-117097634D01*
X182811394Y-117149841D01*
X182806941Y-117152392D01*
X182803800Y-117154107D01*
X182686738Y-117241738D01*
X182599112Y-117358792D01*
X182599110Y-117358797D01*
X182548011Y-117495795D01*
X182548009Y-117495803D01*
X182543047Y-117541968D01*
X182515878Y-117607560D01*
X182457561Y-117648052D01*
X182417769Y-117654500D01*
X182362917Y-117654500D01*
X182263643Y-117681100D01*
X182214005Y-117694401D01*
X182080498Y-117771481D01*
X182080488Y-117771489D01*
X181971489Y-117880488D01*
X181971481Y-117880498D01*
X181894401Y-118014005D01*
X181854500Y-118162918D01*
X181854500Y-118317081D01*
X181854499Y-118317081D01*
X181894401Y-118465994D01*
X181971481Y-118599501D01*
X181971489Y-118599511D01*
X182080488Y-118708510D01*
X182080493Y-118708514D01*
X182080495Y-118708516D01*
X182214006Y-118785599D01*
X182362917Y-118825500D01*
X182362919Y-118825500D01*
X182417769Y-118825500D01*
X182485890Y-118845502D01*
X182532383Y-118899158D01*
X182543047Y-118938032D01*
X182548009Y-118984196D01*
X182548011Y-118984204D01*
X182599110Y-119121202D01*
X182599112Y-119121207D01*
X182686738Y-119238261D01*
X182803792Y-119325887D01*
X182803794Y-119325888D01*
X182803796Y-119325889D01*
X182862875Y-119347924D01*
X182940795Y-119376988D01*
X182940803Y-119376990D01*
X183001350Y-119383499D01*
X183001355Y-119383499D01*
X183001362Y-119383500D01*
X183001368Y-119383500D01*
X184673500Y-119383500D01*
X184741621Y-119403502D01*
X184788114Y-119457158D01*
X184799500Y-119509500D01*
X184799500Y-119510500D01*
X184779498Y-119578621D01*
X184725842Y-119625114D01*
X184673500Y-119636500D01*
X183001350Y-119636500D01*
X182940803Y-119643009D01*
X182940795Y-119643011D01*
X182803797Y-119694110D01*
X182803792Y-119694112D01*
X182686738Y-119781738D01*
X182599112Y-119898792D01*
X182599110Y-119898797D01*
X182548011Y-120035795D01*
X182548009Y-120035803D01*
X182543047Y-120081968D01*
X182515878Y-120147560D01*
X182457561Y-120188052D01*
X182417769Y-120194500D01*
X182362917Y-120194500D01*
X182263643Y-120221100D01*
X182214005Y-120234401D01*
X182080498Y-120311481D01*
X182080488Y-120311489D01*
X181971489Y-120420488D01*
X181971481Y-120420498D01*
X181894401Y-120554005D01*
X181854500Y-120702918D01*
X181854500Y-120857081D01*
X181854499Y-120857081D01*
X181894401Y-121005994D01*
X181971481Y-121139501D01*
X181971489Y-121139511D01*
X182080488Y-121248510D01*
X182080493Y-121248514D01*
X182080495Y-121248516D01*
X182214006Y-121325599D01*
X182362917Y-121365500D01*
X182362919Y-121365500D01*
X182417769Y-121365500D01*
X182485890Y-121385502D01*
X182532383Y-121439158D01*
X182543047Y-121478032D01*
X182548009Y-121524196D01*
X182548011Y-121524204D01*
X182599110Y-121661202D01*
X182599112Y-121661207D01*
X182686738Y-121778261D01*
X182803792Y-121865887D01*
X182803794Y-121865888D01*
X182803796Y-121865889D01*
X182815137Y-121870119D01*
X182831043Y-121876052D01*
X182887879Y-121918599D01*
X182912689Y-121985119D01*
X182912218Y-122008212D01*
X182906384Y-122059998D01*
X182910056Y-122092592D01*
X182897806Y-122162524D01*
X182849693Y-122214731D01*
X182828885Y-122224752D01*
X182803797Y-122234110D01*
X182686738Y-122321738D01*
X182599112Y-122438792D01*
X182599110Y-122438797D01*
X182548011Y-122575795D01*
X182548009Y-122575803D01*
X182543047Y-122621968D01*
X182515878Y-122687560D01*
X182457561Y-122728052D01*
X182417769Y-122734500D01*
X182362917Y-122734500D01*
X182263643Y-122761100D01*
X182214005Y-122774401D01*
X182080498Y-122851481D01*
X182080488Y-122851489D01*
X181971489Y-122960488D01*
X181971481Y-122960498D01*
X181894401Y-123094005D01*
X181854500Y-123242918D01*
X181854500Y-123397081D01*
X181854499Y-123397081D01*
X181894401Y-123545994D01*
X181971481Y-123679501D01*
X181971489Y-123679511D01*
X182048383Y-123756405D01*
X182082409Y-123818717D01*
X182077344Y-123889532D01*
X182034797Y-123946368D01*
X181968277Y-123971179D01*
X181959288Y-123971500D01*
X180380712Y-123971500D01*
X180312591Y-123951498D01*
X180266098Y-123897842D01*
X180255994Y-123827568D01*
X180285488Y-123762988D01*
X180291617Y-123756405D01*
X180368510Y-123679511D01*
X180368516Y-123679505D01*
X180445599Y-123545994D01*
X180485500Y-123397083D01*
X180485500Y-123242917D01*
X180445599Y-123094006D01*
X180389521Y-122996877D01*
X180368518Y-122960498D01*
X180368510Y-122960488D01*
X180259511Y-122851489D01*
X180259501Y-122851481D01*
X180125994Y-122774401D01*
X180109237Y-122769911D01*
X179977083Y-122734500D01*
X179922231Y-122734500D01*
X179854110Y-122714498D01*
X179807617Y-122660842D01*
X179796953Y-122621968D01*
X179791990Y-122575803D01*
X179791988Y-122575795D01*
X179746201Y-122453039D01*
X179740889Y-122438796D01*
X179740888Y-122438794D01*
X179740887Y-122438792D01*
X179653261Y-122321738D01*
X179536207Y-122234112D01*
X179536202Y-122234110D01*
X179399204Y-122183011D01*
X179399196Y-122183009D01*
X179338649Y-122176500D01*
X179338638Y-122176500D01*
X177561362Y-122176500D01*
X177561350Y-122176500D01*
X177500803Y-122183009D01*
X177500795Y-122183011D01*
X177363797Y-122234110D01*
X177363792Y-122234112D01*
X177246738Y-122321738D01*
X177159112Y-122438792D01*
X177159110Y-122438797D01*
X177108011Y-122575795D01*
X177106197Y-122583474D01*
X177104442Y-122583059D01*
X177081035Y-122639564D01*
X177022716Y-122680053D01*
X176982929Y-122686500D01*
X176219595Y-122686500D01*
X176151474Y-122666498D01*
X176130500Y-122649595D01*
X174944554Y-121463649D01*
X177101500Y-121463649D01*
X177108009Y-121524196D01*
X177108011Y-121524204D01*
X177159110Y-121661202D01*
X177159112Y-121661207D01*
X177246738Y-121778261D01*
X177363792Y-121865887D01*
X177363794Y-121865888D01*
X177363796Y-121865889D01*
X177422875Y-121887924D01*
X177500795Y-121916988D01*
X177500803Y-121916990D01*
X177561350Y-121923499D01*
X177561355Y-121923499D01*
X177561362Y-121923500D01*
X177561368Y-121923500D01*
X179338632Y-121923500D01*
X179338638Y-121923500D01*
X179338645Y-121923499D01*
X179338649Y-121923499D01*
X179399196Y-121916990D01*
X179399199Y-121916989D01*
X179399201Y-121916989D01*
X179404915Y-121914858D01*
X179418045Y-121909960D01*
X179536204Y-121865889D01*
X179560501Y-121847701D01*
X179653261Y-121778261D01*
X179740887Y-121661207D01*
X179740887Y-121661206D01*
X179740889Y-121661204D01*
X179791989Y-121524201D01*
X179796953Y-121478032D01*
X179824122Y-121412440D01*
X179882439Y-121371948D01*
X179922231Y-121365500D01*
X179977081Y-121365500D01*
X179977083Y-121365500D01*
X180125994Y-121325599D01*
X180259505Y-121248516D01*
X180368516Y-121139505D01*
X180445599Y-121005994D01*
X180485500Y-120857083D01*
X180485500Y-120702917D01*
X180445599Y-120554006D01*
X180368516Y-120420495D01*
X180368514Y-120420493D01*
X180368510Y-120420488D01*
X180259511Y-120311489D01*
X180259501Y-120311481D01*
X180125994Y-120234401D01*
X180112712Y-120230842D01*
X179977083Y-120194500D01*
X179922231Y-120194500D01*
X179854110Y-120174498D01*
X179807617Y-120120842D01*
X179796953Y-120081968D01*
X179791990Y-120035803D01*
X179791988Y-120035795D01*
X179762924Y-119957875D01*
X179740889Y-119898796D01*
X179740888Y-119898794D01*
X179740887Y-119898792D01*
X179653261Y-119781738D01*
X179536207Y-119694112D01*
X179536202Y-119694110D01*
X179399204Y-119643011D01*
X179399196Y-119643009D01*
X179338649Y-119636500D01*
X179338638Y-119636500D01*
X177561362Y-119636500D01*
X177561350Y-119636500D01*
X177500803Y-119643009D01*
X177500795Y-119643011D01*
X177363797Y-119694110D01*
X177363792Y-119694112D01*
X177246738Y-119781738D01*
X177159112Y-119898792D01*
X177159110Y-119898797D01*
X177108011Y-120035795D01*
X177108009Y-120035803D01*
X177101500Y-120096350D01*
X177101500Y-121463649D01*
X174944554Y-121463649D01*
X173193203Y-119712298D01*
X172404554Y-118923649D01*
X177101500Y-118923649D01*
X177108009Y-118984196D01*
X177108011Y-118984204D01*
X177159110Y-119121202D01*
X177159112Y-119121207D01*
X177246738Y-119238261D01*
X177363792Y-119325887D01*
X177363794Y-119325888D01*
X177363796Y-119325889D01*
X177422875Y-119347924D01*
X177500795Y-119376988D01*
X177500803Y-119376990D01*
X177561350Y-119383499D01*
X177561355Y-119383499D01*
X177561362Y-119383500D01*
X177561368Y-119383500D01*
X179338632Y-119383500D01*
X179338638Y-119383500D01*
X179338645Y-119383499D01*
X179338649Y-119383499D01*
X179399196Y-119376990D01*
X179399199Y-119376989D01*
X179399201Y-119376989D01*
X179536204Y-119325889D01*
X179560501Y-119307701D01*
X179653261Y-119238261D01*
X179740887Y-119121207D01*
X179740887Y-119121206D01*
X179740889Y-119121204D01*
X179791989Y-118984201D01*
X179794758Y-118958445D01*
X179796953Y-118938032D01*
X179824122Y-118872440D01*
X179882439Y-118831948D01*
X179922231Y-118825500D01*
X179977081Y-118825500D01*
X179977083Y-118825500D01*
X180125994Y-118785599D01*
X180259505Y-118708516D01*
X180368516Y-118599505D01*
X180445599Y-118465994D01*
X180485500Y-118317083D01*
X180485500Y-118162917D01*
X180445599Y-118014006D01*
X180368516Y-117880495D01*
X180368514Y-117880493D01*
X180368510Y-117880488D01*
X180259511Y-117771489D01*
X180259501Y-117771481D01*
X180125994Y-117694401D01*
X179977083Y-117654500D01*
X179922231Y-117654500D01*
X179854110Y-117634498D01*
X179807617Y-117580842D01*
X179796953Y-117541968D01*
X179791990Y-117495803D01*
X179791988Y-117495795D01*
X179762924Y-117417875D01*
X179740889Y-117358796D01*
X179740888Y-117358794D01*
X179740887Y-117358792D01*
X179653261Y-117241738D01*
X179536207Y-117154112D01*
X179536202Y-117154110D01*
X179399204Y-117103011D01*
X179399196Y-117103009D01*
X179338649Y-117096500D01*
X179338638Y-117096500D01*
X177561362Y-117096500D01*
X177561350Y-117096500D01*
X177500803Y-117103009D01*
X177500795Y-117103011D01*
X177363797Y-117154110D01*
X177363792Y-117154112D01*
X177246738Y-117241738D01*
X177159112Y-117358792D01*
X177159110Y-117358797D01*
X177108011Y-117495795D01*
X177108009Y-117495803D01*
X177101500Y-117556350D01*
X177101500Y-118923649D01*
X172404554Y-118923649D01*
X170250137Y-116769233D01*
X170216112Y-116706922D01*
X170221177Y-116636107D01*
X170263724Y-116579271D01*
X170265048Y-116578293D01*
X170381253Y-116493866D01*
X170444611Y-116423500D01*
X170480493Y-116383649D01*
X177101500Y-116383649D01*
X177108009Y-116444196D01*
X177108011Y-116444204D01*
X177159110Y-116581202D01*
X177159112Y-116581207D01*
X177246738Y-116698261D01*
X177363792Y-116785887D01*
X177363794Y-116785888D01*
X177363796Y-116785889D01*
X177422875Y-116807924D01*
X177500795Y-116836988D01*
X177500803Y-116836990D01*
X177561350Y-116843499D01*
X177561355Y-116843499D01*
X177561362Y-116843500D01*
X177561368Y-116843500D01*
X179338632Y-116843500D01*
X179338638Y-116843500D01*
X179338645Y-116843499D01*
X179338649Y-116843499D01*
X179399196Y-116836990D01*
X179399199Y-116836989D01*
X179399201Y-116836989D01*
X179536204Y-116785889D01*
X179558453Y-116769234D01*
X179653261Y-116698261D01*
X179740887Y-116581207D01*
X179740887Y-116581206D01*
X179740889Y-116581204D01*
X179791989Y-116444201D01*
X179791990Y-116444196D01*
X179796953Y-116398032D01*
X179824122Y-116332440D01*
X179882439Y-116291948D01*
X179922231Y-116285500D01*
X179977081Y-116285500D01*
X179977083Y-116285500D01*
X180125994Y-116245599D01*
X180259505Y-116168516D01*
X180368516Y-116059505D01*
X180445599Y-115925994D01*
X180485500Y-115777083D01*
X180485500Y-115622917D01*
X180445599Y-115474006D01*
X180388057Y-115374341D01*
X180368518Y-115340498D01*
X180368510Y-115340488D01*
X180259511Y-115231489D01*
X180259501Y-115231481D01*
X180125994Y-115154401D01*
X179977083Y-115114500D01*
X179922231Y-115114500D01*
X179854110Y-115094498D01*
X179807617Y-115040842D01*
X179796953Y-115001968D01*
X179791990Y-114955803D01*
X179791988Y-114955795D01*
X179762843Y-114877656D01*
X179740889Y-114818796D01*
X179740888Y-114818794D01*
X179740887Y-114818792D01*
X179653261Y-114701738D01*
X179536207Y-114614112D01*
X179536202Y-114614110D01*
X179399204Y-114563011D01*
X179399196Y-114563009D01*
X179338649Y-114556500D01*
X179338638Y-114556500D01*
X177561362Y-114556500D01*
X177561350Y-114556500D01*
X177500803Y-114563009D01*
X177500795Y-114563011D01*
X177363797Y-114614110D01*
X177363792Y-114614112D01*
X177246738Y-114701738D01*
X177159112Y-114818792D01*
X177159110Y-114818797D01*
X177108011Y-114955795D01*
X177108009Y-114955803D01*
X177101500Y-115016350D01*
X177101500Y-116383649D01*
X170480493Y-116383649D01*
X170509034Y-116351951D01*
X170509035Y-116351949D01*
X170509040Y-116351944D01*
X170604527Y-116186556D01*
X170663542Y-116004928D01*
X170683504Y-115815000D01*
X170663542Y-115625072D01*
X170604527Y-115443444D01*
X170509040Y-115278056D01*
X170509038Y-115278054D01*
X170509034Y-115278048D01*
X170381255Y-115136135D01*
X170226752Y-115023882D01*
X170052288Y-114946206D01*
X169865487Y-114906500D01*
X169775100Y-114906500D01*
X169706979Y-114886498D01*
X169660486Y-114832842D01*
X169649100Y-114780500D01*
X169649100Y-114216967D01*
X169649099Y-114216950D01*
X169642590Y-114156403D01*
X169642588Y-114156395D01*
X169613524Y-114078475D01*
X169591489Y-114019396D01*
X169591488Y-114019394D01*
X169591487Y-114019392D01*
X169503861Y-113902338D01*
X169425462Y-113843649D01*
X177101500Y-113843649D01*
X177108009Y-113904196D01*
X177108011Y-113904204D01*
X177159110Y-114041202D01*
X177159112Y-114041207D01*
X177246738Y-114158261D01*
X177363792Y-114245887D01*
X177363794Y-114245888D01*
X177363796Y-114245889D01*
X177422875Y-114267924D01*
X177500795Y-114296988D01*
X177500803Y-114296990D01*
X177561350Y-114303499D01*
X177561355Y-114303499D01*
X177561362Y-114303500D01*
X177561368Y-114303500D01*
X179338632Y-114303500D01*
X179338638Y-114303500D01*
X179338645Y-114303499D01*
X179338649Y-114303499D01*
X179399196Y-114296990D01*
X179399199Y-114296989D01*
X179399201Y-114296989D01*
X179536204Y-114245889D01*
X179539269Y-114243595D01*
X179653261Y-114158261D01*
X179740887Y-114041207D01*
X179740887Y-114041206D01*
X179740889Y-114041204D01*
X179791989Y-113904201D01*
X179791990Y-113904196D01*
X179796953Y-113858032D01*
X179824122Y-113792440D01*
X179882439Y-113751948D01*
X179922231Y-113745500D01*
X179977081Y-113745500D01*
X179977083Y-113745500D01*
X180125994Y-113705599D01*
X180259505Y-113628516D01*
X180368516Y-113519505D01*
X180445599Y-113385994D01*
X180485500Y-113237083D01*
X180485500Y-113082917D01*
X180445599Y-112934006D01*
X180368516Y-112800495D01*
X180368514Y-112800493D01*
X180368510Y-112800488D01*
X180259511Y-112691489D01*
X180259501Y-112691481D01*
X180125994Y-112614401D01*
X179977083Y-112574500D01*
X179922231Y-112574500D01*
X179854110Y-112554498D01*
X179807617Y-112500842D01*
X179796953Y-112461968D01*
X179791990Y-112415803D01*
X179791988Y-112415795D01*
X179740889Y-112278797D01*
X179740887Y-112278792D01*
X179653261Y-112161738D01*
X179536207Y-112074112D01*
X179536202Y-112074110D01*
X179399204Y-112023011D01*
X179399197Y-112023010D01*
X179344904Y-112017173D01*
X179279312Y-111990004D01*
X179238821Y-111931686D01*
X179233165Y-111906000D01*
X179232743Y-111902254D01*
X179244994Y-111832322D01*
X179293107Y-111780115D01*
X179344483Y-111762871D01*
X179373519Y-111759749D01*
X179399195Y-111756990D01*
X179399198Y-111756989D01*
X179399201Y-111756989D01*
X179536204Y-111705889D01*
X179560501Y-111687701D01*
X179653261Y-111618261D01*
X179740887Y-111501207D01*
X179740887Y-111501206D01*
X179740889Y-111501204D01*
X179791989Y-111364201D01*
X179796953Y-111318032D01*
X179824122Y-111252440D01*
X179882439Y-111211948D01*
X179922231Y-111205500D01*
X179977081Y-111205500D01*
X179977083Y-111205500D01*
X180125994Y-111165599D01*
X180259505Y-111088516D01*
X180368516Y-110979505D01*
X180445599Y-110845994D01*
X180485500Y-110697083D01*
X180485500Y-110542917D01*
X180445599Y-110394006D01*
X180368516Y-110260495D01*
X180368514Y-110260493D01*
X180368510Y-110260488D01*
X180259511Y-110151489D01*
X180259501Y-110151481D01*
X180125994Y-110074401D01*
X179977083Y-110034500D01*
X179922231Y-110034500D01*
X179854110Y-110014498D01*
X179807617Y-109960842D01*
X179796953Y-109921968D01*
X179791990Y-109875803D01*
X179791988Y-109875795D01*
X179740889Y-109738797D01*
X179740887Y-109738792D01*
X179653261Y-109621738D01*
X179536207Y-109534112D01*
X179536202Y-109534110D01*
X179399204Y-109483011D01*
X179399196Y-109483009D01*
X179338649Y-109476500D01*
X179338638Y-109476500D01*
X177561362Y-109476500D01*
X177561350Y-109476500D01*
X177500803Y-109483009D01*
X177500795Y-109483011D01*
X177363797Y-109534110D01*
X177363792Y-109534112D01*
X177246738Y-109621738D01*
X177159112Y-109738792D01*
X177159110Y-109738797D01*
X177108011Y-109875795D01*
X177108009Y-109875803D01*
X177101500Y-109936350D01*
X177101500Y-111303649D01*
X177108009Y-111364196D01*
X177108011Y-111364204D01*
X177159110Y-111501202D01*
X177159112Y-111501207D01*
X177246738Y-111618261D01*
X177363792Y-111705887D01*
X177363794Y-111705888D01*
X177363796Y-111705889D01*
X177392784Y-111716701D01*
X177500795Y-111756988D01*
X177508474Y-111758803D01*
X177507877Y-111761326D01*
X177561801Y-111783646D01*
X177602307Y-111841953D01*
X177607974Y-111895885D01*
X177606098Y-111912533D01*
X177578593Y-111977986D01*
X177520069Y-112018178D01*
X177508356Y-112020697D01*
X177508474Y-112021197D01*
X177500795Y-112023011D01*
X177363797Y-112074110D01*
X177363792Y-112074112D01*
X177246738Y-112161738D01*
X177159112Y-112278792D01*
X177159110Y-112278797D01*
X177108011Y-112415795D01*
X177108009Y-112415803D01*
X177101500Y-112476350D01*
X177101500Y-113843649D01*
X169425462Y-113843649D01*
X169386807Y-113814712D01*
X169386802Y-113814710D01*
X169249804Y-113763611D01*
X169249796Y-113763609D01*
X169189249Y-113757100D01*
X169189238Y-113757100D01*
X169177176Y-113757100D01*
X169109055Y-113737098D01*
X169062562Y-113683442D01*
X169051866Y-113644270D01*
X169043542Y-113565072D01*
X169026153Y-113511556D01*
X168984527Y-113383444D01*
X168889040Y-113218056D01*
X168889038Y-113218054D01*
X168889034Y-113218048D01*
X168761255Y-113076135D01*
X168606752Y-112963882D01*
X168432288Y-112886206D01*
X168245487Y-112846500D01*
X168054513Y-112846500D01*
X167867711Y-112886206D01*
X167693247Y-112963882D01*
X167568561Y-113054472D01*
X167501693Y-113078331D01*
X167432541Y-113062250D01*
X167383061Y-113011336D01*
X167368500Y-112952536D01*
X167368500Y-108763649D01*
X177101500Y-108763649D01*
X177108009Y-108824196D01*
X177108011Y-108824204D01*
X177159110Y-108961202D01*
X177159112Y-108961207D01*
X177246738Y-109078261D01*
X177363792Y-109165887D01*
X177363794Y-109165888D01*
X177363796Y-109165889D01*
X177422875Y-109187924D01*
X177500795Y-109216988D01*
X177500803Y-109216990D01*
X177561350Y-109223499D01*
X177561355Y-109223499D01*
X177561362Y-109223500D01*
X177561368Y-109223500D01*
X179338632Y-109223500D01*
X179338638Y-109223500D01*
X179338645Y-109223499D01*
X179338649Y-109223499D01*
X179399196Y-109216990D01*
X179399199Y-109216989D01*
X179399201Y-109216989D01*
X179536204Y-109165889D01*
X179560501Y-109147701D01*
X179653261Y-109078261D01*
X179740887Y-108961207D01*
X179740887Y-108961206D01*
X179740889Y-108961204D01*
X179791989Y-108824201D01*
X179796953Y-108778032D01*
X179824122Y-108712440D01*
X179882439Y-108671948D01*
X179922231Y-108665500D01*
X179977081Y-108665500D01*
X179977083Y-108665500D01*
X180125994Y-108625599D01*
X180259505Y-108548516D01*
X180368516Y-108439505D01*
X180445599Y-108305994D01*
X180485500Y-108157083D01*
X180485500Y-108002917D01*
X180445599Y-107854006D01*
X180368516Y-107720495D01*
X180368514Y-107720493D01*
X180368510Y-107720488D01*
X180259511Y-107611489D01*
X180259501Y-107611481D01*
X180125994Y-107534401D01*
X179977083Y-107494500D01*
X179922231Y-107494500D01*
X179854110Y-107474498D01*
X179807617Y-107420842D01*
X179796953Y-107381968D01*
X179791990Y-107335803D01*
X179791988Y-107335795D01*
X179740889Y-107198797D01*
X179740887Y-107198792D01*
X179653261Y-107081738D01*
X179536207Y-106994112D01*
X179536202Y-106994110D01*
X179399204Y-106943011D01*
X179399196Y-106943009D01*
X179338649Y-106936500D01*
X179338638Y-106936500D01*
X177561362Y-106936500D01*
X177561350Y-106936500D01*
X177500803Y-106943009D01*
X177500795Y-106943011D01*
X177363797Y-106994110D01*
X177363792Y-106994112D01*
X177246738Y-107081738D01*
X177159112Y-107198792D01*
X177159110Y-107198797D01*
X177108011Y-107335795D01*
X177108009Y-107335803D01*
X177101500Y-107396350D01*
X177101500Y-108763649D01*
X167368500Y-108763649D01*
X167368500Y-106223649D01*
X177101500Y-106223649D01*
X177108009Y-106284196D01*
X177108011Y-106284204D01*
X177159110Y-106421202D01*
X177159112Y-106421207D01*
X177246738Y-106538261D01*
X177363792Y-106625887D01*
X177363794Y-106625888D01*
X177363796Y-106625889D01*
X177413948Y-106644595D01*
X177500795Y-106676988D01*
X177500803Y-106676990D01*
X177561350Y-106683499D01*
X177561355Y-106683499D01*
X177561362Y-106683500D01*
X177561368Y-106683500D01*
X179338632Y-106683500D01*
X179338638Y-106683500D01*
X179338645Y-106683499D01*
X179338649Y-106683499D01*
X179399196Y-106676990D01*
X179399199Y-106676989D01*
X179399201Y-106676989D01*
X179536204Y-106625889D01*
X179560501Y-106607701D01*
X179653261Y-106538261D01*
X179740887Y-106421207D01*
X179740887Y-106421206D01*
X179740889Y-106421204D01*
X179791989Y-106284201D01*
X179796953Y-106238032D01*
X179824122Y-106172440D01*
X179882439Y-106131948D01*
X179922231Y-106125500D01*
X179977081Y-106125500D01*
X179977083Y-106125500D01*
X180125994Y-106085599D01*
X180259505Y-106008516D01*
X180368516Y-105899505D01*
X180445599Y-105765994D01*
X180485500Y-105617083D01*
X180485500Y-105462917D01*
X180445599Y-105314006D01*
X180368516Y-105180495D01*
X180368514Y-105180493D01*
X180368510Y-105180488D01*
X180259511Y-105071489D01*
X180259501Y-105071481D01*
X180125994Y-104994401D01*
X179977083Y-104954500D01*
X179922231Y-104954500D01*
X179854110Y-104934498D01*
X179807617Y-104880842D01*
X179796953Y-104841968D01*
X179791990Y-104795803D01*
X179791988Y-104795795D01*
X179750193Y-104683742D01*
X179740889Y-104658796D01*
X179740888Y-104658794D01*
X179740887Y-104658792D01*
X179653261Y-104541738D01*
X179536207Y-104454112D01*
X179536202Y-104454110D01*
X179399204Y-104403011D01*
X179399196Y-104403009D01*
X179338649Y-104396500D01*
X179338638Y-104396500D01*
X177561362Y-104396500D01*
X177561350Y-104396500D01*
X177500803Y-104403009D01*
X177500795Y-104403011D01*
X177363797Y-104454110D01*
X177363792Y-104454112D01*
X177246738Y-104541738D01*
X177159112Y-104658792D01*
X177159110Y-104658797D01*
X177108011Y-104795795D01*
X177108009Y-104795803D01*
X177101500Y-104856350D01*
X177101500Y-106223649D01*
X167368500Y-106223649D01*
X167368500Y-103683649D01*
X177101500Y-103683649D01*
X177108009Y-103744196D01*
X177108011Y-103744204D01*
X177159110Y-103881202D01*
X177159112Y-103881207D01*
X177246738Y-103998261D01*
X177363792Y-104085887D01*
X177363794Y-104085888D01*
X177363796Y-104085889D01*
X177422875Y-104107924D01*
X177500795Y-104136988D01*
X177500803Y-104136990D01*
X177561350Y-104143499D01*
X177561355Y-104143499D01*
X177561362Y-104143500D01*
X177561368Y-104143500D01*
X179338632Y-104143500D01*
X179338638Y-104143500D01*
X179338645Y-104143499D01*
X179338649Y-104143499D01*
X179399196Y-104136990D01*
X179399199Y-104136989D01*
X179399201Y-104136989D01*
X179405084Y-104134795D01*
X179418045Y-104129960D01*
X179536204Y-104085889D01*
X179560501Y-104067701D01*
X179653261Y-103998261D01*
X179740887Y-103881207D01*
X179740887Y-103881206D01*
X179740889Y-103881204D01*
X179791989Y-103744201D01*
X179796953Y-103698032D01*
X179824122Y-103632440D01*
X179882439Y-103591948D01*
X179922231Y-103585500D01*
X179977081Y-103585500D01*
X179977083Y-103585500D01*
X180125994Y-103545599D01*
X180259505Y-103468516D01*
X180368516Y-103359505D01*
X180445599Y-103225994D01*
X180485500Y-103077083D01*
X180485500Y-102922917D01*
X180445599Y-102774006D01*
X180368516Y-102640495D01*
X180368514Y-102640493D01*
X180368510Y-102640488D01*
X180259511Y-102531489D01*
X180259501Y-102531481D01*
X180125994Y-102454401D01*
X179977083Y-102414500D01*
X179922231Y-102414500D01*
X179854110Y-102394498D01*
X179807617Y-102340842D01*
X179796953Y-102301968D01*
X179791990Y-102255803D01*
X179791988Y-102255795D01*
X179740889Y-102118797D01*
X179740887Y-102118792D01*
X179653261Y-102001738D01*
X179536207Y-101914112D01*
X179536202Y-101914110D01*
X179399204Y-101863011D01*
X179399196Y-101863009D01*
X179338649Y-101856500D01*
X179338638Y-101856500D01*
X177561362Y-101856500D01*
X177561350Y-101856500D01*
X177500803Y-101863009D01*
X177500795Y-101863011D01*
X177363797Y-101914110D01*
X177363792Y-101914112D01*
X177246738Y-102001738D01*
X177159112Y-102118792D01*
X177159110Y-102118797D01*
X177108011Y-102255795D01*
X177108009Y-102255803D01*
X177101500Y-102316350D01*
X177101500Y-103683649D01*
X167368500Y-103683649D01*
X167368500Y-102230003D01*
X171854659Y-102230003D01*
X171873974Y-102426124D01*
X171873974Y-102426126D01*
X171931186Y-102614728D01*
X172016322Y-102774005D01*
X172024090Y-102788538D01*
X172149117Y-102940883D01*
X172301462Y-103065910D01*
X172475273Y-103158814D01*
X172663868Y-103216024D01*
X172663872Y-103216024D01*
X172663874Y-103216025D01*
X172859997Y-103235341D01*
X172860000Y-103235341D01*
X172860003Y-103235341D01*
X173056124Y-103216025D01*
X173056126Y-103216025D01*
X173056127Y-103216024D01*
X173056132Y-103216024D01*
X173244727Y-103158814D01*
X173418538Y-103065910D01*
X173570883Y-102940883D01*
X173695910Y-102788538D01*
X173788814Y-102614727D01*
X173846024Y-102426132D01*
X173846025Y-102426124D01*
X173865341Y-102230003D01*
X173865341Y-102229996D01*
X173846025Y-102033875D01*
X173846025Y-102033873D01*
X173846024Y-102033870D01*
X173846024Y-102033868D01*
X173788814Y-101845273D01*
X173695910Y-101671462D01*
X173570883Y-101519117D01*
X173418538Y-101394090D01*
X173244728Y-101301186D01*
X173056125Y-101243974D01*
X172860003Y-101224659D01*
X172859997Y-101224659D01*
X172663875Y-101243974D01*
X172663873Y-101243974D01*
X172475271Y-101301186D01*
X172301461Y-101394090D01*
X172149117Y-101519117D01*
X172024090Y-101671461D01*
X171931186Y-101845271D01*
X171873974Y-102033873D01*
X171873974Y-102033875D01*
X171854659Y-102229996D01*
X171854659Y-102230003D01*
X167368500Y-102230003D01*
X167368500Y-101143649D01*
X177101500Y-101143649D01*
X177108009Y-101204196D01*
X177108011Y-101204204D01*
X177159110Y-101341202D01*
X177159112Y-101341207D01*
X177246738Y-101458261D01*
X177363792Y-101545887D01*
X177363794Y-101545888D01*
X177363796Y-101545889D01*
X177422875Y-101567924D01*
X177500795Y-101596988D01*
X177500803Y-101596990D01*
X177561350Y-101603499D01*
X177561355Y-101603499D01*
X177561362Y-101603500D01*
X177561368Y-101603500D01*
X179338632Y-101603500D01*
X179338638Y-101603500D01*
X179338645Y-101603499D01*
X179338649Y-101603499D01*
X179399196Y-101596990D01*
X179399199Y-101596989D01*
X179399201Y-101596989D01*
X179536204Y-101545889D01*
X179560501Y-101527701D01*
X179653261Y-101458261D01*
X179740887Y-101341207D01*
X179740887Y-101341206D01*
X179740889Y-101341204D01*
X179791989Y-101204201D01*
X179796953Y-101158032D01*
X179824122Y-101092440D01*
X179882439Y-101051948D01*
X179922231Y-101045500D01*
X179977081Y-101045500D01*
X179977083Y-101045500D01*
X180125994Y-101005599D01*
X180259505Y-100928516D01*
X180368516Y-100819505D01*
X180445599Y-100685994D01*
X180485500Y-100537083D01*
X180485500Y-100382917D01*
X180445599Y-100234006D01*
X180368516Y-100100495D01*
X180368514Y-100100493D01*
X180368510Y-100100488D01*
X180259511Y-99991489D01*
X180259501Y-99991481D01*
X180125994Y-99914401D01*
X179977083Y-99874500D01*
X179922231Y-99874500D01*
X179854110Y-99854498D01*
X179807617Y-99800842D01*
X179796953Y-99761968D01*
X179791990Y-99715803D01*
X179791988Y-99715795D01*
X179740889Y-99578797D01*
X179740887Y-99578792D01*
X179653261Y-99461738D01*
X179536207Y-99374112D01*
X179536202Y-99374110D01*
X179399204Y-99323011D01*
X179399196Y-99323009D01*
X179338649Y-99316500D01*
X179338638Y-99316500D01*
X177561362Y-99316500D01*
X177561350Y-99316500D01*
X177500803Y-99323009D01*
X177500795Y-99323011D01*
X177363797Y-99374110D01*
X177363792Y-99374112D01*
X177246738Y-99461738D01*
X177159112Y-99578792D01*
X177159110Y-99578797D01*
X177108011Y-99715795D01*
X177108009Y-99715803D01*
X177101500Y-99776350D01*
X177101500Y-101143649D01*
X167368500Y-101143649D01*
X167368500Y-98899581D01*
X167388502Y-98831460D01*
X167405400Y-98810491D01*
X170105487Y-96110403D01*
X170167799Y-96076378D01*
X170194582Y-96073499D01*
X170282212Y-96073499D01*
X170384381Y-96063062D01*
X170549920Y-96008209D01*
X170549922Y-96008207D01*
X170556886Y-96005900D01*
X170557517Y-96007805D01*
X170617711Y-95998652D01*
X170682529Y-96027619D01*
X170721397Y-96087032D01*
X170721974Y-96158026D01*
X170689891Y-96212604D01*
X170673342Y-96229153D01*
X170581791Y-96377580D01*
X170526937Y-96543122D01*
X170516500Y-96645278D01*
X170516500Y-97244712D01*
X170526937Y-97346880D01*
X170536057Y-97374401D01*
X170581791Y-97512420D01*
X170581792Y-97512421D01*
X170581794Y-97512425D01*
X170618668Y-97572208D01*
X170637405Y-97640687D01*
X170631261Y-97677286D01*
X170626459Y-97692066D01*
X170626457Y-97692074D01*
X170606496Y-97882000D01*
X170626457Y-98071927D01*
X170650524Y-98145994D01*
X170685473Y-98253556D01*
X170685476Y-98253561D01*
X170780958Y-98418941D01*
X170780965Y-98418951D01*
X170908744Y-98560864D01*
X170908747Y-98560866D01*
X171063248Y-98673118D01*
X171237712Y-98750794D01*
X171424513Y-98790500D01*
X171615487Y-98790500D01*
X171802288Y-98750794D01*
X171976752Y-98673118D01*
X172131253Y-98560866D01*
X172149480Y-98540621D01*
X172209924Y-98503382D01*
X172280908Y-98504732D01*
X172336752Y-98540619D01*
X172388747Y-98598366D01*
X172543248Y-98710618D01*
X172717712Y-98788294D01*
X172904513Y-98828000D01*
X173095487Y-98828000D01*
X173282288Y-98788294D01*
X173456752Y-98710618D01*
X173603982Y-98603649D01*
X177101500Y-98603649D01*
X177108009Y-98664196D01*
X177108011Y-98664204D01*
X177159110Y-98801202D01*
X177159112Y-98801207D01*
X177246738Y-98918261D01*
X177363792Y-99005887D01*
X177363794Y-99005888D01*
X177363796Y-99005889D01*
X177422875Y-99027924D01*
X177500795Y-99056988D01*
X177500803Y-99056990D01*
X177561350Y-99063499D01*
X177561355Y-99063499D01*
X177561362Y-99063500D01*
X177561368Y-99063500D01*
X179338632Y-99063500D01*
X179338638Y-99063500D01*
X179338645Y-99063499D01*
X179338649Y-99063499D01*
X179399196Y-99056990D01*
X179399199Y-99056989D01*
X179399201Y-99056989D01*
X179536204Y-99005889D01*
X179548238Y-98996881D01*
X179653261Y-98918261D01*
X179740887Y-98801207D01*
X179740887Y-98801206D01*
X179740889Y-98801204D01*
X179788663Y-98673118D01*
X179791988Y-98664204D01*
X179791990Y-98664196D01*
X179796953Y-98618032D01*
X179824122Y-98552440D01*
X179882439Y-98511948D01*
X179922231Y-98505500D01*
X179977081Y-98505500D01*
X179977083Y-98505500D01*
X180125994Y-98465599D01*
X180259505Y-98388516D01*
X180368516Y-98279505D01*
X180445599Y-98145994D01*
X180485500Y-97997083D01*
X180485500Y-97842917D01*
X180445599Y-97694006D01*
X180396612Y-97609158D01*
X180368518Y-97560498D01*
X180368510Y-97560488D01*
X180259511Y-97451489D01*
X180259501Y-97451481D01*
X180125994Y-97374401D01*
X180103878Y-97368475D01*
X179977083Y-97334500D01*
X179922231Y-97334500D01*
X179854110Y-97314498D01*
X179807617Y-97260842D01*
X179796953Y-97221968D01*
X179791990Y-97175803D01*
X179791988Y-97175795D01*
X179762924Y-97097875D01*
X179740889Y-97038796D01*
X179740888Y-97038794D01*
X179740887Y-97038792D01*
X179653261Y-96921738D01*
X179536207Y-96834112D01*
X179536202Y-96834110D01*
X179399204Y-96783011D01*
X179399196Y-96783009D01*
X179338649Y-96776500D01*
X179338638Y-96776500D01*
X177561362Y-96776500D01*
X177561350Y-96776500D01*
X177500803Y-96783009D01*
X177500795Y-96783011D01*
X177363797Y-96834110D01*
X177363792Y-96834112D01*
X177246738Y-96921738D01*
X177159112Y-97038792D01*
X177159110Y-97038797D01*
X177108011Y-97175795D01*
X177108009Y-97175803D01*
X177101500Y-97236350D01*
X177101500Y-98603649D01*
X173603982Y-98603649D01*
X173611253Y-98598366D01*
X173628548Y-98579158D01*
X173739034Y-98456451D01*
X173739035Y-98456449D01*
X173739040Y-98456444D01*
X173834527Y-98291056D01*
X173893542Y-98109428D01*
X173913504Y-97919500D01*
X173893542Y-97729572D01*
X173893542Y-97729571D01*
X173874648Y-97671421D01*
X173872620Y-97600454D01*
X173887239Y-97566340D01*
X173928209Y-97499920D01*
X173983062Y-97334381D01*
X173993500Y-97232213D01*
X173993499Y-96632788D01*
X173983062Y-96530619D01*
X173928209Y-96365080D01*
X173836658Y-96216654D01*
X173836657Y-96216653D01*
X173836652Y-96216647D01*
X173729100Y-96109095D01*
X173695074Y-96046783D01*
X173700139Y-95975968D01*
X173729100Y-95930905D01*
X173836652Y-95823352D01*
X173836658Y-95823346D01*
X173912940Y-95699673D01*
X173965723Y-95652199D01*
X174035798Y-95640796D01*
X174087214Y-95659137D01*
X174176981Y-95715541D01*
X174176982Y-95715541D01*
X174176985Y-95715543D01*
X174348953Y-95775717D01*
X174530000Y-95796116D01*
X174711047Y-95775717D01*
X174883015Y-95715543D01*
X175037281Y-95618611D01*
X175166111Y-95489781D01*
X175263043Y-95335515D01*
X175323217Y-95163547D01*
X175327196Y-95128230D01*
X175354698Y-95062780D01*
X175413222Y-95022587D01*
X175484185Y-95020414D01*
X175545058Y-95056952D01*
X175575244Y-95114302D01*
X175576784Y-95121050D01*
X175636957Y-95293015D01*
X175636958Y-95293018D01*
X175733887Y-95447279D01*
X175733888Y-95447281D01*
X175862718Y-95576111D01*
X175862720Y-95576112D01*
X176016981Y-95673041D01*
X176016982Y-95673041D01*
X176016985Y-95673043D01*
X176188953Y-95733217D01*
X176370000Y-95753616D01*
X176551047Y-95733217D01*
X176723015Y-95673043D01*
X176877281Y-95576111D01*
X176886405Y-95566988D01*
X176948717Y-95532962D01*
X177019532Y-95538027D01*
X177076368Y-95580574D01*
X177101179Y-95647094D01*
X177101500Y-95656083D01*
X177101500Y-96063649D01*
X177108009Y-96124196D01*
X177108011Y-96124204D01*
X177159110Y-96261202D01*
X177159112Y-96261207D01*
X177246738Y-96378261D01*
X177363792Y-96465887D01*
X177363794Y-96465888D01*
X177363796Y-96465889D01*
X177422875Y-96487924D01*
X177500795Y-96516988D01*
X177500803Y-96516990D01*
X177561350Y-96523499D01*
X177561355Y-96523499D01*
X177561362Y-96523500D01*
X177561368Y-96523500D01*
X179338632Y-96523500D01*
X179338638Y-96523500D01*
X179338645Y-96523499D01*
X179338649Y-96523499D01*
X179399196Y-96516990D01*
X179399199Y-96516989D01*
X179399201Y-96516989D01*
X179536204Y-96465889D01*
X179560501Y-96447701D01*
X179653261Y-96378261D01*
X179740887Y-96261207D01*
X179740887Y-96261206D01*
X179740889Y-96261204D01*
X179784960Y-96143045D01*
X179791988Y-96124204D01*
X179791990Y-96124196D01*
X179796953Y-96078032D01*
X179824122Y-96012440D01*
X179882439Y-95971948D01*
X179922231Y-95965500D01*
X179977081Y-95965500D01*
X179977083Y-95965500D01*
X180125994Y-95925599D01*
X180259505Y-95848516D01*
X180368516Y-95739505D01*
X180445599Y-95605994D01*
X180485500Y-95457083D01*
X180485500Y-95302917D01*
X180445599Y-95154006D01*
X180368516Y-95020495D01*
X180368514Y-95020493D01*
X180368510Y-95020488D01*
X180259511Y-94911489D01*
X180259501Y-94911481D01*
X180125994Y-94834401D01*
X179977083Y-94794500D01*
X179922231Y-94794500D01*
X179854110Y-94774498D01*
X179807617Y-94720842D01*
X179796953Y-94681968D01*
X179791990Y-94635803D01*
X179791988Y-94635795D01*
X179740889Y-94498797D01*
X179740887Y-94498792D01*
X179653261Y-94381738D01*
X179536207Y-94294112D01*
X179536203Y-94294110D01*
X179436812Y-94257039D01*
X179379976Y-94214492D01*
X179355166Y-94147972D01*
X179355534Y-94125819D01*
X179361877Y-94065476D01*
X179388889Y-93999823D01*
X179443150Y-93960596D01*
X179536204Y-93925889D01*
X179560501Y-93907701D01*
X179653261Y-93838261D01*
X179740887Y-93721207D01*
X179740887Y-93721206D01*
X179740889Y-93721204D01*
X179791989Y-93584201D01*
X179791990Y-93584196D01*
X179796953Y-93538032D01*
X179824122Y-93472440D01*
X179882439Y-93431948D01*
X179922231Y-93425500D01*
X179977081Y-93425500D01*
X179977083Y-93425500D01*
X180125994Y-93385599D01*
X180259505Y-93308516D01*
X180368516Y-93199505D01*
X180445599Y-93065994D01*
X180485500Y-92917083D01*
X180485500Y-92762917D01*
X180445599Y-92614006D01*
X180379420Y-92499381D01*
X180368518Y-92480498D01*
X180368510Y-92480488D01*
X180259511Y-92371489D01*
X180259501Y-92371481D01*
X180125994Y-92294401D01*
X179977083Y-92254500D01*
X179922231Y-92254500D01*
X179854110Y-92234498D01*
X179807617Y-92180842D01*
X179796953Y-92141968D01*
X179791990Y-92095803D01*
X179791988Y-92095795D01*
X179740889Y-91958797D01*
X179740887Y-91958792D01*
X179653261Y-91841738D01*
X179536207Y-91754112D01*
X179536202Y-91754110D01*
X179399204Y-91703011D01*
X179399196Y-91703009D01*
X179338649Y-91696500D01*
X179338638Y-91696500D01*
X177561362Y-91696500D01*
X177561350Y-91696500D01*
X177500803Y-91703009D01*
X177500795Y-91703011D01*
X177355353Y-91757260D01*
X177354278Y-91754379D01*
X177299894Y-91766199D01*
X177233379Y-91741376D01*
X177206617Y-91712085D01*
X177206208Y-91712409D01*
X177201672Y-91706672D01*
X177201663Y-91706662D01*
X177201658Y-91706654D01*
X177201655Y-91706651D01*
X177201654Y-91706649D01*
X177078352Y-91583347D01*
X177078346Y-91583342D01*
X177055905Y-91569500D01*
X176929920Y-91491791D01*
X176764381Y-91436938D01*
X176764379Y-91436937D01*
X176764377Y-91436937D01*
X176662221Y-91426500D01*
X176062787Y-91426500D01*
X175960619Y-91436937D01*
X175795079Y-91491791D01*
X175646653Y-91583342D01*
X175646647Y-91583347D01*
X175539095Y-91690900D01*
X175476783Y-91724926D01*
X175405968Y-91719861D01*
X175360905Y-91690900D01*
X175253352Y-91583347D01*
X175253346Y-91583342D01*
X175230905Y-91569500D01*
X175104920Y-91491791D01*
X175104917Y-91491790D01*
X175098674Y-91487939D01*
X175099412Y-91486741D01*
X175052121Y-91445095D01*
X175032665Y-91376816D01*
X175053212Y-91308858D01*
X175107238Y-91262796D01*
X175122086Y-91257250D01*
X175126125Y-91256024D01*
X175126132Y-91256024D01*
X175314727Y-91198814D01*
X175488538Y-91105910D01*
X175640883Y-90980883D01*
X175765910Y-90828538D01*
X175858814Y-90654727D01*
X175916024Y-90466132D01*
X175921713Y-90408368D01*
X175935341Y-90270003D01*
X175935341Y-90269996D01*
X175916025Y-90073875D01*
X175916023Y-90073864D01*
X175868854Y-89918369D01*
X175868220Y-89847375D01*
X175906069Y-89787309D01*
X175970384Y-89757241D01*
X176040674Y-89766685D01*
X176157712Y-89818794D01*
X176344513Y-89858500D01*
X176535487Y-89858500D01*
X176722288Y-89818794D01*
X176896752Y-89741118D01*
X176901438Y-89737713D01*
X176968303Y-89713854D01*
X177037455Y-89729932D01*
X177086937Y-89780844D01*
X177101500Y-89839648D01*
X177101500Y-90983649D01*
X177108009Y-91044196D01*
X177108011Y-91044204D01*
X177159110Y-91181202D01*
X177159112Y-91181207D01*
X177246738Y-91298261D01*
X177363792Y-91385887D01*
X177363794Y-91385888D01*
X177363796Y-91385889D01*
X177419450Y-91406647D01*
X177500795Y-91436988D01*
X177500803Y-91436990D01*
X177561350Y-91443499D01*
X177561355Y-91443499D01*
X177561362Y-91443500D01*
X177561368Y-91443500D01*
X179338632Y-91443500D01*
X179338638Y-91443500D01*
X179338645Y-91443499D01*
X179338649Y-91443499D01*
X179399196Y-91436990D01*
X179399199Y-91436989D01*
X179399201Y-91436989D01*
X179399341Y-91436937D01*
X179444173Y-91420215D01*
X179536204Y-91385889D01*
X179560501Y-91367701D01*
X179653261Y-91298261D01*
X179740887Y-91181207D01*
X179740887Y-91181206D01*
X179740889Y-91181204D01*
X179791989Y-91044201D01*
X179796953Y-90998032D01*
X179824122Y-90932440D01*
X179882439Y-90891948D01*
X179922231Y-90885500D01*
X179977081Y-90885500D01*
X179977083Y-90885500D01*
X180125994Y-90845599D01*
X180259505Y-90768516D01*
X180368516Y-90659505D01*
X180445599Y-90525994D01*
X180485500Y-90377083D01*
X180485500Y-90222917D01*
X180445599Y-90074006D01*
X180386107Y-89970964D01*
X180368518Y-89940498D01*
X180368510Y-89940488D01*
X180259511Y-89831489D01*
X180259501Y-89831481D01*
X180125994Y-89754401D01*
X180104404Y-89748616D01*
X179977083Y-89714500D01*
X179922231Y-89714500D01*
X179854110Y-89694498D01*
X179807617Y-89640842D01*
X179796953Y-89601968D01*
X179791990Y-89555803D01*
X179791988Y-89555795D01*
X179740889Y-89418797D01*
X179740887Y-89418792D01*
X179653261Y-89301738D01*
X179536207Y-89214112D01*
X179536202Y-89214110D01*
X179399204Y-89163011D01*
X179399196Y-89163009D01*
X179338649Y-89156500D01*
X179338638Y-89156500D01*
X177561362Y-89156500D01*
X177561350Y-89156500D01*
X177500794Y-89163010D01*
X177499643Y-89163283D01*
X177498722Y-89163233D01*
X177492961Y-89163853D01*
X177492860Y-89162919D01*
X177428749Y-89159482D01*
X177371163Y-89117956D01*
X177345170Y-89051888D01*
X177345358Y-89027496D01*
X177347546Y-89006681D01*
X177374561Y-88941027D01*
X177432783Y-88900398D01*
X177492799Y-88897650D01*
X177492961Y-88896147D01*
X177561350Y-88903499D01*
X177561355Y-88903499D01*
X177561362Y-88903500D01*
X177561368Y-88903500D01*
X179338632Y-88903500D01*
X179338638Y-88903500D01*
X179338645Y-88903499D01*
X179338649Y-88903499D01*
X179399196Y-88896990D01*
X179399199Y-88896989D01*
X179399201Y-88896989D01*
X179401459Y-88896147D01*
X179418045Y-88889960D01*
X179536204Y-88845889D01*
X179549519Y-88835922D01*
X179653261Y-88758261D01*
X179740887Y-88641207D01*
X179740887Y-88641206D01*
X179740889Y-88641204D01*
X179791989Y-88504201D01*
X179794232Y-88483342D01*
X179796953Y-88458032D01*
X179824122Y-88392440D01*
X179882439Y-88351948D01*
X179922231Y-88345500D01*
X179977081Y-88345500D01*
X179977083Y-88345500D01*
X180125994Y-88305599D01*
X180259505Y-88228516D01*
X180368516Y-88119505D01*
X180445599Y-87985994D01*
X180485500Y-87837083D01*
X180485500Y-87682917D01*
X180445599Y-87534006D01*
X180368516Y-87400495D01*
X180368514Y-87400493D01*
X180368510Y-87400488D01*
X180259511Y-87291489D01*
X180259501Y-87291481D01*
X180125994Y-87214401D01*
X179977083Y-87174500D01*
X179922231Y-87174500D01*
X179854110Y-87154498D01*
X179807617Y-87100842D01*
X179796953Y-87061968D01*
X179791990Y-87015803D01*
X179791988Y-87015795D01*
X179740889Y-86878797D01*
X179740887Y-86878792D01*
X179653261Y-86761738D01*
X179536207Y-86674112D01*
X179536202Y-86674110D01*
X179399204Y-86623011D01*
X179399196Y-86623009D01*
X179338649Y-86616500D01*
X179338638Y-86616500D01*
X177561362Y-86616500D01*
X177561350Y-86616500D01*
X177500803Y-86623009D01*
X177500795Y-86623011D01*
X177363797Y-86674110D01*
X177363792Y-86674112D01*
X177246738Y-86761738D01*
X177159112Y-86878792D01*
X177159110Y-86878797D01*
X177108011Y-87015795D01*
X177108009Y-87015803D01*
X177101500Y-87076350D01*
X177101500Y-88060351D01*
X177081498Y-88128472D01*
X177027842Y-88174965D01*
X176957568Y-88185069D01*
X176901443Y-88162290D01*
X176896752Y-88158882D01*
X176882809Y-88152674D01*
X176863249Y-88143965D01*
X176809154Y-88097984D01*
X176788506Y-88030056D01*
X176788500Y-88028859D01*
X176788500Y-85476367D01*
X176788499Y-85476350D01*
X176781990Y-85415803D01*
X176781988Y-85415795D01*
X176727740Y-85270353D01*
X176730773Y-85269221D01*
X176719067Y-85215413D01*
X176741867Y-85154276D01*
X176741570Y-85154114D01*
X176742700Y-85152043D01*
X176743875Y-85148894D01*
X176745889Y-85146204D01*
X176796989Y-85009201D01*
X176797455Y-85004873D01*
X176803499Y-84948649D01*
X176803500Y-84948632D01*
X176803500Y-83331367D01*
X176803499Y-83331350D01*
X176796990Y-83270803D01*
X176796988Y-83270795D01*
X176767924Y-83192875D01*
X176745889Y-83133796D01*
X176698512Y-83070508D01*
X176673702Y-83003989D01*
X176688793Y-82934615D01*
X176698509Y-82919495D01*
X176745889Y-82856204D01*
X176796989Y-82719201D01*
X176803500Y-82658638D01*
X176803500Y-81041362D01*
X176803499Y-81041350D01*
X176796990Y-80980803D01*
X176796988Y-80980795D01*
X176762634Y-80888691D01*
X176745889Y-80843796D01*
X176745888Y-80843794D01*
X176745887Y-80843792D01*
X176658261Y-80726738D01*
X176541207Y-80639112D01*
X176541202Y-80639110D01*
X176404204Y-80588011D01*
X176404196Y-80588009D01*
X176343649Y-80581500D01*
X176343638Y-80581500D01*
X176002722Y-80581500D01*
X175934601Y-80561498D01*
X175888108Y-80507842D01*
X175878004Y-80437568D01*
X175901854Y-80379991D01*
X175930887Y-80341207D01*
X175930887Y-80341206D01*
X175930889Y-80341204D01*
X175981989Y-80204201D01*
X175988500Y-80143638D01*
X175988500Y-79096362D01*
X175988499Y-79096350D01*
X175981990Y-79035803D01*
X175981988Y-79035795D01*
X175930889Y-78898797D01*
X175930887Y-78898792D01*
X175863632Y-78808951D01*
X175838821Y-78742431D01*
X175838500Y-78733442D01*
X175838500Y-78419500D01*
X175858502Y-78351379D01*
X175912158Y-78304886D01*
X175964500Y-78293500D01*
X176528632Y-78293500D01*
X176528638Y-78293500D01*
X176528645Y-78293499D01*
X176528649Y-78293499D01*
X176589196Y-78286990D01*
X176589199Y-78286989D01*
X176589201Y-78286989D01*
X176726204Y-78235889D01*
X176843261Y-78148261D01*
X176930889Y-78031204D01*
X176981989Y-77894201D01*
X176988500Y-77833638D01*
X176988500Y-77186362D01*
X176988499Y-77186350D01*
X176981990Y-77125803D01*
X176981989Y-77125798D01*
X176964546Y-77079034D01*
X176959480Y-77008218D01*
X176964546Y-76990966D01*
X176965356Y-76988796D01*
X176981989Y-76944201D01*
X176981988Y-76944201D01*
X176984744Y-76936815D01*
X176986301Y-76937396D01*
X177016818Y-76883819D01*
X177079731Y-76850919D01*
X177104300Y-76848500D01*
X177115487Y-76848500D01*
X177302288Y-76808794D01*
X177476752Y-76731118D01*
X177631253Y-76618866D01*
X177631255Y-76618864D01*
X177759034Y-76476951D01*
X177759035Y-76476949D01*
X177759040Y-76476944D01*
X177803722Y-76399551D01*
X177855104Y-76350559D01*
X177924818Y-76337123D01*
X177956874Y-76344497D01*
X178070795Y-76386988D01*
X178070803Y-76386990D01*
X178131350Y-76393499D01*
X178131355Y-76393499D01*
X178131362Y-76393500D01*
X178131368Y-76393500D01*
X179228632Y-76393500D01*
X179228638Y-76393500D01*
X179228645Y-76393499D01*
X179228649Y-76393499D01*
X179289196Y-76386990D01*
X179289199Y-76386989D01*
X179289201Y-76386989D01*
X179426204Y-76335889D01*
X179490162Y-76288011D01*
X179543261Y-76248261D01*
X179630887Y-76131207D01*
X179630887Y-76131206D01*
X179630889Y-76131204D01*
X179681989Y-75994201D01*
X179688500Y-75933638D01*
X179688500Y-75286362D01*
X179688499Y-75286350D01*
X179681990Y-75225803D01*
X179681988Y-75225795D01*
X179652924Y-75147875D01*
X179630889Y-75088796D01*
X179630887Y-75088793D01*
X179630887Y-75088792D01*
X179543261Y-74971738D01*
X179426207Y-74884112D01*
X179426202Y-74884110D01*
X179289204Y-74833011D01*
X179289196Y-74833009D01*
X179228649Y-74826500D01*
X179228638Y-74826500D01*
X178131362Y-74826500D01*
X178131350Y-74826500D01*
X178070803Y-74833009D01*
X178070795Y-74833011D01*
X177933797Y-74884110D01*
X177933792Y-74884112D01*
X177816738Y-74971738D01*
X177729112Y-75088792D01*
X177729112Y-75088793D01*
X177715625Y-75124952D01*
X177673077Y-75181787D01*
X177606556Y-75206596D01*
X177537182Y-75191503D01*
X177523509Y-75182853D01*
X177476752Y-75148882D01*
X177302288Y-75071206D01*
X177115487Y-75031500D01*
X176951069Y-75031500D01*
X176882948Y-75011498D01*
X176850201Y-74981010D01*
X176843261Y-74971739D01*
X176843259Y-74971738D01*
X176843259Y-74971737D01*
X176726207Y-74884112D01*
X176726202Y-74884110D01*
X176589204Y-74833011D01*
X176589196Y-74833009D01*
X176528649Y-74826500D01*
X176528638Y-74826500D01*
X176197725Y-74826500D01*
X176173144Y-74824079D01*
X176059635Y-74801500D01*
X176059630Y-74801500D01*
X175475370Y-74801500D01*
X175475367Y-74801500D01*
X175319168Y-74832570D01*
X175319163Y-74832572D01*
X175245600Y-74863043D01*
X175172032Y-74893516D01*
X175039615Y-74981994D01*
X175039613Y-74981995D01*
X174533165Y-75488441D01*
X174470853Y-75522466D01*
X174400037Y-75517401D01*
X174346671Y-75479279D01*
X174280883Y-75399117D01*
X174128538Y-75274090D01*
X173954728Y-75181186D01*
X173766125Y-75123974D01*
X173570003Y-75104659D01*
X173569997Y-75104659D01*
X173373875Y-75123974D01*
X173373873Y-75123974D01*
X173185271Y-75181186D01*
X173011461Y-75274090D01*
X172859117Y-75399117D01*
X172734090Y-75551461D01*
X172641186Y-75725271D01*
X172583974Y-75913873D01*
X172583974Y-75913875D01*
X172564659Y-76109996D01*
X172564659Y-76110003D01*
X172583974Y-76306124D01*
X172583974Y-76306126D01*
X172641186Y-76494728D01*
X172682402Y-76571837D01*
X172734090Y-76668538D01*
X172859117Y-76820883D01*
X173011462Y-76945910D01*
X173091689Y-76988792D01*
X173178137Y-77035000D01*
X173185273Y-77038814D01*
X173373868Y-77096024D01*
X173373872Y-77096024D01*
X173373874Y-77096025D01*
X173569997Y-77115341D01*
X173570000Y-77115341D01*
X173570003Y-77115341D01*
X173766124Y-77096025D01*
X173766126Y-77096025D01*
X173766127Y-77096024D01*
X173766132Y-77096024D01*
X173954727Y-77038814D01*
X174036104Y-76995316D01*
X174105610Y-76980845D01*
X174171906Y-77006249D01*
X174213944Y-77063462D01*
X174221500Y-77106439D01*
X174221500Y-78733442D01*
X174201498Y-78801563D01*
X174196368Y-78808951D01*
X174129112Y-78898792D01*
X174129110Y-78898797D01*
X174078011Y-79035795D01*
X174078009Y-79035803D01*
X174071500Y-79096350D01*
X174071500Y-80143649D01*
X174078009Y-80204196D01*
X174078011Y-80204204D01*
X174129110Y-80341202D01*
X174129112Y-80341207D01*
X174158146Y-80379991D01*
X174182957Y-80446511D01*
X174167866Y-80515885D01*
X174117663Y-80566087D01*
X174057278Y-80581500D01*
X173196350Y-80581500D01*
X173135803Y-80588009D01*
X173135795Y-80588011D01*
X172998797Y-80639110D01*
X172998792Y-80639112D01*
X172881738Y-80726738D01*
X172794112Y-80843792D01*
X172794110Y-80843797D01*
X172743011Y-80980795D01*
X172743009Y-80980803D01*
X172736500Y-81041350D01*
X172736500Y-82658649D01*
X172743010Y-82719205D01*
X172744320Y-82724746D01*
X172740519Y-82795641D01*
X172698992Y-82853226D01*
X172632925Y-82879219D01*
X172582065Y-82873325D01*
X172564280Y-82867431D01*
X172564273Y-82867430D01*
X172462184Y-82857000D01*
X172416500Y-82857000D01*
X172416500Y-84829727D01*
X172442435Y-84877222D01*
X172437370Y-84948037D01*
X172394823Y-85004873D01*
X172363347Y-85022060D01*
X172223797Y-85074110D01*
X172223789Y-85074114D01*
X172205543Y-85087773D01*
X172139022Y-85112582D01*
X172069649Y-85097489D01*
X172054528Y-85087771D01*
X171996207Y-85044112D01*
X171996202Y-85044110D01*
X171954978Y-85028734D01*
X171898142Y-84986187D01*
X171873332Y-84919667D01*
X171888424Y-84850293D01*
X171908500Y-84823474D01*
X171908500Y-82857000D01*
X171862815Y-82857000D01*
X171760726Y-82867430D01*
X171760723Y-82867431D01*
X171595292Y-82922248D01*
X171446966Y-83013737D01*
X171446960Y-83013742D01*
X171339449Y-83121254D01*
X171277137Y-83155280D01*
X171206322Y-83150215D01*
X171161259Y-83121254D01*
X171053352Y-83013347D01*
X171053346Y-83013342D01*
X170904920Y-82921791D01*
X170739381Y-82866938D01*
X170739379Y-82866937D01*
X170739377Y-82866937D01*
X170637221Y-82856500D01*
X170037787Y-82856500D01*
X169935618Y-82866938D01*
X169874132Y-82887312D01*
X169803177Y-82889752D01*
X169742167Y-82853443D01*
X169710472Y-82789914D01*
X169708500Y-82767707D01*
X169708500Y-82656371D01*
X169728502Y-82588250D01*
X169745400Y-82567280D01*
X170016332Y-82296347D01*
X170078643Y-82262324D01*
X170079159Y-82262212D01*
X170142288Y-82248794D01*
X170316752Y-82171118D01*
X170471253Y-82058866D01*
X170471255Y-82058864D01*
X170599034Y-81916951D01*
X170599035Y-81916949D01*
X170599040Y-81916944D01*
X170694527Y-81751556D01*
X170753542Y-81569928D01*
X170773504Y-81380000D01*
X170771446Y-81360423D01*
X170753542Y-81190072D01*
X170739531Y-81146951D01*
X170694527Y-81008444D01*
X170599040Y-80843056D01*
X170599038Y-80843054D01*
X170599034Y-80843048D01*
X170471255Y-80701135D01*
X170316752Y-80588882D01*
X170142288Y-80511206D01*
X169955487Y-80471500D01*
X169815842Y-80471500D01*
X169747721Y-80451498D01*
X169701228Y-80397842D01*
X169697795Y-80389556D01*
X169650889Y-80263796D01*
X169650886Y-80263792D01*
X169650886Y-80263791D01*
X169563261Y-80146738D01*
X169446207Y-80059112D01*
X169446202Y-80059110D01*
X169309204Y-80008011D01*
X169309196Y-80008009D01*
X169248649Y-80001500D01*
X169248638Y-80001500D01*
X168151362Y-80001500D01*
X168151350Y-80001500D01*
X168090803Y-80008009D01*
X168090795Y-80008011D01*
X167953797Y-80059110D01*
X167953792Y-80059112D01*
X167836740Y-80146737D01*
X167800868Y-80194657D01*
X167744032Y-80237203D01*
X167673216Y-80242267D01*
X167610904Y-80208242D01*
X167599132Y-80194657D01*
X167598763Y-80194164D01*
X167563261Y-80146739D01*
X167563259Y-80146738D01*
X167563259Y-80146737D01*
X167446207Y-80059112D01*
X167446202Y-80059110D01*
X167309204Y-80008011D01*
X167309196Y-80008009D01*
X167248649Y-80001500D01*
X167248638Y-80001500D01*
X166151362Y-80001500D01*
X166151350Y-80001500D01*
X166090803Y-80008009D01*
X166090795Y-80008011D01*
X165953797Y-80059110D01*
X165953792Y-80059112D01*
X165842972Y-80142072D01*
X165776452Y-80166883D01*
X165716215Y-80156311D01*
X165682288Y-80141206D01*
X165495487Y-80101500D01*
X165304513Y-80101500D01*
X165117711Y-80141206D01*
X164943247Y-80218882D01*
X164788744Y-80331135D01*
X164660965Y-80473048D01*
X164660958Y-80473058D01*
X164570447Y-80629828D01*
X164565473Y-80638444D01*
X164562163Y-80648632D01*
X164506457Y-80820072D01*
X164486496Y-81010000D01*
X164506457Y-81199927D01*
X164513390Y-81221263D01*
X164565473Y-81381556D01*
X164565476Y-81381561D01*
X164660958Y-81546941D01*
X164660965Y-81546951D01*
X164788744Y-81688864D01*
X164788747Y-81688866D01*
X164943248Y-81801118D01*
X165117712Y-81878794D01*
X165180769Y-81892197D01*
X165243243Y-81925925D01*
X165243668Y-81926349D01*
X165654595Y-82337276D01*
X165688621Y-82399588D01*
X165691500Y-82426371D01*
X165691500Y-84058649D01*
X165698009Y-84119196D01*
X165698011Y-84119204D01*
X165749110Y-84256202D01*
X165749112Y-84256207D01*
X165836738Y-84373261D01*
X165953792Y-84460887D01*
X165953794Y-84460888D01*
X165953796Y-84460889D01*
X165969872Y-84466885D01*
X166090795Y-84511988D01*
X166090803Y-84511990D01*
X166151350Y-84518499D01*
X166151355Y-84518499D01*
X166151362Y-84518500D01*
X166151368Y-84518500D01*
X167248632Y-84518500D01*
X167248638Y-84518500D01*
X167248645Y-84518499D01*
X167248649Y-84518499D01*
X167309196Y-84511990D01*
X167309199Y-84511989D01*
X167309201Y-84511989D01*
X167446204Y-84460889D01*
X167458501Y-84451684D01*
X167563261Y-84373261D01*
X167599132Y-84325343D01*
X167655967Y-84282796D01*
X167726783Y-84277731D01*
X167789095Y-84311756D01*
X167800868Y-84325343D01*
X167810939Y-84338797D01*
X167836739Y-84373261D01*
X167892793Y-84415223D01*
X167935340Y-84472058D01*
X167940864Y-84491509D01*
X167970649Y-84641247D01*
X167970651Y-84641252D01*
X168027826Y-84779284D01*
X168027827Y-84779286D01*
X168039612Y-84796924D01*
X168060826Y-84864677D01*
X168042042Y-84933143D01*
X167989224Y-84980586D01*
X167948319Y-84992202D01*
X167940801Y-84993010D01*
X167937461Y-84994256D01*
X167934694Y-84994453D01*
X167933136Y-84994822D01*
X167933076Y-84994569D01*
X167866645Y-84999314D01*
X167842190Y-84991303D01*
X167662288Y-84911206D01*
X167475487Y-84871500D01*
X167284513Y-84871500D01*
X167097711Y-84911206D01*
X166923247Y-84988882D01*
X166768744Y-85101135D01*
X166640965Y-85243048D01*
X166640958Y-85243058D01*
X166609767Y-85297083D01*
X166545473Y-85408444D01*
X166543083Y-85415799D01*
X166486457Y-85590072D01*
X166466496Y-85780000D01*
X166486457Y-85969927D01*
X166490295Y-85981738D01*
X166545473Y-86151556D01*
X166545476Y-86151561D01*
X166640958Y-86316941D01*
X166640965Y-86316951D01*
X166768744Y-86458864D01*
X166807171Y-86486783D01*
X166923248Y-86571118D01*
X167097712Y-86648794D01*
X167284513Y-86688500D01*
X167475487Y-86688500D01*
X167662288Y-86648794D01*
X167836752Y-86571118D01*
X167840564Y-86568348D01*
X167907427Y-86544482D01*
X167932899Y-86546716D01*
X167932961Y-86546147D01*
X168001350Y-86553499D01*
X168001355Y-86553499D01*
X168001362Y-86553500D01*
X168665500Y-86553500D01*
X168733621Y-86573502D01*
X168780114Y-86627158D01*
X168791500Y-86679500D01*
X168791500Y-87434706D01*
X168794294Y-87448751D01*
X168794294Y-87448752D01*
X168801579Y-87485375D01*
X168804000Y-87509957D01*
X168804000Y-88396309D01*
X168783998Y-88464430D01*
X168767095Y-88485404D01*
X168756500Y-88495999D01*
X168756500Y-89223674D01*
X168736498Y-89291795D01*
X168732434Y-89297738D01*
X168728930Y-89302560D01*
X168633449Y-89467938D01*
X168633446Y-89467944D01*
X168625101Y-89493627D01*
X168574430Y-89649572D01*
X168554469Y-89839500D01*
X168574430Y-90029427D01*
X168597706Y-90101061D01*
X168633446Y-90211056D01*
X168633449Y-90211061D01*
X168728931Y-90376441D01*
X168728938Y-90376451D01*
X168856715Y-90518362D01*
X168856716Y-90518363D01*
X168984561Y-90611248D01*
X169027915Y-90667470D01*
X169036500Y-90713184D01*
X169036500Y-90765959D01*
X169016498Y-90834080D01*
X168972261Y-90875784D01*
X168967381Y-90878528D01*
X168854287Y-90964287D01*
X168768530Y-91077377D01*
X168764306Y-91084891D01*
X168762178Y-91083694D01*
X168726395Y-91129668D01*
X168659420Y-91153224D01*
X168613164Y-91147003D01*
X168584275Y-91137430D01*
X168482184Y-91127000D01*
X168436500Y-91127000D01*
X168436500Y-93093001D01*
X168452379Y-93108880D01*
X168486405Y-93171192D01*
X168481340Y-93242007D01*
X168452380Y-93287070D01*
X168224856Y-93514595D01*
X168162543Y-93548620D01*
X168135760Y-93551500D01*
X167129889Y-93551500D01*
X167010329Y-93583536D01*
X167010328Y-93583535D01*
X166975126Y-93592968D01*
X166836376Y-93673075D01*
X166836366Y-93673083D01*
X164823083Y-95686366D01*
X164823077Y-95686374D01*
X164739471Y-95831183D01*
X164696500Y-95875422D01*
X164606653Y-95930841D01*
X164483347Y-96054147D01*
X164483342Y-96054153D01*
X164391791Y-96202580D01*
X164336937Y-96368122D01*
X164326500Y-96470278D01*
X164326500Y-97069712D01*
X164336937Y-97171880D01*
X164391791Y-97337420D01*
X164483342Y-97485846D01*
X164483347Y-97485852D01*
X164590900Y-97593405D01*
X164624926Y-97655717D01*
X164619861Y-97726532D01*
X164590900Y-97771595D01*
X164483347Y-97879147D01*
X164483342Y-97879153D01*
X164391791Y-98027580D01*
X164336937Y-98193122D01*
X164326500Y-98295278D01*
X164326500Y-98894712D01*
X164336937Y-98996880D01*
X164391791Y-99162420D01*
X164452604Y-99261012D01*
X164471341Y-99329491D01*
X164456806Y-99381818D01*
X164458156Y-99382419D01*
X164455470Y-99388449D01*
X164396457Y-99570071D01*
X164376496Y-99760000D01*
X164396457Y-99949927D01*
X164409959Y-99991481D01*
X164455473Y-100131556D01*
X164455476Y-100131561D01*
X164550958Y-100296941D01*
X164550965Y-100296951D01*
X164678744Y-100438864D01*
X164678747Y-100438866D01*
X164833248Y-100551118D01*
X165007712Y-100628794D01*
X165194513Y-100668500D01*
X165385487Y-100668500D01*
X165572288Y-100628794D01*
X165574242Y-100627923D01*
X165575478Y-100627757D01*
X165578568Y-100626754D01*
X165578751Y-100627318D01*
X165644606Y-100618483D01*
X165708906Y-100648583D01*
X165746725Y-100708668D01*
X165751500Y-100743026D01*
X165751500Y-115259234D01*
X165731498Y-115327355D01*
X165677842Y-115373848D01*
X165607568Y-115383952D01*
X165574252Y-115374341D01*
X165522290Y-115351206D01*
X165335487Y-115311500D01*
X165144513Y-115311500D01*
X164957709Y-115351206D01*
X164847962Y-115400069D01*
X164777595Y-115409503D01*
X164713298Y-115379396D01*
X164678659Y-115328995D01*
X164672133Y-115311500D01*
X164663889Y-115289396D01*
X164638520Y-115255508D01*
X164613710Y-115188989D01*
X164628801Y-115119615D01*
X164638521Y-115104491D01*
X164663889Y-115070604D01*
X164706708Y-114955803D01*
X164714988Y-114933604D01*
X164714990Y-114933596D01*
X164721499Y-114873049D01*
X164721500Y-114873032D01*
X164721500Y-114216967D01*
X164721499Y-114216950D01*
X164714990Y-114156403D01*
X164714988Y-114156395D01*
X164685924Y-114078475D01*
X164663889Y-114019396D01*
X164606450Y-113942667D01*
X164581640Y-113876149D01*
X164596731Y-113806774D01*
X164613680Y-113782851D01*
X164709040Y-113676944D01*
X164804527Y-113511556D01*
X164863542Y-113329928D01*
X164883504Y-113140000D01*
X164863542Y-112950072D01*
X164804527Y-112768444D01*
X164709040Y-112603056D01*
X164709038Y-112603054D01*
X164709034Y-112603048D01*
X164581255Y-112461135D01*
X164426752Y-112348882D01*
X164252288Y-112271206D01*
X164065487Y-112231500D01*
X163874513Y-112231500D01*
X163867910Y-112231500D01*
X163867910Y-112229872D01*
X163806132Y-112218570D01*
X163754288Y-112170065D01*
X163736899Y-112101231D01*
X163759484Y-112033922D01*
X163787296Y-112005169D01*
X163833261Y-111970761D01*
X163920889Y-111853704D01*
X163971989Y-111716701D01*
X163973152Y-111705889D01*
X163978499Y-111656149D01*
X163978500Y-111656132D01*
X163978500Y-110258867D01*
X163978499Y-110258850D01*
X163971990Y-110198303D01*
X163971988Y-110198295D01*
X163920889Y-110061297D01*
X163920887Y-110061292D01*
X163833261Y-109944238D01*
X163716207Y-109856612D01*
X163716202Y-109856610D01*
X163579204Y-109805511D01*
X163579196Y-109805509D01*
X163518649Y-109799000D01*
X163518638Y-109799000D01*
X163020500Y-109799000D01*
X162952379Y-109778998D01*
X162905886Y-109725342D01*
X162894500Y-109673000D01*
X162894500Y-108824000D01*
X161774000Y-108824000D01*
X161774000Y-110998000D01*
X161753998Y-111066121D01*
X161700342Y-111112614D01*
X161648000Y-111124000D01*
X161392000Y-111124000D01*
X161323879Y-111103998D01*
X161277386Y-111050342D01*
X161266000Y-110998000D01*
X161266000Y-108824000D01*
X160145500Y-108824000D01*
X160145500Y-109673000D01*
X160125498Y-109741121D01*
X160071842Y-109787614D01*
X160019500Y-109799000D01*
X159521350Y-109799000D01*
X159460803Y-109805509D01*
X159460795Y-109805511D01*
X159323797Y-109856610D01*
X159323792Y-109856612D01*
X159206738Y-109944238D01*
X159119112Y-110061292D01*
X159119110Y-110061297D01*
X159068011Y-110198295D01*
X159068009Y-110198303D01*
X159061500Y-110258850D01*
X159061500Y-111656149D01*
X159068009Y-111716696D01*
X159068011Y-111716704D01*
X159119110Y-111853702D01*
X159119112Y-111853707D01*
X159206738Y-111970761D01*
X159261009Y-112011387D01*
X159303556Y-112068222D01*
X159311500Y-112112255D01*
X159311500Y-112434134D01*
X159291498Y-112502255D01*
X159279136Y-112518444D01*
X159220965Y-112583048D01*
X159220958Y-112583058D01*
X159125476Y-112748438D01*
X159125473Y-112748445D01*
X159066457Y-112930072D01*
X159046496Y-113120000D01*
X159047208Y-113126777D01*
X159034432Y-113196614D01*
X158985927Y-113248458D01*
X158917093Y-113265848D01*
X158907791Y-113265148D01*
X158830001Y-113256384D01*
X158830000Y-113256384D01*
X158648953Y-113276783D01*
X158648950Y-113276783D01*
X158648949Y-113276784D01*
X158476984Y-113336957D01*
X158476981Y-113336958D01*
X158322720Y-113433887D01*
X158322718Y-113433888D01*
X158193888Y-113562718D01*
X158193887Y-113562720D01*
X158096958Y-113716981D01*
X158096957Y-113716984D01*
X158046278Y-113861819D01*
X158036783Y-113888953D01*
X158016384Y-114070000D01*
X158036783Y-114251047D01*
X158036783Y-114251049D01*
X158036784Y-114251050D01*
X158096957Y-114423015D01*
X158096958Y-114423018D01*
X158193887Y-114577279D01*
X158193888Y-114577281D01*
X158322718Y-114706111D01*
X158322720Y-114706112D01*
X158476981Y-114803041D01*
X158476982Y-114803041D01*
X158476985Y-114803043D01*
X158648953Y-114863217D01*
X158733296Y-114872719D01*
X158798747Y-114900221D01*
X158808283Y-114908832D01*
X160201366Y-116301916D01*
X160201371Y-116301920D01*
X160201373Y-116301922D01*
X160201374Y-116301923D01*
X160201376Y-116301924D01*
X160254232Y-116332440D01*
X160288014Y-116351944D01*
X160340128Y-116382032D01*
X160494889Y-116423500D01*
X160494890Y-116423500D01*
X160655110Y-116423500D01*
X161650123Y-116423500D01*
X161718244Y-116443502D01*
X161764737Y-116497158D01*
X161774841Y-116567432D01*
X161768178Y-116593533D01*
X161729811Y-116696395D01*
X161729809Y-116696403D01*
X161723300Y-116756950D01*
X161723300Y-117413049D01*
X161729809Y-117473596D01*
X161729811Y-117473604D01*
X161780910Y-117610602D01*
X161780912Y-117610607D01*
X161806278Y-117644491D01*
X161831089Y-117711011D01*
X161815998Y-117780385D01*
X161806278Y-117795509D01*
X161780912Y-117829392D01*
X161780910Y-117829397D01*
X161729811Y-117966395D01*
X161729809Y-117966403D01*
X161723300Y-118026950D01*
X161723300Y-118683049D01*
X161729809Y-118743596D01*
X161729811Y-118743604D01*
X161780910Y-118880602D01*
X161780912Y-118880607D01*
X161806278Y-118914491D01*
X161831089Y-118981011D01*
X161815998Y-119050385D01*
X161806278Y-119065509D01*
X161780912Y-119099392D01*
X161780910Y-119099397D01*
X161729811Y-119236395D01*
X161729809Y-119236403D01*
X161723300Y-119296950D01*
X161723300Y-119953049D01*
X161729809Y-120013596D01*
X161729811Y-120013604D01*
X161768178Y-120116467D01*
X161773244Y-120187283D01*
X161739219Y-120249595D01*
X161676907Y-120283620D01*
X161650123Y-120286500D01*
X160931195Y-120286500D01*
X160863074Y-120266498D01*
X160842114Y-120249610D01*
X160842099Y-120249595D01*
X160839111Y-120246607D01*
X160805078Y-120184304D01*
X160810131Y-120113487D01*
X160839097Y-120068406D01*
X160946658Y-119960846D01*
X161038209Y-119812420D01*
X161093062Y-119646881D01*
X161103500Y-119544713D01*
X161103499Y-118945288D01*
X161101288Y-118923649D01*
X161093062Y-118843119D01*
X161074002Y-118785598D01*
X161038209Y-118677580D01*
X160946658Y-118529154D01*
X160946657Y-118529153D01*
X160946652Y-118529147D01*
X160823352Y-118405847D01*
X160823346Y-118405842D01*
X160679446Y-118317083D01*
X160674920Y-118314291D01*
X160509381Y-118259438D01*
X160509379Y-118259437D01*
X160509377Y-118259437D01*
X160407221Y-118249000D01*
X159832787Y-118249000D01*
X159730619Y-118259437D01*
X159565079Y-118314291D01*
X159416653Y-118405842D01*
X159416647Y-118405847D01*
X159293347Y-118529147D01*
X159293342Y-118529153D01*
X159201790Y-118677581D01*
X159187603Y-118720395D01*
X159157094Y-118769856D01*
X158687353Y-119239596D01*
X158625041Y-119273621D01*
X158598258Y-119276500D01*
X158190287Y-119276500D01*
X158088119Y-119286937D01*
X157922580Y-119341791D01*
X157869737Y-119374385D01*
X157801257Y-119393121D01*
X157733519Y-119371861D01*
X157688028Y-119317353D01*
X157678282Y-119280317D01*
X157663542Y-119140072D01*
X157604527Y-118958444D01*
X157509040Y-118793056D01*
X157509038Y-118793054D01*
X157509034Y-118793048D01*
X157381255Y-118651135D01*
X157226752Y-118538882D01*
X157052288Y-118461206D01*
X156865487Y-118421500D01*
X156674513Y-118421500D01*
X156487711Y-118461206D01*
X156313247Y-118538882D01*
X156158744Y-118651135D01*
X156030965Y-118793048D01*
X156030958Y-118793058D01*
X155935476Y-118958438D01*
X155935473Y-118958444D01*
X155927106Y-118984196D01*
X155876457Y-119140072D01*
X155856496Y-119329999D01*
X155876457Y-119519929D01*
X155877830Y-119526384D01*
X155875040Y-119526977D01*
X155876675Y-119585459D01*
X155862075Y-119619500D01*
X155809294Y-119705072D01*
X155809293Y-119705074D01*
X155754437Y-119870622D01*
X155744000Y-119972778D01*
X155744000Y-120547212D01*
X155754437Y-120649380D01*
X155809291Y-120814920D01*
X155900842Y-120963346D01*
X155900847Y-120963352D01*
X156024147Y-121086652D01*
X156024153Y-121086657D01*
X156024154Y-121086658D01*
X156172580Y-121178209D01*
X156200857Y-121187578D01*
X156259225Y-121227989D01*
X156286483Y-121293545D01*
X156273971Y-121363430D01*
X156235287Y-121409116D01*
X156218744Y-121421135D01*
X156090965Y-121563048D01*
X156090958Y-121563058D01*
X155995476Y-121728438D01*
X155995473Y-121728445D01*
X155936457Y-121910072D01*
X155916496Y-122100000D01*
X155936457Y-122289929D01*
X155965595Y-122379605D01*
X155967622Y-122450573D01*
X155939253Y-122499993D01*
X155940395Y-122500896D01*
X155935842Y-122506653D01*
X155844291Y-122655080D01*
X155789437Y-122820622D01*
X155779000Y-122922778D01*
X155779000Y-123497212D01*
X155789437Y-123599380D01*
X155844291Y-123764920D01*
X155935842Y-123913346D01*
X155935847Y-123913352D01*
X156059147Y-124036652D01*
X156059153Y-124036657D01*
X156059154Y-124036658D01*
X156207580Y-124128209D01*
X156373119Y-124183062D01*
X156475287Y-124193500D01*
X157149712Y-124193499D01*
X157251881Y-124183062D01*
X157417420Y-124128209D01*
X157565846Y-124036658D01*
X157598405Y-124004098D01*
X157660715Y-123970074D01*
X157731531Y-123975138D01*
X157776594Y-124004098D01*
X157809154Y-124036658D01*
X157858014Y-124066796D01*
X157905493Y-124119580D01*
X157916896Y-124189655D01*
X157888604Y-124254771D01*
X157880963Y-124263131D01*
X156914499Y-125229595D01*
X156852187Y-125263621D01*
X156825404Y-125266500D01*
X156452787Y-125266500D01*
X156350619Y-125276937D01*
X156185079Y-125331791D01*
X156036653Y-125423342D01*
X156036647Y-125423347D01*
X155913347Y-125546647D01*
X155913342Y-125546653D01*
X155821791Y-125695080D01*
X155766937Y-125860622D01*
X155756500Y-125962778D01*
X155756500Y-126537212D01*
X155766937Y-126639380D01*
X155821791Y-126804920D01*
X155913342Y-126953346D01*
X155913347Y-126953352D01*
X156036647Y-127076652D01*
X156036653Y-127076657D01*
X156036654Y-127076658D01*
X156185080Y-127168209D01*
X156350619Y-127223062D01*
X156452787Y-127233500D01*
X157127212Y-127233499D01*
X157229381Y-127223062D01*
X157229384Y-127223061D01*
X157229386Y-127223061D01*
X157310477Y-127196190D01*
X157381431Y-127193749D01*
X157442442Y-127230057D01*
X157474137Y-127293586D01*
X157466455Y-127364165D01*
X157439205Y-127404890D01*
X156884498Y-127959596D01*
X156822186Y-127993621D01*
X156795403Y-127996500D01*
X156422787Y-127996500D01*
X156320619Y-128006937D01*
X156155079Y-128061791D01*
X156006653Y-128153342D01*
X156006647Y-128153347D01*
X155883347Y-128276647D01*
X155883342Y-128276653D01*
X155791791Y-128425080D01*
X155736937Y-128590622D01*
X155726500Y-128692778D01*
X155726500Y-129267212D01*
X155736937Y-129369380D01*
X155791791Y-129534920D01*
X155883342Y-129683346D01*
X155883347Y-129683352D01*
X156006647Y-129806652D01*
X156006653Y-129806657D01*
X156006654Y-129806658D01*
X156155080Y-129898209D01*
X156320619Y-129953062D01*
X156422787Y-129963500D01*
X157097212Y-129963499D01*
X157199381Y-129953062D01*
X157364920Y-129898209D01*
X157513346Y-129806658D01*
X157545905Y-129774098D01*
X157608215Y-129740074D01*
X157679031Y-129745138D01*
X157724094Y-129774098D01*
X157756654Y-129806658D01*
X157905080Y-129898209D01*
X158070619Y-129953062D01*
X158070627Y-129953062D01*
X158076873Y-129954400D01*
X158139298Y-129988217D01*
X158173531Y-130050416D01*
X158176500Y-130077609D01*
X158176500Y-130110111D01*
X158190555Y-130162569D01*
X158217965Y-130264865D01*
X158217970Y-130264877D01*
X158298075Y-130403623D01*
X158298077Y-130403625D01*
X158298078Y-130403627D01*
X159129596Y-131235145D01*
X159163620Y-131297456D01*
X159166500Y-131324239D01*
X159166500Y-131694712D01*
X159176937Y-131796880D01*
X159231791Y-131962420D01*
X159323342Y-132110846D01*
X159323347Y-132110852D01*
X159446647Y-132234152D01*
X159446653Y-132234157D01*
X159446654Y-132234158D01*
X159595080Y-132325709D01*
X159760619Y-132380562D01*
X159862787Y-132391000D01*
X160437212Y-132390999D01*
X160539381Y-132380562D01*
X160704920Y-132325709D01*
X160853346Y-132234158D01*
X160976658Y-132110846D01*
X161068209Y-131962420D01*
X161123062Y-131796881D01*
X161133500Y-131694713D01*
X161133499Y-131095288D01*
X161123062Y-130993119D01*
X161068209Y-130827580D01*
X160976658Y-130679154D01*
X160976657Y-130679153D01*
X160976652Y-130679147D01*
X160868746Y-130571241D01*
X160834720Y-130508929D01*
X160839785Y-130438114D01*
X160868746Y-130393051D01*
X160976257Y-130285539D01*
X160976262Y-130285533D01*
X161067751Y-130137207D01*
X161122568Y-129971776D01*
X161122569Y-129971773D01*
X161132999Y-129869684D01*
X161133000Y-129869684D01*
X161133000Y-129824000D01*
X160022000Y-129824000D01*
X159953879Y-129803998D01*
X159907386Y-129750342D01*
X159896000Y-129698000D01*
X159896000Y-128319000D01*
X160404000Y-128319000D01*
X160404000Y-129316000D01*
X161133000Y-129316000D01*
X161133000Y-129270315D01*
X161122569Y-129168226D01*
X161122568Y-129168223D01*
X161067751Y-129002792D01*
X160994261Y-128883647D01*
X160975524Y-128815168D01*
X160994261Y-128751353D01*
X161067751Y-128632207D01*
X161122568Y-128466776D01*
X161122569Y-128466773D01*
X161132999Y-128364684D01*
X161133000Y-128364684D01*
X161133000Y-128319000D01*
X160404000Y-128319000D01*
X159896000Y-128319000D01*
X159896000Y-127937000D01*
X159916002Y-127868879D01*
X159969658Y-127822386D01*
X160022000Y-127811000D01*
X161133000Y-127811000D01*
X161133000Y-127765315D01*
X161122569Y-127663226D01*
X161122568Y-127663223D01*
X161067751Y-127497792D01*
X160976262Y-127349466D01*
X160976257Y-127349460D01*
X160868746Y-127241949D01*
X160834720Y-127179637D01*
X160839785Y-127108822D01*
X160868746Y-127063759D01*
X160976652Y-126955852D01*
X160976658Y-126955846D01*
X161068209Y-126807420D01*
X161123062Y-126641881D01*
X161133500Y-126539713D01*
X161133499Y-125940288D01*
X161123062Y-125838119D01*
X161068209Y-125672580D01*
X160976658Y-125524154D01*
X160976657Y-125524153D01*
X160976652Y-125524147D01*
X160866600Y-125414095D01*
X160832574Y-125351783D01*
X160837639Y-125280968D01*
X160866600Y-125235905D01*
X160966652Y-125135852D01*
X160966658Y-125135846D01*
X161058209Y-124987420D01*
X161113062Y-124821881D01*
X161123500Y-124719713D01*
X161123499Y-124120288D01*
X161118034Y-124066795D01*
X161113062Y-124018119D01*
X161090986Y-123951498D01*
X161058209Y-123852580D01*
X160966658Y-123704154D01*
X160966657Y-123704153D01*
X160966652Y-123704147D01*
X160859100Y-123596595D01*
X160825074Y-123534283D01*
X160830139Y-123463468D01*
X160859100Y-123418405D01*
X160966652Y-123310852D01*
X160966658Y-123310846D01*
X161058209Y-123162420D01*
X161113062Y-122996881D01*
X161123441Y-122895289D01*
X161123499Y-122894725D01*
X161123583Y-122893088D01*
X161123701Y-122892749D01*
X161123827Y-122891521D01*
X161124120Y-122891551D01*
X161147026Y-122826074D01*
X161202978Y-122782371D01*
X161249420Y-122773500D01*
X161782187Y-122773500D01*
X161850308Y-122793502D01*
X161861269Y-122802335D01*
X161861325Y-122802261D01*
X161985592Y-122895287D01*
X161985594Y-122895288D01*
X161985596Y-122895289D01*
X162044675Y-122917324D01*
X162122595Y-122946388D01*
X162122603Y-122946390D01*
X162183150Y-122952899D01*
X162183155Y-122952899D01*
X162183162Y-122952900D01*
X162183168Y-122952900D01*
X164261632Y-122952900D01*
X164261638Y-122952900D01*
X164261645Y-122952899D01*
X164261649Y-122952899D01*
X164322196Y-122946390D01*
X164322199Y-122946389D01*
X164322201Y-122946389D01*
X164459204Y-122895289D01*
X164459958Y-122894725D01*
X164576258Y-122807663D01*
X164576257Y-122807663D01*
X164576261Y-122807661D01*
X164604521Y-122769907D01*
X164644360Y-122739002D01*
X164642720Y-122736162D01*
X164739903Y-122680053D01*
X164788627Y-122651922D01*
X165152144Y-122288405D01*
X165536405Y-121904145D01*
X165598717Y-121870119D01*
X165669532Y-121875184D01*
X165726368Y-121917731D01*
X165751179Y-121984251D01*
X165751500Y-121993240D01*
X165751500Y-125042918D01*
X165731498Y-125111039D01*
X165714595Y-125132013D01*
X164622013Y-126224595D01*
X164559701Y-126258621D01*
X164532918Y-126261500D01*
X162571350Y-126261500D01*
X162510803Y-126268009D01*
X162510795Y-126268011D01*
X162373797Y-126319110D01*
X162373792Y-126319112D01*
X162256738Y-126406738D01*
X162169112Y-126523792D01*
X162169110Y-126523797D01*
X162118011Y-126660795D01*
X162118009Y-126660803D01*
X162111500Y-126721350D01*
X162111500Y-129618649D01*
X162118009Y-129679196D01*
X162118011Y-129679204D01*
X162169110Y-129816202D01*
X162169112Y-129816207D01*
X162256738Y-129933261D01*
X162373792Y-130020887D01*
X162373794Y-130020888D01*
X162373796Y-130020889D01*
X162432875Y-130042924D01*
X162510795Y-130071988D01*
X162510803Y-130071990D01*
X162571350Y-130078499D01*
X162571355Y-130078499D01*
X162571362Y-130078500D01*
X162885500Y-130078500D01*
X162953621Y-130098502D01*
X163000114Y-130152158D01*
X163011500Y-130204500D01*
X163011500Y-132235500D01*
X162991498Y-132303621D01*
X162937842Y-132350114D01*
X162885500Y-132361500D01*
X162571350Y-132361500D01*
X162510803Y-132368009D01*
X162510795Y-132368011D01*
X162373797Y-132419110D01*
X162373792Y-132419112D01*
X162256738Y-132506738D01*
X162169112Y-132623792D01*
X162169110Y-132623797D01*
X162118011Y-132760795D01*
X162118009Y-132760803D01*
X162111500Y-132821350D01*
X162111500Y-135718649D01*
X162118009Y-135779196D01*
X162118011Y-135779204D01*
X162169110Y-135916202D01*
X162169112Y-135916207D01*
X162256738Y-136033261D01*
X162373792Y-136120887D01*
X162373794Y-136120888D01*
X162373796Y-136120889D01*
X162432875Y-136142924D01*
X162510795Y-136171988D01*
X162510803Y-136171990D01*
X162571350Y-136178499D01*
X162571355Y-136178499D01*
X162571362Y-136178500D01*
X162571368Y-136178500D01*
X165068632Y-136178500D01*
X165068638Y-136178500D01*
X165068645Y-136178499D01*
X165068649Y-136178499D01*
X165129196Y-136171990D01*
X165129199Y-136171989D01*
X165129201Y-136171989D01*
X165266204Y-136120889D01*
X165383261Y-136033261D01*
X165470889Y-135916204D01*
X165521989Y-135779201D01*
X165528500Y-135718638D01*
X165528500Y-135264500D01*
X165548502Y-135196379D01*
X165602158Y-135149886D01*
X165654500Y-135138500D01*
X165675487Y-135138500D01*
X165862288Y-135098794D01*
X166036752Y-135021118D01*
X166191253Y-134908866D01*
X166220927Y-134875910D01*
X166319034Y-134766951D01*
X166319035Y-134766949D01*
X166319040Y-134766944D01*
X166414527Y-134601556D01*
X166473542Y-134419928D01*
X166479461Y-134363616D01*
X168569500Y-134363616D01*
X168606027Y-134547251D01*
X168677678Y-134720231D01*
X168781698Y-134875908D01*
X168914092Y-135008302D01*
X169069769Y-135112322D01*
X169242749Y-135183973D01*
X169426384Y-135220500D01*
X169426385Y-135220500D01*
X169613615Y-135220500D01*
X169613616Y-135220500D01*
X169797251Y-135183973D01*
X169970231Y-135112322D01*
X170125908Y-135008302D01*
X170258302Y-134875908D01*
X170362322Y-134720231D01*
X170433973Y-134547251D01*
X170470500Y-134363616D01*
X170470500Y-134176384D01*
X170433973Y-133992749D01*
X170362322Y-133819769D01*
X170258302Y-133664092D01*
X170125908Y-133531698D01*
X169970231Y-133427678D01*
X169797251Y-133356027D01*
X169613618Y-133319500D01*
X169613616Y-133319500D01*
X169426384Y-133319500D01*
X169426381Y-133319500D01*
X169242748Y-133356027D01*
X169242743Y-133356029D01*
X169069769Y-133427678D01*
X168914096Y-133531695D01*
X168914089Y-133531700D01*
X168781700Y-133664089D01*
X168781695Y-133664096D01*
X168677678Y-133819769D01*
X168606029Y-133992743D01*
X168606027Y-133992748D01*
X168569500Y-134176381D01*
X168569500Y-134176384D01*
X168569500Y-134363616D01*
X166479461Y-134363616D01*
X166493504Y-134230000D01*
X166473542Y-134040072D01*
X166414527Y-133858444D01*
X166319040Y-133693056D01*
X166319038Y-133693054D01*
X166319034Y-133693048D01*
X166191255Y-133551135D01*
X166036752Y-133438882D01*
X165862288Y-133361206D01*
X165675487Y-133321500D01*
X165654500Y-133321500D01*
X165586379Y-133301498D01*
X165539886Y-133247842D01*
X165528500Y-133195500D01*
X165528500Y-132821367D01*
X165528499Y-132821350D01*
X165521990Y-132760803D01*
X165521988Y-132760795D01*
X165470889Y-132623797D01*
X165470887Y-132623792D01*
X165383261Y-132506738D01*
X165266207Y-132419112D01*
X165266202Y-132419110D01*
X165129204Y-132368011D01*
X165129196Y-132368009D01*
X165068649Y-132361500D01*
X165068638Y-132361500D01*
X164754500Y-132361500D01*
X164686379Y-132341498D01*
X164639886Y-132287842D01*
X164628500Y-132235500D01*
X164628500Y-130204500D01*
X164648502Y-130136379D01*
X164702158Y-130089886D01*
X164754500Y-130078500D01*
X165068632Y-130078500D01*
X165068638Y-130078500D01*
X165068645Y-130078499D01*
X165068649Y-130078499D01*
X165129196Y-130071990D01*
X165129199Y-130071989D01*
X165129201Y-130071989D01*
X165266204Y-130020889D01*
X165383261Y-129933261D01*
X165409501Y-129898208D01*
X165431707Y-129868544D01*
X168519500Y-129868544D01*
X168540034Y-129971773D01*
X168557949Y-130061835D01*
X168633368Y-130243914D01*
X168742861Y-130407782D01*
X168882218Y-130547139D01*
X169046086Y-130656632D01*
X169228165Y-130732051D01*
X169421459Y-130770500D01*
X169618541Y-130770500D01*
X169811835Y-130732051D01*
X169993914Y-130656632D01*
X170157782Y-130547139D01*
X170297139Y-130407782D01*
X170406632Y-130243914D01*
X170482051Y-130061835D01*
X170520500Y-129868541D01*
X170520500Y-129671459D01*
X170482051Y-129478165D01*
X170406632Y-129296086D01*
X170297139Y-129132218D01*
X170157782Y-128992861D01*
X169993914Y-128883368D01*
X169894957Y-128842379D01*
X169811838Y-128807950D01*
X169811835Y-128807949D01*
X169618544Y-128769500D01*
X169618541Y-128769500D01*
X169421459Y-128769500D01*
X169421455Y-128769500D01*
X169228164Y-128807949D01*
X169228161Y-128807950D01*
X169046085Y-128883368D01*
X168882222Y-128992858D01*
X168882215Y-128992863D01*
X168742863Y-129132215D01*
X168742858Y-129132222D01*
X168633368Y-129296085D01*
X168557950Y-129478161D01*
X168557949Y-129478164D01*
X168519500Y-129671455D01*
X168519500Y-129868544D01*
X165431707Y-129868544D01*
X165470887Y-129816207D01*
X165470887Y-129816206D01*
X165470889Y-129816204D01*
X165521989Y-129679201D01*
X165522822Y-129671459D01*
X165528499Y-129618649D01*
X165528500Y-129618632D01*
X165528500Y-127657082D01*
X165548502Y-127588961D01*
X165565405Y-127567987D01*
X166354954Y-126778438D01*
X167188003Y-125945389D01*
X167276484Y-125812968D01*
X167306956Y-125739399D01*
X167337430Y-125665831D01*
X167368500Y-125509630D01*
X167368500Y-123078900D01*
X167388502Y-123010779D01*
X167442158Y-122964286D01*
X167494500Y-122952900D01*
X169106778Y-122952900D01*
X169158027Y-122963793D01*
X169163246Y-122966116D01*
X169163248Y-122966118D01*
X169337712Y-123043794D01*
X169524513Y-123083500D01*
X169715487Y-123083500D01*
X169902288Y-123043794D01*
X170076752Y-122966118D01*
X170231253Y-122853866D01*
X170231255Y-122853864D01*
X170257074Y-122825190D01*
X170317520Y-122787950D01*
X170350710Y-122783500D01*
X170680761Y-122783500D01*
X170748882Y-122803502D01*
X170769856Y-122820405D01*
X173766918Y-125817467D01*
X173800944Y-125879779D01*
X173795879Y-125950594D01*
X173753332Y-126007430D01*
X173686812Y-126032241D01*
X173651627Y-126029809D01*
X173565489Y-126011500D01*
X173565487Y-126011500D01*
X173374513Y-126011500D01*
X173187711Y-126051206D01*
X173013247Y-126128882D01*
X172858744Y-126241135D01*
X172730965Y-126383048D01*
X172730958Y-126383058D01*
X172635476Y-126548438D01*
X172635473Y-126548445D01*
X172576457Y-126730072D01*
X172556496Y-126920000D01*
X172576457Y-127109927D01*
X172595394Y-127168208D01*
X172635473Y-127291556D01*
X172635476Y-127291561D01*
X172730958Y-127456941D01*
X172730965Y-127456951D01*
X172858744Y-127598864D01*
X172858747Y-127598866D01*
X173013248Y-127711118D01*
X173180242Y-127785468D01*
X173218086Y-127811478D01*
X173474595Y-128067987D01*
X173508621Y-128130299D01*
X173511500Y-128157082D01*
X173511500Y-129618649D01*
X173518009Y-129679196D01*
X173518011Y-129679204D01*
X173569110Y-129816202D01*
X173569112Y-129816207D01*
X173656738Y-129933261D01*
X173773792Y-130020887D01*
X173773794Y-130020888D01*
X173773796Y-130020889D01*
X173832875Y-130042924D01*
X173910795Y-130071988D01*
X173910803Y-130071990D01*
X173971350Y-130078499D01*
X173971355Y-130078499D01*
X173971362Y-130078500D01*
X175932918Y-130078500D01*
X176001039Y-130098502D01*
X176022013Y-130115405D01*
X176895012Y-130988404D01*
X176929038Y-131050716D01*
X176923973Y-131121531D01*
X176895012Y-131166595D01*
X176241382Y-131820224D01*
X176179070Y-131854249D01*
X176108254Y-131849184D01*
X176051419Y-131806637D01*
X176043168Y-131794128D01*
X175979698Y-131684196D01*
X175979040Y-131683056D01*
X175979038Y-131683054D01*
X175979034Y-131683048D01*
X175851255Y-131541135D01*
X175696752Y-131428882D01*
X175522288Y-131351206D01*
X175335487Y-131311500D01*
X175144513Y-131311500D01*
X174957711Y-131351206D01*
X174783247Y-131428882D01*
X174628744Y-131541135D01*
X174500965Y-131683048D01*
X174500958Y-131683058D01*
X174405476Y-131848438D01*
X174405473Y-131848445D01*
X174346457Y-132030072D01*
X174326496Y-132220000D01*
X174326741Y-132222331D01*
X174326496Y-132223670D01*
X174326496Y-132226603D01*
X174325960Y-132226603D01*
X174313968Y-132292169D01*
X174265466Y-132344015D01*
X174201431Y-132361500D01*
X173971350Y-132361500D01*
X173910803Y-132368009D01*
X173910795Y-132368011D01*
X173773797Y-132419110D01*
X173773792Y-132419112D01*
X173656738Y-132506738D01*
X173569112Y-132623792D01*
X173569110Y-132623797D01*
X173518011Y-132760795D01*
X173518009Y-132760803D01*
X173511500Y-132821350D01*
X173511500Y-135718649D01*
X173518009Y-135779196D01*
X173518011Y-135779204D01*
X173569110Y-135916202D01*
X173569112Y-135916207D01*
X173656738Y-136033261D01*
X173773792Y-136120887D01*
X173773794Y-136120888D01*
X173773796Y-136120889D01*
X173832875Y-136142924D01*
X173910795Y-136171988D01*
X173910803Y-136171990D01*
X173971350Y-136178499D01*
X173971355Y-136178499D01*
X173971362Y-136178500D01*
X173971368Y-136178500D01*
X176468632Y-136178500D01*
X176468638Y-136178500D01*
X176468645Y-136178499D01*
X176468649Y-136178499D01*
X176529196Y-136171990D01*
X176529199Y-136171989D01*
X176529201Y-136171989D01*
X176666204Y-136120889D01*
X176783261Y-136033261D01*
X176870889Y-135916204D01*
X176921989Y-135779201D01*
X176928500Y-135718638D01*
X176928500Y-133472082D01*
X176948502Y-133403961D01*
X176965405Y-133382987D01*
X178227987Y-132120405D01*
X178290299Y-132086379D01*
X178317082Y-132083500D01*
X179338632Y-132083500D01*
X179338638Y-132083500D01*
X179338645Y-132083499D01*
X179338649Y-132083499D01*
X179399196Y-132076990D01*
X179399199Y-132076989D01*
X179399201Y-132076989D01*
X179536204Y-132025889D01*
X179560501Y-132007701D01*
X179653261Y-131938261D01*
X179740887Y-131821207D01*
X179740887Y-131821206D01*
X179740889Y-131821204D01*
X179791031Y-131686770D01*
X179791988Y-131684204D01*
X179791990Y-131684196D01*
X179796953Y-131638032D01*
X179824122Y-131572440D01*
X179882439Y-131531948D01*
X179922231Y-131525500D01*
X179977081Y-131525500D01*
X179977083Y-131525500D01*
X180125994Y-131485599D01*
X180259505Y-131408516D01*
X180368516Y-131299505D01*
X180445599Y-131165994D01*
X180485500Y-131017083D01*
X180485500Y-130862917D01*
X180445599Y-130714006D01*
X180399239Y-130633708D01*
X180382501Y-130564712D01*
X180405722Y-130497621D01*
X180461529Y-130453734D01*
X180532204Y-130446985D01*
X180578358Y-130465942D01*
X180700822Y-130547770D01*
X180881082Y-130622436D01*
X181072444Y-130660500D01*
X181072445Y-130660500D01*
X181267555Y-130660500D01*
X181267556Y-130660500D01*
X181458918Y-130622436D01*
X181639178Y-130547770D01*
X181761642Y-130465941D01*
X181829391Y-130444728D01*
X181897858Y-130463511D01*
X181945302Y-130516328D01*
X181956659Y-130586410D01*
X181940761Y-130633707D01*
X181894401Y-130714006D01*
X181854500Y-130862918D01*
X181854500Y-131017081D01*
X181854499Y-131017081D01*
X181894401Y-131165994D01*
X181971481Y-131299501D01*
X181971489Y-131299511D01*
X182080488Y-131408510D01*
X182080493Y-131408514D01*
X182080495Y-131408516D01*
X182214006Y-131485599D01*
X182362917Y-131525500D01*
X182362919Y-131525500D01*
X182417769Y-131525500D01*
X182485890Y-131545502D01*
X182532383Y-131599158D01*
X182543047Y-131638032D01*
X182548009Y-131684195D01*
X182548348Y-131685626D01*
X182548286Y-131686770D01*
X182548853Y-131692038D01*
X182547999Y-131692129D01*
X182544550Y-131756521D01*
X182503027Y-131814108D01*
X182492765Y-131821292D01*
X182472720Y-131833887D01*
X182472714Y-131833892D01*
X182343888Y-131962718D01*
X182343887Y-131962720D01*
X182246958Y-132116981D01*
X182246957Y-132116984D01*
X182187172Y-132287842D01*
X182186783Y-132288953D01*
X182166384Y-132470000D01*
X182186783Y-132651047D01*
X182186783Y-132651049D01*
X182186784Y-132651050D01*
X182246957Y-132823015D01*
X182246958Y-132823018D01*
X182343887Y-132977279D01*
X182343888Y-132977281D01*
X182472718Y-133106111D01*
X182472720Y-133106112D01*
X182626981Y-133203041D01*
X182626982Y-133203041D01*
X182626985Y-133203043D01*
X182798953Y-133263217D01*
X182980000Y-133283616D01*
X183161047Y-133263217D01*
X183333015Y-133203043D01*
X183487281Y-133106111D01*
X183616111Y-132977281D01*
X183713043Y-132823015D01*
X183773217Y-132651047D01*
X183782719Y-132566702D01*
X183810221Y-132501252D01*
X183818822Y-132491726D01*
X184190145Y-132120404D01*
X184252457Y-132086379D01*
X184279240Y-132083500D01*
X184673500Y-132083500D01*
X184741621Y-132103502D01*
X184788114Y-132157158D01*
X184799500Y-132209500D01*
X184799500Y-136476707D01*
X184799327Y-136483302D01*
X184783633Y-136782752D01*
X184782255Y-136795868D01*
X184735860Y-137088793D01*
X184733118Y-137101693D01*
X184656359Y-137388162D01*
X184652283Y-137400705D01*
X184546006Y-137677567D01*
X184540642Y-137689616D01*
X184405999Y-137953867D01*
X184399404Y-137965289D01*
X184237878Y-138214017D01*
X184230126Y-138224686D01*
X184043492Y-138455160D01*
X184034667Y-138464961D01*
X183824961Y-138674667D01*
X183815160Y-138683492D01*
X183584686Y-138870126D01*
X183574017Y-138877878D01*
X183325289Y-139039404D01*
X183313867Y-139045999D01*
X183049616Y-139180642D01*
X183037567Y-139186006D01*
X182760705Y-139292283D01*
X182748162Y-139296359D01*
X182461693Y-139373118D01*
X182448793Y-139375860D01*
X182155868Y-139422255D01*
X182142752Y-139423633D01*
X181858048Y-139438554D01*
X181843300Y-139439327D01*
X181836707Y-139439500D01*
X157843293Y-139439500D01*
X157836699Y-139439327D01*
X157821068Y-139438507D01*
X157537247Y-139423633D01*
X157524131Y-139422255D01*
X157231206Y-139375860D01*
X157218306Y-139373118D01*
X156931837Y-139296359D01*
X156919294Y-139292283D01*
X156642432Y-139186006D01*
X156630383Y-139180642D01*
X156366132Y-139045999D01*
X156354710Y-139039404D01*
X156105982Y-138877878D01*
X156095313Y-138870126D01*
X155864839Y-138683492D01*
X155855038Y-138674667D01*
X155645332Y-138464961D01*
X155636507Y-138455160D01*
X155449873Y-138224686D01*
X155442121Y-138214017D01*
X155280595Y-137965289D01*
X155274000Y-137953867D01*
X155210888Y-137830003D01*
X161334659Y-137830003D01*
X161353974Y-138026124D01*
X161353974Y-138026126D01*
X161411186Y-138214728D01*
X161464965Y-138315341D01*
X161504090Y-138388538D01*
X161629117Y-138540883D01*
X161781462Y-138665910D01*
X161955273Y-138758814D01*
X162143868Y-138816024D01*
X162143872Y-138816024D01*
X162143874Y-138816025D01*
X162339997Y-138835341D01*
X162340000Y-138835341D01*
X162340003Y-138835341D01*
X162536124Y-138816025D01*
X162536126Y-138816025D01*
X162536127Y-138816024D01*
X162536132Y-138816024D01*
X162724727Y-138758814D01*
X162898538Y-138665910D01*
X163050883Y-138540883D01*
X163175910Y-138388538D01*
X163268814Y-138214727D01*
X163326024Y-138026132D01*
X163326541Y-138020882D01*
X163345341Y-137830003D01*
X163345341Y-137829996D01*
X163326025Y-137633875D01*
X163326025Y-137633873D01*
X163326024Y-137633870D01*
X163326024Y-137633868D01*
X163268814Y-137445273D01*
X163196511Y-137310003D01*
X181654659Y-137310003D01*
X181673974Y-137506124D01*
X181673974Y-137506126D01*
X181731186Y-137694728D01*
X181824090Y-137868538D01*
X181949117Y-138020883D01*
X182101462Y-138145910D01*
X182275273Y-138238814D01*
X182463868Y-138296024D01*
X182463872Y-138296024D01*
X182463874Y-138296025D01*
X182659997Y-138315341D01*
X182660000Y-138315341D01*
X182660003Y-138315341D01*
X182856124Y-138296025D01*
X182856126Y-138296025D01*
X182856127Y-138296024D01*
X182856132Y-138296024D01*
X183044727Y-138238814D01*
X183218538Y-138145910D01*
X183370883Y-138020883D01*
X183495910Y-137868538D01*
X183588814Y-137694727D01*
X183646024Y-137506132D01*
X183654589Y-137419167D01*
X183665341Y-137310003D01*
X183665341Y-137309996D01*
X183646025Y-137113875D01*
X183646025Y-137113873D01*
X183646024Y-137113870D01*
X183646024Y-137113868D01*
X183588814Y-136925273D01*
X183495910Y-136751462D01*
X183370883Y-136599117D01*
X183218538Y-136474090D01*
X183179214Y-136453071D01*
X183044728Y-136381186D01*
X182856125Y-136323974D01*
X182660003Y-136304659D01*
X182659997Y-136304659D01*
X182463875Y-136323974D01*
X182463873Y-136323974D01*
X182275271Y-136381186D01*
X182101461Y-136474090D01*
X181949117Y-136599117D01*
X181824090Y-136751461D01*
X181731186Y-136925271D01*
X181673974Y-137113873D01*
X181673974Y-137113875D01*
X181654659Y-137309996D01*
X181654659Y-137310003D01*
X163196511Y-137310003D01*
X163175910Y-137271462D01*
X163050883Y-137119117D01*
X162898538Y-136994090D01*
X162862992Y-136975090D01*
X162724728Y-136901186D01*
X162536125Y-136843974D01*
X162340003Y-136824659D01*
X162339997Y-136824659D01*
X162143875Y-136843974D01*
X162143873Y-136843974D01*
X161955271Y-136901186D01*
X161781461Y-136994090D01*
X161629117Y-137119117D01*
X161504090Y-137271461D01*
X161411186Y-137445271D01*
X161353974Y-137633873D01*
X161353974Y-137633875D01*
X161334659Y-137829996D01*
X161334659Y-137830003D01*
X155210888Y-137830003D01*
X155139353Y-137689608D01*
X155133997Y-137677576D01*
X155027715Y-137400703D01*
X155023640Y-137388162D01*
X154946881Y-137101693D01*
X154944139Y-137088793D01*
X154897744Y-136795868D01*
X154896366Y-136782751D01*
X154880673Y-136483301D01*
X154880500Y-136476707D01*
X154880500Y-136096124D01*
X156864500Y-136096124D01*
X156900831Y-136325514D01*
X156900832Y-136325518D01*
X156951026Y-136480000D01*
X156972600Y-136546396D01*
X157078039Y-136753331D01*
X157214551Y-136941224D01*
X157214553Y-136941226D01*
X157214555Y-136941229D01*
X157378770Y-137105444D01*
X157378773Y-137105446D01*
X157378776Y-137105449D01*
X157566669Y-137241961D01*
X157773604Y-137347400D01*
X157994486Y-137419169D01*
X158223876Y-137455500D01*
X158223878Y-137455500D01*
X158456122Y-137455500D01*
X158456124Y-137455500D01*
X158685514Y-137419169D01*
X158906396Y-137347400D01*
X159113331Y-137241961D01*
X159301224Y-137105449D01*
X159465449Y-136941224D01*
X159601961Y-136753331D01*
X159707400Y-136546396D01*
X159779169Y-136325514D01*
X159815500Y-136096124D01*
X159815500Y-135863876D01*
X159779169Y-135634486D01*
X159707400Y-135413604D01*
X159601961Y-135206669D01*
X159465449Y-135018776D01*
X159465446Y-135018773D01*
X159465444Y-135018770D01*
X159301229Y-134854555D01*
X159301226Y-134854553D01*
X159301224Y-134854551D01*
X159113331Y-134718039D01*
X158906396Y-134612600D01*
X158906393Y-134612599D01*
X158906391Y-134612598D01*
X158685518Y-134540832D01*
X158685516Y-134540831D01*
X158685514Y-134540831D01*
X158456124Y-134504500D01*
X158223876Y-134504500D01*
X157994486Y-134540831D01*
X157994484Y-134540831D01*
X157994481Y-134540832D01*
X157773608Y-134612598D01*
X157773602Y-134612601D01*
X157566665Y-134718041D01*
X157378773Y-134854553D01*
X157378770Y-134854555D01*
X157214555Y-135018770D01*
X157214553Y-135018773D01*
X157078041Y-135206665D01*
X156972601Y-135413602D01*
X156972598Y-135413608D01*
X156900832Y-135634481D01*
X156900831Y-135634484D01*
X156900831Y-135634486D01*
X156864500Y-135863876D01*
X156864500Y-136096124D01*
X154880500Y-136096124D01*
X154880500Y-131980003D01*
X155544659Y-131980003D01*
X155563974Y-132176124D01*
X155563974Y-132176126D01*
X155621186Y-132364728D01*
X155697093Y-132506739D01*
X155714090Y-132538538D01*
X155839117Y-132690883D01*
X155991462Y-132815910D01*
X156165273Y-132908814D01*
X156353868Y-132966024D01*
X156353872Y-132966024D01*
X156353874Y-132966025D01*
X156549997Y-132985341D01*
X156550000Y-132985341D01*
X156550003Y-132985341D01*
X156746124Y-132966025D01*
X156746126Y-132966025D01*
X156746127Y-132966024D01*
X156746132Y-132966024D01*
X156934727Y-132908814D01*
X157108538Y-132815910D01*
X157260883Y-132690883D01*
X157385910Y-132538538D01*
X157478814Y-132364727D01*
X157536024Y-132176132D01*
X157541513Y-132120404D01*
X157555341Y-131980003D01*
X157555341Y-131979996D01*
X157536025Y-131783875D01*
X157536025Y-131783873D01*
X157536024Y-131783870D01*
X157536024Y-131783868D01*
X157478814Y-131595273D01*
X157385910Y-131421462D01*
X157260883Y-131269117D01*
X157108538Y-131144090D01*
X157017236Y-131095288D01*
X156934728Y-131051186D01*
X156746125Y-130993974D01*
X156550003Y-130974659D01*
X156549997Y-130974659D01*
X156353875Y-130993974D01*
X156353873Y-130993974D01*
X156165271Y-131051186D01*
X155991461Y-131144090D01*
X155839117Y-131269117D01*
X155714090Y-131421461D01*
X155621186Y-131595271D01*
X155563974Y-131783873D01*
X155563974Y-131783875D01*
X155544659Y-131979996D01*
X155544659Y-131980003D01*
X154880500Y-131980003D01*
X154880500Y-105797212D01*
X158581500Y-105797212D01*
X158591937Y-105899380D01*
X158646791Y-106064920D01*
X158738342Y-106213346D01*
X158738347Y-106213352D01*
X158861647Y-106336652D01*
X158861653Y-106336657D01*
X158861654Y-106336658D01*
X159010080Y-106428209D01*
X159175619Y-106483062D01*
X159277787Y-106493500D01*
X159877212Y-106493499D01*
X159979381Y-106483062D01*
X160144920Y-106428209D01*
X160230572Y-106375377D01*
X160299049Y-106356640D01*
X160366788Y-106377899D01*
X160412280Y-106432405D01*
X160421082Y-106502854D01*
X160390400Y-106566878D01*
X160372228Y-106583485D01*
X160290596Y-106644595D01*
X160203055Y-106761534D01*
X160203055Y-106761535D01*
X160152005Y-106898406D01*
X160145500Y-106958902D01*
X160145500Y-108316000D01*
X161266000Y-108316000D01*
X161266000Y-106535999D01*
X161262468Y-106532467D01*
X161206379Y-106515998D01*
X161159886Y-106462342D01*
X161148500Y-106410000D01*
X161148500Y-105764000D01*
X161656500Y-105764000D01*
X161656500Y-106456501D01*
X161660031Y-106460032D01*
X161716121Y-106476502D01*
X161762614Y-106530158D01*
X161774000Y-106582500D01*
X161774000Y-108316000D01*
X162894500Y-108316000D01*
X162894500Y-106958914D01*
X162894499Y-106958902D01*
X162887994Y-106898406D01*
X162836944Y-106761535D01*
X162836944Y-106761534D01*
X162749404Y-106644595D01*
X162632465Y-106557055D01*
X162495593Y-106506005D01*
X162435097Y-106499500D01*
X162258987Y-106499500D01*
X162190866Y-106479498D01*
X162144373Y-106425842D01*
X162134269Y-106355568D01*
X162163763Y-106290988D01*
X162169892Y-106284405D01*
X162241257Y-106213039D01*
X162241262Y-106213033D01*
X162332751Y-106064707D01*
X162387568Y-105899276D01*
X162387569Y-105899273D01*
X162397999Y-105797184D01*
X162398000Y-105797184D01*
X162398000Y-105764000D01*
X161656500Y-105764000D01*
X161148500Y-105764000D01*
X161148500Y-104527000D01*
X161656500Y-104527000D01*
X161656500Y-105256000D01*
X162398000Y-105256000D01*
X162398000Y-105222815D01*
X162387569Y-105120726D01*
X162387568Y-105120723D01*
X162332751Y-104955292D01*
X162241262Y-104806966D01*
X162241257Y-104806960D01*
X162118039Y-104683742D01*
X162118033Y-104683737D01*
X161969707Y-104592248D01*
X161804276Y-104537431D01*
X161804273Y-104537430D01*
X161702184Y-104527000D01*
X161656500Y-104527000D01*
X161148500Y-104527000D01*
X161102815Y-104527000D01*
X161000726Y-104537430D01*
X161000723Y-104537431D01*
X160835292Y-104592248D01*
X160686966Y-104683737D01*
X160579448Y-104791255D01*
X160517136Y-104825280D01*
X160446320Y-104820214D01*
X160401253Y-104791249D01*
X160392343Y-104782338D01*
X160358321Y-104720024D01*
X160362513Y-104651634D01*
X160373217Y-104621047D01*
X160393616Y-104440000D01*
X160373217Y-104258953D01*
X160313043Y-104086985D01*
X160313041Y-104086982D01*
X160313041Y-104086981D01*
X160216112Y-103932720D01*
X160216111Y-103932718D01*
X160087281Y-103803888D01*
X160087279Y-103803887D01*
X159933018Y-103706958D01*
X159933015Y-103706957D01*
X159761050Y-103646784D01*
X159761049Y-103646783D01*
X159761047Y-103646783D01*
X159580000Y-103626384D01*
X159398953Y-103646783D01*
X159398950Y-103646783D01*
X159398949Y-103646784D01*
X159226984Y-103706957D01*
X159226981Y-103706958D01*
X159072720Y-103803887D01*
X159072718Y-103803888D01*
X158943888Y-103932718D01*
X158943887Y-103932720D01*
X158846958Y-104086981D01*
X158846957Y-104086984D01*
X158790282Y-104248954D01*
X158786783Y-104258953D01*
X158776483Y-104350370D01*
X158766384Y-104440000D01*
X158786783Y-104621047D01*
X158796190Y-104647930D01*
X158799808Y-104718835D01*
X158766357Y-104778638D01*
X158738342Y-104806653D01*
X158646791Y-104955080D01*
X158591937Y-105120622D01*
X158581500Y-105222778D01*
X158581500Y-105797212D01*
X154880500Y-105797212D01*
X154880500Y-92870000D01*
X164806496Y-92870000D01*
X164826457Y-93059927D01*
X164845564Y-93118730D01*
X164885473Y-93241556D01*
X164885476Y-93241561D01*
X164980958Y-93406941D01*
X164980965Y-93406951D01*
X165108744Y-93548864D01*
X165108747Y-93548866D01*
X165263248Y-93661118D01*
X165437712Y-93738794D01*
X165624513Y-93778500D01*
X165815487Y-93778500D01*
X166002288Y-93738794D01*
X166176752Y-93661118D01*
X166331253Y-93548866D01*
X166331255Y-93548864D01*
X166459034Y-93406951D01*
X166459035Y-93406949D01*
X166459040Y-93406944D01*
X166554527Y-93241556D01*
X166575393Y-93177334D01*
X166615466Y-93118730D01*
X166680862Y-93091092D01*
X166682310Y-93090935D01*
X166759381Y-93083062D01*
X166924920Y-93028209D01*
X167073346Y-92936658D01*
X167092923Y-92917081D01*
X167181259Y-92828746D01*
X167243571Y-92794720D01*
X167314386Y-92799785D01*
X167359449Y-92828746D01*
X167466960Y-92936257D01*
X167466966Y-92936262D01*
X167615292Y-93027751D01*
X167780723Y-93082568D01*
X167780726Y-93082569D01*
X167882815Y-93092999D01*
X167882815Y-93093000D01*
X167928500Y-93093000D01*
X167928500Y-91127000D01*
X167882815Y-91127000D01*
X167780726Y-91137430D01*
X167780723Y-91137431D01*
X167615292Y-91192248D01*
X167466966Y-91283737D01*
X167466960Y-91283742D01*
X167359449Y-91391254D01*
X167297137Y-91425280D01*
X167226322Y-91420215D01*
X167181259Y-91391254D01*
X167073352Y-91283347D01*
X167073346Y-91283342D01*
X167040036Y-91262796D01*
X166924920Y-91191791D01*
X166759381Y-91136938D01*
X166759379Y-91136937D01*
X166759377Y-91136937D01*
X166657221Y-91126500D01*
X166057787Y-91126500D01*
X165955619Y-91136937D01*
X165790079Y-91191791D01*
X165641653Y-91283342D01*
X165641647Y-91283347D01*
X165518347Y-91406647D01*
X165518342Y-91406653D01*
X165426791Y-91555080D01*
X165371937Y-91720622D01*
X165361500Y-91822778D01*
X165361500Y-91953311D01*
X165341498Y-92021432D01*
X165287842Y-92067925D01*
X165286751Y-92068417D01*
X165263251Y-92078880D01*
X165263248Y-92078882D01*
X165108744Y-92191135D01*
X164980965Y-92333048D01*
X164980958Y-92333058D01*
X164885476Y-92498438D01*
X164885473Y-92498445D01*
X164826457Y-92680072D01*
X164806496Y-92870000D01*
X154880500Y-92870000D01*
X154880500Y-90659544D01*
X155287500Y-90659544D01*
X155298112Y-90763425D01*
X155353885Y-90931738D01*
X155446970Y-91082652D01*
X155446975Y-91082658D01*
X155572341Y-91208024D01*
X155572347Y-91208029D01*
X155572348Y-91208030D01*
X155723262Y-91301115D01*
X155891574Y-91356887D01*
X155995455Y-91367500D01*
X158296544Y-91367499D01*
X158400426Y-91356887D01*
X158568738Y-91301115D01*
X158719652Y-91208030D01*
X158845030Y-91082652D01*
X158938115Y-90931738D01*
X158993887Y-90763426D01*
X159004500Y-90659545D01*
X159004499Y-90058456D01*
X159002941Y-90043209D01*
X158993887Y-89954574D01*
X158970923Y-89885273D01*
X158938115Y-89786262D01*
X158845030Y-89635348D01*
X158845029Y-89635347D01*
X158845024Y-89635341D01*
X158719658Y-89509975D01*
X158719652Y-89509970D01*
X158568738Y-89416885D01*
X158484582Y-89388999D01*
X158400427Y-89361113D01*
X158400420Y-89361112D01*
X158296553Y-89350500D01*
X155995455Y-89350500D01*
X155891574Y-89361112D01*
X155723261Y-89416885D01*
X155572347Y-89509970D01*
X155572341Y-89509975D01*
X155446975Y-89635341D01*
X155446970Y-89635347D01*
X155353885Y-89786262D01*
X155298113Y-89954572D01*
X155298112Y-89954579D01*
X155287500Y-90058446D01*
X155287500Y-90659544D01*
X154880500Y-90659544D01*
X154880500Y-88725511D01*
X158987500Y-88725511D01*
X158990437Y-88762828D01*
X158990437Y-88762829D01*
X159036856Y-88922605D01*
X159121544Y-89065803D01*
X159121549Y-89065810D01*
X159239189Y-89183450D01*
X159239196Y-89183455D01*
X159382394Y-89268143D01*
X159382397Y-89268143D01*
X159382399Y-89268145D01*
X159542169Y-89314562D01*
X159579488Y-89317499D01*
X159579489Y-89317500D01*
X159579498Y-89317500D01*
X160241761Y-89317500D01*
X160309882Y-89337502D01*
X160330856Y-89354405D01*
X160470078Y-89493627D01*
X160470079Y-89493628D01*
X160583372Y-89606921D01*
X160583373Y-89606922D01*
X160583375Y-89606923D01*
X160680904Y-89663231D01*
X160722128Y-89687032D01*
X160876889Y-89728500D01*
X161037110Y-89728500D01*
X161971433Y-89728500D01*
X162039554Y-89748502D01*
X162078673Y-89788352D01*
X162103340Y-89828344D01*
X162103347Y-89828352D01*
X162226647Y-89951652D01*
X162226653Y-89951657D01*
X162226654Y-89951658D01*
X162375080Y-90043209D01*
X162540619Y-90098062D01*
X162642787Y-90108500D01*
X163217212Y-90108499D01*
X163319381Y-90098062D01*
X163484920Y-90043209D01*
X163633346Y-89951658D01*
X163756658Y-89828346D01*
X163781327Y-89788352D01*
X163785953Y-89780853D01*
X163838739Y-89733375D01*
X163893193Y-89721000D01*
X164094006Y-89721000D01*
X164162127Y-89741002D01*
X164172570Y-89748492D01*
X164172725Y-89748616D01*
X164326981Y-89845541D01*
X164326982Y-89845541D01*
X164326985Y-89845543D01*
X164498953Y-89905717D01*
X164680000Y-89926116D01*
X164817684Y-89910602D01*
X164887613Y-89922851D01*
X164939821Y-89970964D01*
X164951620Y-89996870D01*
X164985473Y-90101056D01*
X164985476Y-90101061D01*
X165080958Y-90266441D01*
X165080965Y-90266451D01*
X165208744Y-90408364D01*
X165208747Y-90408366D01*
X165363248Y-90520618D01*
X165537712Y-90598294D01*
X165724513Y-90638000D01*
X165915487Y-90638000D01*
X166102288Y-90598294D01*
X166276752Y-90520618D01*
X166409589Y-90424106D01*
X166431251Y-90408368D01*
X166497142Y-90335189D01*
X166557588Y-90297949D01*
X166590778Y-90293499D01*
X166977212Y-90293499D01*
X167079381Y-90283062D01*
X167244920Y-90228209D01*
X167393346Y-90136658D01*
X167431942Y-90098062D01*
X167501259Y-90028746D01*
X167563571Y-89994720D01*
X167634386Y-89999785D01*
X167679449Y-90028746D01*
X167786960Y-90136257D01*
X167786966Y-90136262D01*
X167935292Y-90227751D01*
X168100723Y-90282568D01*
X168100726Y-90282569D01*
X168202815Y-90292999D01*
X168202815Y-90293000D01*
X168248500Y-90293000D01*
X168248500Y-88383691D01*
X168268502Y-88315570D01*
X168285405Y-88294596D01*
X168296000Y-88284001D01*
X168296000Y-87924000D01*
X167542000Y-87924000D01*
X167542000Y-87993597D01*
X167548505Y-88054093D01*
X167599555Y-88190964D01*
X167599555Y-88190965D01*
X167687095Y-88307904D01*
X167728360Y-88338794D01*
X167770907Y-88395629D01*
X167775972Y-88466445D01*
X167741947Y-88528757D01*
X167741946Y-88528757D01*
X167679449Y-88591254D01*
X167617137Y-88625280D01*
X167546322Y-88620215D01*
X167501259Y-88591254D01*
X167393352Y-88483347D01*
X167393346Y-88483342D01*
X167382266Y-88476508D01*
X167244920Y-88391791D01*
X167079381Y-88336938D01*
X167079379Y-88336937D01*
X167079377Y-88336937D01*
X166977221Y-88326500D01*
X166377787Y-88326500D01*
X166275619Y-88336937D01*
X166110079Y-88391791D01*
X165961653Y-88483342D01*
X165961647Y-88483347D01*
X165838347Y-88606647D01*
X165838342Y-88606653D01*
X165746792Y-88755078D01*
X165743691Y-88761730D01*
X165741803Y-88760849D01*
X165707268Y-88810702D01*
X165654301Y-88835922D01*
X165563132Y-88855301D01*
X165492342Y-88849900D01*
X165435709Y-88807083D01*
X165418005Y-88773667D01*
X165414213Y-88762831D01*
X165413043Y-88759485D01*
X165413042Y-88759483D01*
X165413041Y-88759481D01*
X165316112Y-88605220D01*
X165316111Y-88605218D01*
X165187281Y-88476388D01*
X165187279Y-88476387D01*
X165033018Y-88379458D01*
X165033015Y-88379457D01*
X164861050Y-88319284D01*
X164861049Y-88319283D01*
X164861047Y-88319283D01*
X164680000Y-88298884D01*
X164498953Y-88319283D01*
X164498950Y-88319283D01*
X164498949Y-88319284D01*
X164326984Y-88379457D01*
X164326981Y-88379458D01*
X164172725Y-88476383D01*
X164172570Y-88476508D01*
X164172450Y-88476556D01*
X164166727Y-88480153D01*
X164166097Y-88479150D01*
X164106841Y-88503345D01*
X164094006Y-88504000D01*
X163893193Y-88504000D01*
X163825072Y-88483998D01*
X163785953Y-88444147D01*
X163756661Y-88396659D01*
X163756658Y-88396654D01*
X163756655Y-88396651D01*
X163756652Y-88396647D01*
X163649100Y-88289095D01*
X163615074Y-88226783D01*
X163620139Y-88155968D01*
X163649100Y-88110905D01*
X163756652Y-88003352D01*
X163756658Y-88003346D01*
X163848209Y-87854920D01*
X163903062Y-87689381D01*
X163913500Y-87587213D01*
X163913500Y-87416000D01*
X167542000Y-87416000D01*
X168296000Y-87416000D01*
X168296000Y-86887000D01*
X168001402Y-86887000D01*
X167940906Y-86893505D01*
X167804035Y-86944555D01*
X167804034Y-86944555D01*
X167687095Y-87032095D01*
X167599555Y-87149034D01*
X167599555Y-87149035D01*
X167548505Y-87285906D01*
X167542000Y-87346402D01*
X167542000Y-87416000D01*
X163913500Y-87416000D01*
X163913499Y-86987788D01*
X163903062Y-86885619D01*
X163848209Y-86720080D01*
X163756658Y-86571654D01*
X163756657Y-86571653D01*
X163756652Y-86571647D01*
X163633352Y-86448347D01*
X163633346Y-86448342D01*
X163484920Y-86356791D01*
X163319381Y-86301938D01*
X163319379Y-86301937D01*
X163319377Y-86301937D01*
X163217221Y-86291500D01*
X162642787Y-86291500D01*
X162540619Y-86301937D01*
X162375079Y-86356791D01*
X162226653Y-86448342D01*
X162226651Y-86448344D01*
X162177532Y-86497462D01*
X162115219Y-86531486D01*
X162046824Y-86527295D01*
X161931047Y-86486783D01*
X161750000Y-86466384D01*
X161568952Y-86486783D01*
X161447435Y-86529303D01*
X161376530Y-86532921D01*
X161341683Y-86518827D01*
X161309604Y-86499856D01*
X161275679Y-86490000D01*
X161272117Y-86488965D01*
X161149829Y-86453437D01*
X161112511Y-86450500D01*
X161112502Y-86450500D01*
X159579498Y-86450500D01*
X159579489Y-86450500D01*
X159542171Y-86453437D01*
X159542170Y-86453437D01*
X159382394Y-86499856D01*
X159239196Y-86584544D01*
X159239189Y-86584549D01*
X159121549Y-86702189D01*
X159121544Y-86702196D01*
X159036856Y-86845394D01*
X158990437Y-87005170D01*
X158990437Y-87005171D01*
X158987500Y-87042488D01*
X158987500Y-87475511D01*
X158990437Y-87512828D01*
X158990437Y-87512829D01*
X159036855Y-87672602D01*
X159123944Y-87819861D01*
X159141403Y-87888677D01*
X159123944Y-87948139D01*
X159036855Y-88095397D01*
X158990437Y-88255170D01*
X158990437Y-88255171D01*
X158987500Y-88292488D01*
X158987500Y-88725511D01*
X154880500Y-88725511D01*
X154880500Y-85709544D01*
X155287500Y-85709544D01*
X155298112Y-85813425D01*
X155353885Y-85981738D01*
X155446970Y-86132652D01*
X155446975Y-86132658D01*
X155572341Y-86258024D01*
X155572347Y-86258029D01*
X155572348Y-86258030D01*
X155723262Y-86351115D01*
X155891574Y-86406887D01*
X155995455Y-86417500D01*
X158296544Y-86417499D01*
X158400426Y-86406887D01*
X158568738Y-86351115D01*
X158719652Y-86258030D01*
X158845030Y-86132652D01*
X158938115Y-85981738D01*
X158993887Y-85813426D01*
X159004500Y-85709545D01*
X159004499Y-85108456D01*
X158993887Y-85004574D01*
X158938115Y-84836262D01*
X158845030Y-84685348D01*
X158845029Y-84685347D01*
X158845024Y-84685341D01*
X158719658Y-84559975D01*
X158719652Y-84559970D01*
X158689933Y-84541639D01*
X158568738Y-84466885D01*
X158484582Y-84438999D01*
X158400427Y-84411113D01*
X158400420Y-84411112D01*
X158296553Y-84400500D01*
X155995455Y-84400500D01*
X155891574Y-84411112D01*
X155723261Y-84466885D01*
X155572347Y-84559970D01*
X155572341Y-84559975D01*
X155446975Y-84685341D01*
X155446970Y-84685347D01*
X155353885Y-84836262D01*
X155298113Y-85004572D01*
X155298112Y-85004579D01*
X155287500Y-85108446D01*
X155287500Y-85709544D01*
X154880500Y-85709544D01*
X154880500Y-82990003D01*
X155474659Y-82990003D01*
X155493974Y-83186124D01*
X155493974Y-83186126D01*
X155551186Y-83374728D01*
X155577630Y-83424201D01*
X155644090Y-83548538D01*
X155769117Y-83700883D01*
X155921462Y-83825910D01*
X156095273Y-83918814D01*
X156283868Y-83976024D01*
X156283872Y-83976024D01*
X156283874Y-83976025D01*
X156479997Y-83995341D01*
X156480000Y-83995341D01*
X156480003Y-83995341D01*
X156676124Y-83976025D01*
X156676126Y-83976025D01*
X156676127Y-83976024D01*
X156676132Y-83976024D01*
X156864727Y-83918814D01*
X157038538Y-83825910D01*
X157190883Y-83700883D01*
X157315910Y-83548538D01*
X157408814Y-83374727D01*
X157466024Y-83186132D01*
X157466025Y-83186124D01*
X157485341Y-82990003D01*
X157485341Y-82989996D01*
X157466025Y-82793875D01*
X157466025Y-82793873D01*
X157466024Y-82793870D01*
X157466024Y-82793868D01*
X157408814Y-82605273D01*
X157315910Y-82431462D01*
X157190883Y-82279117D01*
X157038538Y-82154090D01*
X156974418Y-82119817D01*
X156864728Y-82061186D01*
X156676125Y-82003974D01*
X156480003Y-81984659D01*
X156479997Y-81984659D01*
X156283875Y-82003974D01*
X156283873Y-82003974D01*
X156095271Y-82061186D01*
X155921461Y-82154090D01*
X155769117Y-82279117D01*
X155644090Y-82431461D01*
X155551186Y-82605271D01*
X155493974Y-82793873D01*
X155493974Y-82793875D01*
X155474659Y-82989996D01*
X155474659Y-82990003D01*
X154880500Y-82990003D01*
X154880500Y-78096124D01*
X156864500Y-78096124D01*
X156899832Y-78319204D01*
X156900832Y-78325518D01*
X156943295Y-78456207D01*
X156972600Y-78546396D01*
X157078039Y-78753331D01*
X157214551Y-78941224D01*
X157214553Y-78941226D01*
X157214555Y-78941229D01*
X157378770Y-79105444D01*
X157378773Y-79105446D01*
X157378776Y-79105449D01*
X157566669Y-79241961D01*
X157773604Y-79347400D01*
X157994486Y-79419169D01*
X158223876Y-79455500D01*
X158223878Y-79455500D01*
X158456122Y-79455500D01*
X158456124Y-79455500D01*
X158685514Y-79419169D01*
X158906396Y-79347400D01*
X159113331Y-79241961D01*
X159301224Y-79105449D01*
X159465449Y-78941224D01*
X159601961Y-78753331D01*
X159707400Y-78546396D01*
X159779169Y-78325514D01*
X159815500Y-78096124D01*
X159815500Y-77863876D01*
X159779169Y-77634486D01*
X159707400Y-77413604D01*
X159601961Y-77206669D01*
X159465449Y-77018776D01*
X159465446Y-77018773D01*
X159465444Y-77018770D01*
X159301229Y-76854555D01*
X159301226Y-76854553D01*
X159301224Y-76854551D01*
X159133938Y-76733011D01*
X159113334Y-76718041D01*
X159113333Y-76718040D01*
X159113331Y-76718039D01*
X158906396Y-76612600D01*
X158906393Y-76612599D01*
X158906391Y-76612598D01*
X158685518Y-76540832D01*
X158685516Y-76540831D01*
X158685514Y-76540831D01*
X158456124Y-76504500D01*
X158223876Y-76504500D01*
X157994486Y-76540831D01*
X157994484Y-76540831D01*
X157994481Y-76540832D01*
X157773608Y-76612598D01*
X157773602Y-76612601D01*
X157566665Y-76718041D01*
X157378773Y-76854553D01*
X157378770Y-76854555D01*
X157214555Y-77018770D01*
X157214553Y-77018773D01*
X157078041Y-77206665D01*
X156972601Y-77413602D01*
X156972598Y-77413608D01*
X156900832Y-77634481D01*
X156900831Y-77634484D01*
X156900831Y-77634486D01*
X156864500Y-77863876D01*
X156864500Y-78096124D01*
X154880500Y-78096124D01*
X154880500Y-77483292D01*
X154880673Y-77476698D01*
X154896366Y-77177248D01*
X154897744Y-77164131D01*
X154903816Y-77125798D01*
X154944139Y-76871202D01*
X154946881Y-76858306D01*
X154947887Y-76854551D01*
X155023642Y-76571830D01*
X155027716Y-76559294D01*
X155033665Y-76543797D01*
X155133999Y-76282416D01*
X155139349Y-76270398D01*
X155274008Y-76006117D01*
X155280589Y-75994719D01*
X155442125Y-75745975D01*
X155449865Y-75735323D01*
X155636516Y-75504827D01*
X155645322Y-75495048D01*
X155855048Y-75285322D01*
X155864827Y-75276516D01*
X156095323Y-75089865D01*
X156105975Y-75082125D01*
X156354719Y-74920589D01*
X156366117Y-74914008D01*
X156630398Y-74779349D01*
X156642416Y-74773999D01*
X156919301Y-74667713D01*
X156931830Y-74663642D01*
X157218310Y-74586880D01*
X157231202Y-74584139D01*
X157524134Y-74537743D01*
X157537245Y-74536366D01*
X157836699Y-74520673D01*
X157843293Y-74520500D01*
X157866929Y-74520500D01*
X161260009Y-74520500D01*
X162983785Y-74520500D01*
X163051906Y-74540502D01*
G37*
%TD.AperFunction*%
%TD*%
M02*
