%TF.GenerationSoftware,KiCad,Pcbnew,8.0.1*%
%TF.CreationDate,2024-04-10T20:13:32+08:00*%
%TF.ProjectId,Photon_Power_Zero_PCB_r1_01,50686f74-6f6e-45f5-906f-7765725f5a65,rev?*%
%TF.SameCoordinates,Original*%
%TF.FileFunction,Paste,Top*%
%TF.FilePolarity,Positive*%
%FSLAX46Y46*%
G04 Gerber Fmt 4.6, Leading zero omitted, Abs format (unit mm)*
G04 Created by KiCad (PCBNEW 8.0.1) date 2024-04-10 20:13:32*
%MOMM*%
%LPD*%
G01*
G04 APERTURE LIST*
G04 Aperture macros list*
%AMRoundRect*
0 Rectangle with rounded corners*
0 $1 Rounding radius*
0 $2 $3 $4 $5 $6 $7 $8 $9 X,Y pos of 4 corners*
0 Add a 4 corners polygon primitive as box body*
4,1,4,$2,$3,$4,$5,$6,$7,$8,$9,$2,$3,0*
0 Add four circle primitives for the rounded corners*
1,1,$1+$1,$2,$3*
1,1,$1+$1,$4,$5*
1,1,$1+$1,$6,$7*
1,1,$1+$1,$8,$9*
0 Add four rect primitives between the rounded corners*
20,1,$1+$1,$2,$3,$4,$5,0*
20,1,$1+$1,$4,$5,$6,$7,0*
20,1,$1+$1,$6,$7,$8,$9,0*
20,1,$1+$1,$8,$9,$2,$3,0*%
G04 Aperture macros list end*
%ADD10C,0.010000*%
%ADD11RoundRect,0.237500X0.237500X-0.250000X0.237500X0.250000X-0.237500X0.250000X-0.237500X-0.250000X0*%
%ADD12R,0.558800X1.981200*%
%ADD13RoundRect,0.237500X-0.237500X0.287500X-0.237500X-0.287500X0.237500X-0.287500X0.237500X0.287500X0*%
%ADD14RoundRect,0.237500X-0.250000X-0.237500X0.250000X-0.237500X0.250000X0.237500X-0.250000X0.237500X0*%
%ADD15R,0.550000X1.000000*%
%ADD16R,2.800000X2.400000*%
%ADD17R,1.270000X1.680000*%
%ADD18R,1.520000X3.050000*%
%ADD19R,3.500000X1.000000*%
%ADD20R,3.400000X1.500000*%
%ADD21R,3.050000X1.520000*%
%ADD22RoundRect,0.237500X0.250000X0.237500X-0.250000X0.237500X-0.250000X-0.237500X0.250000X-0.237500X0*%
%ADD23R,0.950000X0.900000*%
%ADD24R,1.300000X0.900000*%
%ADD25R,1.475000X0.900000*%
%ADD26R,3.125000X1.733000*%
%ADD27RoundRect,0.007800X-0.122200X0.422200X-0.122200X-0.422200X0.122200X-0.422200X0.122200X0.422200X0*%
%ADD28RoundRect,0.007800X0.422200X0.122200X-0.422200X0.122200X-0.422200X-0.122200X0.422200X-0.122200X0*%
%ADD29RoundRect,0.150000X-0.150000X-0.700000X0.150000X-0.700000X0.150000X0.700000X-0.150000X0.700000X0*%
%ADD30RoundRect,0.250000X-0.250000X-1.100000X0.250000X-1.100000X0.250000X1.100000X-0.250000X1.100000X0*%
G04 APERTURE END LIST*
D10*
%TO.C,U3*%
X149665000Y-90740000D02*
X148605000Y-90740000D01*
X148605000Y-89680000D01*
X149665000Y-89680000D01*
X149665000Y-90740000D01*
G36*
X149665000Y-90740000D02*
G01*
X148605000Y-90740000D01*
X148605000Y-89680000D01*
X149665000Y-89680000D01*
X149665000Y-90740000D01*
G37*
%TD*%
D11*
%TO.C,R1*%
X140770000Y-90952500D03*
X140770000Y-89127500D03*
%TD*%
D12*
%TO.C,U1*%
X171475000Y-93140000D03*
X172745000Y-93140000D03*
X174015000Y-93140000D03*
X175285000Y-93140000D03*
X176555000Y-93140000D03*
X177825000Y-93140000D03*
X179095000Y-93140000D03*
X179095000Y-98067600D03*
X177825000Y-98067600D03*
X172745000Y-98067600D03*
X174015000Y-98067600D03*
X176555000Y-98067600D03*
X175285000Y-98067600D03*
X171475000Y-98067600D03*
%TD*%
D13*
%TO.C,D1*%
X185910000Y-102780000D03*
X185910000Y-104530000D03*
%TD*%
D11*
%TO.C,C1*%
X149040000Y-94932500D03*
X149040000Y-93107500D03*
%TD*%
D14*
%TO.C,R4*%
X152037500Y-88280000D03*
X153862500Y-88280000D03*
%TD*%
D11*
%TO.C,R1*%
X149340000Y-86752500D03*
X149340000Y-84927500D03*
%TD*%
D15*
%TO.C,U4*%
X142700000Y-92740000D03*
X142700000Y-90040000D03*
X143650000Y-90040000D03*
X144600000Y-92740000D03*
X144600000Y-90040000D03*
%TD*%
D16*
%TO.C,J3*%
X185100000Y-97470000D03*
X191200000Y-97470000D03*
X191200000Y-86070000D03*
X185100000Y-86070000D03*
%TD*%
D11*
%TO.C,R1*%
X150850000Y-86752500D03*
X150850000Y-84927500D03*
%TD*%
D17*
%TO.C,REF\u002A\u002A*%
X139610000Y-77400000D03*
X139610000Y-82840000D03*
X142150000Y-77400000D03*
X142150000Y-82840000D03*
X144690000Y-82840000D03*
X147230000Y-77400000D03*
X147230000Y-82840000D03*
X149770000Y-77400000D03*
X152310000Y-77400000D03*
X152310000Y-82840000D03*
X154850000Y-82840000D03*
X157390000Y-77400000D03*
X157390000Y-82840000D03*
X159930000Y-77400000D03*
X159930000Y-82840000D03*
X162470000Y-82840000D03*
X165010000Y-77400000D03*
X165010000Y-82840000D03*
X167550000Y-77400000D03*
X167550000Y-82840000D03*
X170090000Y-77400000D03*
X172630000Y-77400000D03*
X172630000Y-82840000D03*
X175170000Y-82840000D03*
X177710000Y-77400000D03*
X177710000Y-82840000D03*
X180250000Y-82840000D03*
X182790000Y-77400000D03*
X182790000Y-82840000D03*
X185330000Y-77400000D03*
X185330000Y-82840000D03*
X187870000Y-77400000D03*
X149770000Y-82840000D03*
X170090000Y-82840000D03*
X187870000Y-82840000D03*
X144690000Y-77400000D03*
X154850000Y-77400000D03*
X162470000Y-77400000D03*
X175170000Y-77400000D03*
X180250000Y-77400000D03*
%TD*%
D11*
%TO.C,C1*%
X146240000Y-94612500D03*
X146240000Y-92787500D03*
%TD*%
D18*
%TO.C,L1*%
X141070000Y-86520000D03*
X138780000Y-86520000D03*
%TD*%
D19*
%TO.C,J1*%
X139190000Y-92590000D03*
X139190000Y-94590000D03*
D20*
X133440000Y-90240000D03*
X133440000Y-96940000D03*
%TD*%
D13*
%TO.C,D1*%
X177190000Y-102762500D03*
X177190000Y-104512500D03*
%TD*%
D21*
%TO.C,C3*%
X143980000Y-88060000D03*
X143980000Y-85770000D03*
%TD*%
D18*
%TO.C,C3*%
X136770000Y-78820000D03*
X134480000Y-78820000D03*
%TD*%
D22*
%TO.C,R4*%
X155525000Y-95980000D03*
X153700000Y-95980000D03*
%TD*%
D13*
%TO.C,D1*%
X183180000Y-102750000D03*
X183180000Y-104500000D03*
%TD*%
D23*
%TO.C,D2*%
X136550000Y-86260000D03*
X136550000Y-83110000D03*
%TD*%
D11*
%TO.C,C1*%
X170070000Y-100352500D03*
X170070000Y-98527500D03*
%TD*%
D24*
%TO.C,U2*%
X167887500Y-101270000D03*
D25*
X167800000Y-99770000D03*
D26*
X165500000Y-99770000D03*
D24*
X167887500Y-98270000D03*
%TD*%
D11*
%TO.C,C1*%
X162440000Y-101712500D03*
X162440000Y-99887500D03*
%TD*%
D14*
%TO.C,R2*%
X176175000Y-101170000D03*
X178000000Y-101170000D03*
%TD*%
%TO.C,R2*%
X183170000Y-101140000D03*
X184995000Y-101140000D03*
%TD*%
D22*
%TO.C,R2*%
X188325000Y-101140000D03*
X186500000Y-101140000D03*
%TD*%
D11*
%TO.C,C1*%
X152020000Y-93132500D03*
X152020000Y-91307500D03*
%TD*%
D27*
%TO.C,U3*%
X149385000Y-88775000D03*
X148885000Y-88775000D03*
X148385000Y-88775000D03*
X148385000Y-91645000D03*
D28*
X147700000Y-89960000D03*
X147700000Y-89460000D03*
X147700000Y-90960000D03*
D27*
X149885000Y-91645000D03*
D28*
X150570000Y-90960000D03*
X150570000Y-89460000D03*
D27*
X149385000Y-91645000D03*
X148885000Y-91645000D03*
D28*
X147700000Y-90460000D03*
X150570000Y-89960000D03*
X150570000Y-90460000D03*
D27*
X149885000Y-88775000D03*
%TD*%
D14*
%TO.C,R1*%
X152040000Y-89790000D03*
X153865000Y-89790000D03*
%TD*%
D13*
%TO.C,D1*%
X180140000Y-102727500D03*
X180140000Y-104477500D03*
%TD*%
D15*
%TO.C,U5*%
X133490000Y-85310000D03*
X132540000Y-82610000D03*
X134440000Y-85310000D03*
X132540000Y-85310000D03*
X134440000Y-82610000D03*
%TD*%
D22*
%TO.C,R1*%
X146042500Y-98360000D03*
X144217500Y-98360000D03*
%TD*%
D14*
%TO.C,R2*%
X179525000Y-101150000D03*
X181350000Y-101150000D03*
%TD*%
D29*
%TO.C,J2*%
X144189000Y-100944000D03*
X145439000Y-100944000D03*
D30*
X142339000Y-104144000D03*
X147289000Y-104144000D03*
%TD*%
M02*
