%TF.GenerationSoftware,KiCad,Pcbnew,7.0.10*%
%TF.CreationDate,2024-01-17T09:49:44+08:00*%
%TF.ProjectId,Photon_Power_Zero_PCB_r1,50686f74-6f6e-45f5-906f-7765725f5a65,rev?*%
%TF.SameCoordinates,Original*%
%TF.FileFunction,Soldermask,Bot*%
%TF.FilePolarity,Negative*%
%FSLAX46Y46*%
G04 Gerber Fmt 4.6, Leading zero omitted, Abs format (unit mm)*
G04 Created by KiCad (PCBNEW 7.0.10) date 2024-01-17 09:49:44*
%MOMM*%
%LPD*%
G01*
G04 APERTURE LIST*
%ADD10C,1.750000*%
%ADD11C,1.700000*%
%ADD12C,1.800000*%
%ADD13C,6.000000*%
%ADD14C,0.970000*%
%ADD15C,1.780000*%
%ADD16R,1.800000X1.800000*%
G04 APERTURE END LIST*
D10*
%TO.C,*%
X170730000Y-109960000D03*
%TD*%
D11*
%TO.C,J3*%
X169520000Y-134270000D03*
D12*
X169520000Y-129770000D03*
%TD*%
D13*
%TO.C,REF\u002A\u002A*%
X158340000Y-77980000D03*
X158340000Y-135980000D03*
D14*
X179900000Y-82680000D03*
X179900000Y-85220000D03*
X179900000Y-87760000D03*
X179900000Y-90300000D03*
X179900000Y-92840000D03*
X179900000Y-95380000D03*
X179900000Y-97920000D03*
X179900000Y-100460000D03*
X179900000Y-103000000D03*
X179900000Y-105540000D03*
X179900000Y-108080000D03*
X179900000Y-110620000D03*
X179900000Y-113160000D03*
X179900000Y-115700000D03*
X179900000Y-118240000D03*
X179900000Y-120780000D03*
X179900000Y-123320000D03*
X179900000Y-125860000D03*
X179900000Y-128400000D03*
X179900000Y-130940000D03*
D15*
X181170000Y-83950000D03*
X181170000Y-129670000D03*
D14*
X182440000Y-82680000D03*
X182440000Y-85220000D03*
X182440000Y-87760000D03*
X182440000Y-90300000D03*
X182440000Y-92840000D03*
X182440000Y-95380000D03*
X182440000Y-97920000D03*
X182440000Y-100460000D03*
X182440000Y-103000000D03*
X182440000Y-105540000D03*
X182440000Y-108080000D03*
X182440000Y-110620000D03*
X182440000Y-113160000D03*
X182440000Y-115700000D03*
X182440000Y-118240000D03*
X182440000Y-120780000D03*
X182440000Y-123320000D03*
X182440000Y-125860000D03*
X182440000Y-128400000D03*
X182440000Y-130940000D03*
%TD*%
D10*
%TO.C,*%
X168190000Y-107420000D03*
%TD*%
%TO.C,*%
X168190000Y-109960000D03*
%TD*%
%TO.C,*%
X168760000Y-82370000D03*
%TD*%
%TO.C,*%
X168190000Y-104880000D03*
%TD*%
%TO.C,*%
X170730000Y-107420000D03*
%TD*%
%TO.C,*%
X170730000Y-104880000D03*
%TD*%
%TO.C,*%
X176605000Y-79620000D03*
%TD*%
D16*
%TO.C,*%
X166660000Y-82360000D03*
%TD*%
D10*
%TO.C,*%
X163790000Y-134330000D03*
%TD*%
D16*
%TO.C,REF\u002A\u002A*%
X175220000Y-134280000D03*
%TD*%
%TO.C,REF\u002A\u002A*%
X170730000Y-102340000D03*
%TD*%
D12*
%TO.C,REF\u002A\u002A*%
X168180000Y-102350000D03*
%TD*%
M02*
