%TF.GenerationSoftware,KiCad,Pcbnew,8.0.1*%
%TF.CreationDate,2024-04-10T20:13:32+08:00*%
%TF.ProjectId,Photon_Power_Zero_PCB_r1_01,50686f74-6f6e-45f5-906f-7765725f5a65,rev?*%
%TF.SameCoordinates,Original*%
%TF.FileFunction,Copper,L2,Bot*%
%TF.FilePolarity,Positive*%
%FSLAX46Y46*%
G04 Gerber Fmt 4.6, Leading zero omitted, Abs format (unit mm)*
G04 Created by KiCad (PCBNEW 8.0.1) date 2024-04-10 20:13:32*
%MOMM*%
%LPD*%
G01*
G04 APERTURE LIST*
%TA.AperFunction,SMDPad,CuDef*%
%ADD10C,1.750000*%
%TD*%
%TA.AperFunction,ComponentPad*%
%ADD11C,0.400000*%
%TD*%
%TA.AperFunction,SMDPad,CuDef*%
%ADD12R,1.800000X1.800000*%
%TD*%
%TA.AperFunction,SMDPad,CuDef*%
%ADD13C,1.800000*%
%TD*%
%TA.AperFunction,ViaPad*%
%ADD14C,0.800000*%
%TD*%
%TA.AperFunction,ViaPad*%
%ADD15C,0.600000*%
%TD*%
%TA.AperFunction,Conductor*%
%ADD16C,0.250000*%
%TD*%
%TA.AperFunction,Conductor*%
%ADD17C,0.200000*%
%TD*%
%TA.AperFunction,Conductor*%
%ADD18C,0.600000*%
%TD*%
%TA.AperFunction,Conductor*%
%ADD19C,0.500000*%
%TD*%
%TA.AperFunction,Conductor*%
%ADD20C,0.400000*%
%TD*%
G04 APERTURE END LIST*
D10*
%TO.P,,1*%
%TO.N,N/C*%
X166890000Y-90560000D03*
%TD*%
%TO.P,,1*%
%TO.N,N/C*%
X164350000Y-93100000D03*
%TD*%
%TO.P,,1*%
%TO.N,N/C*%
X166890000Y-93100000D03*
%TD*%
%TO.P,,1*%
%TO.N,VccBattery*%
X139300000Y-92530000D03*
%TD*%
%TO.P,,1*%
%TO.N,N/C*%
X161810000Y-93100000D03*
%TD*%
%TO.P,,1*%
%TO.N,N/C*%
X164350000Y-90560000D03*
%TD*%
%TO.P,,1*%
%TO.N,N/C*%
X161810000Y-90560000D03*
%TD*%
D11*
%TO.P,U3,18*%
%TO.N,GND*%
X149135000Y-90210000D03*
%TO.P,U3,19*%
X149715000Y-90790000D03*
%TO.P,U3,20*%
X148555000Y-90790000D03*
%TO.P,U3,21*%
X149715000Y-89630000D03*
%TO.P,U3,22*%
X148555000Y-89630000D03*
%TD*%
D10*
%TO.P,,1*%
%TO.N,5v2RPi*%
X136550000Y-84685000D03*
%TD*%
D12*
%TO.P,,1*%
%TO.N,GND*%
X139290000Y-94630000D03*
%TD*%
D10*
%TO.P,,1*%
%TO.N,VccSolar*%
X191260000Y-97500000D03*
%TD*%
D12*
%TO.P,REF\u002A\u002A,1*%
%TO.N,GND*%
X191210000Y-86070000D03*
%TD*%
%TO.P,REF\u002A\u002A,1*%
%TO.N,GND*%
X159270000Y-90560000D03*
%TD*%
D13*
%TO.P,REF\u002A\u002A,1*%
%TO.N,3v_to_ATtiny*%
X159280000Y-93110000D03*
%TD*%
D14*
%TO.N,*%
X146769500Y-90980000D03*
D15*
X171000000Y-102460000D03*
D14*
X184080000Y-78830000D03*
X173150000Y-96050000D03*
X142710000Y-93910000D03*
X179105000Y-91670000D03*
D15*
X146042500Y-96610000D03*
D14*
X184510000Y-102320000D03*
X176580000Y-96590000D03*
D15*
X150304878Y-87884878D03*
D14*
X172745000Y-91520000D03*
X181540000Y-102310000D03*
D15*
X151870000Y-84920000D03*
D14*
X146769500Y-91822027D03*
X175120000Y-96620000D03*
X177835000Y-91640000D03*
D15*
X189400000Y-78310000D03*
D14*
%TO.N,5v2RPi*%
X137540000Y-82090000D03*
D15*
%TO.N,GND*%
X178990000Y-77570000D03*
D14*
X149800000Y-95570000D03*
X170050000Y-101330000D03*
X156690000Y-96000000D03*
X176260000Y-104520000D03*
X154812000Y-89770000D03*
X179030000Y-104460000D03*
D15*
X168840000Y-82870000D03*
D14*
X154849500Y-88290000D03*
X152120000Y-94120000D03*
X145880000Y-84850000D03*
D15*
X153790000Y-77400000D03*
X144210000Y-99540000D03*
D14*
X137940000Y-95890000D03*
D15*
X151910000Y-86740000D03*
X161370000Y-101710000D03*
D14*
X150980000Y-82840000D03*
X183850000Y-87820000D03*
X133220498Y-78770000D03*
X132870000Y-84270000D03*
X143420000Y-77580000D03*
X189150000Y-86050000D03*
D15*
X161360000Y-77600000D03*
D14*
X170685000Y-93140000D03*
D15*
X173910000Y-77610000D03*
D14*
X146659500Y-95470000D03*
X143650000Y-90950000D03*
%TO.N,VccSolar*%
X191160000Y-95710000D03*
%TO.N,VccBattery*%
X138310000Y-91430000D03*
D15*
%TO.N,VccBQ*%
X159190000Y-96140000D03*
X156370000Y-93300000D03*
D14*
%TO.N,3v_to_ATtiny*%
X170070000Y-97320000D03*
%TD*%
D16*
%TO.N,*%
X150990000Y-97980000D02*
X182160000Y-97980000D01*
D17*
X172745000Y-91520000D02*
X168115000Y-86890000D01*
X177835000Y-91640000D02*
X177830000Y-91640000D01*
D16*
X147360000Y-92412527D02*
X147360000Y-95040000D01*
D17*
X164580000Y-87790000D02*
X161810000Y-90560000D01*
X177835000Y-88445000D02*
X177835000Y-91640000D01*
X146042500Y-96610000D02*
X146060000Y-96592500D01*
D16*
X146769500Y-91822027D02*
X147360000Y-92412527D01*
D17*
X178080000Y-92710000D02*
X172040000Y-92710000D01*
X172040000Y-92710000D02*
X168580000Y-89250000D01*
X153850000Y-86900000D02*
X151870000Y-84920000D01*
X151100000Y-102460000D02*
X171000000Y-102460000D01*
D16*
X150840000Y-98520000D02*
X179882500Y-98520000D01*
D17*
X189380000Y-78330000D02*
X189400000Y-78310000D01*
X167300000Y-96050000D02*
X164350000Y-93100000D01*
D16*
X147840000Y-92050500D02*
X147840000Y-94830000D01*
D17*
X168580000Y-89250000D02*
X165660000Y-89250000D01*
D16*
X181540000Y-100177500D02*
X181540000Y-102310000D01*
D17*
X168105000Y-86900000D02*
X153850000Y-86900000D01*
X142710000Y-94070000D02*
X151100000Y-102460000D01*
X146060000Y-96592500D02*
X146060000Y-90180000D01*
D16*
X147840000Y-94830000D02*
X150990000Y-97980000D01*
D17*
X179105000Y-91685000D02*
X178080000Y-92710000D01*
X173150000Y-96050000D02*
X167300000Y-96050000D01*
X179105000Y-91670000D02*
X179105000Y-91685000D01*
X179105000Y-91670000D02*
X179105000Y-91305000D01*
X189380000Y-83790000D02*
X189380000Y-78330000D01*
X184080000Y-78830000D02*
X181650000Y-81260000D01*
X148355122Y-87884878D02*
X150304878Y-87884878D01*
X175120000Y-96620000D02*
X165330000Y-96620000D01*
X172610000Y-92320000D02*
X168080000Y-87790000D01*
X181650000Y-84630000D02*
X177835000Y-88445000D01*
X168115000Y-86890000D02*
X168105000Y-86900000D01*
X142710000Y-93910000D02*
X142710000Y-94070000D01*
D16*
X147360000Y-95040000D02*
X150840000Y-98520000D01*
D17*
X168080000Y-87790000D02*
X164580000Y-87790000D01*
X165330000Y-96620000D02*
X161810000Y-93100000D01*
X164350000Y-90560000D02*
X165660000Y-89250000D01*
X177830000Y-91640000D02*
X177150000Y-92320000D01*
D16*
X146769500Y-90980000D02*
X147840000Y-92050500D01*
D17*
X177835000Y-91640000D02*
X177835000Y-91625000D01*
D16*
X179882500Y-98520000D02*
X181540000Y-100177500D01*
X184510000Y-100330000D02*
X184510000Y-102320000D01*
D17*
X146060000Y-90180000D02*
X148355122Y-87884878D01*
X177150000Y-92320000D02*
X172610000Y-92320000D01*
D16*
X182160000Y-97980000D02*
X184510000Y-100330000D01*
D17*
X181650000Y-81260000D02*
X181650000Y-84630000D01*
X176580000Y-96590000D02*
X189380000Y-83790000D01*
D18*
%TO.N,5v2RPi*%
X137540000Y-83695000D02*
X136550000Y-84685000D01*
X137540000Y-82090000D02*
X137540000Y-83695000D01*
D19*
%TO.N,GND*%
X189150000Y-86050000D02*
X191190000Y-86050000D01*
D16*
X159490000Y-90560000D02*
X160740000Y-91810000D01*
X159270000Y-90560000D02*
X159490000Y-90560000D01*
X149715000Y-90790000D02*
X149135000Y-90210000D01*
D17*
X139290000Y-94630000D02*
X139200000Y-94630000D01*
D16*
X148555000Y-89630000D02*
X149135000Y-90210000D01*
X169355000Y-91810000D02*
X170685000Y-93140000D01*
X160740000Y-91810000D02*
X169355000Y-91810000D01*
D19*
X191190000Y-86050000D02*
X191210000Y-86070000D01*
X139200000Y-94630000D02*
X137940000Y-95890000D01*
D16*
X149135000Y-90210000D02*
X149715000Y-89630000D01*
X149135000Y-90210000D02*
X148555000Y-90790000D01*
D18*
%TO.N,VccSolar*%
X191160000Y-97400000D02*
X191260000Y-97500000D01*
X191160000Y-95710000D02*
X191160000Y-97400000D01*
D19*
%TO.N,VccBattery*%
X138310000Y-91430000D02*
X139300000Y-92420000D01*
D17*
X139300000Y-92420000D02*
X139300000Y-92530000D01*
%TO.N,VccBQ*%
X159190000Y-96120000D02*
X159190000Y-96140000D01*
X156370000Y-93300000D02*
X159190000Y-96120000D01*
D20*
%TO.N,3v_to_ATtiny*%
X170070000Y-97320000D02*
X163490000Y-97320000D01*
X163490000Y-97320000D02*
X159280000Y-93110000D01*
%TD*%
%TA.AperFunction,Conductor*%
%TO.N,GND*%
G36*
X168331126Y-89882205D02*
G01*
X168382910Y-89913459D01*
X171666366Y-93196916D01*
X171666370Y-93196919D01*
X171666373Y-93196922D01*
X171666374Y-93196923D01*
X171666376Y-93196924D01*
X171725631Y-93231135D01*
X171805127Y-93277032D01*
X171882508Y-93297766D01*
X171959889Y-93318500D01*
X171959890Y-93318500D01*
X178160110Y-93318500D01*
X178160111Y-93318500D01*
X178237491Y-93297766D01*
X178314873Y-93277032D01*
X178453627Y-93196922D01*
X179035145Y-92615403D01*
X179097456Y-92581380D01*
X179124239Y-92578500D01*
X179200487Y-92578500D01*
X179387288Y-92538794D01*
X179457268Y-92507636D01*
X179527634Y-92498202D01*
X179591931Y-92528308D01*
X179629745Y-92588396D01*
X179629070Y-92659390D01*
X179597612Y-92711838D01*
X176664856Y-95644595D01*
X176602544Y-95678621D01*
X176575761Y-95681500D01*
X176484513Y-95681500D01*
X176297711Y-95721206D01*
X176123247Y-95798882D01*
X175968746Y-95911134D01*
X175930128Y-95954023D01*
X175869681Y-95991262D01*
X175798698Y-95989909D01*
X175742855Y-95954019D01*
X175731254Y-95941135D01*
X175689961Y-95911134D01*
X175576752Y-95828882D01*
X175402288Y-95751206D01*
X175215487Y-95711500D01*
X175024513Y-95711500D01*
X174837711Y-95751206D01*
X174663247Y-95828882D01*
X174508744Y-95941135D01*
X174482926Y-95969810D01*
X174422480Y-96007050D01*
X174389290Y-96011500D01*
X174172908Y-96011500D01*
X174104787Y-95991498D01*
X174058294Y-95937842D01*
X174047599Y-95898675D01*
X174043542Y-95860072D01*
X173984527Y-95678444D01*
X173889040Y-95513056D01*
X173889038Y-95513054D01*
X173889034Y-95513048D01*
X173761255Y-95371135D01*
X173606752Y-95258882D01*
X173432288Y-95181206D01*
X173245487Y-95141500D01*
X173054513Y-95141500D01*
X172867711Y-95181206D01*
X172693247Y-95258882D01*
X172538744Y-95371135D01*
X172512926Y-95399810D01*
X172452480Y-95437050D01*
X172419290Y-95441500D01*
X167604239Y-95441500D01*
X167536118Y-95421498D01*
X167515144Y-95404595D01*
X166809144Y-94698595D01*
X166775118Y-94636283D01*
X166780183Y-94565468D01*
X166822730Y-94508632D01*
X166889250Y-94483821D01*
X166898239Y-94483500D01*
X167004636Y-94483500D01*
X167004640Y-94483500D01*
X167230793Y-94445762D01*
X167447650Y-94371315D01*
X167649296Y-94262190D01*
X167830231Y-94121363D01*
X167985518Y-93952676D01*
X168110922Y-93760730D01*
X168203023Y-93550761D01*
X168259308Y-93328497D01*
X168278242Y-93100000D01*
X168259308Y-92871503D01*
X168223994Y-92732050D01*
X168203024Y-92649242D01*
X168203021Y-92649235D01*
X168186829Y-92612322D01*
X168110922Y-92439270D01*
X167985518Y-92247324D01*
X167830785Y-92079239D01*
X167830233Y-92078639D01*
X167830232Y-92078638D01*
X167830231Y-92078637D01*
X167649296Y-91937810D01*
X167649294Y-91937808D01*
X167649289Y-91937805D01*
X167645735Y-91935483D01*
X167599646Y-91881479D01*
X167590071Y-91811132D01*
X167620048Y-91746774D01*
X167645735Y-91724517D01*
X167649289Y-91722194D01*
X167649289Y-91722193D01*
X167649296Y-91722190D01*
X167830231Y-91581363D01*
X167985518Y-91412676D01*
X168110922Y-91220730D01*
X168203023Y-91010761D01*
X168259308Y-90788497D01*
X168278242Y-90560000D01*
X168259308Y-90331503D01*
X168251618Y-90301134D01*
X168203024Y-90109242D01*
X168203021Y-90109235D01*
X168178428Y-90053168D01*
X168169381Y-89982750D01*
X168199841Y-89918620D01*
X168260137Y-89881138D01*
X168331126Y-89882205D01*
G37*
%TD.AperFunction*%
%TA.AperFunction,Conductor*%
G36*
X163163225Y-91281377D02*
G01*
X163185478Y-91307057D01*
X163225170Y-91367810D01*
X163254482Y-91412676D01*
X163404431Y-91575565D01*
X163409769Y-91581363D01*
X163590704Y-91722190D01*
X163590706Y-91722191D01*
X163590710Y-91722194D01*
X163594265Y-91724517D01*
X163640354Y-91778521D01*
X163649929Y-91848868D01*
X163619952Y-91913226D01*
X163594265Y-91935483D01*
X163590710Y-91937805D01*
X163409766Y-92078639D01*
X163254481Y-92247324D01*
X163185483Y-92352935D01*
X163131479Y-92399023D01*
X163061131Y-92408598D01*
X162996774Y-92378621D01*
X162974517Y-92352935D01*
X162905518Y-92247324D01*
X162750233Y-92078639D01*
X162750232Y-92078638D01*
X162750231Y-92078637D01*
X162569296Y-91937810D01*
X162569294Y-91937808D01*
X162569289Y-91937805D01*
X162565735Y-91935483D01*
X162519646Y-91881479D01*
X162510071Y-91811132D01*
X162540048Y-91746774D01*
X162565735Y-91724517D01*
X162569289Y-91722194D01*
X162569289Y-91722193D01*
X162569296Y-91722190D01*
X162750231Y-91581363D01*
X162905518Y-91412676D01*
X162974519Y-91307061D01*
X163028520Y-91260976D01*
X163098868Y-91251400D01*
X163163225Y-91281377D01*
G37*
%TD.AperFunction*%
%TA.AperFunction,Conductor*%
G36*
X165703225Y-91281377D02*
G01*
X165725478Y-91307057D01*
X165765170Y-91367810D01*
X165794482Y-91412676D01*
X165944431Y-91575565D01*
X165949769Y-91581363D01*
X166130704Y-91722190D01*
X166130706Y-91722191D01*
X166130710Y-91722194D01*
X166134265Y-91724517D01*
X166180354Y-91778521D01*
X166189929Y-91848868D01*
X166159952Y-91913226D01*
X166134265Y-91935483D01*
X166130710Y-91937805D01*
X165949766Y-92078639D01*
X165794481Y-92247324D01*
X165725483Y-92352935D01*
X165671479Y-92399023D01*
X165601131Y-92408598D01*
X165536774Y-92378621D01*
X165514517Y-92352935D01*
X165445518Y-92247324D01*
X165290233Y-92078639D01*
X165290232Y-92078638D01*
X165290231Y-92078637D01*
X165109296Y-91937810D01*
X165109294Y-91937808D01*
X165109289Y-91937805D01*
X165105735Y-91935483D01*
X165059646Y-91881479D01*
X165050071Y-91811132D01*
X165080048Y-91746774D01*
X165105735Y-91724517D01*
X165109289Y-91722194D01*
X165109289Y-91722193D01*
X165109296Y-91722190D01*
X165290231Y-91581363D01*
X165445518Y-91412676D01*
X165514519Y-91307061D01*
X165568520Y-91260976D01*
X165638868Y-91251400D01*
X165703225Y-91281377D01*
G37*
%TD.AperFunction*%
%TA.AperFunction,Conductor*%
G36*
X160832115Y-91550315D02*
G01*
X160864431Y-91575565D01*
X160869765Y-91581359D01*
X160869769Y-91581363D01*
X161050704Y-91722190D01*
X161050706Y-91722191D01*
X161050710Y-91722194D01*
X161054265Y-91724517D01*
X161100354Y-91778521D01*
X161109929Y-91848868D01*
X161079952Y-91913226D01*
X161054265Y-91935483D01*
X161050710Y-91937805D01*
X160869766Y-92078639D01*
X160714479Y-92247327D01*
X160662147Y-92327428D01*
X160608143Y-92373517D01*
X160537796Y-92383092D01*
X160473438Y-92353115D01*
X160451181Y-92327428D01*
X160395316Y-92241920D01*
X160395315Y-92241919D01*
X160395314Y-92241917D01*
X160300382Y-92138794D01*
X160268962Y-92075129D01*
X160276949Y-92004584D01*
X160321808Y-91949555D01*
X160349052Y-91935401D01*
X160415965Y-91910444D01*
X160532904Y-91822904D01*
X160620444Y-91705965D01*
X160653674Y-91616871D01*
X160696220Y-91560035D01*
X160762741Y-91535224D01*
X160832115Y-91550315D01*
G37*
%TD.AperFunction*%
%TA.AperFunction,Conductor*%
G36*
X188650680Y-78658402D02*
G01*
X188688050Y-78696585D01*
X188752187Y-78798657D01*
X188771500Y-78865694D01*
X188771500Y-83485761D01*
X188751498Y-83553882D01*
X188734595Y-83574856D01*
X180152589Y-92156861D01*
X180090277Y-92190887D01*
X180019462Y-92185822D01*
X179962626Y-92143275D01*
X179937815Y-92076755D01*
X179943660Y-92028835D01*
X179998542Y-91859928D01*
X180018504Y-91670000D01*
X179998542Y-91480072D01*
X179939527Y-91298444D01*
X179844040Y-91133056D01*
X179844038Y-91133054D01*
X179844034Y-91133048D01*
X179716255Y-90991135D01*
X179656910Y-90948019D01*
X179561752Y-90878882D01*
X179561748Y-90878880D01*
X179561745Y-90878878D01*
X179542849Y-90870465D01*
X179505004Y-90844454D01*
X179478634Y-90818084D01*
X179478624Y-90818076D01*
X179339876Y-90737970D01*
X179339873Y-90737969D01*
X179339872Y-90737968D01*
X179339870Y-90737967D01*
X179339869Y-90737967D01*
X179298400Y-90726855D01*
X179185111Y-90696500D01*
X179024889Y-90696500D01*
X178941955Y-90718722D01*
X178870130Y-90737967D01*
X178870123Y-90737970D01*
X178731376Y-90818076D01*
X178731368Y-90818082D01*
X178704994Y-90844456D01*
X178667154Y-90870464D01*
X178648249Y-90878881D01*
X178648248Y-90878882D01*
X178643556Y-90882290D01*
X178576689Y-90906146D01*
X178507538Y-90890063D01*
X178458060Y-90839147D01*
X178443500Y-90780351D01*
X178443500Y-88749239D01*
X178463502Y-88681118D01*
X178480405Y-88660144D01*
X182136916Y-85003633D01*
X182136922Y-85003627D01*
X182217032Y-84864872D01*
X182228173Y-84823294D01*
X182243893Y-84764629D01*
X182250773Y-84738949D01*
X182258500Y-84710111D01*
X182258500Y-81977453D01*
X182278502Y-81909332D01*
X182332158Y-81862839D01*
X182402432Y-81852735D01*
X182447500Y-81868334D01*
X182564006Y-81935599D01*
X182712917Y-81975500D01*
X182712919Y-81975500D01*
X182867081Y-81975500D01*
X182867083Y-81975500D01*
X183015994Y-81935599D01*
X183149505Y-81858516D01*
X183258516Y-81749505D01*
X183335599Y-81615994D01*
X183375500Y-81467083D01*
X183375500Y-81312917D01*
X183335599Y-81164006D01*
X183258516Y-81030495D01*
X183258514Y-81030493D01*
X183258510Y-81030488D01*
X183149511Y-80921489D01*
X183149504Y-80921483D01*
X183101238Y-80893617D01*
X183052245Y-80842234D01*
X183038810Y-80772520D01*
X183065197Y-80706609D01*
X183075127Y-80695420D01*
X183995146Y-79775402D01*
X184057456Y-79741379D01*
X184084239Y-79738500D01*
X184175487Y-79738500D01*
X184362288Y-79698794D01*
X184536752Y-79621118D01*
X184691253Y-79508866D01*
X184715261Y-79482203D01*
X184819032Y-79366953D01*
X184819032Y-79366952D01*
X184819040Y-79366944D01*
X184819045Y-79366934D01*
X184821894Y-79363014D01*
X184878114Y-79319657D01*
X184948850Y-79313577D01*
X184986835Y-79327950D01*
X185104006Y-79395599D01*
X185252917Y-79435500D01*
X185252919Y-79435500D01*
X185407081Y-79435500D01*
X185407083Y-79435500D01*
X185555994Y-79395599D01*
X185636291Y-79349238D01*
X185705286Y-79332501D01*
X185772378Y-79355721D01*
X185816265Y-79411528D01*
X185823014Y-79482203D01*
X185804056Y-79528360D01*
X185722230Y-79650821D01*
X185647566Y-79831076D01*
X185647564Y-79831081D01*
X185609500Y-80022441D01*
X185609500Y-80022444D01*
X185609500Y-80217556D01*
X185647564Y-80408918D01*
X185722230Y-80589178D01*
X185793207Y-80695402D01*
X185804056Y-80711639D01*
X185825271Y-80779392D01*
X185806488Y-80847859D01*
X185753671Y-80895302D01*
X185683588Y-80906659D01*
X185636292Y-80890761D01*
X185561983Y-80847859D01*
X185555994Y-80844401D01*
X185407083Y-80804500D01*
X185252917Y-80804500D01*
X185153643Y-80831100D01*
X185104005Y-80844401D01*
X184970498Y-80921481D01*
X184970488Y-80921489D01*
X184861489Y-81030488D01*
X184861481Y-81030498D01*
X184784401Y-81164005D01*
X184781029Y-81176589D01*
X184758732Y-81259805D01*
X184744500Y-81312918D01*
X184744500Y-81467081D01*
X184744499Y-81467081D01*
X184784401Y-81615994D01*
X184861481Y-81749501D01*
X184861489Y-81749511D01*
X184970488Y-81858510D01*
X184970493Y-81858514D01*
X184970495Y-81858516D01*
X184970496Y-81858517D01*
X184970498Y-81858518D01*
X184987500Y-81868334D01*
X185104006Y-81935599D01*
X185252917Y-81975500D01*
X185252919Y-81975500D01*
X185407081Y-81975500D01*
X185407083Y-81975500D01*
X185555994Y-81935599D01*
X185689505Y-81858516D01*
X185798516Y-81749505D01*
X185875599Y-81615994D01*
X185915500Y-81467083D01*
X185915500Y-81312917D01*
X185875599Y-81164006D01*
X185829239Y-81083708D01*
X185812501Y-81014712D01*
X185835722Y-80947621D01*
X185891529Y-80903734D01*
X185962204Y-80896985D01*
X186008358Y-80915942D01*
X186130822Y-80997770D01*
X186311082Y-81072436D01*
X186502444Y-81110500D01*
X186502445Y-81110500D01*
X186697555Y-81110500D01*
X186697556Y-81110500D01*
X186888918Y-81072436D01*
X187069178Y-80997770D01*
X187191642Y-80915941D01*
X187259391Y-80894728D01*
X187327858Y-80913511D01*
X187375302Y-80966328D01*
X187386659Y-81036410D01*
X187370761Y-81083707D01*
X187324402Y-81164005D01*
X187324401Y-81164006D01*
X187298732Y-81259805D01*
X187284500Y-81312918D01*
X187284500Y-81467081D01*
X187284499Y-81467081D01*
X187324401Y-81615994D01*
X187401481Y-81749501D01*
X187401489Y-81749511D01*
X187510488Y-81858510D01*
X187510493Y-81858514D01*
X187510495Y-81858516D01*
X187510496Y-81858517D01*
X187510498Y-81858518D01*
X187527500Y-81868334D01*
X187644006Y-81935599D01*
X187792917Y-81975500D01*
X187792919Y-81975500D01*
X187947081Y-81975500D01*
X187947083Y-81975500D01*
X188095994Y-81935599D01*
X188229505Y-81858516D01*
X188338516Y-81749505D01*
X188415599Y-81615994D01*
X188455500Y-81467083D01*
X188455500Y-81312917D01*
X188415599Y-81164006D01*
X188338516Y-81030495D01*
X188338514Y-81030493D01*
X188338510Y-81030488D01*
X188229511Y-80921489D01*
X188229501Y-80921481D01*
X188095994Y-80844401D01*
X188087907Y-80842234D01*
X187947083Y-80804500D01*
X187792917Y-80804500D01*
X187652093Y-80842234D01*
X187644006Y-80844401D01*
X187563707Y-80890761D01*
X187494711Y-80907498D01*
X187427620Y-80884277D01*
X187383733Y-80828469D01*
X187376985Y-80757794D01*
X187395941Y-80711643D01*
X187477770Y-80589178D01*
X187552436Y-80408918D01*
X187590500Y-80217556D01*
X187590500Y-80022444D01*
X187552436Y-79831082D01*
X187477770Y-79650822D01*
X187395942Y-79528358D01*
X187374728Y-79460607D01*
X187393511Y-79392140D01*
X187446328Y-79344697D01*
X187516410Y-79333340D01*
X187563708Y-79349239D01*
X187587567Y-79363014D01*
X187644006Y-79395599D01*
X187792917Y-79435500D01*
X187792919Y-79435500D01*
X187947081Y-79435500D01*
X187947083Y-79435500D01*
X188095994Y-79395599D01*
X188229505Y-79318516D01*
X188338516Y-79209505D01*
X188415599Y-79075994D01*
X188455500Y-78927083D01*
X188455500Y-78772917D01*
X188455500Y-78764658D01*
X188458855Y-78764658D01*
X188467349Y-78709985D01*
X188514447Y-78656860D01*
X188582790Y-78637630D01*
X188650680Y-78658402D01*
G37*
%TD.AperFunction*%
%TA.AperFunction,Conductor*%
G36*
X193413301Y-76490673D02*
G01*
X193712752Y-76506366D01*
X193725868Y-76507744D01*
X194018793Y-76554139D01*
X194031693Y-76556881D01*
X194318162Y-76633640D01*
X194330703Y-76637715D01*
X194607576Y-76743997D01*
X194619608Y-76749353D01*
X194883873Y-76884003D01*
X194895289Y-76890595D01*
X195144017Y-77052121D01*
X195154686Y-77059873D01*
X195385160Y-77246507D01*
X195394961Y-77255332D01*
X195604667Y-77465038D01*
X195613492Y-77474839D01*
X195800126Y-77705313D01*
X195807878Y-77715982D01*
X195969404Y-77964710D01*
X195975999Y-77976132D01*
X196110642Y-78240383D01*
X196116006Y-78252432D01*
X196222283Y-78529294D01*
X196226359Y-78541837D01*
X196303118Y-78828306D01*
X196305860Y-78841206D01*
X196352255Y-79134131D01*
X196353633Y-79147247D01*
X196369327Y-79446697D01*
X196369500Y-79453292D01*
X196369500Y-103446707D01*
X196369327Y-103453302D01*
X196353633Y-103752752D01*
X196352255Y-103765868D01*
X196305860Y-104058793D01*
X196303118Y-104071693D01*
X196226359Y-104358162D01*
X196222283Y-104370705D01*
X196116006Y-104647567D01*
X196110642Y-104659616D01*
X195975999Y-104923867D01*
X195969404Y-104935289D01*
X195807878Y-105184017D01*
X195800126Y-105194686D01*
X195613492Y-105425160D01*
X195604667Y-105434961D01*
X195394961Y-105644667D01*
X195385160Y-105653492D01*
X195154686Y-105840126D01*
X195144017Y-105847878D01*
X194895289Y-106009404D01*
X194883867Y-106015999D01*
X194619616Y-106150642D01*
X194607567Y-106156006D01*
X194330705Y-106262283D01*
X194318162Y-106266359D01*
X194031693Y-106343118D01*
X194018793Y-106345860D01*
X193725868Y-106392255D01*
X193712752Y-106393633D01*
X193428048Y-106408554D01*
X193413300Y-106409327D01*
X193406707Y-106409500D01*
X134413293Y-106409500D01*
X134406699Y-106409327D01*
X134391068Y-106408507D01*
X134107247Y-106393633D01*
X134094131Y-106392255D01*
X133801206Y-106345860D01*
X133788306Y-106343118D01*
X133501837Y-106266359D01*
X133489294Y-106262283D01*
X133212432Y-106156006D01*
X133200383Y-106150642D01*
X132936132Y-106015999D01*
X132924710Y-106009404D01*
X132675982Y-105847878D01*
X132665313Y-105840126D01*
X132434839Y-105653492D01*
X132425038Y-105644667D01*
X132215332Y-105434961D01*
X132206507Y-105425160D01*
X132019873Y-105194686D01*
X132012121Y-105184017D01*
X131850595Y-104935289D01*
X131844000Y-104923867D01*
X131709353Y-104659608D01*
X131703997Y-104647576D01*
X131597715Y-104370703D01*
X131593640Y-104358162D01*
X131516881Y-104071693D01*
X131514139Y-104058793D01*
X131467744Y-103765868D01*
X131466366Y-103752751D01*
X131450673Y-103453301D01*
X131450500Y-103446707D01*
X131450500Y-103066124D01*
X133434500Y-103066124D01*
X133464132Y-103253215D01*
X133470832Y-103295518D01*
X133521026Y-103450000D01*
X133542600Y-103516396D01*
X133648039Y-103723331D01*
X133784551Y-103911224D01*
X133784553Y-103911226D01*
X133784555Y-103911229D01*
X133948770Y-104075444D01*
X133948773Y-104075446D01*
X133948776Y-104075449D01*
X134136669Y-104211961D01*
X134343604Y-104317400D01*
X134564486Y-104389169D01*
X134793876Y-104425500D01*
X134793878Y-104425500D01*
X135026122Y-104425500D01*
X135026124Y-104425500D01*
X135255514Y-104389169D01*
X135476396Y-104317400D01*
X135683331Y-104211961D01*
X135871224Y-104075449D01*
X136035449Y-103911224D01*
X136171961Y-103723331D01*
X136277400Y-103516396D01*
X136349169Y-103295514D01*
X136385500Y-103066124D01*
X136385500Y-102833876D01*
X136349169Y-102604486D01*
X136277400Y-102383604D01*
X136171961Y-102176669D01*
X136035449Y-101988776D01*
X136035446Y-101988773D01*
X136035444Y-101988770D01*
X135871229Y-101824555D01*
X135871226Y-101824553D01*
X135871224Y-101824551D01*
X135729786Y-101721791D01*
X135683334Y-101688041D01*
X135683333Y-101688040D01*
X135683331Y-101688039D01*
X135476396Y-101582600D01*
X135476393Y-101582599D01*
X135476391Y-101582598D01*
X135255518Y-101510832D01*
X135255516Y-101510831D01*
X135255514Y-101510831D01*
X135026124Y-101474500D01*
X134793876Y-101474500D01*
X134564486Y-101510831D01*
X134564484Y-101510831D01*
X134564481Y-101510832D01*
X134343608Y-101582598D01*
X134343602Y-101582601D01*
X134136665Y-101688041D01*
X133948773Y-101824553D01*
X133948770Y-101824555D01*
X133784555Y-101988770D01*
X133784553Y-101988773D01*
X133648041Y-102176665D01*
X133542601Y-102383602D01*
X133542598Y-102383608D01*
X133470832Y-102604481D01*
X133470831Y-102604484D01*
X133470831Y-102604486D01*
X133434500Y-102833876D01*
X133434500Y-103066124D01*
X131450500Y-103066124D01*
X131450500Y-94884000D01*
X137882000Y-94884000D01*
X137882000Y-95578597D01*
X137888505Y-95639093D01*
X137939555Y-95775964D01*
X137939555Y-95775965D01*
X138027095Y-95892904D01*
X138144034Y-95980444D01*
X138280906Y-96031494D01*
X138341402Y-96037999D01*
X138341415Y-96038000D01*
X139036000Y-96038000D01*
X139036000Y-94884000D01*
X139544000Y-94884000D01*
X139544000Y-96038000D01*
X140238585Y-96038000D01*
X140238597Y-96037999D01*
X140299093Y-96031494D01*
X140435964Y-95980444D01*
X140435965Y-95980444D01*
X140552904Y-95892904D01*
X140640444Y-95775965D01*
X140640444Y-95775964D01*
X140691494Y-95639093D01*
X140697999Y-95578597D01*
X140698000Y-95578585D01*
X140698000Y-94884000D01*
X139544000Y-94884000D01*
X139036000Y-94884000D01*
X137882000Y-94884000D01*
X131450500Y-94884000D01*
X131450500Y-91430000D01*
X137396496Y-91430000D01*
X137416457Y-91619927D01*
X137444086Y-91704957D01*
X137475473Y-91801556D01*
X137475476Y-91801561D01*
X137570958Y-91966941D01*
X137570965Y-91966951D01*
X137698744Y-92108864D01*
X137698747Y-92108866D01*
X137853248Y-92221118D01*
X137853255Y-92221121D01*
X137858969Y-92224421D01*
X137858271Y-92225629D01*
X137906748Y-92266831D01*
X137927399Y-92334758D01*
X137926975Y-92346356D01*
X137911758Y-92530000D01*
X137928500Y-92732049D01*
X137930693Y-92758504D01*
X137986975Y-92980757D01*
X137986978Y-92980764D01*
X138079077Y-93190730D01*
X138080252Y-93192900D01*
X138080462Y-93193887D01*
X138081171Y-93195502D01*
X138080838Y-93195647D01*
X138095080Y-93262331D01*
X138070016Y-93328757D01*
X138044948Y-93353731D01*
X138027095Y-93367095D01*
X137939555Y-93484034D01*
X137939555Y-93484035D01*
X137888505Y-93620906D01*
X137882000Y-93681402D01*
X137882000Y-94376000D01*
X140698000Y-94376000D01*
X140698000Y-93910000D01*
X141796496Y-93910000D01*
X141816457Y-94099927D01*
X141831167Y-94145198D01*
X141875473Y-94281556D01*
X141875476Y-94281561D01*
X141970958Y-94446941D01*
X141970965Y-94446951D01*
X142098744Y-94588864D01*
X142098747Y-94588866D01*
X142253248Y-94701118D01*
X142427712Y-94778794D01*
X142556975Y-94806269D01*
X142619447Y-94839997D01*
X142619872Y-94840421D01*
X150726366Y-102946916D01*
X150726371Y-102946920D01*
X150726373Y-102946922D01*
X150816343Y-102998866D01*
X150865128Y-103027032D01*
X151019889Y-103068500D01*
X151019890Y-103068500D01*
X151180110Y-103068500D01*
X170414006Y-103068500D01*
X170482127Y-103088502D01*
X170492570Y-103095992D01*
X170492725Y-103096116D01*
X170646981Y-103193041D01*
X170646982Y-103193041D01*
X170646985Y-103193043D01*
X170818953Y-103253217D01*
X171000000Y-103273616D01*
X171181047Y-103253217D01*
X171353015Y-103193043D01*
X171507281Y-103096111D01*
X171636111Y-102967281D01*
X171733043Y-102813015D01*
X171793217Y-102641047D01*
X171813616Y-102460000D01*
X171793217Y-102278953D01*
X171733043Y-102106985D01*
X171733041Y-102106982D01*
X171733041Y-102106981D01*
X171636112Y-101952720D01*
X171636111Y-101952718D01*
X171507281Y-101823888D01*
X171507279Y-101823887D01*
X171353018Y-101726958D01*
X171353015Y-101726957D01*
X171181050Y-101666784D01*
X171181049Y-101666783D01*
X171181047Y-101666783D01*
X171000000Y-101646384D01*
X170818953Y-101666783D01*
X170818950Y-101666783D01*
X170818949Y-101666784D01*
X170646984Y-101726957D01*
X170646981Y-101726958D01*
X170492725Y-101823883D01*
X170492570Y-101824008D01*
X170492450Y-101824056D01*
X170486727Y-101827653D01*
X170486097Y-101826650D01*
X170426841Y-101850845D01*
X170414006Y-101851500D01*
X151404239Y-101851500D01*
X151336118Y-101831498D01*
X151315144Y-101814595D01*
X146726208Y-97225659D01*
X146692182Y-97163347D01*
X146697247Y-97092532D01*
X146708612Y-97069533D01*
X146775543Y-96963015D01*
X146835717Y-96791047D01*
X146856116Y-96610000D01*
X146835717Y-96428953D01*
X146775543Y-96256985D01*
X146775541Y-96256982D01*
X146775541Y-96256981D01*
X146687813Y-96117362D01*
X146668500Y-96050326D01*
X146668500Y-95548594D01*
X146688502Y-95480473D01*
X146742158Y-95433980D01*
X146812432Y-95423876D01*
X146877012Y-95453370D01*
X146883595Y-95459499D01*
X150436167Y-99012071D01*
X150539925Y-99081400D01*
X150655215Y-99129155D01*
X150777606Y-99153500D01*
X150902394Y-99153500D01*
X179567906Y-99153500D01*
X179636027Y-99173502D01*
X179657001Y-99190405D01*
X180869595Y-100402999D01*
X180903621Y-100465311D01*
X180906500Y-100492094D01*
X180906500Y-101607474D01*
X180886498Y-101675595D01*
X180874137Y-101691784D01*
X180800957Y-101773059D01*
X180705476Y-101938438D01*
X180705473Y-101938444D01*
X180690999Y-101982986D01*
X180646457Y-102120072D01*
X180626496Y-102310000D01*
X180646457Y-102499927D01*
X180649707Y-102509928D01*
X180705473Y-102681556D01*
X180705476Y-102681561D01*
X180800958Y-102846941D01*
X180800965Y-102846951D01*
X180928744Y-102988864D01*
X180928747Y-102988866D01*
X181083248Y-103101118D01*
X181257712Y-103178794D01*
X181444513Y-103218500D01*
X181635487Y-103218500D01*
X181822288Y-103178794D01*
X181996752Y-103101118D01*
X182151253Y-102988866D01*
X182279040Y-102846944D01*
X182374527Y-102681556D01*
X182433542Y-102499928D01*
X182453504Y-102310000D01*
X182433542Y-102120072D01*
X182374527Y-101938444D01*
X182279040Y-101773056D01*
X182205863Y-101691784D01*
X182175146Y-101627776D01*
X182173500Y-101607474D01*
X182173500Y-100115107D01*
X182173499Y-100115103D01*
X182149155Y-99992715D01*
X182101400Y-99877425D01*
X182032071Y-99773667D01*
X181943833Y-99685429D01*
X181086999Y-98828595D01*
X181052973Y-98766283D01*
X181058038Y-98695468D01*
X181100585Y-98638632D01*
X181167105Y-98613821D01*
X181176094Y-98613500D01*
X181845406Y-98613500D01*
X181913527Y-98633502D01*
X181934501Y-98650405D01*
X183839595Y-100555499D01*
X183873621Y-100617811D01*
X183876500Y-100644594D01*
X183876500Y-101617474D01*
X183856498Y-101685595D01*
X183844137Y-101701784D01*
X183770957Y-101783059D01*
X183675476Y-101948438D01*
X183675473Y-101948444D01*
X183674084Y-101952719D01*
X183616457Y-102130072D01*
X183596496Y-102320000D01*
X183616457Y-102509927D01*
X183646526Y-102602470D01*
X183675473Y-102691556D01*
X183675476Y-102691561D01*
X183770958Y-102856941D01*
X183770965Y-102856951D01*
X183898744Y-102998864D01*
X183898747Y-102998866D01*
X184053248Y-103111118D01*
X184227712Y-103188794D01*
X184414513Y-103228500D01*
X184605487Y-103228500D01*
X184792288Y-103188794D01*
X184966752Y-103111118D01*
X185028681Y-103066124D01*
X191434500Y-103066124D01*
X191464132Y-103253215D01*
X191470832Y-103295518D01*
X191521026Y-103450000D01*
X191542600Y-103516396D01*
X191648039Y-103723331D01*
X191784551Y-103911224D01*
X191784553Y-103911226D01*
X191784555Y-103911229D01*
X191948770Y-104075444D01*
X191948773Y-104075446D01*
X191948776Y-104075449D01*
X192136669Y-104211961D01*
X192343604Y-104317400D01*
X192564486Y-104389169D01*
X192793876Y-104425500D01*
X192793878Y-104425500D01*
X193026122Y-104425500D01*
X193026124Y-104425500D01*
X193255514Y-104389169D01*
X193476396Y-104317400D01*
X193683331Y-104211961D01*
X193871224Y-104075449D01*
X194035449Y-103911224D01*
X194171961Y-103723331D01*
X194277400Y-103516396D01*
X194349169Y-103295514D01*
X194385500Y-103066124D01*
X194385500Y-102833876D01*
X194349169Y-102604486D01*
X194277400Y-102383604D01*
X194171961Y-102176669D01*
X194035449Y-101988776D01*
X194035446Y-101988773D01*
X194035444Y-101988770D01*
X193871229Y-101824555D01*
X193871226Y-101824553D01*
X193871224Y-101824551D01*
X193729786Y-101721791D01*
X193683334Y-101688041D01*
X193683333Y-101688040D01*
X193683331Y-101688039D01*
X193476396Y-101582600D01*
X193476393Y-101582599D01*
X193476391Y-101582598D01*
X193255518Y-101510832D01*
X193255516Y-101510831D01*
X193255514Y-101510831D01*
X193026124Y-101474500D01*
X192793876Y-101474500D01*
X192564486Y-101510831D01*
X192564484Y-101510831D01*
X192564481Y-101510832D01*
X192343608Y-101582598D01*
X192343602Y-101582601D01*
X192136665Y-101688041D01*
X191948773Y-101824553D01*
X191948770Y-101824555D01*
X191784555Y-101988770D01*
X191784553Y-101988773D01*
X191648041Y-102176665D01*
X191542601Y-102383602D01*
X191542598Y-102383608D01*
X191470832Y-102604481D01*
X191470831Y-102604484D01*
X191470831Y-102604486D01*
X191434500Y-102833876D01*
X191434500Y-103066124D01*
X185028681Y-103066124D01*
X185121253Y-102998866D01*
X185249040Y-102856944D01*
X185344527Y-102691556D01*
X185403542Y-102509928D01*
X185423504Y-102320000D01*
X185403542Y-102130072D01*
X185344527Y-101948444D01*
X185249040Y-101783056D01*
X185175863Y-101701784D01*
X185145146Y-101637776D01*
X185143500Y-101617474D01*
X185143500Y-100267607D01*
X185143499Y-100267603D01*
X185119155Y-100145215D01*
X185071400Y-100029925D01*
X185002071Y-99926167D01*
X184913833Y-99837929D01*
X182575904Y-97500000D01*
X189871758Y-97500000D01*
X189890693Y-97728504D01*
X189946975Y-97950757D01*
X189946978Y-97950764D01*
X190039073Y-98160720D01*
X190039075Y-98160724D01*
X190039078Y-98160730D01*
X190164482Y-98352676D01*
X190319769Y-98521363D01*
X190500704Y-98662190D01*
X190702350Y-98771315D01*
X190702351Y-98771315D01*
X190702352Y-98771316D01*
X190816208Y-98810402D01*
X190919207Y-98845762D01*
X191145360Y-98883500D01*
X191145364Y-98883500D01*
X191374636Y-98883500D01*
X191374640Y-98883500D01*
X191600793Y-98845762D01*
X191817650Y-98771315D01*
X192019296Y-98662190D01*
X192200231Y-98521363D01*
X192355518Y-98352676D01*
X192480922Y-98160730D01*
X192573023Y-97950761D01*
X192629308Y-97728497D01*
X192648242Y-97500000D01*
X192629308Y-97271503D01*
X192598767Y-97150899D01*
X192573024Y-97049242D01*
X192573021Y-97049235D01*
X192480926Y-96839279D01*
X192480925Y-96839278D01*
X192480922Y-96839270D01*
X192355518Y-96647324D01*
X192200231Y-96478637D01*
X192019296Y-96337810D01*
X192019295Y-96337809D01*
X192017109Y-96336108D01*
X191975638Y-96278483D01*
X191968500Y-96236676D01*
X191968500Y-96160397D01*
X191985381Y-96097397D01*
X191988146Y-96092608D01*
X191994527Y-96081556D01*
X192053542Y-95899928D01*
X192073504Y-95710000D01*
X192053542Y-95520072D01*
X191994527Y-95338444D01*
X191899040Y-95173056D01*
X191899038Y-95173054D01*
X191899034Y-95173048D01*
X191771255Y-95031135D01*
X191616752Y-94918882D01*
X191442288Y-94841206D01*
X191255487Y-94801500D01*
X191064513Y-94801500D01*
X190877711Y-94841206D01*
X190703247Y-94918882D01*
X190548744Y-95031135D01*
X190420965Y-95173048D01*
X190420958Y-95173058D01*
X190325476Y-95338438D01*
X190325473Y-95338444D01*
X190322763Y-95346784D01*
X190266457Y-95520072D01*
X190246496Y-95710000D01*
X190266457Y-95899927D01*
X190325472Y-96081554D01*
X190325475Y-96081559D01*
X190334619Y-96097397D01*
X190351500Y-96160397D01*
X190351500Y-96395002D01*
X190331498Y-96463123D01*
X190318201Y-96480339D01*
X190164481Y-96647323D01*
X190039080Y-96839267D01*
X190039073Y-96839279D01*
X189946978Y-97049235D01*
X189946975Y-97049242D01*
X189890693Y-97271495D01*
X189890692Y-97271501D01*
X189890692Y-97271503D01*
X189872758Y-97487929D01*
X189871758Y-97500000D01*
X182575904Y-97500000D01*
X182563833Y-97487929D01*
X182460075Y-97418600D01*
X182344785Y-97370845D01*
X182271086Y-97356185D01*
X182222396Y-97346500D01*
X182222394Y-97346500D01*
X177404352Y-97346500D01*
X177336231Y-97326498D01*
X177289738Y-97272842D01*
X177279634Y-97202568D01*
X177309128Y-97137988D01*
X177310714Y-97136191D01*
X177315023Y-97131405D01*
X177319040Y-97126944D01*
X177414527Y-96961556D01*
X177473542Y-96779928D01*
X177493504Y-96590000D01*
X177493504Y-96589998D01*
X177493504Y-96589234D01*
X177493629Y-96588807D01*
X177494194Y-96583433D01*
X177495176Y-96583536D01*
X177513506Y-96521113D01*
X177530409Y-96500139D01*
X182162004Y-91868544D01*
X185699500Y-91868544D01*
X185737949Y-92061835D01*
X185737950Y-92061838D01*
X185771682Y-92143275D01*
X185813368Y-92243914D01*
X185922861Y-92407782D01*
X186062218Y-92547139D01*
X186226086Y-92656632D01*
X186408165Y-92732051D01*
X186601459Y-92770500D01*
X186798541Y-92770500D01*
X186991835Y-92732051D01*
X187173914Y-92656632D01*
X187337782Y-92547139D01*
X187477139Y-92407782D01*
X187586632Y-92243914D01*
X187662051Y-92061835D01*
X187700500Y-91868541D01*
X187700500Y-91863618D01*
X190249500Y-91863618D01*
X190277540Y-92004584D01*
X190286027Y-92047251D01*
X190357678Y-92220231D01*
X190461698Y-92375908D01*
X190594092Y-92508302D01*
X190749769Y-92612322D01*
X190922749Y-92683973D01*
X191106384Y-92720500D01*
X191106385Y-92720500D01*
X191293615Y-92720500D01*
X191293616Y-92720500D01*
X191477251Y-92683973D01*
X191650231Y-92612322D01*
X191805908Y-92508302D01*
X191938302Y-92375908D01*
X192042322Y-92220231D01*
X192113973Y-92047251D01*
X192150500Y-91863616D01*
X192150500Y-91676384D01*
X192113973Y-91492749D01*
X192042322Y-91319769D01*
X191938302Y-91164092D01*
X191805908Y-91031698D01*
X191650231Y-90927678D01*
X191477251Y-90856027D01*
X191293618Y-90819500D01*
X191293616Y-90819500D01*
X191106384Y-90819500D01*
X191106381Y-90819500D01*
X190922748Y-90856027D01*
X190922743Y-90856029D01*
X190749769Y-90927678D01*
X190594096Y-91031695D01*
X190594089Y-91031700D01*
X190461700Y-91164089D01*
X190461695Y-91164096D01*
X190357678Y-91319769D01*
X190286029Y-91492743D01*
X190286027Y-91492748D01*
X190249500Y-91676381D01*
X190249500Y-91863618D01*
X187700500Y-91863618D01*
X187700500Y-91671459D01*
X187662051Y-91478165D01*
X187586632Y-91296086D01*
X187477139Y-91132218D01*
X187337782Y-90992861D01*
X187173914Y-90883368D01*
X187119835Y-90860968D01*
X186991838Y-90807950D01*
X186991835Y-90807949D01*
X186798544Y-90769500D01*
X186798541Y-90769500D01*
X186601459Y-90769500D01*
X186601455Y-90769500D01*
X186408164Y-90807949D01*
X186408161Y-90807950D01*
X186226085Y-90883368D01*
X186062222Y-90992858D01*
X186062215Y-90992863D01*
X185922863Y-91132215D01*
X185922858Y-91132222D01*
X185813368Y-91296085D01*
X185737950Y-91478161D01*
X185737949Y-91478164D01*
X185699500Y-91671455D01*
X185699500Y-91868544D01*
X182162004Y-91868544D01*
X187706549Y-86324000D01*
X189802000Y-86324000D01*
X189802000Y-87018597D01*
X189808505Y-87079093D01*
X189859555Y-87215964D01*
X189859555Y-87215965D01*
X189947095Y-87332904D01*
X190064034Y-87420444D01*
X190200906Y-87471494D01*
X190261402Y-87477999D01*
X190261415Y-87478000D01*
X190956000Y-87478000D01*
X190956000Y-86324000D01*
X191464000Y-86324000D01*
X191464000Y-87478000D01*
X192158585Y-87478000D01*
X192158597Y-87477999D01*
X192219093Y-87471494D01*
X192355964Y-87420444D01*
X192355965Y-87420444D01*
X192472904Y-87332904D01*
X192560444Y-87215965D01*
X192560444Y-87215964D01*
X192611494Y-87079093D01*
X192617999Y-87018597D01*
X192618000Y-87018585D01*
X192618000Y-86324000D01*
X191464000Y-86324000D01*
X190956000Y-86324000D01*
X189802000Y-86324000D01*
X187706549Y-86324000D01*
X188214549Y-85816000D01*
X189802000Y-85816000D01*
X190956000Y-85816000D01*
X190956000Y-84662000D01*
X191464000Y-84662000D01*
X191464000Y-85816000D01*
X192618000Y-85816000D01*
X192618000Y-85121414D01*
X192617999Y-85121402D01*
X192611494Y-85060906D01*
X192560444Y-84924035D01*
X192560444Y-84924034D01*
X192472904Y-84807095D01*
X192355965Y-84719555D01*
X192219093Y-84668505D01*
X192158597Y-84662000D01*
X191464000Y-84662000D01*
X190956000Y-84662000D01*
X190261402Y-84662000D01*
X190200906Y-84668505D01*
X190064035Y-84719555D01*
X190064034Y-84719555D01*
X189947095Y-84807095D01*
X189859555Y-84924034D01*
X189859555Y-84924035D01*
X189808505Y-85060906D01*
X189802000Y-85121402D01*
X189802000Y-85816000D01*
X188214549Y-85816000D01*
X189866916Y-84163633D01*
X189866916Y-84163632D01*
X189866922Y-84163627D01*
X189947032Y-84024872D01*
X189988500Y-83870110D01*
X189988500Y-83709889D01*
X189988500Y-78917082D01*
X190008502Y-78848961D01*
X190025402Y-78827989D01*
X190036111Y-78817281D01*
X190047814Y-78798657D01*
X190133041Y-78663018D01*
X190133040Y-78663018D01*
X190133043Y-78663015D01*
X190193217Y-78491047D01*
X190213616Y-78310000D01*
X190193217Y-78128953D01*
X190133043Y-77956985D01*
X190133041Y-77956982D01*
X190133041Y-77956981D01*
X190036112Y-77802720D01*
X190036111Y-77802718D01*
X189907281Y-77673888D01*
X189907279Y-77673887D01*
X189753018Y-77576958D01*
X189753015Y-77576957D01*
X189581050Y-77516784D01*
X189581049Y-77516783D01*
X189581047Y-77516783D01*
X189400000Y-77496384D01*
X189218953Y-77516783D01*
X189218950Y-77516783D01*
X189218949Y-77516784D01*
X189046984Y-77576957D01*
X189046981Y-77576958D01*
X188892720Y-77673887D01*
X188892718Y-77673888D01*
X188763888Y-77802718D01*
X188763887Y-77802720D01*
X188666958Y-77956981D01*
X188666957Y-77956984D01*
X188647289Y-78013194D01*
X188606783Y-78128953D01*
X188592870Y-78252432D01*
X188586384Y-78310000D01*
X188604141Y-78467598D01*
X188591891Y-78537530D01*
X188543779Y-78589738D01*
X188475078Y-78607646D01*
X188407601Y-78585569D01*
X188369814Y-78544705D01*
X188338518Y-78490498D01*
X188338510Y-78490488D01*
X188229511Y-78381489D01*
X188229501Y-78381481D01*
X188095994Y-78304401D01*
X187947083Y-78264500D01*
X187792917Y-78264500D01*
X187693643Y-78291100D01*
X187644005Y-78304401D01*
X187510498Y-78381481D01*
X187510488Y-78381489D01*
X187401489Y-78490488D01*
X187401481Y-78490498D01*
X187324401Y-78624005D01*
X187284500Y-78772918D01*
X187284500Y-78927081D01*
X187284499Y-78927081D01*
X187284500Y-78927083D01*
X187324401Y-79075994D01*
X187354722Y-79128511D01*
X187370761Y-79156292D01*
X187387498Y-79225287D01*
X187364277Y-79292379D01*
X187308470Y-79336266D01*
X187237795Y-79343014D01*
X187191639Y-79324056D01*
X187069178Y-79242230D01*
X186888918Y-79167564D01*
X186697558Y-79129500D01*
X186697556Y-79129500D01*
X186502444Y-79129500D01*
X186502441Y-79129500D01*
X186311081Y-79167564D01*
X186311076Y-79167566D01*
X186130821Y-79242230D01*
X186008360Y-79324056D01*
X185940607Y-79345271D01*
X185872140Y-79326488D01*
X185824697Y-79273670D01*
X185813340Y-79203588D01*
X185829239Y-79156291D01*
X185834461Y-79147247D01*
X185875599Y-79075994D01*
X185915500Y-78927083D01*
X185915500Y-78772917D01*
X185875599Y-78624006D01*
X185820917Y-78529294D01*
X185798518Y-78490498D01*
X185798510Y-78490488D01*
X185689511Y-78381489D01*
X185689501Y-78381481D01*
X185555994Y-78304401D01*
X185407083Y-78264500D01*
X185252917Y-78264500D01*
X185104006Y-78304401D01*
X185004312Y-78361959D01*
X184935317Y-78378696D01*
X184868225Y-78355475D01*
X184832194Y-78315840D01*
X184832185Y-78315824D01*
X184819040Y-78293056D01*
X184819038Y-78293054D01*
X184819034Y-78293048D01*
X184691255Y-78151135D01*
X184536752Y-78038882D01*
X184362288Y-77961206D01*
X184175487Y-77921500D01*
X183984513Y-77921500D01*
X183797711Y-77961206D01*
X183623247Y-78038882D01*
X183468744Y-78151135D01*
X183340965Y-78293048D01*
X183340958Y-78293058D01*
X183317804Y-78333162D01*
X183266421Y-78382154D01*
X183196707Y-78395589D01*
X183145686Y-78379279D01*
X183015994Y-78304401D01*
X182867083Y-78264500D01*
X182712917Y-78264500D01*
X182613643Y-78291100D01*
X182564005Y-78304401D01*
X182430498Y-78381481D01*
X182430488Y-78381489D01*
X182321489Y-78490488D01*
X182321481Y-78490498D01*
X182244401Y-78624005D01*
X182204500Y-78772918D01*
X182204500Y-78927081D01*
X182204499Y-78927081D01*
X182244401Y-79075994D01*
X182321481Y-79209501D01*
X182321489Y-79209511D01*
X182430488Y-79318510D01*
X182430492Y-79318513D01*
X182430495Y-79318516D01*
X182478759Y-79346381D01*
X182527752Y-79397763D01*
X182541189Y-79467476D01*
X182514802Y-79533387D01*
X182504854Y-79544595D01*
X181163083Y-80886366D01*
X181163075Y-80886376D01*
X181082967Y-81025127D01*
X181082968Y-81025128D01*
X181042384Y-81176589D01*
X181005432Y-81237212D01*
X180941571Y-81268233D01*
X180871077Y-81259805D01*
X180816330Y-81214602D01*
X180798970Y-81176589D01*
X180795599Y-81164006D01*
X180718516Y-81030495D01*
X180718514Y-81030493D01*
X180718510Y-81030488D01*
X180609511Y-80921489D01*
X180609501Y-80921481D01*
X180475994Y-80844401D01*
X180467907Y-80842234D01*
X180327083Y-80804500D01*
X180172917Y-80804500D01*
X180073643Y-80831100D01*
X180024005Y-80844401D01*
X179890498Y-80921481D01*
X179890488Y-80921489D01*
X179781489Y-81030488D01*
X179781481Y-81030498D01*
X179704401Y-81164005D01*
X179701029Y-81176589D01*
X179678732Y-81259805D01*
X179664500Y-81312918D01*
X179664500Y-81467081D01*
X179664499Y-81467081D01*
X179704401Y-81615994D01*
X179781481Y-81749501D01*
X179781489Y-81749511D01*
X179890488Y-81858510D01*
X179890493Y-81858514D01*
X179890495Y-81858516D01*
X179890496Y-81858517D01*
X179890498Y-81858518D01*
X179907500Y-81868334D01*
X180024006Y-81935599D01*
X180172917Y-81975500D01*
X180172919Y-81975500D01*
X180327081Y-81975500D01*
X180327083Y-81975500D01*
X180475994Y-81935599D01*
X180609505Y-81858516D01*
X180718516Y-81749505D01*
X180795599Y-81615994D01*
X180795599Y-81615991D01*
X180795601Y-81615989D01*
X180798761Y-81608362D01*
X180801791Y-81609617D01*
X180830727Y-81562126D01*
X180894581Y-81531092D01*
X180965078Y-81539507D01*
X181019833Y-81584699D01*
X181041464Y-81652320D01*
X181041500Y-81655343D01*
X181041500Y-84325760D01*
X181021498Y-84393881D01*
X181004595Y-84414855D01*
X177348083Y-88071366D01*
X177348075Y-88071376D01*
X177267967Y-88210127D01*
X177267968Y-88210128D01*
X177226500Y-88364890D01*
X177226500Y-90909709D01*
X177206498Y-90977830D01*
X177194137Y-90994019D01*
X177095961Y-91103054D01*
X177095958Y-91103058D01*
X177000476Y-91268438D01*
X177000473Y-91268444D01*
X176985999Y-91312986D01*
X176941457Y-91450072D01*
X176925840Y-91598670D01*
X176898827Y-91664327D01*
X176840606Y-91704957D01*
X176800530Y-91711500D01*
X173778314Y-91711500D01*
X173710193Y-91691498D01*
X173663700Y-91637842D01*
X173653004Y-91572330D01*
X173654533Y-91557782D01*
X173658504Y-91520000D01*
X173638542Y-91330072D01*
X173579527Y-91148444D01*
X173484040Y-90983056D01*
X173484038Y-90983054D01*
X173484034Y-90983048D01*
X173356255Y-90841135D01*
X173201752Y-90728882D01*
X173027288Y-90651206D01*
X172840487Y-90611500D01*
X172749239Y-90611500D01*
X172681118Y-90591498D01*
X172660144Y-90574595D01*
X168488633Y-86403083D01*
X168488623Y-86403075D01*
X168349877Y-86322970D01*
X168349875Y-86322969D01*
X168349873Y-86322968D01*
X168195110Y-86281500D01*
X168034890Y-86281500D01*
X168034887Y-86281500D01*
X168013589Y-86287207D01*
X167980980Y-86291500D01*
X154154239Y-86291500D01*
X154086118Y-86271498D01*
X154065144Y-86254595D01*
X152708832Y-84898283D01*
X152674806Y-84835971D01*
X152672720Y-84823306D01*
X152663217Y-84738953D01*
X152603043Y-84566985D01*
X152603041Y-84566982D01*
X152603041Y-84566981D01*
X152506112Y-84412720D01*
X152506111Y-84412718D01*
X152377281Y-84283888D01*
X152377279Y-84283887D01*
X152223018Y-84186958D01*
X152223015Y-84186957D01*
X152051050Y-84126784D01*
X152051049Y-84126783D01*
X152051047Y-84126783D01*
X151870000Y-84106384D01*
X151688953Y-84126783D01*
X151688950Y-84126783D01*
X151688949Y-84126784D01*
X151516984Y-84186957D01*
X151516981Y-84186958D01*
X151362720Y-84283887D01*
X151362718Y-84283888D01*
X151233888Y-84412718D01*
X151233887Y-84412720D01*
X151136958Y-84566981D01*
X151136957Y-84566984D01*
X151083571Y-84719555D01*
X151076783Y-84738953D01*
X151056384Y-84920000D01*
X151076783Y-85101047D01*
X151076783Y-85101049D01*
X151076784Y-85101050D01*
X151136957Y-85273015D01*
X151136958Y-85273018D01*
X151233887Y-85427279D01*
X151233888Y-85427281D01*
X151362718Y-85556111D01*
X151362720Y-85556112D01*
X151516981Y-85653041D01*
X151516982Y-85653041D01*
X151516985Y-85653043D01*
X151688953Y-85713217D01*
X151773296Y-85722719D01*
X151838747Y-85750221D01*
X151848283Y-85758832D01*
X153476366Y-87386916D01*
X153476370Y-87386919D01*
X153476373Y-87386922D01*
X153527384Y-87416373D01*
X153615128Y-87467032D01*
X153769889Y-87508500D01*
X153769890Y-87508500D01*
X153930110Y-87508500D01*
X163696761Y-87508500D01*
X163764882Y-87528502D01*
X163811375Y-87582158D01*
X163821479Y-87652432D01*
X163791985Y-87717012D01*
X163785857Y-87723593D01*
X163037292Y-88472158D01*
X162313920Y-89195530D01*
X162251608Y-89229556D01*
X162183914Y-89225608D01*
X162150801Y-89214240D01*
X162150794Y-89214238D01*
X162150793Y-89214238D01*
X162150790Y-89214237D01*
X162150788Y-89214237D01*
X162105821Y-89206733D01*
X161924640Y-89176500D01*
X161695360Y-89176500D01*
X161544412Y-89201688D01*
X161469211Y-89214237D01*
X161469202Y-89214239D01*
X161252352Y-89288683D01*
X161252350Y-89288685D01*
X161050704Y-89397809D01*
X161050703Y-89397810D01*
X160869762Y-89538642D01*
X160864426Y-89544439D01*
X160803571Y-89581006D01*
X160732607Y-89578868D01*
X160674064Y-89538703D01*
X160653674Y-89503128D01*
X160620444Y-89414034D01*
X160532904Y-89297095D01*
X160415965Y-89209555D01*
X160279093Y-89158505D01*
X160218597Y-89152000D01*
X159524000Y-89152000D01*
X159524000Y-90688000D01*
X159503998Y-90756121D01*
X159450342Y-90802614D01*
X159398000Y-90814000D01*
X157862000Y-90814000D01*
X157862000Y-91508597D01*
X157868505Y-91569093D01*
X157919555Y-91705964D01*
X157919555Y-91705965D01*
X158007095Y-91822904D01*
X158124034Y-91910444D01*
X158205835Y-91940954D01*
X158262671Y-91983501D01*
X158287482Y-92050021D01*
X158272391Y-92119395D01*
X158254505Y-92144347D01*
X158164683Y-92241920D01*
X158037015Y-92437331D01*
X157943252Y-92651089D01*
X157943249Y-92651096D01*
X157885950Y-92877366D01*
X157885949Y-92877372D01*
X157885949Y-92877374D01*
X157866673Y-93110000D01*
X157884778Y-93328497D01*
X157885950Y-93342633D01*
X157943249Y-93568903D01*
X157943252Y-93568910D01*
X158021080Y-93746340D01*
X158030127Y-93816758D01*
X157999666Y-93880888D01*
X157939370Y-93918370D01*
X157868382Y-93917303D01*
X157816598Y-93886049D01*
X157208832Y-93278283D01*
X157174806Y-93215971D01*
X157172720Y-93203306D01*
X157163217Y-93118953D01*
X157103043Y-92946985D01*
X157103041Y-92946982D01*
X157103041Y-92946981D01*
X157006112Y-92792720D01*
X157006111Y-92792718D01*
X156877281Y-92663888D01*
X156877279Y-92663887D01*
X156723018Y-92566958D01*
X156723015Y-92566957D01*
X156551050Y-92506784D01*
X156551049Y-92506783D01*
X156551047Y-92506783D01*
X156370000Y-92486384D01*
X156188953Y-92506783D01*
X156188950Y-92506783D01*
X156188949Y-92506784D01*
X156016984Y-92566957D01*
X156016981Y-92566958D01*
X155862720Y-92663887D01*
X155862718Y-92663888D01*
X155733888Y-92792718D01*
X155733887Y-92792720D01*
X155636958Y-92946981D01*
X155636957Y-92946984D01*
X155576808Y-93118882D01*
X155576783Y-93118953D01*
X155556384Y-93300000D01*
X155576783Y-93481047D01*
X155576783Y-93481049D01*
X155576784Y-93481050D01*
X155636957Y-93653015D01*
X155636958Y-93653018D01*
X155733887Y-93807279D01*
X155733888Y-93807281D01*
X155862718Y-93936111D01*
X155862720Y-93936112D01*
X156016981Y-94033041D01*
X156016982Y-94033041D01*
X156016985Y-94033043D01*
X156188953Y-94093217D01*
X156273296Y-94102719D01*
X156338747Y-94130221D01*
X156348283Y-94138832D01*
X158348626Y-96139175D01*
X158382652Y-96201487D01*
X158384739Y-96214161D01*
X158396783Y-96321047D01*
X158396783Y-96321049D01*
X158396784Y-96321050D01*
X158456957Y-96493015D01*
X158456958Y-96493018D01*
X158553887Y-96647279D01*
X158553888Y-96647281D01*
X158682718Y-96776111D01*
X158682720Y-96776112D01*
X158836981Y-96873041D01*
X158836982Y-96873041D01*
X158836985Y-96873043D01*
X159008953Y-96933217D01*
X159190000Y-96953616D01*
X159371047Y-96933217D01*
X159543015Y-96873043D01*
X159697281Y-96776111D01*
X159826111Y-96647281D01*
X159923043Y-96493015D01*
X159983217Y-96321047D01*
X160003616Y-96140000D01*
X159983217Y-95958953D01*
X159923043Y-95786985D01*
X159923041Y-95786982D01*
X159923041Y-95786981D01*
X159826112Y-95632720D01*
X159826111Y-95632718D01*
X159697281Y-95503888D01*
X159697279Y-95503887D01*
X159543018Y-95406958D01*
X159543015Y-95406957D01*
X159371050Y-95346784D01*
X159371049Y-95346783D01*
X159371047Y-95346783D01*
X159317945Y-95340799D01*
X159309241Y-95339819D01*
X159243788Y-95312314D01*
X159234255Y-95303706D01*
X158501172Y-94570623D01*
X158467146Y-94508311D01*
X158472211Y-94437496D01*
X158514758Y-94380660D01*
X158581278Y-94355849D01*
X158650234Y-94370713D01*
X158712273Y-94404287D01*
X158933049Y-94480080D01*
X159163288Y-94518500D01*
X159163292Y-94518500D01*
X159396714Y-94518500D01*
X159476918Y-94505116D01*
X159581111Y-94487729D01*
X159651594Y-94496245D01*
X159690944Y-94522915D01*
X162299434Y-97131405D01*
X162333460Y-97193717D01*
X162328395Y-97264532D01*
X162285848Y-97321368D01*
X162219328Y-97346179D01*
X162210339Y-97346500D01*
X151304595Y-97346500D01*
X151236474Y-97326498D01*
X151215500Y-97309595D01*
X148510405Y-94604500D01*
X148476379Y-94542188D01*
X148473500Y-94515405D01*
X148473500Y-91988107D01*
X148473499Y-91988103D01*
X148469292Y-91966951D01*
X148449155Y-91865715D01*
X148431059Y-91822027D01*
X148401401Y-91750425D01*
X148363699Y-91694001D01*
X148342485Y-91626249D01*
X148361268Y-91557782D01*
X148414085Y-91510339D01*
X148468465Y-91498000D01*
X148640966Y-91498000D01*
X148640968Y-91497999D01*
X148807902Y-91456854D01*
X148807904Y-91456853D01*
X148893883Y-91411727D01*
X149376115Y-91411727D01*
X149462095Y-91456853D01*
X149462097Y-91456854D01*
X149629031Y-91497999D01*
X149629034Y-91498000D01*
X149800966Y-91498000D01*
X149800968Y-91497999D01*
X149967902Y-91456854D01*
X149967904Y-91456853D01*
X150053883Y-91411727D01*
X150053883Y-91411725D01*
X149715001Y-91072843D01*
X149715000Y-91072843D01*
X149376115Y-91411726D01*
X149376115Y-91411727D01*
X148893883Y-91411727D01*
X148893883Y-91411726D01*
X148555000Y-91072844D01*
X148292047Y-90809891D01*
X148455000Y-90809891D01*
X148470224Y-90846645D01*
X148498355Y-90874776D01*
X148535109Y-90890000D01*
X148574891Y-90890000D01*
X148611645Y-90874776D01*
X148639776Y-90846645D01*
X148655000Y-90809891D01*
X148655000Y-90790001D01*
X148837843Y-90790001D01*
X149134999Y-91087157D01*
X149135001Y-91087157D01*
X149412267Y-90809891D01*
X149615000Y-90809891D01*
X149630224Y-90846645D01*
X149658355Y-90874776D01*
X149695109Y-90890000D01*
X149734891Y-90890000D01*
X149771645Y-90874776D01*
X149799776Y-90846645D01*
X149815000Y-90809891D01*
X149815000Y-90790001D01*
X149997843Y-90790001D01*
X150339472Y-91131630D01*
X150346507Y-91121440D01*
X150346509Y-91121435D01*
X150407476Y-90960678D01*
X150428200Y-90790002D01*
X150428200Y-90789997D01*
X150407477Y-90619322D01*
X150346506Y-90458557D01*
X150346504Y-90458554D01*
X150339473Y-90448369D01*
X149997843Y-90789999D01*
X149997843Y-90790001D01*
X149815000Y-90790001D01*
X149815000Y-90770109D01*
X149799776Y-90733355D01*
X149771645Y-90705224D01*
X149734891Y-90690000D01*
X149695109Y-90690000D01*
X149658355Y-90705224D01*
X149630224Y-90733355D01*
X149615000Y-90770109D01*
X149615000Y-90809891D01*
X149412267Y-90809891D01*
X149432157Y-90790001D01*
X149432157Y-90789999D01*
X149135001Y-90492843D01*
X149134999Y-90492843D01*
X148837843Y-90789999D01*
X148837843Y-90790001D01*
X148655000Y-90790001D01*
X148655000Y-90770109D01*
X148639776Y-90733355D01*
X148611645Y-90705224D01*
X148574891Y-90690000D01*
X148535109Y-90690000D01*
X148498355Y-90705224D01*
X148470224Y-90733355D01*
X148455000Y-90770109D01*
X148455000Y-90809891D01*
X148292047Y-90809891D01*
X147930525Y-90448369D01*
X147923493Y-90458558D01*
X147862522Y-90619324D01*
X147861887Y-90624553D01*
X147833816Y-90689764D01*
X147774944Y-90729447D01*
X147703965Y-90731001D01*
X147643412Y-90693935D01*
X147616976Y-90648297D01*
X147604027Y-90608444D01*
X147508540Y-90443056D01*
X147508538Y-90443054D01*
X147508534Y-90443048D01*
X147380755Y-90301135D01*
X147321410Y-90258019D01*
X147255320Y-90210001D01*
X148257843Y-90210001D01*
X148554999Y-90507157D01*
X148555001Y-90507157D01*
X148832267Y-90229891D01*
X149035000Y-90229891D01*
X149050224Y-90266645D01*
X149078355Y-90294776D01*
X149115109Y-90310000D01*
X149154891Y-90310000D01*
X149191645Y-90294776D01*
X149219776Y-90266645D01*
X149235000Y-90229891D01*
X149235000Y-90210001D01*
X149417843Y-90210001D01*
X149714999Y-90507157D01*
X149715001Y-90507157D01*
X149916158Y-90306000D01*
X157862000Y-90306000D01*
X159016000Y-90306000D01*
X159016000Y-89152000D01*
X158321402Y-89152000D01*
X158260906Y-89158505D01*
X158124035Y-89209555D01*
X158124034Y-89209555D01*
X158007095Y-89297095D01*
X157919555Y-89414034D01*
X157919555Y-89414035D01*
X157868505Y-89550906D01*
X157862000Y-89611402D01*
X157862000Y-90306000D01*
X149916158Y-90306000D01*
X150012157Y-90210001D01*
X150012157Y-90209999D01*
X149715001Y-89912843D01*
X149714999Y-89912843D01*
X149417843Y-90209999D01*
X149417843Y-90210001D01*
X149235000Y-90210001D01*
X149235000Y-90190109D01*
X149219776Y-90153355D01*
X149191645Y-90125224D01*
X149154891Y-90110000D01*
X149115109Y-90110000D01*
X149078355Y-90125224D01*
X149050224Y-90153355D01*
X149035000Y-90190109D01*
X149035000Y-90229891D01*
X148832267Y-90229891D01*
X148852157Y-90210001D01*
X148852157Y-90209999D01*
X148555001Y-89912843D01*
X148554999Y-89912843D01*
X148257843Y-90209999D01*
X148257843Y-90210001D01*
X147255320Y-90210001D01*
X147226252Y-90188882D01*
X147226250Y-90188881D01*
X147226249Y-90188880D01*
X147176059Y-90166534D01*
X147121964Y-90120554D01*
X147101315Y-90052627D01*
X147120668Y-89984319D01*
X147138209Y-89962338D01*
X147634922Y-89465626D01*
X147697231Y-89431602D01*
X147768046Y-89436667D01*
X147824882Y-89479214D01*
X147849693Y-89545734D01*
X147849096Y-89569909D01*
X147841800Y-89630003D01*
X147862522Y-89800677D01*
X147923492Y-89961438D01*
X147923495Y-89961444D01*
X147930525Y-89971629D01*
X148252264Y-89649891D01*
X148455000Y-89649891D01*
X148470224Y-89686645D01*
X148498355Y-89714776D01*
X148535109Y-89730000D01*
X148574891Y-89730000D01*
X148611645Y-89714776D01*
X148639776Y-89686645D01*
X148655000Y-89649891D01*
X148655000Y-89630001D01*
X148837843Y-89630001D01*
X149134999Y-89927157D01*
X149135001Y-89927157D01*
X149412267Y-89649891D01*
X149615000Y-89649891D01*
X149630224Y-89686645D01*
X149658355Y-89714776D01*
X149695109Y-89730000D01*
X149734891Y-89730000D01*
X149771645Y-89714776D01*
X149799776Y-89686645D01*
X149815000Y-89649891D01*
X149815000Y-89630001D01*
X149997843Y-89630001D01*
X150339472Y-89971630D01*
X150346507Y-89961440D01*
X150346509Y-89961435D01*
X150407476Y-89800678D01*
X150428200Y-89630002D01*
X150428200Y-89629997D01*
X150407477Y-89459322D01*
X150346506Y-89298557D01*
X150346504Y-89298554D01*
X150339473Y-89288369D01*
X149997843Y-89629999D01*
X149997843Y-89630001D01*
X149815000Y-89630001D01*
X149815000Y-89610109D01*
X149799776Y-89573355D01*
X149771645Y-89545224D01*
X149734891Y-89530000D01*
X149695109Y-89530000D01*
X149658355Y-89545224D01*
X149630224Y-89573355D01*
X149615000Y-89610109D01*
X149615000Y-89649891D01*
X149412267Y-89649891D01*
X149432157Y-89630001D01*
X149432157Y-89629999D01*
X149135001Y-89332843D01*
X149134999Y-89332843D01*
X148837843Y-89629999D01*
X148837843Y-89630001D01*
X148655000Y-89630001D01*
X148655000Y-89610109D01*
X148639776Y-89573355D01*
X148611645Y-89545224D01*
X148574891Y-89530000D01*
X148535109Y-89530000D01*
X148498355Y-89545224D01*
X148470224Y-89573355D01*
X148455000Y-89610109D01*
X148455000Y-89649891D01*
X148252264Y-89649891D01*
X148555000Y-89347156D01*
X148893883Y-89008271D01*
X149376115Y-89008271D01*
X149714999Y-89347156D01*
X150053883Y-89008271D01*
X149967908Y-88963148D01*
X149967902Y-88963145D01*
X149800968Y-88922000D01*
X149629031Y-88922000D01*
X149462096Y-88963146D01*
X149376115Y-89008271D01*
X148893883Y-89008271D01*
X148807908Y-88963148D01*
X148807902Y-88963145D01*
X148640968Y-88922000D01*
X148482739Y-88922000D01*
X148414618Y-88901998D01*
X148368125Y-88848342D01*
X148358021Y-88778068D01*
X148387515Y-88713488D01*
X148393644Y-88706905D01*
X148570266Y-88530283D01*
X148632578Y-88496257D01*
X148659361Y-88493378D01*
X149718884Y-88493378D01*
X149787005Y-88513380D01*
X149797448Y-88520870D01*
X149797603Y-88520994D01*
X149951859Y-88617919D01*
X149951860Y-88617919D01*
X149951863Y-88617921D01*
X150123831Y-88678095D01*
X150304878Y-88698494D01*
X150485925Y-88678095D01*
X150657893Y-88617921D01*
X150812159Y-88520989D01*
X150940989Y-88392159D01*
X151037921Y-88237893D01*
X151098095Y-88065925D01*
X151118494Y-87884878D01*
X151098095Y-87703831D01*
X151037921Y-87531863D01*
X151037919Y-87531860D01*
X151037919Y-87531859D01*
X150940990Y-87377598D01*
X150940989Y-87377596D01*
X150812159Y-87248766D01*
X150812157Y-87248765D01*
X150657896Y-87151836D01*
X150657893Y-87151835D01*
X150485928Y-87091662D01*
X150485927Y-87091661D01*
X150485925Y-87091661D01*
X150304878Y-87071262D01*
X150123831Y-87091661D01*
X150123828Y-87091661D01*
X150123827Y-87091662D01*
X149951862Y-87151835D01*
X149951859Y-87151836D01*
X149797603Y-87248761D01*
X149797448Y-87248886D01*
X149797328Y-87248934D01*
X149791605Y-87252531D01*
X149790975Y-87251528D01*
X149731719Y-87275723D01*
X149718884Y-87276378D01*
X148275011Y-87276378D01*
X148192077Y-87298600D01*
X148120252Y-87317845D01*
X148120245Y-87317848D01*
X147981498Y-87397953D01*
X147981488Y-87397961D01*
X145573083Y-89806366D01*
X145573075Y-89806376D01*
X145492967Y-89945127D01*
X145492968Y-89945128D01*
X145451500Y-90099890D01*
X145451500Y-95646761D01*
X145431498Y-95714882D01*
X145377842Y-95761375D01*
X145307568Y-95771479D01*
X145242988Y-95741985D01*
X145236405Y-95735856D01*
X143645747Y-94145198D01*
X143611721Y-94082886D01*
X143609532Y-94042932D01*
X143623504Y-93910000D01*
X143603542Y-93720072D01*
X143544527Y-93538444D01*
X143449040Y-93373056D01*
X143449038Y-93373054D01*
X143449034Y-93373048D01*
X143321255Y-93231135D01*
X143166752Y-93118882D01*
X142992288Y-93041206D01*
X142805487Y-93001500D01*
X142614513Y-93001500D01*
X142427711Y-93041206D01*
X142253247Y-93118882D01*
X142098744Y-93231135D01*
X141970965Y-93373048D01*
X141970958Y-93373058D01*
X141906886Y-93484035D01*
X141875473Y-93538444D01*
X141865576Y-93568903D01*
X141816457Y-93720072D01*
X141796496Y-93910000D01*
X140698000Y-93910000D01*
X140698000Y-93681414D01*
X140697999Y-93681402D01*
X140691494Y-93620906D01*
X140640444Y-93484035D01*
X140640444Y-93484034D01*
X140552905Y-93367097D01*
X140548666Y-93363924D01*
X140506120Y-93307088D01*
X140501056Y-93236272D01*
X140518695Y-93194138D01*
X140520922Y-93190730D01*
X140613023Y-92980761D01*
X140669308Y-92758497D01*
X140688242Y-92530000D01*
X140669308Y-92301503D01*
X140655588Y-92247324D01*
X140613024Y-92079242D01*
X140613021Y-92079235D01*
X140552365Y-91940954D01*
X140520922Y-91869270D01*
X140395518Y-91677324D01*
X140240231Y-91508637D01*
X140059296Y-91367810D01*
X140059295Y-91367809D01*
X139899581Y-91281377D01*
X139857650Y-91258685D01*
X139857648Y-91258684D01*
X139857647Y-91258683D01*
X139640797Y-91184239D01*
X139640788Y-91184237D01*
X139595821Y-91176733D01*
X139414640Y-91146500D01*
X139264683Y-91146500D01*
X139196562Y-91126498D01*
X139150069Y-91072842D01*
X139144851Y-91059439D01*
X139144529Y-91058450D01*
X139144526Y-91058442D01*
X139058655Y-90909709D01*
X139049040Y-90893056D01*
X139049038Y-90893054D01*
X139049034Y-90893048D01*
X138921255Y-90751135D01*
X138766752Y-90638882D01*
X138592288Y-90561206D01*
X138405487Y-90521500D01*
X138214513Y-90521500D01*
X138027711Y-90561206D01*
X137853247Y-90638882D01*
X137698744Y-90751135D01*
X137570965Y-90893048D01*
X137570958Y-90893058D01*
X137475476Y-91058438D01*
X137475473Y-91058444D01*
X137470794Y-91072844D01*
X137416457Y-91240072D01*
X137396496Y-91430000D01*
X131450500Y-91430000D01*
X131450500Y-84685000D01*
X135161758Y-84685000D01*
X135179431Y-84898283D01*
X135180693Y-84913504D01*
X135236975Y-85135757D01*
X135236978Y-85135764D01*
X135329073Y-85345720D01*
X135329075Y-85345724D01*
X135329078Y-85345730D01*
X135454482Y-85537676D01*
X135609769Y-85706363D01*
X135790704Y-85847190D01*
X135992350Y-85956315D01*
X135992351Y-85956315D01*
X135992352Y-85956316D01*
X136106208Y-85995402D01*
X136209207Y-86030762D01*
X136435360Y-86068500D01*
X136435364Y-86068500D01*
X136664636Y-86068500D01*
X136664640Y-86068500D01*
X136890793Y-86030762D01*
X137107650Y-85956315D01*
X137309296Y-85847190D01*
X137490231Y-85706363D01*
X137645518Y-85537676D01*
X137770922Y-85345730D01*
X137863023Y-85135761D01*
X137919308Y-84913497D01*
X137938242Y-84685000D01*
X137924327Y-84517084D01*
X137938635Y-84447548D01*
X137960799Y-84417590D01*
X138045012Y-84333377D01*
X138045022Y-84333370D01*
X138167999Y-84210393D01*
X138168008Y-84210383D01*
X138223866Y-84126785D01*
X138223866Y-84126784D01*
X138237496Y-84106384D01*
X138256483Y-84077969D01*
X138279873Y-84021500D01*
X138317430Y-83930831D01*
X138348500Y-83774630D01*
X138348500Y-82540397D01*
X138365381Y-82477397D01*
X138365564Y-82477078D01*
X138374527Y-82461556D01*
X138433542Y-82279928D01*
X138453504Y-82090000D01*
X138433542Y-81900072D01*
X138374527Y-81718444D01*
X138279040Y-81553056D01*
X138279038Y-81553054D01*
X138279034Y-81553048D01*
X138201629Y-81467081D01*
X139024499Y-81467081D01*
X139064401Y-81615994D01*
X139141481Y-81749501D01*
X139141489Y-81749511D01*
X139250488Y-81858510D01*
X139250493Y-81858514D01*
X139250495Y-81858516D01*
X139250496Y-81858517D01*
X139250498Y-81858518D01*
X139267500Y-81868334D01*
X139384006Y-81935599D01*
X139532917Y-81975500D01*
X139532919Y-81975500D01*
X139687081Y-81975500D01*
X139687083Y-81975500D01*
X139835994Y-81935599D01*
X139969505Y-81858516D01*
X140078516Y-81749505D01*
X140155599Y-81615994D01*
X140195500Y-81467083D01*
X140195500Y-81312917D01*
X140155599Y-81164006D01*
X140109239Y-81083708D01*
X140092501Y-81014712D01*
X140115722Y-80947621D01*
X140171529Y-80903734D01*
X140242204Y-80896985D01*
X140288358Y-80915942D01*
X140410822Y-80997770D01*
X140591082Y-81072436D01*
X140782444Y-81110500D01*
X140782445Y-81110500D01*
X140977555Y-81110500D01*
X140977556Y-81110500D01*
X141168918Y-81072436D01*
X141349178Y-80997770D01*
X141471642Y-80915941D01*
X141539391Y-80894728D01*
X141607858Y-80913511D01*
X141655302Y-80966328D01*
X141666659Y-81036410D01*
X141650761Y-81083707D01*
X141604402Y-81164005D01*
X141604401Y-81164006D01*
X141578732Y-81259805D01*
X141564500Y-81312918D01*
X141564500Y-81467081D01*
X141564499Y-81467081D01*
X141604401Y-81615994D01*
X141681481Y-81749501D01*
X141681489Y-81749511D01*
X141790488Y-81858510D01*
X141790493Y-81858514D01*
X141790495Y-81858516D01*
X141790496Y-81858517D01*
X141790498Y-81858518D01*
X141807500Y-81868334D01*
X141924006Y-81935599D01*
X142072917Y-81975500D01*
X142072919Y-81975500D01*
X142227081Y-81975500D01*
X142227083Y-81975500D01*
X142375994Y-81935599D01*
X142509505Y-81858516D01*
X142618516Y-81749505D01*
X142695599Y-81615994D01*
X142735500Y-81467083D01*
X142735500Y-81467081D01*
X144104499Y-81467081D01*
X144144401Y-81615994D01*
X144221481Y-81749501D01*
X144221489Y-81749511D01*
X144330488Y-81858510D01*
X144330493Y-81858514D01*
X144330495Y-81858516D01*
X144330496Y-81858517D01*
X144330498Y-81858518D01*
X144347500Y-81868334D01*
X144464006Y-81935599D01*
X144612917Y-81975500D01*
X144612919Y-81975500D01*
X144767081Y-81975500D01*
X144767083Y-81975500D01*
X144915994Y-81935599D01*
X145049505Y-81858516D01*
X145158516Y-81749505D01*
X145235599Y-81615994D01*
X145275500Y-81467083D01*
X145275500Y-81467081D01*
X146644499Y-81467081D01*
X146684401Y-81615994D01*
X146761481Y-81749501D01*
X146761489Y-81749511D01*
X146870488Y-81858510D01*
X146870493Y-81858514D01*
X146870495Y-81858516D01*
X146870496Y-81858517D01*
X146870498Y-81858518D01*
X146887500Y-81868334D01*
X147004006Y-81935599D01*
X147152917Y-81975500D01*
X147152919Y-81975500D01*
X147307081Y-81975500D01*
X147307083Y-81975500D01*
X147455994Y-81935599D01*
X147589505Y-81858516D01*
X147698516Y-81749505D01*
X147775599Y-81615994D01*
X147815500Y-81467083D01*
X147815500Y-81467081D01*
X149184499Y-81467081D01*
X149224401Y-81615994D01*
X149301481Y-81749501D01*
X149301489Y-81749511D01*
X149410488Y-81858510D01*
X149410493Y-81858514D01*
X149410495Y-81858516D01*
X149410496Y-81858517D01*
X149410498Y-81858518D01*
X149427500Y-81868334D01*
X149544006Y-81935599D01*
X149692917Y-81975500D01*
X149692919Y-81975500D01*
X149847081Y-81975500D01*
X149847083Y-81975500D01*
X149995994Y-81935599D01*
X150129505Y-81858516D01*
X150238516Y-81749505D01*
X150315599Y-81615994D01*
X150355500Y-81467083D01*
X150355500Y-81467081D01*
X151724499Y-81467081D01*
X151764401Y-81615994D01*
X151841481Y-81749501D01*
X151841489Y-81749511D01*
X151950488Y-81858510D01*
X151950493Y-81858514D01*
X151950495Y-81858516D01*
X151950496Y-81858517D01*
X151950498Y-81858518D01*
X151967500Y-81868334D01*
X152084006Y-81935599D01*
X152232917Y-81975500D01*
X152232919Y-81975500D01*
X152387081Y-81975500D01*
X152387083Y-81975500D01*
X152535994Y-81935599D01*
X152669505Y-81858516D01*
X152778516Y-81749505D01*
X152855599Y-81615994D01*
X152895500Y-81467083D01*
X152895500Y-81467081D01*
X154264499Y-81467081D01*
X154304401Y-81615994D01*
X154381481Y-81749501D01*
X154381489Y-81749511D01*
X154490488Y-81858510D01*
X154490493Y-81858514D01*
X154490495Y-81858516D01*
X154490496Y-81858517D01*
X154490498Y-81858518D01*
X154507500Y-81868334D01*
X154624006Y-81935599D01*
X154772917Y-81975500D01*
X154772919Y-81975500D01*
X154927081Y-81975500D01*
X154927083Y-81975500D01*
X155075994Y-81935599D01*
X155209505Y-81858516D01*
X155318516Y-81749505D01*
X155395599Y-81615994D01*
X155435500Y-81467083D01*
X155435500Y-81467081D01*
X156804499Y-81467081D01*
X156844401Y-81615994D01*
X156921481Y-81749501D01*
X156921489Y-81749511D01*
X157030488Y-81858510D01*
X157030493Y-81858514D01*
X157030495Y-81858516D01*
X157030496Y-81858517D01*
X157030498Y-81858518D01*
X157047500Y-81868334D01*
X157164006Y-81935599D01*
X157312917Y-81975500D01*
X157312919Y-81975500D01*
X157467081Y-81975500D01*
X157467083Y-81975500D01*
X157615994Y-81935599D01*
X157749505Y-81858516D01*
X157858516Y-81749505D01*
X157935599Y-81615994D01*
X157975500Y-81467083D01*
X157975500Y-81467081D01*
X159344499Y-81467081D01*
X159384401Y-81615994D01*
X159461481Y-81749501D01*
X159461489Y-81749511D01*
X159570488Y-81858510D01*
X159570493Y-81858514D01*
X159570495Y-81858516D01*
X159570496Y-81858517D01*
X159570498Y-81858518D01*
X159587500Y-81868334D01*
X159704006Y-81935599D01*
X159852917Y-81975500D01*
X159852919Y-81975500D01*
X160007081Y-81975500D01*
X160007083Y-81975500D01*
X160155994Y-81935599D01*
X160289505Y-81858516D01*
X160398516Y-81749505D01*
X160475599Y-81615994D01*
X160515500Y-81467083D01*
X160515500Y-81467081D01*
X161884499Y-81467081D01*
X161924401Y-81615994D01*
X162001481Y-81749501D01*
X162001489Y-81749511D01*
X162110488Y-81858510D01*
X162110493Y-81858514D01*
X162110495Y-81858516D01*
X162110496Y-81858517D01*
X162110498Y-81858518D01*
X162127500Y-81868334D01*
X162244006Y-81935599D01*
X162392917Y-81975500D01*
X162392919Y-81975500D01*
X162547081Y-81975500D01*
X162547083Y-81975500D01*
X162695994Y-81935599D01*
X162829505Y-81858516D01*
X162938516Y-81749505D01*
X163015599Y-81615994D01*
X163055500Y-81467083D01*
X163055500Y-81467081D01*
X164424499Y-81467081D01*
X164464401Y-81615994D01*
X164541481Y-81749501D01*
X164541489Y-81749511D01*
X164650488Y-81858510D01*
X164650493Y-81858514D01*
X164650495Y-81858516D01*
X164650496Y-81858517D01*
X164650498Y-81858518D01*
X164667500Y-81868334D01*
X164784006Y-81935599D01*
X164932917Y-81975500D01*
X164932919Y-81975500D01*
X165087081Y-81975500D01*
X165087083Y-81975500D01*
X165235994Y-81935599D01*
X165369505Y-81858516D01*
X165478516Y-81749505D01*
X165555599Y-81615994D01*
X165595500Y-81467083D01*
X165595500Y-81467081D01*
X166964499Y-81467081D01*
X167004401Y-81615994D01*
X167081481Y-81749501D01*
X167081489Y-81749511D01*
X167190488Y-81858510D01*
X167190493Y-81858514D01*
X167190495Y-81858516D01*
X167190496Y-81858517D01*
X167190498Y-81858518D01*
X167207500Y-81868334D01*
X167324006Y-81935599D01*
X167472917Y-81975500D01*
X167472919Y-81975500D01*
X167627081Y-81975500D01*
X167627083Y-81975500D01*
X167775994Y-81935599D01*
X167909505Y-81858516D01*
X168018516Y-81749505D01*
X168095599Y-81615994D01*
X168135500Y-81467083D01*
X168135500Y-81467081D01*
X169504499Y-81467081D01*
X169544401Y-81615994D01*
X169621481Y-81749501D01*
X169621489Y-81749511D01*
X169730488Y-81858510D01*
X169730493Y-81858514D01*
X169730495Y-81858516D01*
X169730496Y-81858517D01*
X169730498Y-81858518D01*
X169747500Y-81868334D01*
X169864006Y-81935599D01*
X170012917Y-81975500D01*
X170012919Y-81975500D01*
X170167081Y-81975500D01*
X170167083Y-81975500D01*
X170315994Y-81935599D01*
X170449505Y-81858516D01*
X170558516Y-81749505D01*
X170635599Y-81615994D01*
X170675500Y-81467083D01*
X170675500Y-81467081D01*
X172044499Y-81467081D01*
X172084401Y-81615994D01*
X172161481Y-81749501D01*
X172161489Y-81749511D01*
X172270488Y-81858510D01*
X172270493Y-81858514D01*
X172270495Y-81858516D01*
X172270496Y-81858517D01*
X172270498Y-81858518D01*
X172287500Y-81868334D01*
X172404006Y-81935599D01*
X172552917Y-81975500D01*
X172552919Y-81975500D01*
X172707081Y-81975500D01*
X172707083Y-81975500D01*
X172855994Y-81935599D01*
X172989505Y-81858516D01*
X173098516Y-81749505D01*
X173175599Y-81615994D01*
X173215500Y-81467083D01*
X173215500Y-81467081D01*
X174584499Y-81467081D01*
X174624401Y-81615994D01*
X174701481Y-81749501D01*
X174701489Y-81749511D01*
X174810488Y-81858510D01*
X174810493Y-81858514D01*
X174810495Y-81858516D01*
X174810496Y-81858517D01*
X174810498Y-81858518D01*
X174827500Y-81868334D01*
X174944006Y-81935599D01*
X175092917Y-81975500D01*
X175092919Y-81975500D01*
X175247081Y-81975500D01*
X175247083Y-81975500D01*
X175395994Y-81935599D01*
X175529505Y-81858516D01*
X175638516Y-81749505D01*
X175715599Y-81615994D01*
X175755500Y-81467083D01*
X175755500Y-81467081D01*
X177124499Y-81467081D01*
X177164401Y-81615994D01*
X177241481Y-81749501D01*
X177241489Y-81749511D01*
X177350488Y-81858510D01*
X177350493Y-81858514D01*
X177350495Y-81858516D01*
X177350496Y-81858517D01*
X177350498Y-81858518D01*
X177367500Y-81868334D01*
X177484006Y-81935599D01*
X177632917Y-81975500D01*
X177632919Y-81975500D01*
X177787081Y-81975500D01*
X177787083Y-81975500D01*
X177935994Y-81935599D01*
X178069505Y-81858516D01*
X178178516Y-81749505D01*
X178255599Y-81615994D01*
X178295500Y-81467083D01*
X178295500Y-81312917D01*
X178255599Y-81164006D01*
X178178516Y-81030495D01*
X178178514Y-81030493D01*
X178178510Y-81030488D01*
X178069511Y-80921489D01*
X178069501Y-80921481D01*
X177935994Y-80844401D01*
X177927907Y-80842234D01*
X177787083Y-80804500D01*
X177632917Y-80804500D01*
X177533643Y-80831100D01*
X177484005Y-80844401D01*
X177350498Y-80921481D01*
X177350488Y-80921489D01*
X177241489Y-81030488D01*
X177241481Y-81030498D01*
X177164401Y-81164005D01*
X177161029Y-81176589D01*
X177138732Y-81259805D01*
X177124500Y-81312918D01*
X177124500Y-81467081D01*
X177124499Y-81467081D01*
X175755500Y-81467081D01*
X175755500Y-81312917D01*
X175715599Y-81164006D01*
X175638516Y-81030495D01*
X175638514Y-81030493D01*
X175638510Y-81030488D01*
X175529511Y-80921489D01*
X175529501Y-80921481D01*
X175395994Y-80844401D01*
X175387907Y-80842234D01*
X175247083Y-80804500D01*
X175092917Y-80804500D01*
X174993643Y-80831100D01*
X174944005Y-80844401D01*
X174810498Y-80921481D01*
X174810488Y-80921489D01*
X174701489Y-81030488D01*
X174701481Y-81030498D01*
X174624401Y-81164005D01*
X174621029Y-81176589D01*
X174598732Y-81259805D01*
X174584500Y-81312918D01*
X174584500Y-81467081D01*
X174584499Y-81467081D01*
X173215500Y-81467081D01*
X173215500Y-81312917D01*
X173175599Y-81164006D01*
X173098516Y-81030495D01*
X173098514Y-81030493D01*
X173098510Y-81030488D01*
X172989511Y-80921489D01*
X172989501Y-80921481D01*
X172855994Y-80844401D01*
X172847907Y-80842234D01*
X172707083Y-80804500D01*
X172552917Y-80804500D01*
X172453643Y-80831100D01*
X172404005Y-80844401D01*
X172270498Y-80921481D01*
X172270488Y-80921489D01*
X172161489Y-81030488D01*
X172161481Y-81030498D01*
X172084401Y-81164005D01*
X172081029Y-81176589D01*
X172058732Y-81259805D01*
X172044500Y-81312918D01*
X172044500Y-81467081D01*
X172044499Y-81467081D01*
X170675500Y-81467081D01*
X170675500Y-81312917D01*
X170635599Y-81164006D01*
X170558516Y-81030495D01*
X170558514Y-81030493D01*
X170558510Y-81030488D01*
X170449511Y-80921489D01*
X170449501Y-80921481D01*
X170315994Y-80844401D01*
X170307907Y-80842234D01*
X170167083Y-80804500D01*
X170012917Y-80804500D01*
X169913643Y-80831100D01*
X169864005Y-80844401D01*
X169730498Y-80921481D01*
X169730488Y-80921489D01*
X169621489Y-81030488D01*
X169621481Y-81030498D01*
X169544401Y-81164005D01*
X169541029Y-81176589D01*
X169518732Y-81259805D01*
X169504500Y-81312918D01*
X169504500Y-81467081D01*
X169504499Y-81467081D01*
X168135500Y-81467081D01*
X168135500Y-81312917D01*
X168095599Y-81164006D01*
X168018516Y-81030495D01*
X168018514Y-81030493D01*
X168018510Y-81030488D01*
X167909511Y-80921489D01*
X167909501Y-80921481D01*
X167775994Y-80844401D01*
X167767907Y-80842234D01*
X167627083Y-80804500D01*
X167472917Y-80804500D01*
X167373643Y-80831100D01*
X167324005Y-80844401D01*
X167190498Y-80921481D01*
X167190488Y-80921489D01*
X167081489Y-81030488D01*
X167081481Y-81030498D01*
X167004401Y-81164005D01*
X167001029Y-81176589D01*
X166978732Y-81259805D01*
X166964500Y-81312918D01*
X166964500Y-81467081D01*
X166964499Y-81467081D01*
X165595500Y-81467081D01*
X165595500Y-81312917D01*
X165555599Y-81164006D01*
X165478516Y-81030495D01*
X165478514Y-81030493D01*
X165478510Y-81030488D01*
X165369511Y-80921489D01*
X165369501Y-80921481D01*
X165235994Y-80844401D01*
X165227907Y-80842234D01*
X165087083Y-80804500D01*
X164932917Y-80804500D01*
X164833643Y-80831100D01*
X164784005Y-80844401D01*
X164650498Y-80921481D01*
X164650488Y-80921489D01*
X164541489Y-81030488D01*
X164541481Y-81030498D01*
X164464401Y-81164005D01*
X164461029Y-81176589D01*
X164438732Y-81259805D01*
X164424500Y-81312918D01*
X164424500Y-81467081D01*
X164424499Y-81467081D01*
X163055500Y-81467081D01*
X163055500Y-81312917D01*
X163015599Y-81164006D01*
X162938516Y-81030495D01*
X162938514Y-81030493D01*
X162938510Y-81030488D01*
X162829511Y-80921489D01*
X162829501Y-80921481D01*
X162695994Y-80844401D01*
X162687907Y-80842234D01*
X162547083Y-80804500D01*
X162392917Y-80804500D01*
X162293643Y-80831100D01*
X162244005Y-80844401D01*
X162110498Y-80921481D01*
X162110488Y-80921489D01*
X162001489Y-81030488D01*
X162001481Y-81030498D01*
X161924401Y-81164005D01*
X161921029Y-81176589D01*
X161898732Y-81259805D01*
X161884500Y-81312918D01*
X161884500Y-81467081D01*
X161884499Y-81467081D01*
X160515500Y-81467081D01*
X160515500Y-81312917D01*
X160475599Y-81164006D01*
X160398516Y-81030495D01*
X160398514Y-81030493D01*
X160398510Y-81030488D01*
X160289511Y-80921489D01*
X160289501Y-80921481D01*
X160155994Y-80844401D01*
X160147907Y-80842234D01*
X160007083Y-80804500D01*
X159852917Y-80804500D01*
X159753643Y-80831100D01*
X159704005Y-80844401D01*
X159570498Y-80921481D01*
X159570488Y-80921489D01*
X159461489Y-81030488D01*
X159461481Y-81030498D01*
X159384401Y-81164005D01*
X159381029Y-81176589D01*
X159358732Y-81259805D01*
X159344500Y-81312918D01*
X159344500Y-81467081D01*
X159344499Y-81467081D01*
X157975500Y-81467081D01*
X157975500Y-81312917D01*
X157935599Y-81164006D01*
X157858516Y-81030495D01*
X157858514Y-81030493D01*
X157858510Y-81030488D01*
X157749511Y-80921489D01*
X157749501Y-80921481D01*
X157615994Y-80844401D01*
X157607907Y-80842234D01*
X157467083Y-80804500D01*
X157312917Y-80804500D01*
X157213643Y-80831100D01*
X157164005Y-80844401D01*
X157030498Y-80921481D01*
X157030488Y-80921489D01*
X156921489Y-81030488D01*
X156921481Y-81030498D01*
X156844401Y-81164005D01*
X156841029Y-81176589D01*
X156818732Y-81259805D01*
X156804500Y-81312918D01*
X156804500Y-81467081D01*
X156804499Y-81467081D01*
X155435500Y-81467081D01*
X155435500Y-81312917D01*
X155395599Y-81164006D01*
X155318516Y-81030495D01*
X155318514Y-81030493D01*
X155318510Y-81030488D01*
X155209511Y-80921489D01*
X155209501Y-80921481D01*
X155075994Y-80844401D01*
X155067907Y-80842234D01*
X154927083Y-80804500D01*
X154772917Y-80804500D01*
X154673643Y-80831100D01*
X154624005Y-80844401D01*
X154490498Y-80921481D01*
X154490488Y-80921489D01*
X154381489Y-81030488D01*
X154381481Y-81030498D01*
X154304401Y-81164005D01*
X154301029Y-81176589D01*
X154278732Y-81259805D01*
X154264500Y-81312918D01*
X154264500Y-81467081D01*
X154264499Y-81467081D01*
X152895500Y-81467081D01*
X152895500Y-81312917D01*
X152855599Y-81164006D01*
X152778516Y-81030495D01*
X152778514Y-81030493D01*
X152778510Y-81030488D01*
X152669511Y-80921489D01*
X152669501Y-80921481D01*
X152535994Y-80844401D01*
X152527907Y-80842234D01*
X152387083Y-80804500D01*
X152232917Y-80804500D01*
X152133643Y-80831100D01*
X152084005Y-80844401D01*
X151950498Y-80921481D01*
X151950488Y-80921489D01*
X151841489Y-81030488D01*
X151841481Y-81030498D01*
X151764401Y-81164005D01*
X151761029Y-81176589D01*
X151738732Y-81259805D01*
X151724500Y-81312918D01*
X151724500Y-81467081D01*
X151724499Y-81467081D01*
X150355500Y-81467081D01*
X150355500Y-81312917D01*
X150315599Y-81164006D01*
X150238516Y-81030495D01*
X150238514Y-81030493D01*
X150238510Y-81030488D01*
X150129511Y-80921489D01*
X150129501Y-80921481D01*
X149995994Y-80844401D01*
X149987907Y-80842234D01*
X149847083Y-80804500D01*
X149692917Y-80804500D01*
X149593643Y-80831100D01*
X149544005Y-80844401D01*
X149410498Y-80921481D01*
X149410488Y-80921489D01*
X149301489Y-81030488D01*
X149301481Y-81030498D01*
X149224401Y-81164005D01*
X149221029Y-81176589D01*
X149198732Y-81259805D01*
X149184500Y-81312918D01*
X149184500Y-81467081D01*
X149184499Y-81467081D01*
X147815500Y-81467081D01*
X147815500Y-81312917D01*
X147775599Y-81164006D01*
X147698516Y-81030495D01*
X147698514Y-81030493D01*
X147698510Y-81030488D01*
X147589511Y-80921489D01*
X147589501Y-80921481D01*
X147455994Y-80844401D01*
X147447907Y-80842234D01*
X147307083Y-80804500D01*
X147152917Y-80804500D01*
X147053643Y-80831100D01*
X147004005Y-80844401D01*
X146870498Y-80921481D01*
X146870488Y-80921489D01*
X146761489Y-81030488D01*
X146761481Y-81030498D01*
X146684401Y-81164005D01*
X146681029Y-81176589D01*
X146658732Y-81259805D01*
X146644500Y-81312918D01*
X146644500Y-81467081D01*
X146644499Y-81467081D01*
X145275500Y-81467081D01*
X145275500Y-81312917D01*
X145235599Y-81164006D01*
X145158516Y-81030495D01*
X145158514Y-81030493D01*
X145158510Y-81030488D01*
X145049511Y-80921489D01*
X145049501Y-80921481D01*
X144915994Y-80844401D01*
X144907907Y-80842234D01*
X144767083Y-80804500D01*
X144612917Y-80804500D01*
X144513643Y-80831100D01*
X144464005Y-80844401D01*
X144330498Y-80921481D01*
X144330488Y-80921489D01*
X144221489Y-81030488D01*
X144221481Y-81030498D01*
X144144401Y-81164005D01*
X144141029Y-81176589D01*
X144118732Y-81259805D01*
X144104500Y-81312918D01*
X144104500Y-81467081D01*
X144104499Y-81467081D01*
X142735500Y-81467081D01*
X142735500Y-81312917D01*
X142695599Y-81164006D01*
X142618516Y-81030495D01*
X142618514Y-81030493D01*
X142618510Y-81030488D01*
X142509511Y-80921489D01*
X142509501Y-80921481D01*
X142375994Y-80844401D01*
X142367907Y-80842234D01*
X142227083Y-80804500D01*
X142072917Y-80804500D01*
X141932093Y-80842234D01*
X141924006Y-80844401D01*
X141843707Y-80890761D01*
X141774711Y-80907498D01*
X141707620Y-80884277D01*
X141663733Y-80828469D01*
X141656985Y-80757794D01*
X141675941Y-80711643D01*
X141757770Y-80589178D01*
X141832436Y-80408918D01*
X141870500Y-80217556D01*
X141870500Y-80022444D01*
X141832436Y-79831082D01*
X141757770Y-79650822D01*
X141675942Y-79528358D01*
X141654728Y-79460607D01*
X141673511Y-79392140D01*
X141726328Y-79344697D01*
X141796410Y-79333340D01*
X141843708Y-79349239D01*
X141867567Y-79363014D01*
X141924006Y-79395599D01*
X142072917Y-79435500D01*
X142072919Y-79435500D01*
X142227081Y-79435500D01*
X142227083Y-79435500D01*
X142375994Y-79395599D01*
X142509505Y-79318516D01*
X142618516Y-79209505D01*
X142695599Y-79075994D01*
X142735500Y-78927083D01*
X142735500Y-78927081D01*
X144104499Y-78927081D01*
X144144401Y-79075994D01*
X144221481Y-79209501D01*
X144221489Y-79209511D01*
X144330488Y-79318510D01*
X144330493Y-79318514D01*
X144330495Y-79318516D01*
X144330496Y-79318517D01*
X144330498Y-79318518D01*
X144375842Y-79344697D01*
X144464006Y-79395599D01*
X144612917Y-79435500D01*
X144612919Y-79435500D01*
X144767081Y-79435500D01*
X144767083Y-79435500D01*
X144915994Y-79395599D01*
X145049505Y-79318516D01*
X145158516Y-79209505D01*
X145235599Y-79075994D01*
X145275500Y-78927083D01*
X145275500Y-78927081D01*
X146644499Y-78927081D01*
X146684401Y-79075994D01*
X146761481Y-79209501D01*
X146761489Y-79209511D01*
X146870488Y-79318510D01*
X146870493Y-79318514D01*
X146870495Y-79318516D01*
X146870496Y-79318517D01*
X146870498Y-79318518D01*
X146915842Y-79344697D01*
X147004006Y-79395599D01*
X147152917Y-79435500D01*
X147152919Y-79435500D01*
X147307081Y-79435500D01*
X147307083Y-79435500D01*
X147455994Y-79395599D01*
X147589505Y-79318516D01*
X147698516Y-79209505D01*
X147775599Y-79075994D01*
X147815500Y-78927083D01*
X147815500Y-78927081D01*
X149184499Y-78927081D01*
X149224401Y-79075994D01*
X149301481Y-79209501D01*
X149301489Y-79209511D01*
X149410488Y-79318510D01*
X149410493Y-79318514D01*
X149410495Y-79318516D01*
X149410496Y-79318517D01*
X149410498Y-79318518D01*
X149455842Y-79344697D01*
X149544006Y-79395599D01*
X149692917Y-79435500D01*
X149692919Y-79435500D01*
X149847081Y-79435500D01*
X149847083Y-79435500D01*
X149995994Y-79395599D01*
X150129505Y-79318516D01*
X150238516Y-79209505D01*
X150315599Y-79075994D01*
X150355500Y-78927083D01*
X150355500Y-78927081D01*
X151724499Y-78927081D01*
X151764401Y-79075994D01*
X151841481Y-79209501D01*
X151841489Y-79209511D01*
X151950488Y-79318510D01*
X151950493Y-79318514D01*
X151950495Y-79318516D01*
X151950496Y-79318517D01*
X151950498Y-79318518D01*
X151995842Y-79344697D01*
X152084006Y-79395599D01*
X152232917Y-79435500D01*
X152232919Y-79435500D01*
X152387081Y-79435500D01*
X152387083Y-79435500D01*
X152535994Y-79395599D01*
X152669505Y-79318516D01*
X152778516Y-79209505D01*
X152855599Y-79075994D01*
X152895500Y-78927083D01*
X152895500Y-78927081D01*
X154264499Y-78927081D01*
X154304401Y-79075994D01*
X154381481Y-79209501D01*
X154381489Y-79209511D01*
X154490488Y-79318510D01*
X154490493Y-79318514D01*
X154490495Y-79318516D01*
X154490496Y-79318517D01*
X154490498Y-79318518D01*
X154535842Y-79344697D01*
X154624006Y-79395599D01*
X154772917Y-79435500D01*
X154772919Y-79435500D01*
X154927081Y-79435500D01*
X154927083Y-79435500D01*
X155075994Y-79395599D01*
X155209505Y-79318516D01*
X155318516Y-79209505D01*
X155395599Y-79075994D01*
X155435500Y-78927083D01*
X155435500Y-78927081D01*
X156804499Y-78927081D01*
X156844401Y-79075994D01*
X156921481Y-79209501D01*
X156921489Y-79209511D01*
X157030488Y-79318510D01*
X157030493Y-79318514D01*
X157030495Y-79318516D01*
X157030496Y-79318517D01*
X157030498Y-79318518D01*
X157075842Y-79344697D01*
X157164006Y-79395599D01*
X157312917Y-79435500D01*
X157312919Y-79435500D01*
X157467081Y-79435500D01*
X157467083Y-79435500D01*
X157615994Y-79395599D01*
X157749505Y-79318516D01*
X157858516Y-79209505D01*
X157935599Y-79075994D01*
X157975500Y-78927083D01*
X157975500Y-78927081D01*
X159344499Y-78927081D01*
X159384401Y-79075994D01*
X159461481Y-79209501D01*
X159461489Y-79209511D01*
X159570488Y-79318510D01*
X159570493Y-79318514D01*
X159570495Y-79318516D01*
X159570496Y-79318517D01*
X159570498Y-79318518D01*
X159615842Y-79344697D01*
X159704006Y-79395599D01*
X159852917Y-79435500D01*
X159852919Y-79435500D01*
X160007081Y-79435500D01*
X160007083Y-79435500D01*
X160155994Y-79395599D01*
X160289505Y-79318516D01*
X160398516Y-79209505D01*
X160475599Y-79075994D01*
X160515500Y-78927083D01*
X160515500Y-78927081D01*
X161884499Y-78927081D01*
X161924401Y-79075994D01*
X162001481Y-79209501D01*
X162001489Y-79209511D01*
X162110488Y-79318510D01*
X162110493Y-79318514D01*
X162110495Y-79318516D01*
X162110496Y-79318517D01*
X162110498Y-79318518D01*
X162155842Y-79344697D01*
X162244006Y-79395599D01*
X162392917Y-79435500D01*
X162392919Y-79435500D01*
X162547081Y-79435500D01*
X162547083Y-79435500D01*
X162695994Y-79395599D01*
X162829505Y-79318516D01*
X162938516Y-79209505D01*
X163015599Y-79075994D01*
X163055500Y-78927083D01*
X163055500Y-78927081D01*
X164424499Y-78927081D01*
X164464401Y-79075994D01*
X164541481Y-79209501D01*
X164541489Y-79209511D01*
X164650488Y-79318510D01*
X164650493Y-79318514D01*
X164650495Y-79318516D01*
X164650496Y-79318517D01*
X164650498Y-79318518D01*
X164695842Y-79344697D01*
X164784006Y-79395599D01*
X164932917Y-79435500D01*
X164932919Y-79435500D01*
X165087081Y-79435500D01*
X165087083Y-79435500D01*
X165235994Y-79395599D01*
X165369505Y-79318516D01*
X165478516Y-79209505D01*
X165555599Y-79075994D01*
X165595500Y-78927083D01*
X165595500Y-78927081D01*
X166964499Y-78927081D01*
X167004401Y-79075994D01*
X167081481Y-79209501D01*
X167081489Y-79209511D01*
X167190488Y-79318510D01*
X167190493Y-79318514D01*
X167190495Y-79318516D01*
X167190496Y-79318517D01*
X167190498Y-79318518D01*
X167235842Y-79344697D01*
X167324006Y-79395599D01*
X167472917Y-79435500D01*
X167472919Y-79435500D01*
X167627081Y-79435500D01*
X167627083Y-79435500D01*
X167775994Y-79395599D01*
X167909505Y-79318516D01*
X168018516Y-79209505D01*
X168095599Y-79075994D01*
X168135500Y-78927083D01*
X168135500Y-78927081D01*
X169504499Y-78927081D01*
X169544401Y-79075994D01*
X169621481Y-79209501D01*
X169621489Y-79209511D01*
X169730488Y-79318510D01*
X169730493Y-79318514D01*
X169730495Y-79318516D01*
X169730496Y-79318517D01*
X169730498Y-79318518D01*
X169775842Y-79344697D01*
X169864006Y-79395599D01*
X170012917Y-79435500D01*
X170012919Y-79435500D01*
X170167081Y-79435500D01*
X170167083Y-79435500D01*
X170315994Y-79395599D01*
X170449505Y-79318516D01*
X170558516Y-79209505D01*
X170635599Y-79075994D01*
X170675500Y-78927083D01*
X170675500Y-78927081D01*
X172044499Y-78927081D01*
X172084401Y-79075994D01*
X172161481Y-79209501D01*
X172161489Y-79209511D01*
X172270488Y-79318510D01*
X172270493Y-79318514D01*
X172270495Y-79318516D01*
X172270496Y-79318517D01*
X172270498Y-79318518D01*
X172315842Y-79344697D01*
X172404006Y-79395599D01*
X172552917Y-79435500D01*
X172552919Y-79435500D01*
X172707081Y-79435500D01*
X172707083Y-79435500D01*
X172855994Y-79395599D01*
X172989505Y-79318516D01*
X173098516Y-79209505D01*
X173175599Y-79075994D01*
X173215500Y-78927083D01*
X173215500Y-78927081D01*
X174584499Y-78927081D01*
X174624401Y-79075994D01*
X174701481Y-79209501D01*
X174701489Y-79209511D01*
X174810488Y-79318510D01*
X174810493Y-79318514D01*
X174810495Y-79318516D01*
X174810496Y-79318517D01*
X174810498Y-79318518D01*
X174855842Y-79344697D01*
X174944006Y-79395599D01*
X175092917Y-79435500D01*
X175092919Y-79435500D01*
X175247081Y-79435500D01*
X175247083Y-79435500D01*
X175395994Y-79395599D01*
X175529505Y-79318516D01*
X175638516Y-79209505D01*
X175715599Y-79075994D01*
X175755500Y-78927083D01*
X175755500Y-78927081D01*
X177124499Y-78927081D01*
X177164401Y-79075994D01*
X177241481Y-79209501D01*
X177241489Y-79209511D01*
X177350488Y-79318510D01*
X177350493Y-79318514D01*
X177350495Y-79318516D01*
X177350496Y-79318517D01*
X177350498Y-79318518D01*
X177395842Y-79344697D01*
X177484006Y-79395599D01*
X177632917Y-79435500D01*
X177632919Y-79435500D01*
X177787081Y-79435500D01*
X177787083Y-79435500D01*
X177935994Y-79395599D01*
X178069505Y-79318516D01*
X178178516Y-79209505D01*
X178255599Y-79075994D01*
X178295500Y-78927083D01*
X178295500Y-78927081D01*
X179664499Y-78927081D01*
X179704401Y-79075994D01*
X179781481Y-79209501D01*
X179781489Y-79209511D01*
X179890488Y-79318510D01*
X179890493Y-79318514D01*
X179890495Y-79318516D01*
X179890496Y-79318517D01*
X179890498Y-79318518D01*
X179935842Y-79344697D01*
X180024006Y-79395599D01*
X180172917Y-79435500D01*
X180172919Y-79435500D01*
X180327081Y-79435500D01*
X180327083Y-79435500D01*
X180475994Y-79395599D01*
X180609505Y-79318516D01*
X180718516Y-79209505D01*
X180795599Y-79075994D01*
X180835500Y-78927083D01*
X180835500Y-78772917D01*
X180795599Y-78624006D01*
X180740917Y-78529294D01*
X180718518Y-78490498D01*
X180718510Y-78490488D01*
X180609511Y-78381489D01*
X180609501Y-78381481D01*
X180475994Y-78304401D01*
X180327083Y-78264500D01*
X180172917Y-78264500D01*
X180073643Y-78291100D01*
X180024005Y-78304401D01*
X179890498Y-78381481D01*
X179890488Y-78381489D01*
X179781489Y-78490488D01*
X179781481Y-78490498D01*
X179704401Y-78624005D01*
X179664500Y-78772918D01*
X179664500Y-78927081D01*
X179664499Y-78927081D01*
X178295500Y-78927081D01*
X178295500Y-78772917D01*
X178255599Y-78624006D01*
X178200917Y-78529294D01*
X178178518Y-78490498D01*
X178178510Y-78490488D01*
X178069511Y-78381489D01*
X178069501Y-78381481D01*
X177935994Y-78304401D01*
X177787083Y-78264500D01*
X177632917Y-78264500D01*
X177533643Y-78291100D01*
X177484005Y-78304401D01*
X177350498Y-78381481D01*
X177350488Y-78381489D01*
X177241489Y-78490488D01*
X177241481Y-78490498D01*
X177164401Y-78624005D01*
X177124500Y-78772918D01*
X177124500Y-78927081D01*
X177124499Y-78927081D01*
X175755500Y-78927081D01*
X175755500Y-78772917D01*
X175715599Y-78624006D01*
X175660917Y-78529294D01*
X175638518Y-78490498D01*
X175638510Y-78490488D01*
X175529511Y-78381489D01*
X175529501Y-78381481D01*
X175395994Y-78304401D01*
X175247083Y-78264500D01*
X175092917Y-78264500D01*
X174993643Y-78291100D01*
X174944005Y-78304401D01*
X174810498Y-78381481D01*
X174810488Y-78381489D01*
X174701489Y-78490488D01*
X174701481Y-78490498D01*
X174624401Y-78624005D01*
X174584500Y-78772918D01*
X174584500Y-78927081D01*
X174584499Y-78927081D01*
X173215500Y-78927081D01*
X173215500Y-78772917D01*
X173175599Y-78624006D01*
X173120917Y-78529294D01*
X173098518Y-78490498D01*
X173098510Y-78490488D01*
X172989511Y-78381489D01*
X172989501Y-78381481D01*
X172855994Y-78304401D01*
X172707083Y-78264500D01*
X172552917Y-78264500D01*
X172453643Y-78291100D01*
X172404005Y-78304401D01*
X172270498Y-78381481D01*
X172270488Y-78381489D01*
X172161489Y-78490488D01*
X172161481Y-78490498D01*
X172084401Y-78624005D01*
X172044500Y-78772918D01*
X172044500Y-78927081D01*
X172044499Y-78927081D01*
X170675500Y-78927081D01*
X170675500Y-78772917D01*
X170635599Y-78624006D01*
X170580917Y-78529294D01*
X170558518Y-78490498D01*
X170558510Y-78490488D01*
X170449511Y-78381489D01*
X170449501Y-78381481D01*
X170315994Y-78304401D01*
X170167083Y-78264500D01*
X170012917Y-78264500D01*
X169913643Y-78291100D01*
X169864005Y-78304401D01*
X169730498Y-78381481D01*
X169730488Y-78381489D01*
X169621489Y-78490488D01*
X169621481Y-78490498D01*
X169544401Y-78624005D01*
X169504500Y-78772918D01*
X169504500Y-78927081D01*
X169504499Y-78927081D01*
X168135500Y-78927081D01*
X168135500Y-78772917D01*
X168095599Y-78624006D01*
X168040917Y-78529294D01*
X168018518Y-78490498D01*
X168018510Y-78490488D01*
X167909511Y-78381489D01*
X167909501Y-78381481D01*
X167775994Y-78304401D01*
X167627083Y-78264500D01*
X167472917Y-78264500D01*
X167373643Y-78291100D01*
X167324005Y-78304401D01*
X167190498Y-78381481D01*
X167190488Y-78381489D01*
X167081489Y-78490488D01*
X167081481Y-78490498D01*
X167004401Y-78624005D01*
X166964500Y-78772918D01*
X166964500Y-78927081D01*
X166964499Y-78927081D01*
X165595500Y-78927081D01*
X165595500Y-78772917D01*
X165555599Y-78624006D01*
X165500917Y-78529294D01*
X165478518Y-78490498D01*
X165478510Y-78490488D01*
X165369511Y-78381489D01*
X165369501Y-78381481D01*
X165235994Y-78304401D01*
X165087083Y-78264500D01*
X164932917Y-78264500D01*
X164833643Y-78291100D01*
X164784005Y-78304401D01*
X164650498Y-78381481D01*
X164650488Y-78381489D01*
X164541489Y-78490488D01*
X164541481Y-78490498D01*
X164464401Y-78624005D01*
X164424500Y-78772918D01*
X164424500Y-78927081D01*
X164424499Y-78927081D01*
X163055500Y-78927081D01*
X163055500Y-78772917D01*
X163015599Y-78624006D01*
X162960917Y-78529294D01*
X162938518Y-78490498D01*
X162938510Y-78490488D01*
X162829511Y-78381489D01*
X162829501Y-78381481D01*
X162695994Y-78304401D01*
X162547083Y-78264500D01*
X162392917Y-78264500D01*
X162293643Y-78291100D01*
X162244005Y-78304401D01*
X162110498Y-78381481D01*
X162110488Y-78381489D01*
X162001489Y-78490488D01*
X162001481Y-78490498D01*
X161924401Y-78624005D01*
X161884500Y-78772918D01*
X161884500Y-78927081D01*
X161884499Y-78927081D01*
X160515500Y-78927081D01*
X160515500Y-78772917D01*
X160475599Y-78624006D01*
X160420917Y-78529294D01*
X160398518Y-78490498D01*
X160398510Y-78490488D01*
X160289511Y-78381489D01*
X160289501Y-78381481D01*
X160155994Y-78304401D01*
X160007083Y-78264500D01*
X159852917Y-78264500D01*
X159753643Y-78291100D01*
X159704005Y-78304401D01*
X159570498Y-78381481D01*
X159570488Y-78381489D01*
X159461489Y-78490488D01*
X159461481Y-78490498D01*
X159384401Y-78624005D01*
X159344500Y-78772918D01*
X159344500Y-78927081D01*
X159344499Y-78927081D01*
X157975500Y-78927081D01*
X157975500Y-78772917D01*
X157935599Y-78624006D01*
X157880917Y-78529294D01*
X157858518Y-78490498D01*
X157858510Y-78490488D01*
X157749511Y-78381489D01*
X157749501Y-78381481D01*
X157615994Y-78304401D01*
X157467083Y-78264500D01*
X157312917Y-78264500D01*
X157213643Y-78291100D01*
X157164005Y-78304401D01*
X157030498Y-78381481D01*
X157030488Y-78381489D01*
X156921489Y-78490488D01*
X156921481Y-78490498D01*
X156844401Y-78624005D01*
X156804500Y-78772918D01*
X156804500Y-78927081D01*
X156804499Y-78927081D01*
X155435500Y-78927081D01*
X155435500Y-78772917D01*
X155395599Y-78624006D01*
X155340917Y-78529294D01*
X155318518Y-78490498D01*
X155318510Y-78490488D01*
X155209511Y-78381489D01*
X155209501Y-78381481D01*
X155075994Y-78304401D01*
X154927083Y-78264500D01*
X154772917Y-78264500D01*
X154673643Y-78291100D01*
X154624005Y-78304401D01*
X154490498Y-78381481D01*
X154490488Y-78381489D01*
X154381489Y-78490488D01*
X154381481Y-78490498D01*
X154304401Y-78624005D01*
X154264500Y-78772918D01*
X154264500Y-78927081D01*
X154264499Y-78927081D01*
X152895500Y-78927081D01*
X152895500Y-78772917D01*
X152855599Y-78624006D01*
X152800917Y-78529294D01*
X152778518Y-78490498D01*
X152778510Y-78490488D01*
X152669511Y-78381489D01*
X152669501Y-78381481D01*
X152535994Y-78304401D01*
X152387083Y-78264500D01*
X152232917Y-78264500D01*
X152133643Y-78291100D01*
X152084005Y-78304401D01*
X151950498Y-78381481D01*
X151950488Y-78381489D01*
X151841489Y-78490488D01*
X151841481Y-78490498D01*
X151764401Y-78624005D01*
X151724500Y-78772918D01*
X151724500Y-78927081D01*
X151724499Y-78927081D01*
X150355500Y-78927081D01*
X150355500Y-78772917D01*
X150315599Y-78624006D01*
X150260917Y-78529294D01*
X150238518Y-78490498D01*
X150238510Y-78490488D01*
X150129511Y-78381489D01*
X150129501Y-78381481D01*
X149995994Y-78304401D01*
X149847083Y-78264500D01*
X149692917Y-78264500D01*
X149593643Y-78291100D01*
X149544005Y-78304401D01*
X149410498Y-78381481D01*
X149410488Y-78381489D01*
X149301489Y-78490488D01*
X149301481Y-78490498D01*
X149224401Y-78624005D01*
X149184500Y-78772918D01*
X149184500Y-78927081D01*
X149184499Y-78927081D01*
X147815500Y-78927081D01*
X147815500Y-78772917D01*
X147775599Y-78624006D01*
X147720917Y-78529294D01*
X147698518Y-78490498D01*
X147698510Y-78490488D01*
X147589511Y-78381489D01*
X147589501Y-78381481D01*
X147455994Y-78304401D01*
X147307083Y-78264500D01*
X147152917Y-78264500D01*
X147053643Y-78291100D01*
X147004005Y-78304401D01*
X146870498Y-78381481D01*
X146870488Y-78381489D01*
X146761489Y-78490488D01*
X146761481Y-78490498D01*
X146684401Y-78624005D01*
X146644500Y-78772918D01*
X146644500Y-78927081D01*
X146644499Y-78927081D01*
X145275500Y-78927081D01*
X145275500Y-78772917D01*
X145235599Y-78624006D01*
X145180917Y-78529294D01*
X145158518Y-78490498D01*
X145158510Y-78490488D01*
X145049511Y-78381489D01*
X145049501Y-78381481D01*
X144915994Y-78304401D01*
X144767083Y-78264500D01*
X144612917Y-78264500D01*
X144513643Y-78291100D01*
X144464005Y-78304401D01*
X144330498Y-78381481D01*
X144330488Y-78381489D01*
X144221489Y-78490488D01*
X144221481Y-78490498D01*
X144144401Y-78624005D01*
X144104500Y-78772918D01*
X144104500Y-78927081D01*
X144104499Y-78927081D01*
X142735500Y-78927081D01*
X142735500Y-78772917D01*
X142695599Y-78624006D01*
X142640917Y-78529294D01*
X142618518Y-78490498D01*
X142618510Y-78490488D01*
X142509511Y-78381489D01*
X142509501Y-78381481D01*
X142375994Y-78304401D01*
X142227083Y-78264500D01*
X142072917Y-78264500D01*
X141973643Y-78291100D01*
X141924005Y-78304401D01*
X141790498Y-78381481D01*
X141790488Y-78381489D01*
X141681489Y-78490488D01*
X141681481Y-78490498D01*
X141604401Y-78624005D01*
X141564500Y-78772918D01*
X141564500Y-78927081D01*
X141564499Y-78927081D01*
X141564500Y-78927083D01*
X141604401Y-79075994D01*
X141634722Y-79128511D01*
X141650761Y-79156292D01*
X141667498Y-79225287D01*
X141644277Y-79292379D01*
X141588470Y-79336266D01*
X141517795Y-79343014D01*
X141471639Y-79324056D01*
X141349178Y-79242230D01*
X141168918Y-79167564D01*
X140977558Y-79129500D01*
X140977556Y-79129500D01*
X140782444Y-79129500D01*
X140782441Y-79129500D01*
X140591081Y-79167564D01*
X140591076Y-79167566D01*
X140410821Y-79242230D01*
X140288360Y-79324056D01*
X140220607Y-79345271D01*
X140152140Y-79326488D01*
X140104697Y-79273670D01*
X140093340Y-79203588D01*
X140109239Y-79156291D01*
X140114461Y-79147247D01*
X140155599Y-79075994D01*
X140195500Y-78927083D01*
X140195500Y-78772917D01*
X140155599Y-78624006D01*
X140100917Y-78529294D01*
X140078518Y-78490498D01*
X140078510Y-78490488D01*
X139969511Y-78381489D01*
X139969501Y-78381481D01*
X139835994Y-78304401D01*
X139687083Y-78264500D01*
X139532917Y-78264500D01*
X139433643Y-78291100D01*
X139384005Y-78304401D01*
X139250498Y-78381481D01*
X139250488Y-78381489D01*
X139141489Y-78490488D01*
X139141481Y-78490498D01*
X139064401Y-78624005D01*
X139024500Y-78772918D01*
X139024500Y-78927081D01*
X139024499Y-78927081D01*
X139064401Y-79075994D01*
X139141481Y-79209501D01*
X139141489Y-79209511D01*
X139250488Y-79318510D01*
X139250493Y-79318514D01*
X139250495Y-79318516D01*
X139250496Y-79318517D01*
X139250498Y-79318518D01*
X139295842Y-79344697D01*
X139384006Y-79395599D01*
X139532917Y-79435500D01*
X139532919Y-79435500D01*
X139687081Y-79435500D01*
X139687083Y-79435500D01*
X139835994Y-79395599D01*
X139916291Y-79349238D01*
X139985286Y-79332501D01*
X140052378Y-79355721D01*
X140096265Y-79411528D01*
X140103014Y-79482203D01*
X140084056Y-79528360D01*
X140002230Y-79650821D01*
X139927566Y-79831076D01*
X139927564Y-79831081D01*
X139889500Y-80022441D01*
X139889500Y-80022444D01*
X139889500Y-80217556D01*
X139927564Y-80408918D01*
X140002230Y-80589178D01*
X140073207Y-80695402D01*
X140084056Y-80711639D01*
X140105271Y-80779392D01*
X140086488Y-80847859D01*
X140033671Y-80895302D01*
X139963588Y-80906659D01*
X139916292Y-80890761D01*
X139841983Y-80847859D01*
X139835994Y-80844401D01*
X139687083Y-80804500D01*
X139532917Y-80804500D01*
X139433643Y-80831100D01*
X139384005Y-80844401D01*
X139250498Y-80921481D01*
X139250488Y-80921489D01*
X139141489Y-81030488D01*
X139141481Y-81030498D01*
X139064401Y-81164005D01*
X139061029Y-81176589D01*
X139038732Y-81259805D01*
X139024500Y-81312918D01*
X139024500Y-81467081D01*
X139024499Y-81467081D01*
X138201629Y-81467081D01*
X138151255Y-81411135D01*
X137996752Y-81298882D01*
X137822288Y-81221206D01*
X137635487Y-81181500D01*
X137444513Y-81181500D01*
X137257711Y-81221206D01*
X137083247Y-81298882D01*
X136928744Y-81411135D01*
X136800965Y-81553048D01*
X136800958Y-81553058D01*
X136705476Y-81718438D01*
X136705473Y-81718445D01*
X136646457Y-81900072D01*
X136626496Y-82090000D01*
X136646457Y-82279927D01*
X136705472Y-82461554D01*
X136705475Y-82461559D01*
X136714619Y-82477397D01*
X136731500Y-82540397D01*
X136731500Y-83175500D01*
X136711498Y-83243621D01*
X136657842Y-83290114D01*
X136605500Y-83301500D01*
X136435360Y-83301500D01*
X136284412Y-83326688D01*
X136209211Y-83339237D01*
X136209202Y-83339239D01*
X135992352Y-83413683D01*
X135992350Y-83413685D01*
X135790704Y-83522809D01*
X135790703Y-83522810D01*
X135609766Y-83663639D01*
X135454479Y-83832327D01*
X135329080Y-84024267D01*
X135329073Y-84024279D01*
X135236978Y-84234235D01*
X135236975Y-84234242D01*
X135180693Y-84456495D01*
X135180692Y-84456501D01*
X135180692Y-84456503D01*
X135161758Y-84685000D01*
X131450500Y-84685000D01*
X131450500Y-79453292D01*
X131450673Y-79446698D01*
X131452516Y-79411528D01*
X131466366Y-79147245D01*
X131467744Y-79134131D01*
X131468478Y-79129500D01*
X131514139Y-78841202D01*
X131516881Y-78828306D01*
X131593642Y-78541830D01*
X131597716Y-78529294D01*
X131703999Y-78252416D01*
X131709349Y-78240398D01*
X131844008Y-77976117D01*
X131850589Y-77964719D01*
X132012125Y-77715975D01*
X132019865Y-77705323D01*
X132206516Y-77474827D01*
X132215322Y-77465048D01*
X132425048Y-77255322D01*
X132434827Y-77246516D01*
X132665323Y-77059865D01*
X132675975Y-77052125D01*
X132924719Y-76890589D01*
X132936117Y-76884008D01*
X133200398Y-76749349D01*
X133212416Y-76743999D01*
X133489301Y-76637713D01*
X133501830Y-76633642D01*
X133788310Y-76556880D01*
X133801202Y-76554139D01*
X134094134Y-76507743D01*
X134107245Y-76506366D01*
X134406699Y-76490673D01*
X134413293Y-76490500D01*
X134436929Y-76490500D01*
X193383071Y-76490500D01*
X193406707Y-76490500D01*
X193413301Y-76490673D01*
G37*
%TD.AperFunction*%
%TD*%
M02*
