%TF.GenerationSoftware,KiCad,Pcbnew,9.0.3*%
%TF.CreationDate,2025-07-24T19:54:10+08:00*%
%TF.ProjectId,Photon_Power_Zero_PCB_r1_02,50686f74-6f6e-45f5-906f-7765725f5a65,rev?*%
%TF.SameCoordinates,Original*%
%TF.FileFunction,Copper,L1,Top*%
%TF.FilePolarity,Positive*%
%FSLAX46Y46*%
G04 Gerber Fmt 4.6, Leading zero omitted, Abs format (unit mm)*
G04 Created by KiCad (PCBNEW 9.0.3) date 2025-07-24 19:54:10*
%MOMM*%
%LPD*%
G01*
G04 APERTURE LIST*
G04 Aperture macros list*
%AMRoundRect*
0 Rectangle with rounded corners*
0 $1 Rounding radius*
0 $2 $3 $4 $5 $6 $7 $8 $9 X,Y pos of 4 corners*
0 Add a 4 corners polygon primitive as box body*
4,1,4,$2,$3,$4,$5,$6,$7,$8,$9,$2,$3,0*
0 Add four circle primitives for the rounded corners*
1,1,$1+$1,$2,$3*
1,1,$1+$1,$4,$5*
1,1,$1+$1,$6,$7*
1,1,$1+$1,$8,$9*
0 Add four rect primitives between the rounded corners*
20,1,$1+$1,$2,$3,$4,$5,0*
20,1,$1+$1,$4,$5,$6,$7,0*
20,1,$1+$1,$6,$7,$8,$9,0*
20,1,$1+$1,$8,$9,$2,$3,0*%
G04 Aperture macros list end*
%TA.AperFunction,SMDPad,CuDef*%
%ADD10RoundRect,0.237500X0.237500X-0.250000X0.237500X0.250000X-0.237500X0.250000X-0.237500X-0.250000X0*%
%TD*%
%TA.AperFunction,SMDPad,CuDef*%
%ADD11C,1.000000*%
%TD*%
%TA.AperFunction,SMDPad,CuDef*%
%ADD12R,0.558800X1.981200*%
%TD*%
%TA.AperFunction,SMDPad,CuDef*%
%ADD13RoundRect,0.237500X-0.237500X0.287500X-0.237500X-0.287500X0.237500X-0.287500X0.237500X0.287500X0*%
%TD*%
%TA.AperFunction,SMDPad,CuDef*%
%ADD14RoundRect,0.237500X-0.250000X-0.237500X0.250000X-0.237500X0.250000X0.237500X-0.250000X0.237500X0*%
%TD*%
%TA.AperFunction,SMDPad,CuDef*%
%ADD15R,0.550000X1.000000*%
%TD*%
%TA.AperFunction,SMDPad,CuDef*%
%ADD16R,2.800000X2.400000*%
%TD*%
%TA.AperFunction,SMDPad,CuDef*%
%ADD17R,1.270000X1.680000*%
%TD*%
%TA.AperFunction,SMDPad,CuDef*%
%ADD18R,1.520000X3.050000*%
%TD*%
%TA.AperFunction,SMDPad,CuDef*%
%ADD19R,3.500000X1.000000*%
%TD*%
%TA.AperFunction,SMDPad,CuDef*%
%ADD20R,3.400000X1.500000*%
%TD*%
%TA.AperFunction,SMDPad,CuDef*%
%ADD21R,3.050000X1.520000*%
%TD*%
%TA.AperFunction,ComponentPad*%
%ADD22R,1.700000X1.700000*%
%TD*%
%TA.AperFunction,ComponentPad*%
%ADD23O,1.700000X1.700000*%
%TD*%
%TA.AperFunction,SMDPad,CuDef*%
%ADD24RoundRect,0.237500X0.250000X0.237500X-0.250000X0.237500X-0.250000X-0.237500X0.250000X-0.237500X0*%
%TD*%
%TA.AperFunction,SMDPad,CuDef*%
%ADD25R,0.950000X0.900000*%
%TD*%
%TA.AperFunction,SMDPad,CuDef*%
%ADD26R,1.300000X0.900000*%
%TD*%
%TA.AperFunction,SMDPad,CuDef*%
%ADD27R,1.475000X0.900000*%
%TD*%
%TA.AperFunction,SMDPad,CuDef*%
%ADD28R,3.125000X1.733000*%
%TD*%
%TA.AperFunction,ComponentPad*%
%ADD29C,0.400000*%
%TD*%
%TA.AperFunction,SMDPad,CuDef*%
%ADD30RoundRect,0.007800X-0.122200X0.422200X-0.122200X-0.422200X0.122200X-0.422200X0.122200X0.422200X0*%
%TD*%
%TA.AperFunction,SMDPad,CuDef*%
%ADD31RoundRect,0.007800X0.422200X0.122200X-0.422200X0.122200X-0.422200X-0.122200X0.422200X-0.122200X0*%
%TD*%
%TA.AperFunction,SMDPad,CuDef*%
%ADD32R,1.680000X1.680000*%
%TD*%
%TA.AperFunction,SMDPad,CuDef*%
%ADD33RoundRect,0.150000X-0.150000X-0.700000X0.150000X-0.700000X0.150000X0.700000X-0.150000X0.700000X0*%
%TD*%
%TA.AperFunction,SMDPad,CuDef*%
%ADD34RoundRect,0.250000X-0.250000X-1.100000X0.250000X-1.100000X0.250000X1.100000X-0.250000X1.100000X0*%
%TD*%
%TA.AperFunction,ViaPad*%
%ADD35C,0.800000*%
%TD*%
%TA.AperFunction,ViaPad*%
%ADD36C,0.600000*%
%TD*%
%TA.AperFunction,Conductor*%
%ADD37C,0.200000*%
%TD*%
%TA.AperFunction,Conductor*%
%ADD38C,0.700000*%
%TD*%
%TA.AperFunction,Conductor*%
%ADD39C,0.500000*%
%TD*%
%TA.AperFunction,Conductor*%
%ADD40C,0.250000*%
%TD*%
%TA.AperFunction,Conductor*%
%ADD41C,0.600000*%
%TD*%
%TA.AperFunction,Conductor*%
%ADD42C,0.400000*%
%TD*%
G04 APERTURE END LIST*
D10*
%TO.P,R1,1*%
%TO.N,N/C*%
X140770000Y-90952500D03*
%TO.P,R1,2*%
%TO.N,VccBQ*%
X140770000Y-89127500D03*
%TD*%
D11*
%TO.P,FID1,*%
%TO.N,*%
X133040000Y-99330000D03*
%TD*%
D12*
%TO.P,U1,GND*%
%TO.N,GND*%
X171475000Y-93140000D03*
%TO.P,U1,PA0*%
%TO.N,N/C*%
X172745000Y-93140000D03*
%TO.P,U1,PA1*%
X174015000Y-93140000D03*
%TO.P,U1,PA2*%
X175285000Y-93140000D03*
%TO.P,U1,PA3*%
X176555000Y-93140000D03*
%TO.P,U1,PA4*%
X177825000Y-93140000D03*
%TO.P,U1,PA5*%
X179095000Y-93140000D03*
%TO.P,U1,PA6*%
X179095000Y-98067600D03*
%TO.P,U1,PA7*%
X177825000Y-98067600D03*
%TO.P,U1,PB0*%
X172745000Y-98067600D03*
%TO.P,U1,PB1*%
X174015000Y-98067600D03*
%TO.P,U1,PB2*%
X176555000Y-98067600D03*
%TO.P,U1,PB3/RST*%
X175285000Y-98067600D03*
%TO.P,U1,VCC*%
%TO.N,3v_to_ATtiny*%
X171475000Y-98067600D03*
%TD*%
D13*
%TO.P,D1,1*%
%TO.N,N/C*%
X185910000Y-102780000D03*
%TO.P,D1,2*%
X185910000Y-104530000D03*
%TD*%
D11*
%TO.P,FID4,*%
%TO.N,*%
X193770000Y-78170000D03*
%TD*%
D10*
%TO.P,C1,1*%
%TO.N,GND*%
X149040000Y-94932500D03*
%TO.P,C1,2*%
%TO.N,VccBQ*%
X149040000Y-93107500D03*
%TD*%
D14*
%TO.P,R4,1*%
%TO.N,N/C*%
X152037500Y-88280000D03*
%TO.P,R4,2*%
%TO.N,GND*%
X153862500Y-88280000D03*
%TD*%
D10*
%TO.P,R1,1*%
%TO.N,VccBattery*%
X149340000Y-86752500D03*
%TO.P,R1,2*%
%TO.N,N/C*%
X149340000Y-84927500D03*
%TD*%
D15*
%TO.P,U4,EN*%
%TO.N,N/C*%
X142700000Y-92740000D03*
%TO.P,U4,FLG*%
X142700000Y-90040000D03*
%TO.P,U4,GND*%
%TO.N,GND*%
X143650000Y-90040000D03*
%TO.P,U4,IN*%
%TO.N,VccBQ*%
X144600000Y-92740000D03*
%TO.P,U4,OUT*%
%TO.N,N/C*%
X144600000Y-90040000D03*
%TD*%
D16*
%TO.P,J3,1A*%
%TO.N,VccSolar*%
X185100000Y-97470000D03*
%TO.P,J3,1B*%
X191200000Y-97470000D03*
%TO.P,J3,2*%
%TO.N,GND*%
X191200000Y-86070000D03*
%TO.P,J3,3*%
X185100000Y-86070000D03*
%TD*%
D11*
%TO.P,FID3,*%
%TO.N,*%
X139920000Y-104810000D03*
%TD*%
D10*
%TO.P,R1,1*%
%TO.N,GND*%
X150850000Y-86752500D03*
%TO.P,R1,2*%
%TO.N,N/C*%
X150850000Y-84927500D03*
%TD*%
D17*
%TO.P,REF\u002A\u002A,01*%
%TO.N,5v2RPi*%
X139610000Y-77400000D03*
%TO.P,REF\u002A\u002A,02*%
%TO.N,N/C*%
X139610000Y-82840000D03*
%TO.P,REF\u002A\u002A,03*%
X142150000Y-77400000D03*
%TO.P,REF\u002A\u002A,04*%
X142150000Y-82840000D03*
%TO.P,REF\u002A\u002A,06*%
X144690000Y-82840000D03*
%TO.P,REF\u002A\u002A,07*%
X147230000Y-77400000D03*
%TO.P,REF\u002A\u002A,08*%
X147230000Y-82840000D03*
%TO.P,REF\u002A\u002A,09*%
X149770000Y-77400000D03*
%TO.P,REF\u002A\u002A,11*%
X152310000Y-77400000D03*
%TO.P,REF\u002A\u002A,12*%
X152310000Y-82840000D03*
%TO.P,REF\u002A\u002A,14*%
X154850000Y-82840000D03*
%TO.P,REF\u002A\u002A,15*%
X157390000Y-77400000D03*
%TO.P,REF\u002A\u002A,16*%
X157390000Y-82840000D03*
%TO.P,REF\u002A\u002A,17*%
X159930000Y-77400000D03*
%TO.P,REF\u002A\u002A,18*%
X159930000Y-82840000D03*
%TO.P,REF\u002A\u002A,20*%
X162470000Y-82840000D03*
%TO.P,REF\u002A\u002A,21*%
X165010000Y-77400000D03*
%TO.P,REF\u002A\u002A,22*%
X165010000Y-82840000D03*
%TO.P,REF\u002A\u002A,23*%
X167550000Y-77400000D03*
%TO.P,REF\u002A\u002A,24*%
X167550000Y-82840000D03*
%TO.P,REF\u002A\u002A,25*%
X170090000Y-77400000D03*
%TO.P,REF\u002A\u002A,27*%
X172630000Y-77400000D03*
%TO.P,REF\u002A\u002A,28*%
X172630000Y-82840000D03*
%TO.P,REF\u002A\u002A,30*%
X175170000Y-82840000D03*
%TO.P,REF\u002A\u002A,31*%
X177710000Y-77400000D03*
%TO.P,REF\u002A\u002A,32*%
X177710000Y-82840000D03*
%TO.P,REF\u002A\u002A,34*%
X180250000Y-82840000D03*
%TO.P,REF\u002A\u002A,35*%
X182790000Y-77400000D03*
%TO.P,REF\u002A\u002A,36*%
X182790000Y-82840000D03*
%TO.P,REF\u002A\u002A,37*%
X185330000Y-77400000D03*
%TO.P,REF\u002A\u002A,38*%
X185330000Y-82840000D03*
%TO.P,REF\u002A\u002A,39*%
X187870000Y-77400000D03*
%TO.P,REF\u002A\u002A,GND*%
%TO.N,GND*%
X149770000Y-82840000D03*
X170090000Y-82840000D03*
X187870000Y-82840000D03*
X144690000Y-77400000D03*
X154850000Y-77400000D03*
X162470000Y-77400000D03*
X175170000Y-77400000D03*
X180250000Y-77400000D03*
%TD*%
D10*
%TO.P,C1,1*%
%TO.N,GND*%
X146240000Y-94612500D03*
%TO.P,C1,2*%
%TO.N,VccBQ*%
X146240000Y-92787500D03*
%TD*%
D18*
%TO.P,L1,1*%
%TO.N,N/C*%
X141070000Y-86520000D03*
%TO.P,L1,2*%
X138780000Y-86520000D03*
%TD*%
D11*
%TO.P,FID2,*%
%TO.N,*%
X133040000Y-87720000D03*
%TD*%
D19*
%TO.P,J1,1*%
%TO.N,VccBattery*%
X139190000Y-92590000D03*
%TO.P,J1,2*%
%TO.N,GND*%
X139190000Y-94590000D03*
D20*
%TO.P,J1,S1*%
%TO.N,N/C*%
X133440000Y-90240000D03*
%TO.P,J1,S2*%
X133440000Y-96940000D03*
%TD*%
D11*
%TO.P,FID7,*%
%TO.N,*%
X147200000Y-86360000D03*
%TD*%
D13*
%TO.P,D1,1*%
%TO.N,N/C*%
X177190000Y-102762500D03*
%TO.P,D1,2*%
%TO.N,GND*%
X177190000Y-104512500D03*
%TD*%
D21*
%TO.P,C3,1*%
%TO.N,N/C*%
X143980000Y-88060000D03*
%TO.P,C3,2*%
%TO.N,GND*%
X143980000Y-85770000D03*
%TD*%
D11*
%TO.P,FID5,*%
%TO.N,*%
X194760000Y-98950000D03*
%TD*%
D18*
%TO.P,C3,1*%
%TO.N,5v2RPi*%
X136770000Y-78820000D03*
%TO.P,C3,2*%
%TO.N,GND*%
X134480000Y-78820000D03*
%TD*%
D22*
%TO.P,REF\u002A\u002A,*%
%TO.N,GND*%
X194690000Y-81220000D03*
D23*
%TO.N,VccSolar*%
X194690000Y-83760000D03*
%TD*%
D24*
%TO.P,R4,1*%
%TO.N,GND*%
X155525000Y-95980000D03*
%TO.P,R4,2*%
%TO.N,N/C*%
X153700000Y-95980000D03*
%TD*%
D13*
%TO.P,D1,1*%
%TO.N,N/C*%
X183180000Y-102750000D03*
%TO.P,D1,2*%
X183180000Y-104500000D03*
%TD*%
D25*
%TO.P,D2,A*%
%TO.N,N/C*%
X136550000Y-86260000D03*
%TO.P,D2,K*%
%TO.N,5v2RPi*%
X136550000Y-83110000D03*
%TD*%
D10*
%TO.P,C1,1*%
%TO.N,GND*%
X170070000Y-100352500D03*
%TO.P,C1,2*%
%TO.N,3v_to_ATtiny*%
X170070000Y-98527500D03*
%TD*%
D26*
%TO.P,U2,1*%
%TO.N,GND*%
X167887500Y-101270000D03*
D27*
%TO.P,U2,2*%
%TO.N,VccBQ*%
X167800000Y-99770000D03*
D28*
%TO.P,U2,2.1*%
X165500000Y-99770000D03*
D26*
%TO.P,U2,3*%
%TO.N,3v_to_ATtiny*%
X167887500Y-98270000D03*
%TD*%
D10*
%TO.P,C1,1*%
%TO.N,GND*%
X162440000Y-101712500D03*
%TO.P,C1,2*%
%TO.N,VccBQ*%
X162440000Y-99887500D03*
%TD*%
D14*
%TO.P,R2,1*%
%TO.N,N/C*%
X176175000Y-101170000D03*
%TO.P,R2,2*%
X178000000Y-101170000D03*
%TD*%
%TO.P,R2,1*%
%TO.N,N/C*%
X183170000Y-101140000D03*
%TO.P,R2,2*%
%TO.N,VccBQ*%
X184995000Y-101140000D03*
%TD*%
D24*
%TO.P,R2,1*%
%TO.N,N/C*%
X188325000Y-101140000D03*
%TO.P,R2,2*%
%TO.N,VccBQ*%
X186500000Y-101140000D03*
%TD*%
D10*
%TO.P,C1,1*%
%TO.N,GND*%
X152020000Y-93132500D03*
%TO.P,C1,2*%
%TO.N,VccSolar*%
X152020000Y-91307500D03*
%TD*%
D29*
%TO.P,U3,18*%
%TO.N,GND*%
X149135000Y-90210000D03*
%TO.P,U3,19*%
X149715000Y-90790000D03*
%TO.P,U3,20*%
X148555000Y-90790000D03*
%TO.P,U3,21*%
X149715000Y-89630000D03*
%TO.P,U3,22*%
X148555000Y-89630000D03*
D30*
%TO.P,U3,BATT*%
%TO.N,VccBattery*%
X149385000Y-88775000D03*
%TO.P,U3,Batt*%
X148885000Y-88775000D03*
%TO.P,U3,CE*%
%TO.N,GND*%
X148385000Y-88775000D03*
%TO.P,U3,CHG*%
%TO.N,N/C*%
X148385000Y-91645000D03*
D31*
%TO.P,U3,EN1*%
%TO.N,GND*%
X147700000Y-89960000D03*
%TO.P,U3,EN2*%
%TO.N,VccBQ*%
X147700000Y-89460000D03*
%TO.P,U3,GND*%
%TO.N,GND*%
X147700000Y-90960000D03*
D30*
%TO.P,U3,ILM*%
%TO.N,N/C*%
X149885000Y-91645000D03*
D31*
%TO.P,U3,IN*%
%TO.N,VccSolar*%
X150570000Y-90960000D03*
%TO.P,U3,ISET*%
%TO.N,N/C*%
X150570000Y-89460000D03*
D30*
%TO.P,U3,OUT*%
%TO.N,VccBQ*%
X149385000Y-91645000D03*
X148885000Y-91645000D03*
D31*
%TO.P,U3,PGOOD*%
%TO.N,N/C*%
X147700000Y-90460000D03*
%TO.P,U3,TD*%
X150570000Y-89960000D03*
%TO.P,U3,TMR*%
%TO.N,GND*%
X150570000Y-90460000D03*
D30*
%TO.P,U3,TS*%
%TO.N,N/C*%
X149885000Y-88775000D03*
D32*
%TO.P,U3,Thermal GND*%
%TO.N,GND*%
X149135000Y-90210000D03*
%TD*%
D11*
%TO.P,FID6,*%
%TO.N,*%
X188910000Y-104740000D03*
%TD*%
D14*
%TO.P,R1,1*%
%TO.N,N/C*%
X152040000Y-89790000D03*
%TO.P,R1,2*%
%TO.N,GND*%
X153865000Y-89790000D03*
%TD*%
D13*
%TO.P,D1,1*%
%TO.N,N/C*%
X180140000Y-102727500D03*
%TO.P,D1,2*%
%TO.N,GND*%
X180140000Y-104477500D03*
%TD*%
D15*
%TO.P,U5,GND*%
%TO.N,GND*%
X133490000Y-85310000D03*
%TO.P,U5,NC*%
%TO.N,N/C*%
X132540000Y-82610000D03*
X134440000Y-85310000D03*
%TO.P,U5,SW*%
X132540000Y-85310000D03*
%TO.P,U5,Vout*%
%TO.N,5v2RPi*%
X134440000Y-82610000D03*
%TD*%
D11*
%TO.P,FID7,*%
%TO.N,*%
X159160000Y-88430000D03*
%TD*%
D24*
%TO.P,R1,1*%
%TO.N,N/C*%
X146042500Y-98360000D03*
%TO.P,R1,2*%
%TO.N,GND*%
X144217500Y-98360000D03*
%TD*%
D14*
%TO.P,R2,1*%
%TO.N,N/C*%
X179525000Y-101150000D03*
%TO.P,R2,2*%
X181350000Y-101150000D03*
%TD*%
D33*
%TO.P,J2,1*%
%TO.N,GND*%
X144189000Y-100944000D03*
%TO.P,J2,2*%
%TO.N,N/C*%
X145439000Y-100944000D03*
D34*
%TO.P,J2,MP*%
X142339000Y-104144000D03*
X147289000Y-104144000D03*
%TD*%
D35*
%TO.N,*%
X146769500Y-90980000D03*
D36*
X171000000Y-102460000D03*
D35*
X184080000Y-78830000D03*
X173150000Y-96050000D03*
X142710000Y-93910000D03*
X179105000Y-91670000D03*
D36*
X146042500Y-96610000D03*
D35*
X184510000Y-102320000D03*
X176580000Y-96590000D03*
D36*
X150304878Y-87884878D03*
D35*
X172745000Y-91520000D03*
X181540000Y-102310000D03*
D36*
X151870000Y-84920000D03*
D35*
X146769500Y-91822027D03*
X175120000Y-96620000D03*
X177835000Y-91640000D03*
D36*
X189400000Y-78310000D03*
D35*
%TO.N,5v2RPi*%
X137540000Y-82090000D03*
D36*
%TO.N,GND*%
X178990000Y-77570000D03*
D35*
X149800000Y-95570000D03*
X170050000Y-101330000D03*
X156690000Y-96000000D03*
X176260000Y-104520000D03*
X154812000Y-89770000D03*
X179030000Y-104460000D03*
D36*
X168840000Y-82870000D03*
D35*
X154849500Y-88290000D03*
X152120000Y-94120000D03*
X145880000Y-84850000D03*
D36*
X153790000Y-77400000D03*
X144210000Y-99540000D03*
D35*
X137940000Y-95890000D03*
D36*
X151910000Y-86740000D03*
X161370000Y-101710000D03*
D35*
X150980000Y-82840000D03*
X183850000Y-87820000D03*
X133220498Y-78770000D03*
X132870000Y-84270000D03*
X143420000Y-77580000D03*
X189150000Y-86050000D03*
D36*
X161360000Y-77600000D03*
D35*
X170685000Y-93140000D03*
D36*
X173910000Y-77610000D03*
D35*
X146659500Y-95470000D03*
X143650000Y-90950000D03*
%TO.N,VccSolar*%
X191160000Y-95710000D03*
%TO.N,VccBattery*%
X138310000Y-91430000D03*
D36*
%TO.N,VccBQ*%
X159190000Y-96140000D03*
X156370000Y-93300000D03*
D35*
%TO.N,3v_to_ATtiny*%
X170070000Y-97320000D03*
%TD*%
D37*
%TO.N,*%
X150850000Y-84927500D02*
X151862500Y-84927500D01*
X181510000Y-85355000D02*
X181510000Y-78680000D01*
X177825000Y-100995000D02*
X178000000Y-101170000D01*
X175285000Y-96785000D02*
X175120000Y-96620000D01*
D38*
X144600000Y-90040000D02*
X144600000Y-88675000D01*
D39*
X143980000Y-88060000D02*
X142890000Y-88060000D01*
D37*
X171000000Y-102460000D02*
X172745000Y-100715000D01*
X141682500Y-90040000D02*
X142700000Y-90040000D01*
X179095000Y-98067600D02*
X179095000Y-96875000D01*
X176175000Y-101170000D02*
X176175000Y-101747500D01*
X146769500Y-90980000D02*
X146841726Y-90980000D01*
X146042500Y-96610000D02*
X146042500Y-98360000D01*
X182360000Y-83960000D02*
X182790000Y-83530000D01*
X183180000Y-101150000D02*
X183170000Y-101140000D01*
D39*
X144600000Y-88675000D02*
X143980000Y-88055000D01*
D37*
X187870000Y-77400000D02*
X188490000Y-77400000D01*
X175285000Y-93140000D02*
X175285000Y-91640000D01*
D38*
X142890000Y-88060000D02*
X141070000Y-86240000D01*
D37*
X146769500Y-91822027D02*
X146946527Y-91645000D01*
X181350000Y-101150000D02*
X180295000Y-102205000D01*
X176555000Y-91670000D02*
X176555000Y-91545000D01*
X179095000Y-98067600D02*
X179095000Y-100720000D01*
X179095000Y-91680000D02*
X179105000Y-91670000D01*
X179105000Y-90305000D02*
X179105000Y-91670000D01*
X175285000Y-91640000D02*
X175255000Y-91610000D01*
D40*
X184510000Y-103130000D02*
X185910000Y-104530000D01*
X181540000Y-102860000D02*
X183180000Y-104500000D01*
D37*
X149340000Y-84927500D02*
X150850000Y-84927500D01*
X183000000Y-84740000D02*
X184900000Y-82840000D01*
X176555000Y-91545000D02*
X182360000Y-85740000D01*
X176580000Y-98042600D02*
X176555000Y-98067600D01*
X142700000Y-93900000D02*
X142700000Y-92740000D01*
D40*
X184510000Y-102320000D02*
X184510000Y-103130000D01*
D37*
X146946527Y-91645000D02*
X148385000Y-91645000D01*
X177825000Y-98067600D02*
X177825000Y-100995000D01*
X178270000Y-96050000D02*
X173150000Y-96050000D01*
X140770000Y-90952500D02*
X141682500Y-90040000D01*
X150570000Y-89960000D02*
X151870000Y-89960000D01*
D41*
X132540000Y-85735000D02*
X132540000Y-85310000D01*
X138520000Y-86260000D02*
X138780000Y-86520000D01*
D37*
X151090000Y-94080000D02*
X152990000Y-95980000D01*
X172745000Y-93140000D02*
X172745000Y-91520000D01*
X186960000Y-102505000D02*
X186185000Y-102505000D01*
X151862500Y-84927500D02*
X151870000Y-84920000D01*
X179095000Y-100720000D02*
X179525000Y-101150000D01*
X184080000Y-78650000D02*
X185330000Y-77400000D01*
X184900000Y-82840000D02*
X185330000Y-82840000D01*
X184080000Y-78830000D02*
X184080000Y-78650000D01*
X183000000Y-86410000D02*
X179105000Y-90305000D01*
X176555000Y-93140000D02*
X176555000Y-91670000D01*
X183000000Y-84740000D02*
X183000000Y-86410000D01*
X176175000Y-101747500D02*
X177190000Y-102762500D01*
D41*
X136550000Y-86260000D02*
X133065000Y-86260000D01*
D37*
X150570000Y-89460000D02*
X150750000Y-89460000D01*
X177825000Y-93140000D02*
X177825000Y-91650000D01*
D40*
X174015000Y-91620000D02*
X180250000Y-85385000D01*
D37*
X182790000Y-83530000D02*
X182790000Y-82840000D01*
X183180000Y-102750000D02*
X183180000Y-101150000D01*
X180295000Y-102205000D02*
X180295000Y-102715000D01*
X150750000Y-89460000D02*
X151840000Y-88370000D01*
X177825000Y-91650000D02*
X177835000Y-91640000D01*
X179095000Y-93140000D02*
X179095000Y-91680000D01*
X150304878Y-88355122D02*
X149885000Y-88775000D01*
X151870000Y-89960000D02*
X152040000Y-89790000D01*
X151090000Y-92850000D02*
X151090000Y-94080000D01*
X146050000Y-98367500D02*
X146042500Y-98360000D01*
X186960000Y-102505000D02*
X188325000Y-101140000D01*
X149885000Y-91645000D02*
X151090000Y-92850000D01*
X176555000Y-91670000D02*
X176545000Y-91660000D01*
X172745000Y-100715000D02*
X172745000Y-98067600D01*
X176580000Y-96590000D02*
X176580000Y-98042600D01*
X175285000Y-98067600D02*
X175285000Y-96785000D01*
D41*
X133065000Y-86260000D02*
X132540000Y-85735000D01*
D37*
X152990000Y-95980000D02*
X153700000Y-95980000D01*
X182360000Y-85740000D02*
X182360000Y-83960000D01*
X146841726Y-90980000D02*
X147361726Y-90460000D01*
D40*
X180250000Y-85385000D02*
X180250000Y-82840000D01*
D37*
X175255000Y-91610000D02*
X181510000Y-85355000D01*
X186185000Y-102505000D02*
X185910000Y-102780000D01*
X150304878Y-87884878D02*
X150304878Y-88355122D01*
X147361726Y-90460000D02*
X147700000Y-90460000D01*
X142710000Y-93910000D02*
X142700000Y-93900000D01*
X181510000Y-78680000D02*
X182790000Y-77400000D01*
X179095000Y-96875000D02*
X178270000Y-96050000D01*
D40*
X181540000Y-102310000D02*
X181540000Y-102860000D01*
X174015000Y-93140000D02*
X174015000Y-91620000D01*
D41*
X136550000Y-86260000D02*
X138520000Y-86260000D01*
D37*
X146050000Y-100333000D02*
X146050000Y-98367500D01*
X188490000Y-77400000D02*
X189400000Y-78310000D01*
X146050000Y-100333000D02*
X145439000Y-100944000D01*
D39*
%TO.N,5v2RPi*%
X136550000Y-80900000D02*
X136770000Y-80680000D01*
D41*
X134840000Y-82610000D02*
X134440000Y-82610000D01*
X136550000Y-81620000D02*
X136550000Y-80900000D01*
X137540000Y-82090000D02*
X137060000Y-81610000D01*
X136770000Y-78820000D02*
X136770000Y-80680000D01*
X135775000Y-81675000D02*
X134840000Y-82610000D01*
X137040000Y-78550000D02*
X136770000Y-78820000D01*
X136550000Y-83110000D02*
X136550000Y-81620000D01*
X139190000Y-77400000D02*
X139610000Y-77400000D01*
D38*
X138040000Y-78550000D02*
X139190000Y-77400000D01*
X138040000Y-78550000D02*
X137040000Y-78550000D01*
X138040000Y-78550000D02*
X137780000Y-78550000D01*
D41*
X137060000Y-81610000D02*
X136560000Y-81610000D01*
X135775000Y-81675000D02*
X136770000Y-80680000D01*
D37*
%TO.N,GND*%
X144210000Y-100923000D02*
X144189000Y-100944000D01*
D40*
X149800000Y-95570000D02*
X149800000Y-95380000D01*
D37*
X180080000Y-77570000D02*
X180250000Y-77400000D01*
D40*
X148385000Y-90960000D02*
X148555000Y-90790000D01*
X179030000Y-104460000D02*
X180290000Y-104460000D01*
X133490000Y-85310000D02*
X133490000Y-84890000D01*
X148385000Y-88775000D02*
X148385000Y-89460000D01*
D41*
X161360000Y-77600000D02*
X162270000Y-77600000D01*
D37*
X154839500Y-88280000D02*
X154849500Y-88290000D01*
D40*
X176260000Y-104520000D02*
X177182500Y-104520000D01*
X149800000Y-95380000D02*
X149070000Y-94650000D01*
D37*
X162440000Y-101712500D02*
X161372500Y-101712500D01*
D40*
X152120000Y-93232500D02*
X152020000Y-93132500D01*
D37*
X134430000Y-78770000D02*
X134480000Y-78820000D01*
D42*
X169990000Y-101270000D02*
X170050000Y-101330000D01*
D37*
X143670000Y-90990000D02*
X143680000Y-90980000D01*
X146659500Y-95470000D02*
X146659500Y-95189500D01*
X153865000Y-89790000D02*
X154792000Y-89790000D01*
D39*
X189170000Y-86070000D02*
X189150000Y-86050000D01*
D37*
X144217500Y-99532500D02*
X144210000Y-99540000D01*
X143420000Y-77580000D02*
X144510000Y-77580000D01*
D40*
X148225000Y-89960000D02*
X147700000Y-89960000D01*
D37*
X144510000Y-77580000D02*
X144690000Y-77400000D01*
D39*
X139190000Y-94640000D02*
X137940000Y-95890000D01*
D40*
X133490000Y-84890000D02*
X132870000Y-84270000D01*
D41*
X194690000Y-81220000D02*
X189490000Y-81220000D01*
D37*
X146659500Y-95189500D02*
X146270000Y-94800000D01*
D42*
X144965000Y-85765000D02*
X143260000Y-85765000D01*
D37*
X168870000Y-82840000D02*
X168840000Y-82870000D01*
X150850000Y-86752500D02*
X151897500Y-86752500D01*
D41*
X189490000Y-81220000D02*
X187870000Y-82840000D01*
X185100000Y-86070000D02*
X187870000Y-83300000D01*
D37*
X154792000Y-89790000D02*
X154812000Y-89770000D01*
D42*
X145880000Y-84850000D02*
X144965000Y-85765000D01*
D37*
X153790000Y-77400000D02*
X154850000Y-77400000D01*
X153862500Y-88280000D02*
X154839500Y-88280000D01*
X161372500Y-101712500D02*
X161370000Y-101710000D01*
X173910000Y-77610000D02*
X174960000Y-77610000D01*
X139030000Y-94790000D02*
X139180000Y-94640000D01*
D39*
X170090000Y-82840000D02*
X168870000Y-82840000D01*
D37*
X155525000Y-95980000D02*
X156670000Y-95980000D01*
D41*
X185100000Y-86570000D02*
X183850000Y-87820000D01*
D37*
X174960000Y-77610000D02*
X175170000Y-77400000D01*
X151897500Y-86752500D02*
X151910000Y-86740000D01*
D40*
X147700000Y-90960000D02*
X148385000Y-90960000D01*
D37*
X139190000Y-94590000D02*
X139190000Y-94640000D01*
X150980000Y-82840000D02*
X149770000Y-82840000D01*
D40*
X148385000Y-89460000D02*
X148555000Y-89630000D01*
D42*
X167887500Y-101270000D02*
X169990000Y-101270000D01*
D37*
X144217500Y-98360000D02*
X144217500Y-99532500D01*
D40*
X177182500Y-104520000D02*
X177190000Y-104512500D01*
D39*
X170685000Y-93140000D02*
X171475000Y-93140000D01*
D41*
X187870000Y-83025000D02*
X187870000Y-83280000D01*
X190915000Y-86070000D02*
X187870000Y-83025000D01*
X185100000Y-86070000D02*
X185100000Y-86570000D01*
D37*
X178990000Y-77570000D02*
X180080000Y-77570000D01*
X162270000Y-77600000D02*
X162470000Y-77400000D01*
D40*
X148555000Y-89630000D02*
X148225000Y-89960000D01*
D39*
X191200000Y-86070000D02*
X190915000Y-86070000D01*
D37*
X156670000Y-95980000D02*
X156690000Y-96000000D01*
D40*
X148885000Y-89960000D02*
X149135000Y-90210000D01*
D42*
X133220498Y-78770000D02*
X134430000Y-78770000D01*
D40*
X152120000Y-94120000D02*
X152120000Y-93232500D01*
D42*
X170050000Y-101330000D02*
X170050000Y-100372500D01*
X170050000Y-100372500D02*
X170070000Y-100352500D01*
D37*
X144210000Y-99540000D02*
X144210000Y-100923000D01*
D40*
X150045000Y-90460000D02*
X149715000Y-90790000D01*
D39*
X143680000Y-90980000D02*
X143680000Y-90080000D01*
D41*
X187870000Y-83300000D02*
X187870000Y-83025000D01*
D40*
X150570000Y-90460000D02*
X150045000Y-90460000D01*
D39*
X191200000Y-86070000D02*
X189170000Y-86070000D01*
D41*
%TO.N,VccSolar*%
X185100000Y-97470000D02*
X191200000Y-97470000D01*
D37*
X150860000Y-91240000D02*
X150927500Y-91307500D01*
D41*
X191200000Y-95750000D02*
X191160000Y-95710000D01*
X182360000Y-94730000D02*
X185100000Y-97470000D01*
X191200000Y-97470000D02*
X191200000Y-95750000D01*
X155442500Y-94730000D02*
X182360000Y-94730000D01*
D37*
X150850000Y-91240000D02*
X150860000Y-91240000D01*
D41*
X152020000Y-91307500D02*
X155442500Y-94730000D01*
X194690000Y-92180000D02*
X194690000Y-83760000D01*
X191160000Y-95710000D02*
X194690000Y-92180000D01*
X150927500Y-91307500D02*
X152020000Y-91307500D01*
D39*
X150570000Y-90960000D02*
X150850000Y-91240000D01*
D37*
%TO.N,VccBattery*%
X149340000Y-86792500D02*
X149340000Y-87614000D01*
D39*
X148200000Y-87830000D02*
X144450000Y-91580000D01*
X148885000Y-88775000D02*
X148885000Y-88069000D01*
X139190000Y-92310000D02*
X138310000Y-91430000D01*
X142200000Y-91740000D02*
X144290000Y-91740000D01*
D37*
X140830000Y-92658604D02*
X140830000Y-92770000D01*
D39*
X144290000Y-91740000D02*
X144450000Y-91580000D01*
X149029000Y-88419000D02*
X149385000Y-88775000D01*
X139190000Y-92590000D02*
X141350000Y-92590000D01*
X148885000Y-88275000D02*
X149029000Y-88419000D01*
X148646000Y-87830000D02*
X148200000Y-87830000D01*
X148885000Y-88069000D02*
X148646000Y-87830000D01*
X148885000Y-88069000D02*
X148885000Y-88275000D01*
X139190000Y-92590000D02*
X139190000Y-92310000D01*
D37*
X149340000Y-87614000D02*
X148885000Y-88069000D01*
D39*
X141350000Y-92590000D02*
X142200000Y-91740000D01*
D40*
%TO.N,VccBQ*%
X148885000Y-92755000D02*
X149070000Y-92940000D01*
D42*
X144647500Y-92787500D02*
X144600000Y-92740000D01*
D37*
X146170000Y-92660000D02*
X146290000Y-92780000D01*
D40*
X148860000Y-92780000D02*
X148885000Y-92755000D01*
D37*
X147700000Y-89460000D02*
X147361726Y-89460000D01*
D39*
X148885000Y-91645000D02*
X148885000Y-92755000D01*
X146247500Y-92780000D02*
X146240000Y-92787500D01*
D41*
X148860000Y-92780000D02*
X146247500Y-92780000D01*
D39*
X165500000Y-99770000D02*
X167800000Y-99770000D01*
D42*
X164960000Y-99610000D02*
X166760000Y-99610000D01*
D41*
X146240000Y-92787500D02*
X144647500Y-92787500D01*
D42*
X155950000Y-99880000D02*
X149070000Y-93000000D01*
D37*
X147361726Y-89460000D02*
X146170000Y-90651726D01*
X146170000Y-90651726D02*
X146170000Y-92660000D01*
D42*
X155950000Y-99880000D02*
X163930000Y-99880000D01*
D39*
X148885000Y-91645000D02*
X149385000Y-91645000D01*
X149385000Y-92625000D02*
X149070000Y-92940000D01*
D40*
X162820000Y-99860000D02*
X163740000Y-99860000D01*
D42*
X149070000Y-93000000D02*
X149070000Y-92940000D01*
D39*
X149385000Y-91645000D02*
X149385000Y-92625000D01*
D40*
X162810000Y-99870000D02*
X162820000Y-99860000D01*
D37*
%TO.N,3v_to_ATtiny*%
X169950000Y-98270000D02*
X170010000Y-98330000D01*
D42*
X170070000Y-98527500D02*
X170070000Y-97320000D01*
X171015100Y-98527500D02*
X171475000Y-98067600D01*
X167887500Y-98270000D02*
X169812500Y-98270000D01*
X169812500Y-98270000D02*
X170070000Y-98527500D01*
X170070000Y-98527500D02*
X171015100Y-98527500D01*
%TD*%
%TA.AperFunction,Conductor*%
%TO.N,VccBQ*%
G36*
X146028621Y-76510502D02*
G01*
X146075114Y-76564158D01*
X146086500Y-76616500D01*
X146086500Y-78288649D01*
X146093009Y-78349196D01*
X146093011Y-78349204D01*
X146144110Y-78486202D01*
X146144112Y-78486207D01*
X146231738Y-78603261D01*
X146348792Y-78690887D01*
X146348794Y-78690888D01*
X146348796Y-78690889D01*
X146404091Y-78711513D01*
X146485795Y-78741988D01*
X146485803Y-78741990D01*
X146514457Y-78745070D01*
X146531967Y-78746952D01*
X146597559Y-78774119D01*
X146638051Y-78832436D01*
X146644500Y-78872230D01*
X146644500Y-78927081D01*
X146644499Y-78927081D01*
X146684401Y-79075994D01*
X146761481Y-79209501D01*
X146761489Y-79209511D01*
X146870488Y-79318510D01*
X146870493Y-79318514D01*
X146870495Y-79318516D01*
X146870496Y-79318517D01*
X146870498Y-79318518D01*
X146919912Y-79347047D01*
X147004006Y-79395599D01*
X147152917Y-79435500D01*
X147152919Y-79435500D01*
X147307081Y-79435500D01*
X147307083Y-79435500D01*
X147455994Y-79395599D01*
X147589505Y-79318516D01*
X147698516Y-79209505D01*
X147775599Y-79075994D01*
X147815500Y-78927083D01*
X147815500Y-78872230D01*
X147835502Y-78804109D01*
X147889158Y-78757616D01*
X147928032Y-78746952D01*
X147946790Y-78744935D01*
X147974196Y-78741990D01*
X147974199Y-78741989D01*
X147974201Y-78741989D01*
X148111204Y-78690889D01*
X148191367Y-78630880D01*
X148228261Y-78603261D01*
X148315887Y-78486207D01*
X148315887Y-78486206D01*
X148315889Y-78486204D01*
X148366989Y-78349201D01*
X148368015Y-78339664D01*
X148373499Y-78288649D01*
X148373500Y-78288632D01*
X148373500Y-76616500D01*
X148376091Y-76607674D01*
X148374782Y-76598568D01*
X148385937Y-76574142D01*
X148393502Y-76548379D01*
X148400455Y-76542354D01*
X148404276Y-76533988D01*
X148426861Y-76519473D01*
X148447158Y-76501886D01*
X148457844Y-76499561D01*
X148464002Y-76495604D01*
X148499500Y-76490500D01*
X148500500Y-76490500D01*
X148568621Y-76510502D01*
X148615114Y-76564158D01*
X148626500Y-76616500D01*
X148626500Y-78288649D01*
X148633009Y-78349196D01*
X148633011Y-78349204D01*
X148684110Y-78486202D01*
X148684112Y-78486207D01*
X148771738Y-78603261D01*
X148888792Y-78690887D01*
X148888794Y-78690888D01*
X148888796Y-78690889D01*
X148944091Y-78711513D01*
X149025795Y-78741988D01*
X149025803Y-78741990D01*
X149054457Y-78745070D01*
X149071967Y-78746952D01*
X149137559Y-78774119D01*
X149178051Y-78832436D01*
X149184500Y-78872230D01*
X149184500Y-78927081D01*
X149184499Y-78927081D01*
X149224401Y-79075994D01*
X149301481Y-79209501D01*
X149301489Y-79209511D01*
X149410488Y-79318510D01*
X149410493Y-79318514D01*
X149410495Y-79318516D01*
X149410496Y-79318517D01*
X149410498Y-79318518D01*
X149459912Y-79347047D01*
X149544006Y-79395599D01*
X149692917Y-79435500D01*
X149692919Y-79435500D01*
X149847081Y-79435500D01*
X149847083Y-79435500D01*
X149995994Y-79395599D01*
X150129505Y-79318516D01*
X150238516Y-79209505D01*
X150315599Y-79075994D01*
X150355500Y-78927083D01*
X150355500Y-78872230D01*
X150375502Y-78804109D01*
X150429158Y-78757616D01*
X150468032Y-78746952D01*
X150486790Y-78744935D01*
X150514196Y-78741990D01*
X150514199Y-78741989D01*
X150514201Y-78741989D01*
X150651204Y-78690889D01*
X150731367Y-78630880D01*
X150768261Y-78603261D01*
X150855887Y-78486207D01*
X150855887Y-78486206D01*
X150855889Y-78486204D01*
X150906989Y-78349201D01*
X150908015Y-78339664D01*
X150913499Y-78288649D01*
X150913500Y-78288632D01*
X150913500Y-76616500D01*
X150916091Y-76607674D01*
X150914782Y-76598568D01*
X150925937Y-76574142D01*
X150933502Y-76548379D01*
X150940455Y-76542354D01*
X150944276Y-76533988D01*
X150966861Y-76519473D01*
X150987158Y-76501886D01*
X150997844Y-76499561D01*
X151004002Y-76495604D01*
X151039500Y-76490500D01*
X151040500Y-76490500D01*
X151108621Y-76510502D01*
X151155114Y-76564158D01*
X151166500Y-76616500D01*
X151166500Y-78288649D01*
X151173009Y-78349196D01*
X151173011Y-78349204D01*
X151224110Y-78486202D01*
X151224112Y-78486207D01*
X151311738Y-78603261D01*
X151428792Y-78690887D01*
X151428794Y-78690888D01*
X151428796Y-78690889D01*
X151484091Y-78711513D01*
X151565795Y-78741988D01*
X151565803Y-78741990D01*
X151594457Y-78745070D01*
X151611967Y-78746952D01*
X151677559Y-78774119D01*
X151718051Y-78832436D01*
X151724500Y-78872230D01*
X151724500Y-78927081D01*
X151724499Y-78927081D01*
X151764401Y-79075994D01*
X151841481Y-79209501D01*
X151841489Y-79209511D01*
X151950488Y-79318510D01*
X151950493Y-79318514D01*
X151950495Y-79318516D01*
X151950496Y-79318517D01*
X151950498Y-79318518D01*
X151999912Y-79347047D01*
X152084006Y-79395599D01*
X152232917Y-79435500D01*
X152232919Y-79435500D01*
X152387081Y-79435500D01*
X152387083Y-79435500D01*
X152535994Y-79395599D01*
X152669505Y-79318516D01*
X152778516Y-79209505D01*
X152855599Y-79075994D01*
X152895500Y-78927083D01*
X152895500Y-78872230D01*
X152915502Y-78804109D01*
X152969158Y-78757616D01*
X153008032Y-78746952D01*
X153026790Y-78744935D01*
X153054196Y-78741990D01*
X153054199Y-78741989D01*
X153054201Y-78741989D01*
X153191204Y-78690889D01*
X153271367Y-78630880D01*
X153308261Y-78603261D01*
X153395887Y-78486207D01*
X153395887Y-78486206D01*
X153395889Y-78486204D01*
X153446989Y-78349201D01*
X153448015Y-78339664D01*
X153452585Y-78297145D01*
X153458245Y-78283477D01*
X153459036Y-78268705D01*
X153471557Y-78251336D01*
X153479752Y-78231552D01*
X153491904Y-78223113D01*
X153500556Y-78211114D01*
X153520480Y-78203272D01*
X153538069Y-78191060D01*
X153554054Y-78190059D01*
X153566620Y-78185114D01*
X153602432Y-78187030D01*
X153606799Y-78187898D01*
X153669711Y-78220799D01*
X153704849Y-78282490D01*
X153707507Y-78298011D01*
X153713009Y-78349196D01*
X153713011Y-78349204D01*
X153764110Y-78486202D01*
X153764112Y-78486207D01*
X153851738Y-78603261D01*
X153968792Y-78690887D01*
X153968794Y-78690888D01*
X153968796Y-78690889D01*
X154024091Y-78711513D01*
X154105795Y-78741988D01*
X154105803Y-78741990D01*
X154134457Y-78745070D01*
X154151967Y-78746952D01*
X154217559Y-78774119D01*
X154258051Y-78832436D01*
X154264500Y-78872230D01*
X154264500Y-78927081D01*
X154264499Y-78927081D01*
X154304401Y-79075994D01*
X154381481Y-79209501D01*
X154381489Y-79209511D01*
X154490488Y-79318510D01*
X154490493Y-79318514D01*
X154490495Y-79318516D01*
X154490496Y-79318517D01*
X154490498Y-79318518D01*
X154539912Y-79347047D01*
X154624006Y-79395599D01*
X154772917Y-79435500D01*
X154772919Y-79435500D01*
X154927081Y-79435500D01*
X154927083Y-79435500D01*
X155075994Y-79395599D01*
X155209505Y-79318516D01*
X155318516Y-79209505D01*
X155395599Y-79075994D01*
X155435500Y-78927083D01*
X155435500Y-78872230D01*
X155455502Y-78804109D01*
X155509158Y-78757616D01*
X155548032Y-78746952D01*
X155566790Y-78744935D01*
X155594196Y-78741990D01*
X155594199Y-78741989D01*
X155594201Y-78741989D01*
X155731204Y-78690889D01*
X155811367Y-78630880D01*
X155848261Y-78603261D01*
X155935887Y-78486207D01*
X155935887Y-78486206D01*
X155935889Y-78486204D01*
X155986989Y-78349201D01*
X155988015Y-78339664D01*
X155993499Y-78288649D01*
X155993500Y-78288632D01*
X155993500Y-76616500D01*
X155996091Y-76607674D01*
X155994782Y-76598568D01*
X156005937Y-76574142D01*
X156013502Y-76548379D01*
X156020455Y-76542354D01*
X156024276Y-76533988D01*
X156046861Y-76519473D01*
X156067158Y-76501886D01*
X156077844Y-76499561D01*
X156084002Y-76495604D01*
X156119500Y-76490500D01*
X156120500Y-76490500D01*
X156188621Y-76510502D01*
X156235114Y-76564158D01*
X156246500Y-76616500D01*
X156246500Y-78288649D01*
X156253009Y-78349196D01*
X156253011Y-78349204D01*
X156304110Y-78486202D01*
X156304112Y-78486207D01*
X156391738Y-78603261D01*
X156508792Y-78690887D01*
X156508794Y-78690888D01*
X156508796Y-78690889D01*
X156564091Y-78711513D01*
X156645795Y-78741988D01*
X156645803Y-78741990D01*
X156674457Y-78745070D01*
X156691967Y-78746952D01*
X156757559Y-78774119D01*
X156798051Y-78832436D01*
X156804500Y-78872230D01*
X156804500Y-78927081D01*
X156804499Y-78927081D01*
X156844401Y-79075994D01*
X156921481Y-79209501D01*
X156921489Y-79209511D01*
X157030488Y-79318510D01*
X157030493Y-79318514D01*
X157030495Y-79318516D01*
X157030496Y-79318517D01*
X157030498Y-79318518D01*
X157079912Y-79347047D01*
X157164006Y-79395599D01*
X157312917Y-79435500D01*
X157312919Y-79435500D01*
X157467081Y-79435500D01*
X157467083Y-79435500D01*
X157615994Y-79395599D01*
X157749505Y-79318516D01*
X157858516Y-79209505D01*
X157935599Y-79075994D01*
X157975500Y-78927083D01*
X157975500Y-78872230D01*
X157995502Y-78804109D01*
X158049158Y-78757616D01*
X158088032Y-78746952D01*
X158106790Y-78744935D01*
X158134196Y-78741990D01*
X158134199Y-78741989D01*
X158134201Y-78741989D01*
X158271204Y-78690889D01*
X158351367Y-78630880D01*
X158388261Y-78603261D01*
X158475887Y-78486207D01*
X158475887Y-78486206D01*
X158475889Y-78486204D01*
X158526989Y-78349201D01*
X158528015Y-78339664D01*
X158533499Y-78288649D01*
X158533500Y-78288632D01*
X158533500Y-76616500D01*
X158536091Y-76607674D01*
X158534782Y-76598568D01*
X158545937Y-76574142D01*
X158553502Y-76548379D01*
X158560455Y-76542354D01*
X158564276Y-76533988D01*
X158586861Y-76519473D01*
X158607158Y-76501886D01*
X158617844Y-76499561D01*
X158624002Y-76495604D01*
X158659500Y-76490500D01*
X158660500Y-76490500D01*
X158728621Y-76510502D01*
X158775114Y-76564158D01*
X158786500Y-76616500D01*
X158786500Y-78288649D01*
X158793009Y-78349196D01*
X158793011Y-78349204D01*
X158844110Y-78486202D01*
X158844112Y-78486207D01*
X158931738Y-78603261D01*
X159048792Y-78690887D01*
X159048794Y-78690888D01*
X159048796Y-78690889D01*
X159104091Y-78711513D01*
X159185795Y-78741988D01*
X159185803Y-78741990D01*
X159214457Y-78745070D01*
X159231967Y-78746952D01*
X159297559Y-78774119D01*
X159338051Y-78832436D01*
X159344500Y-78872230D01*
X159344500Y-78927081D01*
X159344499Y-78927081D01*
X159384401Y-79075994D01*
X159461481Y-79209501D01*
X159461489Y-79209511D01*
X159570488Y-79318510D01*
X159570493Y-79318514D01*
X159570495Y-79318516D01*
X159570496Y-79318517D01*
X159570498Y-79318518D01*
X159619912Y-79347047D01*
X159704006Y-79395599D01*
X159852917Y-79435500D01*
X159852919Y-79435500D01*
X160007081Y-79435500D01*
X160007083Y-79435500D01*
X160155994Y-79395599D01*
X160289505Y-79318516D01*
X160398516Y-79209505D01*
X160475599Y-79075994D01*
X160515500Y-78927083D01*
X160515500Y-78872230D01*
X160535502Y-78804109D01*
X160589158Y-78757616D01*
X160628032Y-78746952D01*
X160646790Y-78744935D01*
X160674196Y-78741990D01*
X160674199Y-78741989D01*
X160674201Y-78741989D01*
X160811204Y-78690889D01*
X160891367Y-78630880D01*
X160928261Y-78603261D01*
X161015889Y-78486204D01*
X161023663Y-78465359D01*
X161044137Y-78438008D01*
X161064000Y-78410214D01*
X161065342Y-78409679D01*
X161066208Y-78408523D01*
X161098199Y-78396589D01*
X161129955Y-78383939D01*
X161131852Y-78384036D01*
X161132728Y-78383710D01*
X161165775Y-78385707D01*
X161166031Y-78385756D01*
X161280370Y-78408500D01*
X161282967Y-78408500D01*
X161291451Y-78410150D01*
X161317923Y-78423853D01*
X161345574Y-78435018D01*
X161349254Y-78440073D01*
X161354500Y-78442789D01*
X161366789Y-78464158D01*
X161377855Y-78479358D01*
X161379795Y-78478299D01*
X161384112Y-78486207D01*
X161471738Y-78603261D01*
X161588792Y-78690887D01*
X161588794Y-78690888D01*
X161588796Y-78690889D01*
X161644091Y-78711513D01*
X161725795Y-78741988D01*
X161725803Y-78741990D01*
X161754457Y-78745070D01*
X161771967Y-78746952D01*
X161837559Y-78774119D01*
X161878051Y-78832436D01*
X161884500Y-78872230D01*
X161884500Y-78927081D01*
X161884499Y-78927081D01*
X161924401Y-79075994D01*
X162001481Y-79209501D01*
X162001489Y-79209511D01*
X162110488Y-79318510D01*
X162110493Y-79318514D01*
X162110495Y-79318516D01*
X162110496Y-79318517D01*
X162110498Y-79318518D01*
X162159912Y-79347047D01*
X162244006Y-79395599D01*
X162392917Y-79435500D01*
X162392919Y-79435500D01*
X162547081Y-79435500D01*
X162547083Y-79435500D01*
X162695994Y-79395599D01*
X162829505Y-79318516D01*
X162938516Y-79209505D01*
X163015599Y-79075994D01*
X163055500Y-78927083D01*
X163055500Y-78872230D01*
X163075502Y-78804109D01*
X163129158Y-78757616D01*
X163168032Y-78746952D01*
X163186790Y-78744935D01*
X163214196Y-78741990D01*
X163214199Y-78741989D01*
X163214201Y-78741989D01*
X163351204Y-78690889D01*
X163431367Y-78630880D01*
X163468261Y-78603261D01*
X163555887Y-78486207D01*
X163555887Y-78486206D01*
X163555889Y-78486204D01*
X163606989Y-78349201D01*
X163608015Y-78339664D01*
X163613499Y-78288649D01*
X163613500Y-78288632D01*
X163613500Y-76616500D01*
X163616091Y-76607674D01*
X163614782Y-76598568D01*
X163625937Y-76574142D01*
X163633502Y-76548379D01*
X163640455Y-76542354D01*
X163644276Y-76533988D01*
X163666861Y-76519473D01*
X163687158Y-76501886D01*
X163697844Y-76499561D01*
X163704002Y-76495604D01*
X163739500Y-76490500D01*
X163740500Y-76490500D01*
X163808621Y-76510502D01*
X163855114Y-76564158D01*
X163866500Y-76616500D01*
X163866500Y-78288649D01*
X163873009Y-78349196D01*
X163873011Y-78349204D01*
X163924110Y-78486202D01*
X163924112Y-78486207D01*
X164011738Y-78603261D01*
X164128792Y-78690887D01*
X164128794Y-78690888D01*
X164128796Y-78690889D01*
X164184091Y-78711513D01*
X164265795Y-78741988D01*
X164265803Y-78741990D01*
X164294457Y-78745070D01*
X164311967Y-78746952D01*
X164377559Y-78774119D01*
X164418051Y-78832436D01*
X164424500Y-78872230D01*
X164424500Y-78927081D01*
X164424499Y-78927081D01*
X164464401Y-79075994D01*
X164541481Y-79209501D01*
X164541489Y-79209511D01*
X164650488Y-79318510D01*
X164650493Y-79318514D01*
X164650495Y-79318516D01*
X164650496Y-79318517D01*
X164650498Y-79318518D01*
X164699912Y-79347047D01*
X164784006Y-79395599D01*
X164932917Y-79435500D01*
X164932919Y-79435500D01*
X165087081Y-79435500D01*
X165087083Y-79435500D01*
X165235994Y-79395599D01*
X165369505Y-79318516D01*
X165478516Y-79209505D01*
X165555599Y-79075994D01*
X165595500Y-78927083D01*
X165595500Y-78872230D01*
X165615502Y-78804109D01*
X165669158Y-78757616D01*
X165708032Y-78746952D01*
X165726790Y-78744935D01*
X165754196Y-78741990D01*
X165754199Y-78741989D01*
X165754201Y-78741989D01*
X165891204Y-78690889D01*
X165971367Y-78630880D01*
X166008261Y-78603261D01*
X166095887Y-78486207D01*
X166095887Y-78486206D01*
X166095889Y-78486204D01*
X166146989Y-78349201D01*
X166148015Y-78339664D01*
X166153499Y-78288649D01*
X166153500Y-78288632D01*
X166153500Y-76616500D01*
X166156091Y-76607674D01*
X166154782Y-76598568D01*
X166165937Y-76574142D01*
X166173502Y-76548379D01*
X166180455Y-76542354D01*
X166184276Y-76533988D01*
X166206861Y-76519473D01*
X166227158Y-76501886D01*
X166237844Y-76499561D01*
X166244002Y-76495604D01*
X166279500Y-76490500D01*
X166280500Y-76490500D01*
X166348621Y-76510502D01*
X166395114Y-76564158D01*
X166406500Y-76616500D01*
X166406500Y-78288649D01*
X166413009Y-78349196D01*
X166413011Y-78349204D01*
X166464110Y-78486202D01*
X166464112Y-78486207D01*
X166551738Y-78603261D01*
X166668792Y-78690887D01*
X166668794Y-78690888D01*
X166668796Y-78690889D01*
X166724091Y-78711513D01*
X166805795Y-78741988D01*
X166805803Y-78741990D01*
X166834457Y-78745070D01*
X166851967Y-78746952D01*
X166917559Y-78774119D01*
X166958051Y-78832436D01*
X166964500Y-78872230D01*
X166964500Y-78927081D01*
X166964499Y-78927081D01*
X167004401Y-79075994D01*
X167081481Y-79209501D01*
X167081489Y-79209511D01*
X167190488Y-79318510D01*
X167190493Y-79318514D01*
X167190495Y-79318516D01*
X167190496Y-79318517D01*
X167190498Y-79318518D01*
X167239912Y-79347047D01*
X167324006Y-79395599D01*
X167472917Y-79435500D01*
X167472919Y-79435500D01*
X167627081Y-79435500D01*
X167627083Y-79435500D01*
X167775994Y-79395599D01*
X167909505Y-79318516D01*
X168018516Y-79209505D01*
X168095599Y-79075994D01*
X168135500Y-78927083D01*
X168135500Y-78872230D01*
X168155502Y-78804109D01*
X168209158Y-78757616D01*
X168248032Y-78746952D01*
X168266790Y-78744935D01*
X168294196Y-78741990D01*
X168294199Y-78741989D01*
X168294201Y-78741989D01*
X168431204Y-78690889D01*
X168511367Y-78630880D01*
X168548261Y-78603261D01*
X168635887Y-78486207D01*
X168635887Y-78486206D01*
X168635889Y-78486204D01*
X168686989Y-78349201D01*
X168688015Y-78339664D01*
X168693499Y-78288649D01*
X168693500Y-78288632D01*
X168693500Y-76616500D01*
X168696091Y-76607674D01*
X168694782Y-76598568D01*
X168705937Y-76574142D01*
X168713502Y-76548379D01*
X168720455Y-76542354D01*
X168724276Y-76533988D01*
X168746861Y-76519473D01*
X168767158Y-76501886D01*
X168777844Y-76499561D01*
X168784002Y-76495604D01*
X168819500Y-76490500D01*
X168820500Y-76490500D01*
X168888621Y-76510502D01*
X168935114Y-76564158D01*
X168946500Y-76616500D01*
X168946500Y-78288649D01*
X168953009Y-78349196D01*
X168953011Y-78349204D01*
X169004110Y-78486202D01*
X169004112Y-78486207D01*
X169091738Y-78603261D01*
X169208792Y-78690887D01*
X169208794Y-78690888D01*
X169208796Y-78690889D01*
X169264091Y-78711513D01*
X169345795Y-78741988D01*
X169345803Y-78741990D01*
X169374457Y-78745070D01*
X169391967Y-78746952D01*
X169457559Y-78774119D01*
X169498051Y-78832436D01*
X169504500Y-78872230D01*
X169504500Y-78927081D01*
X169504499Y-78927081D01*
X169544401Y-79075994D01*
X169621481Y-79209501D01*
X169621489Y-79209511D01*
X169730488Y-79318510D01*
X169730493Y-79318514D01*
X169730495Y-79318516D01*
X169730496Y-79318517D01*
X169730498Y-79318518D01*
X169779912Y-79347047D01*
X169864006Y-79395599D01*
X170012917Y-79435500D01*
X170012919Y-79435500D01*
X170167081Y-79435500D01*
X170167083Y-79435500D01*
X170315994Y-79395599D01*
X170449505Y-79318516D01*
X170558516Y-79209505D01*
X170635599Y-79075994D01*
X170675500Y-78927083D01*
X170675500Y-78872230D01*
X170695502Y-78804109D01*
X170749158Y-78757616D01*
X170788032Y-78746952D01*
X170806790Y-78744935D01*
X170834196Y-78741990D01*
X170834199Y-78741989D01*
X170834201Y-78741989D01*
X170971204Y-78690889D01*
X171051367Y-78630880D01*
X171088261Y-78603261D01*
X171175887Y-78486207D01*
X171175887Y-78486206D01*
X171175889Y-78486204D01*
X171226989Y-78349201D01*
X171228015Y-78339664D01*
X171233499Y-78288649D01*
X171233500Y-78288632D01*
X171233500Y-76616500D01*
X171236091Y-76607674D01*
X171234782Y-76598568D01*
X171245937Y-76574142D01*
X171253502Y-76548379D01*
X171260455Y-76542354D01*
X171264276Y-76533988D01*
X171286861Y-76519473D01*
X171307158Y-76501886D01*
X171317844Y-76499561D01*
X171324002Y-76495604D01*
X171359500Y-76490500D01*
X171360500Y-76490500D01*
X171428621Y-76510502D01*
X171475114Y-76564158D01*
X171486500Y-76616500D01*
X171486500Y-78288649D01*
X171493009Y-78349196D01*
X171493011Y-78349204D01*
X171544110Y-78486202D01*
X171544112Y-78486207D01*
X171631738Y-78603261D01*
X171748792Y-78690887D01*
X171748794Y-78690888D01*
X171748796Y-78690889D01*
X171804091Y-78711513D01*
X171885795Y-78741988D01*
X171885803Y-78741990D01*
X171914457Y-78745070D01*
X171931967Y-78746952D01*
X171997559Y-78774119D01*
X172038051Y-78832436D01*
X172044500Y-78872230D01*
X172044500Y-78927081D01*
X172044499Y-78927081D01*
X172084401Y-79075994D01*
X172161481Y-79209501D01*
X172161489Y-79209511D01*
X172270488Y-79318510D01*
X172270493Y-79318514D01*
X172270495Y-79318516D01*
X172270496Y-79318517D01*
X172270498Y-79318518D01*
X172319912Y-79347047D01*
X172404006Y-79395599D01*
X172552917Y-79435500D01*
X172552919Y-79435500D01*
X172707081Y-79435500D01*
X172707083Y-79435500D01*
X172855994Y-79395599D01*
X172989505Y-79318516D01*
X173098516Y-79209505D01*
X173175599Y-79075994D01*
X173215500Y-78927083D01*
X173215500Y-78872230D01*
X173235502Y-78804109D01*
X173289158Y-78757616D01*
X173328032Y-78746952D01*
X173346790Y-78744935D01*
X173374196Y-78741990D01*
X173374199Y-78741989D01*
X173374201Y-78741989D01*
X173511204Y-78690889D01*
X173591367Y-78630880D01*
X173628261Y-78603261D01*
X173671252Y-78545832D01*
X173715889Y-78486204D01*
X173715892Y-78486194D01*
X173717025Y-78484122D01*
X173718709Y-78482437D01*
X173721290Y-78478990D01*
X173721785Y-78479360D01*
X173726706Y-78474439D01*
X173732393Y-78461988D01*
X173751314Y-78449827D01*
X173767224Y-78433916D01*
X173781904Y-78430168D01*
X173792119Y-78423604D01*
X173827617Y-78418500D01*
X173972383Y-78418500D01*
X174040504Y-78438502D01*
X174078407Y-78479216D01*
X174078710Y-78478990D01*
X174080814Y-78481801D01*
X174082975Y-78484122D01*
X174084109Y-78486199D01*
X174084111Y-78486204D01*
X174084113Y-78486207D01*
X174084115Y-78486210D01*
X174171738Y-78603261D01*
X174288792Y-78690887D01*
X174288794Y-78690888D01*
X174288796Y-78690889D01*
X174344091Y-78711513D01*
X174425795Y-78741988D01*
X174425803Y-78741990D01*
X174454457Y-78745070D01*
X174471967Y-78746952D01*
X174537559Y-78774119D01*
X174578051Y-78832436D01*
X174584500Y-78872230D01*
X174584500Y-78927081D01*
X174584499Y-78927081D01*
X174624401Y-79075994D01*
X174701481Y-79209501D01*
X174701489Y-79209511D01*
X174810488Y-79318510D01*
X174810493Y-79318514D01*
X174810495Y-79318516D01*
X174810496Y-79318517D01*
X174810498Y-79318518D01*
X174859912Y-79347047D01*
X174944006Y-79395599D01*
X175092917Y-79435500D01*
X175092919Y-79435500D01*
X175247081Y-79435500D01*
X175247083Y-79435500D01*
X175395994Y-79395599D01*
X175529505Y-79318516D01*
X175638516Y-79209505D01*
X175715599Y-79075994D01*
X175755500Y-78927083D01*
X175755500Y-78872230D01*
X175775502Y-78804109D01*
X175829158Y-78757616D01*
X175868032Y-78746952D01*
X175886790Y-78744935D01*
X175914196Y-78741990D01*
X175914199Y-78741989D01*
X175914201Y-78741989D01*
X176051204Y-78690889D01*
X176131367Y-78630880D01*
X176168261Y-78603261D01*
X176255887Y-78486207D01*
X176255887Y-78486206D01*
X176255889Y-78486204D01*
X176306989Y-78349201D01*
X176308015Y-78339664D01*
X176313499Y-78288649D01*
X176313500Y-78288632D01*
X176313500Y-76616500D01*
X176316091Y-76607674D01*
X176314782Y-76598568D01*
X176325937Y-76574142D01*
X176333502Y-76548379D01*
X176340455Y-76542354D01*
X176344276Y-76533988D01*
X176366861Y-76519473D01*
X176387158Y-76501886D01*
X176397844Y-76499561D01*
X176404002Y-76495604D01*
X176439500Y-76490500D01*
X176440500Y-76490500D01*
X176508621Y-76510502D01*
X176555114Y-76564158D01*
X176566500Y-76616500D01*
X176566500Y-78288649D01*
X176573009Y-78349196D01*
X176573011Y-78349204D01*
X176624110Y-78486202D01*
X176624112Y-78486207D01*
X176711738Y-78603261D01*
X176828792Y-78690887D01*
X176828794Y-78690888D01*
X176828796Y-78690889D01*
X176884091Y-78711513D01*
X176965795Y-78741988D01*
X176965803Y-78741990D01*
X176994457Y-78745070D01*
X177011967Y-78746952D01*
X177077559Y-78774119D01*
X177118051Y-78832436D01*
X177124500Y-78872230D01*
X177124500Y-78927081D01*
X177124499Y-78927081D01*
X177164401Y-79075994D01*
X177241481Y-79209501D01*
X177241489Y-79209511D01*
X177350488Y-79318510D01*
X177350493Y-79318514D01*
X177350495Y-79318516D01*
X177350496Y-79318517D01*
X177350498Y-79318518D01*
X177399912Y-79347047D01*
X177484006Y-79395599D01*
X177632917Y-79435500D01*
X177632919Y-79435500D01*
X177787081Y-79435500D01*
X177787083Y-79435500D01*
X177935994Y-79395599D01*
X178069505Y-79318516D01*
X178178516Y-79209505D01*
X178255599Y-79075994D01*
X178295500Y-78927083D01*
X178295500Y-78872230D01*
X178315502Y-78804109D01*
X178369158Y-78757616D01*
X178408032Y-78746952D01*
X178426790Y-78744935D01*
X178454196Y-78741990D01*
X178454199Y-78741989D01*
X178454201Y-78741989D01*
X178591204Y-78690889D01*
X178671367Y-78630880D01*
X178708261Y-78603261D01*
X178795887Y-78486207D01*
X178795887Y-78486206D01*
X178795889Y-78486204D01*
X178805489Y-78460466D01*
X178818973Y-78442453D01*
X178828320Y-78421988D01*
X178839832Y-78414589D01*
X178848036Y-78403631D01*
X178869119Y-78395767D01*
X178888046Y-78383604D01*
X178910319Y-78380401D01*
X178914557Y-78378821D01*
X178923544Y-78378500D01*
X179036456Y-78378500D01*
X179104577Y-78398502D01*
X179151070Y-78452158D01*
X179154511Y-78460466D01*
X179164111Y-78486204D01*
X179164112Y-78486207D01*
X179251738Y-78603261D01*
X179368792Y-78690887D01*
X179368794Y-78690888D01*
X179368796Y-78690889D01*
X179424091Y-78711513D01*
X179505795Y-78741988D01*
X179505803Y-78741990D01*
X179534457Y-78745070D01*
X179551967Y-78746952D01*
X179617559Y-78774119D01*
X179658051Y-78832436D01*
X179664500Y-78872230D01*
X179664500Y-78927081D01*
X179664499Y-78927081D01*
X179704401Y-79075994D01*
X179781481Y-79209501D01*
X179781489Y-79209511D01*
X179890488Y-79318510D01*
X179890493Y-79318514D01*
X179890495Y-79318516D01*
X179890496Y-79318517D01*
X179890498Y-79318518D01*
X179939912Y-79347047D01*
X180024006Y-79395599D01*
X180172917Y-79435500D01*
X180172919Y-79435500D01*
X180327081Y-79435500D01*
X180327083Y-79435500D01*
X180475994Y-79395599D01*
X180609505Y-79318516D01*
X180643656Y-79284365D01*
X180686405Y-79241617D01*
X180748717Y-79207591D01*
X180819532Y-79212656D01*
X180876368Y-79255203D01*
X180901179Y-79321723D01*
X180901500Y-79330712D01*
X180901500Y-80909288D01*
X180881498Y-80977409D01*
X180827842Y-81023902D01*
X180757568Y-81034006D01*
X180692988Y-81004512D01*
X180686405Y-80998383D01*
X180609511Y-80921489D01*
X180609501Y-80921481D01*
X180475994Y-80844401D01*
X180327083Y-80804500D01*
X180172917Y-80804500D01*
X180073643Y-80831100D01*
X180024005Y-80844401D01*
X179890498Y-80921481D01*
X179890488Y-80921489D01*
X179781489Y-81030488D01*
X179781481Y-81030498D01*
X179704401Y-81164005D01*
X179664500Y-81312918D01*
X179664500Y-81367769D01*
X179644498Y-81435890D01*
X179590842Y-81482383D01*
X179551968Y-81493047D01*
X179505803Y-81498009D01*
X179505795Y-81498011D01*
X179368797Y-81549110D01*
X179368792Y-81549112D01*
X179251738Y-81636738D01*
X179164112Y-81753792D01*
X179164110Y-81753797D01*
X179113011Y-81890795D01*
X179113009Y-81890803D01*
X179106500Y-81951350D01*
X179106500Y-83728649D01*
X179113009Y-83789196D01*
X179113011Y-83789204D01*
X179164110Y-83926202D01*
X179164112Y-83926207D01*
X179251738Y-84043261D01*
X179368792Y-84130887D01*
X179368794Y-84130888D01*
X179368796Y-84130889D01*
X179383990Y-84136556D01*
X179505795Y-84181988D01*
X179513474Y-84183803D01*
X179513058Y-84185560D01*
X179569548Y-84208951D01*
X179610047Y-84267263D01*
X179616500Y-84307070D01*
X179616500Y-85070405D01*
X179596498Y-85138526D01*
X179579595Y-85159500D01*
X173698451Y-91040644D01*
X173636139Y-91074670D01*
X173565324Y-91069605D01*
X173508488Y-91027058D01*
X173504591Y-91021551D01*
X173451100Y-90941497D01*
X173450678Y-90940865D01*
X173324135Y-90814322D01*
X173175336Y-90714898D01*
X173025388Y-90652787D01*
X173010003Y-90646414D01*
X173010001Y-90646413D01*
X173010000Y-90646413D01*
X172901836Y-90624898D01*
X172834481Y-90611500D01*
X172834479Y-90611500D01*
X172655521Y-90611500D01*
X172655518Y-90611500D01*
X172524771Y-90637507D01*
X172480000Y-90646413D01*
X172479999Y-90646413D01*
X172479996Y-90646414D01*
X172348902Y-90700716D01*
X172330818Y-90708207D01*
X172314662Y-90714899D01*
X172165869Y-90814319D01*
X172165862Y-90814324D01*
X172039324Y-90940862D01*
X172039319Y-90940869D01*
X171939899Y-91089662D01*
X171871414Y-91254996D01*
X171836500Y-91430518D01*
X171836500Y-91514900D01*
X171816498Y-91583021D01*
X171762842Y-91629514D01*
X171710500Y-91640900D01*
X171146950Y-91640900D01*
X171086403Y-91647409D01*
X171086395Y-91647411D01*
X170949397Y-91698510D01*
X170949392Y-91698512D01*
X170832338Y-91786138D01*
X170744712Y-91903192D01*
X170744710Y-91903197D01*
X170693611Y-92040195D01*
X170693609Y-92040203D01*
X170687100Y-92100750D01*
X170687100Y-92109877D01*
X170667098Y-92177998D01*
X170613442Y-92224491D01*
X170585682Y-92233456D01*
X170464979Y-92257466D01*
X170420000Y-92266413D01*
X170419998Y-92266413D01*
X170419997Y-92266414D01*
X170346186Y-92296988D01*
X170315985Y-92309498D01*
X170254662Y-92334899D01*
X170105869Y-92434319D01*
X170105862Y-92434324D01*
X169979324Y-92560862D01*
X169979319Y-92560869D01*
X169879899Y-92709662D01*
X169811414Y-92874996D01*
X169776500Y-93050518D01*
X169776500Y-93229481D01*
X169789171Y-93293180D01*
X169809686Y-93396320D01*
X169811414Y-93405003D01*
X169815775Y-93415530D01*
X169879898Y-93570336D01*
X169917718Y-93626938D01*
X169982761Y-93724282D01*
X169980683Y-93725670D01*
X170004146Y-93780910D01*
X169992167Y-93850889D01*
X169944255Y-93903282D01*
X169878994Y-93921500D01*
X155829582Y-93921500D01*
X155761461Y-93901498D01*
X155740487Y-93884595D01*
X153040404Y-91184512D01*
X153006378Y-91122200D01*
X153003499Y-91095417D01*
X153003499Y-91007787D01*
X152993062Y-90905619D01*
X152974920Y-90850869D01*
X152939724Y-90744654D01*
X152937285Y-90673703D01*
X152973593Y-90612693D01*
X153037122Y-90580998D01*
X153107702Y-90588680D01*
X153143158Y-90612405D01*
X153143396Y-90612105D01*
X153147180Y-90615096D01*
X153148425Y-90615930D01*
X153149147Y-90616652D01*
X153149153Y-90616657D01*
X153149154Y-90616658D01*
X153297580Y-90708209D01*
X153463119Y-90763062D01*
X153565287Y-90773500D01*
X154164712Y-90773499D01*
X154266881Y-90763062D01*
X154432420Y-90708209D01*
X154497427Y-90668111D01*
X154565903Y-90649374D01*
X154588153Y-90651772D01*
X154722521Y-90678500D01*
X154722522Y-90678500D01*
X154901478Y-90678500D01*
X154901479Y-90678500D01*
X155077000Y-90643587D01*
X155242336Y-90575102D01*
X155391135Y-90475678D01*
X155517678Y-90349135D01*
X155617102Y-90200336D01*
X155685587Y-90035000D01*
X155720500Y-89859479D01*
X155720500Y-89680521D01*
X155685587Y-89505000D01*
X155617102Y-89339664D01*
X155517678Y-89190865D01*
X155464658Y-89137845D01*
X155430632Y-89075533D01*
X155435697Y-89004718D01*
X155464658Y-88959655D01*
X155504177Y-88920136D01*
X155555178Y-88869135D01*
X155654602Y-88720336D01*
X155723087Y-88555000D01*
X155758000Y-88379479D01*
X155758000Y-88331455D01*
X158159500Y-88331455D01*
X158159500Y-88528544D01*
X158197949Y-88721835D01*
X158197950Y-88721838D01*
X158252125Y-88852629D01*
X158273368Y-88903914D01*
X158382861Y-89067782D01*
X158522218Y-89207139D01*
X158686086Y-89316632D01*
X158868165Y-89392051D01*
X159061459Y-89430500D01*
X159258541Y-89430500D01*
X159451835Y-89392051D01*
X159633914Y-89316632D01*
X159797782Y-89207139D01*
X159937139Y-89067782D01*
X160046632Y-88903914D01*
X160122051Y-88721835D01*
X160160500Y-88528541D01*
X160160500Y-88331459D01*
X160122051Y-88138165D01*
X160046632Y-87956086D01*
X159937139Y-87792218D01*
X159797782Y-87652861D01*
X159633914Y-87543368D01*
X159568329Y-87516202D01*
X159451838Y-87467950D01*
X159451835Y-87467949D01*
X159258544Y-87429500D01*
X159258541Y-87429500D01*
X159061459Y-87429500D01*
X159061455Y-87429500D01*
X158868164Y-87467949D01*
X158868161Y-87467950D01*
X158686085Y-87543368D01*
X158522222Y-87652858D01*
X158522215Y-87652863D01*
X158382863Y-87792215D01*
X158382858Y-87792222D01*
X158273368Y-87956085D01*
X158197950Y-88138161D01*
X158197949Y-88138164D01*
X158159500Y-88331455D01*
X155758000Y-88331455D01*
X155758000Y-88200521D01*
X155723087Y-88025000D01*
X155654602Y-87859664D01*
X155555178Y-87710865D01*
X155428635Y-87584322D01*
X155279836Y-87484898D01*
X155142862Y-87428161D01*
X155114503Y-87416414D01*
X155114501Y-87416413D01*
X155114500Y-87416413D01*
X155026145Y-87398838D01*
X154938981Y-87381500D01*
X154938979Y-87381500D01*
X154760021Y-87381500D01*
X154760015Y-87381500D01*
X154583149Y-87416681D01*
X154512435Y-87410353D01*
X154492425Y-87400345D01*
X154429920Y-87361791D01*
X154264381Y-87306938D01*
X154264379Y-87306937D01*
X154264377Y-87306937D01*
X154162221Y-87296500D01*
X153562787Y-87296500D01*
X153460619Y-87306937D01*
X153295079Y-87361791D01*
X153146653Y-87453342D01*
X153146647Y-87453347D01*
X153039095Y-87560900D01*
X152976783Y-87594926D01*
X152905968Y-87589861D01*
X152860905Y-87560900D01*
X152753352Y-87453347D01*
X152753344Y-87453340D01*
X152618398Y-87370104D01*
X152570921Y-87317318D01*
X152559518Y-87247243D01*
X152579780Y-87192864D01*
X152626483Y-87122968D01*
X152687430Y-86975831D01*
X152718500Y-86819630D01*
X152718500Y-86660370D01*
X152687430Y-86504169D01*
X152626483Y-86357032D01*
X152538003Y-86224611D01*
X152538001Y-86224609D01*
X152537996Y-86224603D01*
X152425396Y-86112003D01*
X152425390Y-86111998D01*
X152425389Y-86111997D01*
X152292968Y-86023517D01*
X152145831Y-85962570D01*
X152080626Y-85949600D01*
X152017717Y-85916692D01*
X151982586Y-85854996D01*
X151986387Y-85784102D01*
X152027913Y-85726516D01*
X152080625Y-85702443D01*
X152105831Y-85697430D01*
X152252968Y-85636483D01*
X152385389Y-85548003D01*
X152498003Y-85435389D01*
X152586483Y-85302968D01*
X152647430Y-85155831D01*
X152678500Y-84999630D01*
X152678500Y-84840370D01*
X152647430Y-84684169D01*
X152586483Y-84537032D01*
X152498003Y-84404611D01*
X152498001Y-84404609D01*
X152497996Y-84404603D01*
X152496988Y-84403595D01*
X152496628Y-84402936D01*
X152494072Y-84399821D01*
X152494662Y-84399336D01*
X152462962Y-84341283D01*
X152468027Y-84270468D01*
X152510574Y-84213632D01*
X152577094Y-84188821D01*
X152586083Y-84188500D01*
X152993632Y-84188500D01*
X152993638Y-84188500D01*
X152993645Y-84188499D01*
X152993649Y-84188499D01*
X153054196Y-84181990D01*
X153054199Y-84181989D01*
X153054201Y-84181989D01*
X153191204Y-84130889D01*
X153248054Y-84088332D01*
X153308261Y-84043261D01*
X153395887Y-83926207D01*
X153395887Y-83926206D01*
X153395889Y-83926204D01*
X153443868Y-83797568D01*
X153446988Y-83789204D01*
X153446990Y-83789196D01*
X153453499Y-83728649D01*
X153453500Y-83728632D01*
X153453500Y-81951367D01*
X153453499Y-81951350D01*
X153706500Y-81951350D01*
X153706500Y-83728649D01*
X153713009Y-83789196D01*
X153713011Y-83789204D01*
X153764110Y-83926202D01*
X153764112Y-83926207D01*
X153851738Y-84043261D01*
X153968792Y-84130887D01*
X153968794Y-84130888D01*
X153968796Y-84130889D01*
X153983990Y-84136556D01*
X154105795Y-84181988D01*
X154105803Y-84181990D01*
X154166350Y-84188499D01*
X154166355Y-84188499D01*
X154166362Y-84188500D01*
X154166368Y-84188500D01*
X155533632Y-84188500D01*
X155533638Y-84188500D01*
X155533645Y-84188499D01*
X155533649Y-84188499D01*
X155594196Y-84181990D01*
X155594199Y-84181989D01*
X155594201Y-84181989D01*
X155731204Y-84130889D01*
X155788054Y-84088332D01*
X155848261Y-84043261D01*
X155935887Y-83926207D01*
X155935887Y-83926206D01*
X155935889Y-83926204D01*
X155983868Y-83797568D01*
X155986988Y-83789204D01*
X155986990Y-83789196D01*
X155993499Y-83728649D01*
X155993500Y-83728632D01*
X155993500Y-81951367D01*
X155993499Y-81951350D01*
X156246500Y-81951350D01*
X156246500Y-83728649D01*
X156253009Y-83789196D01*
X156253011Y-83789204D01*
X156304110Y-83926202D01*
X156304112Y-83926207D01*
X156391738Y-84043261D01*
X156508792Y-84130887D01*
X156508794Y-84130888D01*
X156508796Y-84130889D01*
X156523990Y-84136556D01*
X156645795Y-84181988D01*
X156645803Y-84181990D01*
X156706350Y-84188499D01*
X156706355Y-84188499D01*
X156706362Y-84188500D01*
X156706368Y-84188500D01*
X158073632Y-84188500D01*
X158073638Y-84188500D01*
X158073645Y-84188499D01*
X158073649Y-84188499D01*
X158134196Y-84181990D01*
X158134199Y-84181989D01*
X158134201Y-84181989D01*
X158271204Y-84130889D01*
X158328054Y-84088332D01*
X158388261Y-84043261D01*
X158475887Y-83926207D01*
X158475887Y-83926206D01*
X158475889Y-83926204D01*
X158523868Y-83797568D01*
X158526988Y-83789204D01*
X158526990Y-83789196D01*
X158533499Y-83728649D01*
X158533500Y-83728632D01*
X158533500Y-81951367D01*
X158533499Y-81951350D01*
X158786500Y-81951350D01*
X158786500Y-83728649D01*
X158793009Y-83789196D01*
X158793011Y-83789204D01*
X158844110Y-83926202D01*
X158844112Y-83926207D01*
X158931738Y-84043261D01*
X159048792Y-84130887D01*
X159048794Y-84130888D01*
X159048796Y-84130889D01*
X159063990Y-84136556D01*
X159185795Y-84181988D01*
X159185803Y-84181990D01*
X159246350Y-84188499D01*
X159246355Y-84188499D01*
X159246362Y-84188500D01*
X159246368Y-84188500D01*
X160613632Y-84188500D01*
X160613638Y-84188500D01*
X160613645Y-84188499D01*
X160613649Y-84188499D01*
X160674196Y-84181990D01*
X160674199Y-84181989D01*
X160674201Y-84181989D01*
X160811204Y-84130889D01*
X160868054Y-84088332D01*
X160928261Y-84043261D01*
X161015887Y-83926207D01*
X161015887Y-83926206D01*
X161015889Y-83926204D01*
X161063868Y-83797568D01*
X161066988Y-83789204D01*
X161066990Y-83789196D01*
X161073499Y-83728649D01*
X161073500Y-83728632D01*
X161073500Y-81951367D01*
X161073499Y-81951350D01*
X161326500Y-81951350D01*
X161326500Y-83728649D01*
X161333009Y-83789196D01*
X161333011Y-83789204D01*
X161384110Y-83926202D01*
X161384112Y-83926207D01*
X161471738Y-84043261D01*
X161588792Y-84130887D01*
X161588794Y-84130888D01*
X161588796Y-84130889D01*
X161603990Y-84136556D01*
X161725795Y-84181988D01*
X161725803Y-84181990D01*
X161786350Y-84188499D01*
X161786355Y-84188499D01*
X161786362Y-84188500D01*
X161786368Y-84188500D01*
X163153632Y-84188500D01*
X163153638Y-84188500D01*
X163153645Y-84188499D01*
X163153649Y-84188499D01*
X163214196Y-84181990D01*
X163214199Y-84181989D01*
X163214201Y-84181989D01*
X163351204Y-84130889D01*
X163408054Y-84088332D01*
X163468261Y-84043261D01*
X163555887Y-83926207D01*
X163555887Y-83926206D01*
X163555889Y-83926204D01*
X163603868Y-83797568D01*
X163606988Y-83789204D01*
X163606990Y-83789196D01*
X163613499Y-83728649D01*
X163613500Y-83728632D01*
X163613500Y-81951367D01*
X163613499Y-81951350D01*
X163866500Y-81951350D01*
X163866500Y-83728649D01*
X163873009Y-83789196D01*
X163873011Y-83789204D01*
X163924110Y-83926202D01*
X163924112Y-83926207D01*
X164011738Y-84043261D01*
X164128792Y-84130887D01*
X164128794Y-84130888D01*
X164128796Y-84130889D01*
X164143990Y-84136556D01*
X164265795Y-84181988D01*
X164265803Y-84181990D01*
X164326350Y-84188499D01*
X164326355Y-84188499D01*
X164326362Y-84188500D01*
X164326368Y-84188500D01*
X165693632Y-84188500D01*
X165693638Y-84188500D01*
X165693645Y-84188499D01*
X165693649Y-84188499D01*
X165754196Y-84181990D01*
X165754199Y-84181989D01*
X165754201Y-84181989D01*
X165891204Y-84130889D01*
X165948054Y-84088332D01*
X166008261Y-84043261D01*
X166095887Y-83926207D01*
X166095887Y-83926206D01*
X166095889Y-83926204D01*
X166143868Y-83797568D01*
X166146988Y-83789204D01*
X166146990Y-83789196D01*
X166153499Y-83728649D01*
X166153500Y-83728632D01*
X166153500Y-81951367D01*
X166153499Y-81951350D01*
X166406500Y-81951350D01*
X166406500Y-83728649D01*
X166413009Y-83789196D01*
X166413011Y-83789204D01*
X166464110Y-83926202D01*
X166464112Y-83926207D01*
X166551738Y-84043261D01*
X166668792Y-84130887D01*
X166668794Y-84130888D01*
X166668796Y-84130889D01*
X166683990Y-84136556D01*
X166805795Y-84181988D01*
X166805803Y-84181990D01*
X166866350Y-84188499D01*
X166866355Y-84188499D01*
X166866362Y-84188500D01*
X166866368Y-84188500D01*
X168233632Y-84188500D01*
X168233638Y-84188500D01*
X168233645Y-84188499D01*
X168233649Y-84188499D01*
X168294196Y-84181990D01*
X168294199Y-84181989D01*
X168294201Y-84181989D01*
X168431204Y-84130889D01*
X168488054Y-84088332D01*
X168548261Y-84043261D01*
X168635887Y-83926207D01*
X168635887Y-83926206D01*
X168635889Y-83926204D01*
X168683868Y-83797568D01*
X168686988Y-83789204D01*
X168687450Y-83787247D01*
X168687353Y-83786568D01*
X168687888Y-83785395D01*
X168688803Y-83781526D01*
X168689572Y-83781707D01*
X168701204Y-83756238D01*
X168713965Y-83725436D01*
X168715879Y-83724107D01*
X168716847Y-83721988D01*
X168744892Y-83703964D01*
X168772284Y-83684947D01*
X168775224Y-83684470D01*
X168776573Y-83683604D01*
X168812071Y-83678500D01*
X168827929Y-83678500D01*
X168896050Y-83698502D01*
X168942543Y-83752158D01*
X168950636Y-83781658D01*
X168951197Y-83781526D01*
X168953011Y-83789204D01*
X169004110Y-83926202D01*
X169004112Y-83926207D01*
X169091738Y-84043261D01*
X169208792Y-84130887D01*
X169208794Y-84130888D01*
X169208796Y-84130889D01*
X169223990Y-84136556D01*
X169345795Y-84181988D01*
X169345803Y-84181990D01*
X169406350Y-84188499D01*
X169406355Y-84188499D01*
X169406362Y-84188500D01*
X169406368Y-84188500D01*
X170773632Y-84188500D01*
X170773638Y-84188500D01*
X170773645Y-84188499D01*
X170773649Y-84188499D01*
X170834196Y-84181990D01*
X170834199Y-84181989D01*
X170834201Y-84181989D01*
X170971204Y-84130889D01*
X171028054Y-84088332D01*
X171088261Y-84043261D01*
X171175887Y-83926207D01*
X171175887Y-83926206D01*
X171175889Y-83926204D01*
X171223868Y-83797568D01*
X171226988Y-83789204D01*
X171226990Y-83789196D01*
X171233499Y-83728649D01*
X171233500Y-83728632D01*
X171233500Y-81951367D01*
X171233499Y-81951350D01*
X171486500Y-81951350D01*
X171486500Y-83728649D01*
X171493009Y-83789196D01*
X171493011Y-83789204D01*
X171544110Y-83926202D01*
X171544112Y-83926207D01*
X171631738Y-84043261D01*
X171748792Y-84130887D01*
X171748794Y-84130888D01*
X171748796Y-84130889D01*
X171763990Y-84136556D01*
X171885795Y-84181988D01*
X171885803Y-84181990D01*
X171946350Y-84188499D01*
X171946355Y-84188499D01*
X171946362Y-84188500D01*
X171946368Y-84188500D01*
X173313632Y-84188500D01*
X173313638Y-84188500D01*
X173313645Y-84188499D01*
X173313649Y-84188499D01*
X173374196Y-84181990D01*
X173374199Y-84181989D01*
X173374201Y-84181989D01*
X173511204Y-84130889D01*
X173568054Y-84088332D01*
X173628261Y-84043261D01*
X173715887Y-83926207D01*
X173715887Y-83926206D01*
X173715889Y-83926204D01*
X173763868Y-83797568D01*
X173766988Y-83789204D01*
X173766990Y-83789196D01*
X173773499Y-83728649D01*
X173773500Y-83728632D01*
X173773500Y-81951367D01*
X173773499Y-81951350D01*
X174026500Y-81951350D01*
X174026500Y-83728649D01*
X174033009Y-83789196D01*
X174033011Y-83789204D01*
X174084110Y-83926202D01*
X174084112Y-83926207D01*
X174171738Y-84043261D01*
X174288792Y-84130887D01*
X174288794Y-84130888D01*
X174288796Y-84130889D01*
X174303990Y-84136556D01*
X174425795Y-84181988D01*
X174425803Y-84181990D01*
X174486350Y-84188499D01*
X174486355Y-84188499D01*
X174486362Y-84188500D01*
X174486368Y-84188500D01*
X175853632Y-84188500D01*
X175853638Y-84188500D01*
X175853645Y-84188499D01*
X175853649Y-84188499D01*
X175914196Y-84181990D01*
X175914199Y-84181989D01*
X175914201Y-84181989D01*
X176051204Y-84130889D01*
X176108054Y-84088332D01*
X176168261Y-84043261D01*
X176255887Y-83926207D01*
X176255887Y-83926206D01*
X176255889Y-83926204D01*
X176303868Y-83797568D01*
X176306988Y-83789204D01*
X176306990Y-83789196D01*
X176313499Y-83728649D01*
X176313500Y-83728632D01*
X176313500Y-81951367D01*
X176313499Y-81951350D01*
X176566500Y-81951350D01*
X176566500Y-83728649D01*
X176573009Y-83789196D01*
X176573011Y-83789204D01*
X176624110Y-83926202D01*
X176624112Y-83926207D01*
X176711738Y-84043261D01*
X176828792Y-84130887D01*
X176828794Y-84130888D01*
X176828796Y-84130889D01*
X176843990Y-84136556D01*
X176965795Y-84181988D01*
X176965803Y-84181990D01*
X177026350Y-84188499D01*
X177026355Y-84188499D01*
X177026362Y-84188500D01*
X177026368Y-84188500D01*
X178393632Y-84188500D01*
X178393638Y-84188500D01*
X178393645Y-84188499D01*
X178393649Y-84188499D01*
X178454196Y-84181990D01*
X178454199Y-84181989D01*
X178454201Y-84181989D01*
X178591204Y-84130889D01*
X178648054Y-84088332D01*
X178708261Y-84043261D01*
X178795887Y-83926207D01*
X178795887Y-83926206D01*
X178795889Y-83926204D01*
X178843868Y-83797568D01*
X178846988Y-83789204D01*
X178846990Y-83789196D01*
X178853499Y-83728649D01*
X178853500Y-83728632D01*
X178853500Y-81951367D01*
X178853499Y-81951350D01*
X178846990Y-81890803D01*
X178846988Y-81890795D01*
X178795889Y-81753797D01*
X178795887Y-81753792D01*
X178708261Y-81636738D01*
X178591207Y-81549112D01*
X178591202Y-81549110D01*
X178454204Y-81498011D01*
X178454196Y-81498009D01*
X178408032Y-81493047D01*
X178342440Y-81465878D01*
X178301948Y-81407561D01*
X178295500Y-81367769D01*
X178295500Y-81312918D01*
X178273121Y-81229399D01*
X178255599Y-81164006D01*
X178200513Y-81068595D01*
X178178518Y-81030498D01*
X178178510Y-81030488D01*
X178069511Y-80921489D01*
X178069501Y-80921481D01*
X177935994Y-80844401D01*
X177787083Y-80804500D01*
X177632917Y-80804500D01*
X177533643Y-80831100D01*
X177484005Y-80844401D01*
X177350498Y-80921481D01*
X177350488Y-80921489D01*
X177241489Y-81030488D01*
X177241481Y-81030498D01*
X177164401Y-81164005D01*
X177124500Y-81312918D01*
X177124500Y-81367769D01*
X177104498Y-81435890D01*
X177050842Y-81482383D01*
X177011968Y-81493047D01*
X176965803Y-81498009D01*
X176965795Y-81498011D01*
X176828797Y-81549110D01*
X176828792Y-81549112D01*
X176711738Y-81636738D01*
X176624112Y-81753792D01*
X176624110Y-81753797D01*
X176573011Y-81890795D01*
X176573009Y-81890803D01*
X176566500Y-81951350D01*
X176313499Y-81951350D01*
X176306990Y-81890803D01*
X176306988Y-81890795D01*
X176255889Y-81753797D01*
X176255887Y-81753792D01*
X176168261Y-81636738D01*
X176051207Y-81549112D01*
X176051202Y-81549110D01*
X175914204Y-81498011D01*
X175914196Y-81498009D01*
X175868032Y-81493047D01*
X175802440Y-81465878D01*
X175761948Y-81407561D01*
X175755500Y-81367769D01*
X175755500Y-81312918D01*
X175733121Y-81229399D01*
X175715599Y-81164006D01*
X175660513Y-81068595D01*
X175638518Y-81030498D01*
X175638510Y-81030488D01*
X175529511Y-80921489D01*
X175529501Y-80921481D01*
X175395994Y-80844401D01*
X175247083Y-80804500D01*
X175092917Y-80804500D01*
X174993643Y-80831100D01*
X174944005Y-80844401D01*
X174810498Y-80921481D01*
X174810488Y-80921489D01*
X174701489Y-81030488D01*
X174701481Y-81030498D01*
X174624401Y-81164005D01*
X174584500Y-81312918D01*
X174584500Y-81367769D01*
X174564498Y-81435890D01*
X174510842Y-81482383D01*
X174471968Y-81493047D01*
X174425803Y-81498009D01*
X174425795Y-81498011D01*
X174288797Y-81549110D01*
X174288792Y-81549112D01*
X174171738Y-81636738D01*
X174084112Y-81753792D01*
X174084110Y-81753797D01*
X174033011Y-81890795D01*
X174033009Y-81890803D01*
X174026500Y-81951350D01*
X173773499Y-81951350D01*
X173766990Y-81890803D01*
X173766988Y-81890795D01*
X173715889Y-81753797D01*
X173715887Y-81753792D01*
X173628261Y-81636738D01*
X173511207Y-81549112D01*
X173511202Y-81549110D01*
X173374204Y-81498011D01*
X173374196Y-81498009D01*
X173328032Y-81493047D01*
X173262440Y-81465878D01*
X173221948Y-81407561D01*
X173215500Y-81367769D01*
X173215500Y-81312918D01*
X173193121Y-81229399D01*
X173175599Y-81164006D01*
X173120513Y-81068595D01*
X173098518Y-81030498D01*
X173098510Y-81030488D01*
X172989511Y-80921489D01*
X172989501Y-80921481D01*
X172855994Y-80844401D01*
X172707083Y-80804500D01*
X172552917Y-80804500D01*
X172453643Y-80831100D01*
X172404005Y-80844401D01*
X172270498Y-80921481D01*
X172270488Y-80921489D01*
X172161489Y-81030488D01*
X172161481Y-81030498D01*
X172084401Y-81164005D01*
X172044500Y-81312918D01*
X172044500Y-81367769D01*
X172024498Y-81435890D01*
X171970842Y-81482383D01*
X171931968Y-81493047D01*
X171885803Y-81498009D01*
X171885795Y-81498011D01*
X171748797Y-81549110D01*
X171748792Y-81549112D01*
X171631738Y-81636738D01*
X171544112Y-81753792D01*
X171544110Y-81753797D01*
X171493011Y-81890795D01*
X171493009Y-81890803D01*
X171486500Y-81951350D01*
X171233499Y-81951350D01*
X171226990Y-81890803D01*
X171226988Y-81890795D01*
X171175889Y-81753797D01*
X171175887Y-81753792D01*
X171088261Y-81636738D01*
X170971207Y-81549112D01*
X170971202Y-81549110D01*
X170834204Y-81498011D01*
X170834196Y-81498009D01*
X170788032Y-81493047D01*
X170722440Y-81465878D01*
X170681948Y-81407561D01*
X170675500Y-81367769D01*
X170675500Y-81312918D01*
X170653121Y-81229399D01*
X170635599Y-81164006D01*
X170580513Y-81068595D01*
X170558518Y-81030498D01*
X170558510Y-81030488D01*
X170449511Y-80921489D01*
X170449501Y-80921481D01*
X170315994Y-80844401D01*
X170167083Y-80804500D01*
X170012917Y-80804500D01*
X169913643Y-80831100D01*
X169864005Y-80844401D01*
X169730498Y-80921481D01*
X169730488Y-80921489D01*
X169621489Y-81030488D01*
X169621481Y-81030498D01*
X169544401Y-81164005D01*
X169504500Y-81312918D01*
X169504500Y-81367769D01*
X169484498Y-81435890D01*
X169430842Y-81482383D01*
X169391968Y-81493047D01*
X169345803Y-81498009D01*
X169345795Y-81498011D01*
X169208797Y-81549110D01*
X169208792Y-81549112D01*
X169091738Y-81636738D01*
X169004112Y-81753792D01*
X169004110Y-81753797D01*
X168953011Y-81890795D01*
X168953009Y-81890803D01*
X168946757Y-81948968D01*
X168945864Y-81951121D01*
X168946197Y-81953432D01*
X168932342Y-81983767D01*
X168919588Y-82014560D01*
X168917671Y-82015890D01*
X168916703Y-82018012D01*
X168888665Y-82036030D01*
X168861271Y-82055052D01*
X168858325Y-82055529D01*
X168856977Y-82056396D01*
X168821479Y-82061500D01*
X168818521Y-82061500D01*
X168750400Y-82041498D01*
X168703907Y-81987842D01*
X168693243Y-81948968D01*
X168686990Y-81890803D01*
X168686988Y-81890795D01*
X168635889Y-81753797D01*
X168635887Y-81753792D01*
X168548261Y-81636738D01*
X168431207Y-81549112D01*
X168431202Y-81549110D01*
X168294204Y-81498011D01*
X168294196Y-81498009D01*
X168248032Y-81493047D01*
X168182440Y-81465878D01*
X168141948Y-81407561D01*
X168135500Y-81367769D01*
X168135500Y-81312918D01*
X168113121Y-81229399D01*
X168095599Y-81164006D01*
X168040513Y-81068595D01*
X168018518Y-81030498D01*
X168018510Y-81030488D01*
X167909511Y-80921489D01*
X167909501Y-80921481D01*
X167775994Y-80844401D01*
X167627083Y-80804500D01*
X167472917Y-80804500D01*
X167373643Y-80831100D01*
X167324005Y-80844401D01*
X167190498Y-80921481D01*
X167190488Y-80921489D01*
X167081489Y-81030488D01*
X167081481Y-81030498D01*
X167004401Y-81164005D01*
X166964500Y-81312918D01*
X166964500Y-81367769D01*
X166944498Y-81435890D01*
X166890842Y-81482383D01*
X166851968Y-81493047D01*
X166805803Y-81498009D01*
X166805795Y-81498011D01*
X166668797Y-81549110D01*
X166668792Y-81549112D01*
X166551738Y-81636738D01*
X166464112Y-81753792D01*
X166464110Y-81753797D01*
X166413011Y-81890795D01*
X166413009Y-81890803D01*
X166406500Y-81951350D01*
X166153499Y-81951350D01*
X166146990Y-81890803D01*
X166146988Y-81890795D01*
X166095889Y-81753797D01*
X166095887Y-81753792D01*
X166008261Y-81636738D01*
X165891207Y-81549112D01*
X165891202Y-81549110D01*
X165754204Y-81498011D01*
X165754196Y-81498009D01*
X165708032Y-81493047D01*
X165642440Y-81465878D01*
X165601948Y-81407561D01*
X165595500Y-81367769D01*
X165595500Y-81312918D01*
X165573121Y-81229399D01*
X165555599Y-81164006D01*
X165500513Y-81068595D01*
X165478518Y-81030498D01*
X165478510Y-81030488D01*
X165369511Y-80921489D01*
X165369501Y-80921481D01*
X165235994Y-80844401D01*
X165087083Y-80804500D01*
X164932917Y-80804500D01*
X164833643Y-80831100D01*
X164784005Y-80844401D01*
X164650498Y-80921481D01*
X164650488Y-80921489D01*
X164541489Y-81030488D01*
X164541481Y-81030498D01*
X164464401Y-81164005D01*
X164424500Y-81312918D01*
X164424500Y-81367769D01*
X164404498Y-81435890D01*
X164350842Y-81482383D01*
X164311968Y-81493047D01*
X164265803Y-81498009D01*
X164265795Y-81498011D01*
X164128797Y-81549110D01*
X164128792Y-81549112D01*
X164011738Y-81636738D01*
X163924112Y-81753792D01*
X163924110Y-81753797D01*
X163873011Y-81890795D01*
X163873009Y-81890803D01*
X163866500Y-81951350D01*
X163613499Y-81951350D01*
X163606990Y-81890803D01*
X163606988Y-81890795D01*
X163555889Y-81753797D01*
X163555887Y-81753792D01*
X163468261Y-81636738D01*
X163351207Y-81549112D01*
X163351202Y-81549110D01*
X163214204Y-81498011D01*
X163214196Y-81498009D01*
X163168032Y-81493047D01*
X163102440Y-81465878D01*
X163061948Y-81407561D01*
X163055500Y-81367769D01*
X163055500Y-81312918D01*
X163033121Y-81229399D01*
X163015599Y-81164006D01*
X162960513Y-81068595D01*
X162938518Y-81030498D01*
X162938510Y-81030488D01*
X162829511Y-80921489D01*
X162829501Y-80921481D01*
X162695994Y-80844401D01*
X162547083Y-80804500D01*
X162392917Y-80804500D01*
X162293643Y-80831100D01*
X162244005Y-80844401D01*
X162110498Y-80921481D01*
X162110488Y-80921489D01*
X162001489Y-81030488D01*
X162001481Y-81030498D01*
X161924401Y-81164005D01*
X161884500Y-81312918D01*
X161884500Y-81367769D01*
X161864498Y-81435890D01*
X161810842Y-81482383D01*
X161771968Y-81493047D01*
X161725803Y-81498009D01*
X161725795Y-81498011D01*
X161588797Y-81549110D01*
X161588792Y-81549112D01*
X161471738Y-81636738D01*
X161384112Y-81753792D01*
X161384110Y-81753797D01*
X161333011Y-81890795D01*
X161333009Y-81890803D01*
X161326500Y-81951350D01*
X161073499Y-81951350D01*
X161066990Y-81890803D01*
X161066988Y-81890795D01*
X161015889Y-81753797D01*
X161015887Y-81753792D01*
X160928261Y-81636738D01*
X160811207Y-81549112D01*
X160811202Y-81549110D01*
X160674204Y-81498011D01*
X160674196Y-81498009D01*
X160628032Y-81493047D01*
X160562440Y-81465878D01*
X160521948Y-81407561D01*
X160515500Y-81367769D01*
X160515500Y-81312918D01*
X160493121Y-81229399D01*
X160475599Y-81164006D01*
X160420513Y-81068595D01*
X160398518Y-81030498D01*
X160398510Y-81030488D01*
X160289511Y-80921489D01*
X160289501Y-80921481D01*
X160155994Y-80844401D01*
X160007083Y-80804500D01*
X159852917Y-80804500D01*
X159753643Y-80831100D01*
X159704005Y-80844401D01*
X159570498Y-80921481D01*
X159570488Y-80921489D01*
X159461489Y-81030488D01*
X159461481Y-81030498D01*
X159384401Y-81164005D01*
X159344500Y-81312918D01*
X159344500Y-81367769D01*
X159324498Y-81435890D01*
X159270842Y-81482383D01*
X159231968Y-81493047D01*
X159185803Y-81498009D01*
X159185795Y-81498011D01*
X159048797Y-81549110D01*
X159048792Y-81549112D01*
X158931738Y-81636738D01*
X158844112Y-81753792D01*
X158844110Y-81753797D01*
X158793011Y-81890795D01*
X158793009Y-81890803D01*
X158786500Y-81951350D01*
X158533499Y-81951350D01*
X158526990Y-81890803D01*
X158526988Y-81890795D01*
X158475889Y-81753797D01*
X158475887Y-81753792D01*
X158388261Y-81636738D01*
X158271207Y-81549112D01*
X158271202Y-81549110D01*
X158134204Y-81498011D01*
X158134196Y-81498009D01*
X158088032Y-81493047D01*
X158022440Y-81465878D01*
X157981948Y-81407561D01*
X157975500Y-81367769D01*
X157975500Y-81312918D01*
X157953121Y-81229399D01*
X157935599Y-81164006D01*
X157880513Y-81068595D01*
X157858518Y-81030498D01*
X157858510Y-81030488D01*
X157749511Y-80921489D01*
X157749501Y-80921481D01*
X157615994Y-80844401D01*
X157467083Y-80804500D01*
X157312917Y-80804500D01*
X157213643Y-80831100D01*
X157164005Y-80844401D01*
X157030498Y-80921481D01*
X157030488Y-80921489D01*
X156921489Y-81030488D01*
X156921481Y-81030498D01*
X156844401Y-81164005D01*
X156804500Y-81312918D01*
X156804500Y-81367769D01*
X156784498Y-81435890D01*
X156730842Y-81482383D01*
X156691968Y-81493047D01*
X156645803Y-81498009D01*
X156645795Y-81498011D01*
X156508797Y-81549110D01*
X156508792Y-81549112D01*
X156391738Y-81636738D01*
X156304112Y-81753792D01*
X156304110Y-81753797D01*
X156253011Y-81890795D01*
X156253009Y-81890803D01*
X156246500Y-81951350D01*
X155993499Y-81951350D01*
X155986990Y-81890803D01*
X155986988Y-81890795D01*
X155935889Y-81753797D01*
X155935887Y-81753792D01*
X155848261Y-81636738D01*
X155731207Y-81549112D01*
X155731202Y-81549110D01*
X155594204Y-81498011D01*
X155594196Y-81498009D01*
X155548032Y-81493047D01*
X155482440Y-81465878D01*
X155441948Y-81407561D01*
X155435500Y-81367769D01*
X155435500Y-81312918D01*
X155413121Y-81229399D01*
X155395599Y-81164006D01*
X155340513Y-81068595D01*
X155318518Y-81030498D01*
X155318510Y-81030488D01*
X155209511Y-80921489D01*
X155209501Y-80921481D01*
X155075994Y-80844401D01*
X154927083Y-80804500D01*
X154772917Y-80804500D01*
X154673643Y-80831100D01*
X154624005Y-80844401D01*
X154490498Y-80921481D01*
X154490488Y-80921489D01*
X154381489Y-81030488D01*
X154381481Y-81030498D01*
X154304401Y-81164005D01*
X154264500Y-81312918D01*
X154264500Y-81367769D01*
X154244498Y-81435890D01*
X154190842Y-81482383D01*
X154151968Y-81493047D01*
X154105803Y-81498009D01*
X154105795Y-81498011D01*
X153968797Y-81549110D01*
X153968792Y-81549112D01*
X153851738Y-81636738D01*
X153764112Y-81753792D01*
X153764110Y-81753797D01*
X153713011Y-81890795D01*
X153713009Y-81890803D01*
X153706500Y-81951350D01*
X153453499Y-81951350D01*
X153446990Y-81890803D01*
X153446988Y-81890795D01*
X153395889Y-81753797D01*
X153395887Y-81753792D01*
X153308261Y-81636738D01*
X153191207Y-81549112D01*
X153191202Y-81549110D01*
X153054204Y-81498011D01*
X153054196Y-81498009D01*
X153008032Y-81493047D01*
X152942440Y-81465878D01*
X152901948Y-81407561D01*
X152895500Y-81367769D01*
X152895500Y-81312918D01*
X152873121Y-81229399D01*
X152855599Y-81164006D01*
X152800513Y-81068595D01*
X152778518Y-81030498D01*
X152778510Y-81030488D01*
X152669511Y-80921489D01*
X152669501Y-80921481D01*
X152535994Y-80844401D01*
X152387083Y-80804500D01*
X152232917Y-80804500D01*
X152133643Y-80831100D01*
X152084005Y-80844401D01*
X151950498Y-80921481D01*
X151950488Y-80921489D01*
X151841489Y-81030488D01*
X151841481Y-81030498D01*
X151764401Y-81164005D01*
X151724500Y-81312918D01*
X151724500Y-81367769D01*
X151704498Y-81435890D01*
X151650842Y-81482383D01*
X151611968Y-81493047D01*
X151565803Y-81498009D01*
X151565795Y-81498011D01*
X151428797Y-81549110D01*
X151428792Y-81549112D01*
X151311738Y-81636738D01*
X151224112Y-81753792D01*
X151224110Y-81753797D01*
X151188402Y-81849533D01*
X151174918Y-81867544D01*
X151165571Y-81888012D01*
X151154058Y-81895410D01*
X151145855Y-81906369D01*
X151124771Y-81914232D01*
X151105845Y-81926396D01*
X151083573Y-81929598D01*
X151079335Y-81931179D01*
X151070347Y-81931500D01*
X151009653Y-81931500D01*
X150941532Y-81911498D01*
X150895039Y-81857842D01*
X150891598Y-81849533D01*
X150855889Y-81753797D01*
X150855887Y-81753792D01*
X150768261Y-81636738D01*
X150651207Y-81549112D01*
X150651202Y-81549110D01*
X150514204Y-81498011D01*
X150514196Y-81498009D01*
X150468032Y-81493047D01*
X150402440Y-81465878D01*
X150361948Y-81407561D01*
X150355500Y-81367769D01*
X150355500Y-81312918D01*
X150333121Y-81229399D01*
X150315599Y-81164006D01*
X150260513Y-81068595D01*
X150238518Y-81030498D01*
X150238510Y-81030488D01*
X150129511Y-80921489D01*
X150129501Y-80921481D01*
X149995994Y-80844401D01*
X149847083Y-80804500D01*
X149692917Y-80804500D01*
X149593643Y-80831100D01*
X149544005Y-80844401D01*
X149410498Y-80921481D01*
X149410488Y-80921489D01*
X149301489Y-81030488D01*
X149301481Y-81030498D01*
X149224401Y-81164005D01*
X149184500Y-81312918D01*
X149184500Y-81367769D01*
X149164498Y-81435890D01*
X149110842Y-81482383D01*
X149071968Y-81493047D01*
X149025803Y-81498009D01*
X149025795Y-81498011D01*
X148888797Y-81549110D01*
X148888792Y-81549112D01*
X148771738Y-81636738D01*
X148684112Y-81753792D01*
X148684110Y-81753797D01*
X148633011Y-81890795D01*
X148633009Y-81890803D01*
X148626500Y-81951350D01*
X148626500Y-83728649D01*
X148633009Y-83789196D01*
X148633011Y-83789204D01*
X148687260Y-83934647D01*
X148684378Y-83935721D01*
X148696199Y-83990100D01*
X148671377Y-84056616D01*
X148642095Y-84083375D01*
X148642418Y-84083784D01*
X148636704Y-84088302D01*
X148636682Y-84088323D01*
X148636665Y-84088332D01*
X148636657Y-84088339D01*
X148513343Y-84211652D01*
X148513342Y-84211653D01*
X148421791Y-84360080D01*
X148366937Y-84525622D01*
X148356500Y-84627778D01*
X148356500Y-85227212D01*
X148366937Y-85329380D01*
X148421791Y-85494920D01*
X148513342Y-85643346D01*
X148513347Y-85643352D01*
X148620900Y-85750905D01*
X148654926Y-85813217D01*
X148649861Y-85884032D01*
X148620900Y-85929095D01*
X148513347Y-86036647D01*
X148513342Y-86036653D01*
X148421789Y-86185082D01*
X148418696Y-86191717D01*
X148371777Y-86245000D01*
X148303499Y-86264459D01*
X148235540Y-86243915D01*
X148189476Y-86189890D01*
X148180924Y-86163045D01*
X148176236Y-86139479D01*
X148162051Y-86068165D01*
X148086632Y-85886086D01*
X147977139Y-85722218D01*
X147837782Y-85582861D01*
X147673914Y-85473368D01*
X147620345Y-85451179D01*
X147491838Y-85397950D01*
X147491835Y-85397949D01*
X147298544Y-85359500D01*
X147298541Y-85359500D01*
X147101459Y-85359500D01*
X147101455Y-85359500D01*
X146908164Y-85397949D01*
X146908161Y-85397950D01*
X146861131Y-85417430D01*
X146790541Y-85425018D01*
X146727055Y-85393237D01*
X146690828Y-85332178D01*
X146693364Y-85261227D01*
X146696499Y-85252821D01*
X146753587Y-85115000D01*
X146788500Y-84939479D01*
X146788500Y-84760521D01*
X146753587Y-84585000D01*
X146685102Y-84419664D01*
X146661607Y-84384501D01*
X146640393Y-84316748D01*
X146659177Y-84248281D01*
X146711995Y-84200838D01*
X146766373Y-84188500D01*
X147913632Y-84188500D01*
X147913638Y-84188500D01*
X147913645Y-84188499D01*
X147913649Y-84188499D01*
X147974196Y-84181990D01*
X147974199Y-84181989D01*
X147974201Y-84181989D01*
X148111204Y-84130889D01*
X148168054Y-84088332D01*
X148228261Y-84043261D01*
X148315887Y-83926207D01*
X148315887Y-83926206D01*
X148315889Y-83926204D01*
X148363868Y-83797568D01*
X148366988Y-83789204D01*
X148366990Y-83789196D01*
X148373499Y-83728649D01*
X148373500Y-83728632D01*
X148373500Y-81951367D01*
X148373499Y-81951350D01*
X148366990Y-81890803D01*
X148366988Y-81890795D01*
X148315889Y-81753797D01*
X148315887Y-81753792D01*
X148228261Y-81636738D01*
X148111207Y-81549112D01*
X148111202Y-81549110D01*
X147974204Y-81498011D01*
X147974196Y-81498009D01*
X147928032Y-81493047D01*
X147862440Y-81465878D01*
X147821948Y-81407561D01*
X147815500Y-81367769D01*
X147815500Y-81312918D01*
X147793121Y-81229399D01*
X147775599Y-81164006D01*
X147720513Y-81068595D01*
X147698518Y-81030498D01*
X147698510Y-81030488D01*
X147589511Y-80921489D01*
X147589501Y-80921481D01*
X147455994Y-80844401D01*
X147307083Y-80804500D01*
X147152917Y-80804500D01*
X147053643Y-80831100D01*
X147004005Y-80844401D01*
X146870498Y-80921481D01*
X146870488Y-80921489D01*
X146761489Y-81030488D01*
X146761481Y-81030498D01*
X146684401Y-81164005D01*
X146644500Y-81312918D01*
X146644500Y-81367769D01*
X146624498Y-81435890D01*
X146570842Y-81482383D01*
X146531968Y-81493047D01*
X146485803Y-81498009D01*
X146485795Y-81498011D01*
X146348797Y-81549110D01*
X146348792Y-81549112D01*
X146231738Y-81636738D01*
X146144112Y-81753792D01*
X146144110Y-81753797D01*
X146093011Y-81890795D01*
X146093009Y-81890803D01*
X146086500Y-81951350D01*
X146086500Y-83728649D01*
X146093853Y-83797039D01*
X146091801Y-83797259D01*
X146091115Y-83810077D01*
X146094473Y-83833432D01*
X146089251Y-83844865D01*
X146088579Y-83857416D01*
X146074778Y-83876555D01*
X146064979Y-83898012D01*
X146054407Y-83904805D01*
X146047055Y-83915003D01*
X146025097Y-83923642D01*
X146005253Y-83936396D01*
X145985446Y-83939243D01*
X145980988Y-83940998D01*
X145969755Y-83941500D01*
X145950245Y-83941500D01*
X145882124Y-83921498D01*
X145835631Y-83867842D01*
X145825527Y-83797568D01*
X145826826Y-83790719D01*
X145833499Y-83728649D01*
X145833500Y-83728632D01*
X145833500Y-81951367D01*
X145833499Y-81951350D01*
X145826990Y-81890803D01*
X145826988Y-81890795D01*
X145775889Y-81753797D01*
X145775887Y-81753792D01*
X145688261Y-81636738D01*
X145571207Y-81549112D01*
X145571202Y-81549110D01*
X145434204Y-81498011D01*
X145434196Y-81498009D01*
X145388032Y-81493047D01*
X145322440Y-81465878D01*
X145281948Y-81407561D01*
X145275500Y-81367769D01*
X145275500Y-81312918D01*
X145253121Y-81229399D01*
X145235599Y-81164006D01*
X145180513Y-81068595D01*
X145158518Y-81030498D01*
X145158510Y-81030488D01*
X145049511Y-80921489D01*
X145049501Y-80921481D01*
X144915994Y-80844401D01*
X144767083Y-80804500D01*
X144612917Y-80804500D01*
X144513643Y-80831100D01*
X144464005Y-80844401D01*
X144330498Y-80921481D01*
X144330488Y-80921489D01*
X144221489Y-81030488D01*
X144221481Y-81030498D01*
X144144401Y-81164005D01*
X144104500Y-81312918D01*
X144104500Y-81367769D01*
X144084498Y-81435890D01*
X144030842Y-81482383D01*
X143991968Y-81493047D01*
X143945803Y-81498009D01*
X143945795Y-81498011D01*
X143808797Y-81549110D01*
X143808792Y-81549112D01*
X143691738Y-81636738D01*
X143604112Y-81753792D01*
X143604110Y-81753797D01*
X143553011Y-81890795D01*
X143553009Y-81890803D01*
X143546500Y-81951350D01*
X143546500Y-83728649D01*
X143553009Y-83789196D01*
X143553011Y-83789204D01*
X143604110Y-83926202D01*
X143604112Y-83926207D01*
X143691738Y-84043261D01*
X143808792Y-84130887D01*
X143808794Y-84130888D01*
X143808796Y-84130889D01*
X143823990Y-84136556D01*
X143945795Y-84181988D01*
X143945803Y-84181990D01*
X144006350Y-84188499D01*
X144006355Y-84188499D01*
X144006362Y-84188500D01*
X144993627Y-84188500D01*
X145000737Y-84190587D01*
X145008039Y-84189327D01*
X145034343Y-84200455D01*
X145061748Y-84208502D01*
X145066600Y-84214101D01*
X145073425Y-84216989D01*
X145089536Y-84240571D01*
X145108241Y-84262158D01*
X145109295Y-84269493D01*
X145113475Y-84275611D01*
X145114279Y-84304155D01*
X145118345Y-84332432D01*
X145115315Y-84340917D01*
X145115475Y-84346579D01*
X145104956Y-84369930D01*
X145101501Y-84379608D01*
X145099992Y-84382106D01*
X145074898Y-84419664D01*
X145069588Y-84432481D01*
X145064684Y-84440608D01*
X145045234Y-84458444D01*
X145028672Y-84478998D01*
X145019490Y-84482054D01*
X145012359Y-84488594D01*
X144986351Y-84493084D01*
X144961308Y-84501420D01*
X144956810Y-84501500D01*
X142406350Y-84501500D01*
X142345803Y-84508009D01*
X142345795Y-84508011D01*
X142200353Y-84562260D01*
X142199223Y-84559232D01*
X142145363Y-84570929D01*
X142084281Y-84548133D01*
X142084118Y-84548432D01*
X142082035Y-84547294D01*
X142078890Y-84546121D01*
X142076207Y-84544113D01*
X142076202Y-84544110D01*
X141939204Y-84493011D01*
X141939196Y-84493009D01*
X141878649Y-84486500D01*
X141878638Y-84486500D01*
X140261362Y-84486500D01*
X140261350Y-84486500D01*
X140200803Y-84493009D01*
X140200795Y-84493011D01*
X140063797Y-84544110D01*
X140063792Y-84544113D01*
X140000509Y-84591486D01*
X139933988Y-84616297D01*
X139864614Y-84601205D01*
X139849491Y-84591486D01*
X139786207Y-84544113D01*
X139786202Y-84544110D01*
X139649204Y-84493011D01*
X139649196Y-84493009D01*
X139588649Y-84486500D01*
X139588638Y-84486500D01*
X137971362Y-84486500D01*
X137971350Y-84486500D01*
X137910803Y-84493009D01*
X137910795Y-84493011D01*
X137773797Y-84544110D01*
X137773792Y-84544112D01*
X137656738Y-84631738D01*
X137569112Y-84748792D01*
X137569110Y-84748797D01*
X137518011Y-84885795D01*
X137518009Y-84885803D01*
X137511500Y-84946350D01*
X137511500Y-85287278D01*
X137491498Y-85355399D01*
X137437842Y-85401892D01*
X137367568Y-85411996D01*
X137309991Y-85388146D01*
X137271207Y-85359112D01*
X137271202Y-85359110D01*
X137134204Y-85308011D01*
X137134196Y-85308009D01*
X137073649Y-85301500D01*
X137073638Y-85301500D01*
X136026362Y-85301500D01*
X136026350Y-85301500D01*
X135965803Y-85308009D01*
X135965795Y-85308011D01*
X135828797Y-85359110D01*
X135828792Y-85359112D01*
X135738951Y-85426368D01*
X135672431Y-85451179D01*
X135663442Y-85451500D01*
X135349500Y-85451500D01*
X135281379Y-85431498D01*
X135234886Y-85377842D01*
X135223500Y-85325500D01*
X135223500Y-84761367D01*
X135223499Y-84761350D01*
X135216990Y-84700803D01*
X135216988Y-84700795D01*
X135165889Y-84563797D01*
X135165887Y-84563792D01*
X135078261Y-84446738D01*
X134961207Y-84359112D01*
X134961202Y-84359110D01*
X134824204Y-84308011D01*
X134824196Y-84308009D01*
X134763649Y-84301500D01*
X134763638Y-84301500D01*
X134116362Y-84301500D01*
X134116350Y-84301500D01*
X134055804Y-84308009D01*
X134055797Y-84308011D01*
X134009031Y-84325454D01*
X133983017Y-84327314D01*
X133957601Y-84333181D01*
X133943264Y-84330156D01*
X133938215Y-84330518D01*
X133922464Y-84326001D01*
X133921695Y-84325725D01*
X133874201Y-84308011D01*
X133871490Y-84307719D01*
X133861964Y-84304303D01*
X133838766Y-84287390D01*
X133813816Y-84273178D01*
X133810454Y-84266750D01*
X133804595Y-84262478D01*
X133794222Y-84235708D01*
X133780918Y-84210264D01*
X133779744Y-84198339D01*
X133778945Y-84196277D01*
X133779347Y-84194307D01*
X133778500Y-84185700D01*
X133778500Y-84180522D01*
X133778499Y-84180518D01*
X133743587Y-84005000D01*
X133675102Y-83839664D01*
X133575678Y-83690865D01*
X133449135Y-83564322D01*
X133443997Y-83560889D01*
X133323201Y-83480176D01*
X133277674Y-83425700D01*
X133268825Y-83355256D01*
X133275145Y-83331387D01*
X133316989Y-83219201D01*
X133317824Y-83211441D01*
X133323499Y-83158649D01*
X133323500Y-83158632D01*
X133323500Y-82061367D01*
X133323499Y-82061350D01*
X133316990Y-82000803D01*
X133316988Y-82000795D01*
X133281768Y-81906369D01*
X133265889Y-81863796D01*
X133265888Y-81863794D01*
X133265887Y-81863792D01*
X133178261Y-81746738D01*
X133061207Y-81659112D01*
X133061202Y-81659110D01*
X132924204Y-81608011D01*
X132924196Y-81608009D01*
X132863649Y-81601500D01*
X132863638Y-81601500D01*
X132216362Y-81601500D01*
X132216350Y-81601500D01*
X132155803Y-81608009D01*
X132155795Y-81608011D01*
X132018797Y-81659110D01*
X132018792Y-81659112D01*
X131901738Y-81746738D01*
X131814112Y-81863792D01*
X131814110Y-81863797D01*
X131763011Y-82000795D01*
X131763009Y-82000803D01*
X131756500Y-82061350D01*
X131756500Y-83158649D01*
X131763009Y-83219196D01*
X131763011Y-83219204D01*
X131814110Y-83356202D01*
X131814112Y-83356207D01*
X131901738Y-83473261D01*
X132018791Y-83560886D01*
X132018792Y-83560886D01*
X132018796Y-83560889D01*
X132055609Y-83574619D01*
X132112442Y-83617165D01*
X132137253Y-83683686D01*
X132122161Y-83753060D01*
X132116340Y-83762675D01*
X132064898Y-83839663D01*
X131996414Y-84004996D01*
X131996413Y-84004999D01*
X131996413Y-84005000D01*
X131987507Y-84049771D01*
X131961500Y-84180518D01*
X131961500Y-84338932D01*
X131941498Y-84407053D01*
X131911013Y-84439795D01*
X131901740Y-84446738D01*
X131901735Y-84446742D01*
X131814112Y-84563792D01*
X131814110Y-84563797D01*
X131763011Y-84700795D01*
X131763009Y-84700803D01*
X131756500Y-84761350D01*
X131756500Y-85092275D01*
X131754079Y-85116856D01*
X131731500Y-85230364D01*
X131731500Y-85814632D01*
X131760926Y-85962570D01*
X131762570Y-85970831D01*
X131784394Y-86023517D01*
X131823516Y-86117968D01*
X131911997Y-86250389D01*
X131911999Y-86250391D01*
X132415001Y-86753393D01*
X132449027Y-86815705D01*
X132443962Y-86886520D01*
X132405850Y-86939878D01*
X132402227Y-86942851D01*
X132262859Y-87082220D01*
X132262858Y-87082222D01*
X132153368Y-87246085D01*
X132077950Y-87428161D01*
X132077949Y-87428164D01*
X132039500Y-87621455D01*
X132039500Y-87818544D01*
X132077949Y-88011835D01*
X132077950Y-88011838D01*
X132130276Y-88138164D01*
X132153368Y-88193914D01*
X132262861Y-88357782D01*
X132402218Y-88497139D01*
X132566086Y-88606632D01*
X132748165Y-88682051D01*
X132941459Y-88720500D01*
X133138541Y-88720500D01*
X133331835Y-88682051D01*
X133513914Y-88606632D01*
X133677782Y-88497139D01*
X133817139Y-88357782D01*
X133926632Y-88193914D01*
X134002051Y-88011835D01*
X134040500Y-87818541D01*
X134040500Y-87621459D01*
X134002051Y-87428165D01*
X133926632Y-87246086D01*
X133925237Y-87242718D01*
X133917648Y-87172128D01*
X133949428Y-87108641D01*
X134010486Y-87072414D01*
X134041646Y-87068500D01*
X135663442Y-87068500D01*
X135731563Y-87088502D01*
X135738951Y-87093632D01*
X135828792Y-87160887D01*
X135828794Y-87160888D01*
X135828796Y-87160889D01*
X135858929Y-87172128D01*
X135965795Y-87211988D01*
X135965803Y-87211990D01*
X136026350Y-87218499D01*
X136026355Y-87218499D01*
X136026362Y-87218500D01*
X136026368Y-87218500D01*
X137073632Y-87218500D01*
X137073638Y-87218500D01*
X137073645Y-87218499D01*
X137073649Y-87218499D01*
X137134196Y-87211990D01*
X137134199Y-87211989D01*
X137134201Y-87211989D01*
X137271204Y-87160889D01*
X137309991Y-87131853D01*
X137376509Y-87107042D01*
X137445884Y-87122133D01*
X137496087Y-87172334D01*
X137511500Y-87232721D01*
X137511500Y-88093649D01*
X137518009Y-88154196D01*
X137518011Y-88154204D01*
X137569110Y-88291202D01*
X137569112Y-88291207D01*
X137656738Y-88408261D01*
X137773792Y-88495887D01*
X137773794Y-88495888D01*
X137773796Y-88495889D01*
X137832875Y-88517924D01*
X137910795Y-88546988D01*
X137910803Y-88546990D01*
X137971350Y-88553499D01*
X137971355Y-88553499D01*
X137971362Y-88553500D01*
X137971368Y-88553500D01*
X139588632Y-88553500D01*
X139588638Y-88553500D01*
X139588645Y-88553499D01*
X139588649Y-88553499D01*
X139616454Y-88550509D01*
X139649201Y-88546989D01*
X139649204Y-88546987D01*
X139654737Y-88545681D01*
X139725632Y-88549477D01*
X139783221Y-88591000D01*
X139809218Y-88657065D01*
X139803325Y-88707933D01*
X139797432Y-88725716D01*
X139797430Y-88725726D01*
X139787000Y-88827815D01*
X139787000Y-88873500D01*
X141759725Y-88873500D01*
X141773095Y-88866198D01*
X141800395Y-88849250D01*
X141804030Y-88849306D01*
X141807220Y-88847565D01*
X141839257Y-88849856D01*
X141871383Y-88850357D01*
X141874410Y-88852369D01*
X141878035Y-88852629D01*
X141903753Y-88871880D01*
X141930504Y-88889667D01*
X141932817Y-88893635D01*
X141934872Y-88895174D01*
X141949421Y-88920136D01*
X141952887Y-88928050D01*
X141953011Y-88929201D01*
X142004111Y-89066204D01*
X142026486Y-89096093D01*
X142032320Y-89109413D01*
X142035053Y-89130786D01*
X142042583Y-89150974D01*
X142039467Y-89165295D01*
X142041327Y-89179836D01*
X142032070Y-89199295D01*
X142027491Y-89220348D01*
X142017772Y-89235471D01*
X141974112Y-89293792D01*
X141974111Y-89293795D01*
X141958734Y-89335022D01*
X141916187Y-89391857D01*
X141849666Y-89416667D01*
X141780292Y-89401575D01*
X141753477Y-89381500D01*
X139787000Y-89381500D01*
X139787000Y-89427184D01*
X139797430Y-89529273D01*
X139797431Y-89529276D01*
X139852248Y-89694707D01*
X139943737Y-89843033D01*
X139943742Y-89843039D01*
X140051254Y-89950551D01*
X140085280Y-90012863D01*
X140080215Y-90083678D01*
X140051254Y-90128741D01*
X139943347Y-90236647D01*
X139943342Y-90236653D01*
X139851791Y-90385080D01*
X139796937Y-90550622D01*
X139786500Y-90652778D01*
X139786500Y-91252212D01*
X139796938Y-91354381D01*
X139817312Y-91415868D01*
X139818306Y-91444787D01*
X139822425Y-91473432D01*
X139819510Y-91479812D01*
X139819752Y-91486823D01*
X139804950Y-91511693D01*
X139792931Y-91538012D01*
X139787031Y-91541803D01*
X139783443Y-91547833D01*
X139757543Y-91560754D01*
X139733205Y-91576396D01*
X139723352Y-91577812D01*
X139719914Y-91579528D01*
X139697707Y-91581500D01*
X139586371Y-91581500D01*
X139518250Y-91561498D01*
X139497276Y-91544595D01*
X139226978Y-91274297D01*
X139192952Y-91211985D01*
X139192494Y-91209782D01*
X139183587Y-91165002D01*
X139183587Y-91165000D01*
X139115102Y-90999664D01*
X139015678Y-90850865D01*
X138889135Y-90724322D01*
X138740336Y-90624898D01*
X138580642Y-90558750D01*
X138575003Y-90556414D01*
X138575001Y-90556413D01*
X138575000Y-90556413D01*
X138486645Y-90538838D01*
X138399481Y-90521500D01*
X138399479Y-90521500D01*
X138220521Y-90521500D01*
X138220518Y-90521500D01*
X138089771Y-90547507D01*
X138045000Y-90556413D01*
X138044999Y-90556413D01*
X138044996Y-90556414D01*
X137967101Y-90588680D01*
X137899560Y-90616657D01*
X137879662Y-90624899D01*
X137730869Y-90724319D01*
X137730862Y-90724324D01*
X137604324Y-90850862D01*
X137604319Y-90850869D01*
X137504899Y-90999662D01*
X137436414Y-91164996D01*
X137401500Y-91340518D01*
X137401500Y-91474157D01*
X137381498Y-91542278D01*
X137327842Y-91588771D01*
X137319534Y-91592212D01*
X137193795Y-91639111D01*
X137193792Y-91639112D01*
X137076738Y-91726738D01*
X136989112Y-91843792D01*
X136989110Y-91843797D01*
X136938011Y-91980795D01*
X136938009Y-91980803D01*
X136931500Y-92041350D01*
X136931500Y-93138649D01*
X136938009Y-93199196D01*
X136938011Y-93199204D01*
X136989110Y-93336202D01*
X136989112Y-93336207D01*
X137076737Y-93453259D01*
X137076738Y-93453259D01*
X137076739Y-93453261D01*
X137097955Y-93469143D01*
X137124657Y-93489132D01*
X137167203Y-93545968D01*
X137172267Y-93616784D01*
X137138242Y-93679096D01*
X137124657Y-93690868D01*
X137076737Y-93726740D01*
X136989112Y-93843792D01*
X136989110Y-93843797D01*
X136938011Y-93980795D01*
X136938009Y-93980803D01*
X136931500Y-94041350D01*
X136931500Y-95138649D01*
X136938009Y-95199196D01*
X136938011Y-95199204D01*
X136989110Y-95336202D01*
X136989112Y-95336207D01*
X137072889Y-95448118D01*
X137097700Y-95514638D01*
X137088430Y-95571844D01*
X137066416Y-95624990D01*
X137066413Y-95624999D01*
X137031500Y-95800518D01*
X137031500Y-95979481D01*
X137035649Y-96000337D01*
X137066412Y-96154997D01*
X137066414Y-96155003D01*
X137074977Y-96175675D01*
X137134898Y-96320336D01*
X137234322Y-96469135D01*
X137360865Y-96595678D01*
X137509664Y-96695102D01*
X137675000Y-96763587D01*
X137850521Y-96798500D01*
X137850522Y-96798500D01*
X138029478Y-96798500D01*
X138029479Y-96798500D01*
X138205000Y-96763587D01*
X138370336Y-96695102D01*
X138519135Y-96595678D01*
X138645678Y-96469135D01*
X138745102Y-96320336D01*
X138813587Y-96155000D01*
X138822494Y-96110217D01*
X138855399Y-96047309D01*
X138856920Y-96045759D01*
X139267277Y-95635404D01*
X139329589Y-95601379D01*
X139356372Y-95598500D01*
X140988632Y-95598500D01*
X140988638Y-95598500D01*
X140988645Y-95598499D01*
X140988649Y-95598499D01*
X141049196Y-95591990D01*
X141049199Y-95591989D01*
X141049201Y-95591989D01*
X141186204Y-95540889D01*
X141189396Y-95538500D01*
X141303261Y-95453261D01*
X141390887Y-95336207D01*
X141390887Y-95336206D01*
X141390889Y-95336204D01*
X141441989Y-95199201D01*
X141448500Y-95138638D01*
X141448500Y-94041362D01*
X141447335Y-94030521D01*
X141441990Y-93980803D01*
X141441988Y-93980795D01*
X141395065Y-93854992D01*
X141390889Y-93843796D01*
X141390888Y-93843794D01*
X141390887Y-93843792D01*
X141303261Y-93726738D01*
X141255343Y-93690868D01*
X141212796Y-93634033D01*
X141207731Y-93563217D01*
X141240976Y-93501692D01*
X141247681Y-93494867D01*
X141303261Y-93453261D01*
X141350291Y-93390436D01*
X141356215Y-93384407D01*
X141380135Y-93371070D01*
X141402058Y-93354660D01*
X141417372Y-93350310D01*
X141418226Y-93349835D01*
X141418899Y-93349877D01*
X141421509Y-93349136D01*
X141543928Y-93324785D01*
X141571247Y-93319351D01*
X141709284Y-93262174D01*
X141726923Y-93250388D01*
X141756879Y-93241007D01*
X141786124Y-93229617D01*
X141790454Y-93230493D01*
X141794673Y-93229173D01*
X141824943Y-93237476D01*
X141855709Y-93243706D01*
X141858879Y-93246786D01*
X141863140Y-93247955D01*
X141884113Y-93271303D01*
X141906630Y-93293180D01*
X141908223Y-93298143D01*
X141910584Y-93300771D01*
X141919646Y-93326598D01*
X141921384Y-93334067D01*
X141923011Y-93349201D01*
X141928047Y-93362704D01*
X141929882Y-93370589D01*
X141928302Y-93398274D01*
X141930280Y-93425928D01*
X141926172Y-93435598D01*
X141925838Y-93441470D01*
X141920640Y-93448625D01*
X141911927Y-93469143D01*
X141904900Y-93479660D01*
X141904898Y-93479662D01*
X141904898Y-93479664D01*
X141884069Y-93529950D01*
X141836414Y-93644996D01*
X141801500Y-93820518D01*
X141801500Y-93999481D01*
X141810839Y-94046429D01*
X141836413Y-94175000D01*
X141904898Y-94340336D01*
X142004322Y-94489135D01*
X142130865Y-94615678D01*
X142279664Y-94715102D01*
X142445000Y-94783587D01*
X142620521Y-94818500D01*
X142620522Y-94818500D01*
X142799478Y-94818500D01*
X142799479Y-94818500D01*
X142975000Y-94783587D01*
X143140336Y-94715102D01*
X143289135Y-94615678D01*
X143415678Y-94489135D01*
X143515102Y-94340336D01*
X143583587Y-94175000D01*
X143618500Y-93999479D01*
X143618500Y-93820521D01*
X143583587Y-93645000D01*
X143515102Y-93479664D01*
X143494641Y-93449042D01*
X143473427Y-93381292D01*
X143476788Y-93350050D01*
X143476987Y-93349205D01*
X143476989Y-93349201D01*
X143477065Y-93348500D01*
X143483499Y-93288649D01*
X143483500Y-93288632D01*
X143483500Y-93288597D01*
X143817000Y-93288597D01*
X143823505Y-93349093D01*
X143874555Y-93485964D01*
X143874555Y-93485965D01*
X143962095Y-93602904D01*
X144079034Y-93690444D01*
X144215906Y-93741494D01*
X144276402Y-93747999D01*
X144276415Y-93748000D01*
X144346000Y-93748000D01*
X144346000Y-92994000D01*
X143817000Y-92994000D01*
X143817000Y-93288597D01*
X143483500Y-93288597D01*
X143483500Y-92624500D01*
X143503502Y-92556379D01*
X143557158Y-92509886D01*
X143609500Y-92498500D01*
X144364706Y-92498500D01*
X144415376Y-92488420D01*
X144439958Y-92486000D01*
X145415309Y-92486000D01*
X145483430Y-92506002D01*
X145504404Y-92522905D01*
X145514999Y-92533500D01*
X146160818Y-92533500D01*
X146179251Y-92538912D01*
X146198461Y-92539254D01*
X146227144Y-92552975D01*
X146228939Y-92553502D01*
X146230704Y-92554658D01*
X146239997Y-92560868D01*
X146239999Y-92560870D01*
X146239999Y-92560869D01*
X146317002Y-92612321D01*
X146339162Y-92627128D01*
X146339163Y-92627128D01*
X146339164Y-92627129D01*
X146504500Y-92695614D01*
X146680021Y-92730527D01*
X146680022Y-92730527D01*
X146858978Y-92730527D01*
X146858979Y-92730527D01*
X147034500Y-92695614D01*
X147199836Y-92627129D01*
X147348635Y-92527705D01*
X147475178Y-92401162D01*
X147536426Y-92309496D01*
X147542615Y-92304324D01*
X147545966Y-92296988D01*
X147569463Y-92281887D01*
X147590901Y-92263971D01*
X147600427Y-92261987D01*
X147605692Y-92258604D01*
X147641190Y-92253500D01*
X147695960Y-92253500D01*
X147764081Y-92273502D01*
X147805789Y-92317746D01*
X147808530Y-92322622D01*
X147894287Y-92435712D01*
X147990013Y-92508302D01*
X148007377Y-92521469D01*
X148007378Y-92521469D01*
X148014889Y-92525692D01*
X148013690Y-92527823D01*
X148059649Y-92563578D01*
X148083221Y-92630547D01*
X148077002Y-92676832D01*
X148067432Y-92705713D01*
X148067431Y-92705720D01*
X148057000Y-92807815D01*
X148057000Y-92853500D01*
X150023001Y-92853500D01*
X150038881Y-92837620D01*
X150101193Y-92803594D01*
X150172008Y-92808659D01*
X150217071Y-92837620D01*
X150444595Y-93065144D01*
X150478621Y-93127456D01*
X150481500Y-93154239D01*
X150481500Y-94160113D01*
X150486624Y-94179238D01*
X150486625Y-94179238D01*
X150522967Y-94314870D01*
X150522970Y-94314877D01*
X150603075Y-94453623D01*
X150603083Y-94453633D01*
X152616366Y-96466916D01*
X152616371Y-96466920D01*
X152616373Y-96466922D01*
X152616374Y-96466923D01*
X152616376Y-96466924D01*
X152726530Y-96530521D01*
X152761183Y-96550528D01*
X152805423Y-96593499D01*
X152860840Y-96683344D01*
X152860847Y-96683352D01*
X152984147Y-96806652D01*
X152984153Y-96806657D01*
X152984154Y-96806658D01*
X153132580Y-96898209D01*
X153298119Y-96953062D01*
X153400287Y-96963500D01*
X153999712Y-96963499D01*
X154101881Y-96953062D01*
X154267420Y-96898209D01*
X154415846Y-96806658D01*
X154465422Y-96757082D01*
X154523405Y-96699100D01*
X154585717Y-96665074D01*
X154656532Y-96670139D01*
X154701595Y-96699100D01*
X154809147Y-96806652D01*
X154809153Y-96806657D01*
X154809154Y-96806658D01*
X154957580Y-96898209D01*
X155123119Y-96953062D01*
X155225287Y-96963500D01*
X155824712Y-96963499D01*
X155926881Y-96953062D01*
X156092420Y-96898209D01*
X156195078Y-96834888D01*
X156263554Y-96816151D01*
X156309442Y-96825721D01*
X156424992Y-96873584D01*
X156424993Y-96873584D01*
X156425000Y-96873587D01*
X156600521Y-96908500D01*
X156600522Y-96908500D01*
X156779478Y-96908500D01*
X156779479Y-96908500D01*
X156955000Y-96873587D01*
X157120336Y-96805102D01*
X157269135Y-96705678D01*
X157395678Y-96579135D01*
X157495102Y-96430336D01*
X157563587Y-96265000D01*
X157598500Y-96089479D01*
X157598500Y-95910521D01*
X157563587Y-95735000D01*
X157563585Y-95734994D01*
X157554358Y-95712718D01*
X157546769Y-95642128D01*
X157578548Y-95578641D01*
X157639606Y-95542414D01*
X157670767Y-95538500D01*
X172189944Y-95538500D01*
X172258065Y-95558502D01*
X172304558Y-95612158D01*
X172314662Y-95682432D01*
X172306353Y-95712719D01*
X172276414Y-95784996D01*
X172241500Y-95960518D01*
X172241500Y-96139481D01*
X172248700Y-96175675D01*
X172268591Y-96275678D01*
X172276414Y-96315003D01*
X172289723Y-96347132D01*
X172329675Y-96443585D01*
X172330434Y-96445416D01*
X172338023Y-96516006D01*
X172306244Y-96579493D01*
X172274552Y-96604145D01*
X172266575Y-96608513D01*
X172219396Y-96626111D01*
X172178362Y-96656828D01*
X172170527Y-96661120D01*
X172144221Y-96666877D01*
X172118989Y-96676289D01*
X172110078Y-96674350D01*
X172101172Y-96676300D01*
X172075930Y-96666922D01*
X172049615Y-96661198D01*
X172034671Y-96651594D01*
X172034620Y-96651575D01*
X172034599Y-96651547D01*
X172034491Y-96651478D01*
X172000607Y-96626112D01*
X172000602Y-96626110D01*
X171863604Y-96575011D01*
X171863596Y-96575009D01*
X171803049Y-96568500D01*
X171803038Y-96568500D01*
X171146962Y-96568500D01*
X171146950Y-96568500D01*
X171086403Y-96575009D01*
X171086395Y-96575011D01*
X170949397Y-96626110D01*
X170949392Y-96626112D01*
X170871824Y-96684180D01*
X170805304Y-96708991D01*
X170735930Y-96693900D01*
X170707220Y-96672407D01*
X170649137Y-96614324D01*
X170649135Y-96614322D01*
X170500336Y-96514898D01*
X170383429Y-96466473D01*
X170335003Y-96446414D01*
X170335001Y-96446413D01*
X170335000Y-96446413D01*
X170246645Y-96428838D01*
X170159481Y-96411500D01*
X170159479Y-96411500D01*
X169980521Y-96411500D01*
X169980518Y-96411500D01*
X169849771Y-96437507D01*
X169805000Y-96446413D01*
X169804999Y-96446413D01*
X169804996Y-96446414D01*
X169639662Y-96514899D01*
X169490869Y-96614319D01*
X169490862Y-96614324D01*
X169364324Y-96740862D01*
X169364319Y-96740869D01*
X169264899Y-96889662D01*
X169196414Y-97054996D01*
X169161500Y-97230518D01*
X169161500Y-97409477D01*
X169162107Y-97415643D01*
X169159220Y-97415927D01*
X169153980Y-97474299D01*
X169110411Y-97530355D01*
X169043452Y-97553956D01*
X168974363Y-97537610D01*
X168935874Y-97503644D01*
X168900761Y-97456738D01*
X168783707Y-97369112D01*
X168783702Y-97369110D01*
X168646704Y-97318011D01*
X168646696Y-97318009D01*
X168586149Y-97311500D01*
X168586138Y-97311500D01*
X167188862Y-97311500D01*
X167188850Y-97311500D01*
X167128303Y-97318009D01*
X167128295Y-97318011D01*
X166991297Y-97369110D01*
X166991292Y-97369112D01*
X166874238Y-97456738D01*
X166786612Y-97573792D01*
X166786610Y-97573797D01*
X166735511Y-97710795D01*
X166735509Y-97710803D01*
X166729000Y-97771350D01*
X166729000Y-98269500D01*
X166708998Y-98337621D01*
X166655342Y-98384114D01*
X166603000Y-98395500D01*
X165754000Y-98395500D01*
X165754000Y-99516000D01*
X167674000Y-99516000D01*
X167742121Y-99536002D01*
X167788614Y-99589658D01*
X167800000Y-99642000D01*
X167800000Y-99898000D01*
X167779998Y-99966121D01*
X167726342Y-100012614D01*
X167674000Y-100024000D01*
X165754000Y-100024000D01*
X165754000Y-101144500D01*
X166603000Y-101144500D01*
X166671121Y-101164502D01*
X166717614Y-101218158D01*
X166729000Y-101270500D01*
X166729000Y-101768649D01*
X166735509Y-101829196D01*
X166735511Y-101829204D01*
X166786610Y-101966202D01*
X166786612Y-101966207D01*
X166874238Y-102083261D01*
X166991292Y-102170887D01*
X166991294Y-102170888D01*
X166991296Y-102170889D01*
X167006793Y-102176669D01*
X167128295Y-102221988D01*
X167128303Y-102221990D01*
X167188850Y-102228499D01*
X167188855Y-102228499D01*
X167188862Y-102228500D01*
X167188868Y-102228500D01*
X168586132Y-102228500D01*
X168586138Y-102228500D01*
X168586145Y-102228499D01*
X168586149Y-102228499D01*
X168646696Y-102221990D01*
X168646699Y-102221989D01*
X168646701Y-102221989D01*
X168655214Y-102218814D01*
X168696038Y-102203587D01*
X168783704Y-102170889D01*
X168786956Y-102168455D01*
X168900761Y-102083261D01*
X168941387Y-102028991D01*
X168998222Y-101986444D01*
X169042255Y-101978500D01*
X169361497Y-101978500D01*
X169429618Y-101998502D01*
X169450592Y-102015405D01*
X169470865Y-102035678D01*
X169619664Y-102135102D01*
X169785000Y-102203587D01*
X169960521Y-102238500D01*
X169960522Y-102238500D01*
X170066453Y-102238500D01*
X170134574Y-102258502D01*
X170181067Y-102312158D01*
X170191403Y-102374180D01*
X170191500Y-102374180D01*
X170191500Y-102374762D01*
X170191847Y-102376845D01*
X170191500Y-102380369D01*
X170191500Y-102539632D01*
X170207035Y-102617730D01*
X170222570Y-102695831D01*
X170283517Y-102842968D01*
X170371997Y-102975389D01*
X170371998Y-102975390D01*
X170372003Y-102975396D01*
X170484603Y-103087996D01*
X170484609Y-103088001D01*
X170484611Y-103088003D01*
X170617032Y-103176483D01*
X170764169Y-103237430D01*
X170920370Y-103268500D01*
X170920371Y-103268500D01*
X171079629Y-103268500D01*
X171079630Y-103268500D01*
X171235831Y-103237430D01*
X171382968Y-103176483D01*
X171515389Y-103088003D01*
X171628003Y-102975389D01*
X171716483Y-102842968D01*
X171777430Y-102695831D01*
X171807892Y-102542685D01*
X171840799Y-102479776D01*
X171842263Y-102478285D01*
X173231922Y-101088627D01*
X173312032Y-100949872D01*
X173324993Y-100901500D01*
X173353500Y-100795111D01*
X173353500Y-99639876D01*
X173373502Y-99571755D01*
X173427158Y-99525262D01*
X173497432Y-99515158D01*
X173523525Y-99521818D01*
X173597309Y-99549339D01*
X173626398Y-99560189D01*
X173626403Y-99560190D01*
X173686950Y-99566699D01*
X173686955Y-99566699D01*
X173686962Y-99566700D01*
X173686968Y-99566700D01*
X174343032Y-99566700D01*
X174343038Y-99566700D01*
X174343045Y-99566699D01*
X174343049Y-99566699D01*
X174403596Y-99560190D01*
X174403599Y-99560189D01*
X174403601Y-99560189D01*
X174540604Y-99509089D01*
X174574491Y-99483720D01*
X174641011Y-99458910D01*
X174710385Y-99474001D01*
X174725507Y-99483720D01*
X174759396Y-99509089D01*
X174759397Y-99509089D01*
X174759398Y-99509090D01*
X174896395Y-99560188D01*
X174896403Y-99560190D01*
X174956950Y-99566699D01*
X174956955Y-99566699D01*
X174956962Y-99566700D01*
X174956968Y-99566700D01*
X175613032Y-99566700D01*
X175613038Y-99566700D01*
X175613045Y-99566699D01*
X175613049Y-99566699D01*
X175673596Y-99560190D01*
X175673599Y-99560189D01*
X175673601Y-99560189D01*
X175810604Y-99509089D01*
X175844491Y-99483720D01*
X175911011Y-99458910D01*
X175980385Y-99474001D01*
X175995507Y-99483720D01*
X176029396Y-99509089D01*
X176029397Y-99509089D01*
X176029398Y-99509090D01*
X176166395Y-99560188D01*
X176166403Y-99560190D01*
X176226950Y-99566699D01*
X176226955Y-99566699D01*
X176226962Y-99566700D01*
X176226968Y-99566700D01*
X176883032Y-99566700D01*
X176883038Y-99566700D01*
X176883045Y-99566699D01*
X176883049Y-99566699D01*
X176943596Y-99560190D01*
X176943601Y-99560189D01*
X176943604Y-99560188D01*
X177046469Y-99521820D01*
X177117282Y-99516755D01*
X177179594Y-99550779D01*
X177213620Y-99613091D01*
X177216500Y-99639876D01*
X177216500Y-100358805D01*
X177207716Y-100388720D01*
X177201088Y-100419190D01*
X177197273Y-100424285D01*
X177196498Y-100426926D01*
X177179595Y-100447900D01*
X177176595Y-100450900D01*
X177114283Y-100484926D01*
X177043468Y-100479861D01*
X176998405Y-100450900D01*
X176890852Y-100343347D01*
X176890846Y-100343342D01*
X176849778Y-100318011D01*
X176742420Y-100251791D01*
X176576881Y-100196938D01*
X176576879Y-100196937D01*
X176576877Y-100196937D01*
X176474721Y-100186500D01*
X175875287Y-100186500D01*
X175773119Y-100196937D01*
X175607579Y-100251791D01*
X175459153Y-100343342D01*
X175459147Y-100343347D01*
X175335847Y-100466647D01*
X175335842Y-100466653D01*
X175244291Y-100615080D01*
X175189437Y-100780622D01*
X175179000Y-100882778D01*
X175179000Y-101457212D01*
X175189437Y-101559380D01*
X175244291Y-101724920D01*
X175335842Y-101873346D01*
X175335847Y-101873352D01*
X175459147Y-101996652D01*
X175459153Y-101996657D01*
X175459154Y-101996658D01*
X175607580Y-102088209D01*
X175650391Y-102102394D01*
X175699854Y-102132903D01*
X176169596Y-102602645D01*
X176203620Y-102664956D01*
X176206500Y-102691739D01*
X176206500Y-103099712D01*
X176216937Y-103201880D01*
X176271791Y-103367420D01*
X176303824Y-103419353D01*
X176322561Y-103487833D01*
X176301302Y-103555572D01*
X176246794Y-103601063D01*
X176196583Y-103611500D01*
X176170518Y-103611500D01*
X176066816Y-103632128D01*
X175995000Y-103646413D01*
X175994999Y-103646413D01*
X175994996Y-103646414D01*
X175829662Y-103714899D01*
X175680869Y-103814319D01*
X175680862Y-103814324D01*
X175554324Y-103940862D01*
X175554319Y-103940869D01*
X175466906Y-104071693D01*
X175454898Y-104089664D01*
X175449699Y-104102215D01*
X175386414Y-104254996D01*
X175386413Y-104254999D01*
X175386413Y-104255000D01*
X175377507Y-104299771D01*
X175351500Y-104430518D01*
X175351500Y-104430521D01*
X175351500Y-104609479D01*
X175386413Y-104785000D01*
X175454898Y-104950336D01*
X175554322Y-105099135D01*
X175680865Y-105225678D01*
X175829664Y-105325102D01*
X175995000Y-105393587D01*
X176170521Y-105428500D01*
X176170522Y-105428500D01*
X176349478Y-105428500D01*
X176349479Y-105428500D01*
X176452859Y-105407936D01*
X176523572Y-105414264D01*
X176543585Y-105424273D01*
X176635080Y-105480709D01*
X176800619Y-105535562D01*
X176902787Y-105546000D01*
X177477212Y-105545999D01*
X177579381Y-105535562D01*
X177744920Y-105480709D01*
X177893346Y-105389158D01*
X178016658Y-105265846D01*
X178108209Y-105117420D01*
X178117228Y-105090201D01*
X178157640Y-105031832D01*
X178223196Y-105004575D01*
X178293082Y-105017088D01*
X178325927Y-105040740D01*
X178450865Y-105165678D01*
X178599664Y-105265102D01*
X178765000Y-105333587D01*
X178940521Y-105368500D01*
X178940522Y-105368500D01*
X179119478Y-105368500D01*
X179119479Y-105368500D01*
X179295000Y-105333587D01*
X179302835Y-105330341D01*
X179373420Y-105322750D01*
X179429812Y-105350974D01*
X179430896Y-105349605D01*
X179436653Y-105354157D01*
X179436654Y-105354158D01*
X179585080Y-105445709D01*
X179750619Y-105500562D01*
X179852787Y-105511000D01*
X180427212Y-105510999D01*
X180529381Y-105500562D01*
X180694920Y-105445709D01*
X180843346Y-105354158D01*
X180966658Y-105230846D01*
X181058209Y-105082420D01*
X181113062Y-104916881D01*
X181123500Y-104814713D01*
X181123499Y-104140288D01*
X181113062Y-104038119D01*
X181058209Y-103872580D01*
X180966658Y-103724154D01*
X180934098Y-103691594D01*
X180933582Y-103690649D01*
X180932645Y-103690117D01*
X180916608Y-103659564D01*
X180900074Y-103629285D01*
X180900150Y-103628210D01*
X180899649Y-103627254D01*
X180902678Y-103592862D01*
X180905138Y-103558469D01*
X180905815Y-103557252D01*
X180905879Y-103556531D01*
X180908145Y-103553067D01*
X180923582Y-103525342D01*
X180928461Y-103519042D01*
X180966658Y-103480846D01*
X181000317Y-103426275D01*
X181004425Y-103420973D01*
X181027971Y-103403943D01*
X181049582Y-103384506D01*
X181056376Y-103383400D01*
X181061953Y-103379367D01*
X181090970Y-103377770D01*
X181119657Y-103373103D01*
X181125970Y-103375845D01*
X181132842Y-103375468D01*
X181158111Y-103389810D01*
X181184773Y-103401395D01*
X181193132Y-103409036D01*
X182159595Y-104375499D01*
X182193621Y-104437811D01*
X182196500Y-104464594D01*
X182196500Y-104837212D01*
X182206937Y-104939380D01*
X182261791Y-105104920D01*
X182353342Y-105253346D01*
X182353347Y-105253352D01*
X182476647Y-105376652D01*
X182476653Y-105376657D01*
X182476654Y-105376658D01*
X182625080Y-105468209D01*
X182790619Y-105523062D01*
X182892787Y-105533500D01*
X183467212Y-105533499D01*
X183569381Y-105523062D01*
X183734920Y-105468209D01*
X183883346Y-105376658D01*
X184006658Y-105253346D01*
X184098209Y-105104920D01*
X184153062Y-104939381D01*
X184163500Y-104837213D01*
X184163499Y-104162788D01*
X184161200Y-104140287D01*
X184153062Y-104060619D01*
X184126189Y-103979521D01*
X184123749Y-103908566D01*
X184160057Y-103847556D01*
X184223586Y-103815860D01*
X184294166Y-103823543D01*
X184334889Y-103850793D01*
X184889595Y-104405499D01*
X184923621Y-104467811D01*
X184926500Y-104494594D01*
X184926500Y-104867212D01*
X184936937Y-104969380D01*
X184991791Y-105134920D01*
X185083342Y-105283346D01*
X185083347Y-105283352D01*
X185206647Y-105406652D01*
X185206653Y-105406657D01*
X185206654Y-105406658D01*
X185355080Y-105498209D01*
X185520619Y-105553062D01*
X185622787Y-105563500D01*
X186197212Y-105563499D01*
X186299381Y-105553062D01*
X186464920Y-105498209D01*
X186613346Y-105406658D01*
X186736658Y-105283346D01*
X186828209Y-105134920D01*
X186883062Y-104969381D01*
X186888426Y-104916877D01*
X186893500Y-104867221D01*
X186893500Y-104641455D01*
X187909500Y-104641455D01*
X187909500Y-104838544D01*
X187947949Y-105031837D01*
X188023368Y-105213914D01*
X188132861Y-105377782D01*
X188272218Y-105517139D01*
X188436086Y-105626632D01*
X188618165Y-105702051D01*
X188811459Y-105740500D01*
X189008541Y-105740500D01*
X189201835Y-105702051D01*
X189383914Y-105626632D01*
X189547782Y-105517139D01*
X189687139Y-105377782D01*
X189796632Y-105213914D01*
X189872051Y-105031835D01*
X189910500Y-104838541D01*
X189910500Y-104641459D01*
X189872051Y-104448165D01*
X189796632Y-104266086D01*
X189687139Y-104102218D01*
X189547782Y-103962861D01*
X189383914Y-103853368D01*
X189370831Y-103847949D01*
X189201838Y-103777950D01*
X189201835Y-103777949D01*
X189008544Y-103739500D01*
X189008541Y-103739500D01*
X188811459Y-103739500D01*
X188811455Y-103739500D01*
X188618164Y-103777949D01*
X188618161Y-103777950D01*
X188436085Y-103853368D01*
X188272222Y-103962858D01*
X188272215Y-103962863D01*
X188132863Y-104102215D01*
X188132858Y-104102222D01*
X188023368Y-104266085D01*
X187947950Y-104448161D01*
X187947949Y-104448164D01*
X187909500Y-104641455D01*
X186893500Y-104641455D01*
X186893500Y-104635269D01*
X186893499Y-104192787D01*
X186883062Y-104090619D01*
X186872516Y-104058793D01*
X186828209Y-103925080D01*
X186736658Y-103776654D01*
X186704098Y-103744094D01*
X186670074Y-103681785D01*
X186675138Y-103610969D01*
X186704098Y-103565905D01*
X186736658Y-103533346D01*
X186828209Y-103384920D01*
X186883062Y-103219381D01*
X186883063Y-103219370D01*
X186884400Y-103213127D01*
X186918217Y-103150702D01*
X186980416Y-103116469D01*
X187007609Y-103113500D01*
X187040109Y-103113500D01*
X187040110Y-103113500D01*
X187040111Y-103113500D01*
X187132935Y-103088628D01*
X187194873Y-103072032D01*
X187333627Y-102991922D01*
X187491673Y-102833876D01*
X191434500Y-102833876D01*
X191434500Y-103066124D01*
X191469740Y-103288624D01*
X191470832Y-103295518D01*
X191521026Y-103450000D01*
X191542600Y-103516396D01*
X191648039Y-103723331D01*
X191784551Y-103911224D01*
X191784553Y-103911226D01*
X191784555Y-103911229D01*
X191948770Y-104075444D01*
X191948773Y-104075446D01*
X191948776Y-104075449D01*
X192136669Y-104211961D01*
X192343604Y-104317400D01*
X192564486Y-104389169D01*
X192793876Y-104425500D01*
X192793878Y-104425500D01*
X193026122Y-104425500D01*
X193026124Y-104425500D01*
X193255514Y-104389169D01*
X193476396Y-104317400D01*
X193683331Y-104211961D01*
X193871224Y-104075449D01*
X194035449Y-103911224D01*
X194171961Y-103723331D01*
X194277400Y-103516396D01*
X194349169Y-103295514D01*
X194385500Y-103066124D01*
X194385500Y-102833876D01*
X194349169Y-102604486D01*
X194277400Y-102383604D01*
X194171961Y-102176669D01*
X194035449Y-101988776D01*
X194035446Y-101988773D01*
X194035444Y-101988770D01*
X193871229Y-101824555D01*
X193871226Y-101824553D01*
X193871224Y-101824551D01*
X193683331Y-101688039D01*
X193476396Y-101582600D01*
X193476393Y-101582599D01*
X193476391Y-101582598D01*
X193255518Y-101510832D01*
X193255516Y-101510831D01*
X193255514Y-101510831D01*
X193026124Y-101474500D01*
X192793876Y-101474500D01*
X192564486Y-101510831D01*
X192564484Y-101510831D01*
X192564481Y-101510832D01*
X192343608Y-101582598D01*
X192343602Y-101582601D01*
X192136665Y-101688041D01*
X191948773Y-101824553D01*
X191948770Y-101824555D01*
X191784555Y-101988770D01*
X191784553Y-101988773D01*
X191648041Y-102176665D01*
X191542601Y-102383602D01*
X191542598Y-102383608D01*
X191470832Y-102604481D01*
X191470831Y-102604484D01*
X191470831Y-102604486D01*
X191434500Y-102833876D01*
X187491673Y-102833876D01*
X187773891Y-102551658D01*
X188165144Y-102160404D01*
X188227457Y-102126379D01*
X188254240Y-102123499D01*
X188624712Y-102123499D01*
X188726881Y-102113062D01*
X188892420Y-102058209D01*
X189040846Y-101966658D01*
X189164158Y-101843346D01*
X189255709Y-101694920D01*
X189310562Y-101529381D01*
X189321000Y-101427213D01*
X189320999Y-100852788D01*
X189310562Y-100750619D01*
X189255709Y-100585080D01*
X189164158Y-100436654D01*
X189164157Y-100436653D01*
X189164152Y-100436647D01*
X189040852Y-100313347D01*
X189040846Y-100313342D01*
X189006328Y-100292051D01*
X188892420Y-100221791D01*
X188726881Y-100166938D01*
X188726879Y-100166937D01*
X188726877Y-100166937D01*
X188624721Y-100156500D01*
X188025287Y-100156500D01*
X187923119Y-100166937D01*
X187757579Y-100221791D01*
X187609153Y-100313342D01*
X187609147Y-100313347D01*
X187501241Y-100421254D01*
X187438929Y-100455280D01*
X187368114Y-100450215D01*
X187323051Y-100421254D01*
X187215539Y-100313742D01*
X187215533Y-100313737D01*
X187067207Y-100222248D01*
X186901776Y-100167431D01*
X186901773Y-100167430D01*
X186799684Y-100157000D01*
X186754000Y-100157000D01*
X186754000Y-101014000D01*
X186733998Y-101082121D01*
X186680342Y-101128614D01*
X186628000Y-101140000D01*
X186500000Y-101140000D01*
X186500000Y-101268000D01*
X186479998Y-101336121D01*
X186426342Y-101382614D01*
X186374000Y-101394000D01*
X185121000Y-101394000D01*
X185052879Y-101373998D01*
X185006386Y-101320342D01*
X184995000Y-101268000D01*
X184995000Y-101140000D01*
X184867000Y-101140000D01*
X184798879Y-101119998D01*
X184752386Y-101066342D01*
X184741000Y-101014000D01*
X184741000Y-100886000D01*
X185249000Y-100886000D01*
X186246000Y-100886000D01*
X186246000Y-100157000D01*
X186200315Y-100157000D01*
X186098226Y-100167430D01*
X186098223Y-100167431D01*
X185932790Y-100222249D01*
X185813646Y-100295738D01*
X185745167Y-100314475D01*
X185681354Y-100295738D01*
X185562209Y-100222249D01*
X185396776Y-100167431D01*
X185396773Y-100167430D01*
X185294684Y-100157000D01*
X185249000Y-100157000D01*
X185249000Y-100886000D01*
X184741000Y-100886000D01*
X184741000Y-100157000D01*
X184695315Y-100157000D01*
X184593226Y-100167430D01*
X184593223Y-100167431D01*
X184427792Y-100222248D01*
X184279466Y-100313737D01*
X184279460Y-100313742D01*
X184171949Y-100421254D01*
X184109637Y-100455280D01*
X184038822Y-100450215D01*
X183993759Y-100421254D01*
X183885852Y-100313347D01*
X183885846Y-100313342D01*
X183851328Y-100292051D01*
X183737420Y-100221791D01*
X183571881Y-100166938D01*
X183571879Y-100166937D01*
X183571877Y-100166937D01*
X183469721Y-100156500D01*
X182870287Y-100156500D01*
X182768119Y-100166937D01*
X182602579Y-100221791D01*
X182454153Y-100313342D01*
X182454147Y-100313347D01*
X182344095Y-100423400D01*
X182281783Y-100457426D01*
X182210968Y-100452361D01*
X182165905Y-100423400D01*
X182065852Y-100323347D01*
X182065846Y-100323342D01*
X182021093Y-100295738D01*
X181917420Y-100231791D01*
X181751881Y-100176938D01*
X181751879Y-100176937D01*
X181751877Y-100176937D01*
X181649721Y-100166500D01*
X181050287Y-100166500D01*
X180948119Y-100176937D01*
X180782579Y-100231791D01*
X180634153Y-100323342D01*
X180634147Y-100323347D01*
X180526595Y-100430900D01*
X180464283Y-100464926D01*
X180393468Y-100459861D01*
X180348405Y-100430900D01*
X180240852Y-100323347D01*
X180240846Y-100323342D01*
X180196093Y-100295738D01*
X180092420Y-100231791D01*
X179926881Y-100176938D01*
X179926879Y-100176937D01*
X179926877Y-100176937D01*
X179824725Y-100166500D01*
X179823088Y-100166417D01*
X179822749Y-100166298D01*
X179821521Y-100166173D01*
X179821551Y-100165879D01*
X179756074Y-100142974D01*
X179712371Y-100087022D01*
X179703500Y-100040580D01*
X179703500Y-99507812D01*
X179723502Y-99439691D01*
X179732334Y-99428731D01*
X179732260Y-99428676D01*
X179825287Y-99304407D01*
X179825287Y-99304406D01*
X179825289Y-99304404D01*
X179876389Y-99167401D01*
X179878044Y-99152013D01*
X179882899Y-99106849D01*
X179882900Y-99106832D01*
X179882900Y-97028367D01*
X179882899Y-97028350D01*
X179876390Y-96967803D01*
X179876388Y-96967795D01*
X179830896Y-96845829D01*
X179825289Y-96830796D01*
X179825288Y-96830794D01*
X179825287Y-96830792D01*
X179737661Y-96713738D01*
X179699908Y-96685477D01*
X179668990Y-96645647D01*
X179666162Y-96647280D01*
X179581923Y-96501375D01*
X179581915Y-96501365D01*
X178834145Y-95753595D01*
X178800119Y-95691283D01*
X178805184Y-95620468D01*
X178847731Y-95563632D01*
X178914251Y-95538821D01*
X178923240Y-95538500D01*
X181972918Y-95538500D01*
X182041039Y-95558502D01*
X182062013Y-95575405D01*
X183154595Y-96667987D01*
X183188621Y-96730299D01*
X183191500Y-96757082D01*
X183191500Y-98718649D01*
X183198009Y-98779196D01*
X183198011Y-98779204D01*
X183249110Y-98916202D01*
X183249112Y-98916207D01*
X183336738Y-99033261D01*
X183453792Y-99120887D01*
X183453794Y-99120888D01*
X183453796Y-99120889D01*
X183476521Y-99129365D01*
X183590795Y-99171988D01*
X183590803Y-99171990D01*
X183651350Y-99178499D01*
X183651355Y-99178499D01*
X183651362Y-99178500D01*
X183651368Y-99178500D01*
X186548632Y-99178500D01*
X186548638Y-99178500D01*
X186548645Y-99178499D01*
X186548649Y-99178499D01*
X186609196Y-99171990D01*
X186609199Y-99171989D01*
X186609201Y-99171989D01*
X186609542Y-99171862D01*
X186662758Y-99152013D01*
X186746204Y-99120889D01*
X186747248Y-99120108D01*
X186863261Y-99033261D01*
X186950887Y-98916207D01*
X186950887Y-98916206D01*
X186950889Y-98916204D01*
X187001989Y-98779201D01*
X187005196Y-98749377D01*
X187008499Y-98718649D01*
X187008500Y-98718632D01*
X187008500Y-98404500D01*
X187028502Y-98336379D01*
X187082158Y-98289886D01*
X187134500Y-98278500D01*
X189165500Y-98278500D01*
X189233621Y-98298502D01*
X189280114Y-98352158D01*
X189291500Y-98404500D01*
X189291500Y-98718649D01*
X189298009Y-98779196D01*
X189298011Y-98779204D01*
X189349110Y-98916202D01*
X189349112Y-98916207D01*
X189436738Y-99033261D01*
X189553792Y-99120887D01*
X189553794Y-99120888D01*
X189553796Y-99120889D01*
X189576521Y-99129365D01*
X189690795Y-99171988D01*
X189690803Y-99171990D01*
X189751350Y-99178499D01*
X189751355Y-99178499D01*
X189751362Y-99178500D01*
X189751368Y-99178500D01*
X192648632Y-99178500D01*
X192648638Y-99178500D01*
X192648645Y-99178499D01*
X192648649Y-99178499D01*
X192709196Y-99171990D01*
X192709199Y-99171989D01*
X192709201Y-99171989D01*
X192709542Y-99171862D01*
X192762758Y-99152013D01*
X192846204Y-99120889D01*
X192847248Y-99120108D01*
X192963261Y-99033261D01*
X193050887Y-98916207D01*
X193050887Y-98916206D01*
X193050889Y-98916204D01*
X193075039Y-98851455D01*
X193759500Y-98851455D01*
X193759500Y-99048544D01*
X193797949Y-99241835D01*
X193797950Y-99241838D01*
X193849652Y-99366658D01*
X193873368Y-99423914D01*
X193982861Y-99587782D01*
X194122218Y-99727139D01*
X194286086Y-99836632D01*
X194468165Y-99912051D01*
X194661459Y-99950500D01*
X194858541Y-99950500D01*
X195051835Y-99912051D01*
X195233914Y-99836632D01*
X195397782Y-99727139D01*
X195537139Y-99587782D01*
X195646632Y-99423914D01*
X195722051Y-99241835D01*
X195760500Y-99048541D01*
X195760500Y-98851459D01*
X195722051Y-98658165D01*
X195646632Y-98476086D01*
X195537139Y-98312218D01*
X195397782Y-98172861D01*
X195233914Y-98063368D01*
X195066613Y-97994070D01*
X195051838Y-97987950D01*
X195051835Y-97987949D01*
X194858544Y-97949500D01*
X194858541Y-97949500D01*
X194661459Y-97949500D01*
X194661455Y-97949500D01*
X194468164Y-97987949D01*
X194468161Y-97987950D01*
X194286085Y-98063368D01*
X194122222Y-98172858D01*
X194122215Y-98172863D01*
X193982863Y-98312215D01*
X193982858Y-98312222D01*
X193873368Y-98476085D01*
X193797950Y-98658161D01*
X193797949Y-98658164D01*
X193759500Y-98851455D01*
X193075039Y-98851455D01*
X193101989Y-98779201D01*
X193105196Y-98749377D01*
X193108499Y-98718649D01*
X193108500Y-98718632D01*
X193108500Y-96221367D01*
X193108499Y-96221350D01*
X193101990Y-96160803D01*
X193101988Y-96160795D01*
X193050889Y-96023797D01*
X193050887Y-96023792D01*
X192963261Y-95906738D01*
X192846207Y-95819112D01*
X192846202Y-95819110D01*
X192709204Y-95768011D01*
X192709196Y-95768009D01*
X192648649Y-95761500D01*
X192648638Y-95761500D01*
X192556082Y-95761500D01*
X192487961Y-95741498D01*
X192441468Y-95687842D01*
X192431364Y-95617568D01*
X192460858Y-95552988D01*
X192466987Y-95546405D01*
X193853281Y-94160111D01*
X195318003Y-92695389D01*
X195406484Y-92562968D01*
X195445261Y-92469351D01*
X195467430Y-92415831D01*
X195498500Y-92259630D01*
X195498500Y-84915989D01*
X195518502Y-84847868D01*
X195550438Y-84814054D01*
X195575004Y-84796206D01*
X195726206Y-84645004D01*
X195851894Y-84472009D01*
X195948972Y-84281483D01*
X196015049Y-84078116D01*
X196048500Y-83866916D01*
X196048500Y-83653084D01*
X196015049Y-83441884D01*
X195948972Y-83238517D01*
X195851894Y-83047991D01*
X195726206Y-82874996D01*
X195726203Y-82874993D01*
X195726201Y-82874990D01*
X195623229Y-82772018D01*
X195589203Y-82709706D01*
X195594268Y-82638891D01*
X195636815Y-82582055D01*
X195668284Y-82564871D01*
X195786204Y-82520889D01*
X195903261Y-82433261D01*
X195990889Y-82316204D01*
X196041989Y-82179201D01*
X196046093Y-82141032D01*
X196048499Y-82118649D01*
X196048500Y-82118632D01*
X196048500Y-80321367D01*
X196048499Y-80321350D01*
X196041990Y-80260803D01*
X196041988Y-80260795D01*
X195990889Y-80123797D01*
X195990887Y-80123792D01*
X195903261Y-80006738D01*
X195786207Y-79919112D01*
X195786202Y-79919110D01*
X195649204Y-79868011D01*
X195649196Y-79868009D01*
X195588649Y-79861500D01*
X195588638Y-79861500D01*
X193791362Y-79861500D01*
X193791350Y-79861500D01*
X193730803Y-79868009D01*
X193730795Y-79868011D01*
X193593797Y-79919110D01*
X193593792Y-79919112D01*
X193476738Y-80006738D01*
X193389112Y-80123792D01*
X193389110Y-80123797D01*
X193338011Y-80260795D01*
X193338009Y-80260803D01*
X193333907Y-80298968D01*
X193306738Y-80364561D01*
X193248420Y-80405052D01*
X193208629Y-80411500D01*
X189410367Y-80411500D01*
X189254168Y-80442570D01*
X189254163Y-80442572D01*
X189180600Y-80473043D01*
X189107032Y-80503516D01*
X188974615Y-80591994D01*
X188974613Y-80591995D01*
X188525900Y-81040706D01*
X188463588Y-81074731D01*
X188392772Y-81069666D01*
X188345773Y-81034916D01*
X188344356Y-81036334D01*
X188229511Y-80921489D01*
X188229501Y-80921481D01*
X188095994Y-80844401D01*
X187947083Y-80804500D01*
X187792917Y-80804500D01*
X187644006Y-80844401D01*
X187563707Y-80890761D01*
X187494711Y-80907498D01*
X187427620Y-80884277D01*
X187383733Y-80828469D01*
X187376985Y-80757794D01*
X187395941Y-80711643D01*
X187477770Y-80589178D01*
X187552436Y-80408918D01*
X187590500Y-80217556D01*
X187590500Y-80022444D01*
X187552436Y-79831082D01*
X187477770Y-79650822D01*
X187395942Y-79528358D01*
X187374728Y-79460607D01*
X187393511Y-79392140D01*
X187446328Y-79344697D01*
X187516410Y-79333340D01*
X187563708Y-79349239D01*
X187590777Y-79364867D01*
X187644006Y-79395599D01*
X187792917Y-79435500D01*
X187792919Y-79435500D01*
X187947081Y-79435500D01*
X187947083Y-79435500D01*
X188095994Y-79395599D01*
X188229505Y-79318516D01*
X188338516Y-79209505D01*
X188415599Y-79075994D01*
X188455500Y-78927083D01*
X188455500Y-78872230D01*
X188455771Y-78871303D01*
X188455514Y-78870375D01*
X188465751Y-78837316D01*
X188475502Y-78804109D01*
X188476230Y-78803477D01*
X188476516Y-78802556D01*
X188503003Y-78780278D01*
X188529158Y-78757616D01*
X188530356Y-78757273D01*
X188530851Y-78756858D01*
X188545119Y-78753056D01*
X188565406Y-78747262D01*
X188566682Y-78747097D01*
X188614201Y-78741989D01*
X188618340Y-78740444D01*
X188630096Y-78738931D01*
X188658932Y-78743511D01*
X188688092Y-78745070D01*
X188693558Y-78749010D01*
X188700214Y-78750068D01*
X188721996Y-78769511D01*
X188745684Y-78786588D01*
X188750953Y-78793894D01*
X188771997Y-78825389D01*
X188772000Y-78825392D01*
X188772003Y-78825396D01*
X188884603Y-78937996D01*
X188884609Y-78938001D01*
X188884611Y-78938003D01*
X189017032Y-79026483D01*
X189164169Y-79087430D01*
X189320370Y-79118500D01*
X189320371Y-79118500D01*
X189479629Y-79118500D01*
X189479630Y-79118500D01*
X189635831Y-79087430D01*
X189782968Y-79026483D01*
X189915389Y-78938003D01*
X190028003Y-78825389D01*
X190116483Y-78692968D01*
X190177430Y-78545831D01*
X190208500Y-78389630D01*
X190208500Y-78230370D01*
X190177430Y-78074169D01*
X190176306Y-78071455D01*
X192769500Y-78071455D01*
X192769500Y-78268544D01*
X192807949Y-78461835D01*
X192807950Y-78461838D01*
X192817497Y-78484886D01*
X192883368Y-78643914D01*
X192992861Y-78807782D01*
X193132218Y-78947139D01*
X193296086Y-79056632D01*
X193478165Y-79132051D01*
X193671459Y-79170500D01*
X193868541Y-79170500D01*
X194061835Y-79132051D01*
X194243914Y-79056632D01*
X194407782Y-78947139D01*
X194547139Y-78807782D01*
X194656632Y-78643914D01*
X194732051Y-78461835D01*
X194770500Y-78268541D01*
X194770500Y-78071459D01*
X194732051Y-77878165D01*
X194656632Y-77696086D01*
X194547139Y-77532218D01*
X194407782Y-77392861D01*
X194243914Y-77283368D01*
X194071910Y-77212122D01*
X194061838Y-77207950D01*
X194061835Y-77207949D01*
X193868544Y-77169500D01*
X193868541Y-77169500D01*
X193671459Y-77169500D01*
X193671455Y-77169500D01*
X193478164Y-77207949D01*
X193478161Y-77207950D01*
X193296085Y-77283368D01*
X193132222Y-77392858D01*
X193132215Y-77392863D01*
X192992863Y-77532215D01*
X192992858Y-77532222D01*
X192883368Y-77696085D01*
X192807950Y-77878161D01*
X192807949Y-77878164D01*
X192769500Y-78071455D01*
X190176306Y-78071455D01*
X190116483Y-77927032D01*
X190028003Y-77794611D01*
X190028001Y-77794609D01*
X190027996Y-77794603D01*
X189915396Y-77682003D01*
X189915390Y-77681998D01*
X189915389Y-77681997D01*
X189782968Y-77593517D01*
X189635831Y-77532570D01*
X189578838Y-77521233D01*
X189482685Y-77502107D01*
X189419775Y-77469199D01*
X189418172Y-77467623D01*
X189050405Y-77099856D01*
X189016379Y-77037544D01*
X189013500Y-77010761D01*
X189013500Y-76616500D01*
X189033502Y-76548379D01*
X189087158Y-76501886D01*
X189139500Y-76490500D01*
X193383071Y-76490500D01*
X193406707Y-76490500D01*
X193413301Y-76490673D01*
X193712752Y-76506366D01*
X193725867Y-76507743D01*
X193891565Y-76533988D01*
X194018793Y-76554139D01*
X194031693Y-76556881D01*
X194254194Y-76616500D01*
X194318162Y-76633640D01*
X194330703Y-76637715D01*
X194607576Y-76743997D01*
X194619608Y-76749353D01*
X194883873Y-76884003D01*
X194895288Y-76890594D01*
X194934867Y-76916297D01*
X195144017Y-77052121D01*
X195154685Y-77059872D01*
X195323217Y-77196347D01*
X195385160Y-77246507D01*
X195394961Y-77255332D01*
X195604667Y-77465038D01*
X195613492Y-77474839D01*
X195800126Y-77705313D01*
X195807878Y-77715982D01*
X195969404Y-77964710D01*
X195975999Y-77976132D01*
X196110642Y-78240383D01*
X196116006Y-78252432D01*
X196222283Y-78529294D01*
X196226359Y-78541837D01*
X196303118Y-78828306D01*
X196305860Y-78841206D01*
X196352255Y-79134131D01*
X196353633Y-79147247D01*
X196369327Y-79446697D01*
X196369500Y-79453292D01*
X196369500Y-103446707D01*
X196369327Y-103453302D01*
X196353633Y-103752752D01*
X196352255Y-103765868D01*
X196305860Y-104058793D01*
X196303118Y-104071693D01*
X196226359Y-104358162D01*
X196222283Y-104370705D01*
X196116006Y-104647567D01*
X196110642Y-104659616D01*
X195975999Y-104923867D01*
X195969404Y-104935289D01*
X195807878Y-105184017D01*
X195800126Y-105194686D01*
X195613492Y-105425160D01*
X195604667Y-105434961D01*
X195394961Y-105644667D01*
X195385160Y-105653492D01*
X195154686Y-105840126D01*
X195144017Y-105847878D01*
X194895289Y-106009404D01*
X194883867Y-106015999D01*
X194619616Y-106150642D01*
X194607567Y-106156006D01*
X194330705Y-106262283D01*
X194318162Y-106266359D01*
X194031693Y-106343118D01*
X194018793Y-106345860D01*
X193725868Y-106392255D01*
X193712752Y-106393633D01*
X193428048Y-106408554D01*
X193413300Y-106409327D01*
X193406707Y-106409500D01*
X134413293Y-106409500D01*
X134406699Y-106409327D01*
X134391068Y-106408507D01*
X134107247Y-106393633D01*
X134094131Y-106392255D01*
X133801206Y-106345860D01*
X133788306Y-106343118D01*
X133501837Y-106266359D01*
X133489294Y-106262283D01*
X133212432Y-106156006D01*
X133200383Y-106150642D01*
X132936132Y-106015999D01*
X132924710Y-106009404D01*
X132675982Y-105847878D01*
X132665313Y-105840126D01*
X132434839Y-105653492D01*
X132425038Y-105644667D01*
X132215332Y-105434961D01*
X132206507Y-105425160D01*
X132205790Y-105424275D01*
X132019872Y-105194685D01*
X132012121Y-105184017D01*
X131850595Y-104935289D01*
X131844000Y-104923867D01*
X131840440Y-104916881D01*
X131735770Y-104711455D01*
X138919500Y-104711455D01*
X138919500Y-104908544D01*
X138957949Y-105101835D01*
X138957950Y-105101838D01*
X138994281Y-105189550D01*
X139033368Y-105283914D01*
X139142861Y-105447782D01*
X139282218Y-105587139D01*
X139446086Y-105696632D01*
X139628165Y-105772051D01*
X139821459Y-105810500D01*
X140018541Y-105810500D01*
X140211835Y-105772051D01*
X140393914Y-105696632D01*
X140557782Y-105587139D01*
X140697139Y-105447782D01*
X140806632Y-105283914D01*
X140882051Y-105101835D01*
X140920500Y-104908541D01*
X140920500Y-104711459D01*
X140882051Y-104518165D01*
X140806632Y-104336086D01*
X140697139Y-104172218D01*
X140557782Y-104032861D01*
X140393914Y-103923368D01*
X140224918Y-103853368D01*
X140211838Y-103847950D01*
X140211835Y-103847949D01*
X140018544Y-103809500D01*
X140018541Y-103809500D01*
X139821459Y-103809500D01*
X139821455Y-103809500D01*
X139628164Y-103847949D01*
X139628161Y-103847950D01*
X139446085Y-103923368D01*
X139282222Y-104032858D01*
X139282215Y-104032863D01*
X139142863Y-104172215D01*
X139142858Y-104172222D01*
X139033368Y-104336085D01*
X138957950Y-104518161D01*
X138957949Y-104518164D01*
X138919500Y-104711455D01*
X131735770Y-104711455D01*
X131709353Y-104659608D01*
X131703997Y-104647576D01*
X131597715Y-104370703D01*
X131593640Y-104358162D01*
X131587724Y-104336085D01*
X131516881Y-104071693D01*
X131514139Y-104058793D01*
X131509525Y-104029664D01*
X131467743Y-103765867D01*
X131466366Y-103752751D01*
X131466046Y-103746654D01*
X131450673Y-103453301D01*
X131450500Y-103446707D01*
X131450500Y-102833876D01*
X133434500Y-102833876D01*
X133434500Y-103066124D01*
X133469740Y-103288624D01*
X133470832Y-103295518D01*
X133521026Y-103450000D01*
X133542600Y-103516396D01*
X133648039Y-103723331D01*
X133784551Y-103911224D01*
X133784553Y-103911226D01*
X133784555Y-103911229D01*
X133948770Y-104075444D01*
X133948773Y-104075446D01*
X133948776Y-104075449D01*
X134136669Y-104211961D01*
X134343604Y-104317400D01*
X134564486Y-104389169D01*
X134793876Y-104425500D01*
X134793878Y-104425500D01*
X135026122Y-104425500D01*
X135026124Y-104425500D01*
X135255514Y-104389169D01*
X135476396Y-104317400D01*
X135683331Y-104211961D01*
X135871224Y-104075449D01*
X136035449Y-103911224D01*
X136171961Y-103723331D01*
X136277400Y-103516396D01*
X136349169Y-103295514D01*
X136385500Y-103066124D01*
X136385500Y-102993446D01*
X141330500Y-102993446D01*
X141330500Y-105294544D01*
X141341112Y-105398425D01*
X141396885Y-105566738D01*
X141489970Y-105717652D01*
X141489975Y-105717658D01*
X141615341Y-105843024D01*
X141615347Y-105843029D01*
X141615348Y-105843030D01*
X141766262Y-105936115D01*
X141934574Y-105991887D01*
X142038455Y-106002500D01*
X142639544Y-106002499D01*
X142743426Y-105991887D01*
X142911738Y-105936115D01*
X143062652Y-105843030D01*
X143188030Y-105717652D01*
X143281115Y-105566738D01*
X143336887Y-105398426D01*
X143347500Y-105294545D01*
X143347499Y-102993456D01*
X143347498Y-102993446D01*
X146280500Y-102993446D01*
X146280500Y-105294544D01*
X146291112Y-105398425D01*
X146346885Y-105566738D01*
X146439970Y-105717652D01*
X146439975Y-105717658D01*
X146565341Y-105843024D01*
X146565347Y-105843029D01*
X146565348Y-105843030D01*
X146716262Y-105936115D01*
X146884574Y-105991887D01*
X146988455Y-106002500D01*
X147589544Y-106002499D01*
X147693426Y-105991887D01*
X147861738Y-105936115D01*
X148012652Y-105843030D01*
X148138030Y-105717652D01*
X148231115Y-105566738D01*
X148286887Y-105398426D01*
X148297500Y-105294545D01*
X148297499Y-102993456D01*
X148297342Y-102991924D01*
X148286887Y-102889574D01*
X148286886Y-102889572D01*
X148231115Y-102721262D01*
X148138030Y-102570348D01*
X148138029Y-102570347D01*
X148138024Y-102570341D01*
X148012658Y-102444975D01*
X148012652Y-102444970D01*
X147982678Y-102426482D01*
X147861738Y-102351885D01*
X147741848Y-102312158D01*
X147693427Y-102296113D01*
X147693420Y-102296112D01*
X147589553Y-102285500D01*
X146988455Y-102285500D01*
X146884574Y-102296112D01*
X146716261Y-102351885D01*
X146565347Y-102444970D01*
X146565341Y-102444975D01*
X146439975Y-102570341D01*
X146439970Y-102570347D01*
X146346885Y-102721262D01*
X146291113Y-102889572D01*
X146291112Y-102889579D01*
X146280500Y-102993446D01*
X143347498Y-102993446D01*
X143347342Y-102991924D01*
X143336887Y-102889574D01*
X143336886Y-102889572D01*
X143281115Y-102721262D01*
X143188030Y-102570348D01*
X143188029Y-102570347D01*
X143188024Y-102570341D01*
X143062658Y-102444975D01*
X143062652Y-102444970D01*
X143032678Y-102426482D01*
X142911738Y-102351885D01*
X142791848Y-102312158D01*
X142743427Y-102296113D01*
X142743420Y-102296112D01*
X142639553Y-102285500D01*
X142038455Y-102285500D01*
X141934574Y-102296112D01*
X141766261Y-102351885D01*
X141615347Y-102444970D01*
X141615341Y-102444975D01*
X141489975Y-102570341D01*
X141489970Y-102570347D01*
X141396885Y-102721262D01*
X141341113Y-102889572D01*
X141341112Y-102889579D01*
X141330500Y-102993446D01*
X136385500Y-102993446D01*
X136385500Y-102833876D01*
X136349169Y-102604486D01*
X136277400Y-102383604D01*
X136171961Y-102176669D01*
X136035449Y-101988776D01*
X136035446Y-101988773D01*
X136035444Y-101988770D01*
X135871229Y-101824555D01*
X135871226Y-101824553D01*
X135871224Y-101824551D01*
X135683331Y-101688039D01*
X135476396Y-101582600D01*
X135476393Y-101582599D01*
X135476391Y-101582598D01*
X135255518Y-101510832D01*
X135255516Y-101510831D01*
X135255514Y-101510831D01*
X135026124Y-101474500D01*
X134793876Y-101474500D01*
X134564486Y-101510831D01*
X134564484Y-101510831D01*
X134564481Y-101510832D01*
X134343608Y-101582598D01*
X134343602Y-101582601D01*
X134136665Y-101688041D01*
X133948773Y-101824553D01*
X133948770Y-101824555D01*
X133784555Y-101988770D01*
X133784553Y-101988773D01*
X133648041Y-102176665D01*
X133542601Y-102383602D01*
X133542598Y-102383608D01*
X133470832Y-102604481D01*
X133470831Y-102604484D01*
X133470831Y-102604486D01*
X133434500Y-102833876D01*
X131450500Y-102833876D01*
X131450500Y-98306215D01*
X131470502Y-98238094D01*
X131524158Y-98191601D01*
X131594432Y-98181497D01*
X131620526Y-98188157D01*
X131630799Y-98191989D01*
X131630803Y-98191989D01*
X131630805Y-98191990D01*
X131630803Y-98191990D01*
X131691350Y-98198499D01*
X131691355Y-98198499D01*
X131691362Y-98198500D01*
X131691368Y-98198500D01*
X132523805Y-98198500D01*
X132591926Y-98218502D01*
X132638419Y-98272158D01*
X132648523Y-98342432D01*
X132619029Y-98407012D01*
X132572022Y-98440909D01*
X132566088Y-98443366D01*
X132566086Y-98443367D01*
X132402222Y-98552858D01*
X132402215Y-98552863D01*
X132262863Y-98692215D01*
X132262858Y-98692222D01*
X132153368Y-98856085D01*
X132077950Y-99038161D01*
X132077949Y-99038164D01*
X132039500Y-99231455D01*
X132039500Y-99428544D01*
X132077949Y-99621835D01*
X132077950Y-99621838D01*
X132103430Y-99683352D01*
X132153368Y-99803914D01*
X132262861Y-99967782D01*
X132402218Y-100107139D01*
X132566086Y-100216632D01*
X132748165Y-100292051D01*
X132941459Y-100330500D01*
X133138541Y-100330500D01*
X133331835Y-100292051D01*
X133513914Y-100216632D01*
X133677782Y-100107139D01*
X133817139Y-99967782D01*
X133926632Y-99803914D01*
X134002051Y-99621835D01*
X134040500Y-99428541D01*
X134040500Y-99231459D01*
X134002051Y-99038165D01*
X133926632Y-98856086D01*
X133817139Y-98692218D01*
X133677782Y-98552861D01*
X133562880Y-98476086D01*
X133513913Y-98443367D01*
X133513911Y-98443366D01*
X133507978Y-98440909D01*
X133452696Y-98396361D01*
X133430275Y-98328998D01*
X133447833Y-98260207D01*
X133499795Y-98211828D01*
X133556195Y-98198500D01*
X135188632Y-98198500D01*
X135188638Y-98198500D01*
X135188645Y-98198499D01*
X135188649Y-98198499D01*
X135249196Y-98191990D01*
X135249199Y-98191989D01*
X135249201Y-98191989D01*
X135250242Y-98191601D01*
X135300479Y-98172863D01*
X135386204Y-98140889D01*
X135477189Y-98072778D01*
X143221500Y-98072778D01*
X143221500Y-98647212D01*
X143231937Y-98749380D01*
X143266903Y-98854902D01*
X143286791Y-98914920D01*
X143378342Y-99063346D01*
X143427691Y-99112695D01*
X143461715Y-99175005D01*
X143456651Y-99245820D01*
X143455004Y-99250006D01*
X143432573Y-99304159D01*
X143432570Y-99304168D01*
X143401500Y-99460367D01*
X143401500Y-99619632D01*
X143432571Y-99775836D01*
X143457190Y-99835270D01*
X143464779Y-99905860D01*
X143449237Y-99947623D01*
X143429853Y-99980401D01*
X143383438Y-100140167D01*
X143383437Y-100140171D01*
X143380500Y-100177488D01*
X143380500Y-101710511D01*
X143383437Y-101747828D01*
X143383437Y-101747829D01*
X143429856Y-101907605D01*
X143514544Y-102050803D01*
X143514549Y-102050810D01*
X143632189Y-102168450D01*
X143632196Y-102168455D01*
X143775394Y-102253143D01*
X143775397Y-102253143D01*
X143775399Y-102253145D01*
X143935169Y-102299562D01*
X143972488Y-102302499D01*
X143972489Y-102302500D01*
X143972498Y-102302500D01*
X144405511Y-102302500D01*
X144405511Y-102302499D01*
X144442831Y-102299562D01*
X144602601Y-102253145D01*
X144745807Y-102168453D01*
X144745807Y-102168452D01*
X144749860Y-102166056D01*
X144818677Y-102148596D01*
X144878140Y-102166056D01*
X144882192Y-102168452D01*
X144882193Y-102168453D01*
X145025399Y-102253145D01*
X145185169Y-102299562D01*
X145222488Y-102302499D01*
X145222489Y-102302500D01*
X145222498Y-102302500D01*
X145655511Y-102302500D01*
X145655511Y-102302499D01*
X145692831Y-102299562D01*
X145852601Y-102253145D01*
X145852603Y-102253143D01*
X145852605Y-102253143D01*
X145936402Y-102203585D01*
X145995807Y-102168453D01*
X146113453Y-102050807D01*
X146157305Y-101976658D01*
X146198143Y-101907605D01*
X146198143Y-101907603D01*
X146198145Y-101907601D01*
X146244562Y-101747831D01*
X146247499Y-101710511D01*
X146247500Y-101710511D01*
X146247500Y-101630367D01*
X160561500Y-101630367D01*
X160561500Y-101789632D01*
X160572185Y-101843346D01*
X160592570Y-101945831D01*
X160653517Y-102092968D01*
X160739726Y-102221990D01*
X160741998Y-102225390D01*
X160742003Y-102225396D01*
X160854603Y-102337996D01*
X160854609Y-102338001D01*
X160854611Y-102338003D01*
X160987032Y-102426483D01*
X161134169Y-102487430D01*
X161290370Y-102518500D01*
X161290371Y-102518500D01*
X161449629Y-102518500D01*
X161449630Y-102518500D01*
X161595326Y-102489519D01*
X161666036Y-102495847D01*
X161708998Y-102524002D01*
X161736654Y-102551658D01*
X161885080Y-102643209D01*
X162050619Y-102698062D01*
X162152787Y-102708500D01*
X162727212Y-102708499D01*
X162829381Y-102698062D01*
X162994920Y-102643209D01*
X163143346Y-102551658D01*
X163266658Y-102428346D01*
X163358209Y-102279920D01*
X163413062Y-102114381D01*
X163423500Y-102012213D01*
X163423499Y-101412788D01*
X163423367Y-101411500D01*
X163413062Y-101310619D01*
X163398940Y-101268000D01*
X163358209Y-101145080D01*
X163357851Y-101144500D01*
X163305378Y-101059428D01*
X163286640Y-100990949D01*
X163307899Y-100923210D01*
X163362406Y-100877718D01*
X163432855Y-100868917D01*
X163496879Y-100899600D01*
X163513486Y-100917771D01*
X163574597Y-100999405D01*
X163691534Y-101086944D01*
X163828406Y-101137994D01*
X163888902Y-101144499D01*
X163888915Y-101144500D01*
X165246000Y-101144500D01*
X165246000Y-100024000D01*
X163554999Y-100024000D01*
X163551467Y-100027531D01*
X163534998Y-100083621D01*
X163481342Y-100130114D01*
X163429000Y-100141500D01*
X161457000Y-100141500D01*
X161457000Y-100187184D01*
X161467430Y-100289273D01*
X161467431Y-100289276D01*
X161522248Y-100454707D01*
X161613737Y-100603033D01*
X161613742Y-100603039D01*
X161721253Y-100710550D01*
X161725659Y-100718619D01*
X161733022Y-100724130D01*
X161742408Y-100749292D01*
X161755279Y-100772862D01*
X161754622Y-100782034D01*
X161757836Y-100790648D01*
X161752130Y-100816885D01*
X161750214Y-100843677D01*
X161744303Y-100852873D01*
X161742749Y-100860024D01*
X161721259Y-100888735D01*
X161713175Y-100896820D01*
X161650865Y-100930849D01*
X161599493Y-100931309D01*
X161449635Y-100901500D01*
X161449630Y-100901500D01*
X161290370Y-100901500D01*
X161290367Y-100901500D01*
X161197765Y-100919920D01*
X161134169Y-100932570D01*
X161083546Y-100953539D01*
X160987032Y-100993517D01*
X160854609Y-101081998D01*
X160854603Y-101082003D01*
X160742003Y-101194603D01*
X160741998Y-101194609D01*
X160653517Y-101327032D01*
X160592571Y-101474167D01*
X160592570Y-101474170D01*
X160561500Y-101630367D01*
X146247500Y-101630367D01*
X146247500Y-101048239D01*
X146267502Y-100980118D01*
X146284400Y-100959148D01*
X146536921Y-100706628D01*
X146567838Y-100653078D01*
X146617032Y-100567872D01*
X146658500Y-100413111D01*
X146658500Y-99587815D01*
X161457000Y-99587815D01*
X161457000Y-99633500D01*
X162186000Y-99633500D01*
X162186000Y-98892000D01*
X162694000Y-98892000D01*
X162694000Y-99633500D01*
X163297501Y-99633500D01*
X163301032Y-99629968D01*
X163317502Y-99573879D01*
X163371158Y-99527386D01*
X163423500Y-99516000D01*
X165246000Y-99516000D01*
X165246000Y-98395500D01*
X163888902Y-98395500D01*
X163828406Y-98402005D01*
X163691535Y-98453055D01*
X163691534Y-98453055D01*
X163574595Y-98540595D01*
X163487055Y-98657534D01*
X163487055Y-98657535D01*
X163436005Y-98794406D01*
X163429500Y-98854902D01*
X163429500Y-99031013D01*
X163409498Y-99099134D01*
X163355842Y-99145627D01*
X163285568Y-99155731D01*
X163220988Y-99126237D01*
X163214405Y-99120108D01*
X163143039Y-99048742D01*
X163143033Y-99048737D01*
X162994707Y-98957248D01*
X162829276Y-98902431D01*
X162829273Y-98902430D01*
X162727184Y-98892000D01*
X162694000Y-98892000D01*
X162186000Y-98892000D01*
X162152815Y-98892000D01*
X162050726Y-98902430D01*
X162050723Y-98902431D01*
X161885292Y-98957248D01*
X161736966Y-99048737D01*
X161736960Y-99048742D01*
X161613742Y-99171960D01*
X161613737Y-99171966D01*
X161522248Y-99320292D01*
X161467431Y-99485723D01*
X161467430Y-99485726D01*
X161457000Y-99587815D01*
X146658500Y-99587815D01*
X146658500Y-99318566D01*
X146678502Y-99250445D01*
X146718352Y-99211326D01*
X146758346Y-99186658D01*
X146881658Y-99063346D01*
X146973209Y-98914920D01*
X147028062Y-98749381D01*
X147038500Y-98647213D01*
X147038499Y-98072788D01*
X147028062Y-97970619D01*
X146973209Y-97805080D01*
X146881658Y-97656654D01*
X146881657Y-97656653D01*
X146881652Y-97656647D01*
X146758346Y-97533341D01*
X146710852Y-97504046D01*
X146703917Y-97496336D01*
X146694488Y-97492030D01*
X146680581Y-97470391D01*
X146663374Y-97451260D01*
X146660686Y-97439435D01*
X146656104Y-97432304D01*
X146651000Y-97396806D01*
X146651000Y-97192798D01*
X146671002Y-97124677D01*
X146672205Y-97122840D01*
X146758983Y-96992968D01*
X146819930Y-96845831D01*
X146851000Y-96689630D01*
X146851000Y-96530370D01*
X146842422Y-96487246D01*
X146848749Y-96416536D01*
X146892303Y-96360468D01*
X146919267Y-96347132D01*
X146918780Y-96345956D01*
X146924498Y-96343587D01*
X146924500Y-96343587D01*
X147089836Y-96275102D01*
X147238635Y-96175678D01*
X147365178Y-96049135D01*
X147464602Y-95900336D01*
X147533087Y-95735000D01*
X147568000Y-95559479D01*
X147568000Y-95380521D01*
X147533087Y-95205000D01*
X147464602Y-95039664D01*
X147365178Y-94890865D01*
X147260403Y-94786090D01*
X147245455Y-94758715D01*
X147228603Y-94732493D01*
X147227697Y-94726194D01*
X147226378Y-94723778D01*
X147223499Y-94696995D01*
X147223499Y-94632778D01*
X148056500Y-94632778D01*
X148056500Y-95232212D01*
X148066937Y-95334380D01*
X148121791Y-95499920D01*
X148213342Y-95648346D01*
X148213347Y-95648352D01*
X148336647Y-95771652D01*
X148336653Y-95771657D01*
X148336654Y-95771658D01*
X148485080Y-95863209D01*
X148650619Y-95918062D01*
X148752787Y-95928500D01*
X148880979Y-95928499D01*
X148949099Y-95948501D01*
X148992101Y-95995103D01*
X148994898Y-96000336D01*
X149094322Y-96149135D01*
X149220865Y-96275678D01*
X149369664Y-96375102D01*
X149535000Y-96443587D01*
X149710521Y-96478500D01*
X149710522Y-96478500D01*
X149889478Y-96478500D01*
X149889479Y-96478500D01*
X150065000Y-96443587D01*
X150230336Y-96375102D01*
X150379135Y-96275678D01*
X150505678Y-96149135D01*
X150605102Y-96000336D01*
X150673587Y-95835000D01*
X150708500Y-95659479D01*
X150708500Y-95480521D01*
X150673587Y-95305000D01*
X150605102Y-95139664D01*
X150505678Y-94990865D01*
X150379135Y-94864322D01*
X150230336Y-94764898D01*
X150097937Y-94710056D01*
X150042657Y-94665507D01*
X150020808Y-94606453D01*
X150013062Y-94530619D01*
X149958209Y-94365080D01*
X149866658Y-94216654D01*
X149866657Y-94216653D01*
X149866652Y-94216647D01*
X149758746Y-94108741D01*
X149724720Y-94046429D01*
X149729785Y-93975614D01*
X149758746Y-93930551D01*
X149866257Y-93823039D01*
X149866262Y-93823033D01*
X149957751Y-93674707D01*
X150012568Y-93509276D01*
X150012569Y-93509273D01*
X150022999Y-93407184D01*
X150023000Y-93407184D01*
X150023000Y-93361500D01*
X148057000Y-93361500D01*
X148057000Y-93407184D01*
X148067430Y-93509273D01*
X148067431Y-93509276D01*
X148122248Y-93674707D01*
X148213737Y-93823033D01*
X148213742Y-93823039D01*
X148321254Y-93930551D01*
X148355280Y-93992863D01*
X148350215Y-94063678D01*
X148321254Y-94108741D01*
X148213347Y-94216647D01*
X148213342Y-94216653D01*
X148121791Y-94365080D01*
X148066937Y-94530622D01*
X148056500Y-94632778D01*
X147223499Y-94632778D01*
X147223499Y-94312787D01*
X147213062Y-94210619D01*
X147212684Y-94209477D01*
X147158209Y-94045080D01*
X147066658Y-93896654D01*
X147066657Y-93896653D01*
X147066652Y-93896647D01*
X146958746Y-93788741D01*
X146924720Y-93726429D01*
X146929785Y-93655614D01*
X146958746Y-93610551D01*
X147066257Y-93503039D01*
X147066262Y-93503033D01*
X147157751Y-93354707D01*
X147212568Y-93189276D01*
X147212569Y-93189273D01*
X147222999Y-93087184D01*
X147223000Y-93087184D01*
X147223000Y-93041500D01*
X145224691Y-93041500D01*
X145156570Y-93021498D01*
X145135596Y-93004595D01*
X145125001Y-92994000D01*
X144854000Y-92994000D01*
X144854000Y-93748000D01*
X144923585Y-93748000D01*
X144923597Y-93747999D01*
X144984093Y-93741494D01*
X145120964Y-93690444D01*
X145120965Y-93690444D01*
X145237904Y-93602904D01*
X145268794Y-93561640D01*
X145283296Y-93550783D01*
X145294153Y-93536281D01*
X145311125Y-93529950D01*
X145325629Y-93519093D01*
X145343700Y-93517800D01*
X145360673Y-93511470D01*
X145378373Y-93515320D01*
X145396445Y-93514028D01*
X145412345Y-93522710D01*
X145430047Y-93526561D01*
X145458752Y-93548050D01*
X145458757Y-93548053D01*
X145458757Y-93548054D01*
X145521254Y-93610551D01*
X145555280Y-93672863D01*
X145550215Y-93743678D01*
X145521254Y-93788741D01*
X145413347Y-93896647D01*
X145413342Y-93896653D01*
X145321791Y-94045080D01*
X145266937Y-94210622D01*
X145256500Y-94312778D01*
X145256500Y-94912212D01*
X145266937Y-95014380D01*
X145321791Y-95179920D01*
X145413342Y-95328346D01*
X145413347Y-95328352D01*
X145536647Y-95451652D01*
X145536653Y-95451657D01*
X145536654Y-95451658D01*
X145685080Y-95543209D01*
X145685087Y-95543211D01*
X145691730Y-95546309D01*
X145690878Y-95548135D01*
X145692952Y-95549572D01*
X145705267Y-95552482D01*
X145721595Y-95569403D01*
X145740923Y-95582786D01*
X145746972Y-95595703D01*
X145754565Y-95603572D01*
X145766497Y-95637393D01*
X145785250Y-95731667D01*
X145778922Y-95802381D01*
X145735368Y-95858448D01*
X145709890Y-95872657D01*
X145659536Y-95893514D01*
X145659532Y-95893516D01*
X145527109Y-95981998D01*
X145527103Y-95982003D01*
X145414503Y-96094603D01*
X145414498Y-96094609D01*
X145378064Y-96149137D01*
X145326017Y-96227032D01*
X145265070Y-96374169D01*
X145257644Y-96411500D01*
X145234000Y-96530367D01*
X145234000Y-96689632D01*
X145244191Y-96740865D01*
X145265070Y-96845831D01*
X145326017Y-96992968D01*
X145412765Y-97122797D01*
X145418507Y-97141135D01*
X145428896Y-97157300D01*
X145433419Y-97188757D01*
X145433980Y-97190549D01*
X145434000Y-97192798D01*
X145434000Y-97396806D01*
X145413998Y-97464927D01*
X145374148Y-97504046D01*
X145326653Y-97533341D01*
X145219095Y-97640900D01*
X145156783Y-97674926D01*
X145085968Y-97669861D01*
X145040905Y-97640900D01*
X144933352Y-97533347D01*
X144933346Y-97533342D01*
X144831287Y-97470391D01*
X144784920Y-97441791D01*
X144619381Y-97386938D01*
X144619379Y-97386937D01*
X144619377Y-97386937D01*
X144517221Y-97376500D01*
X143917787Y-97376500D01*
X143815619Y-97386937D01*
X143650079Y-97441791D01*
X143501653Y-97533342D01*
X143501647Y-97533347D01*
X143378347Y-97656647D01*
X143378342Y-97656653D01*
X143286791Y-97805080D01*
X143231937Y-97970622D01*
X143221500Y-98072778D01*
X135477189Y-98072778D01*
X135503261Y-98053261D01*
X135590889Y-97936204D01*
X135641989Y-97799201D01*
X135644984Y-97771350D01*
X135648499Y-97738649D01*
X135648500Y-97738632D01*
X135648500Y-96141367D01*
X135648499Y-96141350D01*
X135641990Y-96080803D01*
X135641988Y-96080795D01*
X135610026Y-95995103D01*
X135590889Y-95943796D01*
X135590888Y-95943794D01*
X135590887Y-95943792D01*
X135503261Y-95826738D01*
X135386207Y-95739112D01*
X135386202Y-95739110D01*
X135249204Y-95688011D01*
X135249196Y-95688009D01*
X135188649Y-95681500D01*
X135188638Y-95681500D01*
X131691362Y-95681500D01*
X131691350Y-95681500D01*
X131630803Y-95688009D01*
X131630800Y-95688010D01*
X131620530Y-95691841D01*
X131549714Y-95696904D01*
X131487402Y-95662877D01*
X131453379Y-95600564D01*
X131450500Y-95573784D01*
X131450500Y-91606215D01*
X131470502Y-91538094D01*
X131524158Y-91491601D01*
X131594432Y-91481497D01*
X131620526Y-91488157D01*
X131630799Y-91491989D01*
X131630803Y-91491989D01*
X131630805Y-91491990D01*
X131630803Y-91491990D01*
X131691350Y-91498499D01*
X131691355Y-91498499D01*
X131691362Y-91498500D01*
X131691368Y-91498500D01*
X135188632Y-91498500D01*
X135188638Y-91498500D01*
X135188645Y-91498499D01*
X135188649Y-91498499D01*
X135249196Y-91491990D01*
X135249199Y-91491989D01*
X135249201Y-91491989D01*
X135250242Y-91491601D01*
X135286275Y-91478161D01*
X135386204Y-91440889D01*
X135412538Y-91421176D01*
X135503261Y-91353261D01*
X135590887Y-91236207D01*
X135590887Y-91236206D01*
X135590889Y-91236204D01*
X135641989Y-91099201D01*
X135642886Y-91090865D01*
X135648499Y-91038649D01*
X135648500Y-91038632D01*
X135648500Y-89441367D01*
X135648499Y-89441350D01*
X135641990Y-89380803D01*
X135641988Y-89380795D01*
X135590889Y-89243797D01*
X135590887Y-89243792D01*
X135503261Y-89126738D01*
X135386207Y-89039112D01*
X135386202Y-89039110D01*
X135249204Y-88988011D01*
X135249196Y-88988009D01*
X135188649Y-88981500D01*
X135188638Y-88981500D01*
X131691362Y-88981500D01*
X131691350Y-88981500D01*
X131630803Y-88988009D01*
X131630800Y-88988010D01*
X131620530Y-88991841D01*
X131549714Y-88996904D01*
X131487402Y-88962877D01*
X131453379Y-88900564D01*
X131450500Y-88873784D01*
X131450500Y-79453292D01*
X131450673Y-79446698D01*
X131454404Y-79375508D01*
X131466366Y-79147245D01*
X131467744Y-79134131D01*
X131468074Y-79132051D01*
X131514139Y-78841202D01*
X131516881Y-78828306D01*
X131517661Y-78825396D01*
X131593642Y-78541830D01*
X131597716Y-78529294D01*
X131703999Y-78252416D01*
X131709349Y-78240398D01*
X131844008Y-77976117D01*
X131850589Y-77964719D01*
X132012125Y-77715975D01*
X132019865Y-77705323D01*
X132206516Y-77474827D01*
X132215322Y-77465048D01*
X132425048Y-77255322D01*
X132434827Y-77246516D01*
X132665323Y-77059865D01*
X132675975Y-77052125D01*
X132924719Y-76890589D01*
X132936117Y-76884008D01*
X133191083Y-76754096D01*
X133260857Y-76740993D01*
X133326641Y-76767693D01*
X133367548Y-76825720D01*
X133370589Y-76896652D01*
X133349152Y-76941872D01*
X133269112Y-77048793D01*
X133269110Y-77048797D01*
X133218011Y-77185795D01*
X133218009Y-77185803D01*
X133211500Y-77246350D01*
X133211500Y-77742085D01*
X133191498Y-77810206D01*
X133137842Y-77856699D01*
X133110082Y-77865664D01*
X133018085Y-77883963D01*
X132955498Y-77896413D01*
X132955496Y-77896413D01*
X132955495Y-77896414D01*
X132790160Y-77964899D01*
X132641367Y-78064319D01*
X132641360Y-78064324D01*
X132514822Y-78190862D01*
X132514817Y-78190869D01*
X132415397Y-78339662D01*
X132346912Y-78504996D01*
X132346911Y-78504999D01*
X132346911Y-78505000D01*
X132340868Y-78535379D01*
X132311998Y-78680518D01*
X132311998Y-78859481D01*
X132327616Y-78937996D01*
X132346911Y-79035000D01*
X132415396Y-79200336D01*
X132514820Y-79349135D01*
X132641363Y-79475678D01*
X132790162Y-79575102D01*
X132927126Y-79631835D01*
X132955495Y-79643586D01*
X132955496Y-79643586D01*
X132955498Y-79643587D01*
X133110081Y-79674335D01*
X133172991Y-79707242D01*
X133208123Y-79768937D01*
X133211500Y-79797914D01*
X133211500Y-80393649D01*
X133218009Y-80454196D01*
X133218011Y-80454204D01*
X133269110Y-80591202D01*
X133269112Y-80591207D01*
X133356738Y-80708261D01*
X133473792Y-80795887D01*
X133473794Y-80795888D01*
X133473796Y-80795889D01*
X133496883Y-80804500D01*
X133610795Y-80846988D01*
X133610803Y-80846990D01*
X133671350Y-80853499D01*
X133671355Y-80853499D01*
X133671362Y-80853500D01*
X133671368Y-80853500D01*
X135148918Y-80853500D01*
X135217039Y-80873502D01*
X135263532Y-80927158D01*
X135273636Y-80997432D01*
X135244142Y-81062012D01*
X135238013Y-81068595D01*
X134742013Y-81564595D01*
X134679701Y-81598621D01*
X134652918Y-81601500D01*
X134116350Y-81601500D01*
X134055803Y-81608009D01*
X134055795Y-81608011D01*
X133918797Y-81659110D01*
X133918792Y-81659112D01*
X133801738Y-81746738D01*
X133714112Y-81863792D01*
X133714110Y-81863797D01*
X133663011Y-82000795D01*
X133663009Y-82000803D01*
X133656500Y-82061350D01*
X133656500Y-82392275D01*
X133654079Y-82416856D01*
X133631500Y-82530364D01*
X133631500Y-82689632D01*
X133639501Y-82729856D01*
X133646468Y-82764882D01*
X133654079Y-82803141D01*
X133656500Y-82827723D01*
X133656500Y-83158649D01*
X133663009Y-83219196D01*
X133663011Y-83219204D01*
X133714110Y-83356202D01*
X133714112Y-83356207D01*
X133801738Y-83473261D01*
X133918792Y-83560887D01*
X133918794Y-83560888D01*
X133918796Y-83560889D01*
X133977875Y-83582924D01*
X134055795Y-83611988D01*
X134055803Y-83611990D01*
X134116350Y-83618499D01*
X134116355Y-83618499D01*
X134116362Y-83618500D01*
X134116368Y-83618500D01*
X134763632Y-83618500D01*
X134763638Y-83618500D01*
X134763645Y-83618499D01*
X134763649Y-83618499D01*
X134824196Y-83611990D01*
X134824199Y-83611989D01*
X134824201Y-83611989D01*
X134833202Y-83608632D01*
X134843045Y-83604960D01*
X134961204Y-83560889D01*
X135078261Y-83473261D01*
X135151768Y-83375066D01*
X135185012Y-83344260D01*
X135194274Y-83338368D01*
X135222968Y-83326484D01*
X135355389Y-83238003D01*
X135361198Y-83232193D01*
X135372876Y-83224766D01*
X135394221Y-83218606D01*
X135413717Y-83207961D01*
X135427659Y-83208958D01*
X135441090Y-83205083D01*
X135462374Y-83211441D01*
X135484532Y-83213026D01*
X135495722Y-83221402D01*
X135509116Y-83225404D01*
X135523584Y-83242260D01*
X135541368Y-83255573D01*
X135546253Y-83268670D01*
X135555357Y-83279277D01*
X135558415Y-83301277D01*
X135566179Y-83322093D01*
X135566500Y-83331082D01*
X135566500Y-83608649D01*
X135573009Y-83669196D01*
X135573011Y-83669204D01*
X135624110Y-83806202D01*
X135624112Y-83806207D01*
X135711738Y-83923261D01*
X135828792Y-84010887D01*
X135828794Y-84010888D01*
X135828796Y-84010889D01*
X135887875Y-84032924D01*
X135965795Y-84061988D01*
X135965803Y-84061990D01*
X136026350Y-84068499D01*
X136026355Y-84068499D01*
X136026362Y-84068500D01*
X136026368Y-84068500D01*
X137073632Y-84068500D01*
X137073638Y-84068500D01*
X137073645Y-84068499D01*
X137073649Y-84068499D01*
X137134196Y-84061990D01*
X137134199Y-84061989D01*
X137134201Y-84061989D01*
X137271204Y-84010889D01*
X137317259Y-83976413D01*
X137388261Y-83923261D01*
X137475887Y-83806207D01*
X137475887Y-83806206D01*
X137475889Y-83806204D01*
X137526989Y-83669201D01*
X137527420Y-83665198D01*
X137533499Y-83608649D01*
X137533500Y-83608632D01*
X137533500Y-83120997D01*
X137553502Y-83052876D01*
X137607158Y-83006383D01*
X137634916Y-82997418D01*
X137805000Y-82963587D01*
X137970336Y-82895102D01*
X138119135Y-82795678D01*
X138245678Y-82669135D01*
X138245678Y-82669134D01*
X138250055Y-82664758D01*
X138251708Y-82666411D01*
X138301777Y-82632306D01*
X138372748Y-82630405D01*
X138433481Y-82667175D01*
X138464693Y-82730943D01*
X138466500Y-82752208D01*
X138466500Y-83728649D01*
X138473009Y-83789196D01*
X138473011Y-83789204D01*
X138524110Y-83926202D01*
X138524112Y-83926207D01*
X138611738Y-84043261D01*
X138728792Y-84130887D01*
X138728794Y-84130888D01*
X138728796Y-84130889D01*
X138743990Y-84136556D01*
X138865795Y-84181988D01*
X138865803Y-84181990D01*
X138926350Y-84188499D01*
X138926355Y-84188499D01*
X138926362Y-84188500D01*
X138926368Y-84188500D01*
X140293632Y-84188500D01*
X140293638Y-84188500D01*
X140293645Y-84188499D01*
X140293649Y-84188499D01*
X140354196Y-84181990D01*
X140354199Y-84181989D01*
X140354201Y-84181989D01*
X140491204Y-84130889D01*
X140548054Y-84088332D01*
X140608261Y-84043261D01*
X140695887Y-83926207D01*
X140695887Y-83926206D01*
X140695889Y-83926204D01*
X140743868Y-83797568D01*
X140746988Y-83789204D01*
X140746990Y-83789196D01*
X140753499Y-83728649D01*
X140753500Y-83728632D01*
X140753500Y-81951367D01*
X140753499Y-81951350D01*
X140746990Y-81890803D01*
X140746988Y-81890795D01*
X140695889Y-81753797D01*
X140695887Y-81753792D01*
X140608261Y-81636738D01*
X140491207Y-81549112D01*
X140491202Y-81549110D01*
X140354204Y-81498011D01*
X140354196Y-81498009D01*
X140308032Y-81493047D01*
X140242440Y-81465878D01*
X140201948Y-81407561D01*
X140195500Y-81367769D01*
X140195500Y-81312918D01*
X140173121Y-81229399D01*
X140155599Y-81164006D01*
X140109239Y-81083708D01*
X140092501Y-81014712D01*
X140115722Y-80947621D01*
X140171529Y-80903734D01*
X140242204Y-80896985D01*
X140288358Y-80915942D01*
X140410822Y-80997770D01*
X140591082Y-81072436D01*
X140782444Y-81110500D01*
X140782445Y-81110500D01*
X140977555Y-81110500D01*
X140977556Y-81110500D01*
X141168918Y-81072436D01*
X141349178Y-80997770D01*
X141471642Y-80915941D01*
X141539391Y-80894728D01*
X141607858Y-80913511D01*
X141655302Y-80966328D01*
X141666659Y-81036410D01*
X141650761Y-81083707D01*
X141604401Y-81164006D01*
X141564500Y-81312918D01*
X141564500Y-81367769D01*
X141544498Y-81435890D01*
X141490842Y-81482383D01*
X141451968Y-81493047D01*
X141405803Y-81498009D01*
X141405795Y-81498011D01*
X141268797Y-81549110D01*
X141268792Y-81549112D01*
X141151738Y-81636738D01*
X141064112Y-81753792D01*
X141064110Y-81753797D01*
X141013011Y-81890795D01*
X141013009Y-81890803D01*
X141006500Y-81951350D01*
X141006500Y-83728649D01*
X141013009Y-83789196D01*
X141013011Y-83789204D01*
X141064110Y-83926202D01*
X141064112Y-83926207D01*
X141151738Y-84043261D01*
X141268792Y-84130887D01*
X141268794Y-84130888D01*
X141268796Y-84130889D01*
X141283990Y-84136556D01*
X141405795Y-84181988D01*
X141405803Y-84181990D01*
X141466350Y-84188499D01*
X141466355Y-84188499D01*
X141466362Y-84188500D01*
X141466368Y-84188500D01*
X142833632Y-84188500D01*
X142833638Y-84188500D01*
X142833645Y-84188499D01*
X142833649Y-84188499D01*
X142894196Y-84181990D01*
X142894199Y-84181989D01*
X142894201Y-84181989D01*
X143031204Y-84130889D01*
X143088054Y-84088332D01*
X143148261Y-84043261D01*
X143235887Y-83926207D01*
X143235887Y-83926206D01*
X143235889Y-83926204D01*
X143283868Y-83797568D01*
X143286988Y-83789204D01*
X143286990Y-83789196D01*
X143293499Y-83728649D01*
X143293500Y-83728632D01*
X143293500Y-81951367D01*
X143293499Y-81951350D01*
X143286990Y-81890803D01*
X143286988Y-81890795D01*
X143235889Y-81753797D01*
X143235887Y-81753792D01*
X143148261Y-81636738D01*
X143031207Y-81549112D01*
X143031202Y-81549110D01*
X142894204Y-81498011D01*
X142894196Y-81498009D01*
X142848032Y-81493047D01*
X142782440Y-81465878D01*
X142741948Y-81407561D01*
X142735500Y-81367769D01*
X142735500Y-81312918D01*
X142713121Y-81229399D01*
X142695599Y-81164006D01*
X142640513Y-81068595D01*
X142618518Y-81030498D01*
X142618510Y-81030488D01*
X142509511Y-80921489D01*
X142509501Y-80921481D01*
X142375994Y-80844401D01*
X142227083Y-80804500D01*
X142072917Y-80804500D01*
X141924006Y-80844401D01*
X141843707Y-80890761D01*
X141774711Y-80907498D01*
X141707620Y-80884277D01*
X141663733Y-80828469D01*
X141656985Y-80757794D01*
X141675941Y-80711643D01*
X141757770Y-80589178D01*
X141832436Y-80408918D01*
X141870500Y-80217556D01*
X141870500Y-80022444D01*
X141832436Y-79831082D01*
X141757770Y-79650822D01*
X141675942Y-79528358D01*
X141654728Y-79460607D01*
X141673511Y-79392140D01*
X141726328Y-79344697D01*
X141796410Y-79333340D01*
X141843708Y-79349239D01*
X141870777Y-79364867D01*
X141924006Y-79395599D01*
X142072917Y-79435500D01*
X142072919Y-79435500D01*
X142227081Y-79435500D01*
X142227083Y-79435500D01*
X142375994Y-79395599D01*
X142509505Y-79318516D01*
X142618516Y-79209505D01*
X142695599Y-79075994D01*
X142735500Y-78927083D01*
X142735500Y-78872230D01*
X142755502Y-78804109D01*
X142809158Y-78757616D01*
X142848032Y-78746952D01*
X142866790Y-78744935D01*
X142894196Y-78741990D01*
X142894199Y-78741989D01*
X142894201Y-78741989D01*
X143031204Y-78690889D01*
X143148261Y-78603261D01*
X143199078Y-78535377D01*
X143255912Y-78492832D01*
X143299944Y-78484887D01*
X143312356Y-78484886D01*
X143330521Y-78488500D01*
X143509479Y-78488500D01*
X143527647Y-78484886D01*
X143540053Y-78484886D01*
X143562682Y-78491530D01*
X143586176Y-78493631D01*
X143596407Y-78501433D01*
X143608174Y-78504888D01*
X143622267Y-78521152D01*
X143640921Y-78535376D01*
X143691739Y-78603261D01*
X143808792Y-78690887D01*
X143808794Y-78690888D01*
X143808796Y-78690889D01*
X143864091Y-78711513D01*
X143945795Y-78741988D01*
X143945803Y-78741990D01*
X143974457Y-78745070D01*
X143991967Y-78746952D01*
X144057559Y-78774119D01*
X144098051Y-78832436D01*
X144104500Y-78872230D01*
X144104500Y-78927081D01*
X144104499Y-78927081D01*
X144144401Y-79075994D01*
X144221481Y-79209501D01*
X144221489Y-79209511D01*
X144330488Y-79318510D01*
X144330493Y-79318514D01*
X144330495Y-79318516D01*
X144330496Y-79318517D01*
X144330498Y-79318518D01*
X144379912Y-79347047D01*
X144464006Y-79395599D01*
X144612917Y-79435500D01*
X144612919Y-79435500D01*
X144767081Y-79435500D01*
X144767083Y-79435500D01*
X144915994Y-79395599D01*
X145049505Y-79318516D01*
X145158516Y-79209505D01*
X145235599Y-79075994D01*
X145275500Y-78927083D01*
X145275500Y-78872230D01*
X145295502Y-78804109D01*
X145349158Y-78757616D01*
X145388032Y-78746952D01*
X145406790Y-78744935D01*
X145434196Y-78741990D01*
X145434199Y-78741989D01*
X145434201Y-78741989D01*
X145571204Y-78690889D01*
X145651367Y-78630880D01*
X145688261Y-78603261D01*
X145775887Y-78486207D01*
X145775887Y-78486206D01*
X145775889Y-78486204D01*
X145826989Y-78349201D01*
X145828015Y-78339664D01*
X145833499Y-78288649D01*
X145833500Y-78288632D01*
X145833500Y-76616500D01*
X145836091Y-76607674D01*
X145834782Y-76598568D01*
X145845937Y-76574142D01*
X145853502Y-76548379D01*
X145860455Y-76542354D01*
X145864276Y-76533988D01*
X145886861Y-76519473D01*
X145907158Y-76501886D01*
X145917844Y-76499561D01*
X145924002Y-76495604D01*
X145959500Y-76490500D01*
X145960500Y-76490500D01*
X146028621Y-76510502D01*
G37*
%TD.AperFunction*%
%TD*%
M02*
