%TF.GenerationSoftware,KiCad,Pcbnew,9.0.3*%
%TF.CreationDate,2025-07-24T19:54:10+08:00*%
%TF.ProjectId,Photon_Power_Zero_PCB_r1_02,50686f74-6f6e-45f5-906f-7765725f5a65,rev?*%
%TF.SameCoordinates,Original*%
%TF.FileFunction,Soldermask,Top*%
%TF.FilePolarity,Negative*%
%FSLAX46Y46*%
G04 Gerber Fmt 4.6, Leading zero omitted, Abs format (unit mm)*
G04 Created by KiCad (PCBNEW 9.0.3) date 2025-07-24 19:54:10*
%MOMM*%
%LPD*%
G01*
G04 APERTURE LIST*
G04 Aperture macros list*
%AMRoundRect*
0 Rectangle with rounded corners*
0 $1 Rounding radius*
0 $2 $3 $4 $5 $6 $7 $8 $9 X,Y pos of 4 corners*
0 Add a 4 corners polygon primitive as box body*
4,1,4,$2,$3,$4,$5,$6,$7,$8,$9,$2,$3,0*
0 Add four circle primitives for the rounded corners*
1,1,$1+$1,$2,$3*
1,1,$1+$1,$4,$5*
1,1,$1+$1,$6,$7*
1,1,$1+$1,$8,$9*
0 Add four rect primitives between the rounded corners*
20,1,$1+$1,$2,$3,$4,$5,0*
20,1,$1+$1,$4,$5,$6,$7,0*
20,1,$1+$1,$6,$7,$8,$9,0*
20,1,$1+$1,$8,$9,$2,$3,0*%
G04 Aperture macros list end*
%ADD10C,0.200000*%
%ADD11C,0.300000*%
%ADD12C,0.100000*%
%ADD13C,0.000000*%
%ADD14RoundRect,0.237500X0.237500X-0.250000X0.237500X0.250000X-0.237500X0.250000X-0.237500X-0.250000X0*%
%ADD15C,2.000000*%
%ADD16R,0.558800X1.981200*%
%ADD17RoundRect,0.237500X-0.237500X0.287500X-0.237500X-0.287500X0.237500X-0.287500X0.237500X0.287500X0*%
%ADD18RoundRect,0.237500X-0.250000X-0.237500X0.250000X-0.237500X0.250000X0.237500X-0.250000X0.237500X0*%
%ADD19R,0.550000X1.000000*%
%ADD20C,1.700000*%
%ADD21C,1.800000*%
%ADD22R,2.800000X2.400000*%
%ADD23C,6.000000*%
%ADD24C,0.970000*%
%ADD25C,1.780000*%
%ADD26RoundRect,0.102000X0.635000X0.840000X-0.635000X0.840000X-0.635000X-0.840000X0.635000X-0.840000X0*%
%ADD27R,1.520000X3.050000*%
%ADD28R,3.500000X1.000000*%
%ADD29R,3.400000X1.500000*%
%ADD30R,3.050000X1.520000*%
%ADD31R,1.700000X1.700000*%
%ADD32O,1.700000X1.700000*%
%ADD33RoundRect,0.237500X0.250000X0.237500X-0.250000X0.237500X-0.250000X-0.237500X0.250000X-0.237500X0*%
%ADD34R,0.950000X0.900000*%
%ADD35R,1.300000X0.900000*%
%ADD36R,1.475000X0.900000*%
%ADD37R,3.125000X1.733000*%
%ADD38RoundRect,0.007800X-0.122200X0.422200X-0.122200X-0.422200X0.122200X-0.422200X0.122200X0.422200X0*%
%ADD39RoundRect,0.007800X0.422200X0.122200X-0.422200X0.122200X-0.422200X-0.122200X0.422200X-0.122200X0*%
%ADD40R,1.680000X1.680000*%
%ADD41RoundRect,0.150000X-0.150000X-0.700000X0.150000X-0.700000X0.150000X0.700000X-0.150000X0.700000X0*%
%ADD42RoundRect,0.250000X-0.250000X-1.100000X0.250000X-1.100000X0.250000X1.100000X-0.250000X1.100000X0*%
G04 APERTURE END LIST*
D10*
X150279673Y-104237219D02*
X150279673Y-103237219D01*
X150279673Y-103237219D02*
X150660625Y-103237219D01*
X150660625Y-103237219D02*
X150755863Y-103284838D01*
X150755863Y-103284838D02*
X150803482Y-103332457D01*
X150803482Y-103332457D02*
X150851101Y-103427695D01*
X150851101Y-103427695D02*
X150851101Y-103570552D01*
X150851101Y-103570552D02*
X150803482Y-103665790D01*
X150803482Y-103665790D02*
X150755863Y-103713409D01*
X150755863Y-103713409D02*
X150660625Y-103761028D01*
X150660625Y-103761028D02*
X150279673Y-103761028D01*
X151279673Y-104237219D02*
X151279673Y-103237219D01*
X151708244Y-104237219D02*
X151708244Y-103713409D01*
X151708244Y-103713409D02*
X151660625Y-103618171D01*
X151660625Y-103618171D02*
X151565387Y-103570552D01*
X151565387Y-103570552D02*
X151422530Y-103570552D01*
X151422530Y-103570552D02*
X151327292Y-103618171D01*
X151327292Y-103618171D02*
X151279673Y-103665790D01*
X152327292Y-104237219D02*
X152232054Y-104189600D01*
X152232054Y-104189600D02*
X152184435Y-104141980D01*
X152184435Y-104141980D02*
X152136816Y-104046742D01*
X152136816Y-104046742D02*
X152136816Y-103761028D01*
X152136816Y-103761028D02*
X152184435Y-103665790D01*
X152184435Y-103665790D02*
X152232054Y-103618171D01*
X152232054Y-103618171D02*
X152327292Y-103570552D01*
X152327292Y-103570552D02*
X152470149Y-103570552D01*
X152470149Y-103570552D02*
X152565387Y-103618171D01*
X152565387Y-103618171D02*
X152613006Y-103665790D01*
X152613006Y-103665790D02*
X152660625Y-103761028D01*
X152660625Y-103761028D02*
X152660625Y-104046742D01*
X152660625Y-104046742D02*
X152613006Y-104141980D01*
X152613006Y-104141980D02*
X152565387Y-104189600D01*
X152565387Y-104189600D02*
X152470149Y-104237219D01*
X152470149Y-104237219D02*
X152327292Y-104237219D01*
X152946340Y-103570552D02*
X153327292Y-103570552D01*
X153089197Y-103237219D02*
X153089197Y-104094361D01*
X153089197Y-104094361D02*
X153136816Y-104189600D01*
X153136816Y-104189600D02*
X153232054Y-104237219D01*
X153232054Y-104237219D02*
X153327292Y-104237219D01*
X153803483Y-104237219D02*
X153708245Y-104189600D01*
X153708245Y-104189600D02*
X153660626Y-104141980D01*
X153660626Y-104141980D02*
X153613007Y-104046742D01*
X153613007Y-104046742D02*
X153613007Y-103761028D01*
X153613007Y-103761028D02*
X153660626Y-103665790D01*
X153660626Y-103665790D02*
X153708245Y-103618171D01*
X153708245Y-103618171D02*
X153803483Y-103570552D01*
X153803483Y-103570552D02*
X153946340Y-103570552D01*
X153946340Y-103570552D02*
X154041578Y-103618171D01*
X154041578Y-103618171D02*
X154089197Y-103665790D01*
X154089197Y-103665790D02*
X154136816Y-103761028D01*
X154136816Y-103761028D02*
X154136816Y-104046742D01*
X154136816Y-104046742D02*
X154089197Y-104141980D01*
X154089197Y-104141980D02*
X154041578Y-104189600D01*
X154041578Y-104189600D02*
X153946340Y-104237219D01*
X153946340Y-104237219D02*
X153803483Y-104237219D01*
X154565388Y-103570552D02*
X154565388Y-104237219D01*
X154565388Y-103665790D02*
X154613007Y-103618171D01*
X154613007Y-103618171D02*
X154708245Y-103570552D01*
X154708245Y-103570552D02*
X154851102Y-103570552D01*
X154851102Y-103570552D02*
X154946340Y-103618171D01*
X154946340Y-103618171D02*
X154993959Y-103713409D01*
X154993959Y-103713409D02*
X154993959Y-104237219D01*
X156232055Y-104237219D02*
X156232055Y-103237219D01*
X156232055Y-103237219D02*
X156613007Y-103237219D01*
X156613007Y-103237219D02*
X156708245Y-103284838D01*
X156708245Y-103284838D02*
X156755864Y-103332457D01*
X156755864Y-103332457D02*
X156803483Y-103427695D01*
X156803483Y-103427695D02*
X156803483Y-103570552D01*
X156803483Y-103570552D02*
X156755864Y-103665790D01*
X156755864Y-103665790D02*
X156708245Y-103713409D01*
X156708245Y-103713409D02*
X156613007Y-103761028D01*
X156613007Y-103761028D02*
X156232055Y-103761028D01*
X157374912Y-104237219D02*
X157279674Y-104189600D01*
X157279674Y-104189600D02*
X157232055Y-104141980D01*
X157232055Y-104141980D02*
X157184436Y-104046742D01*
X157184436Y-104046742D02*
X157184436Y-103761028D01*
X157184436Y-103761028D02*
X157232055Y-103665790D01*
X157232055Y-103665790D02*
X157279674Y-103618171D01*
X157279674Y-103618171D02*
X157374912Y-103570552D01*
X157374912Y-103570552D02*
X157517769Y-103570552D01*
X157517769Y-103570552D02*
X157613007Y-103618171D01*
X157613007Y-103618171D02*
X157660626Y-103665790D01*
X157660626Y-103665790D02*
X157708245Y-103761028D01*
X157708245Y-103761028D02*
X157708245Y-104046742D01*
X157708245Y-104046742D02*
X157660626Y-104141980D01*
X157660626Y-104141980D02*
X157613007Y-104189600D01*
X157613007Y-104189600D02*
X157517769Y-104237219D01*
X157517769Y-104237219D02*
X157374912Y-104237219D01*
X158041579Y-103570552D02*
X158232055Y-104237219D01*
X158232055Y-104237219D02*
X158422531Y-103761028D01*
X158422531Y-103761028D02*
X158613007Y-104237219D01*
X158613007Y-104237219D02*
X158803483Y-103570552D01*
X159565388Y-104189600D02*
X159470150Y-104237219D01*
X159470150Y-104237219D02*
X159279674Y-104237219D01*
X159279674Y-104237219D02*
X159184436Y-104189600D01*
X159184436Y-104189600D02*
X159136817Y-104094361D01*
X159136817Y-104094361D02*
X159136817Y-103713409D01*
X159136817Y-103713409D02*
X159184436Y-103618171D01*
X159184436Y-103618171D02*
X159279674Y-103570552D01*
X159279674Y-103570552D02*
X159470150Y-103570552D01*
X159470150Y-103570552D02*
X159565388Y-103618171D01*
X159565388Y-103618171D02*
X159613007Y-103713409D01*
X159613007Y-103713409D02*
X159613007Y-103808647D01*
X159613007Y-103808647D02*
X159136817Y-103903885D01*
X160041579Y-104237219D02*
X160041579Y-103570552D01*
X160041579Y-103761028D02*
X160089198Y-103665790D01*
X160089198Y-103665790D02*
X160136817Y-103618171D01*
X160136817Y-103618171D02*
X160232055Y-103570552D01*
X160232055Y-103570552D02*
X160327293Y-103570552D01*
X161327294Y-103237219D02*
X161993960Y-103237219D01*
X161993960Y-103237219D02*
X161327294Y-104237219D01*
X161327294Y-104237219D02*
X161993960Y-104237219D01*
X162755865Y-104189600D02*
X162660627Y-104237219D01*
X162660627Y-104237219D02*
X162470151Y-104237219D01*
X162470151Y-104237219D02*
X162374913Y-104189600D01*
X162374913Y-104189600D02*
X162327294Y-104094361D01*
X162327294Y-104094361D02*
X162327294Y-103713409D01*
X162327294Y-103713409D02*
X162374913Y-103618171D01*
X162374913Y-103618171D02*
X162470151Y-103570552D01*
X162470151Y-103570552D02*
X162660627Y-103570552D01*
X162660627Y-103570552D02*
X162755865Y-103618171D01*
X162755865Y-103618171D02*
X162803484Y-103713409D01*
X162803484Y-103713409D02*
X162803484Y-103808647D01*
X162803484Y-103808647D02*
X162327294Y-103903885D01*
X163232056Y-104237219D02*
X163232056Y-103570552D01*
X163232056Y-103761028D02*
X163279675Y-103665790D01*
X163279675Y-103665790D02*
X163327294Y-103618171D01*
X163327294Y-103618171D02*
X163422532Y-103570552D01*
X163422532Y-103570552D02*
X163517770Y-103570552D01*
X163993961Y-104237219D02*
X163898723Y-104189600D01*
X163898723Y-104189600D02*
X163851104Y-104141980D01*
X163851104Y-104141980D02*
X163803485Y-104046742D01*
X163803485Y-104046742D02*
X163803485Y-103761028D01*
X163803485Y-103761028D02*
X163851104Y-103665790D01*
X163851104Y-103665790D02*
X163898723Y-103618171D01*
X163898723Y-103618171D02*
X163993961Y-103570552D01*
X163993961Y-103570552D02*
X164136818Y-103570552D01*
X164136818Y-103570552D02*
X164232056Y-103618171D01*
X164232056Y-103618171D02*
X164279675Y-103665790D01*
X164279675Y-103665790D02*
X164327294Y-103761028D01*
X164327294Y-103761028D02*
X164327294Y-104046742D01*
X164327294Y-104046742D02*
X164279675Y-104141980D01*
X164279675Y-104141980D02*
X164232056Y-104189600D01*
X164232056Y-104189600D02*
X164136818Y-104237219D01*
X164136818Y-104237219D02*
X163993961Y-104237219D01*
D11*
X171073971Y-88038346D02*
X168373971Y-88038346D01*
X168373971Y-88038346D02*
X168373971Y-86895489D01*
X168373971Y-86895489D02*
X168502542Y-86609774D01*
X168502542Y-86609774D02*
X168631114Y-86466917D01*
X168631114Y-86466917D02*
X168888257Y-86324060D01*
X168888257Y-86324060D02*
X169273971Y-86324060D01*
X169273971Y-86324060D02*
X169531114Y-86466917D01*
X169531114Y-86466917D02*
X169659685Y-86609774D01*
X169659685Y-86609774D02*
X169788257Y-86895489D01*
X169788257Y-86895489D02*
X169788257Y-88038346D01*
X171013971Y-90788346D02*
X168313971Y-90788346D01*
X168313971Y-90788346D02*
X168313971Y-89645489D01*
X168313971Y-89645489D02*
X168442542Y-89359774D01*
X168442542Y-89359774D02*
X168571114Y-89216917D01*
X168571114Y-89216917D02*
X168828257Y-89074060D01*
X168828257Y-89074060D02*
X169213971Y-89074060D01*
X169213971Y-89074060D02*
X169471114Y-89216917D01*
X169471114Y-89216917D02*
X169599685Y-89359774D01*
X169599685Y-89359774D02*
X169728257Y-89645489D01*
X169728257Y-89645489D02*
X169728257Y-90788346D01*
D10*
X170278885Y-89442707D02*
X170207457Y-89371279D01*
X170207457Y-89371279D02*
X170136028Y-89228422D01*
X170136028Y-89228422D02*
X170136028Y-88871279D01*
X170136028Y-88871279D02*
X170207457Y-88728422D01*
X170207457Y-88728422D02*
X170278885Y-88656993D01*
X170278885Y-88656993D02*
X170421742Y-88585564D01*
X170421742Y-88585564D02*
X170564600Y-88585564D01*
X170564600Y-88585564D02*
X170778885Y-88656993D01*
X170778885Y-88656993D02*
X171636028Y-89514136D01*
X171636028Y-89514136D02*
X171636028Y-88585564D01*
D12*
X150632455Y-105342466D02*
X150599122Y-105375800D01*
X150599122Y-105375800D02*
X150499122Y-105409133D01*
X150499122Y-105409133D02*
X150432455Y-105409133D01*
X150432455Y-105409133D02*
X150332455Y-105375800D01*
X150332455Y-105375800D02*
X150265789Y-105309133D01*
X150265789Y-105309133D02*
X150232455Y-105242466D01*
X150232455Y-105242466D02*
X150199122Y-105109133D01*
X150199122Y-105109133D02*
X150199122Y-105009133D01*
X150199122Y-105009133D02*
X150232455Y-104875800D01*
X150232455Y-104875800D02*
X150265789Y-104809133D01*
X150265789Y-104809133D02*
X150332455Y-104742466D01*
X150332455Y-104742466D02*
X150432455Y-104709133D01*
X150432455Y-104709133D02*
X150499122Y-104709133D01*
X150499122Y-104709133D02*
X150599122Y-104742466D01*
X150599122Y-104742466D02*
X150632455Y-104775800D01*
X150932455Y-105042466D02*
X151165789Y-105042466D01*
X151265789Y-105409133D02*
X150932455Y-105409133D01*
X150932455Y-105409133D02*
X150932455Y-104709133D01*
X150932455Y-104709133D02*
X151265789Y-104709133D01*
X151965788Y-105409133D02*
X151732455Y-105075800D01*
X151565788Y-105409133D02*
X151565788Y-104709133D01*
X151565788Y-104709133D02*
X151832455Y-104709133D01*
X151832455Y-104709133D02*
X151899122Y-104742466D01*
X151899122Y-104742466D02*
X151932455Y-104775800D01*
X151932455Y-104775800D02*
X151965788Y-104842466D01*
X151965788Y-104842466D02*
X151965788Y-104942466D01*
X151965788Y-104942466D02*
X151932455Y-105009133D01*
X151932455Y-105009133D02*
X151899122Y-105042466D01*
X151899122Y-105042466D02*
X151832455Y-105075800D01*
X151832455Y-105075800D02*
X151565788Y-105075800D01*
X152265788Y-105409133D02*
X152265788Y-104709133D01*
X152265788Y-104709133D02*
X152665788Y-105409133D01*
X152665788Y-105409133D02*
X152665788Y-104709133D01*
X153665788Y-104709133D02*
X153799121Y-104709133D01*
X153799121Y-104709133D02*
X153865788Y-104742466D01*
X153865788Y-104742466D02*
X153932454Y-104809133D01*
X153932454Y-104809133D02*
X153965788Y-104942466D01*
X153965788Y-104942466D02*
X153965788Y-105175800D01*
X153965788Y-105175800D02*
X153932454Y-105309133D01*
X153932454Y-105309133D02*
X153865788Y-105375800D01*
X153865788Y-105375800D02*
X153799121Y-105409133D01*
X153799121Y-105409133D02*
X153665788Y-105409133D01*
X153665788Y-105409133D02*
X153599121Y-105375800D01*
X153599121Y-105375800D02*
X153532454Y-105309133D01*
X153532454Y-105309133D02*
X153499121Y-105175800D01*
X153499121Y-105175800D02*
X153499121Y-104942466D01*
X153499121Y-104942466D02*
X153532454Y-104809133D01*
X153532454Y-104809133D02*
X153599121Y-104742466D01*
X153599121Y-104742466D02*
X153665788Y-104709133D01*
X154265787Y-104942466D02*
X154265787Y-105642466D01*
X154265787Y-104975800D02*
X154332454Y-104942466D01*
X154332454Y-104942466D02*
X154465787Y-104942466D01*
X154465787Y-104942466D02*
X154532454Y-104975800D01*
X154532454Y-104975800D02*
X154565787Y-105009133D01*
X154565787Y-105009133D02*
X154599121Y-105075800D01*
X154599121Y-105075800D02*
X154599121Y-105275800D01*
X154599121Y-105275800D02*
X154565787Y-105342466D01*
X154565787Y-105342466D02*
X154532454Y-105375800D01*
X154532454Y-105375800D02*
X154465787Y-105409133D01*
X154465787Y-105409133D02*
X154332454Y-105409133D01*
X154332454Y-105409133D02*
X154265787Y-105375800D01*
X155165787Y-105375800D02*
X155099120Y-105409133D01*
X155099120Y-105409133D02*
X154965787Y-105409133D01*
X154965787Y-105409133D02*
X154899120Y-105375800D01*
X154899120Y-105375800D02*
X154865787Y-105309133D01*
X154865787Y-105309133D02*
X154865787Y-105042466D01*
X154865787Y-105042466D02*
X154899120Y-104975800D01*
X154899120Y-104975800D02*
X154965787Y-104942466D01*
X154965787Y-104942466D02*
X155099120Y-104942466D01*
X155099120Y-104942466D02*
X155165787Y-104975800D01*
X155165787Y-104975800D02*
X155199120Y-105042466D01*
X155199120Y-105042466D02*
X155199120Y-105109133D01*
X155199120Y-105109133D02*
X154865787Y-105175800D01*
X155499120Y-104942466D02*
X155499120Y-105409133D01*
X155499120Y-105009133D02*
X155532454Y-104975800D01*
X155532454Y-104975800D02*
X155599120Y-104942466D01*
X155599120Y-104942466D02*
X155699120Y-104942466D01*
X155699120Y-104942466D02*
X155765787Y-104975800D01*
X155765787Y-104975800D02*
X155799120Y-105042466D01*
X155799120Y-105042466D02*
X155799120Y-105409133D01*
X156665786Y-105409133D02*
X156665786Y-104709133D01*
X156665786Y-105042466D02*
X157065786Y-105042466D01*
X157065786Y-105409133D02*
X157065786Y-104709133D01*
X157699119Y-105409133D02*
X157699119Y-105042466D01*
X157699119Y-105042466D02*
X157665786Y-104975800D01*
X157665786Y-104975800D02*
X157599119Y-104942466D01*
X157599119Y-104942466D02*
X157465786Y-104942466D01*
X157465786Y-104942466D02*
X157399119Y-104975800D01*
X157699119Y-105375800D02*
X157632453Y-105409133D01*
X157632453Y-105409133D02*
X157465786Y-105409133D01*
X157465786Y-105409133D02*
X157399119Y-105375800D01*
X157399119Y-105375800D02*
X157365786Y-105309133D01*
X157365786Y-105309133D02*
X157365786Y-105242466D01*
X157365786Y-105242466D02*
X157399119Y-105175800D01*
X157399119Y-105175800D02*
X157465786Y-105142466D01*
X157465786Y-105142466D02*
X157632453Y-105142466D01*
X157632453Y-105142466D02*
X157699119Y-105109133D01*
X158032452Y-105409133D02*
X158032452Y-104942466D01*
X158032452Y-105075800D02*
X158065786Y-105009133D01*
X158065786Y-105009133D02*
X158099119Y-104975800D01*
X158099119Y-104975800D02*
X158165786Y-104942466D01*
X158165786Y-104942466D02*
X158232452Y-104942466D01*
X158765785Y-105409133D02*
X158765785Y-104709133D01*
X158765785Y-105375800D02*
X158699119Y-105409133D01*
X158699119Y-105409133D02*
X158565785Y-105409133D01*
X158565785Y-105409133D02*
X158499119Y-105375800D01*
X158499119Y-105375800D02*
X158465785Y-105342466D01*
X158465785Y-105342466D02*
X158432452Y-105275800D01*
X158432452Y-105275800D02*
X158432452Y-105075800D01*
X158432452Y-105075800D02*
X158465785Y-105009133D01*
X158465785Y-105009133D02*
X158499119Y-104975800D01*
X158499119Y-104975800D02*
X158565785Y-104942466D01*
X158565785Y-104942466D02*
X158699119Y-104942466D01*
X158699119Y-104942466D02*
X158765785Y-104975800D01*
X159032452Y-104942466D02*
X159165785Y-105409133D01*
X159165785Y-105409133D02*
X159299118Y-105075800D01*
X159299118Y-105075800D02*
X159432452Y-105409133D01*
X159432452Y-105409133D02*
X159565785Y-104942466D01*
X160132451Y-105409133D02*
X160132451Y-105042466D01*
X160132451Y-105042466D02*
X160099118Y-104975800D01*
X160099118Y-104975800D02*
X160032451Y-104942466D01*
X160032451Y-104942466D02*
X159899118Y-104942466D01*
X159899118Y-104942466D02*
X159832451Y-104975800D01*
X160132451Y-105375800D02*
X160065785Y-105409133D01*
X160065785Y-105409133D02*
X159899118Y-105409133D01*
X159899118Y-105409133D02*
X159832451Y-105375800D01*
X159832451Y-105375800D02*
X159799118Y-105309133D01*
X159799118Y-105309133D02*
X159799118Y-105242466D01*
X159799118Y-105242466D02*
X159832451Y-105175800D01*
X159832451Y-105175800D02*
X159899118Y-105142466D01*
X159899118Y-105142466D02*
X160065785Y-105142466D01*
X160065785Y-105142466D02*
X160132451Y-105109133D01*
X160465784Y-105409133D02*
X160465784Y-104942466D01*
X160465784Y-105075800D02*
X160499118Y-105009133D01*
X160499118Y-105009133D02*
X160532451Y-104975800D01*
X160532451Y-104975800D02*
X160599118Y-104942466D01*
X160599118Y-104942466D02*
X160665784Y-104942466D01*
X161165784Y-105375800D02*
X161099117Y-105409133D01*
X161099117Y-105409133D02*
X160965784Y-105409133D01*
X160965784Y-105409133D02*
X160899117Y-105375800D01*
X160899117Y-105375800D02*
X160865784Y-105309133D01*
X160865784Y-105309133D02*
X160865784Y-105042466D01*
X160865784Y-105042466D02*
X160899117Y-104975800D01*
X160899117Y-104975800D02*
X160965784Y-104942466D01*
X160965784Y-104942466D02*
X161099117Y-104942466D01*
X161099117Y-104942466D02*
X161165784Y-104975800D01*
X161165784Y-104975800D02*
X161199117Y-105042466D01*
X161199117Y-105042466D02*
X161199117Y-105109133D01*
X161199117Y-105109133D02*
X160865784Y-105175800D01*
X162365784Y-105409133D02*
X162032450Y-105409133D01*
X162032450Y-105409133D02*
X162032450Y-104709133D01*
X162599117Y-105409133D02*
X162599117Y-104942466D01*
X162599117Y-104709133D02*
X162565784Y-104742466D01*
X162565784Y-104742466D02*
X162599117Y-104775800D01*
X162599117Y-104775800D02*
X162632451Y-104742466D01*
X162632451Y-104742466D02*
X162599117Y-104709133D01*
X162599117Y-104709133D02*
X162599117Y-104775800D01*
X163232450Y-105375800D02*
X163165784Y-105409133D01*
X163165784Y-105409133D02*
X163032450Y-105409133D01*
X163032450Y-105409133D02*
X162965784Y-105375800D01*
X162965784Y-105375800D02*
X162932450Y-105342466D01*
X162932450Y-105342466D02*
X162899117Y-105275800D01*
X162899117Y-105275800D02*
X162899117Y-105075800D01*
X162899117Y-105075800D02*
X162932450Y-105009133D01*
X162932450Y-105009133D02*
X162965784Y-104975800D01*
X162965784Y-104975800D02*
X163032450Y-104942466D01*
X163032450Y-104942466D02*
X163165784Y-104942466D01*
X163165784Y-104942466D02*
X163232450Y-104975800D01*
X163799117Y-105375800D02*
X163732450Y-105409133D01*
X163732450Y-105409133D02*
X163599117Y-105409133D01*
X163599117Y-105409133D02*
X163532450Y-105375800D01*
X163532450Y-105375800D02*
X163499117Y-105309133D01*
X163499117Y-105309133D02*
X163499117Y-105042466D01*
X163499117Y-105042466D02*
X163532450Y-104975800D01*
X163532450Y-104975800D02*
X163599117Y-104942466D01*
X163599117Y-104942466D02*
X163732450Y-104942466D01*
X163732450Y-104942466D02*
X163799117Y-104975800D01*
X163799117Y-104975800D02*
X163832450Y-105042466D01*
X163832450Y-105042466D02*
X163832450Y-105109133D01*
X163832450Y-105109133D02*
X163499117Y-105175800D01*
X164132450Y-104942466D02*
X164132450Y-105409133D01*
X164132450Y-105009133D02*
X164165784Y-104975800D01*
X164165784Y-104975800D02*
X164232450Y-104942466D01*
X164232450Y-104942466D02*
X164332450Y-104942466D01*
X164332450Y-104942466D02*
X164399117Y-104975800D01*
X164399117Y-104975800D02*
X164432450Y-105042466D01*
X164432450Y-105042466D02*
X164432450Y-105409133D01*
X165065783Y-105375800D02*
X164999117Y-105409133D01*
X164999117Y-105409133D02*
X164865783Y-105409133D01*
X164865783Y-105409133D02*
X164799117Y-105375800D01*
X164799117Y-105375800D02*
X164765783Y-105342466D01*
X164765783Y-105342466D02*
X164732450Y-105275800D01*
X164732450Y-105275800D02*
X164732450Y-105075800D01*
X164732450Y-105075800D02*
X164765783Y-105009133D01*
X164765783Y-105009133D02*
X164799117Y-104975800D01*
X164799117Y-104975800D02*
X164865783Y-104942466D01*
X164865783Y-104942466D02*
X164999117Y-104942466D01*
X164999117Y-104942466D02*
X165065783Y-104975800D01*
X165632450Y-105375800D02*
X165565783Y-105409133D01*
X165565783Y-105409133D02*
X165432450Y-105409133D01*
X165432450Y-105409133D02*
X165365783Y-105375800D01*
X165365783Y-105375800D02*
X165332450Y-105309133D01*
X165332450Y-105309133D02*
X165332450Y-105042466D01*
X165332450Y-105042466D02*
X165365783Y-104975800D01*
X165365783Y-104975800D02*
X165432450Y-104942466D01*
X165432450Y-104942466D02*
X165565783Y-104942466D01*
X165565783Y-104942466D02*
X165632450Y-104975800D01*
X165632450Y-104975800D02*
X165665783Y-105042466D01*
X165665783Y-105042466D02*
X165665783Y-105109133D01*
X165665783Y-105109133D02*
X165332450Y-105175800D01*
X166399116Y-104709133D02*
X166632450Y-105409133D01*
X166632450Y-105409133D02*
X166865783Y-104709133D01*
X167065783Y-104775800D02*
X167099116Y-104742466D01*
X167099116Y-104742466D02*
X167165783Y-104709133D01*
X167165783Y-104709133D02*
X167332450Y-104709133D01*
X167332450Y-104709133D02*
X167399116Y-104742466D01*
X167399116Y-104742466D02*
X167432450Y-104775800D01*
X167432450Y-104775800D02*
X167465783Y-104842466D01*
X167465783Y-104842466D02*
X167465783Y-104909133D01*
X167465783Y-104909133D02*
X167432450Y-105009133D01*
X167432450Y-105009133D02*
X167032450Y-105409133D01*
X167032450Y-105409133D02*
X167465783Y-105409133D01*
X167965783Y-105675800D02*
X167932450Y-105642466D01*
X167932450Y-105642466D02*
X167865783Y-105542466D01*
X167865783Y-105542466D02*
X167832450Y-105475800D01*
X167832450Y-105475800D02*
X167799117Y-105375800D01*
X167799117Y-105375800D02*
X167765783Y-105209133D01*
X167765783Y-105209133D02*
X167765783Y-105075800D01*
X167765783Y-105075800D02*
X167799117Y-104909133D01*
X167799117Y-104909133D02*
X167832450Y-104809133D01*
X167832450Y-104809133D02*
X167865783Y-104742466D01*
X167865783Y-104742466D02*
X167932450Y-104642466D01*
X167932450Y-104642466D02*
X167965783Y-104609133D01*
X168632450Y-105342466D02*
X168599117Y-105375800D01*
X168599117Y-105375800D02*
X168499117Y-105409133D01*
X168499117Y-105409133D02*
X168432450Y-105409133D01*
X168432450Y-105409133D02*
X168332450Y-105375800D01*
X168332450Y-105375800D02*
X168265784Y-105309133D01*
X168265784Y-105309133D02*
X168232450Y-105242466D01*
X168232450Y-105242466D02*
X168199117Y-105109133D01*
X168199117Y-105109133D02*
X168199117Y-105009133D01*
X168199117Y-105009133D02*
X168232450Y-104875800D01*
X168232450Y-104875800D02*
X168265784Y-104809133D01*
X168265784Y-104809133D02*
X168332450Y-104742466D01*
X168332450Y-104742466D02*
X168432450Y-104709133D01*
X168432450Y-104709133D02*
X168499117Y-104709133D01*
X168499117Y-104709133D02*
X168599117Y-104742466D01*
X168599117Y-104742466D02*
X168632450Y-104775800D01*
X168932450Y-105042466D02*
X169165784Y-105042466D01*
X169265784Y-105409133D02*
X168932450Y-105409133D01*
X168932450Y-105409133D02*
X168932450Y-104709133D01*
X168932450Y-104709133D02*
X169265784Y-104709133D01*
X169965783Y-105409133D02*
X169732450Y-105075800D01*
X169565783Y-105409133D02*
X169565783Y-104709133D01*
X169565783Y-104709133D02*
X169832450Y-104709133D01*
X169832450Y-104709133D02*
X169899117Y-104742466D01*
X169899117Y-104742466D02*
X169932450Y-104775800D01*
X169932450Y-104775800D02*
X169965783Y-104842466D01*
X169965783Y-104842466D02*
X169965783Y-104942466D01*
X169965783Y-104942466D02*
X169932450Y-105009133D01*
X169932450Y-105009133D02*
X169899117Y-105042466D01*
X169899117Y-105042466D02*
X169832450Y-105075800D01*
X169832450Y-105075800D02*
X169565783Y-105075800D01*
X170265783Y-105409133D02*
X170265783Y-104709133D01*
X170265783Y-104709133D02*
X170665783Y-105409133D01*
X170665783Y-105409133D02*
X170665783Y-104709133D01*
X170999116Y-105142466D02*
X171532450Y-105142466D01*
X171999117Y-104709133D02*
X172132450Y-104709133D01*
X172132450Y-104709133D02*
X172199117Y-104742466D01*
X172199117Y-104742466D02*
X172265783Y-104809133D01*
X172265783Y-104809133D02*
X172299117Y-104942466D01*
X172299117Y-104942466D02*
X172299117Y-105175800D01*
X172299117Y-105175800D02*
X172265783Y-105309133D01*
X172265783Y-105309133D02*
X172199117Y-105375800D01*
X172199117Y-105375800D02*
X172132450Y-105409133D01*
X172132450Y-105409133D02*
X171999117Y-105409133D01*
X171999117Y-105409133D02*
X171932450Y-105375800D01*
X171932450Y-105375800D02*
X171865783Y-105309133D01*
X171865783Y-105309133D02*
X171832450Y-105175800D01*
X171832450Y-105175800D02*
X171832450Y-104942466D01*
X171832450Y-104942466D02*
X171865783Y-104809133D01*
X171865783Y-104809133D02*
X171932450Y-104742466D01*
X171932450Y-104742466D02*
X171999117Y-104709133D01*
X172599116Y-105409133D02*
X172599116Y-104709133D01*
X172599116Y-105042466D02*
X172999116Y-105042466D01*
X172999116Y-105409133D02*
X172999116Y-104709133D01*
X173665783Y-105409133D02*
X173332449Y-105409133D01*
X173332449Y-105409133D02*
X173332449Y-104709133D01*
X173899116Y-105142466D02*
X174432450Y-105142466D01*
X174732450Y-105375800D02*
X174832450Y-105409133D01*
X174832450Y-105409133D02*
X174999117Y-105409133D01*
X174999117Y-105409133D02*
X175065783Y-105375800D01*
X175065783Y-105375800D02*
X175099117Y-105342466D01*
X175099117Y-105342466D02*
X175132450Y-105275800D01*
X175132450Y-105275800D02*
X175132450Y-105209133D01*
X175132450Y-105209133D02*
X175099117Y-105142466D01*
X175099117Y-105142466D02*
X175065783Y-105109133D01*
X175065783Y-105109133D02*
X174999117Y-105075800D01*
X174999117Y-105075800D02*
X174865783Y-105042466D01*
X174865783Y-105042466D02*
X174799117Y-105009133D01*
X174799117Y-105009133D02*
X174765783Y-104975800D01*
X174765783Y-104975800D02*
X174732450Y-104909133D01*
X174732450Y-104909133D02*
X174732450Y-104842466D01*
X174732450Y-104842466D02*
X174765783Y-104775800D01*
X174765783Y-104775800D02*
X174799117Y-104742466D01*
X174799117Y-104742466D02*
X174865783Y-104709133D01*
X174865783Y-104709133D02*
X175032450Y-104709133D01*
X175032450Y-104709133D02*
X175132450Y-104742466D01*
X175365784Y-105675800D02*
X175399117Y-105642466D01*
X175399117Y-105642466D02*
X175465784Y-105542466D01*
X175465784Y-105542466D02*
X175499117Y-105475800D01*
X175499117Y-105475800D02*
X175532450Y-105375800D01*
X175532450Y-105375800D02*
X175565784Y-105209133D01*
X175565784Y-105209133D02*
X175565784Y-105075800D01*
X175565784Y-105075800D02*
X175532450Y-104909133D01*
X175532450Y-104909133D02*
X175499117Y-104809133D01*
X175499117Y-104809133D02*
X175465784Y-104742466D01*
X175465784Y-104742466D02*
X175399117Y-104642466D01*
X175399117Y-104642466D02*
X175365784Y-104609133D01*
D13*
%TO.C,G\u002A\u002A\u002A*%
G36*
X161705852Y-88411960D02*
G01*
X161687812Y-88430000D01*
X161669772Y-88411960D01*
X161687812Y-88393920D01*
X161705852Y-88411960D01*
G37*
G36*
X167496981Y-87313806D02*
G01*
X167511940Y-87325228D01*
X167523879Y-87352711D01*
X167533223Y-87403162D01*
X167540397Y-87483493D01*
X167545823Y-87600612D01*
X167549928Y-87761429D01*
X167553134Y-87972854D01*
X167555867Y-88241796D01*
X167558550Y-88575165D01*
X167558885Y-88619418D01*
X167560853Y-88922735D01*
X167562062Y-89205635D01*
X167562524Y-89459419D01*
X167562249Y-89675386D01*
X167561247Y-89844838D01*
X167559529Y-89959074D01*
X167557249Y-90008480D01*
X167521926Y-90076113D01*
X167478579Y-90089659D01*
X167418226Y-90058565D01*
X167399910Y-90008480D01*
X167397521Y-89954572D01*
X167395840Y-89837208D01*
X167394876Y-89665086D01*
X167394640Y-89446908D01*
X167395141Y-89191373D01*
X167396390Y-88907179D01*
X167398273Y-88619418D01*
X167400978Y-88277928D01*
X167403683Y-88001687D01*
X167406811Y-87783785D01*
X167410786Y-87617311D01*
X167416033Y-87495358D01*
X167422977Y-87411014D01*
X167432040Y-87357372D01*
X167443649Y-87327520D01*
X167458226Y-87314550D01*
X167476197Y-87311552D01*
X167478579Y-87311534D01*
X167496981Y-87313806D01*
G37*
G36*
X156604149Y-87690369D02*
G01*
X156674774Y-88333000D01*
X156791390Y-88920846D01*
X156954329Y-89454998D01*
X157163922Y-89936549D01*
X157416126Y-90360256D01*
X157537588Y-90531797D01*
X157638530Y-90660536D01*
X157735790Y-90765407D01*
X157846204Y-90865345D01*
X157917618Y-90924246D01*
X158154240Y-91087030D01*
X158398529Y-91203607D01*
X158632251Y-91265636D01*
X158674793Y-91270642D01*
X158794538Y-91278040D01*
X158871243Y-91267221D01*
X158933371Y-91229673D01*
X158989972Y-91176409D01*
X159073070Y-91105391D01*
X159156601Y-91072290D01*
X159275123Y-91063822D01*
X159282972Y-91063807D01*
X159405232Y-91071582D01*
X159489982Y-91103268D01*
X159570061Y-91170499D01*
X159668214Y-91313680D01*
X159697015Y-91476547D01*
X159680315Y-91584590D01*
X159608650Y-91729491D01*
X159491337Y-91825669D01*
X159340606Y-91867502D01*
X159168683Y-91849366D01*
X159130784Y-91837324D01*
X159008022Y-91804528D01*
X158855797Y-91778160D01*
X158765369Y-91768565D01*
X158467774Y-91717959D01*
X158192888Y-91608707D01*
X157931802Y-91436215D01*
X157695008Y-91216534D01*
X157406884Y-90862233D01*
X157160171Y-90452357D01*
X156956443Y-89991497D01*
X156797275Y-89484245D01*
X156684240Y-88935191D01*
X156618912Y-88348926D01*
X156604429Y-88035399D01*
X156600727Y-87867160D01*
X156599043Y-87744261D01*
X156599381Y-87674144D01*
X156601748Y-87664247D01*
X156604149Y-87690369D01*
G37*
G36*
X158787362Y-85123139D02*
G01*
X158819488Y-85123514D01*
X159040930Y-85126663D01*
X159204702Y-85131305D01*
X159325292Y-85139490D01*
X159417187Y-85153272D01*
X159494874Y-85174703D01*
X159572841Y-85205834D01*
X159649318Y-85241063D01*
X159986021Y-85437664D01*
X160305912Y-85700771D01*
X160606000Y-86026064D01*
X160883294Y-86409225D01*
X161134803Y-86845936D01*
X161357535Y-87331878D01*
X161548501Y-87862734D01*
X161611952Y-88074757D01*
X161648338Y-88206515D01*
X161665155Y-88281455D01*
X161663569Y-88311873D01*
X161644750Y-88310069D01*
X161633693Y-88303722D01*
X161605509Y-88253863D01*
X161597613Y-88195483D01*
X161583994Y-88119932D01*
X161561534Y-88087244D01*
X161528403Y-88035070D01*
X161525454Y-88012563D01*
X161508328Y-87939814D01*
X161461081Y-87817370D01*
X161389906Y-87657891D01*
X161300999Y-87474035D01*
X161200554Y-87278464D01*
X161094767Y-87083835D01*
X160989832Y-86902808D01*
X160952892Y-86842500D01*
X160814954Y-86647749D01*
X160634583Y-86433200D01*
X160429126Y-86219468D01*
X160426024Y-86216453D01*
X160143117Y-85968216D01*
X159868443Y-85784741D01*
X159591002Y-85661241D01*
X159299791Y-85592930D01*
X158983812Y-85575019D01*
X158953570Y-85575722D01*
X158853184Y-85589952D01*
X158787324Y-85638741D01*
X158745912Y-85700294D01*
X158640715Y-85823015D01*
X158498863Y-85889023D01*
X158353622Y-85904432D01*
X158201531Y-85872552D01*
X158080824Y-85786850D01*
X158000898Y-85662231D01*
X157971151Y-85513601D01*
X158000979Y-85355865D01*
X158003649Y-85349324D01*
X158041846Y-85268968D01*
X158086832Y-85209552D01*
X158149285Y-85168122D01*
X158239886Y-85141721D01*
X158369313Y-85127394D01*
X158548245Y-85122186D01*
X158787362Y-85123139D01*
G37*
G36*
X162281563Y-85020818D02*
G01*
X162400342Y-85074762D01*
X162461811Y-85169017D01*
X162473806Y-85281495D01*
X162478080Y-85354480D01*
X162501787Y-85423674D01*
X162554072Y-85505464D01*
X162644082Y-85616237D01*
X162690583Y-85669915D01*
X162808934Y-85802567D01*
X162929192Y-85932911D01*
X163030178Y-86038110D01*
X163053707Y-86061505D01*
X163196005Y-86200539D01*
X163754893Y-86187784D01*
X164313781Y-86175028D01*
X164378441Y-86265227D01*
X164417774Y-86322597D01*
X164487408Y-86426502D01*
X164578186Y-86563063D01*
X164680949Y-86718399D01*
X164786541Y-86878631D01*
X164885804Y-87029879D01*
X164969581Y-87158263D01*
X165028714Y-87249903D01*
X165042899Y-87272334D01*
X165072807Y-87320208D01*
X165134180Y-87418458D01*
X165220255Y-87556256D01*
X165324269Y-87722777D01*
X165433609Y-87897827D01*
X165547963Y-88077619D01*
X165651608Y-88234417D01*
X165737814Y-88358528D01*
X165799852Y-88440258D01*
X165830795Y-88469902D01*
X165884203Y-88473036D01*
X165990363Y-88478111D01*
X166129927Y-88484220D01*
X166188735Y-88486667D01*
X166504431Y-88499609D01*
X166504431Y-87147901D01*
X166504531Y-86800267D01*
X166505071Y-86517990D01*
X166506412Y-86294268D01*
X166508915Y-86122299D01*
X166512941Y-85995280D01*
X166518850Y-85906410D01*
X166527003Y-85848886D01*
X166537762Y-85815907D01*
X166551487Y-85800670D01*
X166568538Y-85796372D01*
X166576138Y-85796193D01*
X166589571Y-85797447D01*
X166601234Y-85804421D01*
X166611271Y-85821932D01*
X166619827Y-85854798D01*
X166627049Y-85907836D01*
X166633080Y-85985863D01*
X166638065Y-86093698D01*
X166642151Y-86236157D01*
X166645481Y-86418059D01*
X166648200Y-86644220D01*
X166650455Y-86919458D01*
X166652389Y-87248591D01*
X166654147Y-87636436D01*
X166655876Y-88087811D01*
X166657317Y-88493139D01*
X166658695Y-88929658D01*
X166659711Y-89346408D01*
X166660367Y-89737574D01*
X166660669Y-90097344D01*
X166660622Y-90419905D01*
X166660228Y-90699442D01*
X166659493Y-90930144D01*
X166658421Y-91106196D01*
X166657016Y-91221786D01*
X166655283Y-91271100D01*
X166655260Y-91271264D01*
X166619521Y-91339132D01*
X166574081Y-91352443D01*
X166516686Y-91326979D01*
X166503563Y-91271264D01*
X166503408Y-91217102D01*
X166503357Y-91099624D01*
X166503405Y-90927672D01*
X166503547Y-90710088D01*
X166503776Y-90455716D01*
X166504088Y-90173397D01*
X166504413Y-89918281D01*
X166506131Y-88646477D01*
X166363540Y-88646477D01*
X166259531Y-88658172D01*
X166183030Y-88687090D01*
X166173273Y-88695064D01*
X166143567Y-88740978D01*
X166087873Y-88841430D01*
X166011652Y-88986011D01*
X165920364Y-89164312D01*
X165819470Y-89365926D01*
X165789977Y-89425675D01*
X165678699Y-89652291D01*
X165595975Y-89823678D01*
X165538474Y-89949342D01*
X165502865Y-90038787D01*
X165485821Y-90101518D01*
X165484009Y-90147040D01*
X165494102Y-90184859D01*
X165511218Y-90221378D01*
X165543893Y-90347076D01*
X165518905Y-90453297D01*
X165450087Y-90530309D01*
X165351273Y-90568381D01*
X165236298Y-90557782D01*
X165124389Y-90493498D01*
X165074421Y-90410182D01*
X165070345Y-90305164D01*
X165104530Y-90201422D01*
X165169344Y-90121930D01*
X165257156Y-90089666D01*
X165258521Y-90089659D01*
X165293032Y-90057359D01*
X165353588Y-89963639D01*
X165437500Y-89813271D01*
X165542079Y-89611027D01*
X165639748Y-89413168D01*
X165738345Y-89209110D01*
X165825734Y-89026579D01*
X165897137Y-88875696D01*
X165947772Y-88766586D01*
X165972857Y-88709370D01*
X165974650Y-88704038D01*
X165942958Y-88691952D01*
X165851146Y-88679819D01*
X165711245Y-88668686D01*
X165535284Y-88659600D01*
X165417874Y-88655579D01*
X164854470Y-88639759D01*
X164783539Y-88742337D01*
X164742792Y-88807644D01*
X164674716Y-88923799D01*
X164585332Y-89079946D01*
X164480661Y-89265225D01*
X164366723Y-89468779D01*
X164249540Y-89679750D01*
X164135132Y-89887279D01*
X164029519Y-90080509D01*
X163938724Y-90248582D01*
X163868765Y-90380639D01*
X163825665Y-90465824D01*
X163816505Y-90486305D01*
X163785950Y-90550550D01*
X163727039Y-90663064D01*
X163647436Y-90809591D01*
X163554806Y-90975873D01*
X163524951Y-91028659D01*
X163407710Y-91235515D01*
X163271161Y-91476934D01*
X163131325Y-91724561D01*
X163004225Y-91950044D01*
X162990281Y-91974815D01*
X162711086Y-92470909D01*
X162282674Y-92470909D01*
X162096991Y-92472165D01*
X161970170Y-92477168D01*
X161888939Y-92487772D01*
X161840023Y-92505833D01*
X161810152Y-92533203D01*
X161807116Y-92537342D01*
X161736268Y-92608487D01*
X161681406Y-92645452D01*
X161573039Y-92667244D01*
X161467163Y-92632544D01*
X161384505Y-92554675D01*
X161345792Y-92446962D01*
X161345056Y-92429238D01*
X161374671Y-92314147D01*
X161450498Y-92230972D01*
X161553014Y-92187867D01*
X161662695Y-92192988D01*
X161760017Y-92254489D01*
X161760956Y-92255520D01*
X161795883Y-92287283D01*
X161841379Y-92307692D01*
X161911895Y-92318657D01*
X162021880Y-92322088D01*
X162185787Y-92319898D01*
X162238392Y-92318659D01*
X162649541Y-92308551D01*
X163133805Y-91447800D01*
X163260945Y-91220681D01*
X163375603Y-91013684D01*
X163473208Y-90835237D01*
X163549190Y-90693768D01*
X163598979Y-90597702D01*
X163618004Y-90555467D01*
X163618068Y-90554831D01*
X163585997Y-90534869D01*
X163505648Y-90523566D01*
X163469938Y-90522614D01*
X163321149Y-90547453D01*
X163214613Y-90612812D01*
X163098424Y-90686423D01*
X162996280Y-90692969D01*
X162895746Y-90632511D01*
X162876797Y-90614452D01*
X162802653Y-90506631D01*
X162800430Y-90400835D01*
X162870130Y-90293250D01*
X162876797Y-90286457D01*
X162984309Y-90212389D01*
X163089841Y-90210094D01*
X163197727Y-90279591D01*
X163206433Y-90288097D01*
X163273824Y-90342308D01*
X163353144Y-90369512D01*
X163471507Y-90377953D01*
X163502449Y-90378116D01*
X163708267Y-90377936D01*
X164086160Y-89701624D01*
X164205475Y-89487836D01*
X164319548Y-89282982D01*
X164421259Y-89099881D01*
X164503490Y-88951352D01*
X164559123Y-88850213D01*
X164566923Y-88835895D01*
X164669794Y-88646477D01*
X163879482Y-88646477D01*
X163089170Y-88646477D01*
X162298292Y-89786804D01*
X162120619Y-90043537D01*
X161955160Y-90283687D01*
X161806626Y-90500335D01*
X161679729Y-90686564D01*
X161579178Y-90835456D01*
X161509687Y-90940092D01*
X161475966Y-90993555D01*
X161474190Y-90996927D01*
X161429423Y-91048600D01*
X161395886Y-91056245D01*
X161362492Y-91027780D01*
X161286843Y-90951211D01*
X161174468Y-90832505D01*
X161030893Y-90677632D01*
X160861645Y-90492559D01*
X160672252Y-90283256D01*
X160468240Y-90055691D01*
X160439881Y-90023897D01*
X160201346Y-89757042D01*
X160005606Y-89539992D01*
X159848092Y-89368115D01*
X159724232Y-89236778D01*
X159629457Y-89141349D01*
X159559195Y-89077197D01*
X159508876Y-89039688D01*
X159473930Y-89024192D01*
X159453839Y-89024570D01*
X159203181Y-89073687D01*
X158986040Y-89059857D01*
X158800091Y-88982763D01*
X158723144Y-88924878D01*
X158587206Y-88764608D01*
X158511965Y-88586059D01*
X158493140Y-88400861D01*
X158526451Y-88220642D01*
X158607620Y-88057035D01*
X158732366Y-87921669D01*
X158896411Y-87826174D01*
X159095475Y-87782181D01*
X159144204Y-87780568D01*
X159353059Y-87811886D01*
X159532670Y-87907905D01*
X159639082Y-88008940D01*
X159739708Y-88172785D01*
X159788225Y-88362702D01*
X159783413Y-88557716D01*
X159724055Y-88736854D01*
X159684979Y-88799078D01*
X159636269Y-88874157D01*
X159631383Y-88922820D01*
X159659416Y-88964917D01*
X159858637Y-89193041D01*
X160066248Y-89428049D01*
X160276549Y-89663732D01*
X160483843Y-89893882D01*
X160682430Y-90112291D01*
X160866613Y-90312753D01*
X161030693Y-90489057D01*
X161168971Y-90634998D01*
X161275748Y-90744367D01*
X161345328Y-90810956D01*
X161370815Y-90829290D01*
X161402636Y-90800574D01*
X161470477Y-90718676D01*
X161569617Y-90589970D01*
X161695332Y-90420829D01*
X161842900Y-90217627D01*
X162007598Y-89986738D01*
X162184703Y-89734535D01*
X162226306Y-89674744D01*
X163028280Y-88520199D01*
X163269055Y-88509530D01*
X163390256Y-88501941D01*
X163476743Y-88492289D01*
X163509829Y-88482663D01*
X163509829Y-88482643D01*
X163489941Y-88448911D01*
X163435610Y-88368417D01*
X163354840Y-88252758D01*
X163255633Y-88113527D01*
X163242291Y-88094984D01*
X163128845Y-87939586D01*
X163045230Y-87832997D01*
X162980354Y-87764596D01*
X162923127Y-87723759D01*
X162862459Y-87699862D01*
X162818357Y-87688917D01*
X162682545Y-87634040D01*
X162604641Y-87547180D01*
X162589808Y-87436699D01*
X162614892Y-87359298D01*
X162693877Y-87259600D01*
X162793090Y-87217357D01*
X162895986Y-87227936D01*
X162986021Y-87286704D01*
X163046651Y-87389030D01*
X163062752Y-87484696D01*
X163070543Y-87553204D01*
X163094519Y-87626729D01*
X163141177Y-87717351D01*
X163217012Y-87837151D01*
X163328523Y-87998209D01*
X163371067Y-88058005D01*
X163675464Y-88484119D01*
X164656993Y-88493719D01*
X164914659Y-88495657D01*
X165147032Y-88496286D01*
X165344851Y-88495673D01*
X165498857Y-88493882D01*
X165599790Y-88490981D01*
X165638391Y-88487033D01*
X165638522Y-88486763D01*
X165619709Y-88447572D01*
X165568534Y-88360694D01*
X165492895Y-88238322D01*
X165400691Y-88092654D01*
X165299818Y-87935885D01*
X165198174Y-87780210D01*
X165103658Y-87637825D01*
X165024167Y-87520927D01*
X164967600Y-87441710D01*
X164943092Y-87412879D01*
X164890365Y-87401222D01*
X164782679Y-87391817D01*
X164637224Y-87385816D01*
X164515902Y-87384246D01*
X164336992Y-87385897D01*
X164214237Y-87393027D01*
X164131700Y-87407977D01*
X164073446Y-87433090D01*
X164044021Y-87453616D01*
X163909581Y-87533214D01*
X163790210Y-87545143D01*
X163679645Y-87491353D01*
X163597997Y-87390350D01*
X163583902Y-87278828D01*
X163637361Y-87171631D01*
X163679645Y-87131716D01*
X163797586Y-87076492D01*
X163915436Y-87091988D01*
X164026113Y-87177105D01*
X164034338Y-87186760D01*
X164076230Y-87230277D01*
X164125204Y-87256445D01*
X164199395Y-87269391D01*
X164316941Y-87273239D01*
X164413173Y-87272919D01*
X164587542Y-87271062D01*
X164706919Y-87262805D01*
X164774206Y-87239062D01*
X164792306Y-87190747D01*
X164764119Y-87108774D01*
X164692548Y-86984057D01*
X164580495Y-86807511D01*
X164568042Y-86788014D01*
X164466663Y-86631142D01*
X164377322Y-86496538D01*
X164307895Y-86395795D01*
X164266256Y-86340509D01*
X164259723Y-86334055D01*
X164216530Y-86329044D01*
X164110768Y-86325615D01*
X163952011Y-86323814D01*
X163749831Y-86323689D01*
X163513803Y-86325285D01*
X163253500Y-86328649D01*
X163228268Y-86329055D01*
X162933508Y-86334069D01*
X162702248Y-86338834D01*
X162525835Y-86344121D01*
X162395618Y-86350704D01*
X162302942Y-86359354D01*
X162239158Y-86370845D01*
X162195611Y-86385948D01*
X162163650Y-86405436D01*
X162138806Y-86426316D01*
X162056654Y-86489863D01*
X161985322Y-86529467D01*
X161985041Y-86529567D01*
X161885210Y-86531030D01*
X161789739Y-86480338D01*
X161717135Y-86396008D01*
X161685902Y-86296557D01*
X161694264Y-86238595D01*
X161767037Y-86119353D01*
X161870747Y-86057887D01*
X161989724Y-86058251D01*
X162108301Y-86124500D01*
X162114278Y-86129929D01*
X162159794Y-86166859D01*
X162210889Y-86189766D01*
X162284098Y-86201197D01*
X162395956Y-86203700D01*
X162562999Y-86199821D01*
X162567131Y-86199692D01*
X162719638Y-86192138D01*
X162840935Y-86180823D01*
X162915845Y-86167482D01*
X162932556Y-86157895D01*
X162909957Y-86120441D01*
X162848478Y-86041177D01*
X162757600Y-85931851D01*
X162650610Y-85808516D01*
X162523025Y-85667508D01*
X162430378Y-85574726D01*
X162362705Y-85521908D01*
X162310044Y-85500794D01*
X162278759Y-85500204D01*
X162168342Y-85481763D01*
X162069674Y-85414063D01*
X162006094Y-85317235D01*
X161994488Y-85255000D01*
X162025704Y-85148230D01*
X162104387Y-85063388D01*
X162208087Y-85018786D01*
X162281563Y-85020818D01*
G37*
%TD*%
D14*
%TO.C,R1*%
X140770000Y-90952500D03*
X140770000Y-89127500D03*
%TD*%
D15*
%TO.C,FID1*%
X133040000Y-99330000D03*
%TD*%
D16*
%TO.C,U1*%
X171475000Y-93140000D03*
X172745000Y-93140000D03*
X174015000Y-93140000D03*
X175285000Y-93140000D03*
X176555000Y-93140000D03*
X177825000Y-93140000D03*
X179095000Y-93140000D03*
X179095000Y-98067600D03*
X177825000Y-98067600D03*
X172745000Y-98067600D03*
X174015000Y-98067600D03*
X176555000Y-98067600D03*
X175285000Y-98067600D03*
X171475000Y-98067600D03*
%TD*%
D17*
%TO.C,D1*%
X185910000Y-102780000D03*
X185910000Y-104530000D03*
%TD*%
D15*
%TO.C,FID4*%
X193770000Y-78170000D03*
%TD*%
D14*
%TO.C,C1*%
X149040000Y-94932500D03*
X149040000Y-93107500D03*
%TD*%
D18*
%TO.C,R4*%
X152037500Y-88280000D03*
X153862500Y-88280000D03*
%TD*%
D14*
%TO.C,R1*%
X149340000Y-86752500D03*
X149340000Y-84927500D03*
%TD*%
D19*
%TO.C,U4*%
X142700000Y-92740000D03*
X142700000Y-90040000D03*
X143650000Y-90040000D03*
X144600000Y-92740000D03*
X144600000Y-90040000D03*
%TD*%
D20*
%TO.C,J3*%
X191200000Y-91770000D03*
D21*
X186700000Y-91770000D03*
D22*
X185100000Y-97470000D03*
X191200000Y-97470000D03*
X191200000Y-86070000D03*
X185100000Y-86070000D03*
%TD*%
D15*
%TO.C,FID3*%
X139920000Y-104810000D03*
%TD*%
D14*
%TO.C,R1*%
X150850000Y-86752500D03*
X150850000Y-84927500D03*
%TD*%
D23*
%TO.C,REF\u002A\u002A*%
X134910000Y-102950000D03*
X192910000Y-102950000D03*
D24*
X139610000Y-81390000D03*
X142150000Y-81390000D03*
X144690000Y-81390000D03*
X147230000Y-81390000D03*
X149770000Y-81390000D03*
X152310000Y-81390000D03*
X154850000Y-81390000D03*
X157390000Y-81390000D03*
X159930000Y-81390000D03*
X162470000Y-81390000D03*
X165010000Y-81390000D03*
X167550000Y-81390000D03*
X170090000Y-81390000D03*
X172630000Y-81390000D03*
X175170000Y-81390000D03*
X177710000Y-81390000D03*
X180250000Y-81390000D03*
X182790000Y-81390000D03*
X185330000Y-81390000D03*
X187870000Y-81390000D03*
D25*
X140880000Y-80120000D03*
X186600000Y-80120000D03*
D24*
X139610000Y-78850000D03*
X142150000Y-78850000D03*
X144690000Y-78850000D03*
X147230000Y-78850000D03*
X149770000Y-78850000D03*
X152310000Y-78850000D03*
X154850000Y-78850000D03*
X157390000Y-78850000D03*
X159930000Y-78850000D03*
X162470000Y-78850000D03*
X165010000Y-78850000D03*
X167550000Y-78850000D03*
X170090000Y-78850000D03*
X172630000Y-78850000D03*
X175170000Y-78850000D03*
X177710000Y-78850000D03*
X180250000Y-78850000D03*
X182790000Y-78850000D03*
X185330000Y-78850000D03*
X187870000Y-78850000D03*
D26*
X139610000Y-77400000D03*
X139610000Y-82840000D03*
X142150000Y-77400000D03*
X142150000Y-82840000D03*
X144690000Y-82840000D03*
X147230000Y-77400000D03*
X147230000Y-82840000D03*
X149770000Y-77400000D03*
X152310000Y-77400000D03*
X152310000Y-82840000D03*
X154850000Y-82840000D03*
X157390000Y-77400000D03*
X157390000Y-82840000D03*
X159930000Y-77400000D03*
X159930000Y-82840000D03*
X162470000Y-82840000D03*
X165010000Y-77400000D03*
X165010000Y-82840000D03*
X167550000Y-77400000D03*
X167550000Y-82840000D03*
X170090000Y-77400000D03*
X172630000Y-77400000D03*
X172630000Y-82840000D03*
X175170000Y-82840000D03*
X177710000Y-77400000D03*
X177710000Y-82840000D03*
X180250000Y-82840000D03*
X182790000Y-77400000D03*
X182790000Y-82840000D03*
X185330000Y-77400000D03*
X185330000Y-82840000D03*
X187870000Y-77400000D03*
X149770000Y-82840000D03*
X170090000Y-82840000D03*
X187870000Y-82840000D03*
X144690000Y-77400000D03*
X154850000Y-77400000D03*
X162470000Y-77400000D03*
X175170000Y-77400000D03*
X180250000Y-77400000D03*
%TD*%
D14*
%TO.C,C1*%
X146240000Y-94612500D03*
X146240000Y-92787500D03*
%TD*%
D27*
%TO.C,L1*%
X141070000Y-86520000D03*
X138780000Y-86520000D03*
%TD*%
D15*
%TO.C,FID2*%
X133040000Y-87720000D03*
%TD*%
D28*
%TO.C,J1*%
X139190000Y-92590000D03*
X139190000Y-94590000D03*
D29*
X133440000Y-90240000D03*
X133440000Y-96940000D03*
%TD*%
D15*
%TO.C,FID7*%
X147200000Y-86360000D03*
%TD*%
D17*
%TO.C,D1*%
X177190000Y-102762500D03*
X177190000Y-104512500D03*
%TD*%
D30*
%TO.C,C3*%
X143980000Y-88060000D03*
X143980000Y-85770000D03*
%TD*%
D15*
%TO.C,FID5*%
X194760000Y-98950000D03*
%TD*%
D27*
%TO.C,C3*%
X136770000Y-78820000D03*
X134480000Y-78820000D03*
%TD*%
D31*
%TO.C,REF\u002A\u002A*%
X194690000Y-81220000D03*
D32*
X194690000Y-83760000D03*
%TD*%
D33*
%TO.C,R4*%
X155525000Y-95980000D03*
X153700000Y-95980000D03*
%TD*%
D17*
%TO.C,D1*%
X183180000Y-102750000D03*
X183180000Y-104500000D03*
%TD*%
D34*
%TO.C,D2*%
X136550000Y-86260000D03*
X136550000Y-83110000D03*
%TD*%
D14*
%TO.C,C1*%
X170070000Y-100352500D03*
X170070000Y-98527500D03*
%TD*%
D35*
%TO.C,U2*%
X167887500Y-101270000D03*
D36*
X167800000Y-99770000D03*
D37*
X165500000Y-99770000D03*
D35*
X167887500Y-98270000D03*
%TD*%
D14*
%TO.C,C1*%
X162440000Y-101712500D03*
X162440000Y-99887500D03*
%TD*%
D18*
%TO.C,R2*%
X176175000Y-101170000D03*
X178000000Y-101170000D03*
%TD*%
%TO.C,R2*%
X183170000Y-101140000D03*
X184995000Y-101140000D03*
%TD*%
D33*
%TO.C,R2*%
X188325000Y-101140000D03*
X186500000Y-101140000D03*
%TD*%
D14*
%TO.C,C1*%
X152020000Y-93132500D03*
X152020000Y-91307500D03*
%TD*%
D38*
%TO.C,U3*%
X149385000Y-88775000D03*
X148885000Y-88775000D03*
X148385000Y-88775000D03*
X148385000Y-91645000D03*
D39*
X147700000Y-89960000D03*
X147700000Y-89460000D03*
X147700000Y-90960000D03*
D38*
X149885000Y-91645000D03*
D39*
X150570000Y-90960000D03*
X150570000Y-89460000D03*
D38*
X149385000Y-91645000D03*
X148885000Y-91645000D03*
D39*
X147700000Y-90460000D03*
X150570000Y-89960000D03*
X150570000Y-90460000D03*
D38*
X149885000Y-88775000D03*
D40*
X149135000Y-90210000D03*
%TD*%
D15*
%TO.C,FID6*%
X188910000Y-104740000D03*
%TD*%
D18*
%TO.C,R1*%
X152040000Y-89790000D03*
X153865000Y-89790000D03*
%TD*%
D17*
%TO.C,D1*%
X180140000Y-102727500D03*
X180140000Y-104477500D03*
%TD*%
D19*
%TO.C,U5*%
X133490000Y-85310000D03*
X132540000Y-82610000D03*
X134440000Y-85310000D03*
X132540000Y-85310000D03*
X134440000Y-82610000D03*
%TD*%
D15*
%TO.C,FID7*%
X159160000Y-88430000D03*
%TD*%
D33*
%TO.C,R1*%
X146042500Y-98360000D03*
X144217500Y-98360000D03*
%TD*%
D18*
%TO.C,R2*%
X179525000Y-101150000D03*
X181350000Y-101150000D03*
%TD*%
D41*
%TO.C,J2*%
X144189000Y-100944000D03*
X145439000Y-100944000D03*
D42*
X142339000Y-104144000D03*
X147289000Y-104144000D03*
%TD*%
M02*
