M48
; DRILL file {KiCad 8.0.6} date 2024-10-20T18:51:47+0800
; FORMAT={-:-/ absolute / inch / decimal}
; #@! TF.CreationDate,2024-10-20T18:51:47+08:00
; #@! TF.GenerationSoftware,Kicad,Pcbnew,8.0.6
; #@! TF.FileFunction,NonPlated,1,4,NPTH
FMAT,2
INCH
; #@! TA.AperFunction,NonPlated,NPTH,ComponentDrill
T1C0.0382
; #@! TA.AperFunction,NonPlated,NPTH,ComponentDrill
T2C0.0701
; #@! TA.AperFunction,NonPlated,NPTH,ComponentDrill
T3C0.1083
%
G90
G05
T1
X5.4965Y-3.1043
X5.4965Y-3.2043
X5.5965Y-3.1043
X5.5965Y-3.2043
X5.6965Y-3.1043
X5.6965Y-3.2043
X5.7965Y-3.1043
X5.7965Y-3.2043
X5.8965Y-3.1043
X5.8965Y-3.2043
X5.9965Y-3.1043
X5.9965Y-3.2043
X6.0965Y-3.1043
X6.0965Y-3.2043
X6.1965Y-3.1043
X6.1965Y-3.2043
X6.2965Y-3.1043
X6.2965Y-3.2043
X6.3965Y-3.1043
X6.3965Y-3.2043
X6.4965Y-3.1043
X6.4965Y-3.2043
X6.5965Y-3.1043
X6.5965Y-3.2043
X6.6965Y-3.1043
X6.6965Y-3.2043
X6.7965Y-3.1043
X6.7965Y-3.2043
X6.8965Y-3.1043
X6.8965Y-3.2043
X6.9965Y-3.1043
X6.9965Y-3.2043
X7.0965Y-3.1043
X7.0965Y-3.2043
X7.1965Y-3.1043
X7.1965Y-3.2043
X7.2965Y-3.1043
X7.2965Y-3.2043
X7.3965Y-3.1043
X7.3965Y-3.2043
T2
X5.5465Y-3.1543
X7.3465Y-3.1543
T3
X5.3114Y-4.0531
M30
