%TF.GenerationSoftware,KiCad,Pcbnew,8.0.6*%
%TF.CreationDate,2024-10-20T18:51:53+08:00*%
%TF.ProjectId,RFM69HCW_v5,52464d36-3948-4435-975f-76352e6b6963,rev?*%
%TF.SameCoordinates,Original*%
%TF.FileFunction,Copper,L4,Bot*%
%TF.FilePolarity,Positive*%
%FSLAX46Y46*%
G04 Gerber Fmt 4.6, Leading zero omitted, Abs format (unit mm)*
G04 Created by KiCad (PCBNEW 8.0.6) date 2024-10-20 18:51:53*
%MOMM*%
%LPD*%
G01*
G04 APERTURE LIST*
%TA.AperFunction,ComponentPad*%
%ADD10C,2.000000*%
%TD*%
%TA.AperFunction,ComponentPad*%
%ADD11C,2.200000*%
%TD*%
%TA.AperFunction,ViaPad*%
%ADD12C,0.600000*%
%TD*%
%TA.AperFunction,ViaPad*%
%ADD13C,0.800000*%
%TD*%
%TA.AperFunction,ViaPad*%
%ADD14C,1.000000*%
%TD*%
%TA.AperFunction,Conductor*%
%ADD15C,0.200000*%
%TD*%
G04 APERTURE END LIST*
D10*
%TO.P,REF\u002A\u002A,*%
%TO.N,ANT433*%
X135800000Y-89320000D03*
D11*
%TO.N,GND*%
X138340000Y-91860000D03*
%TO.P,REF\u002A\u002A,2*%
X133260000Y-86780000D03*
X133260000Y-91860000D03*
X138340000Y-86780000D03*
%TD*%
D10*
%TO.P,REF\u002A\u002A,*%
%TO.N,ANT915*%
X191270000Y-101280000D03*
D11*
%TO.N,GND*%
X188730000Y-98740000D03*
%TO.P,REF\u002A\u002A,2*%
X193810000Y-103820000D03*
X193810000Y-98740000D03*
X188730000Y-103820000D03*
%TD*%
D12*
%TO.N,GND*%
X187220000Y-105920000D03*
X189520000Y-106000000D03*
X191530000Y-105980000D03*
X181690000Y-84510000D03*
%TO.N,MISO*%
X160980000Y-97990000D03*
%TO.N,GND*%
X139690000Y-105950000D03*
X155650000Y-85940000D03*
X172610000Y-101770000D03*
X195870000Y-99860000D03*
X184060000Y-77420000D03*
X153690000Y-105950000D03*
D13*
X149790000Y-84560000D03*
D12*
X145920000Y-77390000D03*
X169750000Y-102820000D03*
X183690000Y-105950000D03*
X192660000Y-85750000D03*
X148510000Y-77540000D03*
X195870000Y-83860000D03*
X153600000Y-86010000D03*
X193660000Y-89480000D03*
X193670000Y-105990000D03*
X143880000Y-84440000D03*
X161689999Y-105950000D03*
X159190000Y-103950000D03*
X181520000Y-77390000D03*
X168850000Y-82840000D03*
X143690000Y-105950000D03*
X145690000Y-105950000D03*
X170110000Y-84280000D03*
X141880000Y-84440000D03*
X131870000Y-80840000D03*
X195870000Y-89860000D03*
X177690000Y-105950000D03*
X139090000Y-100385000D03*
X190860000Y-91880000D03*
X170700000Y-102810000D03*
X195870000Y-97860000D03*
X137100001Y-77070000D03*
X147690000Y-105950000D03*
X177880000Y-84440000D03*
X171340000Y-77200000D03*
X167690000Y-105950000D03*
X167480000Y-84390000D03*
X157690000Y-105950000D03*
X151690000Y-105950000D03*
X188090000Y-84710000D03*
X169690000Y-105950000D03*
X195870000Y-91860000D03*
X181530000Y-79220000D03*
X172430000Y-87920000D03*
X163690000Y-105950000D03*
X194760000Y-88550000D03*
X172650000Y-84690000D03*
X187830000Y-96050000D03*
X195870000Y-93859999D03*
X193710000Y-90530000D03*
X172610000Y-100510000D03*
X158310000Y-86030000D03*
X165880000Y-84440000D03*
X141690000Y-105950000D03*
X153600000Y-77370000D03*
X131870000Y-84840000D03*
X195870000Y-95860000D03*
X163720000Y-77180000D03*
X172470000Y-86500000D03*
X195590000Y-84970000D03*
X131870000Y-96840000D03*
X195870000Y-85860000D03*
X149270000Y-85900000D03*
X195870000Y-87860000D03*
D13*
X150980000Y-82840000D03*
D12*
X166250000Y-77110000D03*
X188680000Y-88230000D03*
X131870000Y-78839999D03*
X167900000Y-87870000D03*
X165690000Y-105950000D03*
X158930000Y-89380000D03*
X182790000Y-98600000D03*
X179880000Y-84440000D03*
X154360000Y-102670000D03*
X179690000Y-105950000D03*
X133850000Y-76970000D03*
X155690000Y-105950000D03*
X195900000Y-79090000D03*
X151040000Y-77390000D03*
X143450000Y-77440000D03*
X186610000Y-77540000D03*
X149689999Y-105950000D03*
X168830000Y-80530000D03*
X178950000Y-77390000D03*
X190630000Y-89680000D03*
X195870000Y-81859999D03*
X140890000Y-77510000D03*
X189730000Y-83370000D03*
X195870000Y-101860000D03*
D13*
X148480000Y-82830000D03*
D12*
X131870000Y-94840000D03*
X137689999Y-105950000D03*
X175690000Y-105950000D03*
X193260000Y-77080000D03*
X143860000Y-91380000D03*
X167690000Y-101870000D03*
X189730000Y-82110000D03*
X135390000Y-77080000D03*
X131870000Y-98840000D03*
X154350000Y-103960000D03*
X167710000Y-100670000D03*
X158630000Y-77250000D03*
X156690000Y-104980000D03*
X181690000Y-105950000D03*
X175200000Y-84550000D03*
X131830000Y-82850000D03*
X168830000Y-77130000D03*
X176420000Y-77380000D03*
X161200000Y-77230000D03*
X195790000Y-88880000D03*
X182790000Y-99860000D03*
X191840001Y-76980000D03*
X168830000Y-79270000D03*
X195920000Y-103760000D03*
X160510000Y-86050000D03*
X167900000Y-86610000D03*
X147880000Y-84440000D03*
X189610000Y-85900000D03*
X145880000Y-84440000D03*
X189840000Y-76980000D03*
X185880000Y-84440000D03*
X159010000Y-88100000D03*
X156110000Y-77380000D03*
X131870000Y-100840000D03*
X159150000Y-102580000D03*
X173689999Y-105950000D03*
X178950000Y-79160000D03*
X159690000Y-105950000D03*
X173880000Y-77390000D03*
X139879999Y-84440000D03*
X183880000Y-84440000D03*
X171690000Y-105950000D03*
D14*
%TO.N,3v3*%
X159950000Y-84560000D03*
X139110000Y-95780000D03*
X187810000Y-91920000D03*
D12*
%TO.N,MOSI*%
X159450000Y-98140000D03*
X162470000Y-86210000D03*
%TO.N,MISO*%
X165010000Y-84310000D03*
X168240000Y-89260000D03*
%TO.N,SLCK*%
X169470000Y-92360002D03*
X167870000Y-93970000D03*
X163680000Y-97370000D03*
X168850000Y-84330000D03*
%TO.N,CS0*%
X165810000Y-80150000D03*
X154260000Y-94750000D03*
%TO.N,RST*%
X163740000Y-80750000D03*
X162165000Y-92335000D03*
%TO.N,INTER*%
X158650000Y-79090000D03*
X161220000Y-78930000D03*
X143582500Y-98592500D03*
X185460000Y-85680000D03*
%TO.N,CS1*%
X170690000Y-94360002D03*
X171430000Y-81430000D03*
%TD*%
D15*
%TO.N,CS1*%
X171430000Y-81430000D02*
X171430000Y-84041471D01*
X170710000Y-94340002D02*
X170690000Y-94360002D01*
X170710000Y-84761471D02*
X170710000Y-94340002D01*
X171430000Y-84041471D02*
X170710000Y-84761471D01*
X170690000Y-94350002D02*
X170690000Y-94360002D01*
%TO.N,SLCK*%
X169460000Y-92350002D02*
X169460000Y-84940000D01*
X169470000Y-92360002D02*
X169460000Y-92350002D01*
X169460000Y-84940000D02*
X168850000Y-84330000D01*
%TO.N,INTER*%
X143810000Y-97980000D02*
X143810000Y-94500000D01*
X143582500Y-98592500D02*
X143582500Y-98207500D01*
X156170000Y-81570000D02*
X158650000Y-79090000D01*
X143582500Y-98207500D02*
X143810000Y-97980000D01*
X143810000Y-94500000D02*
X156170000Y-82140000D01*
X156170000Y-82140000D02*
X156170000Y-81570000D01*
X185460000Y-85680000D02*
X177400000Y-85680000D01*
X177400000Y-85680000D02*
X176430000Y-84710000D01*
X176430000Y-84710000D02*
X176430000Y-80920000D01*
X176430000Y-80920000D02*
X175410000Y-79900000D01*
X175410000Y-79900000D02*
X168611471Y-79900000D01*
X161808529Y-79518529D02*
X161220000Y-78930000D01*
X168611471Y-79900000D02*
X168230000Y-79518529D01*
X168230000Y-79518529D02*
X161808529Y-79518529D01*
%TO.N,MISO*%
X163830000Y-95140000D02*
X163830000Y-93180000D01*
X160980000Y-97990000D02*
X163830000Y-95140000D01*
X163830000Y-93180000D02*
X167750000Y-89260000D01*
X167750000Y-89260000D02*
X168240000Y-89260000D01*
%TO.N,SLCK*%
X164470000Y-97370000D02*
X163680000Y-97370000D01*
X167870000Y-93970000D02*
X164470000Y-97370000D01*
%TO.N,MOSI*%
X162470000Y-87334314D02*
X159450000Y-90354314D01*
X162470000Y-86210000D02*
X162470000Y-87334314D01*
X159450000Y-90354314D02*
X159450000Y-98140000D01*
%TO.N,MISO*%
X165010000Y-86030000D02*
X165010000Y-84310000D01*
X168240000Y-89260000D02*
X165010000Y-86030000D01*
%TO.N,CS0*%
X165810000Y-80150000D02*
X159480000Y-80150000D01*
X154260000Y-88700000D02*
X154260000Y-94750000D01*
X158390000Y-84570000D02*
X154260000Y-88700000D01*
X158390000Y-81240000D02*
X158390000Y-84570000D01*
X159480000Y-80150000D02*
X158390000Y-81240000D01*
%TO.N,RST*%
X163740000Y-86630000D02*
X163740000Y-80750000D01*
X162720000Y-87650000D02*
X162720000Y-91780000D01*
X163740000Y-86630000D02*
X162720000Y-87650000D01*
X162720000Y-91780000D02*
X162165000Y-92335000D01*
%TD*%
%TA.AperFunction,Conductor*%
%TO.N,GND*%
G36*
X167993882Y-80147031D02*
G01*
X168014856Y-80163934D01*
X168124549Y-80273627D01*
X168124550Y-80273628D01*
X168237843Y-80386921D01*
X168376599Y-80467032D01*
X168531360Y-80508500D01*
X168691581Y-80508500D01*
X170939556Y-80508500D01*
X171007677Y-80528502D01*
X171054170Y-80582158D01*
X171064274Y-80652432D01*
X171034780Y-80717012D01*
X171006592Y-80741187D01*
X170922720Y-80793887D01*
X170922718Y-80793888D01*
X170793888Y-80922718D01*
X170793887Y-80922720D01*
X170734621Y-81017041D01*
X170681442Y-81064079D01*
X170611275Y-81074899D01*
X170546397Y-81046066D01*
X170538839Y-81039100D01*
X170437231Y-80937492D01*
X170437221Y-80937484D01*
X170308279Y-80863040D01*
X170308276Y-80863039D01*
X170308275Y-80863038D01*
X170308273Y-80863037D01*
X170308272Y-80863037D01*
X170269735Y-80852711D01*
X170164450Y-80824500D01*
X170015550Y-80824500D01*
X169955957Y-80840468D01*
X169871727Y-80863037D01*
X169871720Y-80863040D01*
X169742778Y-80937484D01*
X169742768Y-80937492D01*
X169637492Y-81042768D01*
X169637484Y-81042778D01*
X169563040Y-81171720D01*
X169563037Y-81171727D01*
X169556433Y-81196374D01*
X169526760Y-81307118D01*
X169524500Y-81315551D01*
X169524500Y-81464448D01*
X169524499Y-81464448D01*
X169563037Y-81608272D01*
X169563040Y-81608279D01*
X169637484Y-81737221D01*
X169637492Y-81737231D01*
X169742768Y-81842507D01*
X169742773Y-81842511D01*
X169742775Y-81842513D01*
X169742776Y-81842514D01*
X169742778Y-81842515D01*
X169811912Y-81882429D01*
X169871725Y-81916962D01*
X170015550Y-81955500D01*
X170015552Y-81955500D01*
X170164448Y-81955500D01*
X170164450Y-81955500D01*
X170308275Y-81916962D01*
X170437225Y-81842513D01*
X170507970Y-81771767D01*
X170570280Y-81737744D01*
X170641096Y-81742808D01*
X170697932Y-81785354D01*
X170703751Y-81793828D01*
X170793883Y-81937273D01*
X170794001Y-81937421D01*
X170794047Y-81937534D01*
X170797653Y-81943273D01*
X170796648Y-81943904D01*
X170820844Y-82003148D01*
X170821500Y-82015993D01*
X170821500Y-83737231D01*
X170801498Y-83805352D01*
X170784595Y-83826326D01*
X170223083Y-84387837D01*
X170223075Y-84387847D01*
X170138838Y-84533750D01*
X170135844Y-84532021D01*
X170100792Y-84574906D01*
X170033275Y-84596859D01*
X169964607Y-84578824D01*
X169940556Y-84560007D01*
X169838500Y-84457951D01*
X169688830Y-84308281D01*
X169654807Y-84245971D01*
X169652720Y-84233306D01*
X169643217Y-84148953D01*
X169583043Y-83976985D01*
X169583041Y-83976982D01*
X169583041Y-83976981D01*
X169486112Y-83822720D01*
X169486111Y-83822718D01*
X169357281Y-83693888D01*
X169357279Y-83693887D01*
X169203018Y-83596958D01*
X169203015Y-83596957D01*
X169031050Y-83536784D01*
X169031049Y-83536783D01*
X169031047Y-83536783D01*
X168850000Y-83516384D01*
X168668953Y-83536783D01*
X168668950Y-83536783D01*
X168668949Y-83536784D01*
X168496984Y-83596957D01*
X168496981Y-83596958D01*
X168342720Y-83693887D01*
X168342718Y-83693888D01*
X168213888Y-83822718D01*
X168213887Y-83822720D01*
X168116958Y-83976981D01*
X168116957Y-83976984D01*
X168063783Y-84128949D01*
X168056783Y-84148953D01*
X168036384Y-84330000D01*
X168056783Y-84511047D01*
X168056783Y-84511049D01*
X168056784Y-84511050D01*
X168116957Y-84683015D01*
X168116958Y-84683018D01*
X168213887Y-84837279D01*
X168213888Y-84837281D01*
X168342718Y-84966111D01*
X168342720Y-84966112D01*
X168496981Y-85063041D01*
X168496982Y-85063041D01*
X168496985Y-85063043D01*
X168668953Y-85123217D01*
X168739607Y-85131177D01*
X168805059Y-85158680D01*
X168845253Y-85217203D01*
X168851500Y-85256385D01*
X168851500Y-88461393D01*
X168831498Y-88529514D01*
X168777842Y-88576007D01*
X168707568Y-88586111D01*
X168658465Y-88568081D01*
X168593015Y-88526957D01*
X168421050Y-88466784D01*
X168421049Y-88466783D01*
X168421047Y-88466783D01*
X168358122Y-88459692D01*
X168336701Y-88457279D01*
X168271248Y-88429774D01*
X168261715Y-88421166D01*
X165655405Y-85814856D01*
X165621379Y-85752544D01*
X165618500Y-85725761D01*
X165618500Y-84895993D01*
X165638502Y-84827872D01*
X165645999Y-84817421D01*
X165646104Y-84817287D01*
X165646111Y-84817281D01*
X165743043Y-84663015D01*
X165803217Y-84491047D01*
X165823616Y-84310000D01*
X165803217Y-84128953D01*
X165743043Y-83956985D01*
X165743041Y-83956982D01*
X165743041Y-83956981D01*
X165646112Y-83802720D01*
X165646111Y-83802718D01*
X165517281Y-83673888D01*
X165517279Y-83673887D01*
X165363018Y-83576958D01*
X165363015Y-83576957D01*
X165191050Y-83516784D01*
X165191049Y-83516783D01*
X165191047Y-83516783D01*
X165010000Y-83496384D01*
X164828953Y-83516783D01*
X164828950Y-83516783D01*
X164828949Y-83516784D01*
X164656986Y-83576956D01*
X164541536Y-83649498D01*
X164473214Y-83668803D01*
X164405301Y-83648107D01*
X164359358Y-83593980D01*
X164348500Y-83542810D01*
X164348500Y-81832429D01*
X164368502Y-81764308D01*
X164422158Y-81717815D01*
X164492432Y-81707711D01*
X164557012Y-81737205D01*
X164563595Y-81743334D01*
X164662768Y-81842507D01*
X164662773Y-81842511D01*
X164662775Y-81842513D01*
X164662776Y-81842514D01*
X164662778Y-81842515D01*
X164731912Y-81882429D01*
X164791725Y-81916962D01*
X164935550Y-81955500D01*
X164935552Y-81955500D01*
X165084448Y-81955500D01*
X165084450Y-81955500D01*
X165228275Y-81916962D01*
X165357225Y-81842513D01*
X165462513Y-81737225D01*
X165536962Y-81608275D01*
X165575500Y-81464450D01*
X165575500Y-81464448D01*
X166984499Y-81464448D01*
X167023037Y-81608272D01*
X167023040Y-81608279D01*
X167097484Y-81737221D01*
X167097492Y-81737231D01*
X167202768Y-81842507D01*
X167202773Y-81842511D01*
X167202775Y-81842513D01*
X167202776Y-81842514D01*
X167202778Y-81842515D01*
X167271912Y-81882429D01*
X167331725Y-81916962D01*
X167475550Y-81955500D01*
X167475552Y-81955500D01*
X167624448Y-81955500D01*
X167624450Y-81955500D01*
X167768275Y-81916962D01*
X167897225Y-81842513D01*
X168002513Y-81737225D01*
X168076962Y-81608275D01*
X168115500Y-81464450D01*
X168115500Y-81315550D01*
X168076962Y-81171725D01*
X168054249Y-81132384D01*
X168002515Y-81042778D01*
X168002507Y-81042768D01*
X167897231Y-80937492D01*
X167897221Y-80937484D01*
X167768279Y-80863040D01*
X167768276Y-80863039D01*
X167768275Y-80863038D01*
X167768273Y-80863037D01*
X167768272Y-80863037D01*
X167729735Y-80852711D01*
X167624450Y-80824500D01*
X167475550Y-80824500D01*
X167415957Y-80840468D01*
X167331727Y-80863037D01*
X167331720Y-80863040D01*
X167202778Y-80937484D01*
X167202768Y-80937492D01*
X167097492Y-81042768D01*
X167097484Y-81042778D01*
X167023040Y-81171720D01*
X167023037Y-81171727D01*
X167016433Y-81196374D01*
X166986760Y-81307118D01*
X166984500Y-81315551D01*
X166984500Y-81464448D01*
X166984499Y-81464448D01*
X165575500Y-81464448D01*
X165575500Y-81315550D01*
X165536962Y-81171725D01*
X165514247Y-81132382D01*
X165497510Y-81063389D01*
X165520730Y-80996297D01*
X165576537Y-80952410D01*
X165637470Y-80944176D01*
X165810000Y-80963616D01*
X165991047Y-80943217D01*
X166163015Y-80883043D01*
X166317281Y-80786111D01*
X166446111Y-80657281D01*
X166543043Y-80503015D01*
X166603217Y-80331047D01*
X166613597Y-80238920D01*
X166641101Y-80173468D01*
X166699625Y-80133275D01*
X166738805Y-80127029D01*
X167925761Y-80127029D01*
X167993882Y-80147031D01*
G37*
%TD.AperFunction*%
%TA.AperFunction,Conductor*%
G36*
X193413301Y-76470673D02*
G01*
X193714843Y-76486476D01*
X193727959Y-76487854D01*
X194022951Y-76534576D01*
X194035851Y-76537318D01*
X194324342Y-76614619D01*
X194336884Y-76618694D01*
X194615711Y-76725726D01*
X194627743Y-76731082D01*
X194893876Y-76866684D01*
X194905285Y-76873271D01*
X195155777Y-77035943D01*
X195166434Y-77043687D01*
X195391924Y-77226284D01*
X195398544Y-77231645D01*
X195408345Y-77240470D01*
X195619529Y-77451654D01*
X195628354Y-77461455D01*
X195816308Y-77693559D01*
X195824060Y-77704228D01*
X195986724Y-77954708D01*
X195993319Y-77966130D01*
X196128913Y-78232248D01*
X196134277Y-78244297D01*
X196241304Y-78523114D01*
X196245380Y-78535657D01*
X196322681Y-78824148D01*
X196325423Y-78837048D01*
X196343551Y-78951499D01*
X196362046Y-79068275D01*
X196372146Y-79132039D01*
X196373523Y-79145152D01*
X196380145Y-79271498D01*
X196389327Y-79446698D01*
X196389500Y-79453292D01*
X196389500Y-103446707D01*
X196389327Y-103453302D01*
X196373523Y-103754843D01*
X196372145Y-103767959D01*
X196325423Y-104062951D01*
X196322681Y-104075851D01*
X196245380Y-104364342D01*
X196241304Y-104376885D01*
X196134277Y-104655702D01*
X196128913Y-104667751D01*
X195993319Y-104933869D01*
X195986724Y-104945291D01*
X195824060Y-105195771D01*
X195816308Y-105206440D01*
X195628354Y-105438544D01*
X195619529Y-105448345D01*
X195408345Y-105659529D01*
X195398544Y-105668354D01*
X195166440Y-105856308D01*
X195155771Y-105864060D01*
X194905291Y-106026724D01*
X194893869Y-106033319D01*
X194627751Y-106168913D01*
X194615702Y-106174277D01*
X194336885Y-106281304D01*
X194324342Y-106285380D01*
X194035851Y-106362681D01*
X194022951Y-106365423D01*
X193727959Y-106412145D01*
X193714843Y-106413523D01*
X193429363Y-106428485D01*
X193413300Y-106429327D01*
X193406707Y-106429500D01*
X134413293Y-106429500D01*
X134406699Y-106429327D01*
X134389688Y-106428435D01*
X134105156Y-106413523D01*
X134092040Y-106412145D01*
X133797048Y-106365423D01*
X133784148Y-106362681D01*
X133495657Y-106285380D01*
X133483114Y-106281304D01*
X133204297Y-106174277D01*
X133192248Y-106168913D01*
X132926130Y-106033319D01*
X132914708Y-106026724D01*
X132664225Y-105864058D01*
X132653559Y-105856308D01*
X132421455Y-105668354D01*
X132411654Y-105659529D01*
X132200470Y-105448345D01*
X132191645Y-105438544D01*
X132003691Y-105206440D01*
X131995943Y-105195777D01*
X131833271Y-104945285D01*
X131826680Y-104933869D01*
X131692232Y-104670000D01*
X131691082Y-104667743D01*
X131685726Y-104655711D01*
X131578694Y-104376884D01*
X131574619Y-104364342D01*
X131557074Y-104298865D01*
X131497318Y-104075851D01*
X131494576Y-104062951D01*
X131494138Y-104060188D01*
X131447853Y-103767958D01*
X131446476Y-103754842D01*
X131430673Y-103453301D01*
X131430500Y-103446707D01*
X131430500Y-102835450D01*
X133454500Y-102835450D01*
X133454500Y-103064550D01*
X133454847Y-103066740D01*
X133490340Y-103290835D01*
X133540986Y-103446707D01*
X133561135Y-103508718D01*
X133665145Y-103712848D01*
X133799807Y-103898195D01*
X133799809Y-103898197D01*
X133799811Y-103898200D01*
X133961799Y-104060188D01*
X133961802Y-104060190D01*
X133961805Y-104060193D01*
X134147152Y-104194855D01*
X134351282Y-104298865D01*
X134569170Y-104369661D01*
X134795450Y-104405500D01*
X134795453Y-104405500D01*
X135024547Y-104405500D01*
X135024550Y-104405500D01*
X135250830Y-104369661D01*
X135468718Y-104298865D01*
X135672848Y-104194855D01*
X135858195Y-104060193D01*
X136020193Y-103898195D01*
X136077005Y-103820000D01*
X187117028Y-103820000D01*
X187136886Y-104072323D01*
X187195971Y-104318434D01*
X187292830Y-104552272D01*
X187424177Y-104766611D01*
X187424178Y-104766611D01*
X187974228Y-104216561D01*
X187976740Y-104222626D01*
X188069762Y-104361844D01*
X188188156Y-104480238D01*
X188327374Y-104573260D01*
X188333436Y-104575771D01*
X187783387Y-105125820D01*
X187783387Y-105125822D01*
X187997727Y-105257169D01*
X188231565Y-105354028D01*
X188477676Y-105413113D01*
X188730000Y-105432971D01*
X188982323Y-105413113D01*
X189228434Y-105354028D01*
X189462277Y-105257167D01*
X189676611Y-105125822D01*
X189676611Y-105125820D01*
X189126562Y-104575771D01*
X189132626Y-104573260D01*
X189271844Y-104480238D01*
X189390238Y-104361844D01*
X189483260Y-104222626D01*
X189485771Y-104216562D01*
X190035820Y-104766611D01*
X190035822Y-104766611D01*
X190167167Y-104552277D01*
X190264028Y-104318434D01*
X190323113Y-104072323D01*
X190342971Y-103820000D01*
X192197028Y-103820000D01*
X192216886Y-104072323D01*
X192275971Y-104318434D01*
X192372830Y-104552272D01*
X192504177Y-104766611D01*
X192504178Y-104766611D01*
X193054228Y-104216561D01*
X193056740Y-104222626D01*
X193149762Y-104361844D01*
X193268156Y-104480238D01*
X193407374Y-104573260D01*
X193413436Y-104575771D01*
X192863387Y-105125820D01*
X192863387Y-105125822D01*
X193077727Y-105257169D01*
X193311565Y-105354028D01*
X193557676Y-105413113D01*
X193810000Y-105432971D01*
X194062323Y-105413113D01*
X194308434Y-105354028D01*
X194542277Y-105257167D01*
X194756611Y-105125822D01*
X194756611Y-105125820D01*
X194206562Y-104575771D01*
X194212626Y-104573260D01*
X194351844Y-104480238D01*
X194470238Y-104361844D01*
X194563260Y-104222626D01*
X194565771Y-104216562D01*
X195115820Y-104766611D01*
X195115822Y-104766611D01*
X195247167Y-104552277D01*
X195344028Y-104318434D01*
X195403113Y-104072323D01*
X195422971Y-103820000D01*
X195403113Y-103567676D01*
X195344028Y-103321565D01*
X195247169Y-103087727D01*
X195115822Y-102873387D01*
X195115820Y-102873387D01*
X194565771Y-103423436D01*
X194563260Y-103417374D01*
X194470238Y-103278156D01*
X194351844Y-103159762D01*
X194212626Y-103066740D01*
X194206561Y-103064228D01*
X194756611Y-102514178D01*
X194756611Y-102514177D01*
X194542272Y-102382830D01*
X194308434Y-102285971D01*
X194062323Y-102226886D01*
X193810000Y-102207028D01*
X193557676Y-102226886D01*
X193311565Y-102285971D01*
X193077727Y-102382830D01*
X192863387Y-102514176D01*
X192863387Y-102514178D01*
X193413437Y-103064228D01*
X193407374Y-103066740D01*
X193268156Y-103159762D01*
X193149762Y-103278156D01*
X193056740Y-103417374D01*
X193054228Y-103423437D01*
X192504178Y-102873387D01*
X192504176Y-102873387D01*
X192372830Y-103087727D01*
X192275971Y-103321565D01*
X192216886Y-103567676D01*
X192197028Y-103820000D01*
X190342971Y-103820000D01*
X190323113Y-103567676D01*
X190264028Y-103321565D01*
X190167169Y-103087727D01*
X190035822Y-102873387D01*
X190035820Y-102873387D01*
X189485771Y-103423436D01*
X189483260Y-103417374D01*
X189390238Y-103278156D01*
X189271844Y-103159762D01*
X189132626Y-103066740D01*
X189126561Y-103064228D01*
X189676611Y-102514178D01*
X189676611Y-102514177D01*
X189462272Y-102382830D01*
X189228434Y-102285971D01*
X188982323Y-102226886D01*
X188730000Y-102207028D01*
X188477676Y-102226886D01*
X188231565Y-102285971D01*
X187997727Y-102382830D01*
X187783387Y-102514176D01*
X187783387Y-102514178D01*
X188333437Y-103064228D01*
X188327374Y-103066740D01*
X188188156Y-103159762D01*
X188069762Y-103278156D01*
X187976740Y-103417374D01*
X187974228Y-103423437D01*
X187424178Y-102873387D01*
X187424176Y-102873387D01*
X187292830Y-103087727D01*
X187195971Y-103321565D01*
X187136886Y-103567676D01*
X187117028Y-103820000D01*
X136077005Y-103820000D01*
X136154855Y-103712848D01*
X136258865Y-103508718D01*
X136329661Y-103290830D01*
X136365500Y-103064550D01*
X136365500Y-102835450D01*
X136329661Y-102609170D01*
X136258865Y-102391282D01*
X136154855Y-102187152D01*
X136020193Y-102001805D01*
X136020190Y-102001802D01*
X136020188Y-102001799D01*
X135858200Y-101839811D01*
X135858197Y-101839809D01*
X135858195Y-101839807D01*
X135672848Y-101705145D01*
X135468718Y-101601135D01*
X135468715Y-101601134D01*
X135468713Y-101601133D01*
X135250835Y-101530340D01*
X135250831Y-101530339D01*
X135250830Y-101530339D01*
X135024550Y-101494500D01*
X134795450Y-101494500D01*
X134569170Y-101530339D01*
X134569164Y-101530340D01*
X134351286Y-101601133D01*
X134351280Y-101601136D01*
X134147148Y-101705147D01*
X133961802Y-101839809D01*
X133961799Y-101839811D01*
X133799811Y-102001799D01*
X133799809Y-102001802D01*
X133665147Y-102187148D01*
X133561136Y-102391280D01*
X133561133Y-102391286D01*
X133490340Y-102609164D01*
X133490339Y-102609169D01*
X133490339Y-102609170D01*
X133454500Y-102835450D01*
X131430500Y-102835450D01*
X131430500Y-101280000D01*
X189756835Y-101280000D01*
X189775465Y-101516710D01*
X189830894Y-101747592D01*
X189869091Y-101839807D01*
X189921760Y-101966963D01*
X189943111Y-102001805D01*
X190045825Y-102169417D01*
X190045826Y-102169419D01*
X190200030Y-102349969D01*
X190380580Y-102504173D01*
X190380584Y-102504176D01*
X190583037Y-102628240D01*
X190802406Y-102719105D01*
X191033289Y-102774535D01*
X191270000Y-102793165D01*
X191506711Y-102774535D01*
X191737594Y-102719105D01*
X191956963Y-102628240D01*
X192159416Y-102504176D01*
X192339969Y-102349969D01*
X192494176Y-102169416D01*
X192618240Y-101966963D01*
X192709105Y-101747594D01*
X192764535Y-101516711D01*
X192783165Y-101280000D01*
X192764535Y-101043289D01*
X192709105Y-100812406D01*
X192618240Y-100593037D01*
X192494176Y-100390584D01*
X192494173Y-100390580D01*
X192339969Y-100210030D01*
X192159419Y-100055826D01*
X192159417Y-100055825D01*
X192159416Y-100055824D01*
X191956963Y-99931760D01*
X191737594Y-99840895D01*
X191737592Y-99840894D01*
X191579651Y-99802976D01*
X191506711Y-99785465D01*
X191270000Y-99766835D01*
X191033289Y-99785465D01*
X190802407Y-99840894D01*
X190583038Y-99931759D01*
X190380582Y-100055825D01*
X190380580Y-100055826D01*
X190200030Y-100210030D01*
X190045826Y-100390580D01*
X190045825Y-100390582D01*
X189921759Y-100593038D01*
X189830894Y-100812407D01*
X189775465Y-101043289D01*
X189756835Y-101280000D01*
X131430500Y-101280000D01*
X131430500Y-98592500D01*
X142768884Y-98592500D01*
X142789283Y-98773547D01*
X142789283Y-98773549D01*
X142789284Y-98773550D01*
X142849457Y-98945515D01*
X142849458Y-98945518D01*
X142946387Y-99099779D01*
X142946388Y-99099781D01*
X143075218Y-99228611D01*
X143075220Y-99228612D01*
X143229481Y-99325541D01*
X143229482Y-99325541D01*
X143229485Y-99325543D01*
X143401453Y-99385717D01*
X143582500Y-99406116D01*
X143763547Y-99385717D01*
X143935515Y-99325543D01*
X144089781Y-99228611D01*
X144218611Y-99099781D01*
X144315543Y-98945515D01*
X144375717Y-98773547D01*
X144396116Y-98592500D01*
X144375717Y-98411453D01*
X144352473Y-98345028D01*
X144348854Y-98274125D01*
X144362280Y-98240421D01*
X144377032Y-98214872D01*
X144418500Y-98060110D01*
X144418500Y-97899889D01*
X144418500Y-94804239D01*
X144438502Y-94736118D01*
X144455405Y-94715144D01*
X156656916Y-82513633D01*
X156656922Y-82513627D01*
X156737032Y-82374872D01*
X156772202Y-82243616D01*
X156778500Y-82220111D01*
X156778500Y-81882429D01*
X156798502Y-81814308D01*
X156852158Y-81767815D01*
X156922432Y-81757711D01*
X156987012Y-81787205D01*
X156993595Y-81793334D01*
X157042768Y-81842507D01*
X157042773Y-81842511D01*
X157042775Y-81842513D01*
X157042776Y-81842514D01*
X157042778Y-81842515D01*
X157111912Y-81882429D01*
X157171725Y-81916962D01*
X157315550Y-81955500D01*
X157315552Y-81955500D01*
X157464448Y-81955500D01*
X157464450Y-81955500D01*
X157608275Y-81916962D01*
X157608276Y-81916960D01*
X157616252Y-81914824D01*
X157616665Y-81916366D01*
X157677858Y-81909781D01*
X157741348Y-81941553D01*
X157777583Y-82002607D01*
X157781500Y-82033781D01*
X157781500Y-84265760D01*
X157761498Y-84333881D01*
X157744595Y-84354855D01*
X153773083Y-88326366D01*
X153773075Y-88326376D01*
X153692970Y-88465122D01*
X153692965Y-88465134D01*
X153683585Y-88500141D01*
X153683586Y-88500142D01*
X153651500Y-88619890D01*
X153651500Y-94164006D01*
X153631498Y-94232127D01*
X153624008Y-94242570D01*
X153623883Y-94242725D01*
X153526958Y-94396981D01*
X153526957Y-94396984D01*
X153518943Y-94419889D01*
X153466783Y-94568953D01*
X153446384Y-94750000D01*
X153466783Y-94931047D01*
X153466783Y-94931049D01*
X153466784Y-94931050D01*
X153526957Y-95103015D01*
X153526958Y-95103018D01*
X153623887Y-95257279D01*
X153623888Y-95257281D01*
X153752718Y-95386111D01*
X153752720Y-95386112D01*
X153906981Y-95483041D01*
X153906982Y-95483041D01*
X153906985Y-95483043D01*
X154078953Y-95543217D01*
X154260000Y-95563616D01*
X154441047Y-95543217D01*
X154613015Y-95483043D01*
X154767281Y-95386111D01*
X154896111Y-95257281D01*
X154993043Y-95103015D01*
X155053217Y-94931047D01*
X155073616Y-94750000D01*
X155053217Y-94568953D01*
X154993043Y-94396985D01*
X154993041Y-94396982D01*
X154993041Y-94396981D01*
X154896116Y-94242725D01*
X154895992Y-94242570D01*
X154895943Y-94242450D01*
X154892347Y-94236727D01*
X154893349Y-94236097D01*
X154869155Y-94176841D01*
X154868500Y-94164006D01*
X154868500Y-89004237D01*
X154888502Y-88936116D01*
X154905400Y-88915147D01*
X158753252Y-85067294D01*
X158753257Y-85067291D01*
X158763626Y-85056921D01*
X158763628Y-85056921D01*
X158844510Y-84976038D01*
X158906820Y-84942015D01*
X158977636Y-84947079D01*
X159034472Y-84989625D01*
X159044724Y-85005736D01*
X159107405Y-85123004D01*
X159233432Y-85276568D01*
X159386996Y-85402595D01*
X159562196Y-85496241D01*
X159752299Y-85553908D01*
X159752303Y-85553908D01*
X159752305Y-85553909D01*
X159949997Y-85573380D01*
X159950000Y-85573380D01*
X159950003Y-85573380D01*
X160147694Y-85553909D01*
X160147695Y-85553908D01*
X160147701Y-85553908D01*
X160337804Y-85496241D01*
X160513004Y-85402595D01*
X160666568Y-85276568D01*
X160792595Y-85123004D01*
X160886241Y-84947804D01*
X160943908Y-84757701D01*
X160962753Y-84566372D01*
X160963380Y-84560003D01*
X160963380Y-84559996D01*
X160943909Y-84362305D01*
X160943908Y-84362303D01*
X160943908Y-84362299D01*
X160886241Y-84172196D01*
X160792595Y-83996996D01*
X160666568Y-83843432D01*
X160513004Y-83717405D01*
X160337804Y-83623759D01*
X160147701Y-83566092D01*
X160147700Y-83566091D01*
X160147694Y-83566090D01*
X159950003Y-83546620D01*
X159949997Y-83546620D01*
X159752305Y-83566090D01*
X159562195Y-83623759D01*
X159386995Y-83717405D01*
X159233432Y-83843432D01*
X159221899Y-83857485D01*
X159163222Y-83897453D01*
X159092251Y-83899354D01*
X159031519Y-83862583D01*
X159000307Y-83798815D01*
X158998500Y-83777551D01*
X158998500Y-81544239D01*
X159018502Y-81476118D01*
X159035405Y-81455144D01*
X159149405Y-81341144D01*
X159211717Y-81307118D01*
X159282532Y-81312183D01*
X159339368Y-81354730D01*
X159364179Y-81421250D01*
X159364500Y-81430239D01*
X159364500Y-81464448D01*
X159364499Y-81464448D01*
X159403037Y-81608272D01*
X159403040Y-81608279D01*
X159477484Y-81737221D01*
X159477492Y-81737231D01*
X159582768Y-81842507D01*
X159582773Y-81842511D01*
X159582775Y-81842513D01*
X159582776Y-81842514D01*
X159582778Y-81842515D01*
X159651912Y-81882429D01*
X159711725Y-81916962D01*
X159855550Y-81955500D01*
X159855552Y-81955500D01*
X160004448Y-81955500D01*
X160004450Y-81955500D01*
X160148275Y-81916962D01*
X160277225Y-81842513D01*
X160382513Y-81737225D01*
X160456962Y-81608275D01*
X160495500Y-81464450D01*
X160495500Y-81315550D01*
X160456962Y-81171725D01*
X160434249Y-81132384D01*
X160382515Y-81042778D01*
X160382507Y-81042768D01*
X160313334Y-80973595D01*
X160279308Y-80911283D01*
X160284373Y-80840468D01*
X160326920Y-80783632D01*
X160393440Y-80758821D01*
X160402429Y-80758500D01*
X161997571Y-80758500D01*
X162065692Y-80778502D01*
X162112185Y-80832158D01*
X162122289Y-80902432D01*
X162092795Y-80967012D01*
X162086666Y-80973595D01*
X162017492Y-81042768D01*
X162017484Y-81042778D01*
X161943040Y-81171720D01*
X161943037Y-81171727D01*
X161936433Y-81196374D01*
X161906760Y-81307118D01*
X161904500Y-81315551D01*
X161904500Y-81464448D01*
X161904499Y-81464448D01*
X161943037Y-81608272D01*
X161943040Y-81608279D01*
X162017484Y-81737221D01*
X162017492Y-81737231D01*
X162122768Y-81842507D01*
X162122773Y-81842511D01*
X162122775Y-81842513D01*
X162122776Y-81842514D01*
X162122778Y-81842515D01*
X162191912Y-81882429D01*
X162251725Y-81916962D01*
X162395550Y-81955500D01*
X162395552Y-81955500D01*
X162544448Y-81955500D01*
X162544450Y-81955500D01*
X162688275Y-81916962D01*
X162817225Y-81842513D01*
X162866404Y-81793334D01*
X162916405Y-81743334D01*
X162978717Y-81709308D01*
X163049532Y-81714373D01*
X163106368Y-81756920D01*
X163131179Y-81823440D01*
X163131500Y-81832429D01*
X163131500Y-85442810D01*
X163111498Y-85510931D01*
X163057842Y-85557424D01*
X162987568Y-85567528D01*
X162938464Y-85549498D01*
X162853704Y-85496240D01*
X162823015Y-85476957D01*
X162823014Y-85476956D01*
X162823013Y-85476956D01*
X162651050Y-85416784D01*
X162651049Y-85416783D01*
X162651047Y-85416783D01*
X162470000Y-85396384D01*
X162288953Y-85416783D01*
X162288950Y-85416783D01*
X162288949Y-85416784D01*
X162116984Y-85476957D01*
X162116981Y-85476958D01*
X161962720Y-85573887D01*
X161962718Y-85573888D01*
X161833888Y-85702718D01*
X161833887Y-85702720D01*
X161736958Y-85856981D01*
X161736957Y-85856984D01*
X161735535Y-85861050D01*
X161676783Y-86028953D01*
X161656384Y-86210000D01*
X161676783Y-86391047D01*
X161676783Y-86391049D01*
X161676784Y-86391050D01*
X161736957Y-86563015D01*
X161736958Y-86563018D01*
X161833883Y-86717273D01*
X161834001Y-86717421D01*
X161834047Y-86717534D01*
X161837653Y-86723273D01*
X161836648Y-86723904D01*
X161860844Y-86783148D01*
X161861500Y-86795993D01*
X161861500Y-87030074D01*
X161841498Y-87098195D01*
X161824595Y-87119169D01*
X158963083Y-89980680D01*
X158963075Y-89980690D01*
X158882970Y-90119436D01*
X158882968Y-90119441D01*
X158862234Y-90196822D01*
X158862234Y-90196823D01*
X158862233Y-90196822D01*
X158841500Y-90274202D01*
X158841500Y-97554006D01*
X158821498Y-97622127D01*
X158814008Y-97632570D01*
X158813883Y-97632725D01*
X158716958Y-97786981D01*
X158716957Y-97786984D01*
X158664454Y-97937031D01*
X158656783Y-97958953D01*
X158636384Y-98140000D01*
X158656783Y-98321047D01*
X158656783Y-98321049D01*
X158656784Y-98321050D01*
X158716957Y-98493015D01*
X158716958Y-98493018D01*
X158813887Y-98647279D01*
X158813888Y-98647281D01*
X158942718Y-98776111D01*
X158942720Y-98776112D01*
X159096981Y-98873041D01*
X159096982Y-98873041D01*
X159096985Y-98873043D01*
X159268953Y-98933217D01*
X159450000Y-98953616D01*
X159631047Y-98933217D01*
X159803015Y-98873043D01*
X159957281Y-98776111D01*
X160086111Y-98647281D01*
X160159403Y-98530636D01*
X160212581Y-98483600D01*
X160282748Y-98472779D01*
X160347626Y-98501611D01*
X160355185Y-98508578D01*
X160472718Y-98626111D01*
X160472720Y-98626112D01*
X160626981Y-98723041D01*
X160626982Y-98723041D01*
X160626985Y-98723043D01*
X160798953Y-98783217D01*
X160980000Y-98803616D01*
X161161047Y-98783217D01*
X161284555Y-98740000D01*
X187117028Y-98740000D01*
X187136886Y-98992323D01*
X187195971Y-99238434D01*
X187292830Y-99472272D01*
X187424177Y-99686611D01*
X187424178Y-99686611D01*
X187974228Y-99136561D01*
X187976740Y-99142626D01*
X188069762Y-99281844D01*
X188188156Y-99400238D01*
X188327374Y-99493260D01*
X188333436Y-99495771D01*
X187783387Y-100045820D01*
X187783387Y-100045822D01*
X187997727Y-100177169D01*
X188231565Y-100274028D01*
X188477676Y-100333113D01*
X188730000Y-100352971D01*
X188982323Y-100333113D01*
X189228434Y-100274028D01*
X189462277Y-100177167D01*
X189676611Y-100045822D01*
X189676611Y-100045820D01*
X189126562Y-99495771D01*
X189132626Y-99493260D01*
X189271844Y-99400238D01*
X189390238Y-99281844D01*
X189483260Y-99142626D01*
X189485771Y-99136562D01*
X190035820Y-99686611D01*
X190035822Y-99686611D01*
X190167167Y-99472277D01*
X190264028Y-99238434D01*
X190323113Y-98992323D01*
X190342971Y-98740000D01*
X192197028Y-98740000D01*
X192216886Y-98992323D01*
X192275971Y-99238434D01*
X192372830Y-99472272D01*
X192504177Y-99686611D01*
X192504178Y-99686611D01*
X193054228Y-99136561D01*
X193056740Y-99142626D01*
X193149762Y-99281844D01*
X193268156Y-99400238D01*
X193407374Y-99493260D01*
X193413436Y-99495771D01*
X192863387Y-100045820D01*
X192863387Y-100045822D01*
X193077727Y-100177169D01*
X193311565Y-100274028D01*
X193557676Y-100333113D01*
X193810000Y-100352971D01*
X194062323Y-100333113D01*
X194308434Y-100274028D01*
X194542277Y-100177167D01*
X194756611Y-100045822D01*
X194756611Y-100045820D01*
X194206562Y-99495771D01*
X194212626Y-99493260D01*
X194351844Y-99400238D01*
X194470238Y-99281844D01*
X194563260Y-99142626D01*
X194565771Y-99136562D01*
X195115820Y-99686611D01*
X195115822Y-99686611D01*
X195247167Y-99472277D01*
X195344028Y-99238434D01*
X195403113Y-98992323D01*
X195422971Y-98740000D01*
X195403113Y-98487676D01*
X195344028Y-98241565D01*
X195247169Y-98007727D01*
X195115822Y-97793387D01*
X195115820Y-97793387D01*
X194565771Y-98343436D01*
X194563260Y-98337374D01*
X194470238Y-98198156D01*
X194351844Y-98079762D01*
X194212626Y-97986740D01*
X194206561Y-97984228D01*
X194756611Y-97434178D01*
X194756611Y-97434177D01*
X194542272Y-97302830D01*
X194308434Y-97205971D01*
X194062323Y-97146886D01*
X193810000Y-97127028D01*
X193557676Y-97146886D01*
X193311565Y-97205971D01*
X193077727Y-97302830D01*
X192863387Y-97434176D01*
X192863387Y-97434178D01*
X193413437Y-97984228D01*
X193407374Y-97986740D01*
X193268156Y-98079762D01*
X193149762Y-98198156D01*
X193056740Y-98337374D01*
X193054228Y-98343437D01*
X192504178Y-97793387D01*
X192504176Y-97793387D01*
X192372830Y-98007727D01*
X192275971Y-98241565D01*
X192216886Y-98487676D01*
X192197028Y-98740000D01*
X190342971Y-98740000D01*
X190323113Y-98487676D01*
X190264028Y-98241565D01*
X190167169Y-98007727D01*
X190035822Y-97793387D01*
X190035820Y-97793387D01*
X189485771Y-98343436D01*
X189483260Y-98337374D01*
X189390238Y-98198156D01*
X189271844Y-98079762D01*
X189132626Y-97986740D01*
X189126561Y-97984228D01*
X189676611Y-97434178D01*
X189676611Y-97434177D01*
X189462272Y-97302830D01*
X189228434Y-97205971D01*
X188982323Y-97146886D01*
X188730000Y-97127028D01*
X188477676Y-97146886D01*
X188231565Y-97205971D01*
X187997727Y-97302830D01*
X187783387Y-97434176D01*
X187783387Y-97434178D01*
X188333437Y-97984228D01*
X188327374Y-97986740D01*
X188188156Y-98079762D01*
X188069762Y-98198156D01*
X187976740Y-98337374D01*
X187974228Y-98343437D01*
X187424178Y-97793387D01*
X187424176Y-97793387D01*
X187292830Y-98007727D01*
X187195971Y-98241565D01*
X187136886Y-98487676D01*
X187117028Y-98740000D01*
X161284555Y-98740000D01*
X161333015Y-98723043D01*
X161487281Y-98626111D01*
X161616111Y-98497281D01*
X161713043Y-98343015D01*
X161773217Y-98171047D01*
X161782719Y-98086702D01*
X161810221Y-98021251D01*
X161818813Y-98011734D01*
X162663299Y-97167248D01*
X162725609Y-97133225D01*
X162796425Y-97138290D01*
X162853260Y-97180837D01*
X162878071Y-97247357D01*
X162877600Y-97270453D01*
X162866384Y-97370000D01*
X162886783Y-97551047D01*
X162886783Y-97551049D01*
X162886784Y-97551050D01*
X162946957Y-97723015D01*
X162946958Y-97723018D01*
X163043887Y-97877279D01*
X163043888Y-97877281D01*
X163172718Y-98006111D01*
X163172720Y-98006112D01*
X163326981Y-98103041D01*
X163326982Y-98103041D01*
X163326985Y-98103043D01*
X163498953Y-98163217D01*
X163680000Y-98183616D01*
X163861047Y-98163217D01*
X164033015Y-98103043D01*
X164070066Y-98079762D01*
X164187274Y-98006116D01*
X164187279Y-98006112D01*
X164187281Y-98006111D01*
X164187283Y-98006108D01*
X164187430Y-98005992D01*
X164187549Y-98005943D01*
X164193273Y-98002347D01*
X164193902Y-98003349D01*
X164253159Y-97979155D01*
X164265994Y-97978500D01*
X164550110Y-97978500D01*
X164550111Y-97978500D01*
X164632631Y-97956389D01*
X164704873Y-97937032D01*
X164843627Y-97856922D01*
X167891717Y-94808830D01*
X167954027Y-94774807D01*
X167966692Y-94772721D01*
X168051047Y-94763217D01*
X168223015Y-94703043D01*
X168377281Y-94606111D01*
X168506111Y-94477281D01*
X168603043Y-94323015D01*
X168663217Y-94151047D01*
X168683616Y-93970000D01*
X168663217Y-93788953D01*
X168603043Y-93616985D01*
X168603041Y-93616982D01*
X168603041Y-93616981D01*
X168506112Y-93462720D01*
X168506111Y-93462718D01*
X168377281Y-93333888D01*
X168377279Y-93333887D01*
X168223018Y-93236958D01*
X168223015Y-93236957D01*
X168051050Y-93176784D01*
X168051049Y-93176783D01*
X168051047Y-93176783D01*
X167870000Y-93156384D01*
X167688953Y-93176783D01*
X167688950Y-93176783D01*
X167688949Y-93176784D01*
X167516984Y-93236957D01*
X167516981Y-93236958D01*
X167362720Y-93333887D01*
X167362718Y-93333888D01*
X167233888Y-93462718D01*
X167233887Y-93462720D01*
X167136958Y-93616981D01*
X167136957Y-93616984D01*
X167076783Y-93788950D01*
X167076782Y-93788957D01*
X167067278Y-93873298D01*
X167039774Y-93938750D01*
X167031166Y-93948283D01*
X164294124Y-96685326D01*
X164231812Y-96719352D01*
X164160997Y-96714287D01*
X164137993Y-96702918D01*
X164033018Y-96636958D01*
X164033015Y-96636957D01*
X163861050Y-96576784D01*
X163861049Y-96576783D01*
X163861047Y-96576783D01*
X163680000Y-96556384D01*
X163679999Y-96556384D01*
X163580453Y-96567600D01*
X163510521Y-96555350D01*
X163458313Y-96507237D01*
X163440405Y-96438536D01*
X163462482Y-96371060D01*
X163477242Y-96353305D01*
X164316922Y-95513627D01*
X164397032Y-95374872D01*
X164438500Y-95220110D01*
X164438500Y-95059890D01*
X164438500Y-93484238D01*
X164458502Y-93416117D01*
X164475400Y-93395148D01*
X167823981Y-90046566D01*
X167886291Y-90012542D01*
X167954687Y-90016732D01*
X168058953Y-90053217D01*
X168240000Y-90073616D01*
X168421047Y-90053217D01*
X168593015Y-89993043D01*
X168656253Y-89953308D01*
X168658464Y-89951919D01*
X168726785Y-89932613D01*
X168794698Y-89953308D01*
X168840641Y-90007435D01*
X168851500Y-90058606D01*
X168851500Y-91788392D01*
X168832187Y-91855428D01*
X168736958Y-92006983D01*
X168736957Y-92006986D01*
X168685532Y-92153953D01*
X168676783Y-92178955D01*
X168656384Y-92360002D01*
X168676783Y-92541049D01*
X168676783Y-92541051D01*
X168676784Y-92541052D01*
X168736957Y-92713017D01*
X168736958Y-92713020D01*
X168833887Y-92867281D01*
X168833888Y-92867283D01*
X168962718Y-92996113D01*
X168962720Y-92996114D01*
X169116981Y-93093043D01*
X169116982Y-93093043D01*
X169116985Y-93093045D01*
X169288953Y-93153219D01*
X169470000Y-93173618D01*
X169651047Y-93153219D01*
X169823015Y-93093045D01*
X169908464Y-93039354D01*
X169976785Y-93020048D01*
X170044698Y-93040743D01*
X170090641Y-93094870D01*
X170101500Y-93146041D01*
X170101500Y-93752919D01*
X170081498Y-93821040D01*
X170064595Y-93842014D01*
X170053888Y-93852720D01*
X170053887Y-93852722D01*
X169956958Y-94006983D01*
X169956957Y-94006986D01*
X169897523Y-94176841D01*
X169896783Y-94178955D01*
X169876384Y-94360002D01*
X169896783Y-94541049D01*
X169896783Y-94541051D01*
X169896784Y-94541052D01*
X169956957Y-94713017D01*
X169956958Y-94713020D01*
X170053887Y-94867281D01*
X170053888Y-94867283D01*
X170182718Y-94996113D01*
X170182720Y-94996114D01*
X170336981Y-95093043D01*
X170336982Y-95093043D01*
X170336985Y-95093045D01*
X170508953Y-95153219D01*
X170690000Y-95173618D01*
X170871047Y-95153219D01*
X171043015Y-95093045D01*
X171197281Y-94996113D01*
X171326111Y-94867283D01*
X171423043Y-94713017D01*
X171483217Y-94541049D01*
X171503616Y-94360002D01*
X171483217Y-94178955D01*
X171423043Y-94006987D01*
X171423041Y-94006984D01*
X171423041Y-94006983D01*
X171337813Y-93871343D01*
X171318500Y-93804307D01*
X171318500Y-91919996D01*
X186796620Y-91919996D01*
X186796620Y-91919999D01*
X186816090Y-92117694D01*
X186816091Y-92117700D01*
X186816092Y-92117701D01*
X186873759Y-92307804D01*
X186967405Y-92483004D01*
X187093432Y-92636568D01*
X187246996Y-92762595D01*
X187422196Y-92856241D01*
X187612299Y-92913908D01*
X187612303Y-92913908D01*
X187612305Y-92913909D01*
X187809997Y-92933380D01*
X187810000Y-92933380D01*
X187810003Y-92933380D01*
X188007694Y-92913909D01*
X188007695Y-92913908D01*
X188007701Y-92913908D01*
X188197804Y-92856241D01*
X188373004Y-92762595D01*
X188526568Y-92636568D01*
X188652595Y-92483004D01*
X188746241Y-92307804D01*
X188803908Y-92117701D01*
X188814036Y-92014876D01*
X188823380Y-91919999D01*
X188823380Y-91919996D01*
X188803909Y-91722305D01*
X188803908Y-91722303D01*
X188803908Y-91722299D01*
X188746241Y-91532196D01*
X188652595Y-91356996D01*
X188526568Y-91203432D01*
X188373004Y-91077405D01*
X188197804Y-90983759D01*
X188007701Y-90926092D01*
X188007700Y-90926091D01*
X188007694Y-90926090D01*
X187810003Y-90906620D01*
X187809997Y-90906620D01*
X187612305Y-90926090D01*
X187422195Y-90983759D01*
X187246995Y-91077405D01*
X187093432Y-91203432D01*
X186967405Y-91356995D01*
X186873759Y-91532195D01*
X186816090Y-91722305D01*
X186796620Y-91919996D01*
X171318500Y-91919996D01*
X171318500Y-85065710D01*
X171338502Y-84997589D01*
X171355400Y-84976619D01*
X171916922Y-84415098D01*
X171997032Y-84276343D01*
X172009479Y-84229889D01*
X172038500Y-84121582D01*
X172038500Y-82015993D01*
X172058502Y-81947872D01*
X172065999Y-81937421D01*
X172066102Y-81937289D01*
X172066111Y-81937281D01*
X172103151Y-81878331D01*
X172156329Y-81831294D01*
X172226497Y-81820473D01*
X172274465Y-81840388D01*
X172275623Y-81838384D01*
X172282775Y-81842513D01*
X172411725Y-81916962D01*
X172555550Y-81955500D01*
X172555552Y-81955500D01*
X172704448Y-81955500D01*
X172704450Y-81955500D01*
X172848275Y-81916962D01*
X172977225Y-81842513D01*
X173082513Y-81737225D01*
X173156962Y-81608275D01*
X173195500Y-81464450D01*
X173195500Y-81315550D01*
X173156962Y-81171725D01*
X173134249Y-81132384D01*
X173082515Y-81042778D01*
X173082507Y-81042768D01*
X172977231Y-80937492D01*
X172977221Y-80937484D01*
X172848279Y-80863040D01*
X172848276Y-80863039D01*
X172848275Y-80863038D01*
X172848273Y-80863037D01*
X172848272Y-80863037D01*
X172809735Y-80852711D01*
X172704450Y-80824500D01*
X172555550Y-80824500D01*
X172495957Y-80840468D01*
X172411727Y-80863037D01*
X172411720Y-80863040D01*
X172282778Y-80937484D01*
X172282771Y-80937490D01*
X172267135Y-80953126D01*
X172204822Y-80987149D01*
X172134007Y-80982083D01*
X172077172Y-80939535D01*
X172071353Y-80931061D01*
X172066111Y-80922718D01*
X171937281Y-80793888D01*
X171937279Y-80793887D01*
X171853408Y-80741187D01*
X171806370Y-80688009D01*
X171795550Y-80617841D01*
X171824383Y-80552963D01*
X171883715Y-80513972D01*
X171920444Y-80508500D01*
X175105761Y-80508500D01*
X175173882Y-80528502D01*
X175194856Y-80545405D01*
X175258856Y-80609405D01*
X175292882Y-80671717D01*
X175287817Y-80742532D01*
X175245270Y-80799368D01*
X175178750Y-80824179D01*
X175169761Y-80824500D01*
X175095550Y-80824500D01*
X175035957Y-80840468D01*
X174951727Y-80863037D01*
X174951720Y-80863040D01*
X174822778Y-80937484D01*
X174822768Y-80937492D01*
X174717492Y-81042768D01*
X174717484Y-81042778D01*
X174643040Y-81171720D01*
X174643037Y-81171727D01*
X174636433Y-81196374D01*
X174606760Y-81307118D01*
X174604500Y-81315551D01*
X174604500Y-81464448D01*
X174604499Y-81464448D01*
X174643037Y-81608272D01*
X174643040Y-81608279D01*
X174717484Y-81737221D01*
X174717492Y-81737231D01*
X174822768Y-81842507D01*
X174822773Y-81842511D01*
X174822775Y-81842513D01*
X174822776Y-81842514D01*
X174822778Y-81842515D01*
X174891912Y-81882429D01*
X174951725Y-81916962D01*
X175095550Y-81955500D01*
X175095552Y-81955500D01*
X175244448Y-81955500D01*
X175244450Y-81955500D01*
X175388275Y-81916962D01*
X175517225Y-81842513D01*
X175561500Y-81798238D01*
X175606405Y-81753334D01*
X175668717Y-81719308D01*
X175739532Y-81724373D01*
X175796368Y-81766920D01*
X175821179Y-81833440D01*
X175821500Y-81842429D01*
X175821500Y-84790113D01*
X175828779Y-84817280D01*
X175828780Y-84817280D01*
X175828780Y-84817281D01*
X175862635Y-84943628D01*
X175862968Y-84944872D01*
X175862970Y-84944877D01*
X175943075Y-85083623D01*
X175943083Y-85083633D01*
X177026365Y-86166915D01*
X177026370Y-86166919D01*
X177026372Y-86166921D01*
X177026373Y-86166922D01*
X177026375Y-86166923D01*
X177061636Y-86187281D01*
X177165127Y-86247032D01*
X177165133Y-86247033D01*
X177165134Y-86247034D01*
X177199984Y-86256372D01*
X177199985Y-86256372D01*
X177319889Y-86288500D01*
X177319890Y-86288500D01*
X177480110Y-86288500D01*
X184874006Y-86288500D01*
X184942127Y-86308502D01*
X184952570Y-86315992D01*
X184952725Y-86316116D01*
X185106981Y-86413041D01*
X185106982Y-86413041D01*
X185106985Y-86413043D01*
X185278953Y-86473217D01*
X185460000Y-86493616D01*
X185641047Y-86473217D01*
X185813015Y-86413043D01*
X185967281Y-86316111D01*
X186096111Y-86187281D01*
X186193043Y-86033015D01*
X186253217Y-85861047D01*
X186273616Y-85680000D01*
X186253217Y-85498953D01*
X186193043Y-85326985D01*
X186193041Y-85326982D01*
X186193041Y-85326981D01*
X186096112Y-85172720D01*
X186096111Y-85172718D01*
X185967281Y-85043888D01*
X185967279Y-85043887D01*
X185813018Y-84946958D01*
X185813015Y-84946957D01*
X185641050Y-84886784D01*
X185641049Y-84886783D01*
X185641047Y-84886783D01*
X185460000Y-84866384D01*
X185278953Y-84886783D01*
X185278950Y-84886783D01*
X185278949Y-84886784D01*
X185106984Y-84946957D01*
X185106981Y-84946958D01*
X184952725Y-85043883D01*
X184952570Y-85044008D01*
X184952450Y-85044056D01*
X184946727Y-85047653D01*
X184946097Y-85046650D01*
X184886841Y-85070845D01*
X184874006Y-85071500D01*
X177704239Y-85071500D01*
X177636118Y-85051498D01*
X177615144Y-85034595D01*
X177075405Y-84494856D01*
X177041379Y-84432544D01*
X177038500Y-84405761D01*
X177038500Y-81822429D01*
X177058502Y-81754308D01*
X177112158Y-81707815D01*
X177182432Y-81697711D01*
X177247012Y-81727205D01*
X177253595Y-81733334D01*
X177362768Y-81842507D01*
X177362773Y-81842511D01*
X177362775Y-81842513D01*
X177362776Y-81842514D01*
X177362778Y-81842515D01*
X177431912Y-81882429D01*
X177491725Y-81916962D01*
X177635550Y-81955500D01*
X177635552Y-81955500D01*
X177784448Y-81955500D01*
X177784450Y-81955500D01*
X177928275Y-81916962D01*
X178057225Y-81842513D01*
X178162513Y-81737225D01*
X178236962Y-81608275D01*
X178275500Y-81464450D01*
X178275500Y-81464448D01*
X179684499Y-81464448D01*
X179723037Y-81608272D01*
X179723040Y-81608279D01*
X179797484Y-81737221D01*
X179797492Y-81737231D01*
X179902768Y-81842507D01*
X179902773Y-81842511D01*
X179902775Y-81842513D01*
X179902776Y-81842514D01*
X179902778Y-81842515D01*
X179971912Y-81882429D01*
X180031725Y-81916962D01*
X180175550Y-81955500D01*
X180175552Y-81955500D01*
X180324448Y-81955500D01*
X180324450Y-81955500D01*
X180468275Y-81916962D01*
X180597225Y-81842513D01*
X180702513Y-81737225D01*
X180776962Y-81608275D01*
X180815500Y-81464450D01*
X180815500Y-81464448D01*
X182224499Y-81464448D01*
X182263037Y-81608272D01*
X182263040Y-81608279D01*
X182337484Y-81737221D01*
X182337492Y-81737231D01*
X182442768Y-81842507D01*
X182442773Y-81842511D01*
X182442775Y-81842513D01*
X182442776Y-81842514D01*
X182442778Y-81842515D01*
X182511912Y-81882429D01*
X182571725Y-81916962D01*
X182715550Y-81955500D01*
X182715552Y-81955500D01*
X182864448Y-81955500D01*
X182864450Y-81955500D01*
X183008275Y-81916962D01*
X183137225Y-81842513D01*
X183242513Y-81737225D01*
X183316962Y-81608275D01*
X183355500Y-81464450D01*
X183355500Y-81464448D01*
X184764499Y-81464448D01*
X184803037Y-81608272D01*
X184803040Y-81608279D01*
X184877484Y-81737221D01*
X184877492Y-81737231D01*
X184982768Y-81842507D01*
X184982773Y-81842511D01*
X184982775Y-81842513D01*
X184982776Y-81842514D01*
X184982778Y-81842515D01*
X185051912Y-81882429D01*
X185111725Y-81916962D01*
X185255550Y-81955500D01*
X185255552Y-81955500D01*
X185404448Y-81955500D01*
X185404450Y-81955500D01*
X185548275Y-81916962D01*
X185677225Y-81842513D01*
X185782513Y-81737225D01*
X185856962Y-81608275D01*
X185895500Y-81464450D01*
X185895500Y-81464448D01*
X187304499Y-81464448D01*
X187343037Y-81608272D01*
X187343040Y-81608279D01*
X187417484Y-81737221D01*
X187417492Y-81737231D01*
X187522768Y-81842507D01*
X187522773Y-81842511D01*
X187522775Y-81842513D01*
X187522776Y-81842514D01*
X187522778Y-81842515D01*
X187591912Y-81882429D01*
X187651725Y-81916962D01*
X187795550Y-81955500D01*
X187795552Y-81955500D01*
X187944448Y-81955500D01*
X187944450Y-81955500D01*
X188088275Y-81916962D01*
X188217225Y-81842513D01*
X188322513Y-81737225D01*
X188396962Y-81608275D01*
X188435500Y-81464450D01*
X188435500Y-81315550D01*
X188396962Y-81171725D01*
X188374249Y-81132384D01*
X188322515Y-81042778D01*
X188322507Y-81042768D01*
X188217231Y-80937492D01*
X188217221Y-80937484D01*
X188088279Y-80863040D01*
X188088276Y-80863039D01*
X188088275Y-80863038D01*
X188088273Y-80863037D01*
X188088272Y-80863037D01*
X188049735Y-80852711D01*
X187944450Y-80824500D01*
X187795550Y-80824500D01*
X187735957Y-80840468D01*
X187651727Y-80863037D01*
X187651720Y-80863040D01*
X187522778Y-80937484D01*
X187522768Y-80937492D01*
X187417492Y-81042768D01*
X187417484Y-81042778D01*
X187343040Y-81171720D01*
X187343037Y-81171727D01*
X187336433Y-81196374D01*
X187306760Y-81307118D01*
X187304500Y-81315551D01*
X187304500Y-81464448D01*
X187304499Y-81464448D01*
X185895500Y-81464448D01*
X185895500Y-81315550D01*
X185856962Y-81171725D01*
X185834249Y-81132384D01*
X185782515Y-81042778D01*
X185782507Y-81042768D01*
X185677231Y-80937492D01*
X185677221Y-80937484D01*
X185548279Y-80863040D01*
X185548276Y-80863039D01*
X185548275Y-80863038D01*
X185548273Y-80863037D01*
X185548272Y-80863037D01*
X185509735Y-80852711D01*
X185404450Y-80824500D01*
X185255550Y-80824500D01*
X185195957Y-80840468D01*
X185111727Y-80863037D01*
X185111720Y-80863040D01*
X184982778Y-80937484D01*
X184982768Y-80937492D01*
X184877492Y-81042768D01*
X184877484Y-81042778D01*
X184803040Y-81171720D01*
X184803037Y-81171727D01*
X184796433Y-81196374D01*
X184766760Y-81307118D01*
X184764500Y-81315551D01*
X184764500Y-81464448D01*
X184764499Y-81464448D01*
X183355500Y-81464448D01*
X183355500Y-81315550D01*
X183316962Y-81171725D01*
X183294249Y-81132384D01*
X183242515Y-81042778D01*
X183242507Y-81042768D01*
X183137231Y-80937492D01*
X183137221Y-80937484D01*
X183008279Y-80863040D01*
X183008276Y-80863039D01*
X183008275Y-80863038D01*
X183008273Y-80863037D01*
X183008272Y-80863037D01*
X182969735Y-80852711D01*
X182864450Y-80824500D01*
X182715550Y-80824500D01*
X182655957Y-80840468D01*
X182571727Y-80863037D01*
X182571720Y-80863040D01*
X182442778Y-80937484D01*
X182442768Y-80937492D01*
X182337492Y-81042768D01*
X182337484Y-81042778D01*
X182263040Y-81171720D01*
X182263037Y-81171727D01*
X182256433Y-81196374D01*
X182226760Y-81307118D01*
X182224500Y-81315551D01*
X182224500Y-81464448D01*
X182224499Y-81464448D01*
X180815500Y-81464448D01*
X180815500Y-81315550D01*
X180776962Y-81171725D01*
X180754249Y-81132384D01*
X180702515Y-81042778D01*
X180702507Y-81042768D01*
X180597231Y-80937492D01*
X180597221Y-80937484D01*
X180468279Y-80863040D01*
X180468276Y-80863039D01*
X180468275Y-80863038D01*
X180468273Y-80863037D01*
X180468272Y-80863037D01*
X180429735Y-80852711D01*
X180324450Y-80824500D01*
X180175550Y-80824500D01*
X180115957Y-80840468D01*
X180031727Y-80863037D01*
X180031720Y-80863040D01*
X179902778Y-80937484D01*
X179902768Y-80937492D01*
X179797492Y-81042768D01*
X179797484Y-81042778D01*
X179723040Y-81171720D01*
X179723037Y-81171727D01*
X179716433Y-81196374D01*
X179686760Y-81307118D01*
X179684500Y-81315551D01*
X179684500Y-81464448D01*
X179684499Y-81464448D01*
X178275500Y-81464448D01*
X178275500Y-81315550D01*
X178236962Y-81171725D01*
X178214249Y-81132384D01*
X178162515Y-81042778D01*
X178162507Y-81042768D01*
X178057231Y-80937492D01*
X178057221Y-80937484D01*
X177928279Y-80863040D01*
X177928276Y-80863039D01*
X177928275Y-80863038D01*
X177928273Y-80863037D01*
X177928272Y-80863037D01*
X177889735Y-80852711D01*
X177784450Y-80824500D01*
X177635550Y-80824500D01*
X177575957Y-80840468D01*
X177491727Y-80863037D01*
X177491720Y-80863040D01*
X177362778Y-80937484D01*
X177362768Y-80937492D01*
X177253595Y-81046666D01*
X177191283Y-81080692D01*
X177120468Y-81075627D01*
X177063632Y-81033080D01*
X177038821Y-80966560D01*
X177038500Y-80957571D01*
X177038500Y-80839890D01*
X177036428Y-80832158D01*
X176997032Y-80685128D01*
X176997030Y-80685124D01*
X176988235Y-80669890D01*
X176916924Y-80546376D01*
X176916916Y-80546366D01*
X176394961Y-80024411D01*
X185629500Y-80024411D01*
X185629500Y-80215588D01*
X185666796Y-80403084D01*
X185666797Y-80403087D01*
X185725747Y-80545405D01*
X185739954Y-80579704D01*
X185846163Y-80738658D01*
X185981342Y-80873837D01*
X186140296Y-80980046D01*
X186316916Y-81053204D01*
X186504414Y-81090500D01*
X186504415Y-81090500D01*
X186695585Y-81090500D01*
X186695586Y-81090500D01*
X186883084Y-81053204D01*
X187059704Y-80980046D01*
X187218658Y-80873837D01*
X187353837Y-80738658D01*
X187460046Y-80579704D01*
X187533204Y-80403084D01*
X187570500Y-80215586D01*
X187570500Y-80024414D01*
X187533204Y-79836916D01*
X187460046Y-79660296D01*
X187353837Y-79501342D01*
X187218658Y-79366163D01*
X187059704Y-79259954D01*
X186958036Y-79217842D01*
X186883087Y-79186797D01*
X186883084Y-79186796D01*
X186695588Y-79149500D01*
X186695586Y-79149500D01*
X186504414Y-79149500D01*
X186504411Y-79149500D01*
X186316915Y-79186796D01*
X186316912Y-79186797D01*
X186140295Y-79259954D01*
X185981343Y-79366162D01*
X185981337Y-79366167D01*
X185846167Y-79501337D01*
X185846162Y-79501343D01*
X185739954Y-79660295D01*
X185666797Y-79836912D01*
X185666796Y-79836915D01*
X185629500Y-80024411D01*
X176394961Y-80024411D01*
X175783633Y-79413083D01*
X175783623Y-79413075D01*
X175678443Y-79352350D01*
X175629450Y-79300968D01*
X175616014Y-79231254D01*
X175632324Y-79180231D01*
X175637368Y-79171495D01*
X175696962Y-79068275D01*
X175735500Y-78924450D01*
X175735500Y-78924448D01*
X177144499Y-78924448D01*
X177183037Y-79068272D01*
X177183040Y-79068279D01*
X177257484Y-79197221D01*
X177257492Y-79197231D01*
X177362768Y-79302507D01*
X177362773Y-79302511D01*
X177362775Y-79302513D01*
X177491725Y-79376962D01*
X177635550Y-79415500D01*
X177635552Y-79415500D01*
X177784448Y-79415500D01*
X177784450Y-79415500D01*
X177928275Y-79376962D01*
X178057225Y-79302513D01*
X178162513Y-79197225D01*
X178236962Y-79068275D01*
X178275500Y-78924450D01*
X178275500Y-78924448D01*
X179684499Y-78924448D01*
X179723037Y-79068272D01*
X179723040Y-79068279D01*
X179797484Y-79197221D01*
X179797492Y-79197231D01*
X179902768Y-79302507D01*
X179902773Y-79302511D01*
X179902775Y-79302513D01*
X180031725Y-79376962D01*
X180175550Y-79415500D01*
X180175552Y-79415500D01*
X180324448Y-79415500D01*
X180324450Y-79415500D01*
X180468275Y-79376962D01*
X180597225Y-79302513D01*
X180702513Y-79197225D01*
X180776962Y-79068275D01*
X180815500Y-78924450D01*
X180815500Y-78924448D01*
X182224499Y-78924448D01*
X182263037Y-79068272D01*
X182263040Y-79068279D01*
X182337484Y-79197221D01*
X182337492Y-79197231D01*
X182442768Y-79302507D01*
X182442773Y-79302511D01*
X182442775Y-79302513D01*
X182571725Y-79376962D01*
X182715550Y-79415500D01*
X182715552Y-79415500D01*
X182864448Y-79415500D01*
X182864450Y-79415500D01*
X183008275Y-79376962D01*
X183137225Y-79302513D01*
X183242513Y-79197225D01*
X183316962Y-79068275D01*
X183355500Y-78924450D01*
X183355500Y-78924448D01*
X184764499Y-78924448D01*
X184803037Y-79068272D01*
X184803040Y-79068279D01*
X184877484Y-79197221D01*
X184877492Y-79197231D01*
X184982768Y-79302507D01*
X184982773Y-79302511D01*
X184982775Y-79302513D01*
X185111725Y-79376962D01*
X185255550Y-79415500D01*
X185255552Y-79415500D01*
X185404448Y-79415500D01*
X185404450Y-79415500D01*
X185548275Y-79376962D01*
X185677225Y-79302513D01*
X185782513Y-79197225D01*
X185856962Y-79068275D01*
X185895500Y-78924450D01*
X185895500Y-78924448D01*
X187304499Y-78924448D01*
X187343037Y-79068272D01*
X187343040Y-79068279D01*
X187417484Y-79197221D01*
X187417492Y-79197231D01*
X187522768Y-79302507D01*
X187522773Y-79302511D01*
X187522775Y-79302513D01*
X187651725Y-79376962D01*
X187795550Y-79415500D01*
X187795552Y-79415500D01*
X187944448Y-79415500D01*
X187944450Y-79415500D01*
X188088275Y-79376962D01*
X188217225Y-79302513D01*
X188322513Y-79197225D01*
X188396962Y-79068275D01*
X188435500Y-78924450D01*
X188435500Y-78775550D01*
X188396962Y-78631725D01*
X188374841Y-78593410D01*
X188322515Y-78502778D01*
X188322514Y-78502776D01*
X188322513Y-78502775D01*
X188322511Y-78502773D01*
X188322507Y-78502768D01*
X188217231Y-78397492D01*
X188217221Y-78397484D01*
X188088279Y-78323040D01*
X188088276Y-78323039D01*
X188088275Y-78323038D01*
X188088273Y-78323037D01*
X188088272Y-78323037D01*
X188049735Y-78312711D01*
X187944450Y-78284500D01*
X187795550Y-78284500D01*
X187718476Y-78305152D01*
X187651727Y-78323037D01*
X187651720Y-78323040D01*
X187522778Y-78397484D01*
X187522768Y-78397492D01*
X187417492Y-78502768D01*
X187417484Y-78502778D01*
X187343040Y-78631720D01*
X187343037Y-78631727D01*
X187304500Y-78775551D01*
X187304500Y-78924448D01*
X187304499Y-78924448D01*
X185895500Y-78924448D01*
X185895500Y-78775550D01*
X185856962Y-78631725D01*
X185834841Y-78593410D01*
X185782515Y-78502778D01*
X185782514Y-78502776D01*
X185782513Y-78502775D01*
X185782511Y-78502773D01*
X185782507Y-78502768D01*
X185677231Y-78397492D01*
X185677221Y-78397484D01*
X185548279Y-78323040D01*
X185548276Y-78323039D01*
X185548275Y-78323038D01*
X185548273Y-78323037D01*
X185548272Y-78323037D01*
X185509735Y-78312711D01*
X185404450Y-78284500D01*
X185255550Y-78284500D01*
X185178476Y-78305152D01*
X185111727Y-78323037D01*
X185111720Y-78323040D01*
X184982778Y-78397484D01*
X184982768Y-78397492D01*
X184877492Y-78502768D01*
X184877484Y-78502778D01*
X184803040Y-78631720D01*
X184803037Y-78631727D01*
X184764500Y-78775551D01*
X184764500Y-78924448D01*
X184764499Y-78924448D01*
X183355500Y-78924448D01*
X183355500Y-78775550D01*
X183316962Y-78631725D01*
X183294841Y-78593410D01*
X183242515Y-78502778D01*
X183242514Y-78502776D01*
X183242513Y-78502775D01*
X183242511Y-78502773D01*
X183242507Y-78502768D01*
X183137231Y-78397492D01*
X183137221Y-78397484D01*
X183008279Y-78323040D01*
X183008276Y-78323039D01*
X183008275Y-78323038D01*
X183008273Y-78323037D01*
X183008272Y-78323037D01*
X182969735Y-78312711D01*
X182864450Y-78284500D01*
X182715550Y-78284500D01*
X182638476Y-78305152D01*
X182571727Y-78323037D01*
X182571720Y-78323040D01*
X182442778Y-78397484D01*
X182442768Y-78397492D01*
X182337492Y-78502768D01*
X182337484Y-78502778D01*
X182263040Y-78631720D01*
X182263037Y-78631727D01*
X182224500Y-78775551D01*
X182224500Y-78924448D01*
X182224499Y-78924448D01*
X180815500Y-78924448D01*
X180815500Y-78775550D01*
X180776962Y-78631725D01*
X180754841Y-78593410D01*
X180702515Y-78502778D01*
X180702514Y-78502776D01*
X180702513Y-78502775D01*
X180702511Y-78502773D01*
X180702507Y-78502768D01*
X180597231Y-78397492D01*
X180597221Y-78397484D01*
X180468279Y-78323040D01*
X180468276Y-78323039D01*
X180468275Y-78323038D01*
X180468273Y-78323037D01*
X180468272Y-78323037D01*
X180429735Y-78312711D01*
X180324450Y-78284500D01*
X180175550Y-78284500D01*
X180098476Y-78305152D01*
X180031727Y-78323037D01*
X180031720Y-78323040D01*
X179902778Y-78397484D01*
X179902768Y-78397492D01*
X179797492Y-78502768D01*
X179797484Y-78502778D01*
X179723040Y-78631720D01*
X179723037Y-78631727D01*
X179684500Y-78775551D01*
X179684500Y-78924448D01*
X179684499Y-78924448D01*
X178275500Y-78924448D01*
X178275500Y-78775550D01*
X178236962Y-78631725D01*
X178214841Y-78593410D01*
X178162515Y-78502778D01*
X178162514Y-78502776D01*
X178162513Y-78502775D01*
X178162511Y-78502773D01*
X178162507Y-78502768D01*
X178057231Y-78397492D01*
X178057221Y-78397484D01*
X177928279Y-78323040D01*
X177928276Y-78323039D01*
X177928275Y-78323038D01*
X177928273Y-78323037D01*
X177928272Y-78323037D01*
X177889735Y-78312711D01*
X177784450Y-78284500D01*
X177635550Y-78284500D01*
X177558476Y-78305152D01*
X177491727Y-78323037D01*
X177491720Y-78323040D01*
X177362778Y-78397484D01*
X177362768Y-78397492D01*
X177257492Y-78502768D01*
X177257484Y-78502778D01*
X177183040Y-78631720D01*
X177183037Y-78631727D01*
X177144500Y-78775551D01*
X177144500Y-78924448D01*
X177144499Y-78924448D01*
X175735500Y-78924448D01*
X175735500Y-78775550D01*
X175696962Y-78631725D01*
X175674841Y-78593410D01*
X175622515Y-78502778D01*
X175622514Y-78502776D01*
X175622513Y-78502775D01*
X175622511Y-78502773D01*
X175622507Y-78502768D01*
X175517231Y-78397492D01*
X175517221Y-78397484D01*
X175388279Y-78323040D01*
X175388276Y-78323039D01*
X175388275Y-78323038D01*
X175388273Y-78323037D01*
X175388272Y-78323037D01*
X175349735Y-78312711D01*
X175244450Y-78284500D01*
X175095550Y-78284500D01*
X175018476Y-78305152D01*
X174951727Y-78323037D01*
X174951720Y-78323040D01*
X174822778Y-78397484D01*
X174822768Y-78397492D01*
X174717492Y-78502768D01*
X174717484Y-78502778D01*
X174643040Y-78631720D01*
X174643037Y-78631727D01*
X174604500Y-78775551D01*
X174604500Y-78924448D01*
X174604499Y-78924448D01*
X174643037Y-79068272D01*
X174643040Y-79068279D01*
X174662798Y-79102500D01*
X174679536Y-79171495D01*
X174656316Y-79238587D01*
X174600508Y-79282474D01*
X174553679Y-79291500D01*
X173246321Y-79291500D01*
X173178200Y-79271498D01*
X173131707Y-79217842D01*
X173121603Y-79147568D01*
X173137202Y-79102500D01*
X173156962Y-79068275D01*
X173195500Y-78924450D01*
X173195500Y-78775550D01*
X173156962Y-78631725D01*
X173134841Y-78593410D01*
X173082515Y-78502778D01*
X173082514Y-78502776D01*
X173082513Y-78502775D01*
X173082511Y-78502773D01*
X173082507Y-78502768D01*
X172977231Y-78397492D01*
X172977221Y-78397484D01*
X172848279Y-78323040D01*
X172848276Y-78323039D01*
X172848275Y-78323038D01*
X172848273Y-78323037D01*
X172848272Y-78323037D01*
X172809735Y-78312711D01*
X172704450Y-78284500D01*
X172555550Y-78284500D01*
X172478476Y-78305152D01*
X172411727Y-78323037D01*
X172411720Y-78323040D01*
X172282778Y-78397484D01*
X172282768Y-78397492D01*
X172177492Y-78502768D01*
X172177484Y-78502778D01*
X172103040Y-78631720D01*
X172103037Y-78631727D01*
X172064500Y-78775551D01*
X172064500Y-78924448D01*
X172064499Y-78924448D01*
X172103037Y-79068272D01*
X172103040Y-79068279D01*
X172122798Y-79102500D01*
X172139536Y-79171495D01*
X172116316Y-79238587D01*
X172060508Y-79282474D01*
X172013679Y-79291500D01*
X170706321Y-79291500D01*
X170638200Y-79271498D01*
X170591707Y-79217842D01*
X170581603Y-79147568D01*
X170597202Y-79102500D01*
X170616962Y-79068275D01*
X170655500Y-78924450D01*
X170655500Y-78775550D01*
X170616962Y-78631725D01*
X170594841Y-78593410D01*
X170542515Y-78502778D01*
X170542514Y-78502776D01*
X170542513Y-78502775D01*
X170542511Y-78502773D01*
X170542507Y-78502768D01*
X170437231Y-78397492D01*
X170437221Y-78397484D01*
X170308279Y-78323040D01*
X170308276Y-78323039D01*
X170308275Y-78323038D01*
X170308273Y-78323037D01*
X170308272Y-78323037D01*
X170269735Y-78312711D01*
X170164450Y-78284500D01*
X170015550Y-78284500D01*
X169938476Y-78305152D01*
X169871727Y-78323037D01*
X169871720Y-78323040D01*
X169742778Y-78397484D01*
X169742768Y-78397492D01*
X169637492Y-78502768D01*
X169637484Y-78502778D01*
X169563040Y-78631720D01*
X169563037Y-78631727D01*
X169524500Y-78775551D01*
X169524500Y-78924448D01*
X169524499Y-78924448D01*
X169563037Y-79068272D01*
X169563040Y-79068279D01*
X169582798Y-79102500D01*
X169599536Y-79171495D01*
X169576316Y-79238587D01*
X169520508Y-79282474D01*
X169473679Y-79291500D01*
X168915710Y-79291500D01*
X168847589Y-79271498D01*
X168826619Y-79254599D01*
X168603627Y-79031607D01*
X168603625Y-79031606D01*
X168603623Y-79031604D01*
X168464877Y-78951499D01*
X168464874Y-78951498D01*
X168464873Y-78951497D01*
X168464871Y-78951496D01*
X168464870Y-78951496D01*
X168363931Y-78924450D01*
X168363931Y-78924449D01*
X168310111Y-78910029D01*
X168241500Y-78910029D01*
X168173379Y-78890027D01*
X168126886Y-78836371D01*
X168115500Y-78784029D01*
X168115500Y-78775551D01*
X168078124Y-78636063D01*
X168076962Y-78631725D01*
X168054841Y-78593410D01*
X168002515Y-78502778D01*
X168002514Y-78502776D01*
X168002513Y-78502775D01*
X168002511Y-78502773D01*
X168002507Y-78502768D01*
X167897231Y-78397492D01*
X167897221Y-78397484D01*
X167768279Y-78323040D01*
X167768276Y-78323039D01*
X167768275Y-78323038D01*
X167768273Y-78323037D01*
X167768272Y-78323037D01*
X167729735Y-78312711D01*
X167624450Y-78284500D01*
X167475550Y-78284500D01*
X167398476Y-78305152D01*
X167331727Y-78323037D01*
X167331720Y-78323040D01*
X167202778Y-78397484D01*
X167202768Y-78397492D01*
X167097492Y-78502768D01*
X167097484Y-78502778D01*
X167023040Y-78631720D01*
X167023037Y-78631727D01*
X166984500Y-78775551D01*
X166984500Y-78784029D01*
X166964498Y-78852150D01*
X166910842Y-78898643D01*
X166858500Y-78910029D01*
X165701500Y-78910029D01*
X165633379Y-78890027D01*
X165586886Y-78836371D01*
X165575500Y-78784029D01*
X165575500Y-78775551D01*
X165538124Y-78636063D01*
X165536962Y-78631725D01*
X165514841Y-78593410D01*
X165462515Y-78502778D01*
X165462514Y-78502776D01*
X165462513Y-78502775D01*
X165462511Y-78502773D01*
X165462507Y-78502768D01*
X165357231Y-78397492D01*
X165357221Y-78397484D01*
X165228279Y-78323040D01*
X165228276Y-78323039D01*
X165228275Y-78323038D01*
X165228273Y-78323037D01*
X165228272Y-78323037D01*
X165189735Y-78312711D01*
X165084450Y-78284500D01*
X164935550Y-78284500D01*
X164858476Y-78305152D01*
X164791727Y-78323037D01*
X164791720Y-78323040D01*
X164662778Y-78397484D01*
X164662768Y-78397492D01*
X164557492Y-78502768D01*
X164557484Y-78502778D01*
X164483040Y-78631720D01*
X164483037Y-78631727D01*
X164444500Y-78775551D01*
X164444500Y-78784029D01*
X164424498Y-78852150D01*
X164370842Y-78898643D01*
X164318500Y-78910029D01*
X163161500Y-78910029D01*
X163093379Y-78890027D01*
X163046886Y-78836371D01*
X163035500Y-78784029D01*
X163035500Y-78775551D01*
X162998124Y-78636063D01*
X162996962Y-78631725D01*
X162974841Y-78593410D01*
X162922515Y-78502778D01*
X162922514Y-78502776D01*
X162922513Y-78502775D01*
X162922511Y-78502773D01*
X162922507Y-78502768D01*
X162817231Y-78397492D01*
X162817221Y-78397484D01*
X162688279Y-78323040D01*
X162688276Y-78323039D01*
X162688275Y-78323038D01*
X162688273Y-78323037D01*
X162688272Y-78323037D01*
X162649735Y-78312711D01*
X162544450Y-78284500D01*
X162395550Y-78284500D01*
X162318476Y-78305152D01*
X162251727Y-78323037D01*
X162251720Y-78323040D01*
X162122778Y-78397484D01*
X162122772Y-78397489D01*
X162060996Y-78459265D01*
X161998683Y-78493290D01*
X161927868Y-78488224D01*
X161871032Y-78445677D01*
X161865213Y-78437204D01*
X161856110Y-78422717D01*
X161727281Y-78293888D01*
X161727279Y-78293887D01*
X161573018Y-78196958D01*
X161573015Y-78196957D01*
X161401050Y-78136784D01*
X161401049Y-78136783D01*
X161401047Y-78136783D01*
X161220000Y-78116384D01*
X161038953Y-78136783D01*
X161038950Y-78136783D01*
X161038949Y-78136784D01*
X160866984Y-78196957D01*
X160866981Y-78196958D01*
X160712720Y-78293887D01*
X160712718Y-78293888D01*
X160583889Y-78422717D01*
X160559350Y-78461771D01*
X160506171Y-78508808D01*
X160436003Y-78519628D01*
X160371125Y-78490794D01*
X160363568Y-78483829D01*
X160277231Y-78397492D01*
X160277221Y-78397484D01*
X160148279Y-78323040D01*
X160148276Y-78323039D01*
X160148275Y-78323038D01*
X160148273Y-78323037D01*
X160148272Y-78323037D01*
X160109735Y-78312711D01*
X160004450Y-78284500D01*
X159855550Y-78284500D01*
X159778476Y-78305152D01*
X159711727Y-78323037D01*
X159711720Y-78323040D01*
X159582778Y-78397484D01*
X159582768Y-78397492D01*
X159477492Y-78502768D01*
X159477484Y-78502778D01*
X159460280Y-78532578D01*
X159408897Y-78581571D01*
X159339184Y-78595007D01*
X159273273Y-78568621D01*
X159262066Y-78558673D01*
X159157281Y-78453888D01*
X159157279Y-78453887D01*
X159003018Y-78356958D01*
X159003015Y-78356957D01*
X158831050Y-78296784D01*
X158831049Y-78296783D01*
X158831047Y-78296783D01*
X158650000Y-78276384D01*
X158468953Y-78296783D01*
X158468950Y-78296783D01*
X158468949Y-78296784D01*
X158296984Y-78356957D01*
X158296981Y-78356958D01*
X158142721Y-78453886D01*
X158050613Y-78545994D01*
X157988301Y-78580019D01*
X157917485Y-78574953D01*
X157860649Y-78532406D01*
X157852398Y-78519897D01*
X157845996Y-78508808D01*
X157842513Y-78502775D01*
X157842510Y-78502772D01*
X157842507Y-78502768D01*
X157737231Y-78397492D01*
X157737221Y-78397484D01*
X157608279Y-78323040D01*
X157608276Y-78323039D01*
X157608275Y-78323038D01*
X157608273Y-78323037D01*
X157608272Y-78323037D01*
X157569735Y-78312711D01*
X157464450Y-78284500D01*
X157315550Y-78284500D01*
X157238476Y-78305152D01*
X157171727Y-78323037D01*
X157171720Y-78323040D01*
X157042778Y-78397484D01*
X157042768Y-78397492D01*
X156937492Y-78502768D01*
X156937484Y-78502778D01*
X156863040Y-78631720D01*
X156863037Y-78631727D01*
X156824500Y-78775551D01*
X156824500Y-78924448D01*
X156824499Y-78924448D01*
X156863037Y-79068272D01*
X156863040Y-79068279D01*
X156937484Y-79197221D01*
X156937492Y-79197231D01*
X157042768Y-79302507D01*
X157042773Y-79302511D01*
X157042775Y-79302513D01*
X157171725Y-79376962D01*
X157221790Y-79390377D01*
X157282411Y-79427328D01*
X157313433Y-79491189D01*
X157305004Y-79561683D01*
X157278272Y-79601178D01*
X155683083Y-81196366D01*
X155683077Y-81196374D01*
X155630602Y-81287263D01*
X155579219Y-81336256D01*
X155509505Y-81349691D01*
X155443594Y-81323304D01*
X155402413Y-81265472D01*
X155399785Y-81256902D01*
X155376962Y-81171725D01*
X155354249Y-81132384D01*
X155302515Y-81042778D01*
X155302507Y-81042768D01*
X155197231Y-80937492D01*
X155197221Y-80937484D01*
X155068279Y-80863040D01*
X155068276Y-80863039D01*
X155068275Y-80863038D01*
X155068273Y-80863037D01*
X155068272Y-80863037D01*
X155029735Y-80852711D01*
X154924450Y-80824500D01*
X154775550Y-80824500D01*
X154715957Y-80840468D01*
X154631727Y-80863037D01*
X154631720Y-80863040D01*
X154502778Y-80937484D01*
X154502768Y-80937492D01*
X154397492Y-81042768D01*
X154397484Y-81042778D01*
X154323040Y-81171720D01*
X154323037Y-81171727D01*
X154316433Y-81196374D01*
X154286760Y-81307118D01*
X154284500Y-81315551D01*
X154284500Y-81464448D01*
X154284499Y-81464448D01*
X154323037Y-81608272D01*
X154323040Y-81608279D01*
X154397484Y-81737221D01*
X154397492Y-81737231D01*
X154502768Y-81842507D01*
X154502773Y-81842511D01*
X154502775Y-81842513D01*
X154502776Y-81842514D01*
X154502778Y-81842515D01*
X154571912Y-81882429D01*
X154631725Y-81916962D01*
X154775550Y-81955500D01*
X154775552Y-81955500D01*
X154924448Y-81955500D01*
X154924450Y-81955500D01*
X155068275Y-81916962D01*
X155197225Y-81842513D01*
X155302513Y-81737225D01*
X155326381Y-81695883D01*
X155377763Y-81646891D01*
X155447476Y-81633454D01*
X155513387Y-81659841D01*
X155554570Y-81717673D01*
X155561500Y-81758884D01*
X155561500Y-81835760D01*
X155541498Y-81903881D01*
X155524595Y-81924855D01*
X143323083Y-94126366D01*
X143323075Y-94126376D01*
X143242970Y-94265122D01*
X143242965Y-94265134D01*
X143227456Y-94323013D01*
X143227457Y-94323014D01*
X143201500Y-94419888D01*
X143201500Y-97675760D01*
X143181498Y-97743881D01*
X143164595Y-97764855D01*
X143095583Y-97833866D01*
X143095575Y-97833876D01*
X143015470Y-97972622D01*
X143015467Y-97972630D01*
X143008278Y-97999458D01*
X142975670Y-98055936D01*
X142946388Y-98085219D01*
X142849458Y-98239482D01*
X142849457Y-98239484D01*
X142812526Y-98345029D01*
X142789283Y-98411453D01*
X142768884Y-98592500D01*
X131430500Y-98592500D01*
X131430500Y-95779996D01*
X138096620Y-95779996D01*
X138096620Y-95780003D01*
X138116090Y-95977694D01*
X138116091Y-95977700D01*
X138116092Y-95977701D01*
X138173759Y-96167804D01*
X138267405Y-96343004D01*
X138393432Y-96496568D01*
X138546996Y-96622595D01*
X138722196Y-96716241D01*
X138912299Y-96773908D01*
X138912303Y-96773908D01*
X138912305Y-96773909D01*
X139109997Y-96793380D01*
X139110000Y-96793380D01*
X139110003Y-96793380D01*
X139307694Y-96773909D01*
X139307695Y-96773908D01*
X139307701Y-96773908D01*
X139497804Y-96716241D01*
X139673004Y-96622595D01*
X139826568Y-96496568D01*
X139952595Y-96343004D01*
X140046241Y-96167804D01*
X140103908Y-95977701D01*
X140123380Y-95780000D01*
X140103908Y-95582299D01*
X140046241Y-95392196D01*
X139952595Y-95216996D01*
X139826568Y-95063432D01*
X139673004Y-94937405D01*
X139497804Y-94843759D01*
X139307701Y-94786092D01*
X139307700Y-94786091D01*
X139307694Y-94786090D01*
X139110003Y-94766620D01*
X139109997Y-94766620D01*
X138912305Y-94786090D01*
X138722195Y-94843759D01*
X138546995Y-94937405D01*
X138393432Y-95063432D01*
X138267405Y-95216995D01*
X138173759Y-95392195D01*
X138116090Y-95582305D01*
X138096620Y-95779996D01*
X131430500Y-95779996D01*
X131430500Y-92192273D01*
X131450502Y-92124152D01*
X131504158Y-92077659D01*
X131574432Y-92067555D01*
X131639012Y-92097049D01*
X131677396Y-92156775D01*
X131679019Y-92162859D01*
X131725971Y-92358434D01*
X131822830Y-92592272D01*
X131954177Y-92806611D01*
X131954178Y-92806611D01*
X132504228Y-92256561D01*
X132506740Y-92262626D01*
X132599762Y-92401844D01*
X132718156Y-92520238D01*
X132857374Y-92613260D01*
X132863436Y-92615771D01*
X132313387Y-93165820D01*
X132313387Y-93165822D01*
X132527727Y-93297169D01*
X132761565Y-93394028D01*
X133007676Y-93453113D01*
X133260000Y-93472971D01*
X133512323Y-93453113D01*
X133758434Y-93394028D01*
X133992277Y-93297167D01*
X134206611Y-93165822D01*
X134206611Y-93165820D01*
X133656562Y-92615771D01*
X133662626Y-92613260D01*
X133801844Y-92520238D01*
X133920238Y-92401844D01*
X134013260Y-92262626D01*
X134015771Y-92256562D01*
X134565820Y-92806611D01*
X134565822Y-92806611D01*
X134697167Y-92592277D01*
X134794028Y-92358434D01*
X134853113Y-92112323D01*
X134872971Y-91860000D01*
X136727028Y-91860000D01*
X136746886Y-92112323D01*
X136805971Y-92358434D01*
X136902830Y-92592272D01*
X137034177Y-92806611D01*
X137034178Y-92806611D01*
X137584228Y-92256561D01*
X137586740Y-92262626D01*
X137679762Y-92401844D01*
X137798156Y-92520238D01*
X137937374Y-92613260D01*
X137943436Y-92615771D01*
X137393387Y-93165820D01*
X137393387Y-93165822D01*
X137607727Y-93297169D01*
X137841565Y-93394028D01*
X138087676Y-93453113D01*
X138340000Y-93472971D01*
X138592323Y-93453113D01*
X138838434Y-93394028D01*
X139072277Y-93297167D01*
X139286611Y-93165822D01*
X139286611Y-93165820D01*
X138736562Y-92615771D01*
X138742626Y-92613260D01*
X138881844Y-92520238D01*
X139000238Y-92401844D01*
X139093260Y-92262626D01*
X139095771Y-92256562D01*
X139645820Y-92806611D01*
X139645822Y-92806611D01*
X139777167Y-92592277D01*
X139874028Y-92358434D01*
X139933113Y-92112323D01*
X139952971Y-91860000D01*
X139933113Y-91607676D01*
X139874028Y-91361565D01*
X139777169Y-91127727D01*
X139645822Y-90913387D01*
X139645820Y-90913387D01*
X139095771Y-91463436D01*
X139093260Y-91457374D01*
X139000238Y-91318156D01*
X138881844Y-91199762D01*
X138742626Y-91106740D01*
X138736561Y-91104228D01*
X139286611Y-90554178D01*
X139286611Y-90554177D01*
X139072272Y-90422830D01*
X138838434Y-90325971D01*
X138592323Y-90266886D01*
X138340000Y-90247028D01*
X138087676Y-90266886D01*
X137841565Y-90325971D01*
X137607727Y-90422830D01*
X137393387Y-90554176D01*
X137393387Y-90554178D01*
X137943437Y-91104228D01*
X137937374Y-91106740D01*
X137798156Y-91199762D01*
X137679762Y-91318156D01*
X137586740Y-91457374D01*
X137584228Y-91463437D01*
X137034178Y-90913387D01*
X137034176Y-90913387D01*
X136902830Y-91127727D01*
X136805971Y-91361565D01*
X136746886Y-91607676D01*
X136727028Y-91860000D01*
X134872971Y-91860000D01*
X134853113Y-91607676D01*
X134794028Y-91361565D01*
X134697169Y-91127727D01*
X134565822Y-90913387D01*
X134565820Y-90913387D01*
X134015771Y-91463436D01*
X134013260Y-91457374D01*
X133920238Y-91318156D01*
X133801844Y-91199762D01*
X133662626Y-91106740D01*
X133656561Y-91104228D01*
X134206611Y-90554178D01*
X134206611Y-90554177D01*
X133992272Y-90422830D01*
X133758434Y-90325971D01*
X133512323Y-90266886D01*
X133260000Y-90247028D01*
X133007676Y-90266886D01*
X132761565Y-90325971D01*
X132527727Y-90422830D01*
X132313387Y-90554176D01*
X132313387Y-90554178D01*
X132863437Y-91104228D01*
X132857374Y-91106740D01*
X132718156Y-91199762D01*
X132599762Y-91318156D01*
X132506740Y-91457374D01*
X132504228Y-91463437D01*
X131954178Y-90913387D01*
X131954176Y-90913387D01*
X131822830Y-91127727D01*
X131725971Y-91361565D01*
X131679019Y-91557140D01*
X131643667Y-91618709D01*
X131580640Y-91651392D01*
X131509949Y-91644812D01*
X131454038Y-91601057D01*
X131430657Y-91534021D01*
X131430500Y-91527726D01*
X131430500Y-89320000D01*
X134286835Y-89320000D01*
X134305465Y-89556710D01*
X134360894Y-89787592D01*
X134429536Y-89953308D01*
X134451760Y-90006963D01*
X134568106Y-90196822D01*
X134575825Y-90209417D01*
X134575826Y-90209419D01*
X134730030Y-90389969D01*
X134910580Y-90544173D01*
X134910584Y-90544176D01*
X135113037Y-90668240D01*
X135332406Y-90759105D01*
X135563289Y-90814535D01*
X135800000Y-90833165D01*
X136036711Y-90814535D01*
X136267594Y-90759105D01*
X136486963Y-90668240D01*
X136689416Y-90544176D01*
X136869969Y-90389969D01*
X137024176Y-90209416D01*
X137148240Y-90006963D01*
X137239105Y-89787594D01*
X137294535Y-89556711D01*
X137313165Y-89320000D01*
X137294535Y-89083289D01*
X137239105Y-88852406D01*
X137148240Y-88633037D01*
X137024176Y-88430584D01*
X137024173Y-88430580D01*
X136869969Y-88250030D01*
X136689419Y-88095826D01*
X136689417Y-88095825D01*
X136689416Y-88095824D01*
X136486963Y-87971760D01*
X136444664Y-87954239D01*
X136267592Y-87880894D01*
X136109651Y-87842976D01*
X136036711Y-87825465D01*
X135800000Y-87806835D01*
X135563289Y-87825465D01*
X135332407Y-87880894D01*
X135113038Y-87971759D01*
X134910582Y-88095825D01*
X134910580Y-88095826D01*
X134730030Y-88250030D01*
X134575826Y-88430580D01*
X134575825Y-88430582D01*
X134451759Y-88633038D01*
X134360894Y-88852407D01*
X134305465Y-89083289D01*
X134286835Y-89320000D01*
X131430500Y-89320000D01*
X131430500Y-87112273D01*
X131450502Y-87044152D01*
X131504158Y-86997659D01*
X131574432Y-86987555D01*
X131639012Y-87017049D01*
X131677396Y-87076775D01*
X131679019Y-87082859D01*
X131725971Y-87278434D01*
X131822830Y-87512272D01*
X131954177Y-87726611D01*
X131954178Y-87726611D01*
X132504228Y-87176561D01*
X132506740Y-87182626D01*
X132599762Y-87321844D01*
X132718156Y-87440238D01*
X132857374Y-87533260D01*
X132863436Y-87535771D01*
X132313387Y-88085820D01*
X132313387Y-88085822D01*
X132527727Y-88217169D01*
X132761565Y-88314028D01*
X133007676Y-88373113D01*
X133260000Y-88392971D01*
X133512323Y-88373113D01*
X133758434Y-88314028D01*
X133992277Y-88217167D01*
X134206611Y-88085822D01*
X134206611Y-88085820D01*
X133656562Y-87535771D01*
X133662626Y-87533260D01*
X133801844Y-87440238D01*
X133920238Y-87321844D01*
X134013260Y-87182626D01*
X134015771Y-87176562D01*
X134565820Y-87726611D01*
X134565822Y-87726611D01*
X134697167Y-87512277D01*
X134794028Y-87278434D01*
X134853113Y-87032323D01*
X134872971Y-86780000D01*
X136727028Y-86780000D01*
X136746886Y-87032323D01*
X136805971Y-87278434D01*
X136902830Y-87512272D01*
X137034177Y-87726611D01*
X137034178Y-87726611D01*
X137584228Y-87176561D01*
X137586740Y-87182626D01*
X137679762Y-87321844D01*
X137798156Y-87440238D01*
X137937374Y-87533260D01*
X137943436Y-87535771D01*
X137393387Y-88085820D01*
X137393387Y-88085822D01*
X137607727Y-88217169D01*
X137841565Y-88314028D01*
X138087676Y-88373113D01*
X138340000Y-88392971D01*
X138592323Y-88373113D01*
X138838434Y-88314028D01*
X139072277Y-88217167D01*
X139286611Y-88085822D01*
X139286611Y-88085820D01*
X138736562Y-87535771D01*
X138742626Y-87533260D01*
X138881844Y-87440238D01*
X139000238Y-87321844D01*
X139093260Y-87182626D01*
X139095771Y-87176562D01*
X139645820Y-87726611D01*
X139645822Y-87726611D01*
X139777167Y-87512277D01*
X139874028Y-87278434D01*
X139933113Y-87032323D01*
X139952971Y-86780000D01*
X139933113Y-86527676D01*
X139874028Y-86281565D01*
X139777169Y-86047727D01*
X139645822Y-85833387D01*
X139645820Y-85833387D01*
X139095771Y-86383436D01*
X139093260Y-86377374D01*
X139000238Y-86238156D01*
X138881844Y-86119762D01*
X138742626Y-86026740D01*
X138736561Y-86024228D01*
X139286611Y-85474178D01*
X139286611Y-85474177D01*
X139072272Y-85342830D01*
X138838434Y-85245971D01*
X138592323Y-85186886D01*
X138340000Y-85167028D01*
X138087676Y-85186886D01*
X137841565Y-85245971D01*
X137607727Y-85342830D01*
X137393387Y-85474176D01*
X137393387Y-85474178D01*
X137943437Y-86024228D01*
X137937374Y-86026740D01*
X137798156Y-86119762D01*
X137679762Y-86238156D01*
X137586740Y-86377374D01*
X137584228Y-86383437D01*
X137034178Y-85833387D01*
X137034176Y-85833387D01*
X136902830Y-86047727D01*
X136805971Y-86281565D01*
X136746886Y-86527676D01*
X136727028Y-86780000D01*
X134872971Y-86780000D01*
X134853113Y-86527676D01*
X134794028Y-86281565D01*
X134697169Y-86047727D01*
X134565822Y-85833387D01*
X134565820Y-85833387D01*
X134015771Y-86383436D01*
X134013260Y-86377374D01*
X133920238Y-86238156D01*
X133801844Y-86119762D01*
X133662626Y-86026740D01*
X133656561Y-86024228D01*
X134206611Y-85474178D01*
X134206611Y-85474177D01*
X133992272Y-85342830D01*
X133758434Y-85245971D01*
X133512323Y-85186886D01*
X133260000Y-85167028D01*
X133007676Y-85186886D01*
X132761565Y-85245971D01*
X132527727Y-85342830D01*
X132313387Y-85474176D01*
X132313387Y-85474178D01*
X132863437Y-86024228D01*
X132857374Y-86026740D01*
X132718156Y-86119762D01*
X132599762Y-86238156D01*
X132506740Y-86377374D01*
X132504228Y-86383437D01*
X131954178Y-85833387D01*
X131954176Y-85833387D01*
X131822830Y-86047727D01*
X131725971Y-86281565D01*
X131679019Y-86477140D01*
X131643667Y-86538709D01*
X131580640Y-86571392D01*
X131509949Y-86564812D01*
X131454038Y-86521057D01*
X131430657Y-86454021D01*
X131430500Y-86447726D01*
X131430500Y-81464448D01*
X139044499Y-81464448D01*
X139083037Y-81608272D01*
X139083040Y-81608279D01*
X139157484Y-81737221D01*
X139157492Y-81737231D01*
X139262768Y-81842507D01*
X139262773Y-81842511D01*
X139262775Y-81842513D01*
X139262776Y-81842514D01*
X139262778Y-81842515D01*
X139331912Y-81882429D01*
X139391725Y-81916962D01*
X139535550Y-81955500D01*
X139535552Y-81955500D01*
X139684448Y-81955500D01*
X139684450Y-81955500D01*
X139828275Y-81916962D01*
X139957225Y-81842513D01*
X140062513Y-81737225D01*
X140136962Y-81608275D01*
X140175500Y-81464450D01*
X140175500Y-81464448D01*
X141584499Y-81464448D01*
X141623037Y-81608272D01*
X141623040Y-81608279D01*
X141697484Y-81737221D01*
X141697492Y-81737231D01*
X141802768Y-81842507D01*
X141802773Y-81842511D01*
X141802775Y-81842513D01*
X141802776Y-81842514D01*
X141802778Y-81842515D01*
X141871912Y-81882429D01*
X141931725Y-81916962D01*
X142075550Y-81955500D01*
X142075552Y-81955500D01*
X142224448Y-81955500D01*
X142224450Y-81955500D01*
X142368275Y-81916962D01*
X142497225Y-81842513D01*
X142602513Y-81737225D01*
X142676962Y-81608275D01*
X142715500Y-81464450D01*
X142715500Y-81464448D01*
X144124499Y-81464448D01*
X144163037Y-81608272D01*
X144163040Y-81608279D01*
X144237484Y-81737221D01*
X144237492Y-81737231D01*
X144342768Y-81842507D01*
X144342773Y-81842511D01*
X144342775Y-81842513D01*
X144342776Y-81842514D01*
X144342778Y-81842515D01*
X144411912Y-81882429D01*
X144471725Y-81916962D01*
X144615550Y-81955500D01*
X144615552Y-81955500D01*
X144764448Y-81955500D01*
X144764450Y-81955500D01*
X144908275Y-81916962D01*
X145037225Y-81842513D01*
X145142513Y-81737225D01*
X145216962Y-81608275D01*
X145255500Y-81464450D01*
X145255500Y-81464448D01*
X146664499Y-81464448D01*
X146703037Y-81608272D01*
X146703040Y-81608279D01*
X146777484Y-81737221D01*
X146777492Y-81737231D01*
X146882768Y-81842507D01*
X146882773Y-81842511D01*
X146882775Y-81842513D01*
X146882776Y-81842514D01*
X146882778Y-81842515D01*
X146951912Y-81882429D01*
X147011725Y-81916962D01*
X147155550Y-81955500D01*
X147155552Y-81955500D01*
X147304448Y-81955500D01*
X147304450Y-81955500D01*
X147448275Y-81916962D01*
X147577225Y-81842513D01*
X147682513Y-81737225D01*
X147756962Y-81608275D01*
X147795500Y-81464450D01*
X147795500Y-81464448D01*
X149204499Y-81464448D01*
X149243037Y-81608272D01*
X149243040Y-81608279D01*
X149317484Y-81737221D01*
X149317492Y-81737231D01*
X149422768Y-81842507D01*
X149422773Y-81842511D01*
X149422775Y-81842513D01*
X149422776Y-81842514D01*
X149422778Y-81842515D01*
X149491912Y-81882429D01*
X149551725Y-81916962D01*
X149695550Y-81955500D01*
X149695552Y-81955500D01*
X149844448Y-81955500D01*
X149844450Y-81955500D01*
X149988275Y-81916962D01*
X150117225Y-81842513D01*
X150222513Y-81737225D01*
X150296962Y-81608275D01*
X150335500Y-81464450D01*
X150335500Y-81464448D01*
X151744499Y-81464448D01*
X151783037Y-81608272D01*
X151783040Y-81608279D01*
X151857484Y-81737221D01*
X151857492Y-81737231D01*
X151962768Y-81842507D01*
X151962773Y-81842511D01*
X151962775Y-81842513D01*
X151962776Y-81842514D01*
X151962778Y-81842515D01*
X152031912Y-81882429D01*
X152091725Y-81916962D01*
X152235550Y-81955500D01*
X152235552Y-81955500D01*
X152384448Y-81955500D01*
X152384450Y-81955500D01*
X152528275Y-81916962D01*
X152657225Y-81842513D01*
X152762513Y-81737225D01*
X152836962Y-81608275D01*
X152875500Y-81464450D01*
X152875500Y-81315550D01*
X152836962Y-81171725D01*
X152814249Y-81132384D01*
X152762515Y-81042778D01*
X152762507Y-81042768D01*
X152657231Y-80937492D01*
X152657221Y-80937484D01*
X152528279Y-80863040D01*
X152528276Y-80863039D01*
X152528275Y-80863038D01*
X152528273Y-80863037D01*
X152528272Y-80863037D01*
X152489735Y-80852711D01*
X152384450Y-80824500D01*
X152235550Y-80824500D01*
X152175957Y-80840468D01*
X152091727Y-80863037D01*
X152091720Y-80863040D01*
X151962778Y-80937484D01*
X151962768Y-80937492D01*
X151857492Y-81042768D01*
X151857484Y-81042778D01*
X151783040Y-81171720D01*
X151783037Y-81171727D01*
X151776433Y-81196374D01*
X151746760Y-81307118D01*
X151744500Y-81315551D01*
X151744500Y-81464448D01*
X151744499Y-81464448D01*
X150335500Y-81464448D01*
X150335500Y-81315550D01*
X150296962Y-81171725D01*
X150274249Y-81132384D01*
X150222515Y-81042778D01*
X150222507Y-81042768D01*
X150117231Y-80937492D01*
X150117221Y-80937484D01*
X149988279Y-80863040D01*
X149988276Y-80863039D01*
X149988275Y-80863038D01*
X149988273Y-80863037D01*
X149988272Y-80863037D01*
X149949735Y-80852711D01*
X149844450Y-80824500D01*
X149695550Y-80824500D01*
X149635957Y-80840468D01*
X149551727Y-80863037D01*
X149551720Y-80863040D01*
X149422778Y-80937484D01*
X149422768Y-80937492D01*
X149317492Y-81042768D01*
X149317484Y-81042778D01*
X149243040Y-81171720D01*
X149243037Y-81171727D01*
X149236433Y-81196374D01*
X149206760Y-81307118D01*
X149204500Y-81315551D01*
X149204500Y-81464448D01*
X149204499Y-81464448D01*
X147795500Y-81464448D01*
X147795500Y-81315550D01*
X147756962Y-81171725D01*
X147734249Y-81132384D01*
X147682515Y-81042778D01*
X147682507Y-81042768D01*
X147577231Y-80937492D01*
X147577221Y-80937484D01*
X147448279Y-80863040D01*
X147448276Y-80863039D01*
X147448275Y-80863038D01*
X147448273Y-80863037D01*
X147448272Y-80863037D01*
X147409735Y-80852711D01*
X147304450Y-80824500D01*
X147155550Y-80824500D01*
X147095957Y-80840468D01*
X147011727Y-80863037D01*
X147011720Y-80863040D01*
X146882778Y-80937484D01*
X146882768Y-80937492D01*
X146777492Y-81042768D01*
X146777484Y-81042778D01*
X146703040Y-81171720D01*
X146703037Y-81171727D01*
X146696433Y-81196374D01*
X146666760Y-81307118D01*
X146664500Y-81315551D01*
X146664500Y-81464448D01*
X146664499Y-81464448D01*
X145255500Y-81464448D01*
X145255500Y-81315550D01*
X145216962Y-81171725D01*
X145194249Y-81132384D01*
X145142515Y-81042778D01*
X145142507Y-81042768D01*
X145037231Y-80937492D01*
X145037221Y-80937484D01*
X144908279Y-80863040D01*
X144908276Y-80863039D01*
X144908275Y-80863038D01*
X144908273Y-80863037D01*
X144908272Y-80863037D01*
X144869735Y-80852711D01*
X144764450Y-80824500D01*
X144615550Y-80824500D01*
X144555957Y-80840468D01*
X144471727Y-80863037D01*
X144471720Y-80863040D01*
X144342778Y-80937484D01*
X144342768Y-80937492D01*
X144237492Y-81042768D01*
X144237484Y-81042778D01*
X144163040Y-81171720D01*
X144163037Y-81171727D01*
X144156433Y-81196374D01*
X144126760Y-81307118D01*
X144124500Y-81315551D01*
X144124500Y-81464448D01*
X144124499Y-81464448D01*
X142715500Y-81464448D01*
X142715500Y-81315550D01*
X142676962Y-81171725D01*
X142654249Y-81132384D01*
X142602515Y-81042778D01*
X142602507Y-81042768D01*
X142497231Y-80937492D01*
X142497221Y-80937484D01*
X142368279Y-80863040D01*
X142368276Y-80863039D01*
X142368275Y-80863038D01*
X142368273Y-80863037D01*
X142368272Y-80863037D01*
X142329735Y-80852711D01*
X142224450Y-80824500D01*
X142075550Y-80824500D01*
X142015957Y-80840468D01*
X141931727Y-80863037D01*
X141931720Y-80863040D01*
X141802778Y-80937484D01*
X141802768Y-80937492D01*
X141697492Y-81042768D01*
X141697484Y-81042778D01*
X141623040Y-81171720D01*
X141623037Y-81171727D01*
X141616433Y-81196374D01*
X141586760Y-81307118D01*
X141584500Y-81315551D01*
X141584500Y-81464448D01*
X141584499Y-81464448D01*
X140175500Y-81464448D01*
X140175500Y-81315550D01*
X140136962Y-81171725D01*
X140114249Y-81132384D01*
X140062515Y-81042778D01*
X140062507Y-81042768D01*
X139957231Y-80937492D01*
X139957221Y-80937484D01*
X139828279Y-80863040D01*
X139828276Y-80863039D01*
X139828275Y-80863038D01*
X139828273Y-80863037D01*
X139828272Y-80863037D01*
X139789735Y-80852711D01*
X139684450Y-80824500D01*
X139535550Y-80824500D01*
X139475957Y-80840468D01*
X139391727Y-80863037D01*
X139391720Y-80863040D01*
X139262778Y-80937484D01*
X139262768Y-80937492D01*
X139157492Y-81042768D01*
X139157484Y-81042778D01*
X139083040Y-81171720D01*
X139083037Y-81171727D01*
X139076433Y-81196374D01*
X139046760Y-81307118D01*
X139044500Y-81315551D01*
X139044500Y-81464448D01*
X139044499Y-81464448D01*
X131430500Y-81464448D01*
X131430500Y-80024411D01*
X139909500Y-80024411D01*
X139909500Y-80215588D01*
X139946796Y-80403084D01*
X139946797Y-80403087D01*
X140005747Y-80545405D01*
X140019954Y-80579704D01*
X140126163Y-80738658D01*
X140261342Y-80873837D01*
X140420296Y-80980046D01*
X140596916Y-81053204D01*
X140784414Y-81090500D01*
X140784415Y-81090500D01*
X140975585Y-81090500D01*
X140975586Y-81090500D01*
X141163084Y-81053204D01*
X141339704Y-80980046D01*
X141498658Y-80873837D01*
X141633837Y-80738658D01*
X141740046Y-80579704D01*
X141813204Y-80403084D01*
X141850500Y-80215586D01*
X141850500Y-80024414D01*
X141813204Y-79836916D01*
X141740046Y-79660296D01*
X141633837Y-79501342D01*
X141498658Y-79366163D01*
X141339704Y-79259954D01*
X141238036Y-79217842D01*
X141163087Y-79186797D01*
X141163084Y-79186796D01*
X140975588Y-79149500D01*
X140975586Y-79149500D01*
X140784414Y-79149500D01*
X140784411Y-79149500D01*
X140596915Y-79186796D01*
X140596912Y-79186797D01*
X140420295Y-79259954D01*
X140261343Y-79366162D01*
X140261337Y-79366167D01*
X140126167Y-79501337D01*
X140126162Y-79501343D01*
X140019954Y-79660295D01*
X139946797Y-79836912D01*
X139946796Y-79836915D01*
X139909500Y-80024411D01*
X131430500Y-80024411D01*
X131430500Y-79453292D01*
X131430673Y-79446698D01*
X131439855Y-79271498D01*
X131446476Y-79145152D01*
X131447854Y-79132039D01*
X131457954Y-79068275D01*
X131480733Y-78924448D01*
X139044499Y-78924448D01*
X139083037Y-79068272D01*
X139083040Y-79068279D01*
X139157484Y-79197221D01*
X139157492Y-79197231D01*
X139262768Y-79302507D01*
X139262773Y-79302511D01*
X139262775Y-79302513D01*
X139391725Y-79376962D01*
X139535550Y-79415500D01*
X139535552Y-79415500D01*
X139684448Y-79415500D01*
X139684450Y-79415500D01*
X139828275Y-79376962D01*
X139957225Y-79302513D01*
X140062513Y-79197225D01*
X140136962Y-79068275D01*
X140175500Y-78924450D01*
X140175500Y-78924448D01*
X141584499Y-78924448D01*
X141623037Y-79068272D01*
X141623040Y-79068279D01*
X141697484Y-79197221D01*
X141697492Y-79197231D01*
X141802768Y-79302507D01*
X141802773Y-79302511D01*
X141802775Y-79302513D01*
X141931725Y-79376962D01*
X142075550Y-79415500D01*
X142075552Y-79415500D01*
X142224448Y-79415500D01*
X142224450Y-79415500D01*
X142368275Y-79376962D01*
X142497225Y-79302513D01*
X142602513Y-79197225D01*
X142676962Y-79068275D01*
X142715500Y-78924450D01*
X142715500Y-78924448D01*
X144124499Y-78924448D01*
X144163037Y-79068272D01*
X144163040Y-79068279D01*
X144237484Y-79197221D01*
X144237492Y-79197231D01*
X144342768Y-79302507D01*
X144342773Y-79302511D01*
X144342775Y-79302513D01*
X144471725Y-79376962D01*
X144615550Y-79415500D01*
X144615552Y-79415500D01*
X144764448Y-79415500D01*
X144764450Y-79415500D01*
X144908275Y-79376962D01*
X145037225Y-79302513D01*
X145142513Y-79197225D01*
X145216962Y-79068275D01*
X145255500Y-78924450D01*
X145255500Y-78924448D01*
X146664499Y-78924448D01*
X146703037Y-79068272D01*
X146703040Y-79068279D01*
X146777484Y-79197221D01*
X146777492Y-79197231D01*
X146882768Y-79302507D01*
X146882773Y-79302511D01*
X146882775Y-79302513D01*
X147011725Y-79376962D01*
X147155550Y-79415500D01*
X147155552Y-79415500D01*
X147304448Y-79415500D01*
X147304450Y-79415500D01*
X147448275Y-79376962D01*
X147577225Y-79302513D01*
X147682513Y-79197225D01*
X147756962Y-79068275D01*
X147795500Y-78924450D01*
X147795500Y-78924448D01*
X149204499Y-78924448D01*
X149243037Y-79068272D01*
X149243040Y-79068279D01*
X149317484Y-79197221D01*
X149317492Y-79197231D01*
X149422768Y-79302507D01*
X149422773Y-79302511D01*
X149422775Y-79302513D01*
X149551725Y-79376962D01*
X149695550Y-79415500D01*
X149695552Y-79415500D01*
X149844448Y-79415500D01*
X149844450Y-79415500D01*
X149988275Y-79376962D01*
X150117225Y-79302513D01*
X150222513Y-79197225D01*
X150296962Y-79068275D01*
X150335500Y-78924450D01*
X150335500Y-78924448D01*
X151744499Y-78924448D01*
X151783037Y-79068272D01*
X151783040Y-79068279D01*
X151857484Y-79197221D01*
X151857492Y-79197231D01*
X151962768Y-79302507D01*
X151962773Y-79302511D01*
X151962775Y-79302513D01*
X152091725Y-79376962D01*
X152235550Y-79415500D01*
X152235552Y-79415500D01*
X152384448Y-79415500D01*
X152384450Y-79415500D01*
X152528275Y-79376962D01*
X152657225Y-79302513D01*
X152762513Y-79197225D01*
X152836962Y-79068275D01*
X152875500Y-78924450D01*
X152875500Y-78924448D01*
X154284499Y-78924448D01*
X154323037Y-79068272D01*
X154323040Y-79068279D01*
X154397484Y-79197221D01*
X154397492Y-79197231D01*
X154502768Y-79302507D01*
X154502773Y-79302511D01*
X154502775Y-79302513D01*
X154631725Y-79376962D01*
X154775550Y-79415500D01*
X154775552Y-79415500D01*
X154924448Y-79415500D01*
X154924450Y-79415500D01*
X155068275Y-79376962D01*
X155197225Y-79302513D01*
X155302513Y-79197225D01*
X155376962Y-79068275D01*
X155415500Y-78924450D01*
X155415500Y-78775550D01*
X155376962Y-78631725D01*
X155354841Y-78593410D01*
X155302515Y-78502778D01*
X155302514Y-78502776D01*
X155302513Y-78502775D01*
X155302511Y-78502773D01*
X155302507Y-78502768D01*
X155197231Y-78397492D01*
X155197221Y-78397484D01*
X155068279Y-78323040D01*
X155068276Y-78323039D01*
X155068275Y-78323038D01*
X155068273Y-78323037D01*
X155068272Y-78323037D01*
X155029735Y-78312711D01*
X154924450Y-78284500D01*
X154775550Y-78284500D01*
X154698476Y-78305152D01*
X154631727Y-78323037D01*
X154631720Y-78323040D01*
X154502778Y-78397484D01*
X154502768Y-78397492D01*
X154397492Y-78502768D01*
X154397484Y-78502778D01*
X154323040Y-78631720D01*
X154323037Y-78631727D01*
X154284500Y-78775551D01*
X154284500Y-78924448D01*
X154284499Y-78924448D01*
X152875500Y-78924448D01*
X152875500Y-78775550D01*
X152836962Y-78631725D01*
X152814841Y-78593410D01*
X152762515Y-78502778D01*
X152762514Y-78502776D01*
X152762513Y-78502775D01*
X152762511Y-78502773D01*
X152762507Y-78502768D01*
X152657231Y-78397492D01*
X152657221Y-78397484D01*
X152528279Y-78323040D01*
X152528276Y-78323039D01*
X152528275Y-78323038D01*
X152528273Y-78323037D01*
X152528272Y-78323037D01*
X152489735Y-78312711D01*
X152384450Y-78284500D01*
X152235550Y-78284500D01*
X152158476Y-78305152D01*
X152091727Y-78323037D01*
X152091720Y-78323040D01*
X151962778Y-78397484D01*
X151962768Y-78397492D01*
X151857492Y-78502768D01*
X151857484Y-78502778D01*
X151783040Y-78631720D01*
X151783037Y-78631727D01*
X151744500Y-78775551D01*
X151744500Y-78924448D01*
X151744499Y-78924448D01*
X150335500Y-78924448D01*
X150335500Y-78775550D01*
X150296962Y-78631725D01*
X150274841Y-78593410D01*
X150222515Y-78502778D01*
X150222514Y-78502776D01*
X150222513Y-78502775D01*
X150222511Y-78502773D01*
X150222507Y-78502768D01*
X150117231Y-78397492D01*
X150117221Y-78397484D01*
X149988279Y-78323040D01*
X149988276Y-78323039D01*
X149988275Y-78323038D01*
X149988273Y-78323037D01*
X149988272Y-78323037D01*
X149949735Y-78312711D01*
X149844450Y-78284500D01*
X149695550Y-78284500D01*
X149618476Y-78305152D01*
X149551727Y-78323037D01*
X149551720Y-78323040D01*
X149422778Y-78397484D01*
X149422768Y-78397492D01*
X149317492Y-78502768D01*
X149317484Y-78502778D01*
X149243040Y-78631720D01*
X149243037Y-78631727D01*
X149204500Y-78775551D01*
X149204500Y-78924448D01*
X149204499Y-78924448D01*
X147795500Y-78924448D01*
X147795500Y-78775550D01*
X147756962Y-78631725D01*
X147734841Y-78593410D01*
X147682515Y-78502778D01*
X147682514Y-78502776D01*
X147682513Y-78502775D01*
X147682511Y-78502773D01*
X147682507Y-78502768D01*
X147577231Y-78397492D01*
X147577221Y-78397484D01*
X147448279Y-78323040D01*
X147448276Y-78323039D01*
X147448275Y-78323038D01*
X147448273Y-78323037D01*
X147448272Y-78323037D01*
X147409735Y-78312711D01*
X147304450Y-78284500D01*
X147155550Y-78284500D01*
X147078476Y-78305152D01*
X147011727Y-78323037D01*
X147011720Y-78323040D01*
X146882778Y-78397484D01*
X146882768Y-78397492D01*
X146777492Y-78502768D01*
X146777484Y-78502778D01*
X146703040Y-78631720D01*
X146703037Y-78631727D01*
X146664500Y-78775551D01*
X146664500Y-78924448D01*
X146664499Y-78924448D01*
X145255500Y-78924448D01*
X145255500Y-78775550D01*
X145216962Y-78631725D01*
X145194841Y-78593410D01*
X145142515Y-78502778D01*
X145142514Y-78502776D01*
X145142513Y-78502775D01*
X145142511Y-78502773D01*
X145142507Y-78502768D01*
X145037231Y-78397492D01*
X145037221Y-78397484D01*
X144908279Y-78323040D01*
X144908276Y-78323039D01*
X144908275Y-78323038D01*
X144908273Y-78323037D01*
X144908272Y-78323037D01*
X144869735Y-78312711D01*
X144764450Y-78284500D01*
X144615550Y-78284500D01*
X144538476Y-78305152D01*
X144471727Y-78323037D01*
X144471720Y-78323040D01*
X144342778Y-78397484D01*
X144342768Y-78397492D01*
X144237492Y-78502768D01*
X144237484Y-78502778D01*
X144163040Y-78631720D01*
X144163037Y-78631727D01*
X144124500Y-78775551D01*
X144124500Y-78924448D01*
X144124499Y-78924448D01*
X142715500Y-78924448D01*
X142715500Y-78775550D01*
X142676962Y-78631725D01*
X142654841Y-78593410D01*
X142602515Y-78502778D01*
X142602514Y-78502776D01*
X142602513Y-78502775D01*
X142602511Y-78502773D01*
X142602507Y-78502768D01*
X142497231Y-78397492D01*
X142497221Y-78397484D01*
X142368279Y-78323040D01*
X142368276Y-78323039D01*
X142368275Y-78323038D01*
X142368273Y-78323037D01*
X142368272Y-78323037D01*
X142329735Y-78312711D01*
X142224450Y-78284500D01*
X142075550Y-78284500D01*
X141998476Y-78305152D01*
X141931727Y-78323037D01*
X141931720Y-78323040D01*
X141802778Y-78397484D01*
X141802768Y-78397492D01*
X141697492Y-78502768D01*
X141697484Y-78502778D01*
X141623040Y-78631720D01*
X141623037Y-78631727D01*
X141584500Y-78775551D01*
X141584500Y-78924448D01*
X141584499Y-78924448D01*
X140175500Y-78924448D01*
X140175500Y-78775550D01*
X140136962Y-78631725D01*
X140114841Y-78593410D01*
X140062515Y-78502778D01*
X140062514Y-78502776D01*
X140062513Y-78502775D01*
X140062511Y-78502773D01*
X140062507Y-78502768D01*
X139957231Y-78397492D01*
X139957221Y-78397484D01*
X139828279Y-78323040D01*
X139828276Y-78323039D01*
X139828275Y-78323038D01*
X139828273Y-78323037D01*
X139828272Y-78323037D01*
X139789735Y-78312711D01*
X139684450Y-78284500D01*
X139535550Y-78284500D01*
X139458476Y-78305152D01*
X139391727Y-78323037D01*
X139391720Y-78323040D01*
X139262778Y-78397484D01*
X139262768Y-78397492D01*
X139157492Y-78502768D01*
X139157484Y-78502778D01*
X139083040Y-78631720D01*
X139083037Y-78631727D01*
X139044500Y-78775551D01*
X139044500Y-78924448D01*
X139044499Y-78924448D01*
X131480733Y-78924448D01*
X131494576Y-78837044D01*
X131497318Y-78824148D01*
X131529107Y-78705511D01*
X131574621Y-78535650D01*
X131578695Y-78523114D01*
X131579930Y-78519897D01*
X131685728Y-78244281D01*
X131691079Y-78232263D01*
X131826688Y-77966115D01*
X131833266Y-77954722D01*
X131995949Y-77704212D01*
X132003680Y-77693573D01*
X132191653Y-77461445D01*
X132200460Y-77451664D01*
X132411664Y-77240460D01*
X132421445Y-77231653D01*
X132653573Y-77043680D01*
X132664212Y-77035949D01*
X132914722Y-76873266D01*
X132926115Y-76866688D01*
X133192263Y-76731079D01*
X133204281Y-76725728D01*
X133483121Y-76618692D01*
X133495650Y-76614621D01*
X133784152Y-76537317D01*
X133797044Y-76534576D01*
X134092043Y-76487853D01*
X134105154Y-76486476D01*
X134406699Y-76470673D01*
X134413293Y-76470500D01*
X134436156Y-76470500D01*
X193383844Y-76470500D01*
X193406707Y-76470500D01*
X193413301Y-76470673D01*
G37*
%TD.AperFunction*%
%TD*%
M02*
