M48
; DRILL file {KiCad 8.0.6} date 2024-11-17T19:32:42+0800
; FORMAT={-:-/ absolute / inch / decimal}
; #@! TF.CreationDate,2024-11-17T19:32:42+08:00
; #@! TF.GenerationSoftware,Kicad,Pcbnew,8.0.6
; #@! TF.FileFunction,Plated,1,4,PTH
FMAT,2
INCH
; #@! TA.AperFunction,Plated,PTH,ViaDrill
T1C0.0118
; #@! TA.AperFunction,Plated,PTH,ViaDrill
T2C0.0157
; #@! TA.AperFunction,Plated,PTH,ViaDrill
T3C0.0197
; #@! TA.AperFunction,Plated,PTH,ComponentDrill
T4C0.0591
; #@! TA.AperFunction,Plated,PTH,ComponentDrill
T5C0.0669
%
G90
G05
T1
X5.1902Y-3.2618
X5.1917Y-3.1039
X5.1917Y-3.1827
X5.1917Y-3.3402
X5.1917Y-3.7339
X5.1917Y-3.8126
X5.1917Y-3.8913
X5.1917Y-3.9701
X5.2697Y-3.0303
X5.3303Y-3.0346
X5.3976Y-3.0343
X5.4209Y-4.1713
X5.476Y-3.9522
X5.4996Y-4.1713
X5.5071Y-3.3244
X5.5469Y-3.0516
X5.5783Y-4.1713
X5.5858Y-3.3244
X5.6476Y-3.0488
X5.6529Y-3.8816
X5.6571Y-4.1713
X5.6638Y-3.5976
X5.6646Y-3.3244
X5.7358Y-4.1713
X5.7433Y-3.3244
X5.7449Y-3.0469
X5.8146Y-4.1713
X5.822Y-3.3244
X5.8469Y-3.0528
X5.8768Y-3.3819
X5.8933Y-4.1713
X5.9465Y-3.0469
X5.972Y-4.1713
X6.0472Y-3.0461
X6.0472Y-3.3862
X6.0508Y-4.1713
X6.0732Y-3.7303
X6.0768Y-4.0929
X6.0772Y-4.0421
X6.128Y-3.3835
X6.1295Y-4.1713
X6.1461Y-3.0465
X6.1496Y-3.1169
X6.1689Y-4.1331
X6.2083Y-4.1713
X6.2327Y-3.387
X6.2453Y-3.0413
X6.2571Y-3.5189
X6.2602Y-3.4685
X6.2657Y-4.0386
X6.2673Y-4.0925
X6.2776Y-3.8638
X6.287Y-4.1713
X6.3193Y-3.3878
X6.3378Y-3.8579
X6.3465Y-3.0406
X6.3472Y-3.1075
X6.3657Y-4.1713
X6.3844Y-3.6352
X6.3965Y-3.3941
X6.4441Y-3.8335
X6.4445Y-4.1713
X6.4457Y-3.0386
X6.4465Y-3.1791
X6.4965Y-3.3193
X6.5232Y-4.1713
X6.528Y-3.1555
X6.5307Y-3.3244
X6.5453Y-3.0358
X6.5937Y-3.3224
X6.602Y-4.0106
X6.602Y-4.1713
X6.6028Y-3.9634
X6.6091Y-3.6996
X6.6102Y-3.4098
X6.6102Y-3.4594
X6.6236Y-3.5142
X6.6469Y-3.0366
X6.6469Y-3.1209
X6.6469Y-3.1705
X6.6476Y-3.2614
X6.6476Y-3.3201
X6.672Y-3.6362
X6.6807Y-4.1713
X6.6831Y-4.048
X6.6972Y-3.3181
X6.7201Y-3.715
X6.7205Y-4.0476
X6.7457Y-3.0394
X6.7492Y-3.2059
X6.7594Y-4.1713
X6.7886Y-3.4614
X6.7902Y-3.4055
X6.7957Y-3.9571
X6.7957Y-4.0067
X6.7972Y-3.3343
X6.8382Y-4.1713
X6.8457Y-3.0469
X6.8976Y-3.3287
X6.9169Y-4.1713
X6.9457Y-3.0465
X6.9957Y-4.1713
X7.0031Y-3.3244
X7.0453Y-3.0469
X7.0453Y-3.1165
X7.0744Y-4.1713
X7.0819Y-3.3244
X7.1465Y-3.0469
X7.1469Y-3.1189
X7.1531Y-3.3272
X7.1531Y-4.1713
X7.1965Y-3.8819
X7.1965Y-3.9315
X7.2319Y-4.1713
X7.2394Y-3.3244
X7.2465Y-3.048
X7.3016Y-3.3732
X7.3181Y-3.3244
X7.3469Y-3.0528
X7.3709Y-4.1701
X7.3949Y-3.7815
X7.4051Y-3.335
X7.4283Y-3.4736
X7.4614Y-4.1732
X7.465Y-3.3819
X7.4697Y-3.2327
X7.4697Y-3.2823
X7.474Y-3.0307
X7.5051Y-3.5307
X7.5142Y-3.6173
X7.5406Y-4.1724
X7.5528Y-3.0307
X7.585Y-3.376
X7.6087Y-3.0346
X7.6244Y-3.5228
X7.6248Y-4.1728
X7.6264Y-3.5642
X7.6677Y-3.4862
X7.7004Y-3.3453
X7.7083Y-3.4992
X7.7114Y-3.2228
X7.7114Y-3.3016
X7.7114Y-3.3803
X7.7114Y-3.4591
X7.7114Y-3.5378
X7.7114Y-3.6165
X7.7114Y-3.6953
X7.7114Y-3.774
X7.7114Y-3.8528
X7.7114Y-3.9315
X7.7114Y-4.0102
X7.7126Y-3.1138
X7.7134Y-4.085
T2
X5.8457Y-3.261
X5.8972Y-3.3291
X5.9441Y-3.2614
T3
X5.4768Y-3.7709
X6.2972Y-3.3291
X7.3941Y-3.6189
T4
X5.3465Y-3.5165
X7.5303Y-3.9874
T5
X5.2465Y-3.4165
X5.2465Y-3.6165
X5.4465Y-3.4165
X5.4465Y-3.6165
X7.4303Y-3.8874
X7.4303Y-4.0874
X7.6303Y-3.8874
X7.6303Y-4.0874
M30
