%TF.GenerationSoftware,KiCad,Pcbnew,8.0.6*%
%TF.CreationDate,2024-10-20T18:51:53+08:00*%
%TF.ProjectId,RFM69HCW_v5,52464d36-3948-4435-975f-76352e6b6963,rev?*%
%TF.SameCoordinates,Original*%
%TF.FileFunction,Soldermask,Bot*%
%TF.FilePolarity,Negative*%
%FSLAX46Y46*%
G04 Gerber Fmt 4.6, Leading zero omitted, Abs format (unit mm)*
G04 Created by KiCad (PCBNEW 8.0.6) date 2024-10-20 18:51:53*
%MOMM*%
%LPD*%
G01*
G04 APERTURE LIST*
%ADD10C,6.000000*%
%ADD11C,0.970000*%
%ADD12C,1.780000*%
%ADD13C,2.000000*%
%ADD14C,2.200000*%
G04 APERTURE END LIST*
D10*
%TO.C,REF\u002A\u002A*%
X134910000Y-102950000D03*
D11*
X139610000Y-81390000D03*
X142150000Y-81390000D03*
X144690000Y-81390000D03*
X147230000Y-81390000D03*
X149770000Y-81390000D03*
X152310000Y-81390000D03*
X154850000Y-81390000D03*
X157390000Y-81390000D03*
X159930000Y-81390000D03*
X162470000Y-81390000D03*
X165010000Y-81390000D03*
X167550000Y-81390000D03*
X170090000Y-81390000D03*
X172630000Y-81390000D03*
X175170000Y-81390000D03*
X177710000Y-81390000D03*
X180250000Y-81390000D03*
X182790000Y-81390000D03*
X185330000Y-81390000D03*
X187870000Y-81390000D03*
D12*
X140880000Y-80120000D03*
X186600000Y-80120000D03*
D11*
X139610000Y-78850000D03*
X142150000Y-78850000D03*
X144690000Y-78850000D03*
X147230000Y-78850000D03*
X149770000Y-78850000D03*
X152310000Y-78850000D03*
X154850000Y-78850000D03*
X157390000Y-78850000D03*
X159930000Y-78850000D03*
X162470000Y-78850000D03*
X165010000Y-78850000D03*
X167550000Y-78850000D03*
X170090000Y-78850000D03*
X172630000Y-78850000D03*
X175170000Y-78850000D03*
X177710000Y-78850000D03*
X180250000Y-78850000D03*
X182790000Y-78850000D03*
X185330000Y-78850000D03*
X187870000Y-78850000D03*
%TD*%
D13*
%TO.C,REF\u002A\u002A*%
X135800000Y-89320000D03*
D14*
X138340000Y-91860000D03*
X133260000Y-86780000D03*
X133260000Y-91860000D03*
X138340000Y-86780000D03*
%TD*%
D13*
%TO.C,REF\u002A\u002A*%
X191270000Y-101280000D03*
D14*
X188730000Y-98740000D03*
X193810000Y-103820000D03*
X193810000Y-98740000D03*
X188730000Y-103820000D03*
%TD*%
M02*
