%TF.GenerationSoftware,KiCad,Pcbnew,8.0.6*%
%TF.CreationDate,2024-11-17T19:32:38+08:00*%
%TF.ProjectId,RFM69HCW_v6,52464d36-3948-4435-975f-76362e6b6963,rev?*%
%TF.SameCoordinates,Original*%
%TF.FileFunction,Legend,Top*%
%TF.FilePolarity,Positive*%
%FSLAX46Y46*%
G04 Gerber Fmt 4.6, Leading zero omitted, Abs format (unit mm)*
G04 Created by KiCad (PCBNEW 8.0.6) date 2024-11-17 19:32:38*
%MOMM*%
%LPD*%
G01*
G04 APERTURE LIST*
%ADD10C,0.200000*%
%ADD11C,0.150000*%
%ADD12C,0.203200*%
%ADD13C,0.120000*%
G04 APERTURE END LIST*
D10*
X153511101Y-105831980D02*
X153463482Y-105879600D01*
X153463482Y-105879600D02*
X153320625Y-105927219D01*
X153320625Y-105927219D02*
X153225387Y-105927219D01*
X153225387Y-105927219D02*
X153082530Y-105879600D01*
X153082530Y-105879600D02*
X152987292Y-105784361D01*
X152987292Y-105784361D02*
X152939673Y-105689123D01*
X152939673Y-105689123D02*
X152892054Y-105498647D01*
X152892054Y-105498647D02*
X152892054Y-105355790D01*
X152892054Y-105355790D02*
X152939673Y-105165314D01*
X152939673Y-105165314D02*
X152987292Y-105070076D01*
X152987292Y-105070076D02*
X153082530Y-104974838D01*
X153082530Y-104974838D02*
X153225387Y-104927219D01*
X153225387Y-104927219D02*
X153320625Y-104927219D01*
X153320625Y-104927219D02*
X153463482Y-104974838D01*
X153463482Y-104974838D02*
X153511101Y-105022457D01*
X153939673Y-105403409D02*
X154273006Y-105403409D01*
X154415863Y-105927219D02*
X153939673Y-105927219D01*
X153939673Y-105927219D02*
X153939673Y-104927219D01*
X153939673Y-104927219D02*
X154415863Y-104927219D01*
X155415863Y-105927219D02*
X155082530Y-105451028D01*
X154844435Y-105927219D02*
X154844435Y-104927219D01*
X154844435Y-104927219D02*
X155225387Y-104927219D01*
X155225387Y-104927219D02*
X155320625Y-104974838D01*
X155320625Y-104974838D02*
X155368244Y-105022457D01*
X155368244Y-105022457D02*
X155415863Y-105117695D01*
X155415863Y-105117695D02*
X155415863Y-105260552D01*
X155415863Y-105260552D02*
X155368244Y-105355790D01*
X155368244Y-105355790D02*
X155320625Y-105403409D01*
X155320625Y-105403409D02*
X155225387Y-105451028D01*
X155225387Y-105451028D02*
X154844435Y-105451028D01*
X155844435Y-105927219D02*
X155844435Y-104927219D01*
X155844435Y-104927219D02*
X156415863Y-105927219D01*
X156415863Y-105927219D02*
X156415863Y-104927219D01*
X157844435Y-104927219D02*
X158034911Y-104927219D01*
X158034911Y-104927219D02*
X158130149Y-104974838D01*
X158130149Y-104974838D02*
X158225387Y-105070076D01*
X158225387Y-105070076D02*
X158273006Y-105260552D01*
X158273006Y-105260552D02*
X158273006Y-105593885D01*
X158273006Y-105593885D02*
X158225387Y-105784361D01*
X158225387Y-105784361D02*
X158130149Y-105879600D01*
X158130149Y-105879600D02*
X158034911Y-105927219D01*
X158034911Y-105927219D02*
X157844435Y-105927219D01*
X157844435Y-105927219D02*
X157749197Y-105879600D01*
X157749197Y-105879600D02*
X157653959Y-105784361D01*
X157653959Y-105784361D02*
X157606340Y-105593885D01*
X157606340Y-105593885D02*
X157606340Y-105260552D01*
X157606340Y-105260552D02*
X157653959Y-105070076D01*
X157653959Y-105070076D02*
X157749197Y-104974838D01*
X157749197Y-104974838D02*
X157844435Y-104927219D01*
X158701578Y-105260552D02*
X158701578Y-106260552D01*
X158701578Y-105308171D02*
X158796816Y-105260552D01*
X158796816Y-105260552D02*
X158987292Y-105260552D01*
X158987292Y-105260552D02*
X159082530Y-105308171D01*
X159082530Y-105308171D02*
X159130149Y-105355790D01*
X159130149Y-105355790D02*
X159177768Y-105451028D01*
X159177768Y-105451028D02*
X159177768Y-105736742D01*
X159177768Y-105736742D02*
X159130149Y-105831980D01*
X159130149Y-105831980D02*
X159082530Y-105879600D01*
X159082530Y-105879600D02*
X158987292Y-105927219D01*
X158987292Y-105927219D02*
X158796816Y-105927219D01*
X158796816Y-105927219D02*
X158701578Y-105879600D01*
X159987292Y-105879600D02*
X159892054Y-105927219D01*
X159892054Y-105927219D02*
X159701578Y-105927219D01*
X159701578Y-105927219D02*
X159606340Y-105879600D01*
X159606340Y-105879600D02*
X159558721Y-105784361D01*
X159558721Y-105784361D02*
X159558721Y-105403409D01*
X159558721Y-105403409D02*
X159606340Y-105308171D01*
X159606340Y-105308171D02*
X159701578Y-105260552D01*
X159701578Y-105260552D02*
X159892054Y-105260552D01*
X159892054Y-105260552D02*
X159987292Y-105308171D01*
X159987292Y-105308171D02*
X160034911Y-105403409D01*
X160034911Y-105403409D02*
X160034911Y-105498647D01*
X160034911Y-105498647D02*
X159558721Y-105593885D01*
X160463483Y-105260552D02*
X160463483Y-105927219D01*
X160463483Y-105355790D02*
X160511102Y-105308171D01*
X160511102Y-105308171D02*
X160606340Y-105260552D01*
X160606340Y-105260552D02*
X160749197Y-105260552D01*
X160749197Y-105260552D02*
X160844435Y-105308171D01*
X160844435Y-105308171D02*
X160892054Y-105403409D01*
X160892054Y-105403409D02*
X160892054Y-105927219D01*
X162130150Y-105927219D02*
X162130150Y-104927219D01*
X162130150Y-105403409D02*
X162701578Y-105403409D01*
X162701578Y-105927219D02*
X162701578Y-104927219D01*
X163606340Y-105927219D02*
X163606340Y-105403409D01*
X163606340Y-105403409D02*
X163558721Y-105308171D01*
X163558721Y-105308171D02*
X163463483Y-105260552D01*
X163463483Y-105260552D02*
X163273007Y-105260552D01*
X163273007Y-105260552D02*
X163177769Y-105308171D01*
X163606340Y-105879600D02*
X163511102Y-105927219D01*
X163511102Y-105927219D02*
X163273007Y-105927219D01*
X163273007Y-105927219D02*
X163177769Y-105879600D01*
X163177769Y-105879600D02*
X163130150Y-105784361D01*
X163130150Y-105784361D02*
X163130150Y-105689123D01*
X163130150Y-105689123D02*
X163177769Y-105593885D01*
X163177769Y-105593885D02*
X163273007Y-105546266D01*
X163273007Y-105546266D02*
X163511102Y-105546266D01*
X163511102Y-105546266D02*
X163606340Y-105498647D01*
X164082531Y-105927219D02*
X164082531Y-105260552D01*
X164082531Y-105451028D02*
X164130150Y-105355790D01*
X164130150Y-105355790D02*
X164177769Y-105308171D01*
X164177769Y-105308171D02*
X164273007Y-105260552D01*
X164273007Y-105260552D02*
X164368245Y-105260552D01*
X165130150Y-105927219D02*
X165130150Y-104927219D01*
X165130150Y-105879600D02*
X165034912Y-105927219D01*
X165034912Y-105927219D02*
X164844436Y-105927219D01*
X164844436Y-105927219D02*
X164749198Y-105879600D01*
X164749198Y-105879600D02*
X164701579Y-105831980D01*
X164701579Y-105831980D02*
X164653960Y-105736742D01*
X164653960Y-105736742D02*
X164653960Y-105451028D01*
X164653960Y-105451028D02*
X164701579Y-105355790D01*
X164701579Y-105355790D02*
X164749198Y-105308171D01*
X164749198Y-105308171D02*
X164844436Y-105260552D01*
X164844436Y-105260552D02*
X165034912Y-105260552D01*
X165034912Y-105260552D02*
X165130150Y-105308171D01*
X165511103Y-105260552D02*
X165701579Y-105927219D01*
X165701579Y-105927219D02*
X165892055Y-105451028D01*
X165892055Y-105451028D02*
X166082531Y-105927219D01*
X166082531Y-105927219D02*
X166273007Y-105260552D01*
X167082531Y-105927219D02*
X167082531Y-105403409D01*
X167082531Y-105403409D02*
X167034912Y-105308171D01*
X167034912Y-105308171D02*
X166939674Y-105260552D01*
X166939674Y-105260552D02*
X166749198Y-105260552D01*
X166749198Y-105260552D02*
X166653960Y-105308171D01*
X167082531Y-105879600D02*
X166987293Y-105927219D01*
X166987293Y-105927219D02*
X166749198Y-105927219D01*
X166749198Y-105927219D02*
X166653960Y-105879600D01*
X166653960Y-105879600D02*
X166606341Y-105784361D01*
X166606341Y-105784361D02*
X166606341Y-105689123D01*
X166606341Y-105689123D02*
X166653960Y-105593885D01*
X166653960Y-105593885D02*
X166749198Y-105546266D01*
X166749198Y-105546266D02*
X166987293Y-105546266D01*
X166987293Y-105546266D02*
X167082531Y-105498647D01*
X167558722Y-105927219D02*
X167558722Y-105260552D01*
X167558722Y-105451028D02*
X167606341Y-105355790D01*
X167606341Y-105355790D02*
X167653960Y-105308171D01*
X167653960Y-105308171D02*
X167749198Y-105260552D01*
X167749198Y-105260552D02*
X167844436Y-105260552D01*
X168558722Y-105879600D02*
X168463484Y-105927219D01*
X168463484Y-105927219D02*
X168273008Y-105927219D01*
X168273008Y-105927219D02*
X168177770Y-105879600D01*
X168177770Y-105879600D02*
X168130151Y-105784361D01*
X168130151Y-105784361D02*
X168130151Y-105403409D01*
X168130151Y-105403409D02*
X168177770Y-105308171D01*
X168177770Y-105308171D02*
X168273008Y-105260552D01*
X168273008Y-105260552D02*
X168463484Y-105260552D01*
X168463484Y-105260552D02*
X168558722Y-105308171D01*
X168558722Y-105308171D02*
X168606341Y-105403409D01*
X168606341Y-105403409D02*
X168606341Y-105498647D01*
X168606341Y-105498647D02*
X168130151Y-105593885D01*
X170273008Y-105927219D02*
X169796818Y-105927219D01*
X169796818Y-105927219D02*
X169796818Y-104927219D01*
X170606342Y-105927219D02*
X170606342Y-105260552D01*
X170606342Y-104927219D02*
X170558723Y-104974838D01*
X170558723Y-104974838D02*
X170606342Y-105022457D01*
X170606342Y-105022457D02*
X170653961Y-104974838D01*
X170653961Y-104974838D02*
X170606342Y-104927219D01*
X170606342Y-104927219D02*
X170606342Y-105022457D01*
X171511103Y-105879600D02*
X171415865Y-105927219D01*
X171415865Y-105927219D02*
X171225389Y-105927219D01*
X171225389Y-105927219D02*
X171130151Y-105879600D01*
X171130151Y-105879600D02*
X171082532Y-105831980D01*
X171082532Y-105831980D02*
X171034913Y-105736742D01*
X171034913Y-105736742D02*
X171034913Y-105451028D01*
X171034913Y-105451028D02*
X171082532Y-105355790D01*
X171082532Y-105355790D02*
X171130151Y-105308171D01*
X171130151Y-105308171D02*
X171225389Y-105260552D01*
X171225389Y-105260552D02*
X171415865Y-105260552D01*
X171415865Y-105260552D02*
X171511103Y-105308171D01*
X172320627Y-105879600D02*
X172225389Y-105927219D01*
X172225389Y-105927219D02*
X172034913Y-105927219D01*
X172034913Y-105927219D02*
X171939675Y-105879600D01*
X171939675Y-105879600D02*
X171892056Y-105784361D01*
X171892056Y-105784361D02*
X171892056Y-105403409D01*
X171892056Y-105403409D02*
X171939675Y-105308171D01*
X171939675Y-105308171D02*
X172034913Y-105260552D01*
X172034913Y-105260552D02*
X172225389Y-105260552D01*
X172225389Y-105260552D02*
X172320627Y-105308171D01*
X172320627Y-105308171D02*
X172368246Y-105403409D01*
X172368246Y-105403409D02*
X172368246Y-105498647D01*
X172368246Y-105498647D02*
X171892056Y-105593885D01*
X172796818Y-105260552D02*
X172796818Y-105927219D01*
X172796818Y-105355790D02*
X172844437Y-105308171D01*
X172844437Y-105308171D02*
X172939675Y-105260552D01*
X172939675Y-105260552D02*
X173082532Y-105260552D01*
X173082532Y-105260552D02*
X173177770Y-105308171D01*
X173177770Y-105308171D02*
X173225389Y-105403409D01*
X173225389Y-105403409D02*
X173225389Y-105927219D01*
X174130151Y-105879600D02*
X174034913Y-105927219D01*
X174034913Y-105927219D02*
X173844437Y-105927219D01*
X173844437Y-105927219D02*
X173749199Y-105879600D01*
X173749199Y-105879600D02*
X173701580Y-105831980D01*
X173701580Y-105831980D02*
X173653961Y-105736742D01*
X173653961Y-105736742D02*
X173653961Y-105451028D01*
X173653961Y-105451028D02*
X173701580Y-105355790D01*
X173701580Y-105355790D02*
X173749199Y-105308171D01*
X173749199Y-105308171D02*
X173844437Y-105260552D01*
X173844437Y-105260552D02*
X174034913Y-105260552D01*
X174034913Y-105260552D02*
X174130151Y-105308171D01*
X174939675Y-105879600D02*
X174844437Y-105927219D01*
X174844437Y-105927219D02*
X174653961Y-105927219D01*
X174653961Y-105927219D02*
X174558723Y-105879600D01*
X174558723Y-105879600D02*
X174511104Y-105784361D01*
X174511104Y-105784361D02*
X174511104Y-105403409D01*
X174511104Y-105403409D02*
X174558723Y-105308171D01*
X174558723Y-105308171D02*
X174653961Y-105260552D01*
X174653961Y-105260552D02*
X174844437Y-105260552D01*
X174844437Y-105260552D02*
X174939675Y-105308171D01*
X174939675Y-105308171D02*
X174987294Y-105403409D01*
X174987294Y-105403409D02*
X174987294Y-105498647D01*
X174987294Y-105498647D02*
X174511104Y-105593885D01*
X176034914Y-104927219D02*
X176368247Y-105927219D01*
X176368247Y-105927219D02*
X176701580Y-104927219D01*
X176987295Y-105022457D02*
X177034914Y-104974838D01*
X177034914Y-104974838D02*
X177130152Y-104927219D01*
X177130152Y-104927219D02*
X177368247Y-104927219D01*
X177368247Y-104927219D02*
X177463485Y-104974838D01*
X177463485Y-104974838D02*
X177511104Y-105022457D01*
X177511104Y-105022457D02*
X177558723Y-105117695D01*
X177558723Y-105117695D02*
X177558723Y-105212933D01*
X177558723Y-105212933D02*
X177511104Y-105355790D01*
X177511104Y-105355790D02*
X176939676Y-105927219D01*
X176939676Y-105927219D02*
X177558723Y-105927219D01*
X168241101Y-104311980D02*
X168193482Y-104359600D01*
X168193482Y-104359600D02*
X168050625Y-104407219D01*
X168050625Y-104407219D02*
X167955387Y-104407219D01*
X167955387Y-104407219D02*
X167812530Y-104359600D01*
X167812530Y-104359600D02*
X167717292Y-104264361D01*
X167717292Y-104264361D02*
X167669673Y-104169123D01*
X167669673Y-104169123D02*
X167622054Y-103978647D01*
X167622054Y-103978647D02*
X167622054Y-103835790D01*
X167622054Y-103835790D02*
X167669673Y-103645314D01*
X167669673Y-103645314D02*
X167717292Y-103550076D01*
X167717292Y-103550076D02*
X167812530Y-103454838D01*
X167812530Y-103454838D02*
X167955387Y-103407219D01*
X167955387Y-103407219D02*
X168050625Y-103407219D01*
X168050625Y-103407219D02*
X168193482Y-103454838D01*
X168193482Y-103454838D02*
X168241101Y-103502457D01*
X168669673Y-103883409D02*
X169003006Y-103883409D01*
X169145863Y-104407219D02*
X168669673Y-104407219D01*
X168669673Y-104407219D02*
X168669673Y-103407219D01*
X168669673Y-103407219D02*
X169145863Y-103407219D01*
X170145863Y-104407219D02*
X169812530Y-103931028D01*
X169574435Y-104407219D02*
X169574435Y-103407219D01*
X169574435Y-103407219D02*
X169955387Y-103407219D01*
X169955387Y-103407219D02*
X170050625Y-103454838D01*
X170050625Y-103454838D02*
X170098244Y-103502457D01*
X170098244Y-103502457D02*
X170145863Y-103597695D01*
X170145863Y-103597695D02*
X170145863Y-103740552D01*
X170145863Y-103740552D02*
X170098244Y-103835790D01*
X170098244Y-103835790D02*
X170050625Y-103883409D01*
X170050625Y-103883409D02*
X169955387Y-103931028D01*
X169955387Y-103931028D02*
X169574435Y-103931028D01*
X170574435Y-104407219D02*
X170574435Y-103407219D01*
X170574435Y-103407219D02*
X171145863Y-104407219D01*
X171145863Y-104407219D02*
X171145863Y-103407219D01*
X171622054Y-104026266D02*
X172383959Y-104026266D01*
X173050625Y-103407219D02*
X173241101Y-103407219D01*
X173241101Y-103407219D02*
X173336339Y-103454838D01*
X173336339Y-103454838D02*
X173431577Y-103550076D01*
X173431577Y-103550076D02*
X173479196Y-103740552D01*
X173479196Y-103740552D02*
X173479196Y-104073885D01*
X173479196Y-104073885D02*
X173431577Y-104264361D01*
X173431577Y-104264361D02*
X173336339Y-104359600D01*
X173336339Y-104359600D02*
X173241101Y-104407219D01*
X173241101Y-104407219D02*
X173050625Y-104407219D01*
X173050625Y-104407219D02*
X172955387Y-104359600D01*
X172955387Y-104359600D02*
X172860149Y-104264361D01*
X172860149Y-104264361D02*
X172812530Y-104073885D01*
X172812530Y-104073885D02*
X172812530Y-103740552D01*
X172812530Y-103740552D02*
X172860149Y-103550076D01*
X172860149Y-103550076D02*
X172955387Y-103454838D01*
X172955387Y-103454838D02*
X173050625Y-103407219D01*
X173907768Y-104407219D02*
X173907768Y-103407219D01*
X173907768Y-103883409D02*
X174479196Y-103883409D01*
X174479196Y-104407219D02*
X174479196Y-103407219D01*
X175431577Y-104407219D02*
X174955387Y-104407219D01*
X174955387Y-104407219D02*
X174955387Y-103407219D01*
X175764911Y-104026266D02*
X176526816Y-104026266D01*
X176955387Y-104359600D02*
X177098244Y-104407219D01*
X177098244Y-104407219D02*
X177336339Y-104407219D01*
X177336339Y-104407219D02*
X177431577Y-104359600D01*
X177431577Y-104359600D02*
X177479196Y-104311980D01*
X177479196Y-104311980D02*
X177526815Y-104216742D01*
X177526815Y-104216742D02*
X177526815Y-104121504D01*
X177526815Y-104121504D02*
X177479196Y-104026266D01*
X177479196Y-104026266D02*
X177431577Y-103978647D01*
X177431577Y-103978647D02*
X177336339Y-103931028D01*
X177336339Y-103931028D02*
X177145863Y-103883409D01*
X177145863Y-103883409D02*
X177050625Y-103835790D01*
X177050625Y-103835790D02*
X177003006Y-103788171D01*
X177003006Y-103788171D02*
X176955387Y-103692933D01*
X176955387Y-103692933D02*
X176955387Y-103597695D01*
X176955387Y-103597695D02*
X177003006Y-103502457D01*
X177003006Y-103502457D02*
X177050625Y-103454838D01*
X177050625Y-103454838D02*
X177145863Y-103407219D01*
X177145863Y-103407219D02*
X177383958Y-103407219D01*
X177383958Y-103407219D02*
X177526815Y-103454838D01*
D11*
X174878570Y-99306320D02*
X175069664Y-99306320D01*
X175069664Y-99306320D02*
X175165211Y-99258547D01*
X175165211Y-99258547D02*
X175212984Y-99210773D01*
X175212984Y-99210773D02*
X175308531Y-99067452D01*
X175308531Y-99067452D02*
X175356305Y-98876358D01*
X175356305Y-98876358D02*
X175356305Y-98494170D01*
X175356305Y-98494170D02*
X175308531Y-98398623D01*
X175308531Y-98398623D02*
X175260758Y-98350850D01*
X175260758Y-98350850D02*
X175165211Y-98303076D01*
X175165211Y-98303076D02*
X174974117Y-98303076D01*
X174974117Y-98303076D02*
X174878570Y-98350850D01*
X174878570Y-98350850D02*
X174830796Y-98398623D01*
X174830796Y-98398623D02*
X174783023Y-98494170D01*
X174783023Y-98494170D02*
X174783023Y-98733038D01*
X174783023Y-98733038D02*
X174830796Y-98828585D01*
X174830796Y-98828585D02*
X174878570Y-98876358D01*
X174878570Y-98876358D02*
X174974117Y-98924132D01*
X174974117Y-98924132D02*
X175165211Y-98924132D01*
X175165211Y-98924132D02*
X175260758Y-98876358D01*
X175260758Y-98876358D02*
X175308531Y-98828585D01*
X175308531Y-98828585D02*
X175356305Y-98733038D01*
X176311775Y-99306320D02*
X175738493Y-99306320D01*
X176025134Y-99306320D02*
X176025134Y-98303076D01*
X176025134Y-98303076D02*
X175929587Y-98446397D01*
X175929587Y-98446397D02*
X175834040Y-98541944D01*
X175834040Y-98541944D02*
X175738493Y-98589717D01*
X177219471Y-98303076D02*
X176741736Y-98303076D01*
X176741736Y-98303076D02*
X176693963Y-98780811D01*
X176693963Y-98780811D02*
X176741736Y-98733038D01*
X176741736Y-98733038D02*
X176837283Y-98685264D01*
X176837283Y-98685264D02*
X177076151Y-98685264D01*
X177076151Y-98685264D02*
X177171698Y-98733038D01*
X177171698Y-98733038D02*
X177219471Y-98780811D01*
X177219471Y-98780811D02*
X177267245Y-98876358D01*
X177267245Y-98876358D02*
X177267245Y-99115226D01*
X177267245Y-99115226D02*
X177219471Y-99210773D01*
X177219471Y-99210773D02*
X177171698Y-99258547D01*
X177171698Y-99258547D02*
X177076151Y-99306320D01*
X177076151Y-99306320D02*
X176837283Y-99306320D01*
X176837283Y-99306320D02*
X176741736Y-99258547D01*
X176741736Y-99258547D02*
X176693963Y-99210773D01*
X177697206Y-99306320D02*
X177697206Y-98303076D01*
X177697206Y-98303076D02*
X178031621Y-99019679D01*
X178031621Y-99019679D02*
X178366035Y-98303076D01*
X178366035Y-98303076D02*
X178366035Y-99306320D01*
X178843771Y-99306320D02*
X178843771Y-98303076D01*
X178843771Y-98780811D02*
X179417053Y-98780811D01*
X179417053Y-99306320D02*
X179417053Y-98303076D01*
X179799242Y-98637491D02*
X180324751Y-98637491D01*
X180324751Y-98637491D02*
X179799242Y-99306320D01*
X179799242Y-99306320D02*
X180324751Y-99306320D01*
X146940758Y-94747491D02*
X146940758Y-95416320D01*
X146701890Y-94365303D02*
X146463023Y-95081905D01*
X146463023Y-95081905D02*
X147084078Y-95081905D01*
X147370719Y-94413076D02*
X147991775Y-94413076D01*
X147991775Y-94413076D02*
X147657360Y-94795264D01*
X147657360Y-94795264D02*
X147800681Y-94795264D01*
X147800681Y-94795264D02*
X147896228Y-94843038D01*
X147896228Y-94843038D02*
X147944001Y-94890811D01*
X147944001Y-94890811D02*
X147991775Y-94986358D01*
X147991775Y-94986358D02*
X147991775Y-95225226D01*
X147991775Y-95225226D02*
X147944001Y-95320773D01*
X147944001Y-95320773D02*
X147896228Y-95368547D01*
X147896228Y-95368547D02*
X147800681Y-95416320D01*
X147800681Y-95416320D02*
X147514040Y-95416320D01*
X147514040Y-95416320D02*
X147418493Y-95368547D01*
X147418493Y-95368547D02*
X147370719Y-95320773D01*
X148326189Y-94413076D02*
X148947245Y-94413076D01*
X148947245Y-94413076D02*
X148612830Y-94795264D01*
X148612830Y-94795264D02*
X148756151Y-94795264D01*
X148756151Y-94795264D02*
X148851698Y-94843038D01*
X148851698Y-94843038D02*
X148899471Y-94890811D01*
X148899471Y-94890811D02*
X148947245Y-94986358D01*
X148947245Y-94986358D02*
X148947245Y-95225226D01*
X148947245Y-95225226D02*
X148899471Y-95320773D01*
X148899471Y-95320773D02*
X148851698Y-95368547D01*
X148851698Y-95368547D02*
X148756151Y-95416320D01*
X148756151Y-95416320D02*
X148469510Y-95416320D01*
X148469510Y-95416320D02*
X148373963Y-95368547D01*
X148373963Y-95368547D02*
X148326189Y-95320773D01*
X149377206Y-95416320D02*
X149377206Y-94413076D01*
X149377206Y-94413076D02*
X149711621Y-95129679D01*
X149711621Y-95129679D02*
X150046035Y-94413076D01*
X150046035Y-94413076D02*
X150046035Y-95416320D01*
X150523771Y-95416320D02*
X150523771Y-94413076D01*
X150523771Y-94890811D02*
X151097053Y-94890811D01*
X151097053Y-95416320D02*
X151097053Y-94413076D01*
X151479242Y-94747491D02*
X152004751Y-94747491D01*
X152004751Y-94747491D02*
X151479242Y-95416320D01*
X151479242Y-95416320D02*
X152004751Y-95416320D01*
X132740758Y-94337491D02*
X132740758Y-95006320D01*
X132501890Y-93955303D02*
X132263023Y-94671905D01*
X132263023Y-94671905D02*
X132884078Y-94671905D01*
X133170719Y-94003076D02*
X133791775Y-94003076D01*
X133791775Y-94003076D02*
X133457360Y-94385264D01*
X133457360Y-94385264D02*
X133600681Y-94385264D01*
X133600681Y-94385264D02*
X133696228Y-94433038D01*
X133696228Y-94433038D02*
X133744001Y-94480811D01*
X133744001Y-94480811D02*
X133791775Y-94576358D01*
X133791775Y-94576358D02*
X133791775Y-94815226D01*
X133791775Y-94815226D02*
X133744001Y-94910773D01*
X133744001Y-94910773D02*
X133696228Y-94958547D01*
X133696228Y-94958547D02*
X133600681Y-95006320D01*
X133600681Y-95006320D02*
X133314040Y-95006320D01*
X133314040Y-95006320D02*
X133218493Y-94958547D01*
X133218493Y-94958547D02*
X133170719Y-94910773D01*
X134126189Y-94003076D02*
X134747245Y-94003076D01*
X134747245Y-94003076D02*
X134412830Y-94385264D01*
X134412830Y-94385264D02*
X134556151Y-94385264D01*
X134556151Y-94385264D02*
X134651698Y-94433038D01*
X134651698Y-94433038D02*
X134699471Y-94480811D01*
X134699471Y-94480811D02*
X134747245Y-94576358D01*
X134747245Y-94576358D02*
X134747245Y-94815226D01*
X134747245Y-94815226D02*
X134699471Y-94910773D01*
X134699471Y-94910773D02*
X134651698Y-94958547D01*
X134651698Y-94958547D02*
X134556151Y-95006320D01*
X134556151Y-95006320D02*
X134269510Y-95006320D01*
X134269510Y-95006320D02*
X134173963Y-94958547D01*
X134173963Y-94958547D02*
X134126189Y-94910773D01*
X135177206Y-95006320D02*
X135177206Y-94003076D01*
X135177206Y-94003076D02*
X135511621Y-94719679D01*
X135511621Y-94719679D02*
X135846035Y-94003076D01*
X135846035Y-94003076D02*
X135846035Y-95006320D01*
X136323771Y-95006320D02*
X136323771Y-94003076D01*
X136323771Y-94480811D02*
X136897053Y-94480811D01*
X136897053Y-95006320D02*
X136897053Y-94003076D01*
X137279242Y-94337491D02*
X137804751Y-94337491D01*
X137804751Y-94337491D02*
X137279242Y-95006320D01*
X137279242Y-95006320D02*
X137804751Y-95006320D01*
X178898570Y-103756320D02*
X179089664Y-103756320D01*
X179089664Y-103756320D02*
X179185211Y-103708547D01*
X179185211Y-103708547D02*
X179232984Y-103660773D01*
X179232984Y-103660773D02*
X179328531Y-103517452D01*
X179328531Y-103517452D02*
X179376305Y-103326358D01*
X179376305Y-103326358D02*
X179376305Y-102944170D01*
X179376305Y-102944170D02*
X179328531Y-102848623D01*
X179328531Y-102848623D02*
X179280758Y-102800850D01*
X179280758Y-102800850D02*
X179185211Y-102753076D01*
X179185211Y-102753076D02*
X178994117Y-102753076D01*
X178994117Y-102753076D02*
X178898570Y-102800850D01*
X178898570Y-102800850D02*
X178850796Y-102848623D01*
X178850796Y-102848623D02*
X178803023Y-102944170D01*
X178803023Y-102944170D02*
X178803023Y-103183038D01*
X178803023Y-103183038D02*
X178850796Y-103278585D01*
X178850796Y-103278585D02*
X178898570Y-103326358D01*
X178898570Y-103326358D02*
X178994117Y-103374132D01*
X178994117Y-103374132D02*
X179185211Y-103374132D01*
X179185211Y-103374132D02*
X179280758Y-103326358D01*
X179280758Y-103326358D02*
X179328531Y-103278585D01*
X179328531Y-103278585D02*
X179376305Y-103183038D01*
X180331775Y-103756320D02*
X179758493Y-103756320D01*
X180045134Y-103756320D02*
X180045134Y-102753076D01*
X180045134Y-102753076D02*
X179949587Y-102896397D01*
X179949587Y-102896397D02*
X179854040Y-102991944D01*
X179854040Y-102991944D02*
X179758493Y-103039717D01*
X181239471Y-102753076D02*
X180761736Y-102753076D01*
X180761736Y-102753076D02*
X180713963Y-103230811D01*
X180713963Y-103230811D02*
X180761736Y-103183038D01*
X180761736Y-103183038D02*
X180857283Y-103135264D01*
X180857283Y-103135264D02*
X181096151Y-103135264D01*
X181096151Y-103135264D02*
X181191698Y-103183038D01*
X181191698Y-103183038D02*
X181239471Y-103230811D01*
X181239471Y-103230811D02*
X181287245Y-103326358D01*
X181287245Y-103326358D02*
X181287245Y-103565226D01*
X181287245Y-103565226D02*
X181239471Y-103660773D01*
X181239471Y-103660773D02*
X181191698Y-103708547D01*
X181191698Y-103708547D02*
X181096151Y-103756320D01*
X181096151Y-103756320D02*
X180857283Y-103756320D01*
X180857283Y-103756320D02*
X180761736Y-103708547D01*
X180761736Y-103708547D02*
X180713963Y-103660773D01*
X181717206Y-103756320D02*
X181717206Y-102753076D01*
X181717206Y-102753076D02*
X182051621Y-103469679D01*
X182051621Y-103469679D02*
X182386035Y-102753076D01*
X182386035Y-102753076D02*
X182386035Y-103756320D01*
X182863771Y-103756320D02*
X182863771Y-102753076D01*
X182863771Y-103230811D02*
X183437053Y-103230811D01*
X183437053Y-103756320D02*
X183437053Y-102753076D01*
X183819242Y-103087491D02*
X184344751Y-103087491D01*
X184344751Y-103087491D02*
X183819242Y-103756320D01*
X183819242Y-103756320D02*
X184344751Y-103756320D01*
D12*
%TO.C,REF\u002A\u002A*%
X141200000Y-88380000D02*
X157200000Y-88380000D01*
X157200000Y-104380000D02*
X141200000Y-104380000D01*
D10*
X158825000Y-103365000D02*
G75*
G02*
X158625000Y-103365000I-100000J0D01*
G01*
X158625000Y-103365000D02*
G75*
G02*
X158825000Y-103365000I100000J0D01*
G01*
X138340000Y-77580000D02*
X138340000Y-82660000D01*
X189140000Y-77580000D02*
X189140000Y-82660000D01*
X137330000Y-77055000D02*
G75*
G02*
X137130000Y-77055000I-100000J0D01*
G01*
X137130000Y-77055000D02*
G75*
G02*
X137330000Y-77055000I100000J0D01*
G01*
D13*
X132500000Y-88320000D02*
X132500000Y-90320000D01*
X134800000Y-86020000D02*
X136800000Y-86020000D01*
X134800000Y-92620000D02*
X136800000Y-92620000D01*
X139100000Y-88320000D02*
X139100000Y-90320000D01*
D12*
X169720000Y-86260000D02*
X185720000Y-86260000D01*
X185720000Y-102260000D02*
X169720000Y-102260000D01*
D10*
X168295000Y-87275000D02*
G75*
G02*
X168095000Y-87275000I-100000J0D01*
G01*
X168095000Y-87275000D02*
G75*
G02*
X168295000Y-87275000I100000J0D01*
G01*
D13*
X187970000Y-102280000D02*
X187970000Y-100280000D01*
X192270000Y-97980000D02*
X190270000Y-97980000D01*
X192270000Y-104580000D02*
X190270000Y-104580000D01*
X194570000Y-102280000D02*
X194570000Y-100280000D01*
%TO.C,D1*%
X187075000Y-92392500D02*
X187075000Y-94852500D01*
X188545000Y-92392500D02*
X187075000Y-92392500D01*
X188545000Y-94852500D02*
X188545000Y-92392500D01*
X138375000Y-96625000D02*
X138375000Y-99085000D01*
X139845000Y-96625000D02*
X138375000Y-96625000D01*
X139845000Y-99085000D02*
X139845000Y-96625000D01*
%TD*%
M02*
