%TF.GenerationSoftware,KiCad,Pcbnew,8.0.6*%
%TF.CreationDate,2024-12-05T19:40:30+08:00*%
%TF.ProjectId,RFM69HCW_v7,52464d36-3948-4435-975f-76372e6b6963,rev?*%
%TF.SameCoordinates,Original*%
%TF.FileFunction,Paste,Top*%
%TF.FilePolarity,Positive*%
%FSLAX46Y46*%
G04 Gerber Fmt 4.6, Leading zero omitted, Abs format (unit mm)*
G04 Created by KiCad (PCBNEW 8.0.6) date 2024-12-05 19:40:30*
%MOMM*%
%LPD*%
G01*
G04 APERTURE LIST*
G04 Aperture macros list*
%AMRoundRect*
0 Rectangle with rounded corners*
0 $1 Rounding radius*
0 $2 $3 $4 $5 $6 $7 $8 $9 X,Y pos of 4 corners*
0 Add a 4 corners polygon primitive as box body*
4,1,4,$2,$3,$4,$5,$6,$7,$8,$9,$2,$3,0*
0 Add four circle primitives for the rounded corners*
1,1,$1+$1,$2,$3*
1,1,$1+$1,$4,$5*
1,1,$1+$1,$6,$7*
1,1,$1+$1,$8,$9*
0 Add four rect primitives between the rounded corners*
20,1,$1+$1,$2,$3,$4,$5,0*
20,1,$1+$1,$4,$5,$6,$7,0*
20,1,$1+$1,$6,$7,$8,$9,0*
20,1,$1+$1,$8,$9,$2,$3,0*%
G04 Aperture macros list end*
%ADD10R,3.000000X1.200000*%
%ADD11R,1.270000X1.680000*%
%ADD12RoundRect,0.237500X-0.237500X0.287500X-0.237500X-0.287500X0.237500X-0.287500X0.237500X0.287500X0*%
G04 APERTURE END LIST*
D10*
%TO.C,REF\u002A\u002A*%
X156700000Y-103380000D03*
X156700000Y-101380000D03*
X156700000Y-99380000D03*
X156700000Y-97380000D03*
X156700000Y-93380000D03*
X156700000Y-89380000D03*
X141700000Y-97380000D03*
X141700000Y-91380000D03*
X141700000Y-89380000D03*
X141700000Y-99380000D03*
X141700000Y-101380000D03*
X141700000Y-103380000D03*
X141700000Y-93380000D03*
X141700000Y-95380000D03*
X156700000Y-91380000D03*
X156700000Y-95380000D03*
%TD*%
D11*
%TO.C,REF\u002A\u002A*%
X157390000Y-82840000D03*
X159930000Y-82840000D03*
X162470000Y-82840000D03*
X165010000Y-82840000D03*
X167550000Y-82840000D03*
X139610000Y-77400000D03*
X142150000Y-77400000D03*
X139610000Y-82840000D03*
X142150000Y-82840000D03*
X144690000Y-82840000D03*
X147230000Y-77400000D03*
X147230000Y-82840000D03*
X149770000Y-77400000D03*
X152310000Y-77400000D03*
X154850000Y-82840000D03*
X172630000Y-77400000D03*
X172630000Y-82840000D03*
X175170000Y-82840000D03*
X177710000Y-77400000D03*
X177710000Y-82840000D03*
X180250000Y-82840000D03*
X182790000Y-77400000D03*
X182790000Y-82840000D03*
X185330000Y-77400000D03*
X185330000Y-82840000D03*
X187870000Y-77400000D03*
X149770000Y-82840000D03*
X170090000Y-82840000D03*
X187870000Y-82840000D03*
X144690000Y-77400000D03*
X154850000Y-77400000D03*
X162470000Y-77400000D03*
X175170000Y-77400000D03*
X180250000Y-77400000D03*
X170090000Y-77400000D03*
X167550000Y-77400000D03*
X152310000Y-82840000D03*
X157390000Y-77400000D03*
X159930000Y-77400000D03*
X165010000Y-77400000D03*
%TD*%
D10*
%TO.C,REF\u002A\u002A*%
X170220000Y-87260000D03*
X170220000Y-89260000D03*
X170220000Y-91260000D03*
X170220000Y-93260000D03*
X170220000Y-97260000D03*
X170220000Y-101260000D03*
X185220000Y-93260000D03*
X185220000Y-99260000D03*
X185220000Y-101260000D03*
X185220000Y-91260000D03*
X185220000Y-89260000D03*
X185220000Y-87260000D03*
X185220000Y-97260000D03*
X185220000Y-95260000D03*
X170220000Y-99260000D03*
X170220000Y-95260000D03*
%TD*%
D12*
%TO.C,D1*%
X187810000Y-94927500D03*
X187810000Y-93177500D03*
%TD*%
%TO.C,D1*%
X139110000Y-99160000D03*
X139110000Y-97410000D03*
%TD*%
M02*
